<?xml version="1.0" encoding="UTF-8" standalone="no"?>
<svg
   xmlns:dc="http://purl.org/dc/elements/1.1/"
   xmlns:cc="http://creativecommons.org/ns#"
   xmlns:rdf="http://www.w3.org/1999/02/22-rdf-syntax-ns#"
   xmlns:svg="http://www.w3.org/2000/svg"
   xmlns="http://www.w3.org/2000/svg"
   xmlns:sodipodi="http://sodipodi.sourceforge.net/DTD/sodipodi-0.dtd"
   xmlns:inkscape="http://www.inkscape.org/namespaces/inkscape"
   inkscape:version="1.0rc1 (09960d6f05, 2020-04-09)"
   sodipodi:docname="font_ibm.svg"
   xml:space="preserve"
   viewBox="0 0 231.95675 53.151367"
   version="1.1"
   enable-background="new 0 0 198.44 105.83"
   height="380.82751"
   width="895.53925"
   class="animated inactive"
   id="lecture05Logo"><metadata
   id="metadata12"><rdf:RDF><cc:Work
       rdf:about=""><dc:format>image/svg+xml</dc:format><dc:type
         rdf:resource="http://purl.org/dc/dcmitype/StillImage" /><dc:title /></cc:Work></rdf:RDF></metadata><defs
   id="defs10" /><sodipodi:namedview
   fit-margin-bottom="0"
   fit-margin-right="0"
   fit-margin-left="0"
   fit-margin-top="0"
   inkscape:current-layer="lecture05Logo"
   inkscape:window-maximized="1"
   inkscape:window-y="-8"
   inkscape:window-x="-8"
   inkscape:cy="-0.0045906687"
   inkscape:cx="894.95419"
   inkscape:zoom="215.32541"
   showgrid="false"
   id="namedview8"
   inkscape:window-height="2097"
   inkscape:window-width="3840"
   inkscape:pageshadow="2"
   inkscape:pageopacity="0"
   guidetolerance="10"
   gridtolerance="10"
   objecttolerance="10"
   borderopacity="1"
   bordercolor="#666666"
   pagecolor="#6c6c6c"
   inkscape:document-rotation="0" />
  <filter
   height="200"
   width="200"
   y="-2"
   x="-2"
   id="blur-filter">
    <feGaussianBlur
   id="feGaussianBlur2"
   stdDeviation="2"
   in="SourceGraphic" />
  </filter><rect
   y="-22.677135"
   x="0.066914499"
   height="98.505638"
   width="231.8185"
   id="rect8493"
   style="fill:#03060c;fill-opacity:1;stroke:#000000;stroke-width:0.133829;stroke-linecap:square;stroke-miterlimit:40;stroke-dasharray:none;stroke-dashoffset:1.2;stroke-opacity:1" /><g
   style="font-weight:bold;font-size:12.3903px;line-height:1.25;font-family:'Segoe UI';-inkscape-font-specification:'Segoe UI Bold';fill:#d2d6dc;fill-opacity:1;stroke-width:5.85367;stroke-linecap:square;stroke-miterlimit:40;stroke-dashoffset:1.2"
   id="text1598"
   aria-label="PxPlus IBM VGA8"
   transform="translate(2.2351742e-8,2.4025502)"><path
     id="path899"
     style="font-style:normal;font-variant:normal;font-weight:normal;font-stretch:normal;font-family:'PxPlus IBM VGA8';-inkscape-font-specification:'PxPlus IBM VGA8';fill:#d2d6dc;fill-opacity:1;stroke-width:5.85367"
     d="M 15.179667,0.93355501 V 0.15916127 h 0.774394 V -6.0359886 h -0.774394 v -0.7743938 h 4.646363 v 0.7743938 h 0.774394 v 2.3231812 H 19.82603 v 0.7743937 h -2.323181 v 3.09757497 h 0.774393 v 0.77439374 z m 2.323182,-4.64636241 h 1.548787 v -2.3231812 h -1.548787 z"
     inkscape:connector-curvature="0" /><path
     id="path901"
     style="font-style:normal;font-variant:normal;font-weight:normal;font-stretch:normal;font-family:'PxPlus IBM VGA8';-inkscape-font-specification:'PxPlus IBM VGA8';fill:#d2d6dc;fill-opacity:1;stroke-width:5.85367"
     d="M 21.374817,0.93355501 V 0.15916127 h 0.774394 v -0.77439374 h 0.774394 V -2.9384137 h -0.774394 v -0.7743937 h -0.774394 v -0.7743938 h 1.548788 v 0.7743938 h 0.774394 v 0.7743937 h 0.774393 v -0.7743937 h 0.774394 v -0.7743938 h 1.548788 v 0.7743938 H 26.02118 v 0.7743937 h -0.774394 v 2.32318123 h 0.774394 v 0.77439374 h 0.774394 V 0.93355501 H 25.246786 V 0.15916127 h -0.774394 v -0.77439374 h -0.774393 v 0.77439374 h -0.774394 v 0.77439374 z"
     inkscape:connector-curvature="0" /><path
     id="path903"
     style="font-style:normal;font-variant:normal;font-weight:normal;font-stretch:normal;font-family:'PxPlus IBM VGA8';-inkscape-font-specification:'PxPlus IBM VGA8';fill:#d2d6dc;fill-opacity:1;stroke-width:5.85367"
     d="M 27.569967,0.93355501 V 0.15916127 h 0.774394 V -6.0359886 h -0.774394 v -0.7743938 h 4.646363 v 0.7743938 h 0.774393 v 2.3231812 H 32.21633 v 0.7743937 h -2.323182 v 3.09757497 h 0.774394 v 0.77439374 z m 2.323181,-4.64636241 h 1.548788 v -2.3231812 h -1.548788 z"
     inkscape:connector-curvature="0" /><path
     id="path905"
     style="font-style:normal;font-variant:normal;font-weight:normal;font-stretch:normal;font-family:'PxPlus IBM VGA8';-inkscape-font-specification:'PxPlus IBM VGA8';fill:#d2d6dc;fill-opacity:1;stroke-width:5.85367"
     d="m 37.637085,0.15916127 h 0.774394 V 0.93355501 H 35.313904 V 0.15916127 h 0.774394 V -6.0359886 h -0.774394 v -0.7743938 h 2.323181 z"
     inkscape:connector-curvature="0" /><path
     id="path907"
     style="font-style:normal;font-variant:normal;font-weight:normal;font-stretch:normal;font-family:'PxPlus IBM VGA8';-inkscape-font-specification:'PxPlus IBM VGA8';fill:#d2d6dc;fill-opacity:1;stroke-width:5.85367"
     d="M 39.960267,0.15916127 V -4.4872012 h 1.548788 v 4.64636247 h 1.548787 V 0.93355501 H 40.734661 V 0.15916127 Z m 3.097575,0 V -4.4872012 h 1.548787 v 4.64636247 h 0.774394 V 0.93355501 H 43.832236 V 0.15916127 Z"
     inkscape:connector-curvature="0" /><path
     id="path909"
     style="font-style:normal;font-variant:normal;font-weight:normal;font-stretch:normal;font-family:'PxPlus IBM VGA8';-inkscape-font-specification:'PxPlus IBM VGA8';fill:#d2d6dc;fill-opacity:1;stroke-width:5.85367"
     d="m 46.155417,0.15916127 v -0.77439374 h 1.548788 v 0.77439374 h 2.323181 V -0.61523247 H 49.252992 V -1.3896262 h -1.548787 v -0.7743937 h -0.774394 v -0.7743938 h -0.774394 v -0.7743937 h 0.774394 v -0.7743938 h 3.871969 v 0.7743938 h 0.774394 v 0.7743937 h -1.548788 v -0.7743937 h -2.323181 v 0.7743937 h 0.774394 v 0.7743938 h 1.548787 v 0.7743937 h 0.774394 v 0.77439373 h 0.774394 V 0.15916127 H 50.80178 V 0.93355501 H 46.929811 V 0.15916127 Z"
     inkscape:connector-curvature="0" /><path
     id="path911"
     style="font-style:normal;font-variant:normal;font-weight:normal;font-stretch:normal;font-family:'PxPlus IBM VGA8';-inkscape-font-specification:'PxPlus IBM VGA8';fill:#d2d6dc;fill-opacity:1;stroke-width:5.85367"
     d="m 62.417687,0.15916127 h 0.774394 V 0.93355501 H 60.094506 V 0.15916127 h 0.774393 V -6.0359886 h -0.774393 v -0.7743938 h 3.097575 v 0.7743938 h -0.774394 z"
     inkscape:connector-curvature="0" /><path
     id="path913"
     style="font-style:normal;font-variant:normal;font-weight:normal;font-stretch:normal;font-family:'PxPlus IBM VGA8';-inkscape-font-specification:'PxPlus IBM VGA8';fill:#d2d6dc;fill-opacity:1;stroke-width:5.85367"
     d="M 64.740867,0.93355501 V 0.15916127 H 65.51526 V -6.0359886 h -0.774393 v -0.7743938 h 4.646362 v 0.7743938 h 0.774394 v 2.3231812 h -0.774394 v 0.7743937 h 0.774394 v 3.09757497 h -0.774394 v 0.77439374 z m 2.323181,-0.77439374 h 1.548787 V -2.9384137 h -1.548787 z m 0,-3.87196867 h 1.548787 v -2.3231812 h -1.548787 z"
     inkscape:connector-curvature="0" /><path
     id="path915"
     style="font-style:normal;font-variant:normal;font-weight:normal;font-stretch:normal;font-family:'PxPlus IBM VGA8';-inkscape-font-specification:'PxPlus IBM VGA8';fill:#d2d6dc;fill-opacity:1;stroke-width:5.85367"
     d="M 70.936015,0.93355501 V -6.8103824 h 1.548788 v 0.7743938 h 0.774393 v 0.7743937 h 0.774394 v -0.7743937 h 0.774394 v -0.7743938 h 1.548787 V 0.93355501 H 74.807984 V -3.7128074 H 74.03359 v 0.7743937 h -0.774394 v -0.7743937 h -0.774393 v 4.64636241 z"
     inkscape:connector-curvature="0" /><path
     id="path917"
     style="font-style:normal;font-variant:normal;font-weight:normal;font-stretch:normal;font-family:'PxPlus IBM VGA8';-inkscape-font-specification:'PxPlus IBM VGA8';fill:#d2d6dc;fill-opacity:1;stroke-width:5.85367"
     d="m 83.32632,-1.3896262 v -5.4207562 h 1.548787 v 5.4207562 h 0.774394 v 0.77439373 h 0.774394 V -1.3896262 h 0.774393 v -5.4207562 h 1.548788 v 5.4207562 h -0.774394 v 0.77439373 H 87.198288 V 0.15916127 H 86.423895 V 0.93355501 H 85.649501 V 0.15916127 H 84.875107 V -0.61523247 H 84.100713 V -1.3896262 Z"
     inkscape:connector-curvature="0" /><path
     id="path919"
     style="font-style:normal;font-variant:normal;font-weight:normal;font-stretch:normal;font-family:'PxPlus IBM VGA8';-inkscape-font-specification:'PxPlus IBM VGA8';fill:#d2d6dc;fill-opacity:1;stroke-width:5.85367"
     d="M 89.521464,-0.61523247 V -5.2615949 h 0.774394 v -0.7743937 h 0.774394 v -0.7743938 h 3.097575 v 0.7743938 h 0.774394 v 1.5487874 h -0.774394 v -0.7743937 h -0.774394 v -0.7743937 h -1.548787 v 0.7743937 h -0.774394 v 4.64636243 h 0.774394 v 0.77439374 h 1.548787 V 0.93355501 H 91.070252 V 0.15916127 h -0.774394 v -0.77439374 z m 4.646363,0.77439374 H 93.393433 V -2.1640199 h -1.548787 v -0.7743938 h 3.097575 v 3.87196871 h -0.774394 z"
     inkscape:connector-curvature="0" /><path
     id="path921"
     style="font-style:normal;font-variant:normal;font-weight:normal;font-stretch:normal;font-family:'PxPlus IBM VGA8';-inkscape-font-specification:'PxPlus IBM VGA8';fill:#d2d6dc;fill-opacity:1;stroke-width:5.85367"
     d="M 95.716617,0.93355501 V -4.4872012 h 0.774393 v -0.7743937 h 0.774394 v -0.7743937 h 0.774394 v -0.7743938 h 0.774394 v 0.7743938 h 0.774393 v 0.7743937 h 0.774395 v 0.7743937 h 0.77439 V 0.93355501 H 99.588585 V -2.1640199 h -2.323181 v 3.09757491 z m 1.548787,-3.87196871 h 2.323181 v -1.5487875 h -0.774393 v -0.7743937 h -0.774394 v 0.7743937 h -0.774394 z"
     inkscape:connector-curvature="0" /><path
     id="path923"
     style="font-style:normal;font-variant:normal;font-weight:normal;font-stretch:normal;font-family:'PxPlus IBM VGA8';-inkscape-font-specification:'PxPlus IBM VGA8';fill:#d2d6dc;fill-opacity:1;stroke-width:5.85367"
     d="M 101.91177,0.15916127 V -2.9384137 h 0.77439 v -0.7743937 h -0.77439 v -2.3231812 h 0.77439 v -0.7743938 h 3.87197 v 0.7743938 h 0.7744 v 2.3231812 h -0.7744 v 0.7743937 h 0.7744 v 3.09757497 h -0.7744 v 0.77439374 h -3.87197 V 0.15916127 Z m 1.54879,0 h 2.32318 V -2.9384137 h -2.32318 z m 0,-3.87196867 h 2.32318 v -2.3231812 h -2.32318 z"
     inkscape:connector-curvature="0" /></g><g
   style="font-weight:bold;font-size:9.06547px;line-height:1.25;font-family:'Segoe UI';-inkscape-font-specification:'Segoe UI Bold';fill:#7b8694;fill-opacity:1;stroke-width:5.85367;stroke-linecap:square;stroke-miterlimit:40;stroke-dashoffset:1.2"
   id="text1602"
   aria-label="Aa"
   transform="translate(2.2351742e-8,2.4025502)"><path
     id="path926"
     style="font-style:normal;font-variant:normal;font-weight:normal;font-stretch:normal;font-family:'PxPlus IBM VGA8';-inkscape-font-specification:'PxPlus IBM VGA8';stroke-width:5.85367"
     d="m 15.179667,16.474363 v -3.966144 h 0.566593 v -0.566592 h 0.566592 v -0.566592 h 0.566592 v -0.566592 h 0.566592 v 0.566592 h 0.566592 v 0.566592 h 0.566592 v 0.566592 h 0.566592 v 3.966144 h -1.133184 v -2.266368 h -1.699776 v 2.266368 z m 1.133185,-2.83296 h 1.699776 v -1.133184 h -0.566592 v -0.566592 h -0.566592 v 0.566592 h -0.566592 z"
     inkscape:connector-curvature="0" /><path
     id="path928"
     style="font-style:normal;font-variant:normal;font-weight:normal;font-stretch:normal;font-family:'PxPlus IBM VGA8';-inkscape-font-specification:'PxPlus IBM VGA8';stroke-width:5.85367"
     d="m 19.712404,15.907771 v -1.699776 h 0.566592 v -0.566592 h 1.699776 v -0.566592 h -1.699776 v -0.566592 h 2.266368 v 0.566592 h 0.566592 v 2.83296 h 0.566592 v 0.566592 h -1.133184 v -0.566592 h -0.566592 v -1.699776 h -1.133184 v 1.699776 h 1.133184 v 0.566592 h -1.699776 v -0.566592 z"
     inkscape:connector-curvature="0" /></g><g
   style="font-weight:bold;font-size:9.06547px;line-height:1.25;font-family:'Segoe UI';-inkscape-font-specification:'Segoe UI Bold';fill:#7b8694;fill-opacity:1;stroke-width:5.85367;stroke-linecap:square;stroke-miterlimit:40;stroke-dashoffset:1.2"
   id="text1618"
   aria-label="Bb"
   transform="translate(2.2351742e-8,2.4025502)"><path
     id="path931"
     style="font-style:normal;font-variant:normal;font-weight:normal;font-stretch:normal;font-family:'PxPlus IBM VGA8';-inkscape-font-specification:'PxPlus IBM VGA8';stroke-width:5.85367"
     d="m 35.900749,16.474363 v -0.566592 h 0.566592 V 11.375037 H 35.900749 V 10.808445 H 39.3003 v 0.566592 h 0.566592 v 1.699775 H 39.3003 v 0.566592 h 0.566592 v 2.266367 H 39.3003 v 0.566592 z m 1.699776,-0.566592 h 1.133184 v -2.266367 h -1.133184 z m 0,-2.832959 h 1.133184 v -1.699775 h -1.133184 z"
     inkscape:connector-curvature="0" /><path
     id="path933"
     style="font-style:normal;font-variant:normal;font-weight:normal;font-stretch:normal;font-family:'PxPlus IBM VGA8';-inkscape-font-specification:'PxPlus IBM VGA8';stroke-width:5.85367"
     d="m 40.433484,11.375037 v -0.566592 h 1.699776 v 1.699775 h 1.133183 v 0.566592 h 0.566592 v 0.566592 h 0.566592 v 2.266367 h -0.566592 v 0.566592 h -2.832959 v -5.099326 z m 1.699776,4.532734 h 1.133183 V 13.641404 H 42.699852 V 13.074812 H 42.13326 Z"
     inkscape:connector-curvature="0" /></g><g
   style="font-weight:bold;font-size:9.06547px;line-height:1.25;font-family:'Segoe UI';-inkscape-font-specification:'Segoe UI Bold';fill:#7b8694;fill-opacity:1;stroke-width:5.85367;stroke-linecap:square;stroke-miterlimit:40;stroke-dashoffset:1.2"
   id="text1622"
   aria-label="Cc"
   transform="translate(2.2351742e-8,2.4025502)"><path
     id="path936"
     style="font-style:normal;font-variant:normal;font-weight:normal;font-stretch:normal;font-family:'PxPlus IBM VGA8';-inkscape-font-specification:'PxPlus IBM VGA8';stroke-width:5.85367"
     d="m 56.621819,15.34118 v -3.399552 h 0.566591 v -0.566591 h 0.566592 v -0.566592 h 2.266368 v 0.566592 h 0.566592 V 12.50822 H 60.02137 v -0.566592 h -0.566592 v -0.566591 h -1.133184 v 0.566591 h -0.566592 v 3.399552 h 0.566592 v 0.566591 h 1.133184 V 15.34118 h 0.566592 v -0.566592 h 0.566592 v 1.133183 H 60.02137 v 0.566592 H 57.755002 V 15.907771 H 57.18841 V 15.34118 Z"
     inkscape:connector-curvature="0" /><path
     id="path938"
     style="font-style:normal;font-variant:normal;font-weight:normal;font-stretch:normal;font-family:'PxPlus IBM VGA8';-inkscape-font-specification:'PxPlus IBM VGA8';stroke-width:5.85367"
     d="m 61.154553,15.907771 v -2.832959 h 0.566592 V 12.50822 h 2.83296 v 0.566592 h 0.566591 v 0.566592 h -1.133183 v -0.566592 h -1.699776 v 2.832959 h 1.699776 V 15.34118 h 1.133183 v 0.566591 h -0.566591 v 0.566592 h -2.83296 v -0.566592 z"
     inkscape:connector-curvature="0" /></g><g
   style="font-weight:bold;font-size:9.06547px;line-height:1.25;font-family:'Segoe UI';-inkscape-font-specification:'Segoe UI Bold';fill:#7b8694;fill-opacity:1;stroke-width:5.85367;stroke-linecap:square;stroke-miterlimit:40;stroke-dashoffset:1.2"
   id="text1626"
   aria-label="Dd"
   transform="translate(2.2351742e-8,2.4025502)"><path
     id="path941"
     style="font-style:normal;font-variant:normal;font-weight:normal;font-stretch:normal;font-family:'PxPlus IBM VGA8';-inkscape-font-specification:'PxPlus IBM VGA8';stroke-width:5.85367"
     d="m 77.342888,16.474363 v -0.566592 h 0.566592 v -4.532734 h -0.566592 v -0.566592 h 2.832959 v 0.566592 h 0.566592 v 0.566591 h 0.566592 v 3.399552 h -0.566592 v 0.566591 h -0.566592 v 0.566592 z m 1.699775,-0.566592 h 0.566592 V 15.34118 h 0.566592 v -3.399552 h -0.566592 v -0.566591 h -0.566592 z"
     inkscape:connector-curvature="0" /><path
     id="path943"
     style="font-style:normal;font-variant:normal;font-weight:normal;font-stretch:normal;font-family:'PxPlus IBM VGA8';-inkscape-font-specification:'PxPlus IBM VGA8';stroke-width:5.85367"
     d="m 81.875623,15.907771 v -2.266367 h 0.566592 v -0.566592 h 0.566591 V 12.50822 h 1.133184 v -1.133183 h -0.566592 v -0.566592 h 1.699776 v 5.099326 h 0.566592 v 0.566592 H 84.708582 V 15.907771 H 84.14199 v -2.832959 h -0.566592 v 0.566592 h -0.566592 v 2.266367 h 1.133184 v 0.566592 h -1.699775 v -0.566592 z"
     inkscape:connector-curvature="0" /></g><g
   style="font-weight:bold;font-size:9.06547px;line-height:1.25;font-family:'Segoe UI';-inkscape-font-specification:'Segoe UI Bold';fill:#7b8694;fill-opacity:1;stroke-width:5.85367;stroke-linecap:square;stroke-miterlimit:40;stroke-dashoffset:1.2"
   id="text1630"
   aria-label="Ee"
   transform="translate(2.2351742e-8,2.4025502)"><path
     id="path946"
     style="font-style:normal;font-variant:normal;font-weight:normal;font-stretch:normal;font-family:'PxPlus IBM VGA8';-inkscape-font-specification:'PxPlus IBM VGA8';stroke-width:5.85367"
     d="m 98.063957,16.474363 v -0.566592 h 0.566592 v -4.532734 h -0.566592 v -0.566592 h 3.966143 v 1.699775 h -0.56659 v -0.566592 h -0.56659 v -0.566591 h -1.133187 v 1.699775 h 0.566587 V 12.50822 h 0.5666 v 1.699776 h -0.5666 v -0.566592 h -0.566587 v 2.266367 h 1.133187 V 15.34118 h 0.56659 v -0.566592 h 0.56659 v 1.699775 z"
     inkscape:connector-curvature="0" /><path
     id="path948"
     style="font-style:normal;font-variant:normal;font-weight:normal;font-stretch:normal;font-family:'PxPlus IBM VGA8';-inkscape-font-specification:'PxPlus IBM VGA8';stroke-width:5.85367"
     d="m 102.59669,15.907771 v -2.832959 h 0.56659 V 12.50822 h 2.83296 v 0.566592 h 0.5666 v 1.133184 h -2.83296 v 1.699775 h 1.69977 V 15.34118 h 1.13319 v 0.566591 h -0.5666 v 0.566592 h -2.83296 v -0.566592 z m 1.13319,-2.266367 h 1.69977 v -0.566592 h -1.69977 z"
     inkscape:connector-curvature="0" /></g><g
   style="font-weight:bold;font-size:9.06547px;line-height:1.25;font-family:'Segoe UI';-inkscape-font-specification:'Segoe UI Bold';fill:#7b8694;fill-opacity:1;stroke-width:5.85367;stroke-linecap:square;stroke-miterlimit:40;stroke-dashoffset:1.2"
   id="text1634"
   aria-label="Ff"
   transform="translate(2.2351742e-8,2.4025502)"><path
     id="path951"
     style="font-style:normal;font-variant:normal;font-weight:normal;font-stretch:normal;font-family:'PxPlus IBM VGA8';-inkscape-font-specification:'PxPlus IBM VGA8';stroke-width:5.85367"
     d="m 118.785,16.474363 v -0.566592 h 0.5666 v -4.532734 h -0.5666 v -0.566592 h 3.96615 v 1.699775 h -0.5666 v -0.566592 h -0.56659 v -0.566591 h -1.13318 v 1.699775 h 0.56659 V 12.50822 h 0.56659 v 1.699776 h -0.56659 v -0.566592 h -0.56659 v 2.266367 h 0.56659 v 0.566592 z"
     inkscape:connector-curvature="0" /><path
     id="path953"
     style="font-style:normal;font-variant:normal;font-weight:normal;font-stretch:normal;font-family:'PxPlus IBM VGA8';-inkscape-font-specification:'PxPlus IBM VGA8';stroke-width:5.85367"
     d="m 123.31774,16.474363 v -0.566592 h 0.56659 v -2.266367 h -0.56659 v -0.566592 h 0.56659 v -1.699775 h 0.56659 v -0.566592 h 1.69978 v 0.566592 h 0.56659 v 1.133183 h -0.56659 v -0.566592 h -0.56659 v -0.566591 h -0.5666 v 1.699775 h 0.5666 v 0.566592 h -0.5666 v 2.266367 h 0.5666 v 0.566592 z"
     inkscape:connector-curvature="0" /></g><g
   style="font-weight:bold;font-size:9.06547px;line-height:1.25;font-family:'Segoe UI';-inkscape-font-specification:'Segoe UI Bold';fill:#7b8694;fill-opacity:1;stroke-width:5.85367;stroke-linecap:square;stroke-miterlimit:40;stroke-dashoffset:1.2"
   id="text1638"
   aria-label="Gg"
   transform="translate(2.2351742e-8,2.4025502)"><path
     id="path956"
     style="font-style:normal;font-variant:normal;font-weight:normal;font-stretch:normal;font-family:'PxPlus IBM VGA8';-inkscape-font-specification:'PxPlus IBM VGA8';stroke-width:5.85367"
     d="m 139.50607,15.34118 v -3.399552 h 0.56659 v -0.566591 h 0.5666 v -0.566592 h 2.26636 v 0.566592 h 0.5666 v 1.133183 h -0.5666 v -0.566592 h -0.56659 v -0.566591 h -1.13318 v 0.566591 h -0.56659 v 3.399552 h 0.56659 v 0.566591 h 1.13318 v 0.566592 h -1.69977 v -0.566592 h -0.5666 V 15.34118 Z m 3.39955,0.566591 h -0.56659 v -1.699775 h -1.13318 v -0.566592 h 2.26637 v 2.832959 h -0.5666 z"
     inkscape:connector-curvature="0" /><path
     id="path958"
     style="font-style:normal;font-variant:normal;font-weight:normal;font-stretch:normal;font-family:'PxPlus IBM VGA8';-inkscape-font-specification:'PxPlus IBM VGA8';stroke-width:5.85367"
     d="m 144.03881,17.607547 v -0.566592 h 1.13318 v 0.566592 h 1.13319 v -1.133184 h -1.69978 v -0.566592 h -0.56659 v -2.832959 h 0.56659 V 12.50822 h 1.69978 v 0.566592 h -1.13319 v 2.832959 h 1.13319 v -2.832959 h 0.56659 V 12.50822 h 1.13318 v 0.566592 h -0.56659 v 4.532735 h -0.56659 v 0.566592 h -2.26637 v -0.566592 z"
     inkscape:connector-curvature="0" /></g><g
   style="font-weight:bold;font-size:9.06547px;line-height:1.25;font-family:'Segoe UI';-inkscape-font-specification:'Segoe UI Bold';fill:#7b8694;fill-opacity:1;stroke-width:5.85367;stroke-linecap:square;stroke-miterlimit:40;stroke-dashoffset:1.2"
   id="text1646"
   aria-label="Hh"
   transform="translate(2.2351742e-8,2.4025502)"><path
     id="path961"
     style="font-style:normal;font-variant:normal;font-weight:normal;font-stretch:normal;font-family:'PxPlus IBM VGA8';-inkscape-font-specification:'PxPlus IBM VGA8';stroke-width:5.85367"
     d="m 15.179667,29.425041 v -5.665918 h 1.133184 v 2.266367 h 1.699776 v -2.266367 h 1.133183 v 5.665918 h -1.133183 v -2.832959 h -1.699776 v 2.832959 z"
     inkscape:connector-curvature="0" /><path
     id="path963"
     style="font-style:normal;font-variant:normal;font-weight:normal;font-stretch:normal;font-family:'PxPlus IBM VGA8';-inkscape-font-specification:'PxPlus IBM VGA8';stroke-width:5.85367"
     d="m 19.712402,29.425041 v -0.566592 h 0.566592 v -4.532735 h -0.566592 v -0.566591 h 1.699776 v 2.266367 h 0.566592 v 0.566592 h -0.566592 v 2.832959 z M 21.97877,26.02549 v -0.566592 h 1.133183 v 0.566592 h 0.566592 v 3.399551 H 22.545362 V 26.02549 Z"
     inkscape:connector-curvature="0" /></g><g
   style="font-weight:bold;font-size:9.06547px;line-height:1.25;font-family:'Segoe UI';-inkscape-font-specification:'Segoe UI Bold';fill:#7b8694;fill-opacity:1;stroke-width:5.85367;stroke-linecap:square;stroke-miterlimit:40;stroke-dashoffset:1.2"
   id="text1650"
   aria-label="Ii"
   transform="translate(2.2351742e-8,2.4025502)"><path
     id="path966"
     style="font-style:normal;font-variant:normal;font-weight:normal;font-stretch:normal;font-family:'PxPlus IBM VGA8';-inkscape-font-specification:'PxPlus IBM VGA8';stroke-width:5.85367"
     d="M 38.733709,28.858449 H 39.3003 v 0.566592 h -2.266367 v -0.566592 h 0.566592 V 24.325714 H 37.033933 V 23.759123 H 39.3003 v 0.566591 h -0.566591 z"
     inkscape:connector-curvature="0" /><path
     id="path968"
     style="font-style:normal;font-variant:normal;font-weight:normal;font-stretch:normal;font-family:'PxPlus IBM VGA8';-inkscape-font-specification:'PxPlus IBM VGA8';stroke-width:5.85367"
     d="M 41.566668,29.425041 V 28.858449 H 42.13326 V 26.02549 h -0.566592 v -0.566592 h 1.699775 v 3.399551 h 0.566592 v 0.566592 z m 0.566592,-5.665918 h 1.133183 v 1.133183 H 42.13326 Z"
     inkscape:connector-curvature="0" /></g><g
   style="font-weight:bold;font-size:9.06547px;line-height:1.25;font-family:'Segoe UI';-inkscape-font-specification:'Segoe UI Bold';fill:#7b8694;fill-opacity:1;stroke-width:5.85367;stroke-linecap:square;stroke-miterlimit:40;stroke-dashoffset:1.2"
   id="text1654"
   aria-label="Jj"
   transform="translate(2.2351742e-8,2.4025502)"><path
     id="path971"
     style="font-style:normal;font-variant:normal;font-weight:normal;font-stretch:normal;font-family:'PxPlus IBM VGA8';-inkscape-font-specification:'PxPlus IBM VGA8';stroke-width:5.85367"
     d="m 56.621819,28.858449 v -1.699775 h 1.133183 v 1.699775 h 1.133184 v -4.532735 h -0.566592 v -0.566591 h 2.266368 v 0.566591 H 60.02137 v 4.532735 h -0.566592 v 0.566592 H 57.18841 v -0.566592 z"
     inkscape:connector-curvature="0" /><path
     id="path973"
     style="font-style:normal;font-variant:normal;font-weight:normal;font-stretch:normal;font-family:'PxPlus IBM VGA8';-inkscape-font-specification:'PxPlus IBM VGA8';stroke-width:5.85367"
     d="m 61.721145,29.425041 h 1.133184 v 1.133184 h 1.133184 V 26.02549 h -0.566592 v -0.566592 h 1.699775 v 5.099327 h -0.566591 v 0.566592 h -2.266368 v -0.566592 h -0.566592 z m 2.266368,-5.665918 h 1.133183 v 1.133183 h -1.133183 z"
     inkscape:connector-curvature="0" /></g><g
   style="font-weight:bold;font-size:9.06547px;line-height:1.25;font-family:'Segoe UI';-inkscape-font-specification:'Segoe UI Bold';fill:#7b8694;fill-opacity:1;stroke-width:5.85367;stroke-linecap:square;stroke-miterlimit:40;stroke-dashoffset:1.2"
   id="text1658"
   aria-label="Kk"
   transform="translate(2.2351742e-8,2.4025502)"><path
     id="path976"
     style="font-style:normal;font-variant:normal;font-weight:normal;font-stretch:normal;font-family:'PxPlus IBM VGA8';-inkscape-font-specification:'PxPlus IBM VGA8';stroke-width:5.85367"
     d="m 77.342888,29.425041 v -0.566592 h 0.566592 v -4.532735 h -0.566592 v -0.566591 h 1.699775 v 2.266367 h 0.566592 v -0.566592 h 0.566592 v -1.699775 h 1.133184 v 1.699775 h -0.566592 v 0.566592 h -0.566592 v 1.133184 h 0.566592 v 0.566592 h 0.566592 v 1.699775 h -1.133184 v -1.699775 h -0.566592 v -0.566592 h -0.566592 v 2.266367 z"
     inkscape:connector-curvature="0" /><path
     id="path978"
     style="font-style:normal;font-variant:normal;font-weight:normal;font-stretch:normal;font-family:'PxPlus IBM VGA8';-inkscape-font-specification:'PxPlus IBM VGA8';stroke-width:5.85367"
     d="m 81.875623,29.425041 v -0.566592 h 0.566592 v -4.532735 h -0.566592 v -0.566591 h 1.699775 v 2.832959 H 84.14199 V 26.02549 h 0.566592 v -0.566592 h 1.133184 v 0.566592 h -0.566592 v 0.566592 h -0.566592 v 1.133184 h 0.566592 v 0.566591 h 0.566592 v 1.133184 H 84.708582 V 28.291857 H 84.14199 v -0.566591 h -0.566592 v 1.699775 z"
     inkscape:connector-curvature="0" /></g><g
   style="font-weight:bold;font-size:9.06547px;line-height:1.25;font-family:'Segoe UI';-inkscape-font-specification:'Segoe UI Bold';fill:#7b8694;fill-opacity:1;stroke-width:5.85367;stroke-linecap:square;stroke-miterlimit:40;stroke-dashoffset:1.2"
   id="text1662"
   aria-label="Ll"
   transform="translate(2.2351742e-8,2.4025502)"><path
     id="path981"
     style="font-style:normal;font-variant:normal;font-weight:normal;font-stretch:normal;font-family:'PxPlus IBM VGA8';-inkscape-font-specification:'PxPlus IBM VGA8';stroke-width:5.85367"
     d="m 98.063957,29.425041 v -0.566592 h 0.566592 v -4.532735 h -0.566592 v -0.566591 h 2.266363 v 0.566591 h -0.566587 v 4.532735 h 1.133187 v -0.566592 h 0.56659 v -0.566591 h 0.56659 v 1.699775 z"
     inkscape:connector-curvature="0" /><path
     id="path983"
     style="font-style:normal;font-variant:normal;font-weight:normal;font-stretch:normal;font-family:'PxPlus IBM VGA8';-inkscape-font-specification:'PxPlus IBM VGA8';stroke-width:5.85367"
     d="m 105.42965,28.858449 h 0.56659 v 0.566592 h -2.26636 v -0.566592 h 0.56659 v -4.532735 h -0.56659 v -0.566591 h 1.69977 z"
     inkscape:connector-curvature="0" /></g><g
   style="font-weight:bold;font-size:9.06547px;line-height:1.25;font-family:'Segoe UI';-inkscape-font-specification:'Segoe UI Bold';fill:#7b8694;fill-opacity:1;stroke-width:5.85367;stroke-linecap:square;stroke-miterlimit:40;stroke-dashoffset:1.2"
   id="text1666"
   aria-label="Mm"
   transform="translate(2.2351742e-8,2.4025502)"><path
     id="path986"
     style="font-style:normal;font-variant:normal;font-weight:normal;font-stretch:normal;font-family:'PxPlus IBM VGA8';-inkscape-font-specification:'PxPlus IBM VGA8';stroke-width:5.85367"
     d="m 118.785,29.425041 v -5.665918 h 1.13319 v 0.566591 h 0.56659 v 0.566592 h 0.56659 v -0.566592 h 0.56659 v -0.566591 h 1.13319 v 5.665918 h -1.13319 V 26.02549 h -0.56659 v 0.566592 h -0.56659 V 26.02549 h -0.56659 v 3.399551 z"
     inkscape:connector-curvature="0" /><path
     id="path988"
     style="font-style:normal;font-variant:normal;font-weight:normal;font-stretch:normal;font-family:'PxPlus IBM VGA8';-inkscape-font-specification:'PxPlus IBM VGA8';stroke-width:5.85367"
     d="m 123.31774,29.425041 v -3.966143 h 1.69977 v 0.566592 h 0.5666 v -0.566592 h 1.13318 v 0.566592 h 0.56659 v 3.399551 h -1.13318 v -2.832959 h -0.56659 v 2.266367 h -0.5666 v -2.266367 h -0.56659 v 2.832959 z"
     inkscape:connector-curvature="0" /></g><g
   style="font-weight:bold;font-size:9.06547px;line-height:1.25;font-family:'Segoe UI';-inkscape-font-specification:'Segoe UI Bold';fill:#7b8694;fill-opacity:1;stroke-width:5.85367;stroke-linecap:square;stroke-miterlimit:40;stroke-dashoffset:1.2"
   id="text1670"
   aria-label="Nn"
   transform="translate(2.2351742e-8,2.4025502)"><path
     id="path991"
     style="font-style:normal;font-variant:normal;font-weight:normal;font-stretch:normal;font-family:'PxPlus IBM VGA8';-inkscape-font-specification:'PxPlus IBM VGA8';stroke-width:5.85367"
     d="m 139.50607,29.425041 v -5.665918 h 1.13319 v 0.566591 h 0.56659 v 0.566592 h 0.56659 v 0.566592 h 0.56659 v -1.699775 h 1.13319 v 5.665918 h -1.13319 v -2.266367 h -0.56659 v -0.566592 h -0.56659 V 26.02549 h -0.56659 v 3.399551 z"
     inkscape:connector-curvature="0" /><path
     id="path993"
     style="font-style:normal;font-variant:normal;font-weight:normal;font-stretch:normal;font-family:'PxPlus IBM VGA8';-inkscape-font-specification:'PxPlus IBM VGA8';stroke-width:5.85367"
     d="m 144.03881,26.02549 v -0.566592 h 1.13318 v 0.566592 h 0.56659 v 3.399551 H 144.6054 V 26.02549 Z m 1.69977,0 v -0.566592 h 1.69978 v 0.566592 h 0.56659 v 3.399551 h -1.13318 V 26.02549 Z"
     inkscape:connector-curvature="0" /></g><g
   style="font-weight:bold;font-size:9.06547px;line-height:1.25;font-family:'Segoe UI';-inkscape-font-specification:'Segoe UI Bold';fill:#7b8694;fill-opacity:1;stroke-width:5.85367;stroke-linecap:square;stroke-miterlimit:40;stroke-dashoffset:1.2"
   id="text1674"
   aria-label="Oo"
   transform="translate(2.2351742e-8,2.4025502)"><path
     id="path996"
     style="font-style:normal;font-variant:normal;font-weight:normal;font-stretch:normal;font-family:'PxPlus IBM VGA8';-inkscape-font-specification:'PxPlus IBM VGA8';stroke-width:5.85367"
     d="m 15.179667,41.809118 v -4.532735 h 0.566592 v -0.566592 h 2.83296 v 0.566592 h 0.566591 v 4.532735 h -0.566591 v 0.566592 h -2.83296 v -0.566592 z m 1.133184,0 h 1.699776 v -4.532735 h -1.699776 z"
     inkscape:connector-curvature="0" /><path
     id="path998"
     style="font-style:normal;font-variant:normal;font-weight:normal;font-stretch:normal;font-family:'PxPlus IBM VGA8';-inkscape-font-specification:'PxPlus IBM VGA8';stroke-width:5.85367"
     d="m 19.712402,41.809118 v -2.83296 h 0.566592 v -0.566591 h 2.832959 v 0.566591 h 0.566592 v 2.83296 h -0.566592 v 0.566592 h -2.832959 v -0.566592 z m 1.133184,0 h 1.699776 v -2.83296 h -1.699776 z"
     inkscape:connector-curvature="0" /></g><g
   style="font-weight:bold;font-size:9.06547px;line-height:1.25;font-family:'Segoe UI';-inkscape-font-specification:'Segoe UI Bold';fill:#7b8694;fill-opacity:1;stroke-width:5.85367;stroke-linecap:square;stroke-miterlimit:40;stroke-dashoffset:1.2"
   id="text1678"
   aria-label="Pp"
   transform="translate(2.2351742e-8,2.4025502)"><path
     id="path1001"
     style="font-style:normal;font-variant:normal;font-weight:normal;font-stretch:normal;font-family:'PxPlus IBM VGA8';-inkscape-font-specification:'PxPlus IBM VGA8';stroke-width:5.85367"
     d="m 35.900749,42.37571 v -0.566592 h 0.566592 V 37.276383 H 35.900749 V 36.709791 H 39.3003 v 0.566592 h 0.566592 v 1.699775 H 39.3003 v 0.566592 h -1.699775 v 2.266368 h 0.566592 v 0.566592 z m 1.699776,-3.399552 h 1.133184 v -1.699775 h -1.133184 z"
     inkscape:connector-curvature="0" /><path
     id="path1003"
     style="font-style:normal;font-variant:normal;font-weight:normal;font-stretch:normal;font-family:'PxPlus IBM VGA8';-inkscape-font-specification:'PxPlus IBM VGA8';stroke-width:5.85367"
     d="m 40.433484,43.508893 h 0.566592 v -4.532735 h -0.566592 v -0.566591 h 1.133184 v 0.566591 h 0.566592 v 2.83296 h 1.133183 v -2.83296 H 42.13326 v -0.566591 h 1.699775 v 0.566591 h 0.566592 v 2.83296 H 43.833035 V 42.37571 H 42.13326 v 1.133183 h 0.566592 v 0.566592 h -2.266368 z"
     inkscape:connector-curvature="0" /></g><g
   style="font-weight:bold;font-size:9.06547px;line-height:1.25;font-family:'Segoe UI';-inkscape-font-specification:'Segoe UI Bold';fill:#7b8694;fill-opacity:1;stroke-width:5.85367;stroke-linecap:square;stroke-miterlimit:40;stroke-dashoffset:1.2"
   id="text1682"
   aria-label="Qq"
   transform="translate(2.2351742e-8,2.4025502)"><path
     id="path1006"
     style="font-style:normal;font-variant:normal;font-weight:normal;font-stretch:normal;font-family:'PxPlus IBM VGA8';-inkscape-font-specification:'PxPlus IBM VGA8';stroke-width:5.85367"
     d="m 56.621819,41.809118 v -4.532735 h 0.566591 v -0.566592 h 2.83296 v 0.566592 h 0.566592 v 4.532735 H 60.02137 v 1.133183 h 0.566592 v 0.566592 H 58.888186 V 42.37571 H 57.18841 v -0.566592 z m 1.133183,0 h 0.566592 v -1.133184 h 0.566592 v 0.566592 h 0.566592 v -3.966143 h -1.699776 z"
     inkscape:connector-curvature="0" /><path
     id="path1008"
     style="font-style:normal;font-variant:normal;font-weight:normal;font-stretch:normal;font-family:'PxPlus IBM VGA8';-inkscape-font-specification:'PxPlus IBM VGA8';stroke-width:5.85367"
     d="m 61.154553,41.809118 v -2.83296 h 0.566592 v -0.566591 h 1.699776 v 0.566591 h -1.133184 v 2.83296 h 1.133184 v -2.83296 h 0.566592 v -0.566591 h 1.133183 v 0.566591 h -0.566591 v 4.532735 h 0.566591 v 0.566592 h -2.266367 v -0.566592 h 0.566592 V 42.37571 h -1.699776 v -0.566592 z"
     inkscape:connector-curvature="0" /></g><g
   style="font-weight:bold;font-size:9.06547px;line-height:1.25;font-family:'Segoe UI';-inkscape-font-specification:'Segoe UI Bold';fill:#7b8694;fill-opacity:1;stroke-width:5.85367;stroke-linecap:square;stroke-miterlimit:40;stroke-dashoffset:1.2"
   id="text1686"
   aria-label="Rr"
   transform="translate(2.2351742e-8,2.4025502)"><path
     id="path1011"
     style="font-style:normal;font-variant:normal;font-weight:normal;font-stretch:normal;font-family:'PxPlus IBM VGA8';-inkscape-font-specification:'PxPlus IBM VGA8';stroke-width:5.85367"
     d="m 77.342888,42.37571 v -0.566592 h 0.566592 v -4.532735 h -0.566592 v -0.566592 h 3.399551 v 0.566592 h 0.566592 v 1.699775 h -0.566592 v 1.133184 h 0.566592 V 42.37571 H 80.175847 V 40.109342 H 79.609255 V 39.54275 h -0.566592 v 2.83296 z m 1.699775,-3.399552 h 1.133184 v -1.699775 h -1.133184 z"
     inkscape:connector-curvature="0" /><path
     id="path1013"
     style="font-style:normal;font-variant:normal;font-weight:normal;font-stretch:normal;font-family:'PxPlus IBM VGA8';-inkscape-font-specification:'PxPlus IBM VGA8';stroke-width:5.85367"
     d="m 81.875623,42.37571 v -0.566592 h 0.566592 v -2.83296 h -0.566592 v -0.566591 h 1.133183 v 0.566591 h 0.566592 v -0.566591 h 1.699776 v 0.566591 h 0.566592 v 1.133184 H 84.708582 V 38.976158 H 84.14199 v 0.566592 h -0.566592 v 2.266368 h 0.566592 v 0.566592 z"
     inkscape:connector-curvature="0" /></g><g
   style="font-weight:bold;font-size:9.06547px;line-height:1.25;font-family:'Segoe UI';-inkscape-font-specification:'Segoe UI Bold';fill:#7b8694;fill-opacity:1;stroke-width:5.85367;stroke-linecap:square;stroke-miterlimit:40;stroke-dashoffset:1.2"
   id="text1690"
   aria-label="Ss"
   transform="translate(2.2351742e-8,2.4025502)"><path
     id="path1016"
     style="font-style:normal;font-variant:normal;font-weight:normal;font-stretch:normal;font-family:'PxPlus IBM VGA8';-inkscape-font-specification:'PxPlus IBM VGA8';stroke-width:5.85367"
     d="m 98.063957,41.809118 v -1.133184 h 1.133184 v 1.133184 h 1.699779 v -1.699776 h -0.5666 V 39.54275 h -1.133179 v -0.566592 h -0.566592 v -0.566591 h -0.566592 v -1.133184 h 0.566592 v -0.566592 h 2.832961 v 0.566592 h 0.56659 v 1.133184 h -1.13318 v -1.133184 h -1.699779 v 1.133184 h 0.566592 v 0.566591 h 1.133187 v 0.566592 h 0.56659 v 0.566592 h 0.56659 v 1.699776 h -0.56659 v 0.566592 h -2.832961 v -0.566592 z"
     inkscape:connector-curvature="0" /><path
     id="path1018"
     style="font-style:normal;font-variant:normal;font-weight:normal;font-stretch:normal;font-family:'PxPlus IBM VGA8';-inkscape-font-specification:'PxPlus IBM VGA8';stroke-width:5.85367"
     d="m 102.59669,41.809118 v -0.566592 h 1.13319 v 0.566592 h 1.69977 v -0.566592 h -0.56659 v -0.566592 h -1.13318 v -0.566592 h -0.5666 V 39.54275 h -0.56659 v -0.566592 h 0.56659 v -0.566591 h 2.83296 v 0.566591 h 0.5666 v 0.566592 h -1.13319 v -0.566592 h -1.69977 v 0.566592 h 0.56659 v 0.566592 h 1.13318 v 0.566592 h 0.56659 v 0.566592 h 0.5666 v 0.566592 h -0.5666 v 0.566592 h -2.83296 v -0.566592 z"
     inkscape:connector-curvature="0" /></g><g
   style="font-weight:bold;font-size:9.06547px;line-height:1.25;font-family:'Segoe UI';-inkscape-font-specification:'Segoe UI Bold';fill:#7b8694;fill-opacity:1;stroke-width:5.85367;stroke-linecap:square;stroke-miterlimit:40;stroke-dashoffset:1.2"
   id="text1694"
   aria-label="Tt"
   transform="translate(2.2351742e-8,2.4025502)"><path
     id="path1021"
     style="font-style:normal;font-variant:normal;font-weight:normal;font-stretch:normal;font-family:'PxPlus IBM VGA8';-inkscape-font-specification:'PxPlus IBM VGA8';stroke-width:5.85367"
     d="m 119.3516,38.409567 v -1.699776 h 3.39955 v 1.699776 h -0.5666 v -0.566592 h -0.56659 v 3.966143 h 0.56659 v 0.566592 h -2.26636 v -0.566592 h 0.56659 v -3.966143 h -0.56659 v 0.566592 z"
     inkscape:connector-curvature="0" /><path
     id="path1023"
     style="font-style:normal;font-variant:normal;font-weight:normal;font-stretch:normal;font-family:'PxPlus IBM VGA8';-inkscape-font-specification:'PxPlus IBM VGA8';stroke-width:5.85367"
     d="m 123.31774,38.976158 v -0.566591 h 1.13318 v -1.133184 h 0.56659 v -0.566592 h 0.5666 v 1.699776 h 1.13318 v 0.566591 h -1.13318 v 2.83296 h 0.56659 v -0.566592 h 1.13318 v 0.566592 h -0.56659 v 0.566592 h -1.69978 v -0.566592 h -0.56659 v -2.83296 z"
     inkscape:connector-curvature="0" /></g><g
   style="font-weight:bold;font-size:9.06547px;line-height:1.25;font-family:'Segoe UI';-inkscape-font-specification:'Segoe UI Bold';fill:#7b8694;fill-opacity:1;stroke-width:5.85367;stroke-linecap:square;stroke-miterlimit:40;stroke-dashoffset:1.2"
   id="text1698"
   aria-label="Uu"
   transform="translate(2.2351742e-8,2.4025502)"><path
     id="path1026"
     style="font-style:normal;font-variant:normal;font-weight:normal;font-stretch:normal;font-family:'PxPlus IBM VGA8';-inkscape-font-specification:'PxPlus IBM VGA8';stroke-width:5.85367"
     d="m 139.50607,41.809118 v -5.099327 h 1.13319 v 5.099327 h 1.69977 v -5.099327 h 1.13319 v 5.099327 h -0.5666 v 0.566592 h -2.83296 v -0.566592 z"
     inkscape:connector-curvature="0" /><path
     id="path1028"
     style="font-style:normal;font-variant:normal;font-weight:normal;font-stretch:normal;font-family:'PxPlus IBM VGA8';-inkscape-font-specification:'PxPlus IBM VGA8';stroke-width:5.85367"
     d="m 144.03881,41.809118 v -3.399551 h 1.13318 v 3.399551 h 1.13319 v 0.566592 h -1.69978 v -0.566592 z m 2.26637,0 v -3.399551 h 1.13318 v 3.399551 h 0.56659 v 0.566592 h -1.13318 v -0.566592 z"
     inkscape:connector-curvature="0" /></g><g
   style="font-weight:bold;font-size:9.06547px;line-height:1.25;font-family:'Segoe UI';-inkscape-font-specification:'Segoe UI Bold';fill:#7b8694;fill-opacity:1;stroke-width:5.85367;stroke-linecap:square;stroke-miterlimit:40;stroke-dashoffset:1.2"
   id="text1702"
   aria-label="Vv"
   transform="translate(2.2351742e-8,2.4025502)"><path
     id="path1031"
     style="font-style:normal;font-variant:normal;font-weight:normal;font-stretch:normal;font-family:'PxPlus IBM VGA8';-inkscape-font-specification:'PxPlus IBM VGA8';stroke-width:5.85367"
     d="m 15.179667,53.626602 v -3.966143 h 1.133184 v 3.966143 h 0.566592 v 0.566592 h 0.566592 v -0.566592 h 0.566592 v -3.966143 h 1.133183 v 3.966143 h -0.566591 v 0.566592 h -0.566592 v 0.566592 h -0.566592 v 0.566592 h -0.566592 v -0.566592 h -0.566592 v -0.566592 h -0.566592 v -0.566592 z"
     inkscape:connector-curvature="0" /><path
     id="path1033"
     style="font-style:normal;font-variant:normal;font-weight:normal;font-stretch:normal;font-family:'PxPlus IBM VGA8';-inkscape-font-specification:'PxPlus IBM VGA8';stroke-width:5.85367"
     d="m 20.278994,54.193194 v -2.832959 h 1.133184 v 2.832959 h 1.133184 v -2.832959 h 1.133183 v 2.832959 h -0.566592 v 0.566592 h -0.566591 v 0.566592 h -1.133184 v -0.566592 h -0.566592 v -0.566592 z"
     inkscape:connector-curvature="0" /></g><g
   style="font-weight:bold;font-size:9.06547px;line-height:1.25;font-family:'Segoe UI';-inkscape-font-specification:'Segoe UI Bold';fill:#7b8694;fill-opacity:1;stroke-width:5.85367;stroke-linecap:square;stroke-miterlimit:40;stroke-dashoffset:1.2"
   id="text1706"
   aria-label="Ww"
   transform="translate(2.2351742e-8,2.4025502)"><path
     id="path1036"
     style="font-style:normal;font-variant:normal;font-weight:normal;font-stretch:normal;font-family:'PxPlus IBM VGA8';-inkscape-font-specification:'PxPlus IBM VGA8';stroke-width:5.85367"
     d="m 35.900749,54.759786 v -5.099327 h 1.133184 v 3.966143 h 0.566592 v -1.699775 h 0.566592 v 1.699775 h 0.566592 v -3.966143 h 1.133183 v 5.099327 H 39.3003 v 0.566592 h -1.133183 v -1.133184 h -0.566592 v 1.133184 h -1.133184 v -0.566592 z"
     inkscape:connector-curvature="0" /><path
     id="path1038"
     style="font-style:normal;font-variant:normal;font-weight:normal;font-stretch:normal;font-family:'PxPlus IBM VGA8';-inkscape-font-specification:'PxPlus IBM VGA8';stroke-width:5.85367"
     d="m 40.433484,54.759786 v -3.399551 h 1.133184 v 2.832959 h 0.566592 v -1.699775 h 0.566592 v 1.699775 h 0.566591 v -2.832959 h 1.133184 v 3.399551 h -0.566592 v 0.566592 H 42.699852 V 54.759786 H 42.13326 v 0.566592 h -1.133184 v -0.566592 z"
     inkscape:connector-curvature="0" /></g><g
   style="font-weight:bold;font-size:9.06547px;line-height:1.25;font-family:'Segoe UI';-inkscape-font-specification:'Segoe UI Bold';fill:#7b8694;fill-opacity:1;stroke-width:5.85367;stroke-linecap:square;stroke-miterlimit:40;stroke-dashoffset:1.2"
   id="text1710"
   aria-label="Xx"
   transform="translate(2.2351742e-8,2.4025502)"><path
     id="path1041"
     style="font-style:normal;font-variant:normal;font-weight:normal;font-stretch:normal;font-family:'PxPlus IBM VGA8';-inkscape-font-specification:'PxPlus IBM VGA8';stroke-width:5.85367"
     d="M 56.621819,54.193194 H 57.18841 V 53.06001 h 0.566592 V 51.926827 H 57.18841 v -1.133184 h -0.566591 v -1.133184 h 1.133183 v 1.133184 h 0.566592 v 0.566592 h 0.566592 v -0.566592 h 0.566592 v -1.133184 h 1.133184 v 1.133184 H 60.02137 v 1.133184 h -0.566592 v 1.133183 h 0.566592 v 1.133184 h 0.566592 v 1.133184 h -1.133184 v -1.133184 h -0.566592 v -0.566592 h -0.566592 v 0.566592 h -0.566592 v 1.133184 h -1.133183 z"
     inkscape:connector-curvature="0" /><path
     id="path1043"
     style="font-style:normal;font-variant:normal;font-weight:normal;font-stretch:normal;font-family:'PxPlus IBM VGA8';-inkscape-font-specification:'PxPlus IBM VGA8';stroke-width:5.85367"
     d="m 61.154553,55.326378 v -0.566592 h 0.566592 v -0.566592 h 0.566592 v -1.699775 h -0.566592 v -0.566592 h -0.566592 v -0.566592 h 1.133184 v 0.566592 h 0.566592 v 0.566592 h 0.566592 v -0.566592 h 0.566592 v -0.566592 h 1.133183 v 0.566592 h -0.566591 v 0.566592 h -0.566592 v 1.699775 h 0.566592 v 0.566592 h 0.566591 v 0.566592 h -1.133183 v -0.566592 h -0.566592 v -0.566592 h -0.566592 v 0.566592 h -0.566592 v 0.566592 z"
     inkscape:connector-curvature="0" /></g><g
   style="font-weight:bold;font-size:9.06547px;line-height:1.25;font-family:'Segoe UI';-inkscape-font-specification:'Segoe UI Bold';fill:#7b8694;fill-opacity:1;stroke-width:5.85367;stroke-linecap:square;stroke-miterlimit:40;stroke-dashoffset:1.2"
   id="text1714"
   aria-label="Yy"
   transform="translate(2.2351742e-8,2.4025502)"><path
     id="path1046"
     style="font-style:normal;font-variant:normal;font-weight:normal;font-stretch:normal;font-family:'PxPlus IBM VGA8';-inkscape-font-specification:'PxPlus IBM VGA8';stroke-width:5.85367"
     d="m 77.90948,51.926827 v -2.266368 h 1.133183 v 2.266368 h 1.133184 v -2.266368 h 1.133184 v 2.266368 h -0.566592 v 0.566592 h -0.566592 v 2.266367 h 0.566592 v 0.566592 h -2.266367 v -0.566592 h 0.566591 v -2.266367 h -0.566591 v -0.566592 z"
     inkscape:connector-curvature="0" /><path
     id="path1048"
     style="font-style:normal;font-variant:normal;font-weight:normal;font-stretch:normal;font-family:'PxPlus IBM VGA8';-inkscape-font-specification:'PxPlus IBM VGA8';stroke-width:5.85367"
     d="m 81.875623,54.759786 v -3.399551 h 1.133183 v 3.399551 h 1.699776 v -3.399551 h 1.133184 v 4.532735 h -0.566592 v 0.566592 h -0.566592 v 0.566591 H 81.875623 V 56.459562 H 84.14199 V 55.89297 h 0.566592 v -0.566592 h -2.266367 v -0.566592 z"
     inkscape:connector-curvature="0" /></g><g
   style="font-weight:bold;font-size:9.06547px;line-height:1.25;font-family:'Segoe UI';-inkscape-font-specification:'Segoe UI Bold';fill:#7b8694;fill-opacity:1;stroke-width:5.85367;stroke-linecap:square;stroke-miterlimit:40;stroke-dashoffset:1.2"
   id="text1718"
   aria-label="Zz"
   transform="translate(2.2351742e-8,2.4025502)"><path
     id="path1051"
     style="font-style:normal;font-variant:normal;font-weight:normal;font-stretch:normal;font-family:'PxPlus IBM VGA8';-inkscape-font-specification:'PxPlus IBM VGA8';stroke-width:5.85367"
     d="m 98.063957,55.326378 v -1.699776 h 0.566592 V 53.06001 h 0.566592 v -0.566591 h 0.566592 v -0.566592 h 0.566587 v -0.566592 h 0.5666 v -1.133184 h -1.699779 v 0.566592 h -0.566592 v 0.566592 h -0.566592 v -1.699776 h 3.966143 v 1.699776 h -0.56659 v 0.566592 h -0.56659 v 0.566592 h -0.5666 v 0.566591 h -0.566587 v 0.566592 h -0.566592 v 1.133184 h 1.699779 v -0.566592 h 0.56659 v -0.566592 h 0.56659 v 1.699776 z"
     inkscape:connector-curvature="0" /><path
     id="path1053"
     style="font-style:normal;font-variant:normal;font-weight:normal;font-stretch:normal;font-family:'PxPlus IBM VGA8';-inkscape-font-specification:'PxPlus IBM VGA8';stroke-width:5.85367"
     d="m 102.59669,54.193194 h 0.56659 v -0.566592 h 0.5666 V 53.06001 h 0.56659 v -0.566591 h 0.56659 v -0.566592 h -1.13318 v 0.566592 h -1.13319 v -1.133184 h 3.96615 v 0.566592 h -0.5666 v 0.566592 h -0.56659 v 0.566591 h -0.56659 v 0.566592 h -0.56659 v 0.566592 h -0.56659 v 0.566592 h 1.69977 v -0.566592 h 1.13319 v 1.133184 h -3.96615 z"
     inkscape:connector-curvature="0" /></g><rect
   y="-22.708275"
   x="161.13617"
   height="98.554977"
   width="70.776566"
   id="rect1728-6"
   style="fill:#1d232d;fill-opacity:1;stroke:#000000;stroke-width:0.0739654;stroke-linecap:square;stroke-miterlimit:40;stroke-dasharray:none;stroke-dashoffset:1.2;stroke-opacity:1" /><g
   style="font-weight:bold;font-size:9.06547px;line-height:1.25;font-family:'Segoe UI';-inkscape-font-specification:'Segoe UI Bold';fill:#a6aeb8;fill-opacity:1;stroke-width:5.85367;stroke-linecap:square;stroke-miterlimit:40;stroke-dashoffset:1.2"
   id="text1740"
   aria-label="Regular"
   transform="translate(5.18027,2.4025502)"><path
     id="path1056"
     style="font-style:normal;font-variant:normal;font-weight:normal;font-stretch:normal;font-family:'PxPlus IBM VGA8';-inkscape-font-specification:'PxPlus IBM VGA8';fill:#a6aeb8;fill-opacity:1;stroke-width:5.85367"
     d="M 175.76794,16.474361 V 15.90777 h 0.5666 v -4.532735 h -0.5666 v -0.566592 h 3.39956 v 0.566592 h 0.56659 v 1.699775 h -0.56659 v 1.133184 h 0.56659 v 2.266367 h -1.13319 v -2.266367 h -0.56659 v -0.566592 h -0.56659 v 2.832959 z m 1.69978,-3.399551 h 1.13318 v -1.699775 h -1.13318 z"
     inkscape:connector-curvature="0" /><path
     id="path1058"
     style="font-style:normal;font-variant:normal;font-weight:normal;font-stretch:normal;font-family:'PxPlus IBM VGA8';-inkscape-font-specification:'PxPlus IBM VGA8';fill:#a6aeb8;fill-opacity:1;stroke-width:5.85367"
     d="m 180.30068,15.90777 v -2.83296 h 0.56659 v -0.566592 h 2.83296 v 0.566592 h 0.56659 v 1.133184 h -2.83296 v 1.699776 h 1.69978 v -0.566592 h 1.13318 v 0.566592 h -0.56659 v 0.566591 h -2.83296 V 15.90777 Z m 1.13318,-2.266368 h 1.69978 V 13.07481 h -1.69978 z"
     inkscape:connector-curvature="0" /><path
     id="path1060"
     style="font-style:normal;font-variant:normal;font-weight:normal;font-stretch:normal;font-family:'PxPlus IBM VGA8';-inkscape-font-specification:'PxPlus IBM VGA8';fill:#a6aeb8;fill-opacity:1;stroke-width:5.85367"
     d="m 184.83341,17.607545 v -0.566592 h 1.13319 v 0.566592 h 1.13318 v -1.133184 h -1.69977 V 15.90777 h -0.5666 v -2.83296 h 0.5666 v -0.566592 h 1.69977 v 0.566592 h -1.13318 v 2.83296 h 1.13318 v -2.83296 h 0.56659 v -0.566592 h 1.13319 v 0.566592 h -0.56659 v 4.532735 h -0.5666 v 0.566592 h -2.26636 v -0.566592 z"
     inkscape:connector-curvature="0" /><path
     id="path1062"
     style="font-style:normal;font-variant:normal;font-weight:normal;font-stretch:normal;font-family:'PxPlus IBM VGA8';-inkscape-font-specification:'PxPlus IBM VGA8';fill:#a6aeb8;fill-opacity:1;stroke-width:5.85367"
     d="m 189.36615,15.90777 v -3.399552 h 1.13318 v 3.399552 h 1.13319 v 0.566591 h -1.69978 V 15.90777 Z m 2.26637,0 v -3.399552 h 1.13318 v 3.399552 h 0.56659 v 0.566591 h -1.13318 V 15.90777 Z"
     inkscape:connector-curvature="0" /><path
     id="path1064"
     style="font-style:normal;font-variant:normal;font-weight:normal;font-stretch:normal;font-family:'PxPlus IBM VGA8';-inkscape-font-specification:'PxPlus IBM VGA8';fill:#a6aeb8;fill-opacity:1;stroke-width:5.85367"
     d="m 196.73184,15.90777 h 0.56659 v 0.566591 h -2.26636 V 15.90777 h 0.56659 v -4.532735 h -0.56659 v -0.566592 h 1.69977 z"
     inkscape:connector-curvature="0" /><path
     id="path1066"
     style="font-style:normal;font-variant:normal;font-weight:normal;font-stretch:normal;font-family:'PxPlus IBM VGA8';-inkscape-font-specification:'PxPlus IBM VGA8';fill:#a6aeb8;fill-opacity:1;stroke-width:5.85367"
     d="m 198.43162,15.90777 v -1.699776 h 0.56659 v -0.566592 h 1.69978 V 13.07481 h -1.69978 v -0.566592 h 2.26637 v 0.566592 h 0.56659 v 2.83296 h 0.56659 v 0.566591 h -1.13318 V 15.90777 h -0.56659 v -1.699776 h -1.13319 v 1.699776 h 1.13319 v 0.566591 h -1.69978 V 15.90777 Z"
     inkscape:connector-curvature="0" /><path
     id="path1068"
     style="font-style:normal;font-variant:normal;font-weight:normal;font-stretch:normal;font-family:'PxPlus IBM VGA8';-inkscape-font-specification:'PxPlus IBM VGA8';fill:#a6aeb8;fill-opacity:1;stroke-width:5.85367"
     d="M 202.96435,16.474361 V 15.90777 h 0.5666 v -2.83296 h -0.5666 v -0.566592 h 1.13319 v 0.566592 h 0.56659 v -0.566592 h 1.69977 v 0.566592 h 0.5666 v 1.133184 h -1.13319 V 13.07481 h -0.56659 v 0.566592 h -0.56659 v 2.266368 h 0.56659 v 0.566591 z"
     inkscape:connector-curvature="0" /></g></svg>
