<?xml version="1.0" encoding="UTF-8" standalone="no"?>
<svg
   xmlns:dc="http://purl.org/dc/elements/1.1/"
   xmlns:cc="http://creativecommons.org/ns#"
   xmlns:rdf="http://www.w3.org/1999/02/22-rdf-syntax-ns#"
   xmlns:svg="http://www.w3.org/2000/svg"
   xmlns="http://www.w3.org/2000/svg"
   xmlns:sodipodi="http://sodipodi.sourceforge.net/DTD/sodipodi-0.dtd"
   xmlns:inkscape="http://www.inkscape.org/namespaces/inkscape"
   id="lecture05Logo"
   class="animated inactive"
   width="895.53918"
   height="482.77322"
   enable-background="new 0 0 198.44 105.83"
   version="1.1"
   viewBox="0 0 231.95673 67.379735"
   xml:space="preserve"
   sodipodi:docname="font_sourcesans.svg"
   inkscape:version="1.0rc1 (09960d6f05, 2020-04-09)"><metadata
   id="metadata12"><rdf:RDF><cc:Work
       rdf:about=""><dc:format>image/svg+xml</dc:format><dc:type
         rdf:resource="http://purl.org/dc/dcmitype/StillImage" /><dc:title /></cc:Work></rdf:RDF></metadata><defs
   id="defs10" /><sodipodi:namedview
   inkscape:document-rotation="0"
   pagecolor="#6c6c6c"
   bordercolor="#666666"
   borderopacity="1"
   objecttolerance="10"
   gridtolerance="10"
   guidetolerance="10"
   inkscape:pageopacity="0"
   inkscape:pageshadow="2"
   inkscape:window-width="3840"
   inkscape:window-height="2097"
   id="namedview8"
   showgrid="false"
   inkscape:zoom="1.1895161"
   inkscape:cx="571.52603"
   inkscape:cy="149.45459"
   inkscape:window-x="-8"
   inkscape:window-y="-8"
   inkscape:window-maximized="1"
   inkscape:current-layer="lecture05Logo"
   fit-margin-top="0"
   fit-margin-left="0"
   fit-margin-right="0"
   fit-margin-bottom="0" />
  <filter
   id="blur-filter"
   x="-2"
   y="-2"
   width="200"
   height="200">
    <feGaussianBlur
   in="SourceGraphic"
   stdDeviation="2"
   id="feGaussianBlur2" />
  </filter><rect
   style="fill:#03060c;fill-opacity:1;stroke:#000000;stroke-width:0.154535;stroke-linecap:square;stroke-miterlimit:40;stroke-dasharray:none;stroke-dashoffset:1.2;stroke-opacity:1"
   id="rect8493"
   width="231.8022"
   height="124.89024"
   x="0.077267498"
   y="-28.755255" /><rect
   style="fill:#1d232d;fill-opacity:1;stroke:#000000;stroke-width:0.0832783;stroke-linecap:square;stroke-miterlimit:40;stroke-dasharray:none;stroke-dashoffset:1.2;stroke-opacity:1"
   id="rect1728-6"
   width="70.76725"
   height="124.95157"
   x="161.15114"
   y="-28.787319" /><g
   style="font-weight:bold;font-size:12.3903px;line-height:1.25;font-family:'Segoe UI';-inkscape-font-specification:'Segoe UI Bold';fill:#d2d6dc;fill-opacity:1;stroke-width:5.85367;stroke-linecap:square;stroke-miterlimit:40;stroke-dashoffset:1.2"
   id="text1598"
   aria-label="Source Sans Pro"
   transform="translate(0,-3.6881224)"><path
     id="path1754"
     style="font-style:normal;font-variant:normal;font-weight:normal;font-stretch:normal;font-family:'Source Sans Pro';-inkscape-font-specification:'Source Sans Pro';fill:#d2d6dc;fill-opacity:1;stroke-width:5.85367"
     d="m 15.675279,-0.11962048 c 0.706248,0.73102769 1.697472,1.20185908 2.837379,1.20185908 1.709861,0 2.775427,-1.02839488 2.775427,-2.3169861 0,-1.201859 -0.731027,-1.7594225 -1.67269,-2.1683024 l -1.164688,-0.495612 c -0.631906,-0.2725866 -1.350543,-0.5699538 -1.350543,-1.3505427 0,-0.7310277 0.607125,-1.1894688 1.524007,-1.1894688 0.743418,0 1.350542,0.2973672 1.846154,0.7681986 l 0.545174,-0.6690762 c -0.569954,-0.5947344 -1.424885,-1.0036143 -2.391328,-1.0036143 -1.474446,0 -2.564792,0.9168822 -2.564792,2.1559122 0,1.1894688 0.892101,1.7718129 1.64791,2.0939607 l 1.164688,0.5080023 c 0.768198,0.3469284 1.362933,0.6071247 1.362933,1.4372747 0,0.79297923 -0.631905,1.32576212 -1.697471,1.32576212 -0.854931,0 -1.6603,-0.40887989 -2.242645,-1.01600458 z"
     inkscape:connector-curvature="0" /><path
     id="path1756"
     style="font-style:normal;font-variant:normal;font-weight:normal;font-stretch:normal;font-family:'Source Sans Pro';-inkscape-font-specification:'Source Sans Pro';fill:#d2d6dc;fill-opacity:1;stroke-width:5.85367"
     d="m 22.307768,-2.0648975 c 0,1.99483822 1.313372,3.1471361 2.787818,3.1471361 1.474445,0 2.787817,-1.15229788 2.787817,-3.1471361 0,-2.0196189 -1.313372,-3.1719168 -2.787817,-3.1719168 -1.474446,0 -2.787818,1.1522979 -2.787818,3.1719168 z m 1.053176,0 c 0,-1.3877136 0.706247,-2.3293764 1.734642,-2.3293764 1.040785,0 1.734642,0.9416628 1.734642,2.3293764 0,1.37532323 -0.693857,2.30459572 -1.734642,2.30459572 -1.028395,0 -1.734642,-0.92927249 -1.734642,-2.30459572 z"
     inkscape:connector-curvature="0" /><path
     id="path1758"
     style="font-style:normal;font-variant:normal;font-weight:normal;font-stretch:normal;font-family:'Source Sans Pro';-inkscape-font-specification:'Source Sans Pro';fill:#d2d6dc;fill-opacity:1;stroke-width:5.85367"
     d="m 29.394632,-1.2719184 c 0,1.53639722 0.569954,2.354157 1.846155,2.354157 0.83015,0 1.424884,-0.43366049 1.982448,-1.09034638 h 0.03717 l 0.08673,0.94166279 h 0.84254 V -5.0881307 h -1.016004 v 4.27465344 c -0.569954,0.70624708 -1.003615,1.01600458 -1.62313,1.01600458 -0.792979,0 -1.127517,-0.48322169 -1.127517,-1.61073902 v -3.679919 h -1.028395 z"
     inkscape:connector-curvature="0" /><path
     id="path1760"
     style="font-style:normal;font-variant:normal;font-weight:normal;font-stretch:normal;font-family:'Source Sans Pro';-inkscape-font-specification:'Source Sans Pro';fill:#d2d6dc;fill-opacity:1;stroke-width:5.85367"
     d="m 36.233109,0.93355501 h 1.016005 V -2.9322185 c 0.40888,-1.0160046 1.016005,-1.3877136 1.524007,-1.3877136 0.247806,0 0.384099,0.037171 0.582344,0.099122 l 0.198245,-0.8921016 c -0.198245,-0.086732 -0.384099,-0.123903 -0.644296,-0.123903 -0.681466,0 -1.300981,0.4832217 -1.709861,1.23903 h -0.03717 l -0.08673,-1.0903464 h -0.842541 z"
     inkscape:connector-curvature="0" /><path
     id="path1762"
     style="font-style:normal;font-variant:normal;font-weight:normal;font-stretch:normal;font-family:'Source Sans Pro';-inkscape-font-specification:'Source Sans Pro';fill:#d2d6dc;fill-opacity:1;stroke-width:5.85367"
     d="m 39.973626,-2.0648975 c 0,1.99483822 1.22664,3.1471361 2.824988,3.1471361 0.718638,0 1.412495,-0.29736719 1.957668,-0.78058888 l -0.458441,-0.66907619 c -0.359319,0.32214779 -0.842541,0.60712469 -1.412495,0.60712469 -1.102736,0 -1.858545,-0.92927249 -1.858545,-2.30459572 0,-1.3877136 0.79298,-2.3293764 1.883326,-2.3293764 0.483222,0 0.854931,0.2230254 1.214249,0.5327829 l 0.508003,-0.6566859 c -0.40888,-0.3840993 -0.966444,-0.7186374 -1.759423,-0.7186374 -1.548787,0 -2.89933,1.1522979 -2.89933,3.1719168 z"
     inkscape:connector-curvature="0" /><path
     id="path1764"
     style="font-style:normal;font-variant:normal;font-weight:normal;font-stretch:normal;font-family:'Source Sans Pro';-inkscape-font-specification:'Source Sans Pro';fill:#d2d6dc;fill-opacity:1;stroke-width:5.85367"
     d="m 45.345982,-2.0648975 c 0,1.97005762 1.276201,3.1471361 2.88694,3.1471361 0.81776,0 1.462056,-0.28497689 1.982448,-0.61951499 l -0.359318,-0.66907618 c -0.446051,0.28497689 -0.929273,0.47083139 -1.499227,0.47083139 -1.152298,0 -1.932886,-0.81775979 -2.007228,-2.11874122 h 4.064018 c 0.02478,-0.1486836 0.03717,-0.3469284 0.03717,-0.5575635 0,-1.7222517 -0.867321,-2.8249884 -2.403718,-2.8249884 -1.375323,0 -2.701086,1.2018591 -2.701085,3.1719168 z m 0.991224,-0.4584411 c 0.123903,-1.2142494 0.892102,-1.9081062 1.734642,-1.9081062 0.941663,0 1.486836,0.6814665 1.486836,1.9081062 z"
     inkscape:connector-curvature="0" /><path
     id="path1766"
     style="font-style:normal;font-variant:normal;font-weight:normal;font-stretch:normal;font-family:'Source Sans Pro';-inkscape-font-specification:'Source Sans Pro';fill:#d2d6dc;fill-opacity:1;stroke-width:5.85367"
     d="m 53.910971,-0.11962048 c 0.706247,0.73102769 1.697471,1.20185908 2.837378,1.20185908 1.709862,0 2.775427,-1.02839488 2.775427,-2.3169861 0,-1.201859 -0.731027,-1.7594225 -1.67269,-2.1683024 l -1.164688,-0.495612 c -0.631906,-0.2725866 -1.350543,-0.5699538 -1.350543,-1.3505427 0,-0.7310277 0.607125,-1.1894688 1.524007,-1.1894688 0.743418,0 1.350543,0.2973672 1.846155,0.7681986 L 59.25119,-6.339551 c -0.569954,-0.5947344 -1.424885,-1.0036143 -2.391328,-1.0036143 -1.474446,0 -2.564792,0.9168822 -2.564792,2.1559122 0,1.1894688 0.892101,1.7718129 1.64791,2.0939607 l 1.164688,0.5080023 c 0.768198,0.3469284 1.362933,0.6071247 1.362933,1.4372747 0,0.79297923 -0.631905,1.32576212 -1.697471,1.32576212 -0.854931,0 -1.6603,-0.40887989 -2.242644,-1.01600458 z"
     inkscape:connector-curvature="0" /><path
     id="path1768"
     style="font-style:normal;font-variant:normal;font-weight:normal;font-stretch:normal;font-family:'Source Sans Pro';-inkscape-font-specification:'Source Sans Pro';fill:#d2d6dc;fill-opacity:1;stroke-width:5.85367"
     d="m 60.692143,-0.62762277 c 0,1.07795608 0.755809,1.70986137 1.771813,1.70986137 0.743418,0 1.412494,-0.39648959 1.994839,-0.86732098 h 0.02478 l 0.08673,0.71863739 h 0.842541 V -2.7587543 c 0,-1.4992263 -0.619515,-2.47806 -2.093961,-2.47806 -0.966443,0 -1.808984,0.4212702 -2.366547,0.7805889 l 0.40888,0.7062471 c 0.470831,-0.3221478 1.090346,-0.6442956 1.796593,-0.6442956 0.978834,0 1.23903,0.743418 1.23903,1.5116166 -2.564792,0.2849769 -3.7047,0.9416628 -3.7047,2.25503453 z m 1.003615,-0.0743418 c 0,-0.76819863 0.681466,-1.26381053 2.701085,-1.51161653 v 1.67269043 c -0.582344,0.52039259 -1.065566,0.80536949 -1.64791,0.80536949 -0.594734,0 -1.053175,-0.2849769 -1.053175,-0.96644339 z"
     inkscape:connector-curvature="0" /><path
     id="path1770"
     style="font-style:normal;font-variant:normal;font-weight:normal;font-stretch:normal;font-family:'Source Sans Pro';-inkscape-font-specification:'Source Sans Pro';fill:#d2d6dc;fill-opacity:1;stroke-width:5.85367"
     d="m 67.329858,0.93355501 h 1.016004 V -3.4278305 c 0.607125,-0.6071247 1.028395,-0.9292725 1.64791,-0.9292725 0.792979,0 1.139908,0.4832217 1.139908,1.610739 v 3.67991901 h 1.016004 V -2.8826573 c 0,-1.5363972 -0.569953,-2.354157 -1.833764,-2.354157 -0.83015,0 -1.449665,0.4460508 -2.019619,1.0160046 h -0.03717 l -0.08673,-0.867321 h -0.84254 z"
     inkscape:connector-curvature="0" /><path
     id="path1772"
     style="font-style:normal;font-variant:normal;font-weight:normal;font-stretch:normal;font-family:'Source Sans Pro';-inkscape-font-specification:'Source Sans Pro';fill:#d2d6dc;fill-opacity:1;stroke-width:5.85367"
     d="m 73.436729,0.25208852 c 0.569954,0.47083139 1.387714,0.83015008 2.242644,0.83015008 1.424885,0 2.205474,-0.81775978 2.205474,-1.79659347 0,-1.13990753 -0.966444,-1.49922623 -1.833765,-1.82137403 -0.681466,-0.2601963 -1.338152,-0.4832217 -1.338152,-1.0407852 0,-0.4584411 0.346929,-0.867321 1.102737,-0.867321 0.532783,0 0.966443,0.2230254 1.375323,0.5327829 l 0.483222,-0.6442956 c -0.458441,-0.371709 -1.115127,-0.6814665 -1.870936,-0.6814665 -1.300981,0 -2.06918,0.743418 -2.06918,1.7098614 0,1.0160046 0.941663,1.4248845 1.796594,1.734642 0.656686,0.2478059 1.375323,0.5203925 1.375323,1.13990753 0,0.52039259 -0.396489,0.94166279 -1.189469,0.94166279 -0.718637,0 -1.25142,-0.2973672 -1.771812,-0.71863739 z"
     inkscape:connector-curvature="0" /><path
     id="path1774"
     style="font-style:normal;font-variant:normal;font-weight:normal;font-stretch:normal;font-family:'Source Sans Pro';-inkscape-font-specification:'Source Sans Pro';fill:#d2d6dc;fill-opacity:1;stroke-width:5.85367"
     d="m 81.863291,0.93355501 h 1.040785 V -2.2879229 h 1.462055 c 1.771813,0 2.998453,-0.8053695 2.998453,-2.5152309 0,-1.7842032 -1.201859,-2.3913279 -2.998453,-2.3913279 h -2.50284 z m 1.040785,-4.06401831 v -3.2338683 h 1.325762 c 1.400104,0 2.106351,0.3840993 2.106351,1.5611778 0,1.1522979 -0.681467,1.6726905 -2.106351,1.6726905 z"
     inkscape:connector-curvature="0" /><path
     id="path1776"
     style="font-style:normal;font-variant:normal;font-weight:normal;font-stretch:normal;font-family:'Source Sans Pro';-inkscape-font-specification:'Source Sans Pro';fill:#d2d6dc;fill-opacity:1;stroke-width:5.85367"
     d="m 88.867684,0.93355501 h 1.016005 V -2.9322185 c 0.40888,-1.0160046 1.016005,-1.3877136 1.524007,-1.3877136 0.247806,0 0.384099,0.037171 0.582344,0.099122 l 0.198245,-0.8921016 c -0.198245,-0.086732 -0.3841,-0.123903 -0.644296,-0.123903 -0.681466,0 -1.300981,0.4832217 -1.709861,1.23903 h -0.03717 l -0.08673,-1.0903464 h -0.842541 z"
     inkscape:connector-curvature="0" /><path
     id="path1778"
     style="font-style:normal;font-variant:normal;font-weight:normal;font-stretch:normal;font-family:'Source Sans Pro';-inkscape-font-specification:'Source Sans Pro';fill:#d2d6dc;fill-opacity:1;stroke-width:5.85367"
     d="m 92.608203,-2.0648975 c 0,1.99483822 1.313372,3.1471361 2.787817,3.1471361 1.474446,0 2.787818,-1.15229788 2.787818,-3.1471361 0,-2.0196189 -1.313372,-3.1719168 -2.787818,-3.1719168 -1.474445,0 -2.787817,1.1522979 -2.787817,3.1719168 z m 1.053175,0 c 0,-1.3877136 0.706247,-2.3293764 1.734642,-2.3293764 1.040785,0 1.734642,0.9416628 1.734642,2.3293764 0,1.37532323 -0.693857,2.30459572 -1.734642,2.30459572 -1.028395,0 -1.734642,-0.92927249 -1.734642,-2.30459572 z"
     inkscape:connector-curvature="0" /></g><g
   style="font-weight:bold;font-size:9.06547px;line-height:1.25;font-family:'Segoe UI';-inkscape-font-specification:'Segoe UI Bold';fill:#7b8694;fill-opacity:1;stroke-width:5.85367;stroke-linecap:square;stroke-miterlimit:40;stroke-dashoffset:1.2"
   id="text1602"
   aria-label="Aa"
   transform="translate(0,-3.6881224)"><path
     id="path1781"
     style="font-style:normal;font-variant:normal;font-weight:normal;font-stretch:normal;font-family:'Source Sans Pro';-inkscape-font-specification:'Source Sans Pro';stroke-width:5.85367"
     d="m 16.711732,14.053882 0.290095,-0.906547 c 0.208506,-0.66178 0.398881,-1.314494 0.589256,-2.00347 h 0.03626 c 0.190375,0.688976 0.38075,1.34169 0.589256,2.00347 l 0.281029,0.906547 z m 2.547398,2.420481 h 0.797762 l -2.012535,-5.94695 h -0.852155 l -2.012535,5.94695 h 0.770566 l 0.571124,-1.813094 h 2.166648 z"
     inkscape:connector-curvature="0" /><path
     id="path1783"
     style="font-style:normal;font-variant:normal;font-weight:normal;font-stretch:normal;font-family:'Source Sans Pro';-inkscape-font-specification:'Source Sans Pro';stroke-width:5.85367"
     d="m 20.574615,15.332114 c 0,0.788696 0.552994,1.251035 1.296363,1.251035 0.543928,0 1.033464,-0.290095 1.459541,-0.634583 h 0.01813 l 0.06346,0.525797 h 0.616452 v -2.701511 c 0,-1.096922 -0.453274,-1.813094 -1.532065,-1.813094 -0.707107,0 -1.323559,0.308226 -1.731505,0.571125 l 0.299161,0.516732 c 0.344488,-0.235703 0.797761,-0.471405 1.314493,-0.471405 0.716172,0 0.906547,0.543928 0.906547,1.105988 -1.876552,0.208506 -2.710576,0.688976 -2.710576,1.649916 z m 0.734303,-0.05439 c 0,-0.562059 0.498601,-0.924678 1.976273,-1.105988 v 1.223839 c -0.426077,0.38075 -0.77963,0.589256 -1.205708,0.589256 -0.435142,0 -0.770565,-0.208506 -0.770565,-0.707107 z"
     inkscape:connector-curvature="0" /></g><g
   style="font-weight:bold;font-size:9.06547px;line-height:1.25;font-family:'Segoe UI';-inkscape-font-specification:'Segoe UI Bold';fill:#7b8694;fill-opacity:1;stroke-width:5.85367;stroke-linecap:square;stroke-miterlimit:40;stroke-dashoffset:1.2"
   id="text1618"
   aria-label="Bb"
   transform="translate(0,-3.6881224)"><path
     id="path1786"
     style="font-style:normal;font-variant:normal;font-weight:normal;font-stretch:normal;font-family:'Source Sans Pro';-inkscape-font-specification:'Source Sans Pro';stroke-width:5.85367"
     d="m 36.689445,16.474363 h 1.903749 c 1.323558,0 2.248236,-0.571124 2.248236,-1.74057 0,-0.815892 -0.507666,-1.287297 -1.377951,-1.423279 v -0.03626 c 0.707106,-0.18131 1.042529,-0.707107 1.042529,-1.296363 0,-1.042529 -0.843089,-1.450475 -2.048796,-1.450475 h -1.767767 z m 0.7615,-3.408616 v -1.940011 h 0.915612 c 0.915612,0 1.396082,0.271964 1.396082,0.915613 0,0.661779 -0.426077,1.024398 -1.432344,1.024398 z m 0,2.810295 v -2.248236 h 1.033463 c 1.042529,0 1.613654,0.335422 1.613654,1.069725 0,0.806827 -0.598321,1.178511 -1.613654,1.178511 z"
     inkscape:connector-curvature="0" /><path
     id="path1788"
     style="font-style:normal;font-variant:normal;font-weight:normal;font-stretch:normal;font-family:'Source Sans Pro';-inkscape-font-specification:'Source Sans Pro';stroke-width:5.85367"
     d="m 41.93821,16.474363 h 0.598321 l 0.06346,-0.435142 h 0.0272 c 0.389815,0.344488 0.852154,0.543928 1.2601,0.543928 1.006268,0 1.903749,-0.879351 1.903749,-2.384219 0,-1.35982 -0.607386,-2.239171 -1.749636,-2.239171 -0.489535,0 -0.97907,0.262899 -1.377951,0.616452 l 0.01813,-0.797761 V 10.019749 H 41.93821 Z m 0.743369,-0.97907 v -2.311695 c 0.417012,-0.389815 0.806827,-0.598321 1.178511,-0.598321 0.834023,0 1.16038,0.652714 1.16038,1.622719 0,1.087856 -0.534863,1.749636 -1.2601,1.749636 -0.290095,0 -0.688976,-0.126917 -1.078791,-0.462339 z"
     inkscape:connector-curvature="0" /></g><g
   style="font-weight:bold;font-size:9.06547px;line-height:1.25;font-family:'Segoe UI';-inkscape-font-specification:'Segoe UI Bold';fill:#7b8694;fill-opacity:1;stroke-width:5.85367;stroke-linecap:square;stroke-miterlimit:40;stroke-dashoffset:1.2"
   id="text1622"
   aria-label="Cc"
   transform="translate(0,-3.6881224)"><path
     id="path1791"
     style="font-style:normal;font-variant:normal;font-weight:normal;font-stretch:normal;font-family:'Source Sans Pro';-inkscape-font-specification:'Source Sans Pro';stroke-width:5.85367"
     d="m 57.066027,13.500889 c 0,1.940011 1.115052,3.08226 2.610855,3.08226 0.752434,0 1.341689,-0.317291 1.804028,-0.86122 L 61.054833,15.25959 c -0.380749,0.426077 -0.797761,0.66178 -1.35982,0.66178 -1.133184,0 -1.849356,-0.942809 -1.849356,-2.438612 0,-1.477671 0.752434,-2.402349 1.885618,-2.402349 0.489535,0 0.870285,0.217571 1.187576,0.552993 l 0.426077,-0.480469 c -0.353553,-0.389816 -0.915612,-0.734303 -1.622719,-0.734303 -1.522999,0 -2.656182,1.169445 -2.656182,3.082259 z"
     inkscape:connector-curvature="0" /><path
     id="path1793"
     style="font-style:normal;font-variant:normal;font-weight:normal;font-stretch:normal;font-family:'Source Sans Pro';-inkscape-font-specification:'Source Sans Pro';stroke-width:5.85367"
     d="m 62.173569,14.28052 c 0,1.45954 0.897482,2.302629 2.066927,2.302629 0.525797,0 1.033464,-0.217571 1.432344,-0.571125 l -0.335422,-0.489535 c -0.262899,0.235702 -0.616452,0.444208 -1.033464,0.444208 -0.806826,0 -1.35982,-0.67991 -1.35982,-1.686177 0,-1.015333 0.58019,-1.704309 1.377951,-1.704309 0.353554,0 0.625518,0.163179 0.888416,0.389816 l 0.371685,-0.48047 c -0.299161,-0.28103 -0.707107,-0.525798 -1.287297,-0.525798 -1.133184,0 -2.12132,0.843089 -2.12132,2.320761 z"
     inkscape:connector-curvature="0" /></g><g
   style="font-weight:bold;font-size:9.06547px;line-height:1.25;font-family:'Segoe UI';-inkscape-font-specification:'Segoe UI Bold';fill:#7b8694;fill-opacity:1;stroke-width:5.85367;stroke-linecap:square;stroke-miterlimit:40;stroke-dashoffset:1.2"
   id="text1626"
   aria-label="Dd"
   transform="translate(0,-3.6881224)"><path
     id="path1796"
     style="font-style:normal;font-variant:normal;font-weight:normal;font-stretch:normal;font-family:'Source Sans Pro';-inkscape-font-specification:'Source Sans Pro';stroke-width:5.85367"
     d="m 78.131584,16.474363 h 1.522999 c 1.794963,0 2.774033,-1.105987 2.774033,-3.00067 0,-1.885618 -0.97907,-2.946278 -2.810295,-2.946278 h -1.486737 z m 0.761499,-0.616452 v -4.714044 h 0.670845 c 1.396082,0 2.085058,0.834023 2.085058,2.329826 0,1.504868 -0.688976,2.384218 -2.085058,2.384218 z"
     inkscape:connector-curvature="0" /><path
     id="path1798"
     style="font-style:normal;font-variant:normal;font-weight:normal;font-stretch:normal;font-family:'Source Sans Pro';-inkscape-font-specification:'Source Sans Pro';stroke-width:5.85367"
     d="m 83.310941,14.28052 c 0,1.468606 0.716173,2.302629 1.82216,2.302629 0.516732,0 0.988136,-0.290095 1.332624,-0.625517 h 0.0272 l 0.06346,0.516731 h 0.616452 v -6.454614 h -0.752434 v 1.695243 l 0.03626,0.752434 c -0.389815,-0.317292 -0.725237,-0.507667 -1.232903,-0.507667 -1.006268,0 -1.912815,0.888416 -1.912815,2.320761 z m 0.770565,-0.0091 c 0,-1.006267 0.562059,-1.686177 1.269166,-1.686177 0.362619,0 0.698041,0.126916 1.069726,0.462339 v 2.302629 c -0.362619,0.407946 -0.716173,0.607387 -1.124119,0.607387 -0.770565,0 -1.214773,-0.634583 -1.214773,-1.686178 z"
     inkscape:connector-curvature="0" /></g><g
   style="font-weight:bold;font-size:9.06547px;line-height:1.25;font-family:'Segoe UI';-inkscape-font-specification:'Segoe UI Bold';fill:#7b8694;fill-opacity:1;stroke-width:5.85367;stroke-linecap:square;stroke-miterlimit:40;stroke-dashoffset:1.2"
   id="text1630"
   aria-label="Ee"
   transform="translate(0,-3.6881224)"><path
     id="path1801"
     style="font-style:normal;font-variant:normal;font-weight:normal;font-stretch:normal;font-family:'Source Sans Pro';-inkscape-font-specification:'Source Sans Pro';stroke-width:5.85367"
     d="m 98.852653,16.474363 h 3.517407 v -0.643648 h -2.755907 v -2.157582 h 2.248237 v -0.643648 h -2.248237 v -1.867487 h 2.665247 v -0.634583 h -3.426747 z"
     inkscape:connector-curvature="0" /><path
     id="path1803"
     style="font-style:normal;font-variant:normal;font-weight:normal;font-stretch:normal;font-family:'Source Sans Pro';-inkscape-font-specification:'Source Sans Pro';stroke-width:5.85367"
     d="m 103.20847,14.28052 c 0,1.441409 0.93374,2.302629 2.11225,2.302629 0.59833,0 1.06973,-0.208506 1.45048,-0.453274 l -0.2629,-0.489535 c -0.32636,0.208506 -0.67991,0.344488 -1.09692,0.344488 -0.84309,0 -1.41421,-0.598321 -1.46861,-1.550195 h 2.97348 c 0.0181,-0.108786 0.0272,-0.253834 0.0272,-0.407947 0,-1.2601 -0.63458,-2.066927 -1.7587,-2.066927 -1.00626,0 -1.97627,0.879351 -1.97627,2.320761 z m 0.72524,-0.335423 c 0.0906,-0.888416 0.65271,-1.396082 1.26916,-1.396082 0.68898,0 1.08786,0.498601 1.08786,1.396082 z"
     inkscape:connector-curvature="0" /></g><g
   style="font-weight:bold;font-size:9.06547px;line-height:1.25;font-family:'Segoe UI';-inkscape-font-specification:'Segoe UI Bold';fill:#7b8694;fill-opacity:1;stroke-width:5.85367;stroke-linecap:square;stroke-miterlimit:40;stroke-dashoffset:1.2"
   id="text1634"
   aria-label="Ff"
   transform="translate(0,-3.6881224)"><path
     id="path1806"
     style="font-style:normal;font-variant:normal;font-weight:normal;font-stretch:normal;font-family:'Source Sans Pro';-inkscape-font-specification:'Source Sans Pro';stroke-width:5.85367"
     d="m 119.5737,16.474363 h 0.7615 v -2.665248 h 2.26637 v -0.634583 h -2.26637 v -2.012534 h 2.67431 v -0.634583 h -3.43581 z"
     inkscape:connector-curvature="0" /><path
     id="path1808"
     style="font-style:normal;font-variant:normal;font-weight:normal;font-stretch:normal;font-family:'Source Sans Pro';-inkscape-font-specification:'Source Sans Pro';stroke-width:5.85367"
     d="m 126.10339,10.056011 c -0.19944,-0.081589 -0.46234,-0.1450478 -0.73431,-0.1450478 -0.87935,0 -1.28729,0.5620588 -1.28729,1.4595408 v 0.698041 l -0.59832,0.04533 v 0.56206 h 0.59832 v 3.798431 h 0.74337 v -3.798431 h 0.93374 v -0.607387 h -0.93374 v -0.698041 c 0,-0.562059 0.19944,-0.852154 0.61645,-0.852154 0.16318,0 0.33542,0.03626 0.4986,0.108785 z"
     inkscape:connector-curvature="0" /></g><g
   style="font-weight:bold;font-size:9.06547px;line-height:1.25;font-family:'Segoe UI';-inkscape-font-specification:'Segoe UI Bold';fill:#7b8694;fill-opacity:1;stroke-width:5.85367;stroke-linecap:square;stroke-miterlimit:40;stroke-dashoffset:1.2"
   id="text1638"
   aria-label="Gg"
   transform="translate(0,-3.6881224)"><path
     id="path1811"
     style="font-style:normal;font-variant:normal;font-weight:normal;font-stretch:normal;font-family:'Source Sans Pro';-inkscape-font-specification:'Source Sans Pro';stroke-width:5.85367"
     d="m 139.95028,13.500889 c 0,1.940011 1.11505,3.08226 2.67431,3.08226 0.79777,0 1.45955,-0.308226 1.84936,-0.688976 v -2.502069 h -1.94908 v 0.625517 h 1.2601 v 1.550195 c -0.2357,0.217572 -0.65271,0.353554 -1.07879,0.353554 -1.26916,0 -1.97627,-0.942809 -1.97627,-2.438612 0,-1.477671 0.77057,-2.402349 1.97627,-2.402349 0.58926,0 0.96094,0.235702 1.2601,0.552993 l 0.43515,-0.480469 c -0.35356,-0.362619 -0.89748,-0.734303 -1.70431,-0.734303 -1.59552,0 -2.74684,1.169445 -2.74684,3.082259 z"
     inkscape:connector-curvature="0" /><path
     id="path1813"
     style="font-style:normal;font-variant:normal;font-weight:normal;font-stretch:normal;font-family:'Source Sans Pro';-inkscape-font-specification:'Source Sans Pro';stroke-width:5.85367"
     d="m 146.10871,17.217732 c 0,-0.253833 0.13598,-0.516732 0.45327,-0.743369 0.19038,0.05439 0.39888,0.07252 0.57113,0.07252 h 0.7615 c 0.57112,0 0.88841,0.135982 0.88841,0.543928 0,0.462339 -0.55299,0.897482 -1.39608,0.897482 -0.79776,0 -1.27823,-0.299161 -1.27823,-0.770565 z m -0.65271,0.09972 c 0,0.761499 0.74336,1.187577 1.82216,1.187577 1.36888,0 2.2301,-0.707107 2.2301,-1.522999 0,-0.734303 -0.51673,-1.051595 -1.54113,-1.051595 h -0.85215 c -0.59832,0 -0.77963,-0.19944 -0.77963,-0.48047 0,-0.244767 0.12691,-0.389815 0.28103,-0.525797 0.19944,0.09972 0.4442,0.154113 0.66178,0.154113 0.89748,0 1.61365,-0.589256 1.61365,-1.532064 0,-0.371685 -0.15411,-0.707107 -0.36262,-0.906547 h 0.90655 v -0.571125 h -1.53207 c -0.16318,-0.06346 -0.38075,-0.108786 -0.62551,-0.108786 -0.89749,0 -1.65899,0.607387 -1.65899,1.568327 0,0.525797 0.28103,0.951874 0.57113,1.187576 v 0.03626 c -0.22664,0.154113 -0.48047,0.444208 -0.48047,0.815892 0,0.344488 0.17224,0.58019 0.38981,0.716172 v 0.03626 c -0.39888,0.271964 -0.64364,0.625518 -0.64364,0.997202 z m 1.82216,-2.737772 c -0.50767,0 -0.93375,-0.407946 -0.93375,-1.051594 0,-0.643649 0.41701,-1.024398 0.93375,-1.024398 0.51673,0 0.93374,0.380749 0.93374,1.024398 0,0.643648 -0.42608,1.051594 -0.93374,1.051594 z"
     inkscape:connector-curvature="0" /></g><g
   style="font-weight:bold;font-size:9.06547px;line-height:1.25;font-family:'Segoe UI';-inkscape-font-specification:'Segoe UI Bold';fill:#7b8694;fill-opacity:1;stroke-width:5.85367;stroke-linecap:square;stroke-miterlimit:40;stroke-dashoffset:1.2"
   id="text1646"
   aria-label="Hh"
   transform="translate(0,-3.6881224)"><path
     id="path1816"
     style="font-style:normal;font-variant:normal;font-weight:normal;font-stretch:normal;font-family:'Source Sans Pro';-inkscape-font-specification:'Source Sans Pro';stroke-width:5.85367"
     d="m 15.968363,29.425041 h 0.7615 v -2.80123 h 2.764968 v 2.80123 h 0.752434 v -5.946948 h -0.752434 v 2.493004 h -2.764968 v -2.493004 h -0.7615 z"
     inkscape:connector-curvature="0" /><path
     id="path1818"
     style="font-style:normal;font-variant:normal;font-weight:normal;font-stretch:normal;font-family:'Source Sans Pro';-inkscape-font-specification:'Source Sans Pro';stroke-width:5.85367"
     d="m 21.78372,29.425041 h 0.743369 v -3.191045 c 0.444208,-0.444208 0.752434,-0.67991 1.205707,-0.67991 0.58019,0 0.834024,0.353553 0.834024,1.178511 v 2.692444 h 0.743368 v -2.792164 c 0,-1.124119 -0.417011,-1.72244 -1.341689,-1.72244 -0.607387,0 -1.051595,0.326357 -1.468607,0.725238 l 0.0272,-0.906547 V 22.970427 H 21.78372 Z"
     inkscape:connector-curvature="0" /></g><g
   style="font-weight:bold;font-size:9.06547px;line-height:1.25;font-family:'Segoe UI';-inkscape-font-specification:'Segoe UI Bold';fill:#7b8694;fill-opacity:1;stroke-width:5.85367;stroke-linecap:square;stroke-miterlimit:40;stroke-dashoffset:1.2"
   id="text1650"
   aria-label="Ii"
   transform="translate(0,-3.6881224)"><path
     id="path1821"
     style="font-style:normal;font-variant:normal;font-weight:normal;font-stretch:normal;font-family:'Source Sans Pro';-inkscape-font-specification:'Source Sans Pro';stroke-width:5.85367"
     d="m 36.689445,29.425041 h 0.7615 v -5.946948 h -0.7615 z"
     inkscape:connector-curvature="0" /><path
     id="path1823"
     style="font-style:normal;font-variant:normal;font-weight:normal;font-stretch:normal;font-family:'Source Sans Pro';-inkscape-font-specification:'Source Sans Pro';stroke-width:5.85367"
     d="m 39.362059,24.112676 c 0.290095,0 0.516732,-0.19944 0.516732,-0.48047 0,-0.290095 -0.226637,-0.48047 -0.516732,-0.48047 -0.290095,0 -0.516732,0.190375 -0.516732,0.48047 0,0.28103 0.226637,0.48047 0.516732,0.48047 z m -0.38075,5.312365 h 0.743369 v -4.405818 h -0.743369 z"
     inkscape:connector-curvature="0" /></g><g
   style="font-weight:bold;font-size:9.06547px;line-height:1.25;font-family:'Segoe UI';-inkscape-font-specification:'Segoe UI Bold';fill:#7b8694;fill-opacity:1;stroke-width:5.85367;stroke-linecap:square;stroke-miterlimit:40;stroke-dashoffset:1.2"
   id="text1654"
   aria-label="Jj"
   transform="translate(0,-3.6881224)"><path
     id="path1826"
     style="font-style:normal;font-variant:normal;font-weight:normal;font-stretch:normal;font-family:'Source Sans Pro';-inkscape-font-specification:'Source Sans Pro';stroke-width:5.85367"
     d="m 56.884717,28.581953 c 0.344488,0.625517 0.879351,0.951874 1.631785,0.951874 1.169445,0 1.64085,-0.834023 1.64085,-1.858421 v -4.197313 h -0.752434 v 4.124789 c 0,0.906547 -0.317292,1.269166 -0.951875,1.269166 -0.426077,0 -0.761499,-0.199441 -1.033463,-0.670845 z"
     inkscape:connector-curvature="0" /><path
     id="path1828"
     style="font-style:normal;font-variant:normal;font-weight:normal;font-stretch:normal;font-family:'Source Sans Pro';-inkscape-font-specification:'Source Sans Pro';stroke-width:5.85367"
     d="m 61.67681,29.923642 c 0,0.534863 -0.108786,0.86122 -0.543929,0.86122 -0.154113,0 -0.308226,-0.03626 -0.417011,-0.07252 l -0.154113,0.562059 c 0.154113,0.06346 0.380749,0.117851 0.652714,0.117851 0.87935,0 1.205707,-0.571124 1.205707,-1.468606 V 25.019223 H 61.67681 Z m 0.380749,-5.810966 c 0.28103,0 0.507667,-0.19944 0.507667,-0.48047 0,-0.290095 -0.226637,-0.48047 -0.507667,-0.48047 -0.290095,0 -0.516732,0.190375 -0.516732,0.48047 0,0.28103 0.226637,0.48047 0.516732,0.48047 z"
     inkscape:connector-curvature="0" /></g><g
   style="font-weight:bold;font-size:9.06547px;line-height:1.25;font-family:'Segoe UI';-inkscape-font-specification:'Segoe UI Bold';fill:#7b8694;fill-opacity:1;stroke-width:5.85367;stroke-linecap:square;stroke-miterlimit:40;stroke-dashoffset:1.2"
   id="text1658"
   aria-label="Kk"
   transform="translate(0,-3.6881224)"><path
     id="path1831"
     style="font-style:normal;font-variant:normal;font-weight:normal;font-stretch:normal;font-family:'Source Sans Pro';-inkscape-font-specification:'Source Sans Pro';stroke-width:5.85367"
     d="m 78.131584,29.425041 h 0.761499 v -1.885618 l 1.015333,-1.205707 1.776832,3.091325 h 0.843089 L 80.37982,25.74446 82.247307,23.478093 h -0.86122 l -2.474873,2.98254 h -0.01813 v -2.98254 h -0.761499 z"
     inkscape:connector-curvature="0" /><path
     id="path1833"
     style="font-style:normal;font-variant:normal;font-weight:normal;font-stretch:normal;font-family:'Source Sans Pro';-inkscape-font-specification:'Source Sans Pro';stroke-width:5.85367"
     d="m 83.291819,29.425041 h 0.734303 v -1.16038 l 0.824958,-0.96094 1.287296,2.12132 h 0.815893 l -1.677112,-2.638051 1.477671,-1.767767 h -0.824957 l -1.876553,2.32076 h -0.0272 v -4.369556 h -0.734303 z"
     inkscape:connector-curvature="0" /></g><g
   style="font-weight:bold;font-size:9.06547px;line-height:1.25;font-family:'Segoe UI';-inkscape-font-specification:'Segoe UI Bold';fill:#7b8694;fill-opacity:1;stroke-width:5.85367;stroke-linecap:square;stroke-miterlimit:40;stroke-dashoffset:1.2"
   id="text1662"
   aria-label="Ll"
   transform="translate(0,-3.6881224)"><path
     id="path1836"
     style="font-style:normal;font-variant:normal;font-weight:normal;font-stretch:normal;font-family:'Source Sans Pro';-inkscape-font-specification:'Source Sans Pro';stroke-width:5.85367"
     d="m 98.852653,29.425041 h 3.354227 v -0.643648 h -2.592727 v -5.3033 h -0.7615 z"
     inkscape:connector-curvature="0" /><path
     id="path1838"
     style="font-style:normal;font-variant:normal;font-weight:normal;font-stretch:normal;font-family:'Source Sans Pro';-inkscape-font-specification:'Source Sans Pro';stroke-width:5.85367"
     d="m 103.163,28.536625 c 0,0.643649 0.22664,0.997202 0.7887,0.997202 0.19944,0 0.32635,-0.0272 0.42607,-0.07252 l -0.0997,-0.562059 c -0.0816,0.01813 -0.11785,0.01813 -0.16318,0.01813 -0.10878,0 -0.2085,-0.09065 -0.2085,-0.326357 V 22.970427 H 103.163 Z"
     inkscape:connector-curvature="0" /></g><g
   style="font-weight:bold;font-size:9.06547px;line-height:1.25;font-family:'Segoe UI';-inkscape-font-specification:'Segoe UI Bold';fill:#7b8694;fill-opacity:1;stroke-width:5.85367;stroke-linecap:square;stroke-miterlimit:40;stroke-dashoffset:1.2"
   id="text1666"
   aria-label="Mm"
   transform="translate(0,-3.6881224)"><path
     id="path1841"
     style="font-style:normal;font-variant:normal;font-weight:normal;font-stretch:normal;font-family:'Source Sans Pro';-inkscape-font-specification:'Source Sans Pro';stroke-width:5.85367"
     d="m 119.5737,29.425041 h 0.69804 v -3.272634 c 0,-0.525798 -0.0544,-1.232904 -0.0906,-1.758702 h 0.0363 l 0.4714,1.323559 1.14225,3.109456 h 0.43514 l 1.14225,-3.109456 0.47141,-1.323559 h 0.0363 c -0.0363,0.525798 -0.0997,1.232904 -0.0997,1.758702 v 3.272634 h 0.71617 v -5.946948 h -0.88841 l -1.14225,3.191045 -0.41702,1.214773 h -0.0363 l -0.42607,-1.214773 -1.15132,-3.191045 h -0.89748 z"
     inkscape:connector-curvature="0" /><path
     id="path1843"
     style="font-style:normal;font-variant:normal;font-weight:normal;font-stretch:normal;font-family:'Source Sans Pro';-inkscape-font-specification:'Source Sans Pro';stroke-width:5.85367"
     d="m 126.07959,29.425041 h 0.74337 v -3.191045 c 0.40795,-0.453274 0.77963,-0.67991 1.10599,-0.67991 0.56206,0 0.82495,0.353553 0.82495,1.178511 v 2.692444 h 0.74337 v -3.191045 c 0.40795,-0.453274 0.7615,-0.67991 1.10599,-0.67991 0.55299,0 0.81589,0.353553 0.81589,1.178511 v 2.692444 h 0.74337 v -2.792164 c 0,-1.124119 -0.43514,-1.72244 -1.34169,-1.72244 -0.53486,0 -0.98813,0.344488 -1.45047,0.843089 -0.18131,-0.525797 -0.54393,-0.843089 -1.21478,-0.843089 -0.52579,0 -0.98813,0.326357 -1.36888,0.743369 h -0.0272 l -0.0635,-0.634583 h -0.61645 z"
     inkscape:connector-curvature="0" /></g><g
   style="font-weight:bold;font-size:9.06547px;line-height:1.25;font-family:'Segoe UI';-inkscape-font-specification:'Segoe UI Bold';fill:#7b8694;fill-opacity:1;stroke-width:5.85367;stroke-linecap:square;stroke-miterlimit:40;stroke-dashoffset:1.2"
   id="text1670"
   aria-label="Nn"
   transform="translate(0,-3.6881224)"><path
     id="path1846"
     style="font-style:normal;font-variant:normal;font-weight:normal;font-stretch:normal;font-family:'Source Sans Pro';-inkscape-font-specification:'Source Sans Pro';stroke-width:5.85367"
     d="m 140.29477,29.425041 h 0.71617 v -3.109456 c 0,-0.625517 -0.0544,-1.2601 -0.0907,-1.858421 h 0.0363 l 0.64365,1.223838 2.14851,3.744039 h 0.77963 v -5.946948 h -0.71617 v 3.073194 c 0,0.625518 0.0635,1.296362 0.0997,1.894683 h -0.0363 l -0.64365,-1.232903 -2.15758,-3.734974 h -0.77963 z"
     inkscape:connector-curvature="0" /><path
     id="path1848"
     style="font-style:normal;font-variant:normal;font-weight:normal;font-stretch:normal;font-family:'Source Sans Pro';-inkscape-font-specification:'Source Sans Pro';stroke-width:5.85367"
     d="m 146.07471,29.425041 h 0.74337 v -3.191045 c 0.44421,-0.444208 0.75244,-0.67991 1.20571,-0.67991 0.58019,0 0.83402,0.353553 0.83402,1.178511 v 2.692444 h 0.74337 v -2.792164 c 0,-1.124119 -0.41701,-1.72244 -1.34169,-1.72244 -0.60738,0 -1.06066,0.326357 -1.47767,0.743369 h -0.0272 l -0.0634,-0.634583 h -0.61646 z"
     inkscape:connector-curvature="0" /></g><g
   style="font-weight:bold;font-size:9.06547px;line-height:1.25;font-family:'Segoe UI';-inkscape-font-specification:'Segoe UI Bold';fill:#7b8694;fill-opacity:1;stroke-width:5.85367;stroke-linecap:square;stroke-miterlimit:40;stroke-dashoffset:1.2"
   id="text1674"
   aria-label="Oo"
   transform="translate(0,-3.6881224)"><path
     id="path1851"
     style="font-style:normal;font-variant:normal;font-weight:normal;font-stretch:normal;font-family:'Source Sans Pro';-inkscape-font-specification:'Source Sans Pro';stroke-width:5.85367"
     d="m 18.171272,42.484495 c 1.486738,0 2.538332,-1.196642 2.538332,-3.109456 0,-1.894683 -1.051594,-3.055063 -2.538332,-3.055063 -1.495802,0 -2.547397,1.151314 -2.547397,3.055063 0,1.912814 1.051595,3.109456 2.547397,3.109456 z m 0,-0.661779 c -1.069725,0 -1.767766,-0.96094 -1.767766,-2.447677 0,-1.477672 0.698041,-2.393284 1.767766,-2.393284 1.06066,0 1.758702,0.915612 1.758702,2.393284 0,1.486737 -0.698042,2.447677 -1.758702,2.447677 z"
     inkscape:connector-curvature="0" /><path
     id="path1853"
     style="font-style:normal;font-variant:normal;font-weight:normal;font-stretch:normal;font-family:'Source Sans Pro';-inkscape-font-specification:'Source Sans Pro';stroke-width:5.85367"
     d="m 21.563599,40.181866 c 0,1.45954 0.96094,2.302629 2.039731,2.302629 1.078791,0 2.039731,-0.843089 2.039731,-2.302629 0,-1.477672 -0.96094,-2.32076 -2.039731,-2.32076 -1.078791,0 -2.039731,0.843088 -2.039731,2.32076 z m 0.770565,0 c 0,-1.015333 0.516732,-1.704308 1.269166,-1.704308 0.7615,0 1.269166,0.688975 1.269166,1.704308 0,1.006267 -0.507666,1.686177 -1.269166,1.686177 -0.752434,0 -1.269166,-0.67991 -1.269166,-1.686177 z"
     inkscape:connector-curvature="0" /></g><g
   style="font-weight:bold;font-size:9.06547px;line-height:1.25;font-family:'Segoe UI';-inkscape-font-specification:'Segoe UI Bold';fill:#7b8694;fill-opacity:1;stroke-width:5.85367;stroke-linecap:square;stroke-miterlimit:40;stroke-dashoffset:1.2"
   id="text1678"
   aria-label="Pp"
   transform="translate(0,-3.6881224)"><path
     id="path1856"
     style="font-style:normal;font-variant:normal;font-weight:normal;font-stretch:normal;font-family:'Source Sans Pro';-inkscape-font-specification:'Source Sans Pro';stroke-width:5.85367"
     d="m 36.689445,42.37571 h 0.7615 v -2.357023 h 1.069725 c 1.296362,0 2.193844,-0.589255 2.193844,-1.84029 0,-1.305428 -0.879351,-1.749636 -2.193844,-1.749636 h -1.831225 z m 0.7615,-2.973475 v -2.366087 h 0.970005 c 1.024398,0 1.54113,0.281029 1.54113,1.142249 0,0.843089 -0.498601,1.223838 -1.54113,1.223838 z"
     inkscape:connector-curvature="0" /><path
     id="path1858"
     style="font-style:normal;font-variant:normal;font-weight:normal;font-stretch:normal;font-family:'Source Sans Pro';-inkscape-font-specification:'Source Sans Pro';stroke-width:5.85367"
     d="m 42.539506,41.976829 c 0.407946,0.317291 0.815892,0.507666 1.223838,0.507666 1.006268,0 1.903749,-0.87935 1.903749,-2.375153 0,-1.368886 -0.607386,-2.248236 -1.74057,-2.248236 -0.516732,0 -1.006267,0.281029 -1.405148,0.616452 h -0.0272 l -0.06346,-0.507667 h -0.616452 v 6.26424 h 0.743369 v -1.486737 z m 0.01813,-0.58019 v -2.311695 c 0.435143,-0.389815 0.806827,-0.598321 1.178511,-0.598321 0.834023,0 1.16038,0.652714 1.16038,1.622719 0,1.087856 -0.534863,1.749636 -1.2601,1.749636 -0.290095,0 -0.67991,-0.126917 -1.078791,-0.462339 z"
     inkscape:connector-curvature="0" /></g><g
   style="font-weight:bold;font-size:9.06547px;line-height:1.25;font-family:'Segoe UI';-inkscape-font-specification:'Segoe UI Bold';fill:#7b8694;fill-opacity:1;stroke-width:5.85367;stroke-linecap:square;stroke-miterlimit:40;stroke-dashoffset:1.2"
   id="text1682"
   aria-label="Qq"
   transform="translate(0,-3.6881224)"><path
     id="path1861"
     style="font-style:normal;font-variant:normal;font-weight:normal;font-stretch:normal;font-family:'Source Sans Pro';-inkscape-font-specification:'Source Sans Pro';stroke-width:5.85367"
     d="m 57.836591,39.375039 c 0,-1.477672 0.698042,-2.393284 1.758702,-2.393284 1.06066,0 1.758701,0.915612 1.758701,2.393284 0,1.486737 -0.698041,2.447677 -1.758701,2.447677 -1.06066,0 -1.758702,-0.96094 -1.758702,-2.447677 z m 4.287968,3.76217 c -0.163179,0.04533 -0.362619,0.09065 -0.625518,0.09065 -0.643648,0 -1.187576,-0.253833 -1.45954,-0.779631 1.2601,-0.217571 2.103189,-1.35982 2.103189,-3.073194 0,-1.894683 -1.051595,-3.055063 -2.547397,-3.055063 -1.495803,0 -2.538332,1.151314 -2.538332,3.055063 0,1.749636 0.870285,2.90095 2.166647,3.08226 0.344488,0.815892 1.096922,1.405148 2.193844,1.405148 0.353553,0 0.670845,-0.07252 0.852154,-0.135982 z"
     inkscape:connector-curvature="0" /><path
     id="path1863"
     style="font-style:normal;font-variant:normal;font-weight:normal;font-stretch:normal;font-family:'Source Sans Pro';-inkscape-font-specification:'Source Sans Pro';stroke-width:5.85367"
     d="m 63.014816,40.181866 c 0,1.468606 0.716172,2.302629 1.822159,2.302629 0.507667,0 0.970006,-0.271964 1.323559,-0.598321 l -0.03626,0.779631 v 1.568326 h 0.752434 v -6.26424 h -0.598321 l -0.07252,0.417012 h -0.01813 c -0.39888,-0.344488 -0.752434,-0.525797 -1.2601,-0.525797 -1.006267,0 -1.912814,0.888416 -1.912814,2.32076 z m 0.770565,-0.0091 c 0,-1.006267 0.562059,-1.686177 1.269166,-1.686177 0.362618,0 0.698041,0.126917 1.069725,0.462339 v 2.302629 c -0.362619,0.407946 -0.716172,0.607387 -1.124118,0.607387 -0.770565,0 -1.214773,-0.634583 -1.214773,-1.686178 z"
     inkscape:connector-curvature="0" /></g><g
   style="font-weight:bold;font-size:9.06547px;line-height:1.25;font-family:'Segoe UI';-inkscape-font-specification:'Segoe UI Bold';fill:#7b8694;fill-opacity:1;stroke-width:5.85367;stroke-linecap:square;stroke-miterlimit:40;stroke-dashoffset:1.2"
   id="text1686"
   aria-label="Rr"
   transform="translate(0,-3.6881224)"><path
     id="path1866"
     style="font-style:normal;font-variant:normal;font-weight:normal;font-stretch:normal;font-family:'Source Sans Pro';-inkscape-font-specification:'Source Sans Pro';stroke-width:5.85367"
     d="m 78.893083,37.036148 h 0.997202 c 0.924678,0 1.432344,0.281029 1.432344,1.06066 0,0.770565 -0.507666,1.151314 -1.432344,1.151314 h -0.997202 z m 3.363289,5.339562 -1.513933,-2.592725 c 0.806827,-0.208506 1.332624,-0.761499 1.332624,-1.686177 0,-1.232904 -0.870285,-1.668047 -2.075992,-1.668047 h -1.867487 v 5.946949 h 0.761499 v -2.511136 h 1.069726 l 1.432344,2.511136 z"
     inkscape:connector-curvature="0" /><path
     id="path1868"
     style="font-style:normal;font-variant:normal;font-weight:normal;font-stretch:normal;font-family:'Source Sans Pro';-inkscape-font-specification:'Source Sans Pro';stroke-width:5.85367"
     d="m 83.309525,42.37571 h 0.743368 v -2.828427 c 0.299161,-0.743369 0.743369,-1.015333 1.115053,-1.015333 0.18131,0 0.28103,0.0272 0.426077,0.07252 l 0.145048,-0.652714 c -0.145048,-0.06346 -0.28103,-0.09065 -0.471405,-0.09065 -0.4986,0 -0.951874,0.353553 -1.251034,0.906547 h -0.0272 l -0.06346,-0.797762 H 83.30952 Z"
     inkscape:connector-curvature="0" /></g><g
   style="font-weight:bold;font-size:9.06547px;line-height:1.25;font-family:'Segoe UI';-inkscape-font-specification:'Segoe UI Bold';fill:#7b8694;fill-opacity:1;stroke-width:5.85367;stroke-linecap:square;stroke-miterlimit:40;stroke-dashoffset:1.2"
   id="text1690"
   aria-label="Ss"
   transform="translate(0,-3.6881224)"><path
     id="path1871"
     style="font-style:normal;font-variant:normal;font-weight:normal;font-stretch:normal;font-family:'Source Sans Pro';-inkscape-font-specification:'Source Sans Pro';stroke-width:5.85367"
     d="m 98.426576,41.605145 c 0.516732,0.534862 1.241969,0.87935 2.075994,0.87935 1.25103,0 2.03066,-0.752434 2.03066,-1.695243 0,-0.87935 -0.53486,-1.287296 -1.22383,-1.586457 l -0.85216,-0.362619 c -0.462338,-0.19944 -0.988135,-0.417011 -0.988135,-0.988136 0,-0.534863 0.444208,-0.870285 1.115055,-0.870285 0.54393,0 0.98813,0.217571 1.35075,0.562059 l 0.39888,-0.489535 c -0.41701,-0.435143 -1.04253,-0.734303 -1.74963,-0.734303 -1.078793,0 -1.876554,0.670845 -1.876554,1.577391 0,0.870286 0.652713,1.296363 1.205707,1.532065 l 0.852157,0.371684 c 0.56206,0.253833 0.9972,0.444208 0.9972,1.051595 0,0.58019 -0.46234,0.970005 -1.24197,0.970005 -0.625518,0 -1.214773,-0.299161 -1.640851,-0.743369 z"
     inkscape:connector-curvature="0" /><path
     id="path1873"
     style="font-style:normal;font-variant:normal;font-weight:normal;font-stretch:normal;font-family:'Source Sans Pro';-inkscape-font-specification:'Source Sans Pro';stroke-width:5.85367"
     d="m 103.11611,41.877109 c 0.41702,0.344488 1.01534,0.607386 1.64085,0.607386 1.04253,0 1.61366,-0.598321 1.61366,-1.314493 0,-0.834023 -0.70711,-1.096922 -1.34169,-1.332624 -0.4986,-0.190375 -0.97907,-0.353553 -0.97907,-0.761499 0,-0.335423 0.25383,-0.634583 0.80683,-0.634583 0.38981,0 0.7071,0.163178 1.00626,0.389815 l 0.35356,-0.471405 c -0.33543,-0.271964 -0.8159,-0.4986 -1.36889,-0.4986 -0.95187,0 -1.51393,0.543928 -1.51393,1.251034 0,0.743369 0.68897,1.042529 1.31449,1.269166 0.48047,0.18131 1.00627,0.38075 1.00627,0.834023 0,0.38075 -0.2901,0.688976 -0.87029,0.688976 -0.5258,0 -0.91561,-0.217571 -1.29636,-0.525797 z"
     inkscape:connector-curvature="0" /></g><g
   style="font-weight:bold;font-size:9.06547px;line-height:1.25;font-family:'Segoe UI';-inkscape-font-specification:'Segoe UI Bold';fill:#7b8694;fill-opacity:1;stroke-width:5.85367;stroke-linecap:square;stroke-miterlimit:40;stroke-dashoffset:1.2"
   id="text1694"
   aria-label="Tt"
   transform="translate(0,-3.6881224)"><path
     id="path1876"
     style="font-style:normal;font-variant:normal;font-weight:normal;font-stretch:normal;font-family:'Source Sans Pro';-inkscape-font-specification:'Source Sans Pro';stroke-width:5.85367"
     d="m 120.81567,42.37571 h 0.75243 v -5.312366 h 1.80403 v -0.634583 h -4.36049 v 0.634583 h 1.80403 z"
     inkscape:connector-curvature="0" /><path
     id="path1878"
     style="font-style:normal;font-variant:normal;font-weight:normal;font-stretch:normal;font-family:'Source Sans Pro';-inkscape-font-specification:'Source Sans Pro';stroke-width:5.85367"
     d="m 124.31197,41.015889 c 0,0.870285 0.31729,1.468606 1.2601,1.468606 0.27196,0 0.57112,-0.08159 0.81589,-0.163178 l -0.14505,-0.562059 c -0.14505,0.05439 -0.34449,0.117851 -0.4986,0.117851 -0.50767,0 -0.67991,-0.308226 -0.67991,-0.852154 v -2.447677 h 1.18758 v -0.607387 h -1.18758 v -1.232904 h -0.62552 l -0.0906,1.232904 -0.68898,0.04533 v 0.562059 h 0.65272 z"
     inkscape:connector-curvature="0" /></g><g
   style="font-weight:bold;font-size:9.06547px;line-height:1.25;font-family:'Segoe UI';-inkscape-font-specification:'Segoe UI Bold';fill:#7b8694;fill-opacity:1;stroke-width:5.85367;stroke-linecap:square;stroke-miterlimit:40;stroke-dashoffset:1.2"
   id="text1698"
   aria-label="Uu"
   transform="translate(0,-3.6881224)"><path
     id="path1881"
     style="font-style:normal;font-variant:normal;font-weight:normal;font-stretch:normal;font-family:'Source Sans Pro';-inkscape-font-specification:'Source Sans Pro';stroke-width:5.85367"
     d="m 140.26757,39.918967 c 0,1.912814 0.92468,2.565528 2.13945,2.565528 1.21478,0 2.13945,-0.652714 2.13945,-2.565528 v -3.490206 h -0.72523 v 3.508337 c 0,1.432344 -0.62552,1.885618 -1.41422,1.885618 -0.77056,0 -1.37795,-0.453274 -1.37795,-1.885618 v -3.508337 h -0.7615 z"
     inkscape:connector-curvature="0" /><path
     id="path1883"
     style="font-style:normal;font-variant:normal;font-weight:normal;font-stretch:normal;font-family:'Source Sans Pro';-inkscape-font-specification:'Source Sans Pro';stroke-width:5.85367"
     d="m 145.99355,40.762056 c 0,1.124118 0.41701,1.722439 1.35075,1.722439 0.60739,0 1.04253,-0.317291 1.45048,-0.797761 h 0.0272 l 0.0635,0.688976 h 0.61646 v -4.405819 h -0.74337 v 3.127587 c -0.41701,0.516732 -0.7343,0.743369 -1.18758,0.743369 -0.58019,0 -0.82496,-0.353554 -0.82496,-1.178511 v -2.692445 h -0.75243 z"
     inkscape:connector-curvature="0" /></g><g
   style="font-weight:bold;font-size:9.06547px;line-height:1.25;font-family:'Segoe UI';-inkscape-font-specification:'Segoe UI Bold';fill:#7b8694;fill-opacity:1;stroke-width:5.85367;stroke-linecap:square;stroke-miterlimit:40;stroke-dashoffset:1.2"
   id="text1702"
   aria-label="Vv"
   transform="translate(0,-3.6881224)"><path
     id="path1886"
     style="font-style:normal;font-variant:normal;font-weight:normal;font-stretch:normal;font-family:'Source Sans Pro';-inkscape-font-specification:'Source Sans Pro';stroke-width:5.85367"
     d="m 17.05622,55.326378 h 0.87935 l 1.885618,-5.946948 h -0.770565 l -0.951874,3.209176 c -0.199441,0.707107 -0.353554,1.269166 -0.571125,1.967207 h -0.03626 c -0.217571,-0.698041 -0.362619,-1.2601 -0.571124,-1.967207 L 15.9593,49.37943 h -0.797761 z"
     inkscape:connector-curvature="0" /><path
     id="path1888"
     style="font-style:normal;font-variant:normal;font-weight:normal;font-stretch:normal;font-family:'Source Sans Pro';-inkscape-font-specification:'Source Sans Pro';stroke-width:5.85367"
     d="m 21.407645,55.326378 h 0.870285 l 1.559261,-4.405818 h -0.734303 l -0.834023,2.502069 c -0.126917,0.435143 -0.271964,0.879351 -0.398881,1.296362 h -0.03626 C 21.69774,54.30198 21.552693,53.857772 21.425776,53.422629 L 20.591753,50.92056 h -0.770565 z"
     inkscape:connector-curvature="0" /></g><g
   style="font-weight:bold;font-size:9.06547px;line-height:1.25;font-family:'Segoe UI';-inkscape-font-specification:'Segoe UI Bold';fill:#7b8694;fill-opacity:1;stroke-width:5.85367;stroke-linecap:square;stroke-miterlimit:40;stroke-dashoffset:1.2"
   id="text1706"
   aria-label="Ww"
   transform="translate(0,-3.6881224)"><path
     id="path1891"
     style="font-style:normal;font-variant:normal;font-weight:normal;font-stretch:normal;font-family:'Source Sans Pro';-inkscape-font-specification:'Source Sans Pro';stroke-width:5.85367"
     d="m 37.342159,55.326378 h 0.897481 l 0.888416,-3.580861 c 0.09972,-0.462339 0.199441,-0.888416 0.299161,-1.350755 h 0.03626 c 0.08159,0.462339 0.181309,0.888416 0.281029,1.350755 l 0.897482,3.580861 H 41.5576 l 1.232904,-5.946948 h -0.734303 l -0.625517,3.236372 c -0.108786,0.634583 -0.217572,1.278232 -0.335423,1.92188 h -0.03626 C 40.913954,53.894034 40.768906,53.24132 40.632924,52.615802 L 39.807967,49.37943 h -0.688976 l -0.824958,3.236372 c -0.145047,0.634583 -0.290095,1.278232 -0.417011,1.92188 h -0.03626 C 37.722911,53.894034 37.60506,53.259451 37.487208,52.615802 L 36.861689,49.37943 h -0.77963 z"
     inkscape:connector-curvature="0" /><path
     id="path1893"
     style="font-style:normal;font-variant:normal;font-weight:normal;font-stretch:normal;font-family:'Source Sans Pro';-inkscape-font-specification:'Source Sans Pro';stroke-width:5.85367"
     d="m 44.424557,55.326378 h 0.870285 l 0.616452,-2.357022 c 0.117851,-0.417012 0.208506,-0.834023 0.308226,-1.278231 h 0.03626 c 0.108786,0.444208 0.190375,0.852154 0.299161,1.269165 l 0.634583,2.366088 h 0.906547 l 1.178511,-4.405818 h -0.707107 l -0.643648,2.547397 c -0.09065,0.417011 -0.172244,0.815892 -0.271964,1.223838 h -0.03626 c -0.09972,-0.407946 -0.199441,-0.806827 -0.308226,-1.223838 L 46.618401,50.92056 h -0.725238 l -0.67991,2.547397 c -0.108785,0.407946 -0.19944,0.815892 -0.29916,1.223838 h -0.03626 c -0.08159,-0.407946 -0.163179,-0.806827 -0.262899,-1.223838 L 43.962218,50.92056 h -0.761499 z"
     inkscape:connector-curvature="0" /></g><g
   style="font-weight:bold;font-size:9.06547px;line-height:1.25;font-family:'Segoe UI';-inkscape-font-specification:'Segoe UI Bold';fill:#7b8694;fill-opacity:1;stroke-width:5.85367;stroke-linecap:square;stroke-miterlimit:40;stroke-dashoffset:1.2"
   id="text1710"
   aria-label="Xx"
   transform="translate(0,-3.6881224)"><path
     id="path1896"
     style="font-style:normal;font-variant:normal;font-weight:normal;font-stretch:normal;font-family:'Source Sans Pro';-inkscape-font-specification:'Source Sans Pro';stroke-width:5.85367"
     d="m 56.73967,55.326378 h 0.788696 l 0.861219,-1.604588 c 0.154113,-0.290095 0.299161,-0.589256 0.471405,-0.951875 h 0.03626 c 0.190375,0.362619 0.353554,0.66178 0.507667,0.951875 l 0.87935,1.604588 h 0.834024 L 59.386787,52.289446 61.00044,49.37943 h -0.797761 l -0.788696,1.522999 c -0.145047,0.271964 -0.253833,0.516731 -0.417011,0.861219 H 58.96071 C 58.770335,51.41916 58.643418,51.174393 58.498371,50.902429 L 57.682479,49.37943 h -0.834024 l 1.622719,2.873754 z"
     inkscape:connector-curvature="0" /><path
     id="path1898"
     style="font-style:normal;font-variant:normal;font-weight:normal;font-stretch:normal;font-family:'Source Sans Pro';-inkscape-font-specification:'Source Sans Pro';stroke-width:5.85367"
     d="m 61.263764,55.326378 h 0.77963 l 0.598321,-1.024398 c 0.145048,-0.271964 0.290096,-0.534863 0.444208,-0.788696 h 0.03626 c 0.163179,0.253833 0.326357,0.525797 0.48047,0.788696 l 0.643649,1.024398 h 0.806826 l -1.432344,-2.22104 1.332624,-2.184778 h -0.77963 l -0.534863,0.970005 c -0.135982,0.235702 -0.271964,0.489535 -0.398881,0.734303 h -0.03626 C 63.049662,52.3801 62.904614,52.126267 62.768632,51.890565 L 62.179377,50.92056 H 61.37255 l 1.332624,2.103189 z"
     inkscape:connector-curvature="0" /></g><g
   style="font-weight:bold;font-size:9.06547px;line-height:1.25;font-family:'Segoe UI';-inkscape-font-specification:'Segoe UI Bold';fill:#7b8694;fill-opacity:1;stroke-width:5.85367;stroke-linecap:square;stroke-miterlimit:40;stroke-dashoffset:1.2"
   id="text1714"
   aria-label="Yy"
   transform="translate(0,-3.6881224)"><path
     id="path1901"
     style="font-style:normal;font-variant:normal;font-weight:normal;font-stretch:normal;font-family:'Source Sans Pro';-inkscape-font-specification:'Source Sans Pro';stroke-width:5.85367"
     d="m 79.101589,55.326378 h 0.752434 V 53.023749 L 81.639921,49.37943 H 80.86029 l -0.770565,1.677112 c -0.181309,0.435142 -0.389815,0.852154 -0.589255,1.296362 h -0.03626 c -0.208506,-0.444208 -0.389815,-0.86122 -0.58019,-1.296362 l -0.7615,-1.677112 h -0.815892 l 1.794963,3.644319 z"
     inkscape:connector-curvature="0" /><path
     id="path1903"
     style="font-style:normal;font-variant:normal;font-weight:normal;font-stretch:normal;font-family:'Source Sans Pro';-inkscape-font-specification:'Source Sans Pro';stroke-width:5.85367"
     d="m 81.930299,56.541151 -0.145048,0.589255 c 0.145048,0.05439 0.317292,0.09065 0.516732,0.09065 0.888416,0 1.341689,-0.661779 1.649915,-1.532064 l 1.658981,-4.768437 h -0.725237 l -0.788696,2.438611 c -0.117851,0.389815 -0.244768,0.843089 -0.371684,1.241969 H 83.689 C 83.553018,54.193194 83.398905,53.739921 83.262923,53.359171 L 82.365441,50.92056 h -0.770565 l 1.767767,4.414883 -0.09972,0.326357 c -0.18131,0.543928 -0.498601,0.942809 -0.997202,0.942809 -0.108786,0 -0.244768,-0.03626 -0.335422,-0.06346 z"
     inkscape:connector-curvature="0" /></g><g
   style="font-weight:bold;font-size:9.06547px;line-height:1.25;font-family:'Segoe UI';-inkscape-font-specification:'Segoe UI Bold';fill:#7b8694;fill-opacity:1;stroke-width:5.85367;stroke-linecap:square;stroke-miterlimit:40;stroke-dashoffset:1.2"
   id="text1718"
   aria-label="Zz"
   transform="translate(0,-3.6881224)"><path
     id="path1906"
     style="font-style:normal;font-variant:normal;font-weight:normal;font-stretch:normal;font-family:'Source Sans Pro';-inkscape-font-specification:'Source Sans Pro';stroke-width:5.85367"
     d="M 98.444707,55.326378 H 102.5423 V 54.68273 h -3.16385 l 3.13665,-4.859092 V 49.37943 h -3.789363 v 0.634583 h 2.855623 l -3.136653,4.859091 z"
     inkscape:connector-curvature="0" /><path
     id="path1908"
     style="font-style:normal;font-variant:normal;font-weight:normal;font-stretch:normal;font-family:'Source Sans Pro';-inkscape-font-specification:'Source Sans Pro';stroke-width:5.85367"
     d="m 103.17872,55.326378 h 3.3361 v -0.607387 h -2.39329 l 2.32076,-3.399551 v -0.39888 h -3.00973 v 0.607386 h 2.06692 l -2.32076,3.399551 z"
     inkscape:connector-curvature="0" /></g><g
   style="font-weight:bold;font-size:9.06547px;line-height:1.25;font-family:'Segoe UI';-inkscape-font-specification:'Segoe UI Bold';fill:#a6aeb8;fill-opacity:1;stroke-width:5.85367;stroke-linecap:square;stroke-miterlimit:40;stroke-dashoffset:1.2"
   id="text1732"
   aria-label="Thin"
   transform="translate(5.1802698,-3.6881224)"><path
     id="path1911"
     style="font-style:normal;font-variant:normal;font-weight:200;font-stretch:normal;font-family:'Source Sans Pro';-inkscape-font-specification:'Source Sans Pro Ultra-Light';fill:#a6aeb8;fill-opacity:1;stroke-width:5.85367"
     d="m 177.94366,16.474363 h 0.29009 v -5.729377 h 1.94001 v -0.253833 h -4.17011 v 0.253833 h 1.94001 z"
     inkscape:connector-curvature="0" /><path
     id="path1913"
     style="font-style:normal;font-variant:normal;font-weight:200;font-stretch:normal;font-family:'Source Sans Pro';-inkscape-font-specification:'Source Sans Pro Ultra-Light';fill:#a6aeb8;fill-opacity:1;stroke-width:5.85367"
     d="m 181.2772,16.474363 h 0.27196 v -3.317962 c 0.56206,-0.58019 0.96094,-0.870285 1.50487,-0.870285 0.74337,0 1.0516,0.471405 1.0516,1.432345 v 2.755902 h 0.27196 v -2.792164 c 0,-1.124119 -0.41701,-1.649916 -1.30543,-1.649916 -0.59832,0 -1.05159,0.344488 -1.523,0.815892 v -0.97907 -1.9400108 h -0.27196 z"
     inkscape:connector-curvature="0" /><path
     id="path1915"
     style="font-style:normal;font-variant:normal;font-weight:200;font-stretch:normal;font-family:'Source Sans Pro';-inkscape-font-specification:'Source Sans Pro Ultra-Light';fill:#a6aeb8;fill-opacity:1;stroke-width:5.85367"
     d="m 186.14975,11.035081 c 0.16318,0 0.30823,-0.126916 0.30823,-0.308225 0,-0.199441 -0.14505,-0.308226 -0.30823,-0.308226 -0.16318,0 -0.30823,0.108785 -0.30823,0.308226 0,0.181309 0.14505,0.308225 0.30823,0.308225 z m -0.14505,5.439282 h 0.27197 v -4.333294 h -0.27197 z"
     inkscape:connector-curvature="0" /><path
     id="path1917"
     style="font-style:normal;font-variant:normal;font-weight:200;font-stretch:normal;font-family:'Source Sans Pro';-inkscape-font-specification:'Source Sans Pro Ultra-Light';fill:#a6aeb8;fill-opacity:1;stroke-width:5.85367"
     d="m 188.02318,16.474363 h 0.27197 v -3.317962 c 0.56206,-0.58019 0.96094,-0.870285 1.50487,-0.870285 0.74337,0 1.05159,0.471405 1.05159,1.432345 v 2.755902 h 0.27197 v -2.792164 c 0,-1.124119 -0.41702,-1.649916 -1.30543,-1.649916 -0.59832,0 -1.0516,0.344488 -1.50487,0.797761 h -0.0181 l -0.0363,-0.688975 h -0.23571 z"
     inkscape:connector-curvature="0" /></g><g
   style="font-weight:bold;font-size:9.06547px;line-height:1.25;font-family:'Segoe UI';-inkscape-font-specification:'Segoe UI Bold';fill:#a6aeb8;fill-opacity:1;stroke-width:5.85367;stroke-linecap:square;stroke-miterlimit:40;stroke-dashoffset:1.2"
   id="text1736"
   aria-label="Light"
   transform="translate(5.1802698,-3.6881224)"><path
     id="path1920"
     style="font-style:normal;font-variant:normal;font-weight:300;font-stretch:normal;font-family:'Source Sans Pro';-inkscape-font-specification:'Source Sans Pro Light';fill:#a6aeb8;fill-opacity:1;stroke-width:5.85367"
     d="m 176.6201,29.425041 h 3.16385 v -0.362619 h -2.74684 v -5.611525 h -0.41701 z"
     inkscape:connector-curvature="0" /><path
     id="path1922"
     style="font-style:normal;font-variant:normal;font-weight:300;font-stretch:normal;font-family:'Source Sans Pro';-inkscape-font-specification:'Source Sans Pro Light';fill:#a6aeb8;fill-opacity:1;stroke-width:5.85367"
     d="m 180.98909,24.022021 c 0.19944,0 0.36262,-0.145047 0.36262,-0.353553 0,-0.226637 -0.16318,-0.362619 -0.36262,-0.362619 -0.19944,0 -0.36262,0.135982 -0.36262,0.362619 0,0.208506 0.16318,0.353553 0.36262,0.353553 z m -0.20851,5.40302 h 0.39888 v -4.351425 h -0.39888 z"
     inkscape:connector-curvature="0" /><path
     id="path1924"
     style="font-style:normal;font-variant:normal;font-weight:300;font-stretch:normal;font-family:'Source Sans Pro';-inkscape-font-specification:'Source Sans Pro Light';fill:#a6aeb8;fill-opacity:1;stroke-width:5.85367"
     d="m 182.87031,30.277195 c 0,-0.308226 0.17225,-0.643648 0.57113,-0.915612 0.22664,0.05439 0.45327,0.07252 0.54393,0.07252 h 0.93374 c 0.65271,0 1.00627,0.181309 1.00627,0.661779 0,0.543928 -0.62552,1.096922 -1.60459,1.096922 -0.92468,0 -1.45048,-0.371684 -1.45048,-0.915613 z m -0.38074,0.03626 c 0,0.734303 0.68897,1.205708 1.78589,1.205708 1.25104,0 2.05786,-0.716172 2.05786,-1.468606 0,-0.688976 -0.45327,-0.997202 -1.43234,-0.997202 h -0.93374 c -0.65272,0 -0.83403,-0.253833 -0.83403,-0.571125 0,-0.290095 0.16318,-0.471404 0.35356,-0.625517 0.19944,0.117851 0.48047,0.181309 0.72523,0.181309 0.85216,0 1.51394,-0.643648 1.51394,-1.532064 0,-0.462339 -0.19944,-0.852154 -0.48047,-1.096922 h 1.01533 v -0.335422 h -1.47767 c -0.13598,-0.05439 -0.33542,-0.108786 -0.57113,-0.108786 -0.85215,0 -1.53206,0.634583 -1.53206,1.532064 0,0.525798 0.27196,0.96094 0.54393,1.196642 v 0.03626 c -0.19038,0.135982 -0.47141,0.407946 -0.47141,0.797762 0,0.335422 0.16318,0.571124 0.38075,0.698041 v 0.03626 c -0.39888,0.290095 -0.64364,0.670845 -0.64364,1.051594 z m 1.72243,-2.592724 c -0.60738,0 -1.13318,-0.489535 -1.13318,-1.223839 0,-0.743368 0.51673,-1.205707 1.13318,-1.205707 0.61646,0 1.12412,0.471404 1.12412,1.205707 0,0.734304 -0.52579,1.223839 -1.12412,1.223839 z"
     inkscape:connector-curvature="0" /><path
     id="path1926"
     style="font-style:normal;font-variant:normal;font-weight:300;font-stretch:normal;font-family:'Source Sans Pro';-inkscape-font-specification:'Source Sans Pro Light';fill:#a6aeb8;fill-opacity:1;stroke-width:5.85367"
     d="m 187.26098,29.425041 h 0.39888 v -3.2817 c 0.53486,-0.543928 0.90655,-0.815892 1.42328,-0.815892 0.7071,0 0.9972,0.435142 0.9972,1.35982 v 2.737772 h 0.39888 v -2.792164 c 0,-1.124119 -0.41701,-1.668047 -1.31449,-1.668047 -0.59832,0 -1.0516,0.335422 -1.50487,0.788696 v -0.96094 -1.885618 h -0.39888 z"
     inkscape:connector-curvature="0" /><path
     id="path1928"
     style="font-style:normal;font-variant:normal;font-weight:300;font-stretch:normal;font-family:'Source Sans Pro';-inkscape-font-specification:'Source Sans Pro Light';fill:#a6aeb8;fill-opacity:1;stroke-width:5.85367"
     d="m 192.14132,28.219334 c 0,0.77963 0.24476,1.314493 1.08785,1.314493 0.18131,0 0.45328,-0.07252 0.70711,-0.163179 l -0.10879,-0.326357 c -0.15411,0.07252 -0.38075,0.135983 -0.54392,0.135983 -0.59833,0 -0.73431,-0.371685 -0.73431,-0.924678 v -2.837492 h 1.2601 v -0.344488 h -1.2601 v -1.260101 h -0.34449 l -0.0544,1.260101 -0.68897,0.03626 v 0.308226 h 0.67991 z"
     inkscape:connector-curvature="0" /></g><g
   style="font-weight:bold;font-size:9.06547px;line-height:1.25;font-family:'Segoe UI';-inkscape-font-specification:'Segoe UI Bold';fill:#a6aeb8;fill-opacity:1;stroke-width:5.85367;stroke-linecap:square;stroke-miterlimit:40;stroke-dashoffset:1.2"
   id="text1740"
   aria-label="Regular"
   transform="translate(5.1802698,-3.6881224)"><path
     id="path1931"
     style="font-style:normal;font-variant:normal;font-weight:normal;font-stretch:normal;font-family:'Source Sans Pro';-inkscape-font-specification:'Source Sans Pro';fill:#a6aeb8;fill-opacity:1;stroke-width:5.85367"
     d="m 177.31814,37.036148 h 0.9972 c 0.92468,0 1.43235,0.281029 1.43235,1.06066 0,0.770565 -0.50767,1.151314 -1.43235,1.151314 h -0.9972 z m 3.36329,5.339562 -1.51393,-2.592725 c 0.80682,-0.208506 1.33262,-0.761499 1.33262,-1.686177 0,-1.232904 -0.87029,-1.668047 -2.07599,-1.668047 h -1.86749 v 5.946949 h 0.7615 v -2.511136 h 1.06973 l 1.43234,2.511136 z"
     inkscape:connector-curvature="0" /><path
     id="path1933"
     style="font-style:normal;font-variant:normal;font-weight:normal;font-stretch:normal;font-family:'Source Sans Pro';-inkscape-font-specification:'Source Sans Pro';fill:#a6aeb8;fill-opacity:1;stroke-width:5.85367"
     d="m 181.31969,40.181866 c 0,1.44141 0.93375,2.302629 2.11226,2.302629 0.59832,0 1.06972,-0.208506 1.45047,-0.453273 l -0.26289,-0.489536 c -0.32636,0.208506 -0.67991,0.344488 -1.09693,0.344488 -0.84308,0 -1.41421,-0.598321 -1.4686,-1.550195 h 2.97347 c 0.0181,-0.108786 0.0272,-0.253833 0.0272,-0.407946 0,-1.260101 -0.63458,-2.066927 -1.7587,-2.066927 -1.00627,0 -1.97628,0.87935 -1.97628,2.32076 z m 0.72524,-0.335423 c 0.0907,-0.888416 0.65272,-1.396082 1.26917,-1.396082 0.68897,0 1.08785,0.498601 1.08785,1.396082 z"
     inkscape:connector-curvature="0" /><path
     id="path1935"
     style="font-style:normal;font-variant:normal;font-weight:normal;font-stretch:normal;font-family:'Source Sans Pro';-inkscape-font-specification:'Source Sans Pro';fill:#a6aeb8;fill-opacity:1;stroke-width:5.85367"
     d="m 186.37214,43.119078 c 0,-0.253833 0.13598,-0.516732 0.45327,-0.743368 0.19037,0.05439 0.39888,0.07252 0.57112,0.07252 h 0.7615 c 0.57113,0 0.88842,0.135982 0.88842,0.543928 0,0.462339 -0.55299,0.897482 -1.39608,0.897482 -0.79776,0 -1.27823,-0.299161 -1.27823,-0.770565 z m -0.65272,0.09972 c 0,0.7615 0.74337,1.187577 1.82216,1.187577 1.36889,0 2.23011,-0.707107 2.23011,-1.522999 0,-0.734303 -0.51673,-1.051595 -1.54113,-1.051595 h -0.85216 c -0.59832,0 -0.77963,-0.19944 -0.77963,-0.48047 0,-0.244767 0.12692,-0.389815 0.28103,-0.525797 0.19944,0.09972 0.44421,0.154113 0.66178,0.154113 0.89748,0 1.61365,-0.589255 1.61365,-1.532064 0,-0.371684 -0.15411,-0.707107 -0.36261,-0.906547 h 0.90654 v -0.571125 h -1.53206 c -0.16318,-0.06346 -0.38075,-0.108785 -0.62552,-0.108785 -0.89748,0 -1.65898,0.607386 -1.65898,1.568326 0,0.525797 0.28103,0.951874 0.57112,1.187576 v 0.03626 c -0.22663,0.154113 -0.48046,0.444208 -0.48046,0.815893 0,0.344487 0.17224,0.58019 0.38981,0.716172 v 0.03626 c -0.39888,0.271964 -0.64365,0.625517 -0.64365,0.997201 z m 1.82216,-2.737772 c -0.50766,0 -0.93374,-0.407946 -0.93374,-1.051594 0,-0.643648 0.41701,-1.024398 0.93374,-1.024398 0.51673,0 0.93374,0.38075 0.93374,1.024398 0,0.643648 -0.42607,1.051594 -0.93374,1.051594 z"
     inkscape:connector-curvature="0" /><path
     id="path1937"
     style="font-style:normal;font-variant:normal;font-weight:normal;font-stretch:normal;font-family:'Source Sans Pro';-inkscape-font-specification:'Source Sans Pro';fill:#a6aeb8;fill-opacity:1;stroke-width:5.85367"
     d="m 190.55953,40.762056 c 0,1.124118 0.41702,1.722439 1.35076,1.722439 0.60739,0 1.04253,-0.317291 1.45047,-0.797761 h 0.0272 l 0.0635,0.688976 h 0.61645 v -4.405819 h -0.74337 v 3.127587 c -0.41701,0.516732 -0.7343,0.743369 -1.18757,0.743369 -0.58019,0 -0.82496,-0.353554 -0.82496,-1.178511 v -2.692445 h -0.75244 z"
     inkscape:connector-curvature="0" /><path
     id="path1939"
     style="font-style:normal;font-variant:normal;font-weight:normal;font-stretch:normal;font-family:'Source Sans Pro';-inkscape-font-specification:'Source Sans Pro';fill:#a6aeb8;fill-opacity:1;stroke-width:5.85367"
     d="m 195.56296,41.487293 c 0,0.643649 0.22664,0.997202 0.7887,0.997202 0.19944,0 0.32636,-0.0272 0.42608,-0.07252 l -0.0997,-0.562059 c -0.0816,0.01813 -0.11785,0.01813 -0.16318,0.01813 -0.10879,0 -0.20851,-0.09065 -0.20851,-0.326357 v -5.620591 h -0.74337 z"
     inkscape:connector-curvature="0" /><path
     id="path1941"
     style="font-style:normal;font-variant:normal;font-weight:normal;font-stretch:normal;font-family:'Source Sans Pro';-inkscape-font-specification:'Source Sans Pro';fill:#a6aeb8;fill-opacity:1;stroke-width:5.85367"
     d="m 197.66488,41.23346 c 0,0.788696 0.55299,1.251035 1.29636,1.251035 0.54393,0 1.03346,-0.290095 1.45954,-0.634583 h 0.0181 l 0.0635,0.525798 h 0.61645 V 39.6742 c 0,-1.096922 -0.45327,-1.813094 -1.53206,-1.813094 -0.70711,0 -1.32356,0.308226 -1.73151,0.571124 l 0.29916,0.516732 c 0.34449,-0.235702 0.79777,-0.471404 1.3145,-0.471404 0.71617,0 0.90654,0.543928 0.90654,1.105987 -1.87655,0.208506 -2.71057,0.688976 -2.71057,1.649915 z m 0.7343,-0.05439 c 0,-0.56206 0.4986,-0.924678 1.97627,-1.105988 v 1.223839 c -0.42607,0.380749 -0.77963,0.589255 -1.2057,0.589255 -0.43515,0 -0.77057,-0.208506 -0.77057,-0.707106 z"
     inkscape:connector-curvature="0" /><path
     id="path1943"
     style="font-style:normal;font-variant:normal;font-weight:normal;font-stretch:normal;font-family:'Source Sans Pro';-inkscape-font-specification:'Source Sans Pro';fill:#a6aeb8;fill-opacity:1;stroke-width:5.85367"
     d="m 202.52142,42.37571 h 0.74337 v -2.828427 c 0.29916,-0.743369 0.74337,-1.015333 1.11505,-1.015333 0.18131,0 0.28103,0.0272 0.42608,0.07252 l 0.14505,-0.652714 c -0.14505,-0.06346 -0.28103,-0.09065 -0.47141,-0.09065 -0.4986,0 -0.95187,0.353553 -1.25103,0.906547 h -0.0272 l -0.0635,-0.797762 h -0.61645 z"
     inkscape:connector-curvature="0" /></g><g
   style="font-weight:bold;font-size:9.06547px;line-height:1.25;font-family:'Segoe UI';-inkscape-font-specification:'Segoe UI Bold';fill:#a6aeb8;fill-opacity:1;stroke-width:5.85367;stroke-linecap:square;stroke-miterlimit:40;stroke-dashoffset:1.2"
   id="text1744"
   aria-label="Semibold"
   transform="translate(5.1802698,-3.6881224)"><path
     id="path1946"
     style="font-style:normal;font-variant:normal;font-weight:600;font-stretch:normal;font-family:'Source Sans Pro';-inkscape-font-specification:'Source Sans Pro Semi-Bold';fill:#a6aeb8;fill-opacity:1;stroke-width:5.85367"
     d="m 176.10337,54.564878 c 0.56206,0.552994 1.33262,0.870286 2.13038,0.870286 1.33263,0 2.13039,-0.797762 2.13039,-1.758702 0,-0.861219 -0.48954,-1.305427 -1.19664,-1.604588 l -0.79777,-0.335422 c -0.48953,-0.19944 -0.9428,-0.371684 -0.9428,-0.834023 0,-0.435143 0.36261,-0.698042 0.92467,-0.698042 0.50767,0 0.91562,0.190375 1.2873,0.507667 l 0.54393,-0.670845 c -0.46234,-0.462339 -1.13319,-0.752434 -1.83123,-0.752434 -1.15131,0 -1.98533,0.725238 -1.98533,1.668046 0,0.870286 0.60738,1.332625 1.19664,1.577392 l 0.80682,0.353554 c 0.54393,0.226636 0.92468,0.380749 0.92468,0.870285 0,0.462339 -0.37168,0.761499 -1.03346,0.761499 -0.553,0 -1.12412,-0.271964 -1.5502,-0.670845 z"
     inkscape:connector-curvature="0" /><path
     id="path1948"
     style="font-style:normal;font-variant:normal;font-weight:600;font-stretch:normal;font-family:'Source Sans Pro';-inkscape-font-specification:'Source Sans Pro Semi-Bold';fill:#a6aeb8;fill-opacity:1;stroke-width:5.85367"
     d="m 181.0619,53.105338 c 0,1.468606 0.96094,2.329826 2.19384,2.329826 0.56206,0 1.09692,-0.199441 1.523,-0.48047 l -0.35356,-0.652714 c -0.32635,0.208506 -0.65271,0.326357 -1.03346,0.326357 -0.71617,0 -1.22384,-0.453274 -1.31449,-1.260101 h 2.82842 c 0.0272,-0.108785 0.0453,-0.290095 0.0453,-0.489535 0,-1.241969 -0.63458,-2.112254 -1.84029,-2.112254 -1.04253,0 -2.04879,0.888416 -2.04879,2.338891 z m 1.00626,-0.398881 c 0.0907,-0.743368 0.54393,-1.133184 1.06973,-1.133184 0.60738,0 0.90655,0.426077 0.90655,1.133184 z"
     inkscape:connector-curvature="0" /><path
     id="path1950"
     style="font-style:normal;font-variant:normal;font-weight:600;font-stretch:normal;font-family:'Source Sans Pro';-inkscape-font-specification:'Source Sans Pro Semi-Bold';fill:#a6aeb8;fill-opacity:1;stroke-width:5.85367"
     d="m 185.95555,55.326378 h 1.04253 v -3.109456 c 0.34449,-0.371685 0.66178,-0.552994 0.93374,-0.552994 0.47141,0 0.68898,0.271964 0.68898,1.006267 v 2.656183 h 1.04253 v -3.109456 c 0.34448,-0.371685 0.65271,-0.552994 0.93374,-0.552994 0.46234,0 0.67991,0.271964 0.67991,1.006267 v 2.656183 h 1.05159 v -2.792165 c 0,-1.124118 -0.43514,-1.767766 -1.37795,-1.767766 -0.56206,0 -1.00626,0.344487 -1.43234,0.797761 -0.20851,-0.498601 -0.58019,-0.797761 -1.23291,-0.797761 -0.55299,0 -0.98813,0.317291 -1.35982,0.716172 h -0.0363 l -0.0725,-0.607387 h -0.86122 z"
     inkscape:connector-curvature="0" /><path
     id="path1952"
     style="font-style:normal;font-variant:normal;font-weight:600;font-stretch:normal;font-family:'Source Sans Pro';-inkscape-font-specification:'Source Sans Pro Semi-Bold';fill:#a6aeb8;fill-opacity:1;stroke-width:5.85367"
     d="m 194.13034,50.095602 c 0.37168,0 0.64365,-0.244768 0.64365,-0.589256 0,-0.353553 -0.27197,-0.598321 -0.64365,-0.598321 -0.37169,0 -0.64365,0.244768 -0.64365,0.598321 0,0.344488 0.27196,0.589256 0.64365,0.589256 z m -0.5258,5.230776 h 1.04253 v -4.451146 h -1.04253 z"
     inkscape:connector-curvature="0" /><path
     id="path1954"
     style="font-style:normal;font-variant:normal;font-weight:600;font-stretch:normal;font-family:'Source Sans Pro';-inkscape-font-specification:'Source Sans Pro Semi-Bold';fill:#a6aeb8;fill-opacity:1;stroke-width:5.85367"
     d="m 195.97714,55.326378 h 0.82496 l 0.0907,-0.453274 h 0.0272 c 0.37169,0.362619 0.80683,0.56206 1.21478,0.56206 0.98813,0 1.90374,-0.879351 1.90374,-2.411415 0,-1.368886 -0.64364,-2.257302 -1.7587,-2.257302 -0.45327,0 -0.91561,0.226636 -1.28729,0.552993 l 0.0272,-0.743368 v -1.649916 h -1.04253 z m 1.04253,-1.124118 v -2.075993 c 0.34449,-0.335422 0.65272,-0.498601 0.97907,-0.498601 0.67085,0 0.96094,0.525797 0.96094,1.414213 0,1.006268 -0.45327,1.532065 -1.04253,1.532065 -0.26289,0 -0.58019,-0.09972 -0.89748,-0.371684 z"
     inkscape:connector-curvature="0" /><path
     id="path1956"
     style="font-style:normal;font-variant:normal;font-weight:600;font-stretch:normal;font-family:'Source Sans Pro';-inkscape-font-specification:'Source Sans Pro Semi-Bold';fill:#a6aeb8;fill-opacity:1;stroke-width:5.85367"
     d="m 200.80408,53.105338 c 0,1.477671 1.00627,2.329826 2.11225,2.329826 1.11506,0 2.12132,-0.852155 2.12132,-2.329826 0,-1.486737 -1.00626,-2.338891 -2.12132,-2.338891 -1.10598,0 -2.11225,0.852154 -2.11225,2.338891 z m 1.06973,0 c 0,-0.897482 0.38981,-1.486737 1.04252,-1.486737 0.65272,0 1.0516,0.589255 1.0516,1.486737 0,0.888416 -0.39888,1.477671 -1.0516,1.477671 -0.65271,0 -1.04252,-0.589255 -1.04252,-1.477671 z"
     inkscape:connector-curvature="0" /><path
     id="path1958"
     style="font-style:normal;font-variant:normal;font-weight:600;font-stretch:normal;font-family:'Source Sans Pro';-inkscape-font-specification:'Source Sans Pro Semi-Bold';fill:#a6aeb8;fill-opacity:1;stroke-width:5.85367"
     d="m 206.06956,54.184129 c 0,0.770565 0.27196,1.251035 1.01533,1.251035 0.24477,0 0.42608,-0.03626 0.553,-0.09065 l -0.13598,-0.779631 c -0.0816,0.01813 -0.11786,0.01813 -0.16318,0.01813 -0.10879,0 -0.22664,-0.09065 -0.22664,-0.344488 V 48.92616 h -1.04253 z"
     inkscape:connector-curvature="0" /><path
     id="path1960"
     style="font-style:normal;font-variant:normal;font-weight:600;font-stretch:normal;font-family:'Source Sans Pro';-inkscape-font-specification:'Source Sans Pro Semi-Bold';fill:#a6aeb8;fill-opacity:1;stroke-width:5.85367"
     d="m 208.25873,53.105338 c 0,1.468606 0.71617,2.329826 1.83123,2.329826 0.48047,0 0.93374,-0.262899 1.2601,-0.589256 h 0.0363 l 0.0725,0.48047 h 0.86122 v -6.400222 h -1.04253 v 1.613654 l 0.0363,0.716172 c -0.34448,-0.299161 -0.66178,-0.489535 -1.16944,-0.489535 -0.97001,0 -1.88562,0.888416 -1.88562,2.338891 z m 1.07879,-0.0091 c 0,-0.933743 0.46234,-1.468606 1.03347,-1.468606 0.29916,0 0.59832,0.09972 0.90654,0.371684 v 2.075993 c -0.29916,0.344488 -0.58925,0.498601 -0.93374,0.498601 -0.64365,0 -1.00627,-0.516732 -1.00627,-1.477672 z"
     inkscape:connector-curvature="0" /></g><g
   style="font-weight:bold;font-size:9.06547px;line-height:1.25;font-family:'Segoe UI';-inkscape-font-specification:'Segoe UI Bold';fill:#a6aeb8;fill-opacity:1;stroke-width:5.85367;stroke-linecap:square;stroke-miterlimit:40;stroke-dashoffset:1.2"
   id="text1748"
   aria-label="Bold"
   transform="translate(5.1802698,-3.6881224)"><path
     id="path1963"
     style="font-style:normal;font-variant:normal;font-weight:bold;font-stretch:normal;font-family:'Source Sans Pro';-inkscape-font-specification:'Source Sans Pro Bold';fill:#a6aeb8;fill-opacity:1;stroke-width:5.85367"
     d="m 176.45692,68.277046 h 2.19384 c 1.2873,0 2.30263,-0.534863 2.30263,-1.74057 0,-0.788696 -0.4442,-1.232904 -1.28729,-1.387017 v -0.03626 c 0.68897,-0.181309 0.9972,-0.752434 0.9972,-1.278231 0,-1.133184 -0.95188,-1.468606 -2.18478,-1.468606 h -2.0216 z m 1.34169,-3.526468 v -1.350755 h 0.63458 c 0.61645,0 0.92468,0.18131 0.92468,0.625518 0,0.444208 -0.29009,0.725237 -0.94281,0.725237 z m 0,2.493005 v -1.550196 h 0.74337 c 0.7343,0 1.10599,0.226637 1.10599,0.743369 0,0.534863 -0.38075,0.806827 -1.10599,0.806827 z"
     inkscape:connector-curvature="0" /><path
     id="path1965"
     style="font-style:normal;font-variant:normal;font-weight:bold;font-stretch:normal;font-family:'Source Sans Pro';-inkscape-font-specification:'Source Sans Pro Bold';fill:#a6aeb8;fill-opacity:1;stroke-width:5.85367"
     d="m 181.56545,66.02881 c 0,1.495802 1.0516,2.357022 2.19385,2.357022 1.13318,0 2.18478,-0.86122 2.18478,-2.357022 0,-1.495803 -1.0516,-2.357022 -2.18478,-2.357022 -1.14225,0 -2.19385,0.861219 -2.19385,2.357022 z m 1.36889,0 c 0,-0.779631 0.27196,-1.278232 0.82496,-1.278232 0.54393,0 0.82496,0.498601 0.82496,1.278232 0,0.77963 -0.28103,1.278231 -0.82496,1.278231 -0.553,0 -0.82496,-0.498601 -0.82496,-1.278231 z"
     inkscape:connector-curvature="0" /><path
     id="path1967"
     style="font-style:normal;font-variant:normal;font-weight:bold;font-stretch:normal;font-family:'Source Sans Pro';-inkscape-font-specification:'Source Sans Pro Bold';fill:#a6aeb8;fill-opacity:1;stroke-width:5.85367"
     d="m 186.85686,66.880964 c 0,0.906547 0.30822,1.504868 1.22383,1.504868 0.29916,0 0.5258,-0.04533 0.67085,-0.108786 l -0.16318,-0.988136 c -0.0725,0.01813 -0.10879,0.01813 -0.16318,0.01813 -0.10878,0 -0.2357,-0.09065 -0.2357,-0.371684 v -5.013205 h -1.33262 z"
     inkscape:connector-curvature="0" /><path
     id="path1969"
     style="font-style:normal;font-variant:normal;font-weight:bold;font-stretch:normal;font-family:'Source Sans Pro';-inkscape-font-specification:'Source Sans Pro Bold';fill:#a6aeb8;fill-opacity:1;stroke-width:5.85367"
     d="m 189.20623,66.02881 c 0,1.468606 0.72524,2.357022 1.84029,2.357022 0.43514,0 0.87935,-0.235702 1.19664,-0.552994 h 0.0363 l 0.0907,0.444208 h 1.08785 v -6.354894 h -1.33262 v 1.532064 l 0.0544,0.688976 c -0.30822,-0.290095 -0.60738,-0.471404 -1.10598,-0.471404 -0.95188,0 -1.86749,0.888416 -1.86749,2.357022 z m 1.36888,-0.01813 c 0,-0.852154 0.38075,-1.251035 0.80683,-1.251035 0.24477,0 0.50767,0.07252 0.74337,0.290095 v 1.84029 c -0.21757,0.299161 -0.44421,0.407946 -0.7343,0.407946 -0.51673,0 -0.8159,-0.39888 -0.8159,-1.287296 z"
     inkscape:connector-curvature="0" /></g><g
   style="font-weight:bold;font-size:9.06547px;line-height:1.25;font-family:'Segoe UI';-inkscape-font-specification:'Segoe UI Bold';fill:#a6aeb8;fill-opacity:1;stroke-width:5.85367;stroke-linecap:square;stroke-miterlimit:40;stroke-dashoffset:1.2"
   id="text1752"
   aria-label="Black"
   transform="translate(5.1802698,-3.6881224)"><path
     id="path1972"
     style="font-style:normal;font-variant:normal;font-weight:900;font-stretch:normal;font-family:'Source Sans Pro';-inkscape-font-specification:'Source Sans Pro Heavy';fill:#a6aeb8;fill-opacity:1;stroke-width:5.85367"
     d="m 176.42066,81.227715 h 2.30263 c 1.26916,0 2.32076,-0.525798 2.32076,-1.740571 0,-0.77963 -0.41701,-1.214773 -1.25104,-1.377951 v -0.03626 c 0.68898,-0.181309 0.97907,-0.761499 0.97907,-1.269166 0,-1.16038 -0.9972,-1.468606 -2.2301,-1.468606 h -2.12132 z m 1.55926,-3.571796 v -1.124118 h 0.5258 c 0.50766,0 0.74336,0.145048 0.74336,0.507667 0,0.362618 -0.2357,0.616451 -0.74336,0.616451 z m 0,2.375154 v -1.287297 h 0.63458 c 0.61645,0 0.90655,0.181309 0.90655,0.616452 0,0.435142 -0.2901,0.670845 -0.90655,0.670845 z"
     inkscape:connector-curvature="0" /><path
     id="path1974"
     style="font-style:normal;font-variant:normal;font-weight:900;font-stretch:normal;font-family:'Source Sans Pro';-inkscape-font-specification:'Source Sans Pro Heavy';fill:#a6aeb8;fill-opacity:1;stroke-width:5.85367"
     d="m 181.83572,79.632192 c 0,1.015332 0.34449,1.704308 1.39608,1.704308 0.34449,0 0.59832,-0.05439 0.7615,-0.126916 l -0.18131,-1.14225 c -0.0725,0.01813 -0.10879,0.01813 -0.16318,0.01813 -0.10878,0 -0.25383,-0.09065 -0.25383,-0.39888 v -4.768437 h -1.55926 z"
     inkscape:connector-curvature="0" /><path
     id="path1976"
     style="font-style:normal;font-variant:normal;font-weight:900;font-stretch:normal;font-family:'Source Sans Pro';-inkscape-font-specification:'Source Sans Pro Heavy';fill:#a6aeb8;fill-opacity:1;stroke-width:5.85367"
     d="m 184.39969,79.940418 c 0,0.743368 0.50766,1.396082 1.35982,1.396082 0.48953,0 0.88841,-0.217571 1.25103,-0.543928 h 0.0363 l 0.10879,0.435143 h 1.26917 v -2.520201 c 0,-1.486737 -0.70711,-2.12132 -1.88562,-2.12132 -0.70711,0 -1.35982,0.217571 -1.9944,0.598321 l 0.54392,1.015333 c 0.47141,-0.253834 0.8159,-0.38075 1.14225,-0.38075 0.39888,0 0.59832,0.145047 0.63459,0.471404 -1.74057,0.18131 -2.46581,0.707107 -2.46581,1.649916 z m 1.48673,-0.126917 c 0,-0.253833 0.23571,-0.489535 0.97908,-0.598321 v 0.616452 c -0.16318,0.18131 -0.30823,0.308226 -0.56206,0.308226 -0.27197,0 -0.41702,-0.117851 -0.41702,-0.326357 z"
     inkscape:connector-curvature="0" /><path
     id="path1978"
     style="font-style:normal;font-variant:normal;font-weight:900;font-stretch:normal;font-family:'Source Sans Pro';-inkscape-font-specification:'Source Sans Pro Heavy';fill:#a6aeb8;fill-opacity:1;stroke-width:5.85367"
     d="m 189.2313,78.961347 c 0,1.504868 0.9972,2.375153 2.2845,2.375153 0.4714,0 1.06972,-0.163178 1.523,-0.562059 l -0.61645,-0.979071 c -0.19944,0.145048 -0.43515,0.290095 -0.72524,0.290095 -0.48954,0 -0.87029,-0.435142 -0.87029,-1.124118 0,-0.688976 0.34449,-1.124118 0.92468,-1.124118 0.16318,0 0.32636,0.05439 0.5258,0.217571 l 0.7071,-0.96094 c -0.30822,-0.308226 -0.77963,-0.507666 -1.32355,-0.507666 -1.2873,0 -2.42955,0.870285 -2.42955,2.375153 z"
     inkscape:connector-curvature="0" /><path
     id="path1980"
     style="font-style:normal;font-variant:normal;font-weight:900;font-stretch:normal;font-family:'Source Sans Pro';-inkscape-font-specification:'Source Sans Pro Heavy';fill:#a6aeb8;fill-opacity:1;stroke-width:5.85367"
     d="m 193.75185,81.227715 h 1.523 v -1.087857 l 0.47141,-0.525797 0.90654,1.613654 h 1.68618 l -1.70431,-2.647118 1.61366,-1.885617 h -1.68618 l -1.25104,1.577391 h -0.0363 v -3.354223 h -1.523 z"
     inkscape:connector-curvature="0" /></g></svg>
