<?xml version="1.0" encoding="UTF-8" standalone="no"?>
<svg
   xmlns:dc="http://purl.org/dc/elements/1.1/"
   xmlns:cc="http://creativecommons.org/ns#"
   xmlns:rdf="http://www.w3.org/1999/02/22-rdf-syntax-ns#"
   xmlns:svg="http://www.w3.org/2000/svg"
   xmlns="http://www.w3.org/2000/svg"
   xmlns:sodipodi="http://sodipodi.sourceforge.net/DTD/sodipodi-0.dtd"
   xmlns:inkscape="http://www.inkscape.org/namespaces/inkscape"
   inkscape:version="1.0rc1 (09960d6f05, 2020-04-09)"
   sodipodi:docname="font_inconsolata.svg"
   xml:space="preserve"
   viewBox="0 0 231.95675 53.151367"
   version="1.1"
   enable-background="new 0 0 198.44 105.83"
   height="380.82751"
   width="895.53925"
   class="animated inactive"
   id="lecture05Logo"><metadata
   id="metadata12"><rdf:RDF><cc:Work
       rdf:about=""><dc:format>image/svg+xml</dc:format><dc:type
         rdf:resource="http://purl.org/dc/dcmitype/StillImage" /><dc:title /></cc:Work></rdf:RDF></metadata><defs
   id="defs10" /><sodipodi:namedview
   fit-margin-bottom="0"
   fit-margin-right="0"
   fit-margin-left="0"
   fit-margin-top="0"
   inkscape:current-layer="lecture05Logo"
   inkscape:window-maximized="1"
   inkscape:window-y="-8"
   inkscape:window-x="-8"
   inkscape:cy="178.12887"
   inkscape:cx="332.22162"
   inkscape:zoom="1.1895161"
   showgrid="false"
   id="namedview8"
   inkscape:window-height="2097"
   inkscape:window-width="3840"
   inkscape:pageshadow="2"
   inkscape:pageopacity="0"
   guidetolerance="10"
   gridtolerance="10"
   objecttolerance="10"
   borderopacity="1"
   bordercolor="#666666"
   pagecolor="#6c6c6c"
   inkscape:document-rotation="0" />
  <filter
   height="200"
   width="200"
   y="-2"
   x="-2"
   id="blur-filter">
    <feGaussianBlur
   id="feGaussianBlur2"
   stdDeviation="2"
   in="SourceGraphic" />
  </filter><rect
   y="-22.677135"
   x="0.066914499"
   height="98.505638"
   width="231.8185"
   id="rect8493"
   style="fill:#03060c;fill-opacity:1;stroke:#000000;stroke-width:0.133829;stroke-linecap:square;stroke-miterlimit:40;stroke-dasharray:none;stroke-dashoffset:1.2;stroke-opacity:1" /><g
   style="font-weight:bold;font-size:12.3903px;line-height:1.25;font-family:'Segoe UI';-inkscape-font-specification:'Segoe UI Bold';fill:#d2d6dc;fill-opacity:1;stroke-width:5.85367;stroke-linecap:square;stroke-miterlimit:40;stroke-dashoffset:1.2"
   id="text1598"
   aria-label="Inconsolata"
   transform="translate(2.2351742e-8,2.4025502)"><path
     id="path899"
     style="font-style:normal;font-variant:normal;font-weight:normal;font-stretch:normal;font-family:Inconsolata;-inkscape-font-specification:Inconsolata;fill:#d2d6dc;fill-opacity:1;stroke-width:5.85367"
     d="m 16.270014,-6.7856018 v 0.7310277 h 1.424884 v 6.28188202 h -1.511616 v 0.71863739 h 3.989676 V 0.23969822 H 18.562219 V -6.0545741 h 1.524007 v -0.7310277 z"
     inkscape:connector-curvature="0" /><path
     id="path901"
     style="font-style:normal;font-variant:normal;font-weight:normal;font-stretch:normal;font-family:Inconsolata;-inkscape-font-specification:Inconsolata;fill:#d2d6dc;fill-opacity:1;stroke-width:5.85367"
     d="M 22.217358,0.93355501 H 23.12185 V -2.3250938 c 0,-0.371709 0.04956,-0.6566859 0.284977,-0.9664434 0.210635,-0.2849769 0.755808,-0.7929792 1.350542,-0.7929792 0.284977,0 0.569954,0.123903 0.768199,0.3593187 0.309757,0.371709 0.309757,0.8549307 0.309757,1.2514203 v 3.40733241 h 0.879712 V -2.498558 c 0,-0.4336605 0,-0.9044919 -0.198245,-1.362933 -0.284977,-0.6319053 -0.867321,-0.991224 -1.511617,-0.991224 -0.768198,0 -1.462055,0.495612 -1.883325,1.1275173 v -0.991224 h -0.904492 z"
     inkscape:connector-curvature="0" /><path
     id="path903"
     style="font-style:normal;font-variant:normal;font-weight:normal;font-stretch:normal;font-family:Inconsolata;-inkscape-font-specification:Inconsolata;fill:#d2d6dc;fill-opacity:1;stroke-width:5.85367"
     d="m 33.219944,-3.7871492 c -0.446051,-0.6566859 -1.201859,-1.0531755 -2.118741,-1.0531755 -1.6603,0 -2.837379,1.2514203 -2.837379,2.9488914 0,1.70986133 1.177079,2.9736719 2.787818,2.9736719 0.780588,0 1.548787,-0.32214779 2.08157,-0.90449188 L 32.62521,-0.41698767 c -0.3841,0.43366049 -0.941663,0.68146649 -1.499227,0.68146649 -1.102736,0 -1.945277,-0.91688219 -1.945277,-2.24264422 0,-1.2885912 0.83015,-2.0939607 1.870936,-2.0939607 0.966443,0 1.424884,0.6690762 1.462055,0.743418 0.04956,0.086732 -0.02478,0.2106351 0.07434,0.2849769 z"
     inkscape:connector-curvature="0" /><path
     id="path905"
     style="font-style:normal;font-variant:normal;font-weight:normal;font-stretch:normal;font-family:Inconsolata;-inkscape-font-specification:Inconsolata;fill:#d2d6dc;fill-opacity:1;stroke-width:5.85367"
     d="m 39.464655,-1.8666527 c 0,-1.9576674 -1.23903,-2.973672 -2.527622,-2.973672 -1.437274,0 -2.676304,1.23903 -2.676304,2.9984526 0,1.72225162 1.226639,2.936501 2.651524,2.936501 1.338152,0 2.552402,-1.07795608 2.552402,-2.9612816 z m -2.589573,-2.2178637 c 0.81776,0 1.685081,0.7062471 1.685081,2.2550346 0,1.42488443 -0.81776,2.14352182 -1.63552,2.14352182 -0.904492,0 -1.722252,-0.84254039 -1.722252,-2.24264422 0,-1.3877136 0.80537,-2.1559122 1.672691,-2.1559122 z"
     inkscape:connector-curvature="0" /><path
     id="path907"
     style="font-style:normal;font-variant:normal;font-weight:normal;font-stretch:normal;font-family:Inconsolata;-inkscape-font-specification:Inconsolata;fill:#d2d6dc;fill-opacity:1;stroke-width:5.85367"
     d="m 40.802807,0.93355501 h 0.904492 V -2.3250938 c 0,-0.371709 0.04956,-0.6566859 0.284977,-0.9664434 0.210635,-0.2849769 0.755809,-0.7929792 1.350543,-0.7929792 0.284977,0 0.569954,0.123903 0.768198,0.3593187 0.309758,0.371709 0.309758,0.8549307 0.309758,1.2514203 v 3.40733241 h 0.879711 V -2.498558 c 0,-0.4336605 0,-0.9044919 -0.198245,-1.362933 -0.284976,-0.6319053 -0.867321,-0.991224 -1.511616,-0.991224 -0.768199,0 -1.462055,0.495612 -1.883326,1.1275173 v -0.991224 h -0.904492 z"
     inkscape:connector-curvature="0" /><path
     id="path909"
     style="font-style:normal;font-variant:normal;font-weight:normal;font-stretch:normal;font-family:Inconsolata;-inkscape-font-specification:Inconsolata;fill:#d2d6dc;fill-opacity:1;stroke-width:5.85367"
     d="m 51.508027,-3.9730037 c -0.520393,-0.5699538 -1.276201,-0.8797113 -2.118741,-0.8797113 -1.313372,0 -2.168303,0.7310277 -2.168303,1.5735681 0,0.991224 1.065566,1.3505427 1.375324,1.4620554 0.483221,0.1734641 1.102736,0.3221477 1.524006,0.5203925 0.470832,0.2230254 0.557564,0.52039263 0.557564,0.71863743 0,0.53278289 -0.644296,0.89210159 -1.449665,0.89210159 -0.966444,0 -1.585959,-0.58234409 -1.771813,-0.78058889 -0.03717,-0.0495612 -0.03717,-0.0867321 -0.03717,-0.1362933 0,-0.0123903 0.01239,-0.0867321 -0.04956,-0.1115127 l -0.520393,0.87971129 c 0.669076,0.61951499 1.536397,0.90449188 2.391328,0.90449188 1.548788,0 2.354157,-0.91688218 2.354157,-1.77181287 0,-0.38409933 -0.161074,-0.90449193 -0.83015,-1.27620083 -0.631905,-0.3593187 -1.548788,-0.4832217 -2.08157,-0.743418 -0.458441,-0.2230254 -0.557564,-0.495612 -0.557564,-0.6938568 0,-0.4460508 0.557564,-0.7681986 1.189469,-0.7681986 0.81776,0 1.362933,0.495612 1.573568,0.7805889 0.03717,0.037171 0.02478,0.074342 0.02478,0.1115127 0,0.074342 0.04956,0.099122 0.07434,0.099122 z"
     inkscape:connector-curvature="0" /><path
     id="path911"
     style="font-style:normal;font-variant:normal;font-weight:normal;font-stretch:normal;font-family:Inconsolata;-inkscape-font-specification:Inconsolata;fill:#d2d6dc;fill-opacity:1;stroke-width:5.85367"
     d="m 58.050104,-1.8666527 c 0,-1.9576674 -1.23903,-2.973672 -2.527621,-2.973672 -1.437275,0 -2.676305,1.23903 -2.676305,2.9984526 0,1.72225162 1.22664,2.936501 2.651524,2.936501 1.338152,0 2.552402,-1.07795608 2.552402,-2.9612816 z m -2.589573,-2.2178637 c 0.81776,0 1.685081,0.7062471 1.685081,2.2550346 0,1.42488443 -0.81776,2.14352182 -1.63552,2.14352182 -0.904492,0 -1.722251,-0.84254039 -1.722251,-2.24264422 0,-1.3877136 0.805369,-2.1559122 1.67269,-2.1559122 z"
     inkscape:connector-curvature="0" /><path
     id="path913"
     style="font-style:normal;font-variant:normal;font-weight:normal;font-stretch:normal;font-family:Inconsolata;-inkscape-font-specification:Inconsolata;fill:#d2d6dc;fill-opacity:1;stroke-width:5.85367"
     d="m 59.586503,-7.2936041 v 0.7186374 h 1.610739 v 6.80227462 h -1.68508 v 0.70624709 h 4.249872 V 0.22730792 h -1.67269 V -7.2936041 Z"
     inkscape:connector-curvature="0" /><path
     id="path915"
     style="font-style:normal;font-variant:normal;font-weight:normal;font-stretch:normal;font-family:Inconsolata;-inkscape-font-specification:Inconsolata;fill:#d2d6dc;fill-opacity:1;stroke-width:5.85367"
     d="m 65.855994,-4.0597358 0.43366,0.5699538 c 0.470832,-0.4832217 1.102737,-0.6319053 1.63552,-0.6319053 0.669076,0 1.003614,0.2849769 1.164688,0.5451732 0.185854,0.3097575 0.173464,0.6814665 0.173464,0.9788337 v 0.1982448 h -0.173464 c -0.84254,0 -1.734642,0 -2.453279,0.2601963 -0.892102,0.3221478 -1.288592,0.9912239 -1.288592,1.61073893 0,0.83015009 0.718638,1.61073897 1.895716,1.61073897 0.693857,0 1.412494,-0.26019629 2.032009,-0.76819858 v 0.61951499 h 0.842541 V -2.5728998 c 0,-0.4584411 -0.01239,-0.8921016 -0.272587,-1.3381524 -0.371709,-0.6071247 -1.090346,-0.9292725 -1.970057,-0.9292725 -0.755809,0 -1.486836,0.2354157 -2.019619,0.7805889 z m 3.444503,2.3417667 v 0.3840992 c 0,0.2849769 0,0.65668593 -0.384099,1.06556583 -0.210635,0.21063509 -0.743418,0.66907619 -1.486836,0.66907619 -0.755809,0 -1.189469,-0.4832217 -1.189469,-0.97883369 0,-0.42127019 0.284977,-0.87971133 0.991224,-1.05317553 0.520393,-0.1239029 1.276201,-0.086732 1.870935,-0.086732 z"
     inkscape:connector-curvature="0" /><path
     id="path917"
     style="font-style:normal;font-variant:normal;font-weight:normal;font-stretch:normal;font-family:Inconsolata;-inkscape-font-specification:Inconsolata;fill:#d2d6dc;fill-opacity:1;stroke-width:5.85367"
     d="m 73.265391,-6.2404286 -0.111512,1.5240069 h -1.350543 l -0.01239,0.7310277 h 1.325762 c -0.07434,0.9664434 -0.111513,1.9328868 -0.111513,2.8869398 0,0.50800233 0,1.07795612 0.334538,1.54878751 0.272587,0.371709 0.706247,0.59473439 1.288591,0.59473439 0.669077,0 1.325763,-0.28497689 1.808984,-0.63190528 l -0.272586,-0.70624709 c -0.483222,0.35931869 -0.929273,0.52039259 -1.276201,0.52039259 -0.42127,0 -0.854931,-0.2354157 -0.954053,-0.91688219 0,-0.0495612 -0.03717,-0.26019629 -0.03717,-1.09034633 0,-0.7310277 0.03717,-1.4744457 0.111512,-2.2054734 h 1.858545 V -4.728812 H 74.0212 c 0,0 0.08673,-1.0160046 0.148683,-1.3381524 0.01239,-0.123903 0.111513,-0.1982448 0.06195,-0.3345381 z"
     inkscape:connector-curvature="0" /><path
     id="path919"
     style="font-style:normal;font-variant:normal;font-weight:normal;font-stretch:normal;font-family:Inconsolata;-inkscape-font-specification:Inconsolata;fill:#d2d6dc;fill-opacity:1;stroke-width:5.85367"
     d="m 78.246294,-4.0597358 0.433661,0.5699538 c 0.470831,-0.4832217 1.102737,-0.6319053 1.635519,-0.6319053 0.669077,0 1.003615,0.2849769 1.164689,0.5451732 0.185854,0.3097575 0.173464,0.6814665 0.173464,0.9788337 v 0.1982448 h -0.173464 c -0.842541,0 -1.734642,0 -2.45328,0.2601963 -0.892101,0.3221478 -1.288591,0.9912239 -1.288591,1.61073893 0,0.83015009 0.718637,1.61073897 1.895716,1.61073897 0.693857,0 1.412494,-0.26019629 2.032009,-0.76819858 v 0.61951499 h 0.842541 V -2.5728998 c 0,-0.4584411 -0.01239,-0.8921016 -0.272587,-1.3381524 -0.371709,-0.6071247 -1.090346,-0.9292725 -1.970058,-0.9292725 -0.755808,0 -1.486836,0.2354157 -2.019619,0.7805889 z m 3.444504,2.3417667 v 0.3840992 c 0,0.2849769 0,0.65668593 -0.3841,1.06556583 -0.210635,0.21063509 -0.743418,0.66907619 -1.486836,0.66907619 -0.755808,0 -1.189468,-0.4832217 -1.189468,-0.97883369 0,-0.42127019 0.284977,-0.87971133 0.991224,-1.05317553 0.520392,-0.1239029 1.276201,-0.086732 1.870935,-0.086732 z"
     inkscape:connector-curvature="0" /></g><g
   style="font-weight:bold;font-size:9.06547px;line-height:1.25;font-family:'Segoe UI';-inkscape-font-specification:'Segoe UI Bold';fill:#7b8694;fill-opacity:1;stroke-width:5.85367;stroke-linecap:square;stroke-miterlimit:40;stroke-dashoffset:1.2"
   id="text1602"
   aria-label="Aa"
   transform="translate(2.2351742e-8,2.4025502)"><path
     id="path922"
     style="font-style:normal;font-variant:normal;font-weight:normal;font-stretch:normal;font-family:Inconsolata;-inkscape-font-specification:Inconsolata;stroke-width:5.85367"
     d="m 15.306584,16.483429 h 0.625518 l 0.552994,-1.658982 h 1.785898 l 0.625517,1.649916 h 0.66178 l -2.184779,-5.747509 h -0.07252 z m 2.828428,-2.148517 h -1.532065 l 0.734303,-2.148517 z"
     inkscape:connector-curvature="0" /><path
     id="path924"
     style="font-style:normal;font-variant:normal;font-weight:normal;font-stretch:normal;font-family:Inconsolata;-inkscape-font-specification:Inconsolata;stroke-width:5.85367"
     d="m 20.528296,12.820978 0.317292,0.417012 c 0.344488,-0.353554 0.806827,-0.462339 1.196642,-0.462339 0.489536,0 0.734304,0.208505 0.852155,0.39888 0.135982,0.226637 0.126916,0.498601 0.126916,0.716173 v 0.145047 h -0.126916 c -0.616452,0 -1.269167,0 -1.794964,0.190375 -0.652714,0.235702 -0.942809,0.725238 -0.942809,1.178512 0,0.607386 0.525797,1.178511 1.387017,1.178511 0.507667,0 1.033464,-0.190375 1.486738,-0.562059 v 0.453273 h 0.616452 v -2.565528 c 0,-0.335423 -0.0091,-0.652714 -0.199441,-0.979071 -0.271964,-0.444209 -0.797761,-0.679911 -1.44141,-0.679911 -0.552993,0 -1.087856,0.172244 -1.477672,0.571125 z m 2.520202,1.713374 v 0.28103 c 0,0.208506 0,0.48047 -0.28103,0.77963 -0.154113,0.154114 -0.543928,0.489536 -1.087857,0.489536 -0.552993,0 -0.870285,-0.353553 -0.870285,-0.716172 0,-0.308226 0.208506,-0.643649 0.725238,-0.770566 0.38075,-0.09065 0.933743,-0.06346 1.368886,-0.06346 z"
     inkscape:connector-curvature="0" /></g><g
   style="font-weight:bold;font-size:9.06547px;line-height:1.25;font-family:'Segoe UI';-inkscape-font-specification:'Segoe UI Bold';fill:#7b8694;fill-opacity:1;stroke-width:5.85367;stroke-linecap:square;stroke-miterlimit:40;stroke-dashoffset:1.2"
   id="text1618"
   aria-label="Bb"
   transform="translate(2.2351742e-8,2.4025502)"><path
     id="path927"
     style="font-style:normal;font-variant:normal;font-weight:normal;font-stretch:normal;font-family:Inconsolata;-inkscape-font-specification:Inconsolata;stroke-width:5.85367"
     d="m 36.335892,10.826576 v 5.647787 h 1.595522 c 0.38075,0 0.770565,0 1.160381,-0.163178 0.607386,-0.262899 0.942808,-0.815892 0.942808,-1.396082 0,-0.66178 -0.426077,-1.251035 -1.051594,-1.459541 0.498601,-0.208506 0.834023,-0.707107 0.834023,-1.241969 0,-0.507667 -0.290095,-0.997202 -0.824958,-1.223839 -0.353553,-0.154113 -0.707106,-0.163178 -1.051594,-0.163178 z m 0.625517,0.543928 h 0.888416 c 0.244768,0 0.498601,0 0.752434,0.09972 0.371684,0.154113 0.571125,0.471404 0.571125,0.797761 0,0.326357 -0.190375,0.634583 -0.543928,0.788696 -0.262899,0.108786 -0.534863,0.108786 -0.788696,0.108786 h -0.879351 z m 0,2.329826 h 0.924678 c 0.28103,0 0.562059,0.0091 0.843089,0.145047 0.417011,0.190375 0.643648,0.598321 0.643648,1.006267 0,0.407946 -0.217571,0.779631 -0.607386,0.96094 -0.244768,0.108786 -0.48047,0.108786 -0.725238,0.108786 h -1.078791 z"
     inkscape:connector-curvature="0" /><path
     id="path929"
     style="font-style:normal;font-variant:normal;font-weight:normal;font-stretch:normal;font-family:Inconsolata;-inkscape-font-specification:Inconsolata;stroke-width:5.85367"
     d="m 40.968347,10.445826 v 6.028537 h 0.426077 l 0.226637,-0.543928 c 0.271964,0.407946 0.725237,0.652714 1.223838,0.652714 0.852154,0 1.731505,-0.725238 1.731505,-2.230106 0,-1.441409 -0.852154,-2.112254 -1.668047,-2.112254 -0.525797,0 -1.015332,0.28103 -1.278231,0.734303 v -2.32076 c 0,-0.05439 0.0091,-0.07252 0.05439,-0.108786 0.01813,-0.0091 0.06346,-0.04533 0.05439,-0.09972 z m 1.713374,2.357022 c 0.389815,0 1.214773,0.226637 1.214773,1.695243 0,1.2601 -0.815893,1.495802 -1.223839,1.495802 -0.281029,0 -0.906547,-0.108785 -1.015333,-0.906547 -0.0272,-0.208505 -0.0272,-0.453273 -0.0272,-0.815892 0,-0.371684 0.01813,-0.643648 0.108786,-0.870285 0.154113,-0.371684 0.534862,-0.598321 0.942809,-0.598321 z"
     inkscape:connector-curvature="0" /></g><g
   style="font-weight:bold;font-size:9.06547px;line-height:1.25;font-family:'Segoe UI';-inkscape-font-specification:'Segoe UI Bold';fill:#7b8694;fill-opacity:1;stroke-width:5.85367;stroke-linecap:square;stroke-miterlimit:40;stroke-dashoffset:1.2"
   id="text1622"
   aria-label="Cc"
   transform="translate(2.2351742e-8,2.4025502)"><path
     id="path932"
     style="font-style:normal;font-variant:normal;font-weight:normal;font-stretch:normal;font-family:Inconsolata;-inkscape-font-specification:Inconsolata;stroke-width:5.85367"
     d="m 59.132954,10.781248 c -0.879351,0 -2.148517,0.643649 -2.148517,2.910016 0,2.175713 1.214773,2.882819 2.148517,2.882819 0.670844,0 1.296362,-0.353553 1.649915,-0.933743 L 60.32053,15.34118 c -0.262898,0.426077 -0.716172,0.67991 -1.151314,0.67991 -0.834024,0 -1.568327,-0.86122 -1.568327,-2.393284 0,-1.495803 0.716172,-2.338891 1.513934,-2.338891 0.435142,0 0.852154,0.262898 1.078791,0.661779 0.01813,0.0272 0.03626,0.05439 0.03626,0.09065 0,0.0272 -0.0091,0.04533 -0.0091,0.07252 0,0.0091 0,0.05439 0.04533,0.08159 l 0.598321,-0.290095 c -0.29916,-0.679911 -0.97907,-1.124119 -1.731504,-1.124119 z"
     inkscape:connector-curvature="0" /><path
     id="path934"
     style="font-style:normal;font-variant:normal;font-weight:normal;font-stretch:normal;font-family:Inconsolata;-inkscape-font-specification:Inconsolata;stroke-width:5.85367"
     d="m 65.288408,13.020419 c -0.326357,-0.48047 -0.879351,-0.770565 -1.550196,-0.770565 -1.214773,0 -2.075992,0.915613 -2.075992,2.157582 0,1.251035 0.861219,2.175713 2.03973,2.175713 0.571125,0 1.133184,-0.235702 1.522999,-0.661779 l -0.371684,-0.435143 c -0.281029,0.317292 -0.688976,0.498601 -1.096922,0.498601 -0.806827,0 -1.423279,-0.670845 -1.423279,-1.64085 0,-0.942809 0.607387,-1.532064 1.368886,-1.532064 0.707107,0 1.042529,0.489535 1.069726,0.543928 0.03626,0.06346 -0.01813,0.154113 0.05439,0.208506 z"
     inkscape:connector-curvature="0" /></g><g
   style="font-weight:bold;font-size:9.06547px;line-height:1.25;font-family:'Segoe UI';-inkscape-font-specification:'Segoe UI Bold';fill:#7b8694;fill-opacity:1;stroke-width:5.85367;stroke-linecap:square;stroke-miterlimit:40;stroke-dashoffset:1.2"
   id="text1626"
   aria-label="Dd"
   transform="translate(2.2351742e-8,2.4025502)"><path
     id="path937"
     style="font-style:normal;font-variant:normal;font-weight:normal;font-stretch:normal;font-family:Inconsolata;-inkscape-font-specification:Inconsolata;stroke-width:5.85367"
     d="m 77.823358,10.826576 v 5.656853 h 1.214773 c 0.444208,0 0.824957,-0.01813 1.223838,-0.226637 0.806827,-0.417012 1.251035,-1.377951 1.251035,-2.610855 0,-1.087857 -0.326357,-2.039731 -1.051595,-2.511135 -0.407946,-0.271964 -0.815892,-0.308226 -1.314493,-0.308226 z m 0.598321,0.543928 h 0.688975 c 0.353554,0 0.707107,0.01813 1.06066,0.308226 0.525798,0.435142 0.698042,1.241969 0.698042,2.048796 0,1.078791 -0.353554,1.695243 -0.806827,2.003469 -0.353554,0.235702 -0.707107,0.253833 -1.06066,0.253833 h -0.58019 z"
     inkscape:connector-curvature="0" /><path
     id="path939"
     style="font-style:normal;font-variant:normal;font-weight:normal;font-stretch:normal;font-family:Inconsolata;-inkscape-font-specification:Inconsolata;stroke-width:5.85367"
     d="m 85.238912,12.93883 c -0.19944,-0.426077 -0.643648,-0.707107 -1.214773,-0.707107 -0.788696,0 -1.749636,0.56206 -1.749636,2.139451 0,1.532065 0.852155,2.202909 1.649916,2.202909 0.525797,0 1.015333,-0.29916 1.278231,-0.761499 v 0.362619 c 0,0.09972 0.0091,0.19944 0.03626,0.29916 h 0.652714 c -0.03626,-0.117851 -0.03626,-0.253833 -0.03626,-0.380749 l -0.0091,-5.384889 c 0,-0.05439 0,-0.07252 0.03626,-0.126917 0.01813,-0.0272 0.05439,-0.07252 0.04533,-0.135982 h -0.688976 z m -1.187577,-0.172244 c 0.362619,0 0.897482,0.190375 1.06066,0.806827 0.05439,0.190375 0.07252,0.417012 0.07252,0.879351 0,0.317291 -0.01813,0.543928 -0.09065,0.761499 -0.154113,0.489535 -0.589256,0.77963 -1.015333,0.77963 -0.471405,0 -1.169446,-0.362618 -1.169446,-1.722439 0,-1.187576 0.66178,-1.504868 1.142249,-1.504868 z"
     inkscape:connector-curvature="0" /></g><g
   style="font-weight:bold;font-size:9.06547px;line-height:1.25;font-family:'Segoe UI';-inkscape-font-specification:'Segoe UI Bold';fill:#7b8694;fill-opacity:1;stroke-width:5.85367;stroke-linecap:square;stroke-miterlimit:40;stroke-dashoffset:1.2"
   id="text1630"
   aria-label="Ee"
   transform="translate(2.2351742e-8,2.4025502)"><path
     id="path942"
     style="font-style:normal;font-variant:normal;font-weight:normal;font-stretch:normal;font-family:Inconsolata;-inkscape-font-specification:Inconsolata;stroke-width:5.85367"
     d="m 98.589754,10.826576 v 5.647787 h 3.444876 v -0.562059 h -2.837489 v -2.094123 h 2.357019 v -0.58019 h -2.357019 v -1.849356 h 2.855619 v -0.562059 z"
     inkscape:connector-curvature="0" /><path
     id="path944"
     style="font-style:normal;font-variant:normal;font-weight:normal;font-stretch:normal;font-family:Inconsolata;-inkscape-font-specification:Inconsolata;stroke-width:5.85367"
     d="m 104.93558,12.240789 c -0.98813,0 -1.90375,0.707107 -1.90375,2.211975 0,1.387016 0.86122,2.121319 1.98534,2.121319 0.59832,0 1.13319,-0.217571 1.48674,-0.643648 l -0.36262,-0.353553 c -0.2629,0.308226 -0.66178,0.471404 -1.06972,0.471404 -0.553,0 -1.35983,-0.308226 -1.40515,-1.550195 h 2.93721 c 0.0272,-0.28103 0.0181,-0.552994 -0.0272,-0.788696 -0.19037,-1.115053 -0.96094,-1.468606 -1.64085,-1.468606 z m -1.25103,1.758701 c 0.13598,-0.979071 0.7615,-1.2601 1.20571,-1.2601 0.67084,0 1.15131,0.589255 1.06972,1.2601 z"
     inkscape:connector-curvature="0" /></g><g
   style="font-weight:bold;font-size:9.06547px;line-height:1.25;font-family:'Segoe UI';-inkscape-font-specification:'Segoe UI Bold';fill:#7b8694;fill-opacity:1;stroke-width:5.85367;stroke-linecap:square;stroke-miterlimit:40;stroke-dashoffset:1.2"
   id="text1634"
   aria-label="Ff"
   transform="translate(2.2351742e-8,2.4025502)"><path
     id="path947"
     style="font-style:normal;font-variant:normal;font-weight:normal;font-stretch:normal;font-family:Inconsolata;-inkscape-font-specification:Inconsolata;stroke-width:5.85367"
     d="m 119.48304,10.826576 v 5.647787 h 0.64365 V 13.70033 h 2.11226 v -0.543929 h -2.11226 v -1.776832 h 2.61086 v -0.552993 z"
     inkscape:connector-curvature="0" /><path
     id="path949"
     style="font-style:normal;font-variant:normal;font-weight:normal;font-stretch:normal;font-family:Inconsolata;-inkscape-font-specification:Inconsolata;stroke-width:5.85367"
     d="m 126.42719,10.400499 c -0.58019,0 -1.12411,0.244767 -1.41421,0.716172 -0.21757,0.344488 -0.22664,0.688975 -0.22664,1.06066 v 0.407946 h -0.90654 v 0.516732 h 0.90654 v 3.372354 h 0.62552 v -3.372354 h 1.35076 v -0.516732 h -1.35076 V 12.25892 c 0,-0.299161 -0.009,-0.616452 0.14505,-0.888416 0.17224,-0.308226 0.4986,-0.462339 0.83402,-0.462339 0.39888,0 0.73431,0.208506 0.90655,0.471404 0.0272,0.04533 0.0272,0.07252 0.0272,0.108786 0,0.06346 0.0453,0.08159 0.0725,0.08159 l 0.29916,-0.607386 C 127.39718,10.609005 126.94391,10.4005 126.42717,10.4005 Z"
     inkscape:connector-curvature="0" /></g><g
   style="font-weight:bold;font-size:9.06547px;line-height:1.25;font-family:'Segoe UI';-inkscape-font-specification:'Segoe UI Bold';fill:#7b8694;fill-opacity:1;stroke-width:5.85367;stroke-linecap:square;stroke-miterlimit:40;stroke-dashoffset:1.2"
   id="text1638"
   aria-label="Gg"
   transform="translate(2.2351742e-8,2.4025502)"><path
     id="path952"
     style="font-style:normal;font-variant:normal;font-weight:normal;font-stretch:normal;font-family:Inconsolata;-inkscape-font-specification:Inconsolata;stroke-width:5.85367"
     d="m 142.01721,10.772183 c -0.75244,0 -2.18478,0.471404 -2.18478,2.946278 0,2.13945 1.19664,2.846557 2.17571,2.846557 0.5258,0 1.13319,-0.190375 1.65898,-0.589256 v -2.202909 h -1.60458 v 0.543929 h 1.02439 v 1.350755 c -0.31729,0.226636 -0.67991,0.344487 -1.01533,0.344487 -0.37168,0 -0.77056,-0.145047 -1.07879,-0.4986 -0.4714,-0.534863 -0.53486,-1.332625 -0.53486,-1.92188 0,-0.525797 0.0635,-1.033464 0.28103,-1.450475 0.29009,-0.552994 0.79776,-0.806827 1.26916,-0.806827 0.50767,0 0.90655,0.28103 1.07879,0.661779 0.0272,0.06346 0.0544,0.135982 0.12692,0.18131 l 0.44421,-0.453274 c -0.32636,-0.589255 -0.94281,-0.951874 -1.64085,-0.951874 z"
     inkscape:connector-curvature="0" /><path
     id="path954"
     style="font-style:normal;font-variant:normal;font-weight:normal;font-stretch:normal;font-family:Inconsolata;-inkscape-font-specification:Inconsolata;stroke-width:5.85367"
     d="m 145.17199,13.627806 c 0,-0.498601 0.41701,-0.906547 0.91561,-0.906547 0.50767,0 0.91562,0.407946 0.91562,0.906547 0,0.498601 -0.40795,0.906547 -0.91562,0.906547 -0.50766,0 -0.91561,-0.407946 -0.91561,-0.906547 z m 0.95188,-1.423279 c -0.82496,0 -1.54113,0.652714 -1.54113,1.459541 0,0.453273 0.22663,0.87935 0.60738,1.124118 -0.29916,0.253833 -0.4714,0.534863 -0.4714,0.797761 0,0.172244 0.0725,0.417012 0.33542,0.552994 -0.44421,0.28103 -0.67084,0.589255 -0.67084,0.915612 0,0.453274 0.41701,0.988137 1.86748,0.988137 1.40515,0 1.91282,-0.716173 1.91282,-1.269166 0,-0.362619 -0.20851,-0.725238 -0.64365,-0.897482 -0.43514,-0.181309 -0.93375,-0.117851 -1.40515,-0.117851 -0.30823,0 -0.50767,-0.0272 -0.58926,-0.05439 -0.16317,-0.04533 -0.25383,-0.145047 -0.25383,-0.271964 0,-0.217571 0.25383,-0.426077 0.29916,-0.462339 0.16318,0.06346 0.34449,0.09065 0.5258,0.09065 0.81589,0 1.48674,-0.652714 1.48674,-1.414213 0,-0.253833 -0.0725,-0.498601 -0.20851,-0.707107 0.21757,-0.126916 0.47141,-0.19944 0.72524,-0.19944 0.0816,0 0.15411,0.0091 0.2357,0.0272 l -0.0725,-0.534863 c -0.41701,-0.03626 -0.83403,0.09972 -1.15132,0.362619 -0.2629,-0.253833 -0.60738,-0.389815 -0.98813,-0.389815 z m -0.62552,4.052265 c 0.15411,0.01813 0.37168,0.03626 0.68897,0.05439 0.30823,0.0091 0.64365,-0.01813 0.87935,0.01813 0.38075,0.06346 0.49861,0.29916 0.49861,0.48047 0,0.181309 -0.10879,0.39888 -0.38982,0.552993 -0.30823,0.163179 -0.65271,0.18131 -0.93374,0.18131 -0.19038,0 -0.54393,-0.0091 -0.85216,-0.135982 -0.33542,-0.135982 -0.40794,-0.362619 -0.40794,-0.507667 0,-0.29916 0.28103,-0.516731 0.51673,-0.643648 z"
     inkscape:connector-curvature="0" /></g><g
   style="font-weight:bold;font-size:9.06547px;line-height:1.25;font-family:'Segoe UI';-inkscape-font-specification:'Segoe UI Bold';fill:#7b8694;fill-opacity:1;stroke-width:5.85367;stroke-linecap:square;stroke-miterlimit:40;stroke-dashoffset:1.2"
   id="text1646"
   aria-label="Hh"
   transform="translate(2.2351742e-8,2.4025502)"><path
     id="path957"
     style="font-style:normal;font-variant:normal;font-weight:normal;font-stretch:normal;font-family:Inconsolata;-inkscape-font-specification:Inconsolata;stroke-width:5.85367"
     d="m 15.669203,23.777254 v 5.647787 h 0.652714 v -2.683379 h 2.211974 v 2.692445 h 0.634583 v -5.448348 c 0,-0.09972 0.07252,-0.09972 0.07252,-0.163178 0,-0.01813 -0.0091,-0.0272 -0.0091,-0.04533 h -0.688975 v 2.42048 h -2.22104 V 24.00389 c 0,-0.09972 0.06346,-0.108785 0.06346,-0.181309 0,-0.01813 -0.0091,-0.0272 -0.0091,-0.04533 z"
     inkscape:connector-curvature="0" /><path
     id="path959"
     style="font-style:normal;font-variant:normal;font-weight:normal;font-stretch:normal;font-family:Inconsolata;-inkscape-font-specification:Inconsolata;stroke-width:5.85367"
     d="m 20.33792,29.425041 h 0.670845 v -2.384218 c 0,-0.271964 0.0272,-0.48047 0.19944,-0.707107 0.163178,-0.208506 0.562059,-0.58019 0.997202,-0.58019 0.208505,0 0.417011,0.09065 0.562059,0.262899 0.226636,0.271964 0.226636,0.625517 0.226636,0.915612 v 2.493004 h 0.643649 v -2.511135 c 0,-0.317291 -0.0091,-0.661779 -0.154113,-0.997202 -0.208506,-0.462339 -0.625518,-0.725237 -1.096922,-0.725237 -0.562059,0 -1.078791,0.362619 -1.377951,0.824958 v -2.40235 c 0,-0.0272 0,-0.05439 0.0272,-0.08159 0.0272,-0.0272 0.06346,-0.05439 0.06346,-0.09972 0,-0.0091 0,-0.01813 -0.0091,-0.0272 H 20.33792 Z"
     inkscape:connector-curvature="0" /></g><g
   style="font-weight:bold;font-size:9.06547px;line-height:1.25;font-family:'Segoe UI';-inkscape-font-specification:'Segoe UI Bold';fill:#7b8694;fill-opacity:1;stroke-width:5.85367;stroke-linecap:square;stroke-miterlimit:40;stroke-dashoffset:1.2"
   id="text1650"
   aria-label="Ii"
   transform="translate(2.2351742e-8,2.4025502)"><path
     id="path962"
     style="font-style:normal;font-variant:normal;font-weight:normal;font-stretch:normal;font-family:Inconsolata;-inkscape-font-specification:Inconsolata;stroke-width:5.85367"
     d="m 36.698511,23.777254 v 0.534862 h 1.042529 v 4.596193 h -1.105988 v 0.525798 h 2.919082 v -0.516732 h -1.178512 v -4.605259 h 1.115053 v -0.534862 z"
     inkscape:connector-curvature="0" /><path
     id="path964"
     style="font-style:normal;font-variant:normal;font-weight:normal;font-stretch:normal;font-family:Inconsolata;-inkscape-font-specification:Inconsolata;stroke-width:5.85367"
     d="m 41.394424,25.282122 v 0.534862 h 0.997202 v 3.091325 h -1.051595 v 0.516732 h 2.683379 v -0.516732 h -0.970005 v -3.626187 z m 1.341689,-1.794963 c -0.262898,0 -0.471404,0.208505 -0.471404,0.462338 0,0.253834 0.208506,0.462339 0.471404,0.462339 0.262899,0 0.471405,-0.208505 0.471405,-0.462339 0,-0.253833 -0.208506,-0.462338 -0.471405,-0.462338 z"
     inkscape:connector-curvature="0" /></g><g
   style="font-weight:bold;font-size:9.06547px;line-height:1.25;font-family:'Segoe UI';-inkscape-font-specification:'Segoe UI Bold';fill:#7b8694;fill-opacity:1;stroke-width:5.85367;stroke-linecap:square;stroke-miterlimit:40;stroke-dashoffset:1.2"
   id="text1654"
   aria-label="Jj"
   transform="translate(2.2351742e-8,2.4025502)"><path
     id="path967"
     style="font-style:normal;font-variant:normal;font-weight:normal;font-stretch:normal;font-family:Inconsolata;-inkscape-font-specification:Inconsolata;stroke-width:5.85367"
     d="m 58.172014,23.777254 v 0.534862 h 1.087856 v 3.236373 c 0,0.344488 0.0091,0.752434 -0.19944,1.06066 -0.154113,0.226637 -0.398881,0.362619 -0.670845,0.362619 -0.471404,0 -0.824958,-0.389815 -0.852154,-0.417012 -0.03626,-0.05439 0,-0.117851 -0.05439,-0.163178 l -0.417011,0.516731 c 0.335422,0.398881 0.815892,0.625518 1.314493,0.625518 0.534862,0 1.024398,-0.262899 1.287296,-0.752434 0.217572,-0.407946 0.217572,-0.834023 0.217572,-1.24197 v -3.227307 h 0.870285 v -0.534862 z"
     inkscape:connector-curvature="0" /><path
     id="path969"
     style="font-style:normal;font-variant:normal;font-weight:normal;font-stretch:normal;font-family:Inconsolata;-inkscape-font-specification:Inconsolata;stroke-width:5.85367"
     d="m 62.287737,25.282122 v 0.543928 h 1.550195 v 3.435813 c 0,0.226636 -0.0091,0.444208 -0.108785,0.661779 -0.154113,0.335422 -0.48047,0.525797 -0.834023,0.525797 -0.498601,0 -0.770565,-0.362619 -0.806827,-0.417011 -0.03626,-0.06346 -0.01813,-0.117851 -0.08159,-0.163179 l -0.417012,0.562059 c 0.29916,0.371685 0.752434,0.58019 1.2601,0.58019 0.598321,0 1.169446,-0.281029 1.450475,-0.824957 0.18131,-0.353554 0.190375,-0.688976 0.190375,-1.042529 v -3.86189 z m 1.885618,-1.794963 c -0.262899,0 -0.471405,0.208505 -0.471405,0.462338 0,0.253834 0.208506,0.462339 0.471405,0.462339 0.253833,0 0.462339,-0.208505 0.462339,-0.462339 0,-0.253833 -0.208506,-0.462338 -0.462339,-0.462338 z"
     inkscape:connector-curvature="0" /></g><g
   style="font-weight:bold;font-size:9.06547px;line-height:1.25;font-family:'Segoe UI';-inkscape-font-specification:'Segoe UI Bold';fill:#7b8694;fill-opacity:1;stroke-width:5.85367;stroke-linecap:square;stroke-miterlimit:40;stroke-dashoffset:1.2"
   id="text1658"
   aria-label="Kk"
   transform="translate(2.2351742e-8,2.4025502)"><path
     id="path972"
     style="font-style:normal;font-variant:normal;font-weight:normal;font-stretch:normal;font-family:Inconsolata;-inkscape-font-specification:Inconsolata;stroke-width:5.85367"
     d="m 77.723638,23.777254 v 5.647787 h 0.670844 V 27.08615 l 0.444208,-0.48047 1.967207,2.864689 c 0,0 0.353554,-0.03626 0.806827,-0.03626 l -2.284498,-3.209177 2.130385,-2.447676 h -0.235702 c -0.154113,0 -0.308226,0 -0.462339,-0.04533 l -2.366088,2.656183 V 24.00389 c 0,-0.03626 0,-0.06346 0.03626,-0.09972 0.01813,-0.0272 0.06346,-0.07252 0.04533,-0.126916 z"
     inkscape:connector-curvature="0" /><path
     id="path974"
     style="font-style:normal;font-variant:normal;font-weight:normal;font-stretch:normal;font-family:Inconsolata;-inkscape-font-specification:Inconsolata;stroke-width:5.85367"
     d="m 82.473944,23.405569 v 6.028538 h 0.652714 V 27.86578 l 0.552993,-0.507666 1.686178,2.112255 c 0,0 0.353553,-0.03626 0.77963,-0.03626 0.0272,0 0.04533,0 0.06346,0 l -2.030665,-2.474874 1.749636,-1.64085 h -0.235702 c -0.163179,0 -0.326357,-0.0091 -0.489536,-0.05439 L 83.12666,27.19494 v -3.553664 c 0,-0.03626 0.0091,-0.06346 0.03626,-0.108786 0.0272,-0.0272 0.06346,-0.06346 0.05439,-0.126917 z"
     inkscape:connector-curvature="0" /></g><g
   style="font-weight:bold;font-size:9.06547px;line-height:1.25;font-family:'Segoe UI';-inkscape-font-specification:'Segoe UI Bold';fill:#7b8694;fill-opacity:1;stroke-width:5.85367;stroke-linecap:square;stroke-miterlimit:40;stroke-dashoffset:1.2"
   id="text1662"
   aria-label="Ll"
   transform="translate(2.2351742e-8,2.4025502)"><path
     id="path977"
     style="font-style:normal;font-variant:normal;font-weight:normal;font-stretch:normal;font-family:Inconsolata;-inkscape-font-specification:Inconsolata;stroke-width:5.85367"
     d="m 98.662278,23.777254 v 5.656853 H 102.0437 V 28.890178 H 99.314992 V 24.08548 c 0,-0.08159 0.0272,-0.108786 0.05439,-0.163179 0.0091,-0.0272 0.03626,-0.07252 0.0272,-0.145047 z"
     inkscape:connector-curvature="0" /><path
     id="path979"
     style="font-style:normal;font-variant:normal;font-weight:normal;font-stretch:normal;font-family:Inconsolata;-inkscape-font-specification:Inconsolata;stroke-width:5.85367"
     d="m 103.35819,23.405569 v 0.525798 h 1.17851 v 4.976942 h -1.2329 v 0.516732 h 3.10945 v -0.516732 h -1.22383 v -5.50274 z"
     inkscape:connector-curvature="0" /></g><g
   style="font-weight:bold;font-size:9.06547px;line-height:1.25;font-family:'Segoe UI';-inkscape-font-specification:'Segoe UI Bold';fill:#7b8694;fill-opacity:1;stroke-width:5.85367;stroke-linecap:square;stroke-miterlimit:40;stroke-dashoffset:1.2"
   id="text1666"
   aria-label="Mm"
   transform="translate(2.2351742e-8,2.4025502)"><path
     id="path982"
     style="font-style:normal;font-variant:normal;font-weight:normal;font-stretch:normal;font-family:Inconsolata;-inkscape-font-specification:Inconsolata;stroke-width:5.85367"
     d="m 119.14762,23.777254 v 5.656853 h 0.59832 v -4.233575 l 1.14225,2.239171 h 0.2357 l 1.22384,-2.275433 v 4.269837 h 0.59832 v -5.656853 h -0.4714 l -1.42328,2.764968 -1.40515,-2.764968 z"
     inkscape:connector-curvature="0" /><path
     id="path984"
     style="font-style:normal;font-variant:normal;font-weight:normal;font-stretch:normal;font-family:Inconsolata;-inkscape-font-specification:Inconsolata;stroke-width:5.85367"
     d="m 123.65316,29.425041 h 0.59832 v -2.755903 c 0,-0.19944 0.0181,-0.380749 0.13598,-0.598321 0.14505,-0.271964 0.32636,-0.380749 0.4986,-0.380749 0.14505,0 0.30823,0.09065 0.38075,0.317291 0.0544,0.172244 0.0453,0.371684 0.0453,0.543928 v 2.873754 h 0.60739 v -2.737772 c 0,-0.217571 0.0181,-0.389815 0.17224,-0.652713 0.0725,-0.108786 0.22664,-0.371685 0.48047,-0.371685 0.13598,0 0.2629,0.08159 0.32636,0.235702 0.0816,0.172244 0.0635,0.407947 0.0635,0.598321 v 2.937213 h 0.61645 v -2.946278 c 0,-0.344488 0.009,-0.688976 -0.17224,-0.970005 -0.15412,-0.235702 -0.41702,-0.326357 -0.64365,-0.326357 -0.39888,0 -0.77057,0.235702 -0.93375,0.598321 -0.0634,-0.344488 -0.35355,-0.598321 -0.72523,-0.598321 -0.34449,0 -0.66178,0.217571 -0.85216,0.507666 l 0.009,-0.407946 h -0.60739 z"
     inkscape:connector-curvature="0" /></g><g
   style="font-weight:bold;font-size:9.06547px;line-height:1.25;font-family:'Segoe UI';-inkscape-font-specification:'Segoe UI Bold';fill:#7b8694;fill-opacity:1;stroke-width:5.85367;stroke-linecap:square;stroke-miterlimit:40;stroke-dashoffset:1.2"
   id="text1670"
   aria-label="Nn"
   transform="translate(2.2351742e-8,2.4025502)"><path
     id="path987"
     style="font-style:normal;font-variant:normal;font-weight:normal;font-stretch:normal;font-family:Inconsolata;-inkscape-font-specification:Inconsolata;stroke-width:5.85367"
     d="m 139.95935,29.425041 h 0.60738 v -4.44208 l 2.48394,4.451146 h 0.50767 v -5.421151 c 0,-0.06346 0.009,-0.08159 0.0363,-0.126917 0.009,-0.01813 0.0272,-0.06346 0.0181,-0.108785 h -0.67084 v 4.188247 l -2.36609,-4.188247 h -0.61645 z"
     inkscape:connector-curvature="0" /><path
     id="path989"
     style="font-style:normal;font-variant:normal;font-weight:normal;font-stretch:normal;font-family:Inconsolata;-inkscape-font-specification:Inconsolata;stroke-width:5.85367"
     d="m 144.65526,29.425041 h 0.66178 v -2.384218 c 0,-0.271964 0.0363,-0.48047 0.2085,-0.707107 0.15412,-0.208506 0.553,-0.58019 0.98814,-0.58019 0.20851,0 0.41701,0.09065 0.56206,0.262899 0.22664,0.271964 0.22664,0.625517 0.22664,0.915612 v 2.493004 h 0.64365 v -2.511135 c 0,-0.317291 0,-0.661779 -0.14505,-0.997202 -0.20851,-0.462339 -0.63459,-0.725237 -1.10599,-0.725237 -0.56206,0 -1.06972,0.362619 -1.37795,0.824958 v -0.725238 h -0.66178 z"
     inkscape:connector-curvature="0" /></g><g
   style="font-weight:bold;font-size:9.06547px;line-height:1.25;font-family:'Segoe UI';-inkscape-font-specification:'Segoe UI Bold';fill:#7b8694;fill-opacity:1;stroke-width:5.85367;stroke-linecap:square;stroke-miterlimit:40;stroke-dashoffset:1.2"
   id="text1674"
   aria-label="Oo"
   transform="translate(2.2351742e-8,2.4025502)"><path
     id="path992"
     style="font-style:normal;font-variant:normal;font-weight:normal;font-stretch:normal;font-family:Inconsolata;-inkscape-font-specification:Inconsolata;stroke-width:5.85367"
     d="m 19.449504,39.565414 c 0,-0.525797 -0.03626,-1.223839 -0.344488,-1.831225 -0.371684,-0.725238 -1.015333,-1.06066 -1.631785,-1.06066 -0.843088,0 -2.030665,0.652714 -2.030665,2.873754 0,2.22104 1.169446,2.919081 2.039731,2.919081 0.607386,0 1.2601,-0.344488 1.631784,-1.096922 0.299161,-0.607386 0.335423,-1.305427 0.335423,-1.804028 z m -2.003469,-2.302629 c 0.398881,0 0.888416,0.235702 1.151315,0.897481 0.190374,0.471405 0.217571,1.015333 0.217571,1.486737 0,0.371684 -0.01813,0.951874 -0.253833,1.432344 -0.262899,0.552994 -0.698041,0.770565 -1.078791,0.770565 -0.634583,0 -1.414213,-0.589255 -1.414213,-2.384218 0,-1.686178 0.788695,-2.202909 1.377951,-2.202909 z"
     inkscape:connector-curvature="0" /><path
     id="path994"
     style="font-style:normal;font-variant:normal;font-weight:normal;font-stretch:normal;font-family:Inconsolata;-inkscape-font-specification:Inconsolata;stroke-width:5.85367"
     d="m 23.882518,40.326913 c 0,-1.432344 -0.906547,-2.175712 -1.849355,-2.175712 -1.051595,0 -1.958142,0.906547 -1.958142,2.193843 0,1.260101 0.897482,2.148517 1.940011,2.148517 0.97907,0 1.867486,-0.788696 1.867486,-2.166648 z m -1.894683,-1.622719 c 0.598321,0 1.232904,0.516732 1.232904,1.649916 0,1.042529 -0.598321,1.568326 -1.196642,1.568326 -0.661779,0 -1.2601,-0.616452 -1.2601,-1.64085 0,-1.015333 0.589255,-1.577392 1.223838,-1.577392 z"
     inkscape:connector-curvature="0" /></g><g
   style="font-weight:bold;font-size:9.06547px;line-height:1.25;font-family:'Segoe UI';-inkscape-font-specification:'Segoe UI Bold';fill:#7b8694;fill-opacity:1;stroke-width:5.85367;stroke-linecap:square;stroke-miterlimit:40;stroke-dashoffset:1.2"
   id="text1678"
   aria-label="Pp"
   transform="translate(2.2351742e-8,2.4025502)"><path
     id="path997"
     style="font-style:normal;font-variant:normal;font-weight:normal;font-stretch:normal;font-family:Inconsolata;-inkscape-font-specification:Inconsolata;stroke-width:5.85367"
     d="m 36.426546,36.727922 v 5.647788 h 0.66178 v -2.493005 h 1.105987 c 0.353553,0 0.688976,-0.0091 1.033464,-0.181309 0.525797,-0.262899 0.797761,-0.806827 0.797761,-1.377951 0,-0.571125 -0.271964,-1.124119 -0.806827,-1.396083 -0.353553,-0.190375 -0.707107,-0.19944 -1.069725,-0.19944 z m 0.66178,0.598321 h 1.06066 c 0.235702,0 0.462339,0.0091 0.698041,0.117851 0.344488,0.181309 0.534863,0.543928 0.534863,0.906547 0,0.362619 -0.18131,0.698041 -0.507667,0.86122 -0.217571,0.108785 -0.435142,0.117851 -0.652714,0.117851 H 37.07926 Z"
     inkscape:connector-curvature="0" /><path
     id="path999"
     style="font-style:normal;font-variant:normal;font-weight:normal;font-stretch:normal;font-family:Inconsolata;-inkscape-font-specification:Inconsolata;stroke-width:5.85367"
     d="m 40.968347,38.241855 0.0091,5.647788 h 0.66178 v -2.057862 c 0.281029,0.407946 0.743368,0.66178 1.241969,0.66178 0.852154,0 1.74057,-0.716172 1.74057,-2.230106 0,-1.459541 -0.86122,-2.112254 -1.677112,-2.112254 -0.534863,0 -1.033463,0.271964 -1.314493,0.725237 v -0.634583 z m 1.731505,0.462339 c 0.362618,0 1.241969,0.190375 1.241969,1.695243 0,1.305428 -0.852154,1.513934 -1.241969,1.513934 -0.389816,0 -0.788696,-0.199441 -0.951875,-0.571125 -0.117851,-0.28103 -0.117851,-0.625517 -0.117851,-1.223838 0,-0.344488 0.01813,-0.598321 0.108786,-0.815893 0.163178,-0.371684 0.543928,-0.598321 0.96094,-0.598321 z"
     inkscape:connector-curvature="0" /></g><g
   style="font-weight:bold;font-size:9.06547px;line-height:1.25;font-family:'Segoe UI';-inkscape-font-specification:'Segoe UI Bold';fill:#7b8694;fill-opacity:1;stroke-width:5.85367;stroke-linecap:square;stroke-miterlimit:40;stroke-dashoffset:1.2"
   id="text1682"
   aria-label="Qq"
   transform="translate(2.2351742e-8,2.4025502)"><path
     id="path1002"
     style="font-style:normal;font-variant:normal;font-weight:normal;font-stretch:normal;font-family:Inconsolata;-inkscape-font-specification:Inconsolata;stroke-width:5.85367"
     d="m 58.888186,37.244654 c 0.398881,0 0.888416,0.235702 1.16038,0.906547 0.19944,0.48047 0.226637,1.033463 0.226637,1.504868 0,1.876552 -0.870285,2.22104 -1.350755,2.22104 -0.661779,0 -1.423279,-0.634583 -1.423279,-2.420481 0,-1.658981 0.770565,-2.211974 1.387017,-2.211974 z m 2.003469,2.338891 c 0,-0.534863 -0.03626,-1.232904 -0.344488,-1.840291 -0.362619,-0.734303 -1.015333,-1.069725 -1.631785,-1.069725 -0.843088,0 -2.030665,0.652714 -2.030665,2.873754 0,2.012534 0.96094,2.774034 1.776832,2.90095 0,0.516732 0.135982,0.906547 0.543928,1.105988 0.353554,0.172244 0.752434,0.135982 1.405148,0.135982 l 0.0091,-0.616452 c -0.28103,0.01813 -0.525798,0.05439 -0.734303,0.05439 -0.562059,0 -0.652714,-0.371685 -0.66178,-0.688976 0.516732,-0.09066 1.015333,-0.435143 1.332624,-1.06066 0.299161,-0.598321 0.335423,-1.305428 0.335423,-1.794963 z"
     inkscape:connector-curvature="0" /><path
     id="path1004"
     style="font-style:normal;font-variant:normal;font-weight:normal;font-stretch:normal;font-family:Inconsolata;-inkscape-font-specification:Inconsolata;stroke-width:5.85367"
     d="m 64.535974,38.840176 c 0,0.0091 -0.290095,-0.707106 -1.205708,-0.707106 -0.906547,0 -1.794963,0.734303 -1.794963,2.139451 0,1.341689 0.788696,2.202909 1.704308,2.202909 0.525798,0 1.006268,-0.299161 1.269166,-0.7615 v 2.175713 h 0.643649 v -5.647788 h -0.616452 z m -1.178511,-0.172244 c 0.371684,0 0.843088,0.190375 1.024398,0.698042 0.08159,0.235702 0.09972,0.489535 0.09972,0.997201 0,0.308226 -0.01813,0.534863 -0.08159,0.752434 -0.163179,0.489536 -0.589256,0.779631 -1.015333,0.779631 -0.598321,0 -1.196642,-0.543929 -1.196642,-1.713374 0,-1.087857 0.616452,-1.513934 1.169447,-1.513934 z"
     inkscape:connector-curvature="0" /></g><g
   style="font-weight:bold;font-size:9.06547px;line-height:1.25;font-family:'Segoe UI';-inkscape-font-specification:'Segoe UI Bold';fill:#7b8694;fill-opacity:1;stroke-width:5.85367;stroke-linecap:square;stroke-miterlimit:40;stroke-dashoffset:1.2"
   id="text1686"
   aria-label="Rr"
   transform="translate(2.2351742e-8,2.4025502)"><path
     id="path1007"
     style="font-style:normal;font-variant:normal;font-weight:normal;font-stretch:normal;font-family:Inconsolata;-inkscape-font-specification:Inconsolata;stroke-width:5.85367"
     d="m 77.850554,36.727922 v 5.647788 h 0.634583 v -2.493005 h 1.096922 l 1.251035,2.493005 h 0.716172 l -1.305428,-2.511136 c 0.67991,-0.190374 1.151315,-0.834023 1.151315,-1.586457 0,-0.562059 -0.28103,-1.096922 -0.806827,-1.35982 -0.353553,-0.18131 -0.707107,-0.190375 -1.078791,-0.190375 z m 0.634583,0.598321 h 1.024398 c 0.235702,0 0.462339,0.0091 0.698041,0.117851 0.353554,0.181309 0.534863,0.543928 0.534863,0.906547 0,0.362619 -0.172244,0.698041 -0.498601,0.86122 -0.217571,0.108785 -0.435142,0.117851 -0.661779,0.117851 h -1.096922 z"
     inkscape:connector-curvature="0" /><path
     id="path1009"
     style="font-style:normal;font-variant:normal;font-weight:normal;font-stretch:normal;font-family:Inconsolata;-inkscape-font-specification:Inconsolata;stroke-width:5.85367"
     d="m 82.773104,38.241855 v 4.14292 h 0.652714 v -2.012534 c 0,-0.253833 0.0091,-0.525798 0.290095,-0.970006 0.38075,-0.598321 0.870285,-0.698041 1.169446,-0.698041 0.344488,0 0.562059,0.163179 0.67991,0.308226 0.05439,0.07252 0.08159,0.145048 0.154113,0.208506 l 0.308226,-0.625517 c -0.262899,-0.271964 -0.643648,-0.453274 -1.105987,-0.453274 -0.607387,0 -1.223839,0.308226 -1.495803,0.897482 l 0.0272,-0.797762 z"
     inkscape:connector-curvature="0" /></g><g
   style="font-weight:bold;font-size:9.06547px;line-height:1.25;font-family:'Segoe UI';-inkscape-font-specification:'Segoe UI Bold';fill:#7b8694;fill-opacity:1;stroke-width:5.85367;stroke-linecap:square;stroke-miterlimit:40;stroke-dashoffset:1.2"
   id="text1690"
   aria-label="Ss"
   transform="translate(2.2351742e-8,2.4025502)"><path
     id="path1012"
     style="font-style:normal;font-variant:normal;font-weight:normal;font-stretch:normal;font-family:Inconsolata;-inkscape-font-specification:Inconsolata;stroke-width:5.85367"
     d="m 101.99837,37.407832 c -0.38075,-0.462339 -0.94281,-0.707107 -1.55926,-0.707107 -1.024398,0 -1.722439,0.670845 -1.722439,1.450476 0,0.326357 0.126917,0.752434 0.598321,1.096921 0.525797,0.389816 1.341688,0.580191 1.767768,0.852155 0.37168,0.226636 0.4714,0.525797 0.4714,0.77963 0,0.489535 -0.41701,1.024398 -1.2329,1.024398 -0.616453,0 -1.096923,-0.308226 -1.350756,-0.625517 -0.0272,-0.03626 -0.0272,-0.05439 -0.0272,-0.09065 0,-0.01813 0,-0.07252 -0.03626,-0.09065 l -0.38075,0.652714 c 0.444208,0.48047 1.078791,0.725238 1.776836,0.725238 1.37795,0 1.88562,-0.924678 1.88562,-1.631785 0,-0.29916 -0.0907,-0.688976 -0.44421,-1.024398 -0.48954,-0.462339 -1.2873,-0.625517 -1.804033,-0.924678 -0.471404,-0.281029 -0.571124,-0.616452 -0.571124,-0.843089 0,-0.435142 0.371684,-0.824957 1.015337,-0.824957 0.52579,0 0.93374,0.235702 1.15131,0.552993 0.0272,0.03626 0.0181,0.05439 0.0181,0.09065 0,0.05439 0.0272,0.07252 0.0453,0.07252 z"
     inkscape:connector-curvature="0" /><path
     id="path1014"
     style="font-style:normal;font-variant:normal;font-weight:normal;font-stretch:normal;font-family:Inconsolata;-inkscape-font-specification:Inconsolata;stroke-width:5.85367"
     d="m 106.51298,38.785784 c -0.38075,-0.417012 -0.93375,-0.643649 -1.5502,-0.643649 -0.96094,0 -1.58646,0.534863 -1.58646,1.151315 0,0.725237 0.77963,0.988136 1.00627,1.069725 0.35355,0.126917 0.80683,0.235702 1.11505,0.38075 0.34449,0.163178 0.40795,0.38075 0.40795,0.525797 0,0.389815 -0.47141,0.652714 -1.06066,0.652714 -0.70711,0 -1.16038,-0.426077 -1.29636,-0.571125 -0.0272,-0.03626 -0.0272,-0.06346 -0.0272,-0.09972 0,-0.0091 0.009,-0.06346 -0.0363,-0.08159 l -0.38075,0.643648 c 0.48953,0.453274 1.12412,0.66178 1.74963,0.66178 1.13319,0 1.72244,-0.670845 1.72244,-1.296362 0,-0.28103 -0.11785,-0.66178 -0.60738,-0.933744 -0.46234,-0.262898 -1.13319,-0.353553 -1.523,-0.543928 -0.33542,-0.163178 -0.40795,-0.362619 -0.40795,-0.507666 0,-0.326357 0.40795,-0.562059 0.87029,-0.562059 0.59832,0 0.9972,0.362618 1.15131,0.571124 0.0272,0.0272 0.0181,0.05439 0.0181,0.08159 0,0.05439 0.0363,0.07252 0.0544,0.07252 z"
     inkscape:connector-curvature="0" /></g><g
   style="font-weight:bold;font-size:9.06547px;line-height:1.25;font-family:'Segoe UI';-inkscape-font-specification:'Segoe UI Bold';fill:#7b8694;fill-opacity:1;stroke-width:5.85367;stroke-linecap:square;stroke-miterlimit:40;stroke-dashoffset:1.2"
   id="text1694"
   aria-label="Tt"
   transform="translate(2.2351742e-8,2.4025502)"><path
     id="path1017"
     style="font-style:normal;font-variant:normal;font-weight:normal;font-stretch:normal;font-family:Inconsolata;-inkscape-font-specification:Inconsolata;stroke-width:5.85367"
     d="m 119.06603,36.727922 v 0.571124 h 1.59553 v 5.085729 h 0.64364 v -5.085729 h 1.66805 v -0.571124 z"
     inkscape:connector-curvature="0" /><path
     id="path1019"
     style="font-style:normal;font-variant:normal;font-weight:normal;font-stretch:normal;font-family:Inconsolata;-inkscape-font-specification:Inconsolata;stroke-width:5.85367"
     d="m 125.02205,37.126803 -0.0816,1.115052 h -0.98814 l -0.009,0.534863 h 0.97 c -0.0544,0.707107 -0.0816,1.414213 -0.0816,2.112254 0,0.371685 0,0.788696 0.24477,1.133184 0.19944,0.271964 0.51673,0.435143 0.94281,0.435143 0.48953,0 0.97,-0.208506 1.32356,-0.462339 l -0.19944,-0.516732 c -0.35356,0.262899 -0.67991,0.38075 -0.93375,0.38075 -0.30822,0 -0.62551,-0.172244 -0.69804,-0.670845 0,-0.03626 -0.0272,-0.190375 -0.0272,-0.797761 0,-0.534863 0.0272,-1.078791 0.0816,-1.613654 h 1.35982 V 38.23279 h -1.35076 c 0,0 0.0635,-0.743369 0.10879,-0.979071 0.009,-0.09065 0.0816,-0.145047 0.0453,-0.244768 z"
     inkscape:connector-curvature="0" /></g><g
   style="font-weight:bold;font-size:9.06547px;line-height:1.25;font-family:'Segoe UI';-inkscape-font-specification:'Segoe UI Bold';fill:#7b8694;fill-opacity:1;stroke-width:5.85367;stroke-linecap:square;stroke-miterlimit:40;stroke-dashoffset:1.2"
   id="text1698"
   aria-label="Uu"
   transform="translate(2.2351742e-8,2.4025502)"><path
     id="path1022"
     style="font-style:normal;font-variant:normal;font-weight:normal;font-stretch:normal;font-family:Inconsolata;-inkscape-font-specification:Inconsolata;stroke-width:5.85367"
     d="m 139.95935,36.727922 v 3.707777 c 0,0.398881 0.009,0.77963 0.21757,1.169446 0.30822,0.58019 0.94281,0.87935 1.60459,0.87935 0.65271,0 1.28729,-0.290095 1.60458,-0.888416 0.21758,-0.389815 0.22664,-0.77963 0.22664,-1.196642 v -3.671515 h -0.59832 v 3.689646 c 0,0.290095 -0.009,0.571125 -0.14505,0.86122 -0.2085,0.435142 -0.63458,0.661779 -1.07879,0.661779 -0.44421,0 -0.87028,-0.235702 -1.06972,-0.670845 -0.13599,-0.271964 -0.13599,-0.552993 -0.13599,-0.834023 v -3.417682 c 0,-0.03626 0,-0.07252 0.0363,-0.117851 0.0181,-0.0272 0.0544,-0.07252 0.0544,-0.126917 0,-0.0091 0,-0.0272 -0.009,-0.04533 z"
     inkscape:connector-curvature="0" /><path
     id="path1024"
     style="font-style:normal;font-variant:normal;font-weight:normal;font-stretch:normal;font-family:Inconsolata;-inkscape-font-specification:Inconsolata;stroke-width:5.85367"
     d="m 144.60087,38.241855 v 2.311695 c 0,0.353553 0,0.716172 0.16318,1.087856 0.2357,0.543929 0.74336,0.843089 1.28729,0.843089 0.51673,0 1.00627,-0.281029 1.27823,-0.734303 l -0.009,0.308226 c 0,0.108786 0,0.217571 0.0181,0.317292 h 0.68897 c -0.0453,-0.117852 -0.0544,-0.253834 -0.0544,-0.371685 v -3.76217 h -0.65271 v 2.275433 c 0,0.317292 -0.0272,0.562059 -0.16318,0.815893 -0.19038,0.353553 -0.56206,0.616451 -0.96094,0.616451 -0.31729,0 -0.62552,-0.181309 -0.7887,-0.507666 -0.14504,-0.290095 -0.14504,-0.616452 -0.14504,-0.888416 v -2.311695 z"
     inkscape:connector-curvature="0" /></g><g
   style="font-weight:bold;font-size:9.06547px;line-height:1.25;font-family:'Segoe UI';-inkscape-font-specification:'Segoe UI Bold';fill:#7b8694;fill-opacity:1;stroke-width:5.85367;stroke-linecap:square;stroke-miterlimit:40;stroke-dashoffset:1.2"
   id="text1702"
   aria-label="Vv"
   transform="translate(2.2351742e-8,2.4025502)"><path
     id="path1027"
     style="font-style:normal;font-variant:normal;font-weight:normal;font-stretch:normal;font-family:Inconsolata;-inkscape-font-specification:Inconsolata;stroke-width:5.85367"
     d="m 15.406304,49.67859 1.92188,5.693115 h 0.290095 l 1.894683,-5.693115 h -0.625517 l -1.368886,4.34236 -1.450475,-4.34236 z"
     inkscape:connector-curvature="0" /><path
     id="path1029"
     style="font-style:normal;font-variant:normal;font-weight:normal;font-stretch:normal;font-family:Inconsolata;-inkscape-font-specification:Inconsolata;stroke-width:5.85367"
     d="m 20.065956,51.183458 1.64085,4.179182 h 0.516731 l 1.006268,-2.366088 c 0.244767,-0.58019 0.480469,-1.178511 0.616452,-1.813094 h -0.589256 c -0.108786,0.607387 -0.326357,1.178511 -0.562059,1.722439 l -0.661779,1.54113 -1.196642,-3.027867 c -0.0091,-0.01813 -0.01813,-0.03626 -0.01813,-0.05439 0,-0.05439 0.04533,-0.108786 0.0272,-0.18131 z"
     inkscape:connector-curvature="0" /></g><g
   style="font-weight:bold;font-size:9.06547px;line-height:1.25;font-family:'Segoe UI';-inkscape-font-specification:'Segoe UI Bold';fill:#7b8694;fill-opacity:1;stroke-width:5.85367;stroke-linecap:square;stroke-miterlimit:40;stroke-dashoffset:1.2"
   id="text1706"
   aria-label="Ww"
   transform="translate(2.2351742e-8,2.4025502)"><path
     id="path1032"
     style="font-style:normal;font-variant:normal;font-weight:normal;font-stretch:normal;font-family:Inconsolata;-inkscape-font-specification:Inconsolata;stroke-width:5.85367"
     d="m 36.054862,49.67859 0.906547,5.693115 h 0.253833 l 0.988137,-3.734973 0.970005,3.734973 h 0.253833 L 40.315633,49.67859 H 39.78077 l -0.516732,3.834694 -0.915612,-3.417682 h -0.190375 l -0.906547,3.408616 -0.616452,-3.825628 z"
     inkscape:connector-curvature="0" /><path
     id="path1034"
     style="font-style:normal;font-variant:normal;font-weight:normal;font-stretch:normal;font-family:Inconsolata;-inkscape-font-specification:Inconsolata;stroke-width:5.85367"
     d="m 40.569466,51.183458 0.834023,4.151985 h 0.589256 l 0.725237,-2.683379 0.770565,2.683379 h 0.607387 c 0.281029,-1.368886 0.516732,-2.755902 0.688976,-4.142919 h -0.598321 c 0.01813,0.498601 -0.0272,0.960939 -0.389816,3.317962 l -0.870285,-2.937213 h -0.39888 l -0.716173,2.946278 -0.598321,-2.991605 c -0.01813,-0.06346 -0.01813,-0.09065 0.0091,-0.163178 0.0091,-0.04533 0.03626,-0.108786 0.0091,-0.18131 z"
     inkscape:connector-curvature="0" /></g><g
   style="font-weight:bold;font-size:9.06547px;line-height:1.25;font-family:'Segoe UI';-inkscape-font-specification:'Segoe UI Bold';fill:#7b8694;fill-opacity:1;stroke-width:5.85367;stroke-linecap:square;stroke-miterlimit:40;stroke-dashoffset:1.2"
   id="text1710"
   aria-label="Xx"
   transform="translate(2.2351742e-8,2.4025502)"><path
     id="path1037"
     style="font-style:normal;font-variant:normal;font-weight:normal;font-stretch:normal;font-family:Inconsolata;-inkscape-font-specification:Inconsolata;stroke-width:5.85367"
     d="m 60.048566,49.67859 -1.16038,2.139451 -1.187577,-2.139451 h -0.67991 l 1.504868,2.774034 -1.54113,2.873754 h 0.698042 l 1.205707,-2.230106 1.2601,2.230106 h 0.707107 L 59.25987,52.434493 60.683149,49.67859 Z"
     inkscape:connector-curvature="0" /><path
     id="path1039"
     style="font-style:normal;font-variant:normal;font-weight:normal;font-stretch:normal;font-family:Inconsolata;-inkscape-font-specification:Inconsolata;stroke-width:5.85367"
     d="m 64.436253,51.183458 -1.033463,1.532065 -1.087856,-1.532065 h -0.707107 l 1.423279,2.039731 -1.450476,2.103189 h 0.734304 l 1.07879,-1.604588 1.14225,1.604588 h 0.743368 l -1.522999,-2.12132 1.34169,-2.0216 z"
     inkscape:connector-curvature="0" /></g><g
   style="font-weight:bold;font-size:9.06547px;line-height:1.25;font-family:'Segoe UI';-inkscape-font-specification:'Segoe UI Bold';fill:#7b8694;fill-opacity:1;stroke-width:5.85367;stroke-linecap:square;stroke-miterlimit:40;stroke-dashoffset:1.2"
   id="text1714"
   aria-label="Yy"
   transform="translate(2.2351742e-8,2.4025502)"><path
     id="path1042"
     style="font-style:normal;font-variant:normal;font-weight:normal;font-stretch:normal;font-family:Inconsolata;-inkscape-font-specification:Inconsolata;stroke-width:5.85367"
     d="m 77.596721,49.67859 1.74057,3.426748 v 2.22104 h 0.688976 v -2.22104 L 81.62179,49.67859 H 80.950945 L 79.69991,52.416362 78.312893,49.67859 Z"
     inkscape:connector-curvature="0" /><path
     id="path1044"
     style="font-style:normal;font-variant:normal;font-weight:normal;font-stretch:normal;font-family:Inconsolata;-inkscape-font-specification:Inconsolata;stroke-width:5.85367"
     d="m 82.283569,51.192524 1.686177,4.124788 -0.135982,0.299161 c -0.07252,0.172244 -0.154113,0.344488 -0.281029,0.48047 -0.172244,0.190375 -0.389816,0.271964 -0.58019,0.271964 -0.308226,0 -0.462339,-0.208506 -0.489536,-0.244768 -0.0272,-0.04533 -0.01813,-0.108785 -0.07252,-0.154113 l -0.335422,0.589256 c 0.235702,0.226636 0.552994,0.344488 0.897482,0.344488 0.371684,0 0.761499,-0.135982 1.033463,-0.444208 0.18131,-0.208506 0.271964,-0.426077 0.362619,-0.66178 L 85.655924,52.3801 c 0.154113,-0.389815 0.290095,-0.788696 0.417011,-1.196642 h -0.67991 c -0.07252,0.38075 -0.190375,0.743369 -0.317291,1.105988 l -0.788696,2.22104 -1.214773,-3.055064 c -0.0091,-0.0272 -0.0091,-0.04533 -0.0091,-0.07252 0,-0.06346 0.04533,-0.108786 0.03626,-0.190375 z"
     inkscape:connector-curvature="0" /></g><g
   style="font-weight:bold;font-size:9.06547px;line-height:1.25;font-family:'Segoe UI';-inkscape-font-specification:'Segoe UI Bold';fill:#7b8694;fill-opacity:1;stroke-width:5.85367;stroke-linecap:square;stroke-miterlimit:40;stroke-dashoffset:1.2"
   id="text1718"
   aria-label="Zz"
   transform="translate(2.2351742e-8,2.4025502)"><path
     id="path1047"
     style="font-style:normal;font-variant:normal;font-weight:normal;font-stretch:normal;font-family:Inconsolata;-inkscape-font-specification:Inconsolata;stroke-width:5.85367"
     d="m 98.626016,49.67859 v 0.571125 h 2.737774 l -2.846559,4.64152 v 0.444208 h 3.734969 v -0.616452 c -0.10878,-0.01813 -0.14504,0.05439 -0.27196,0.05439 h -2.665248 l 2.792168,-4.64152 0.009,-0.453274 z"
     inkscape:connector-curvature="0" /><path
     id="path1049"
     style="font-style:normal;font-variant:normal;font-weight:normal;font-stretch:normal;font-family:Inconsolata;-inkscape-font-specification:Inconsolata;stroke-width:5.85367"
     d="m 103.23127,51.183458 v 0.571125 h 2.38422 l -2.56552,3.136652 v 0.444208 h 3.61712 v -0.616452 c -0.10879,-0.01813 -0.14505,0.05439 -0.27197,0.05439 h -2.4658 l 2.52926,-3.145718 v -0.444208 z"
     inkscape:connector-curvature="0" /></g><rect
   style="fill:#1d232d;fill-opacity:1;stroke:#000000;stroke-width:0.0739655;stroke-linecap:square;stroke-miterlimit:40;stroke-dasharray:none;stroke-dashoffset:1.2;stroke-opacity:1"
   id="rect1728"
   width="70.776566"
   height="98.554977"
   x="161.14174"
   y="-22.701807" /><g
   style="font-weight:bold;font-size:9.06547px;line-height:1.25;font-family:'Segoe UI';-inkscape-font-specification:'Segoe UI Bold';fill:#a6aeb8;fill-opacity:1;stroke-width:5.85367;stroke-linecap:square;stroke-miterlimit:40;stroke-dashoffset:1.2"
   id="text1740"
   aria-label="Regular"
   transform="translate(5.18027,2.4025502)"><path
     id="path1052"
     style="font-style:normal;font-variant:normal;font-weight:normal;font-stretch:normal;font-family:Inconsolata;-inkscape-font-specification:Inconsolata;fill:#a6aeb8;fill-opacity:1;stroke-width:5.85367"
     d="m 176.27561,10.826574 v 5.647787 h 0.63458 v -2.493004 h 1.09693 l 1.25103,2.493004 h 0.71617 l -1.30543,-2.511135 c 0.67991,-0.190375 1.15132,-0.834023 1.15132,-1.586457 0,-0.562059 -0.28103,-1.096922 -0.80683,-1.35982 -0.35355,-0.18131 -0.7071,-0.190375 -1.07879,-0.190375 z m 0.63458,0.598321 h 1.0244 c 0.2357,0 0.46234,0.0091 0.69804,0.117851 0.35356,0.181309 0.53487,0.543928 0.53487,0.906547 0,0.362619 -0.17225,0.698041 -0.49861,0.861219 -0.21757,0.108786 -0.43514,0.117852 -0.66177,0.117852 h -1.09693 z"
     inkscape:connector-curvature="0" /><path
     id="path1054"
     style="font-style:normal;font-variant:normal;font-weight:normal;font-stretch:normal;font-family:Inconsolata;-inkscape-font-specification:Inconsolata;fill:#a6aeb8;fill-opacity:1;stroke-width:5.85367"
     d="m 182.63957,12.240787 c -0.98814,0 -1.90375,0.707107 -1.90375,2.211975 0,1.387017 0.86122,2.12132 1.98534,2.12132 0.59832,0 1.13318,-0.217572 1.48674,-0.643649 l -0.36262,-0.353553 c -0.2629,0.308226 -0.66178,0.471404 -1.06973,0.471404 -0.55299,0 -1.35982,-0.308226 -1.40515,-1.550195 h 2.93722 c 0.0272,-0.28103 0.0181,-0.552994 -0.0272,-0.788696 -0.19037,-1.115053 -0.96094,-1.468606 -1.64085,-1.468606 z m -1.25103,1.758701 c 0.13598,-0.979071 0.7615,-1.2601 1.2057,-1.2601 0.67085,0 1.15132,0.589255 1.06973,1.2601 z"
     inkscape:connector-curvature="0" /><path
     id="path1056"
     style="font-style:normal;font-variant:normal;font-weight:normal;font-stretch:normal;font-family:Inconsolata;-inkscape-font-specification:Inconsolata;fill:#a6aeb8;fill-opacity:1;stroke-width:5.85367"
     d="m 185.9666,13.627804 c 0,-0.498601 0.41701,-0.906547 0.91561,-0.906547 0.50767,0 0.91561,0.407946 0.91561,0.906547 0,0.498601 -0.40794,0.906547 -0.91561,0.906547 -0.50767,0 -0.91561,-0.407946 -0.91561,-0.906547 z m 0.95187,-1.423279 c -0.82496,0 -1.54113,0.652714 -1.54113,1.459541 0,0.453273 0.22664,0.87935 0.60739,1.124118 -0.29916,0.253833 -0.47141,0.534863 -0.47141,0.797761 0,0.172244 0.0725,0.417012 0.33543,0.552994 -0.44421,0.28103 -0.67085,0.589256 -0.67085,0.915612 0,0.453274 0.41701,0.988137 1.86749,0.988137 1.40515,0 1.91281,-0.716172 1.91281,-1.269166 0,-0.362619 -0.2085,-0.725238 -0.64365,-0.897482 -0.43514,-0.181309 -0.93374,-0.117851 -1.40514,-0.117851 -0.30823,0 -0.50767,-0.0272 -0.58926,-0.05439 -0.16318,-0.04533 -0.25383,-0.145047 -0.25383,-0.271964 0,-0.217571 0.25383,-0.426077 0.29916,-0.462339 0.16318,0.06346 0.34449,0.09065 0.5258,0.09065 0.81589,0 1.48673,-0.652714 1.48673,-1.414213 0,-0.253833 -0.0725,-0.498601 -0.2085,-0.707107 0.21757,-0.126916 0.4714,-0.19944 0.72523,-0.19944 0.0816,0 0.15412,0.0091 0.23571,0.0272 l -0.0725,-0.534862 c -0.41701,-0.03626 -0.83402,0.09972 -1.15131,0.362618 -0.2629,-0.253833 -0.60739,-0.389815 -0.98814,-0.389815 z m -0.62552,4.052265 c 0.15412,0.01813 0.37169,0.03626 0.68898,0.05439 0.30823,0.0091 0.64365,-0.01813 0.87935,0.01813 0.38075,0.06346 0.4986,0.29916 0.4986,0.48047 0,0.181309 -0.10878,0.39888 -0.38981,0.552993 -0.30823,0.163179 -0.65272,0.18131 -0.93375,0.18131 -0.19037,0 -0.54392,-0.0091 -0.85215,-0.135982 -0.33542,-0.135982 -0.40795,-0.362619 -0.40795,-0.507667 0,-0.29916 0.28103,-0.516731 0.51673,-0.643648 z"
     inkscape:connector-curvature="0" /><path
     id="path1058"
     style="font-style:normal;font-variant:normal;font-weight:normal;font-stretch:normal;font-family:Inconsolata;-inkscape-font-specification:Inconsolata;fill:#a6aeb8;fill-opacity:1;stroke-width:5.85367"
     d="m 189.92821,12.340507 v 2.311695 c 0,0.353553 0,0.716172 0.16318,1.087856 0.2357,0.543929 0.74337,0.843089 1.28729,0.843089 0.51674,0 1.00627,-0.28103 1.27823,-0.734303 l -0.009,0.308226 c 0,0.108786 0,0.217571 0.0181,0.317291 h 0.68898 c -0.0453,-0.117851 -0.0544,-0.253833 -0.0544,-0.371684 v -3.76217 h -0.65271 v 2.275433 c 0,0.317292 -0.0272,0.562059 -0.16318,0.815892 -0.19037,0.353554 -0.56206,0.616452 -0.96094,0.616452 -0.31729,0 -0.62552,-0.181309 -0.7887,-0.507666 -0.14504,-0.290095 -0.14504,-0.616452 -0.14504,-0.888416 v -2.311695 z"
     inkscape:connector-curvature="0" /><path
     id="path1060"
     style="font-style:normal;font-variant:normal;font-weight:normal;font-stretch:normal;font-family:Inconsolata;-inkscape-font-specification:Inconsolata;fill:#a6aeb8;fill-opacity:1;stroke-width:5.85367"
     d="m 194.66038,10.45489 v 0.525797 h 1.17851 v 4.976943 h -1.2329 v 0.516731 h 3.10946 V 15.95763 h -1.22384 v -5.50274 z"
     inkscape:connector-curvature="0" /><path
     id="path1062"
     style="font-style:normal;font-variant:normal;font-weight:normal;font-stretch:normal;font-family:Inconsolata;-inkscape-font-specification:Inconsolata;fill:#a6aeb8;fill-opacity:1;stroke-width:5.85367"
     d="m 199.24751,12.820977 0.31729,0.417012 c 0.34449,-0.353554 0.80683,-0.462339 1.19664,-0.462339 0.48954,0 0.73431,0.208506 0.85216,0.39888 0.13598,0.226637 0.12691,0.498601 0.12691,0.716173 v 0.145047 h -0.12691 c -0.61645,0 -1.26917,0 -1.79497,0.190375 -0.65271,0.235702 -0.9428,0.725238 -0.9428,1.178511 0,0.607386 0.52579,1.178511 1.38701,1.178511 0.50767,0 1.03347,-0.190375 1.48674,-0.562059 v 0.453273 h 0.61645 v -2.565528 c 0,-0.335422 -0.009,-0.652713 -0.19944,-0.97907 -0.27196,-0.444208 -0.79776,-0.67991 -1.44141,-0.67991 -0.55299,0 -1.08785,0.172243 -1.47767,0.571124 z m 2.5202,1.713374 v 0.281029 c 0,0.208506 0,0.48047 -0.28103,0.779631 -0.15411,0.154113 -0.54393,0.489535 -1.08786,0.489535 -0.55299,0 -0.87028,-0.353553 -0.87028,-0.716172 0,-0.308226 0.20851,-0.643648 0.72524,-0.770565 0.38075,-0.09065 0.93374,-0.06346 1.36888,-0.06346 z"
     inkscape:connector-curvature="0" /><path
     id="path1064"
     style="font-style:normal;font-variant:normal;font-weight:normal;font-stretch:normal;font-family:Inconsolata;-inkscape-font-specification:Inconsolata;fill:#a6aeb8;fill-opacity:1;stroke-width:5.85367"
     d="m 203.86184,12.340507 v 4.14292 h 0.65271 v -2.012534 c 0,-0.253834 0.009,-0.525798 0.29009,-0.970006 0.38075,-0.598321 0.87029,-0.698041 1.16945,-0.698041 0.34449,0 0.56206,0.163179 0.67991,0.308226 0.0544,0.07252 0.0816,0.145048 0.15411,0.208506 l 0.30823,-0.625517 c -0.2629,-0.271965 -0.64365,-0.453274 -1.10599,-0.453274 -0.60739,0 -1.22384,0.308226 -1.4958,0.897482 l 0.0272,-0.797762 z"
     inkscape:connector-curvature="0" /></g></svg>
