<?xml version="1.0" encoding="UTF-8" standalone="no"?>
<svg
   xmlns:dc="http://purl.org/dc/elements/1.1/"
   xmlns:cc="http://creativecommons.org/ns#"
   xmlns:rdf="http://www.w3.org/1999/02/22-rdf-syntax-ns#"
   xmlns:svg="http://www.w3.org/2000/svg"
   xmlns="http://www.w3.org/2000/svg"
   xmlns:sodipodi="http://sodipodi.sourceforge.net/DTD/sodipodi-0.dtd"
   xmlns:inkscape="http://www.inkscape.org/namespaces/inkscape"
   width="46.774555mm"
   height="22.773064mm"
   viewBox="0 0 46.774555 22.773064"
   version="1.1"
   id="svg8"
   inkscape:version="1.0rc1 (09960d6f05, 2020-04-09)"
   sodipodi:docname="logo_masked.svg">
  <defs
     id="defs2" />
  <sodipodi:namedview
     id="base"
     pagecolor="#ffffff"
     bordercolor="#666666"
     borderopacity="1.0"
     inkscape:pageopacity="0.0"
     inkscape:pageshadow="2"
     inkscape:zoom="5.6"
     inkscape:cx="92.880876"
     inkscape:cy="39.878454"
     inkscape:document-units="mm"
     inkscape:current-layer="layer1"
     inkscape:document-rotation="0"
     showgrid="false"
     inkscape:window-width="2560"
     inkscape:window-height="1377"
     inkscape:window-x="-8"
     inkscape:window-y="-8"
     inkscape:window-maximized="1" />
  <metadata
     id="metadata5">
    <rdf:RDF>
      <cc:Work
         rdf:about="">
        <dc:format>image/svg+xml</dc:format>
        <dc:type
           rdf:resource="http://purl.org/dc/dcmitype/StillImage" />
        <dc:title></dc:title>
      </cc:Work>
    </rdf:RDF>
  </metadata>
  <g
     inkscape:label="Layer 1"
     inkscape:groupmode="layer"
     id="layer1"
     transform="translate(-81.312134,-111.11555)">
    <rect
       style="mix-blend-mode:multiply;fill:#121824;fill-opacity:1;stroke:none;stroke-width:0.529167;stroke-miterlimit:40"
       id="rect1255"
       width="46.774555"
       height="22.773064"
       x="81.312134"
       y="111.11555" />
    <path
       inkscape:connector-curvature="0"
       id="rect2241"
       style="opacity:1;fill:#7b8694;fill-opacity:1;stroke:none;stroke-width:0.529167;stroke-linecap:square;stroke-linejoin:miter;stroke-miterlimit:40;stroke-dasharray:none;stroke-opacity:1;paint-order:normal"
       d="m 88.918925,115.96309 v 0.26458 h -0.529167 v 13.22917 h 0.529167 v 0.26458 h 1.5875 v -0.26458 h 1.058333 v 0.26458 h 1.5875 v -0.26458 h 1.058333 v 0.26458 h 1.5875 v -0.26458 h 1.058334 v 0.26458 h 1.5875 v -0.26458 h 1.058333 v 0.26458 h 1.587502 v -0.26458 h 1.05833 v 0.26458 h 1.5875 v -0.26458 h 1.05834 v 0.26458 h 1.5875 v -0.26458 h 1.05832 v 0.26458 h 1.5875 v -0.26458 h 1.05834 v 0.26458 h 1.5875 v -0.26458 h 1.05833 v 0.26458 h 1.5875 v -0.26458 h 1.05833 v 0.26458 h 1.5875 v -0.26458 h 1.05834 v 0.26458 h 1.5875 v -0.26458 h 0.52916 v -13.22917 h -0.52916 v -0.26458 h -1.5875 v 0.26458 h -1.05834 v -0.26458 h -1.5875 v 0.26458 h -1.05833 v -0.26458 h -1.5875 v 0.26458 h -1.05833 v -0.26458 h -1.5875 v 0.26458 h -1.05834 v -0.26458 h -1.5875 v 0.26458 h -1.05832 v -0.26458 h -1.5875 v 0.26458 h -1.05834 v -0.26458 h -1.5875 v 0.26458 h -1.05833 v -0.26458 h -1.587502 v 0.26458 h -1.058333 v -0.26458 h -1.5875 v 0.26458 h -1.058334 v -0.26458 h -1.5875 v 0.26458 h -1.058333 v -0.26458 h -1.5875 v 0.26458 h -1.058333 v -0.26458 z m 6.085416,2.91042 h 2.645834 v 2.64583 h 2.645835 v 2.64583 h -2.645835 v 2.64584 h -2.645834 v -2.64584 h -2.645833 v -2.64583 h 2.645833 z m 17.197909,0 a 1.3229167,1.3229167 0 0 1 1.32292,1.32291 1.3229167,1.3229167 0 0 1 -1.32292,1.32292 1.3229167,1.3229167 0 0 1 -1.32291,-1.32292 1.3229167,1.3229167 0 0 1 1.32291,-1.32291 z m -2.65203,2.64583 a 1.3229167,1.3229167 0 0 1 1.32292,1.32292 1.3229167,1.3229167 0 0 1 -1.32292,1.32291 1.3229167,1.3229167 0 0 1 -0.93534,-0.38757 l 0.93534,-0.93534 -0.93534,-0.93535 a 1.3229167,1.3229167 0 0 1 0.93534,-0.38757 z m 5.29787,0 a 1.3229167,1.3229167 0 0 1 1.32291,1.32292 1.3229167,1.3229167 0 0 1 -1.32291,1.32291 1.3229167,1.3229167 0 0 1 -1.32292,-1.32291 1.3229167,1.3229167 0 0 1 1.32292,-1.32292 z m -11.91968,0.79375 a 0.52916667,0.52916667 0 0 1 5.2e-4,0 0.52916667,0.52916667 0 0 1 0.0129,0 0.52916667,0.52916667 0 0 1 0.52917,0.52917 0.52916667,0.52916667 0 0 1 -0.52917,0.52916 0.52916667,0.52916667 0 0 1 -0.52916,-0.52916 0.52916667,0.52916667 0 0 1 0.51573,-0.52917 z m 3.96875,0 a 0.52916667,0.52916667 0 0 1 5.2e-4,0 0.52916667,0.52916667 0 0 1 0.0129,0 0.52916667,0.52916667 0 0 1 0.52917,0.52917 0.52916667,0.52916667 0 0 1 -0.52917,0.52916 0.52916667,0.52916667 0 0 1 -0.52916,-0.52916 0.52916667,0.52916667 0 0 1 0.51573,-0.52917 z m 5.30509,1.85208 a 1.3229167,1.3229167 0 0 1 1.32292,1.32292 1.3229167,1.3229167 0 0 1 -1.32292,1.32292 1.3229167,1.3229167 0 0 1 -1.32291,-1.32292 1.3229167,1.3229167 0 0 1 1.32291,-1.32292 z" />
  </g>
</svg>
