<?xml version="1.0" encoding="UTF-8"?>
<svg width="45.981mm" height="21.979mm" version="1.1" viewBox="0 0 45.981 21.979" xmlns="http://www.w3.org/2000/svg" xmlns:cc="http://creativecommons.org/ns#" xmlns:dc="http://purl.org/dc/elements/1.1/" xmlns:rdf="http://www.w3.org/1999/02/22-rdf-syntax-ns#">
 <metadata>
  <rdf:RDF>
   <cc:Work rdf:about="">
    <dc:format>image/svg+xml</dc:format>
    <dc:type rdf:resource="http://purl.org/dc/dcmitype/StillImage"/>
    <dc:title/>
   </cc:Work>
  </rdf:RDF>
 </metadata>
 <g transform="translate(-121.84 -81.421)">
  <rect x="121.84" y="81.421" width="45.981" height="21.979" fill="#121824"/>
  <g fill="none" stroke="#7b8694" stroke-linecap="square" stroke-miterlimit="40" stroke-width=".52916">
   <path d="m132.01 99.841h-1.5875" style="paint-order:normal"/>
   <path d="m134.65 99.841h-1.5875" style="paint-order:normal"/>
   <path d="m137.3 99.841h-1.5875" style="paint-order:normal"/>
   <path d="m139.95 99.841h-1.5875" style="paint-order:normal"/>
   <path d="m142.59 99.841h-1.5875" style="paint-order:normal"/>
   <path d="m145.24 99.841h-1.5875" style="paint-order:normal"/>
   <path d="m147.88 99.841h-1.5875" style="paint-order:normal"/>
   <path d="m150.53 99.841h-1.5875" style="paint-order:normal"/>
   <path d="m153.17 99.841h-1.5875" style="paint-order:normal"/>
   <path d="m155.82 99.841h-1.5875" style="paint-order:normal"/>
   <path d="m158.47 99.841h-1.5875" style="paint-order:normal"/>
   <path d="m161.11 99.841h-1.5875" style="paint-order:normal"/>
   <path d="m132.01 86.612h-1.5875" style="paint-order:normal"/>
   <path d="m134.65 86.612h-1.5875" style="paint-order:normal"/>
   <path d="m137.3 86.612h-1.5875" style="paint-order:normal"/>
   <path d="m139.95 86.612h-1.5875" style="paint-order:normal"/>
   <path d="m142.59 86.612h-1.5875" style="paint-order:normal"/>
   <path d="m145.24 86.612h-1.5875" style="paint-order:normal"/>
   <path d="m147.88 86.612h-1.5875" style="paint-order:normal"/>
   <path d="m150.53 86.612h-1.5875" style="paint-order:normal"/>
   <path d="m153.17 86.612h-1.5875" style="paint-order:normal"/>
   <path d="m155.82 86.612h-1.5875" style="paint-order:normal"/>
   <path d="m158.47 86.612h-1.5875" style="paint-order:normal"/>
   <path d="m161.11 86.612h-1.5875" style="paint-order:normal"/>
  </g>
  <rect x="129.89" y="86.612" width="31.75" height="13.229" fill="#1d232d" style="paint-order:normal"/>
  <g fill="#7b8694">
   <circle transform="scale(-1)" cx="-144.44" cy="-93.226" r=".52917"/>
   <path d="m136.51 89.258v2.6458h-2.6458v2.6458h2.6458v2.6458h2.6458v-2.6458h2.6458v-2.6458h-2.6458v-2.6458z"/>
   <circle cx="156.35" cy="93.226" r="1.3229"/>
   <circle cx="153.7" cy="90.58" r="1.3229"/>
   <circle cx="153.7" cy="95.872" r="1.3229"/>
   <path d="m151.05 91.903a1.3229 1.3229 0 0 0-0.93532 0.38757l0.93532 0.93534-0.93532 0.93534a1.3229 1.3229 0 0 0 0.93532 0.38758 1.3229 1.3229 0 0 0 1.3229-1.3229 1.3229 1.3229 0 0 0-1.3229-1.3229z"/>
   <g stroke="#535e70" stroke-dashoffset="1.2" stroke-linecap="square" stroke-miterlimit="40" stroke-width=".026458">
    <path d="m133.86 83.966v18.521"/>
    <path d="m136.51 83.966v18.521"/>
    <path d="m139.15 83.966v18.521"/>
    <path d="m141.8 83.966v18.521"/>
    <path d="m144.44 83.966v18.521"/>
   </g>
   <circle transform="scale(-1)" cx="-148.41" cy="-93.226" r=".52917"/>
   <g stroke="#535e70" stroke-dashoffset="1.2" stroke-linecap="square" stroke-miterlimit="40" stroke-width=".026458">
    <path d="m147.09 83.966v18.521"/>
    <path d="m149.73 83.966v18.521"/>
    <path d="m152.38 83.966v18.521"/>
    <path d="m155.03 83.966v18.521"/>
    <path d="m157.67 83.966v18.521"/>
    <path d="m127.25 87.935h37.042"/>
    <path d="m127.25 89.258h37.042"/>
    <path d="m127.25 91.903h37.042"/>
    <path d="m127.25 94.549h37.042"/>
    <path d="m127.25 97.195h37.042"/>
    <path d="m127.25 99.841h37.042"/>
    <path d="m127.25 98.518h37.042"/>
    <path d="m127.25 95.872h37.042"/>
    <path d="m127.25 93.226h37.042"/>
    <path d="m127.25 90.58h37.042"/>
    <path d="m132.54 83.966v18.521"/>
    <path d="m135.18 83.966v18.521"/>
    <path d="m137.83 83.966v18.521"/>
    <path d="m140.47 83.966v18.521"/>
    <path d="m143.12 83.966v18.521"/>
    <path d="m145.77 83.966v18.521"/>
    <path d="m148.41 83.966v18.521"/>
    <path d="m151.06 83.966v18.521"/>
    <path d="m153.7 83.966v18.521"/>
    <path d="m156.35 83.966v18.521"/>
    <path d="m159 83.966v18.521"/>
    <path d="m127.25 86.612h37.042"/>
    <path d="m127.25 102.49h37.042"/>
    <path d="m127.25 83.966h37.042"/>
    <path d="m127.25 85.289h37.042"/>
    <path d="m127.25 101.16h37.042"/>
    <path d="m129.89 83.966v18.521"/>
    <path d="m127.25 83.966v18.521"/>
    <path d="m128.57 83.966v18.521"/>
    <path d="m131.21 83.966v18.521"/>
    <path d="m160.32 83.966v18.521"/>
    <path d="m162.96 83.966v18.521"/>
    <path d="m161.64 83.966v18.521"/>
    <path d="m164.29 83.966v18.521"/>
   </g>
  </g>
  <g stroke="#d2d6dc" stroke-linecap="square" stroke-miterlimit="40" stroke-width=".026458">
   <path d="m129.89 83.437v-0.79375h31.75v0.79375" fill="none" stroke-dashoffset="1.2"/>
   <text x="145.05792" y="82.482399" fill="#d2d6dc" font-family="'Source Sans Pro'" font-size=".79375px" font-weight="300" style="line-height:1.25" xml:space="preserve"><tspan x="145.05792" y="82.482399" fill="#d2d6dc" stroke="none" stroke-width=".026458">240</tspan></text>
   <path d="m126.72 86.612h-0.79375v13.229h0.79375" fill="none" stroke-dashoffset="1.2"/>
   <text x="124.42043" y="93.330315" fill="#d2d6dc" font-family="'Source Sans Pro'" font-size=".79375px" font-weight="300" style="line-height:1.25" xml:space="preserve"><tspan x="124.42043" y="93.330315" fill="#d2d6dc" stroke="none" stroke-width=".026458">100</tspan></text>
  </g>
  <g fill="none" stroke="#d2d6dc" stroke-linecap="square" stroke-miterlimit="40" stroke-width=".026458">
   <path d="m129.89 86.347h0.26458"/>
   <path d="m130.42 86.083-0.26458 0.26458 0.26458 0.26458"/>
   <path d="m129.63 86.083 0.26459 0.26458-0.26459 0.26458"/>
  </g>
  <text x="129.81958" y="86.186562" fill="#d2d6dc" font-family="'Source Sans Pro'" font-size=".79375px" font-weight="300" stroke="#d2d6dc" stroke-linecap="square" stroke-miterlimit="40" stroke-width=".026458" style="line-height:1.25" xml:space="preserve"><tspan x="129.81958" y="86.186562" fill="#d2d6dc" stroke="none" stroke-width=".026458">2</tspan></text>
  <g fill="none" stroke="#d2d6dc" stroke-linecap="square" stroke-miterlimit="40" stroke-width=".026458">
   <path d="m132.27 86.347h0.52916"/>
   <path d="m133.07 86.083-0.26459 0.26458 0.26459 0.26458"/>
   <path d="m132.01 86.083 0.26459 0.26458-0.26459 0.26458"/>
  </g>
  <text x="132.35793" y="86.186562" fill="#d2d6dc" font-family="'Source Sans Pro'" font-size=".79375px" font-weight="300" stroke="#d2d6dc" stroke-linecap="square" stroke-miterlimit="40" stroke-width=".026458" style="line-height:1.25" xml:space="preserve"><tspan x="132.35793" y="86.186562" fill="#d2d6dc" stroke="none" stroke-width=".026458">4</tspan></text>
  <g fill="none" stroke="#d2d6dc" stroke-dashoffset="1.2" stroke-linecap="square" stroke-miterlimit="40" stroke-width=".026458">
   <path d="m129.89 89.258h6.6146"/>
   <path d="m130.16 88.993-0.26458 0.26458 0.26458 0.26458"/>
   <path d="m136.24 88.993 0.26458 0.26458-0.26458 0.26458"/>
   <path d="m136.24 86.876 0.26458-0.26458 0.26458 0.26458"/>
   <path d="m136.77 88.993-0.26458 0.26458-0.26458-0.26458"/>
  </g>
  <text x="135.56799" y="88.155571" fill="#d2d6dc" font-family="'Source Sans Pro'" font-size=".79375px" font-weight="300" stroke="#d2d6dc" stroke-linecap="square" stroke-miterlimit="40" stroke-width=".026458" style="line-height:1.25" xml:space="preserve"><tspan x="135.56799" y="88.155571" fill="#d2d6dc" stroke="none" stroke-width=".026458">20</tspan></text>
  <text x="132.88708" y="89.096977" fill="#d2d6dc" font-family="'Source Sans Pro'" font-size=".79375px" font-weight="300" stroke="#d2d6dc" stroke-linecap="square" stroke-miterlimit="40" stroke-width=".026458" style="line-height:1.25" xml:space="preserve"><tspan x="132.88708" y="89.096977" fill="#d2d6dc" stroke="none" stroke-width=".026458">50</tspan></text>
  <g fill="none" stroke="#d2d6dc" stroke-linecap="square" stroke-miterlimit="40" stroke-width=".026458">
   <g stroke-dashoffset="1.2">
    <path d="m136.51 86.612v2.6458"/>
    <path d="m130.95 89.522 0.26458-0.26458 0.26459 0.26458"/>
    <path d="m130.95 96.93 0.26458 0.26458 0.26459-0.26458"/>
   </g>
   <path d="m136.51 97.195h-5.2917" stroke-dasharray="0.0264583, 0.079375"/>
  </g>
  <text x="130.24126" y="93.594894" fill="#d2d6dc" font-family="'Source Sans Pro'" font-size=".79375px" font-weight="300" stroke="#d2d6dc" stroke-linecap="square" stroke-miterlimit="40" stroke-width=".026458" style="line-height:1.25" xml:space="preserve"><tspan x="130.24126" y="93.594894" fill="#d2d6dc" stroke="none" stroke-width=".026458">60</tspan></text>
  <g fill="none" stroke="#d2d6dc" stroke-linecap="square" stroke-miterlimit="40" stroke-width=".026458">
   <path d="m131.21 96.93v-7.6729" stroke-dashoffset="1.2"/>
   <g>
    <path d="m135.45 85.818h2.1167"/>
    <path d="m137.3 85.553 0.26458 0.26458-0.26458 0.26458"/>
    <path d="m135.71 85.553-0.26458 0.26458 0.26458 0.26458"/>
   </g>
  </g>
  <text x="136.06209" y="85.657394" fill="#d2d6dc" font-family="'Source Sans Pro'" font-size=".79375px" font-weight="300" stroke="#d2d6dc" stroke-linecap="square" stroke-miterlimit="40" stroke-width=".026458" style="line-height:1.25" xml:space="preserve"><tspan x="136.06209" y="85.657394" fill="#d2d6dc" stroke="none" stroke-width=".026458">16</tspan></text>
  <g fill="none" stroke="#d2d6dc" stroke-linecap="square" stroke-miterlimit="40" stroke-width=".026458">
   <path d="m132.54 91.903v2.6458" stroke-dashoffset="1.2"/>
   <path d="m132.27 92.168 0.26458-0.26458 0.26458 0.26458"/>
   <path d="m132.27 94.285 0.26458 0.26458 0.26458-0.26458"/>
  </g>
  <text x="131.56418" y="93.594894" fill="#d2d6dc" font-family="'Source Sans Pro'" font-size=".79375px" font-weight="300" stroke="#d2d6dc" stroke-linecap="square" stroke-miterlimit="40" stroke-width=".026458" style="line-height:1.25" xml:space="preserve"><tspan x="131.56418" y="93.594894" fill="#d2d6dc" stroke="none" stroke-width=".026458">20</tspan></text>
  <g fill="none" stroke="#d2d6dc" stroke-linecap="square" stroke-miterlimit="40" stroke-width=".026458">
   <path d="m139.15 98.518h-2.6458" stroke-dashoffset="1.2"/>
   <path d="m138.89 98.253 0.26458 0.26458-0.26458 0.26458"/>
   <path d="m136.77 98.253-0.26458 0.26458 0.26458 0.26458"/>
  </g>
  <text x="137.38501" y="98.357399" fill="#d2d6dc" font-family="'Source Sans Pro'" font-size=".79375px" font-weight="300" stroke="#d2d6dc" stroke-linecap="square" stroke-miterlimit="40" stroke-width=".026458" style="line-height:1.25" xml:space="preserve"><tspan x="137.38501" y="98.357399" fill="#d2d6dc" stroke="none" stroke-width=".026458">20</tspan></text>
  <g fill="none" stroke="#d2d6dc" stroke-linecap="square" stroke-miterlimit="40" stroke-width=".026458">
   <g>
    <path d="m150.53 93.755 0.79375-0.79375"/>
    <path d="m150.53 92.697 0.79375 0.79375"/>
    <path d="m153.44 90.845 0.52917-0.52917"/>
    <path d="m153.44 90.316 0.52917 0.52917"/>
    <path d="m156.08 93.491 0.52916-0.52917"/>
    <path d="m156.08 92.962 0.52916 0.52917"/>
    <path d="m153.44 96.137 0.52917-0.52917"/>
    <path d="m153.44 95.608 0.52917 0.52917"/>
   </g>
   <path d="m141.8 89.258h-2.6458" stroke-dashoffset="1.2"/>
   <path d="m141.53 88.993 0.26459 0.26458-0.26459 0.26458"/>
   <path d="m139.42 88.993-0.26459 0.26458 0.26459 0.26458"/>
  </g>
  <text x="140.03084" y="89.096977" fill="#d2d6dc" font-family="'Source Sans Pro'" font-size=".79375px" font-weight="300" stroke="#d2d6dc" stroke-linecap="square" stroke-miterlimit="40" stroke-width=".026458" style="line-height:1.25" xml:space="preserve"><tspan x="140.03084" y="89.096977" fill="#d2d6dc" stroke="none" stroke-width=".026458">20</tspan></text>
  <g fill="none" stroke="#d2d6dc" stroke-linecap="square" stroke-miterlimit="40" stroke-width=".026458">
   <path d="m141.8 91.903v-2.6458" stroke-dasharray="0.0264583, 0.079375"/>
   <g>
    <path d="m144.44 91.903h-2.6458" stroke-dashoffset="1.2"/>
    <path d="m144.18 91.639 0.26458 0.26458-0.26458 0.26458"/>
    <path d="m142.06 91.639-0.26458 0.26458 0.26458 0.26458"/>
   </g>
  </g>
  <text x="142.67667" y="91.742813" fill="#d2d6dc" font-family="'Source Sans Pro'" font-size=".79375px" font-weight="300" stroke="#d2d6dc" stroke-linecap="square" stroke-miterlimit="40" stroke-width=".026458" style="line-height:1.25" xml:space="preserve"><tspan x="142.67667" y="91.742813" fill="#d2d6dc" stroke="none" stroke-width=".026458">20</tspan></text>
  <g fill="none" stroke="#d2d6dc" stroke-linecap="square" stroke-miterlimit="40" stroke-width=".026458">
   <path d="m148.41 91.903h-3.9688" stroke-dashoffset="1.2"/>
   <path d="m148.15 91.639 0.26458 0.26458-0.26458 0.26458"/>
   <path d="m144.71 91.639-0.26458 0.26458 0.26458 0.26458"/>
  </g>
  <text x="146.11626" y="91.742813" fill="#d2d6dc" font-family="'Source Sans Pro'" font-size=".79375px" font-weight="300" stroke="#d2d6dc" stroke-linecap="square" stroke-miterlimit="40" stroke-width=".026458" style="line-height:1.25" xml:space="preserve"><tspan x="146.11626" y="91.742813" fill="#d2d6dc" stroke="none" stroke-width=".026458">30</tspan></text>
  <g fill="none" stroke="#d2d6dc" stroke-linecap="square" stroke-miterlimit="40" stroke-width=".026458">
   <path d="m151.06 91.903h-2.6458" stroke-dashoffset="1.2"/>
   <path d="m150.79 91.639 0.26458 0.26458-0.26458 0.26458"/>
   <path d="m148.68 91.639-0.26458 0.26458 0.26458 0.26458"/>
  </g>
  <text x="149.29124" y="91.742813" fill="#d2d6dc" font-family="'Source Sans Pro'" font-size=".79375px" font-weight="300" stroke="#d2d6dc" stroke-linecap="square" stroke-miterlimit="40" stroke-width=".026458" style="line-height:1.25" xml:space="preserve"><tspan x="149.29124" y="91.742813" fill="#d2d6dc" stroke="none" stroke-width=".026458">20</tspan></text>
  <g fill="none" stroke="#d2d6dc" stroke-linecap="square" stroke-miterlimit="40" stroke-width=".026458">
   <path d="m153.7 87.935h-2.6458" stroke-dashoffset="1.2"/>
   <path d="m153.44 87.67 0.26459 0.26458-0.26459 0.26458"/>
   <path d="m151.32 87.67-0.26459 0.26458 0.26459 0.26458"/>
  </g>
  <text x="151.93707" y="87.774063" fill="#d2d6dc" font-family="'Source Sans Pro'" font-size=".79375px" font-weight="300" stroke="#d2d6dc" stroke-linecap="square" stroke-miterlimit="40" stroke-width=".026458" style="line-height:1.25" xml:space="preserve"><tspan x="151.93707" y="87.774063" fill="#d2d6dc" stroke="none" stroke-width=".026458">20</tspan></text>
  <g fill="none" stroke="#d2d6dc" stroke-linecap="square" stroke-miterlimit="40" stroke-width=".026458">
   <path d="m151.06 93.226v-5.2917" stroke-dasharray="0.0264583, 0.079375"/>
   <path d="m153.7 90.58v-2.6458" stroke-dasharray="0.0264583, 0.079375"/>
   <g>
    <path d="m156.35 87.935h-2.6458" stroke-dashoffset="1.2"/>
    <path d="m156.08 87.67 0.26458 0.26458-0.26458 0.26458"/>
    <path d="m153.97 87.67-0.26458 0.26458 0.26458 0.26458"/>
   </g>
  </g>
  <text x="154.58292" y="87.774063" fill="#d2d6dc" font-family="'Source Sans Pro'" font-size=".79375px" font-weight="300" stroke="#d2d6dc" stroke-linecap="square" stroke-miterlimit="40" stroke-width=".026458" style="line-height:1.25" xml:space="preserve"><tspan x="154.58292" y="87.774063" fill="#d2d6dc" stroke="none" stroke-width=".026458">20</tspan></text>
  <g fill="none" stroke="#d2d6dc" stroke-linecap="square" stroke-miterlimit="40" stroke-width=".026458">
   <path d="m156.35 93.226v-5.2917" stroke-dasharray="0.0264583, 0.079375"/>
   <g>
    <path d="m159 93.226v2.6458" stroke-dashoffset="1.2"/>
    <path d="m158.73 93.491 0.26458-0.26458 0.26459 0.26458"/>
    <path d="m158.73 95.608 0.26458 0.26458 0.26459-0.26458"/>
   </g>
  </g>
  <text x="158.02249" y="94.653229" fill="#d2d6dc" font-family="'Source Sans Pro'" font-size=".79375px" font-weight="300" stroke="#d2d6dc" stroke-linecap="square" stroke-miterlimit="40" stroke-width=".026458" style="line-height:1.25" xml:space="preserve"><tspan x="158.02249" y="94.653229" fill="#d2d6dc" stroke="none" stroke-width=".026458">20</tspan></text>
  <g fill="none" stroke="#d2d6dc" stroke-linecap="square" stroke-miterlimit="40" stroke-width=".026458">
   <path d="m159 90.58v2.6458" stroke-dashoffset="1.2"/>
   <path d="m158.73 90.845 0.26458-0.26458 0.26459 0.26458"/>
   <path d="m158.73 92.962 0.26458 0.26458 0.26459-0.26458"/>
  </g>
  <text x="158.02249" y="92.007393" fill="#d2d6dc" font-family="'Source Sans Pro'" font-size=".79375px" font-weight="300" stroke="#d2d6dc" stroke-linecap="square" stroke-miterlimit="40" stroke-width=".026458" style="line-height:1.25" xml:space="preserve"><tspan x="158.02249" y="92.007393" fill="#d2d6dc" stroke="none" stroke-width=".026458">20</tspan></text>
  <g fill="none" stroke="#d2d6dc" stroke-linecap="square" stroke-miterlimit="40" stroke-width=".026458">
   <g stroke-dasharray="0.0264583, 0.079375">
    <path d="m156.35 93.226h2.6458"/>
    <path d="m153.7 95.872h5.2917"/>
    <path d="m153.7 90.58h5.2917"/>
   </g>
   <g>
    <path d="m152.38 98.518h2.6458" stroke-dashoffset="1.2"/>
    <path d="m152.65 98.253-0.26458 0.26458 0.26458 0.26458"/>
    <path d="m154.76 98.253 0.26458 0.26458-0.26458 0.26458"/>
   </g>
  </g>
  <text x="153.25999" y="98.357399" fill="#d2d6dc" font-family="'Source Sans Pro'" font-size=".79375px" font-weight="300" stroke="#d2d6dc" stroke-linecap="square" stroke-miterlimit="40" stroke-width=".026458" style="line-height:1.25" xml:space="preserve"><tspan x="153.25999" y="98.357399" fill="#d2d6dc" stroke="none" stroke-width=".026458">20</tspan></text>
  <g fill="none" stroke="#d2d6dc" stroke-linecap="square" stroke-miterlimit="40" stroke-width=".026458">
   <path d="m143.38 92.697v1.0583" stroke-dashoffset="1.2"/>
   <path d="m143.12 92.433 0.26459 0.26458 0.26458-0.26458"/>
   <path d="m143.12 94.02 0.26459-0.26458 0.26458 0.26458"/>
  </g>
  <text x="142.57745" y="93.446068" fill="#d2d6dc" font-family="'Source Sans Pro'" font-size=".79375px" font-weight="300" stroke="#d2d6dc" stroke-linecap="square" stroke-miterlimit="40" stroke-width=".026458" style="line-height:1.25" xml:space="preserve"><tspan x="142.57745" y="93.446068" fill="#d2d6dc" stroke="none" stroke-width=".026458">8</tspan></text>
  <g fill="none" stroke="#d2d6dc" stroke-linecap="square" stroke-miterlimit="40" stroke-width=".026458">
   <path d="m161.38 86.347v0.26458" stroke-dashoffset="1.2"/>
   <path d="m161.11 86.083 0.26458 0.26458 0.26459-0.26458"/>
   <path d="m161.11 86.876 0.26458-0.26458 0.26459 0.26458"/>
  </g>
  <text x="161.67421" y="86.68383" fill="#d2d6dc" font-family="'Source Sans Pro'" font-size=".79375px" font-weight="300" stroke="#d2d6dc" stroke-linecap="square" stroke-miterlimit="40" stroke-width=".026458" style="line-height:1.25" xml:space="preserve"><tspan x="161.67421" y="86.68383" fill="#d2d6dc" stroke="none" stroke-width=".026458">2</tspan></text>
  <g fill="none" stroke="#d2d6dc" stroke-linecap="square" stroke-miterlimit="40" stroke-width=".026458">
   <path d="m141.8 94.549v5.2917" stroke-dashoffset="1.2"/>
   <path d="m141.53 94.814 0.26459-0.26458 0.26458 0.26458"/>
   <path d="m141.53 99.576 0.26459 0.26458 0.26458-0.26458"/>
  </g>
  <text x="140.82457" y="97.299065" fill="#d2d6dc" font-family="'Source Sans Pro'" font-size=".79375px" font-weight="300" stroke="#d2d6dc" stroke-linecap="square" stroke-miterlimit="40" stroke-width=".026458" style="line-height:1.25" xml:space="preserve"><tspan x="140.82457" y="97.299065" fill="#d2d6dc" stroke="none" stroke-width=".026458">40</tspan></text>
  <g fill="none" stroke="#d2d6dc" stroke-linecap="square" stroke-miterlimit="40" stroke-width=".026458">
   <path d="m144.44 93.755v6.0854" stroke-dashoffset="1.2"/>
   <path d="m144.18 94.02 0.26458-0.26458 0.26458 0.26458"/>
   <path d="m144.18 99.576 0.26458 0.26458 0.26458-0.26458"/>
  </g>
  <text x="143.47041" y="97.299065" fill="#d2d6dc" font-family="'Source Sans Pro'" font-size=".79375px" font-weight="300" stroke="#d2d6dc" stroke-linecap="square" stroke-miterlimit="40" stroke-width=".026458" style="line-height:1.25" xml:space="preserve"><tspan x="143.47041" y="97.299065" fill="#d2d6dc" stroke="none" stroke-width=".026458">50</tspan></text>
  <g fill="none" stroke="#d2d6dc" stroke-linecap="square" stroke-miterlimit="40" stroke-width=".026458">
   <path d="m151.06 94.549v5.2917" stroke-dashoffset="1.2"/>
   <path d="m150.79 94.814 0.26458-0.26458 0.26459 0.26458"/>
   <path d="m150.79 99.576 0.26458 0.26458 0.26459-0.26458"/>
  </g>
  <g stroke="#d2d6dc" stroke-miterlimit="40" stroke-width=".026458">
   <text x="150.08499" y="97.299065" fill="#d2d6dc" font-family="'Source Sans Pro'" font-size=".79375px" font-weight="300" stroke-linecap="square" style="line-height:1.25" xml:space="preserve"><tspan x="150.08499" y="97.299065" fill="#d2d6dc" stroke="none" stroke-width=".026458">40</tspan></text>
   <text x="149.29124" y="93.065727" fill="#d2d6dc" font-family="'Source Sans Pro'" font-size=".79375px" font-weight="300" stroke-linecap="square" style="line-height:1.25" xml:space="preserve"><tspan x="149.29124" y="93.065727" fill="#d2d6dc" stroke="none" stroke-width=".026458">90°</tspan></text>
   <path d="m150.31 93.226c0-0.20627 0.0836-0.39301 0.21879-0.52819m0 1.0564c-0.13518-0.13517-0.21879-0.32192-0.21879-0.52819" fill="none" stroke-linecap="round"/>
  </g>
 </g>
</svg>
