<?xml version="1.0" encoding="UTF-8"?>
<svg width="46.775mm" height="22.773mm" version="1.1" viewBox="0 0 46.775 22.773" xmlns="http://www.w3.org/2000/svg" xmlns:cc="http://creativecommons.org/ns#" xmlns:dc="http://purl.org/dc/elements/1.1/" xmlns:rdf="http://www.w3.org/1999/02/22-rdf-syntax-ns#">
 <metadata>
  <rdf:RDF>
   <cc:Work rdf:about="">
    <dc:format>image/svg+xml</dc:format>
    <dc:type rdf:resource="http://purl.org/dc/dcmitype/StillImage"/>
    <dc:title/>
   </cc:Work>
  </rdf:RDF>
 </metadata>
 <g transform="translate(-81.312 -111.12)">
  <rect x="81.312" y="111.12" width="46.775" height="22.773" fill="#121824" style="mix-blend-mode:multiply"/>
  <circle transform="scale(-1)" cx="-102.92" cy="-122.97" r=".52917" fill="#fff"/>
  <g fill="#7b8694">
   <path d="m94.985 119.01v2.6458h-2.6458v2.6458h2.6458v2.6458h2.6458v-2.6458h2.6459v-2.6458h-2.6459v-2.6458z"/>
   <circle cx="114.83" cy="122.97" r="1.3229"/>
   <circle cx="112.18" cy="120.33" r="1.3229"/>
   <circle cx="112.18" cy="125.62" r="1.3229"/>
  </g>
  <path d="m109.53 121.65a1.3229 1.3229 0 0 0-0.93533 0.38757l0.93533 0.93535-0.93533 0.93534a1.3229 1.3229 0 0 0 0.93533 0.38757 1.3229 1.3229 0 0 0 1.3229-1.3229 1.3229 1.3229 0 0 0-1.3229-1.3229z" fill="#fff"/>
  <circle transform="scale(-1)" cx="-106.89" cy="-122.97" r=".52917" fill="#fff"/>
  <g fill="#7b8694">
   <path d="m88.635 116.1h2.1167v0.26458h-2.1167z"/>
   <path d="m91.281 116.1h2.1167v0.26458h-2.1167z"/>
   <path d="m93.927 116.1h2.1167v0.26458h-2.1167z"/>
   <path d="m96.573 116.1h2.1167v0.26458h-2.1167z"/>
   <path d="m99.219 116.1h2.1167v0.26458h-2.1167z"/>
   <path d="m101.86 116.1h2.1167v0.26458h-2.1167z"/>
   <path d="m104.51 116.1h2.1167v0.26458h-2.1167z"/>
   <path d="m107.16 116.1h2.1167v0.26458h-2.1167z"/>
   <path d="m109.8 116.1h2.1167v0.26458h-2.1167z"/>
   <path d="m112.45 116.1h2.1167v0.26458h-2.1167z"/>
   <path d="m115.09 116.1h2.1167v0.26458h-2.1167z"/>
   <path d="m117.74 116.1h2.1167v0.26458h-2.1167z"/>
   <path d="m88.635 129.59h2.1167v0.26458h-2.1167z"/>
   <path d="m91.281 129.59h2.1167v0.26458h-2.1167z"/>
   <path d="m93.927 129.59h2.1167v0.26458h-2.1167z"/>
   <path d="m96.573 129.59h2.1167v0.26458h-2.1167z"/>
   <path d="m99.219 129.59h2.1167v0.26458h-2.1167z"/>
   <path d="m101.86 129.59h2.1167v0.26458h-2.1167z"/>
   <path d="m104.51 129.59h2.1167v0.26458h-2.1167z"/>
   <path d="m107.16 129.59h2.1167v0.26458h-2.1167z"/>
   <path d="m109.8 129.59h2.1167v0.26458h-2.1167z"/>
   <path d="m112.45 129.59h2.1167v0.26458h-2.1167z"/>
   <path d="m115.09 129.59h2.1167v0.26458h-2.1167z"/>
   <path d="m117.74 129.59h2.1167v0.26458h-2.1167z"/>
  </g>
 </g>
</svg>
