<?xml version="1.0" encoding="UTF-8"?>
<svg width="46.775mm" height="22.773mm" version="1.1" viewBox="0 0 46.775 22.773" xmlns="http://www.w3.org/2000/svg" xmlns:cc="http://creativecommons.org/ns#" xmlns:dc="http://purl.org/dc/elements/1.1/" xmlns:rdf="http://www.w3.org/1999/02/22-rdf-syntax-ns#">
 <metadata>
  <rdf:RDF>
   <cc:Work rdf:about="">
    <dc:format>image/svg+xml</dc:format>
    <dc:type rdf:resource="http://purl.org/dc/dcmitype/StillImage"/>
    <dc:title/>
   </cc:Work>
  </rdf:RDF>
 </metadata>
 <g transform="translate(-81.312 -111.12)">
  <rect x="81.312" y="111.12" width="46.775" height="22.773" fill="#121824" style="mix-blend-mode:multiply"/>
  <rect x="88.654" y="116.23" width="31.75" height="13.229" fill="#1d232d" style="paint-order:normal"/>
  <circle transform="scale(-1)" cx="-103.21" cy="-122.84" r=".52917" fill="#fff"/>
  <path d="m95.269 118.87v2.6458h-2.6458v2.6458h2.6458v2.6458h2.6458v-2.6458h2.6458v-2.6458h-2.6458v-2.6458z" fill="#7b8694"/>
  <circle cx="115.11" cy="122.84" r="1.3229" fill="#47d58a"/>
  <circle cx="112.47" cy="120.2" r="1.3229" fill="#cf2f25"/>
  <circle cx="112.47" cy="125.49" r="1.3229" fill="#2c57df"/>
  <path d="m109.81 121.52a1.3229 1.3229 0 0 0-0.93533 0.38757l0.93533 0.93535-0.93533 0.93534a1.3229 1.3229 0 0 0 0.93533 0.38757 1.3229 1.3229 0 0 0 1.3229-1.3229 1.3229 1.3229 0 0 0-1.3229-1.3229z" fill="#e9e56f"/>
  <circle transform="scale(-1)" cx="-107.18" cy="-122.84" r=".52917" fill="#fff"/>
  <g fill="#7b8694">
   <path d="m88.919 115.96h2.1167v0.26458h-2.1167z"/>
   <path d="m91.565 115.96h2.1167v0.26458h-2.1167z"/>
   <path d="m94.211 115.96h2.1167v0.26458h-2.1167z"/>
   <path d="m96.856 115.96h2.1167v0.26458h-2.1167z"/>
   <path d="m99.502 115.96h2.1167v0.26458h-2.1167z"/>
   <path d="m102.15 115.96h2.1167v0.26458h-2.1167z"/>
   <path d="m104.79 115.96h2.1167v0.26458h-2.1167z"/>
   <path d="m107.44 115.96h2.1167v0.26458h-2.1167z"/>
   <path d="m110.09 115.96h2.1167v0.26458h-2.1167z"/>
   <path d="m112.73 115.96h2.1167v0.26458h-2.1167z"/>
   <path d="m115.38 115.96h2.1167v0.26458h-2.1167z"/>
   <path d="m118.02 115.96h2.1167v0.26458h-2.1167z"/>
   <path d="m88.919 129.46h2.1167v0.26458h-2.1167z"/>
   <path d="m91.565 129.46h2.1167v0.26458h-2.1167z"/>
   <path d="m94.211 129.46h2.1167v0.26458h-2.1167z"/>
   <path d="m96.856 129.46h2.1167v0.26458h-2.1167z"/>
   <path d="m99.502 129.46h2.1167v0.26458h-2.1167z"/>
   <path d="m102.15 129.46h2.1167v0.26458h-2.1167z"/>
   <path d="m104.79 129.46h2.1167v0.26458h-2.1167z"/>
   <path d="m107.44 129.46h2.1167v0.26458h-2.1167z"/>
   <path d="m110.09 129.46h2.1167v0.26458h-2.1167z"/>
   <path d="m112.73 129.46h2.1167v0.26458h-2.1167z"/>
   <path d="m115.38 129.46h2.1167v0.26458h-2.1167z"/>
   <path d="m118.02 129.46h2.1167v0.26458h-2.1167z"/>
  </g>
 </g>
</svg>
