<svg width="34.416mm" height="19.864mm" version="1.1" viewBox="0 0 34.416 19.864" xmlns="http://www.w3.org/2000/svg">
 <g transform="translate(-74.429 -59.313)">
  <rect x="74.439" y="59.323" width="34.396" height="19.844" fill="#03060c" stroke="#000" stroke-dashoffset="1.2" stroke-linecap="square" stroke-miterlimit="40" stroke-width=".020293"/>
  <g fill="#7b8694" stroke="#2f3744" stroke-dashoffset="1.2" stroke-linecap="square" stroke-miterlimit="40" stroke-width=".026458">
   <path d="m79.744 63.278v13.229"/>
   <path d="m82.39 63.278v13.229"/>
   <path d="m85.036 63.278v13.229"/>
   <path d="m87.682 63.278v13.229"/>
   <path d="m90.327 63.278v13.229"/>
   <path d="m92.973 63.278v13.229"/>
   <path d="m95.619 63.278v13.229"/>
   <path d="m98.265 63.278v13.229"/>
   <path d="m78.421 64.601h19.844"/>
   <path d="m78.421 63.278h19.844"/>
   <path d="m78.421 65.924h19.844"/>
   <path d="m78.421 68.57h19.844"/>
   <path d="m78.421 71.216h19.844"/>
   <path d="m78.421 73.862h19.844"/>
   <path d="m78.421 76.507h19.844"/>
   <path d="m78.421 75.185h19.844"/>
   <path d="m78.421 72.539h19.844"/>
   <path d="m78.421 69.893h19.844"/>
   <path d="m78.421 67.247h19.844"/>
   <path d="m78.421 63.278v13.229"/>
   <path d="m81.067 63.278v13.229"/>
   <path d="m83.713 63.278v13.229"/>
   <path d="m86.359 63.278v13.229"/>
   <path d="m89.004 63.278v13.229"/>
   <path d="m91.65 63.278v13.229"/>
   <path d="m94.296 63.278v13.229"/>
   <path d="m96.942 63.278v13.229"/>
  </g>
  <path d="m77.098 63.278h-0.79375v13.229h0.79375" fill="none" stroke="#d2d6dc" stroke-dashoffset="1.2" stroke-linecap="square" stroke-miterlimit="40" stroke-width=".026458"/>
  <path d="m78.421 61.955v-0.79375h19.844v0.79375" fill="none" stroke="#d2d6dc" stroke-dashoffset="1.2" stroke-linecap="square" stroke-miterlimit="40" stroke-width=".026458"/>
  <g>
   <g fill="#d2d6dc" stroke-linecap="square" stroke-miterlimit="40" stroke-width=".026458" aria-label="150">
    <path d="m87.834 61.001h0.26511v-0.03096h-0.11033v-0.47625h-0.02858c-0.02381 0.01349-0.05636 0.02461-0.09763 0.03175v0.02381h0.09049v0.42069h-0.11906z"/>
    <path d="m88.168 60.942c0.03254 0.03254 0.07858 0.06826 0.15954 0.06826 0.08176 0 0.16192-0.06112 0.16192-0.16907 0-0.11112-0.06906-0.16034-0.15478-0.16034-0.03731 0-0.06429 0.01111-0.09049 0.02699l0.01588-0.18336h0.20241v-0.03096h-0.23416l-0.01826 0.23733 0.02461 0.01508c0.03016-0.02064 0.05556-0.03413 0.09446-0.03413 0.07541 0 0.12382 0.04921 0.12382 0.13097 0 0.08176-0.05874 0.13652-0.12621 0.13652-0.06906 0-0.10874-0.03096-0.13891-0.06191z"/>
    <path d="m88.717 61.011c0.09684 0 0.15161-0.09604 0.15161-0.26511 0-0.16828-0.05477-0.26114-0.15161-0.26114-0.09684 0-0.15161 0.09287-0.15161 0.26114 0 0.16907 0.05477 0.26511 0.15161 0.26511zm0-0.03016c-0.06985 0-0.11589-0.08017-0.11589-0.23495 0-0.15478 0.04604-0.23098 0.11589-0.23098 0.07064 0 0.11589 0.0762 0.11589 0.23098s-0.04524 0.23495-0.11589 0.23495z"/>
   </g>
   <g fill="#d2d6dc" stroke-linecap="square" stroke-miterlimit="40" stroke-width=".026458" aria-label="100">
    <path d="m75.134 70.261h0.26511v-0.03096h-0.11033v-0.47625h-0.02857c-0.02381 0.01349-0.05636 0.02461-0.09763 0.03175v0.02381h0.09049v0.42069h-0.11906z"/>
    <path d="m75.637 70.271c0.09684 0 0.15161-0.09604 0.15161-0.26511 0-0.16828-0.05477-0.26114-0.15161-0.26114-0.09684 0-0.15161 0.09287-0.15161 0.26114 0 0.16907 0.05477 0.26511 0.15161 0.26511zm0-0.03016c-0.06985 0-0.11589-0.08017-0.11589-0.23495 0-0.15478 0.04604-0.23098 0.11589-0.23098 0.07064 0 0.11589 0.0762 0.11589 0.23098s-0.04524 0.23495-0.11589 0.23495z"/>
    <path d="m76.017 70.271c0.09684 0 0.15161-0.09604 0.15161-0.26511 0-0.16828-0.05477-0.26114-0.15161-0.26114-0.09684 0-0.15161 0.09287-0.15161 0.26114 0 0.16907 0.05477 0.26511 0.15161 0.26511zm0-0.03016c-0.06985 0-0.11589-0.08017-0.11589-0.23495 0-0.15478 0.04604-0.23098 0.11589-0.23098 0.07064 0 0.11589 0.0762 0.11589 0.23098s-0.04524 0.23495-0.11589 0.23495z"/>
   </g>
   <path d="m86.893 66.666 1.3696 5.1114-5.1114 1.3696-1.3696-5.1114z" fill="#cf2f25"/>
  </g>
  <g fill="none" stroke="#d2d6dc" stroke-linecap="square" stroke-miterlimit="40" stroke-width=".026458">
   <path d="m85.036 63.29v6.5805"/>
   <path d="m84.771 69.63 0.26458 0.26458 0.26458-0.26458"/>
   <path d="m84.771 63.544 0.26458-0.26458 0.26458 0.26458"/>
  </g>
  <g fill="#d2d6dc" stroke-linecap="square" stroke-miterlimit="40" stroke-width=".026458" aria-label="50">
   <path d="m84.084 66.764c0.03254 0.03254 0.07858 0.06826 0.15954 0.06826 0.08176 0 0.16192-0.06112 0.16192-0.16907 0-0.11112-0.06906-0.16034-0.15478-0.16034-0.03731 0-0.06429 0.01111-0.09049 0.02699l0.01588-0.18336h0.20241v-0.03096h-0.23416l-0.01826 0.23733 0.02461 0.01508c0.03016-0.02064 0.05556-0.03413 0.09446-0.03413 0.07541 0 0.12382 0.04921 0.12382 0.13097 0 0.08176-0.05874 0.13652-0.12621 0.13652-0.06906 0-0.10874-0.03096-0.13891-0.06191z"/>
   <path d="m84.633 66.833c0.09684 0 0.15161-0.09604 0.15161-0.26511 0-0.16828-0.05477-0.26114-0.15161-0.26114-0.09684 0-0.15161 0.09287-0.15161 0.26114 0 0.16907 0.05477 0.26511 0.15161 0.26511zm0-0.03016c-0.06985 0-0.11589-0.08017-0.11589-0.23495 0-0.15478 0.04604-0.23098 0.11589-0.23098 0.07064 0 0.11589 0.0762 0.11589 0.23098 0 0.15478-0.04524 0.23495-0.11589 0.23495z"/>
  </g>
  <g fill="none" stroke="#d2d6dc" stroke-linecap="square" stroke-miterlimit="40" stroke-width=".026458">
   <path d="m78.43 69.894h6.5805"/>
   <path d="m84.77 70.159 0.26458-0.26458-0.26458-0.26458"/>
   <path d="m78.685 70.159-0.26458-0.26458 0.26458-0.26458"/>
  </g>
  <g fill="#d2d6dc" stroke-linecap="square" stroke-miterlimit="40" stroke-width=".026458" aria-label="50">
   <path d="m81.438 69.675c0.03254 0.03254 0.07858 0.06826 0.15954 0.06826 0.08176 0 0.16192-0.06112 0.16192-0.16907 0-0.11112-0.06906-0.16034-0.15478-0.16034-0.03731 0-0.06429 0.01111-0.09049 0.02699l0.01588-0.18336h0.20241v-0.03096h-0.23416l-0.01826 0.23733 0.02461 0.01508c0.03016-0.02064 0.05556-0.03413 0.09446-0.03413 0.07541 0 0.12382 0.04921 0.12382 0.13097 0 0.08176-0.05874 0.13652-0.12621 0.13652-0.06906 0-0.10874-0.03096-0.13891-0.06191z"/>
   <path d="m81.987 69.743c0.09684 0 0.15161-0.09604 0.15161-0.26511 0-0.16828-0.05477-0.26114-0.15161-0.26114-0.09684 0-0.15161 0.09287-0.15161 0.26114 0 0.16907 0.05477 0.26511 0.15161 0.26511zm0-0.03016c-0.06985 0-0.11589-0.08017-0.11589-0.23495 0-0.15478 0.04604-0.23098 0.11589-0.23098 0.07064 0 0.11589 0.0762 0.11589 0.23098s-0.04524 0.23495-0.11589 0.23495z"/>
  </g>
  <g fill="none" stroke="#d2d6dc" stroke-linecap="square" stroke-miterlimit="40" stroke-width=".026458">
   <path d="m85.045 75.98h5.2576"/>
   <path d="m90.062 76.244 0.26458-0.26458-0.26458-0.26458"/>
   <path d="m85.3 76.244-0.26458-0.26458 0.26458-0.26458"/>
  </g>
  <g>
   <g fill="#d2d6dc" stroke-linecap="square" stroke-miterlimit="40" stroke-width=".026458" aria-label="40">
    <path d="m87.294 75.637 0.14922-0.20955c0.01429-0.02302 0.02858-0.04207 0.04127-0.0635h0.0032c-0.0016 0.02302-0.0032 0.06429-0.0032 0.08731v0.18574zm0.30004 0h-0.07541v-0.32544h-0.03175l-0.23574 0.33496v0.02064h0.23336v0.15161h0.03413v-0.15161h0.07541z"/>
    <path d="m87.808 75.828c0.09684 0 0.15161-0.09604 0.15161-0.26511 0-0.16828-0.05477-0.26114-0.15161-0.26114-0.09684 0-0.15161 0.09287-0.15161 0.26114 0 0.16907 0.05477 0.26511 0.15161 0.26511zm0-0.03016c-0.06985 0-0.11589-0.08017-0.11589-0.23495 0-0.15478 0.04604-0.23098 0.11589-0.23098 0.07064 0 0.11589 0.0762 0.11589 0.23098s-0.04524 0.23495-0.11589 0.23495z"/>
   </g>
   <g fill="#d2d6dc" stroke-linecap="square" stroke-miterlimit="40" stroke-width=".026458" aria-label="pivot">
    <path d="m85.759 69.432c0.03969 0.02937 0.07858 0.04683 0.1143 0.04683 0.08969 0 0.16828-0.0762 0.16828-0.20558 0-0.11827-0.0508-0.19447-0.1524-0.19447-0.04683 0-0.09208 0.02778-0.12938 0.05715h-0.0024l-0.0032-0.04763h-0.03016v0.55324h0.03493v-0.13891zm0-0.03334v-0.22622c0.04604-0.04048 0.08652-0.06271 0.12462-0.06271 0.08731 0 0.12065 0.06985 0.12065 0.16351 0 0.10319-0.05556 0.17462-0.13256 0.17462-0.02937 0-0.06906-0.01349-0.11271-0.04921z"/>
    <path d="m86.174 68.996c0.01746 0 0.03175-0.0127 0.03175-0.03096 0-0.01984-0.01429-0.03175-0.03175-0.03175s-0.03175 0.01191-0.03175 0.03175c0 0.01826 0.01429 0.03096 0.03175 0.03096zm-0.01826 0.47308h0.03493v-0.381h-0.03493z"/>
    <path d="m86.417 69.469h0.04127l0.14129-0.381h-0.03572l-0.08572 0.23892c-0.0127 0.03651-0.02619 0.07461-0.03889 0.10954h-0.0032c-0.01191-0.03493-0.02619-0.07303-0.0381-0.10954l-0.08572-0.23892h-0.0381z"/>
    <path d="m86.65 69.279c0 0.12621 0.07937 0.19923 0.17066 0.19923 0.09207 0 0.17145-0.07303 0.17145-0.19923 0-0.12779-0.07937-0.20082-0.17145-0.20082-0.09128 0-0.17066 0.07303-0.17066 0.20082zm0.03651 0c0-0.10081 0.05715-0.16986 0.13414-0.16986 0.07699 0 0.13494 0.06906 0.13494 0.16986 0 0.10001-0.05794 0.16828-0.13494 0.16828-0.07699 0-0.13414-0.06826-0.13414-0.16828z"/>
    <path d="m87.115 69.363c0 0.06826 0.02143 0.11509 0.09525 0.11509 0.01587 0 0.03969-0.0064 0.06191-0.01429l-0.0095-0.02858c-0.01349 0.0064-0.03334 0.01191-0.04762 0.01191-0.05239 0-0.06429-0.03254-0.06429-0.08096v-0.24844h0.11033v-0.03016h-0.11036v-0.11033h-0.03016l-0.0048 0.11033-0.06032 0.0032v0.02699h0.05953z"/>
   </g>
   <circle cx="85.023" cy="69.906" r=".63313" fill="none" stroke="#d2d6dc" stroke-dashoffset="1.2" stroke-linecap="round" stroke-width=".052917"/>
   <g fill="#d2d6dc" stroke-linecap="square" stroke-miterlimit="40" stroke-width=".026458" aria-label="x: 50 y: 50 size: 40 scale: 1 pivot: [20, 20] rotation: 5/12 PI">
    <path d="m102.33 63.829h0.0373l0.0651-0.10398c0.0151-0.02381 0.0286-0.04762 0.0437-0.06985h3e-3c0.0159 0.02222 0.031 0.04604 0.0452 0.06985l0.0675 0.10398h0.0389l-0.12938-0.19606 0.11826-0.18494h-0.0365l-0.0595 0.09684c-0.0135 0.02064-0.0254 0.04207-0.0389 0.06271h-3e-3c-0.0143-0.02064-0.0278-0.04207-0.0405-0.06271l-0.0619-0.09684h-0.0389l0.11907 0.18177z"/>
    <path d="m102.7 63.499c0 0.02222 0.0167 0.03572 0.0341 0.03572 0.0175 0 0.0333-0.01349 0.0333-0.03572 0-0.02302-0.0159-0.03651-0.0333-0.03651-0.0175 0-0.0341 0.01349-0.0341 0.03651zm0 0.30321c0 0.02222 0.0167 0.03572 0.0341 0.03572 0.0175 0 0.0333-0.01349 0.0333-0.03572 0-0.02302-0.0159-0.03651-0.0333-0.03651-0.0175 0-0.0341 0.01349-0.0341 0.03651z"/>
    <path d="m102.99 63.77c0.0326 0.03254 0.0786 0.06826 0.15955 0.06826 0.0817 0 0.16192-0.06112 0.16192-0.16907 0-0.11112-0.069-0.16034-0.15478-0.16034-0.0373 0-0.0643 0.01111-0.0905 0.02699l0.0159-0.18336h0.20241v-0.03096h-0.23416l-0.0183 0.23733 0.0246 0.01508c0.0302-0.02064 0.0556-0.03413 0.0945-0.03413 0.0754 0 0.12382 0.04921 0.12382 0.13097 0 0.08176-0.0587 0.13652-0.12621 0.13652-0.0691 0-0.10874-0.03096-0.1389-0.06191z"/>
    <path d="m103.54 63.838c0.0968 0 0.15161-0.09604 0.15161-0.26511 0-0.16828-0.0548-0.26114-0.15161-0.26114-0.0968 0-0.1516 0.09287-0.1516 0.26114 0 0.16907 0.0548 0.26511 0.1516 0.26511zm0-0.03016c-0.0699 0-0.11588-0.08017-0.11588-0.23495 0-0.15478 0.046-0.23098 0.11588-0.23098 0.0707 0 0.11589 0.0762 0.11589 0.23098s-0.0452 0.23495-0.11589 0.23495z"/>
    <path d="m102.35 64.956-8e-3 0.03096c0.0103 0.0048 0.0246 0.0079 0.0389 0.0079 0.0683 0 0.10636-0.06271 0.12779-0.12621l0.15081-0.42862h-0.0357l-0.0817 0.23971c-0.0103 0.03175-0.023 0.07303-0.0349 0.10636h-3e-3c-0.0143-0.03334-0.0294-0.07461-0.0413-0.10636l-0.0921-0.23971h-0.0381l0.15637 0.38814-0.0103 0.03334c-0.019 0.05794-0.0508 0.10081-0.0976 0.10081-0.0111 0-0.023-0.0032-0.031-0.0063z"/>
    <path d="m102.72 64.492c0 0.02223 0.0167 0.03572 0.0341 0.03572 0.0175 0 0.0333-0.01349 0.0333-0.03572 0-0.02302-0.0159-0.03651-0.0333-0.03651-0.0175 0-0.0341 0.01349-0.0341 0.03651zm0 0.30321c0 0.02223 0.0167 0.03572 0.0341 0.03572 0.0175 0 0.0333-0.01349 0.0333-0.03572 0-0.02302-0.0159-0.03651-0.0333-0.03651-0.0175 0-0.0341 0.01349-0.0341 0.03651z"/>
    <path d="m103.02 64.762c0.0325 0.03254 0.0786 0.06826 0.15954 0.06826 0.0818 0 0.16193-0.06112 0.16193-0.16907 0-0.11112-0.0691-0.16034-0.15478-0.16034-0.0373 0-0.0643 0.01111-0.0905 0.02699l0.0159-0.18336h0.20241v-0.03096h-0.23416l-0.0183 0.23733 0.0246 0.01508c0.0302-0.02064 0.0556-0.03413 0.0945-0.03413 0.0754 0 0.12383 0.04921 0.12383 0.13097 0 0.08176-0.0587 0.13652-0.12621 0.13652-0.0691 0-0.10874-0.03096-0.13891-0.06191z"/>
    <path d="m103.57 64.831c0.0968 0 0.15161-0.09604 0.15161-0.26511 0-0.16828-0.0548-0.26114-0.15161-0.26114-0.0968 0-0.15161 0.09287-0.15161 0.26114 0 0.16907 0.0548 0.26511 0.15161 0.26511zm0-0.03016c-0.0699 0-0.11589-0.08017-0.11589-0.23495 0-0.15478 0.046-0.23098 0.11589-0.23098 0.0706 0 0.11589 0.0762 0.11589 0.23098 0 0.15478-0.0453 0.23495-0.11589 0.23495z"/>
    <path d="m102.34 65.77c0.0341 0.02858 0.0833 0.05239 0.1397 0.05239 0.0825 0 0.12859-0.05001 0.12859-0.10716 0-0.07461-0.0651-0.09446-0.12462-0.11668-0.0452-0.01667-0.0897-0.03493-0.0897-0.07699 0-0.03493 0.027-0.06906 0.0857-0.06906 0.0389 0 0.0659 0.01508 0.0913 0.03413l0.019-0.02461c-0.0278-0.02302-0.0683-0.03969-0.10874-0.03969-0.0794 0-0.12303 0.04604-0.12303 0.1016 0 0.06509 0.0635 0.08811 0.12144 0.10874 0.0437 0.01588 0.0929 0.03651 0.0929 0.08414 0 0.04048-0.0309 0.07541-0.0905 0.07541-0.0548 0-0.0889-0.02143-0.12144-0.04842z"/>
    <path d="m102.73 65.34c0.0175 0 0.0318-0.0127 0.0318-0.03096 0-0.01984-0.0143-0.03175-0.0318-0.03175s-0.0317 0.01191-0.0317 0.03175c0 0.01826 0.0143 0.03096 0.0317 0.03096zm-0.0183 0.47308h0.0349v-0.381h-0.0349z"/>
    <path d="m102.84 65.813h0.27861v-0.03096h-0.23257l0.22463-0.33179v-0.01826h-0.24606v0.03016h0.20081l-0.22542 0.33179z"/>
    <path d="m103.18 65.623c0 0.12462 0.0786 0.19923 0.17621 0.19923 0.0556 0 0.0897-0.01905 0.11986-0.03731l-0.0143-0.02699c-0.0286 0.02064-0.0611 0.03413-0.10239 0.03413-0.0857 0-0.14208-0.06906-0.14367-0.1651h0.27464c2e-3 -0.0095 2e-3 -0.01905 2e-3 -0.02858 0-0.11192-0.0556-0.17621-0.14605-0.17621-0.0849 0-0.1659 0.0762-0.1659 0.20082zm0.0357-0.02302c8e-3 -0.09128 0.0659-0.14764 0.13097-0.14764 0.0683 0 0.11192 0.05001 0.11192 0.14764z"/>
    <path d="m103.57 65.484c0 0.02223 0.0167 0.03572 0.0341 0.03572 0.0175 0 0.0333-0.01349 0.0333-0.03572 0-0.02302-0.0159-0.03651-0.0333-0.03651-0.0175 0-0.0341 0.01349-0.0341 0.03651zm0 0.30321c0 0.02223 0.0167 0.03572 0.0341 0.03572 0.0175 0 0.0333-0.01349 0.0333-0.03572 0-0.02302-0.0159-0.03651-0.0333-0.03651-0.0175 0-0.0341 0.01349-0.0341 0.03651z"/>
    <path d="m103.91 65.631 0.14923-0.20955c0.0143-0.02302 0.0286-0.04207 0.0413-0.0635h3e-3c-2e-3 0.02302-3e-3 0.06429-3e-3 0.08731v0.18574zm0.30004 0h-0.0754v-0.32544h-0.0318l-0.23575 0.33496v0.02064h0.23336v0.15161h0.0341v-0.15161h0.0754z"/>
    <path d="m104.42 65.823c0.0968 0 0.15161-0.09604 0.15161-0.26511 0-0.16828-0.0548-0.26114-0.15161-0.26114-0.0968 0-0.15161 0.09287-0.15161 0.26114 0 0.16907 0.0548 0.26511 0.15161 0.26511zm0-0.03016c-0.0699 0-0.11589-0.08017-0.11589-0.23495 0-0.15478 0.046-0.23098 0.11589-0.23098 0.0706 0 0.11589 0.0762 0.11589 0.23098s-0.0453 0.23495-0.11589 0.23495z"/>
    <path d="m102.34 66.763c0.0341 0.02858 0.0833 0.05239 0.1397 0.05239 0.0825 0 0.12859-0.05001 0.12859-0.10716 0-0.07461-0.0651-0.09446-0.12462-0.11668-0.0452-0.01667-0.0897-0.03492-0.0897-0.07699 0-0.03493 0.027-0.06906 0.0857-0.06906 0.0389 0 0.0659 0.01508 0.0913 0.03413l0.019-0.02461c-0.0278-0.02302-0.0683-0.03969-0.10874-0.03969-0.0794 0-0.12303 0.04604-0.12303 0.1016 0 0.06509 0.0635 0.08811 0.12144 0.10874 0.0437 0.01588 0.0929 0.03651 0.0929 0.08414 0 0.04048-0.0309 0.07541-0.0905 0.07541-0.0548 0-0.0889-0.02143-0.12144-0.04842z"/>
    <path d="m102.68 66.616c0 0.12621 0.0746 0.19923 0.17304 0.19923 0.0484 0 0.0889-0.02143 0.12144-0.0508l-0.0183-0.02381c-0.0262 0.02381-0.0611 0.04366-0.1016 0.04366-0.0833 0-0.13811-0.06826-0.13811-0.16828 0-0.10081 0.0603-0.16986 0.13811-0.16986 0.0373 0 0.0659 0.01746 0.0905 0.04048l0.0206-0.02461c-0.0254-0.02381-0.0595-0.04683-0.11192-0.04683-0.0929 0-0.17383 0.07303-0.17383 0.20082z"/>
    <path d="m103.04 66.71c0 0.07223 0.0508 0.10478 0.11113 0.10478 0.05 0 0.096-0.02778 0.13494-0.05874h2e-3l4e-3 0.04921h0.0294v-0.24368c0-0.08176-0.0302-0.14684-0.12065-0.14684-0.0619 0-0.1143 0.03016-0.14129 0.04921l0.0159 0.02619c0.0254-0.01905 0.0699-0.04445 0.12144-0.04445 0.0746 0 0.0913 0.06271 0.0897 0.12065-0.16907 0.01905-0.24607 0.05953-0.24607 0.14367zm0.0365-0.0016c0-0.06033 0.0532-0.09684 0.20955-0.11509v0.12938c-0.0468 0.04048-0.0857 0.06191-0.12939 0.06191-0.0436 0-0.0802-0.02143-0.0802-0.0762z"/>
    <path d="m103.46 66.755c0 0.04127 0.0159 0.06032 0.0468 0.06032 0.0111 0 0.0183-0.0016 0.0254-4e-3l-6e-3 -0.02858c-8e-3 0.0016-0.0111 0.0016-0.0143 0.0016-0.01 0-0.0167-0.0079-0.0167-0.02461v-0.52467h-0.0349z"/>
    <path d="m103.61 66.616c0 0.12462 0.0786 0.19923 0.17622 0.19923 0.0556 0 0.0897-0.01905 0.11985-0.03731l-0.0143-0.02699c-0.0286 0.02064-0.0611 0.03413-0.1024 0.03413-0.0857 0-0.14208-0.06906-0.14367-0.1651h0.27464c2e-3 -0.0095 2e-3 -0.01905 2e-3 -0.02858 0-0.11192-0.0556-0.17621-0.14605-0.17621-0.0849 0-0.1659 0.0762-0.1659 0.20082zm0.0357-0.02302c8e-3 -0.09128 0.0659-0.14764 0.13097-0.14764 0.0683 0 0.11192 0.05001 0.11192 0.14764z"/>
    <path d="m104.01 66.476c0 0.02223 0.0167 0.03572 0.0341 0.03572 0.0175 0 0.0333-0.01349 0.0333-0.03572 0-0.02302-0.0159-0.03651-0.0333-0.03651-0.0175 0-0.0341 0.01349-0.0341 0.03651zm0 0.30321c0 0.02223 0.0167 0.03572 0.0341 0.03572 0.0175 0 0.0333-0.01349 0.0333-0.03572 0-0.02302-0.0159-0.03651-0.0333-0.03651-0.0175 0-0.0341 0.01349-0.0341 0.03651z"/>
    <path d="m104.35 66.805h0.26511v-0.03096h-0.11033v-0.47625h-0.0286c-0.0238 0.01349-0.0564 0.02461-0.0976 0.03175v0.02381h0.0905v0.42069h-0.11906z"/>
    <path d="m102.43 67.76c0.0397 0.02937 0.0786 0.04683 0.1143 0.04683 0.0897 0 0.16828-0.0762 0.16828-0.20558 0-0.11827-0.0508-0.19447-0.1524-0.19447-0.0468 0-0.0921 0.02778-0.12938 0.05715h-2e-3l-3e-3 -0.04762h-0.0302v0.55324h0.0349v-0.13891zm0-0.03334v-0.22622c0.046-0.04048 0.0865-0.06271 0.12462-0.06271 0.0873 0 0.12065 0.06985 0.12065 0.16351 0 0.10319-0.0556 0.17462-0.13255 0.17462-0.0294 0-0.0691-0.01349-0.11272-0.04921z"/>
    <path d="m102.84 67.324c0.0175 0 0.0318-0.0127 0.0318-0.03096 0-0.01984-0.0143-0.03175-0.0318-0.03175s-0.0318 0.01191-0.0318 0.03175c0 0.01826 0.0143 0.03096 0.0318 0.03096zm-0.0183 0.47308h0.0349v-0.381h-0.0349z"/>
    <path d="m103.09 67.798h0.0413l0.14129-0.381h-0.0357l-0.0857 0.23892c-0.0127 0.03651-0.0262 0.07461-0.0389 0.10954h-3e-3c-0.0119-0.03493-0.0262-0.07303-0.0381-0.10954l-0.0857-0.23892h-0.0381z"/>
    <path d="m103.32 67.608c0 0.12621 0.0794 0.19923 0.17066 0.19923 0.0921 0 0.17145-0.07303 0.17145-0.19923 0-0.12779-0.0794-0.20082-0.17145-0.20082-0.0913 0-0.17066 0.07303-0.17066 0.20082zm0.0365 0c0-0.10081 0.0572-0.16986 0.13415-0.16986 0.077 0 0.13493 0.06906 0.13493 0.16986 0 0.10001-0.0579 0.16828-0.13493 0.16828-0.077 0-0.13415-0.06826-0.13415-0.16828z"/>
    <path d="m103.78 67.692c0 0.06826 0.0214 0.11509 0.0952 0.11509 0.0159 0 0.0397-0.0063 0.0619-0.01429l-0.01-0.02858c-0.0135 0.0063-0.0333 0.01191-0.0476 0.01191-0.0524 0-0.0643-0.03254-0.0643-0.08096v-0.24844h0.11033v-0.03016h-0.11033v-0.11033h-0.0302l-5e-3 0.11033-0.0603 0.0032v0.02699h0.0595z"/>
    <path d="m104.02 67.468c0 0.02223 0.0167 0.03572 0.0341 0.03572 0.0175 0 0.0333-0.01349 0.0333-0.03572 0-0.02302-0.0159-0.03651-0.0333-0.03651-0.0175 0-0.0341 0.01349-0.0341 0.03651zm0 0.30321c0 0.02223 0.0167 0.03572 0.0341 0.03572 0.0175 0 0.0333-0.01349 0.0333-0.03572 0-0.02302-0.0159-0.03651-0.0333-0.03651-0.0175 0-0.0341 0.01349-0.0341 0.03651z"/>
    <path d="m104.38 67.918h0.127v-0.02302h-0.0992v-0.635h0.0992v-0.02461h-0.127z"/>
    <path d="m104.55 67.798h0.31115v-0.03175h-0.17303c-0.0278 0-0.0571 0.0024-0.0849 4e-3 0.1405-0.14922 0.23257-0.24606 0.23257-0.34687 0-0.08572-0.0524-0.14208-0.14287-0.14208-0.0619 0-0.10636 0.03254-0.14446 0.07461l0.023 0.02223c0.031-0.0381 0.0722-0.06668 0.11827-0.06668 0.0762 0 0.11033 0.04921 0.11033 0.11271 0 0.08811-0.0833 0.18256-0.25003 0.35163z"/>
    <path d="m105.09 67.807c0.0968 0 0.1516-0.09604 0.1516-0.26511 0-0.16828-0.0548-0.26114-0.1516-0.26114s-0.15161 0.09287-0.15161 0.26114c0 0.16907 0.0548 0.26511 0.15161 0.26511zm0-0.03016c-0.0699 0-0.11589-0.08017-0.11589-0.23495 0-0.15478 0.046-0.23098 0.11589-0.23098 0.0706 0 0.11588 0.0762 0.11588 0.23098s-0.0452 0.23495-0.11588 0.23495z"/>
    <path d="m105.33 67.921c0.0476-0.0254 0.0817-0.07144 0.0817-0.12938 0-0.03493-0.0167-0.05636-0.0405-0.05636-0.0175 0-0.0341 0.01191-0.0341 0.03334s0.0151 0.03334 0.0333 0.03334c3e-3 0 6e-3 0 0.01-7.93e-4 -7.9e-4 0.04366-0.0254 0.07699-0.0611 0.09604z"/>
    <path d="m105.64 67.798h0.31115v-0.03175h-0.17304c-0.0278 0-0.0572 0.0024-0.0849 4e-3 0.14049-0.14922 0.23257-0.24606 0.23257-0.34687 0-0.08572-0.0524-0.14208-0.14288-0.14208-0.0619 0-0.10636 0.03254-0.14446 0.07461l0.023 0.02223c0.031-0.0381 0.0722-0.06668 0.11827-0.06668 0.0762 0 0.11033 0.04921 0.11033 0.11271 0 0.08811-0.0833 0.18256-0.25003 0.35163z"/>
    <path d="m106.18 67.807c0.0968 0 0.15161-0.09604 0.15161-0.26511 0-0.16828-0.0548-0.26114-0.15161-0.26114-0.0968 0-0.1516 0.09287-0.1516 0.26114 0 0.16907 0.0548 0.26511 0.1516 0.26511zm0-0.03016c-0.0698 0-0.11588-0.08017-0.11588-0.23495 0-0.15478 0.046-0.23098 0.11588-0.23098 0.0707 0 0.11589 0.0762 0.11589 0.23098s-0.0452 0.23495-0.11589 0.23495z"/>
    <path d="m106.39 67.895v0.02302h0.127v-0.68262h-0.127v0.02461h0.0992v0.635z"/>
    <path d="m102.39 68.79h0.0349v-0.25956c0.0294-0.07144 0.0699-0.09763 0.10398-0.09763 0.0151 0 0.0222 0.0016 0.0349 0.0063l8e-3 -0.03175c-0.0127-0.0063-0.0238-0.0079-0.0381-0.0079-0.0452 0-0.0825 0.03334-0.10795 0.08017h-2e-3l-3e-3 -0.07064h-0.0302z"/>
    <path d="m102.6 68.6c0 0.12621 0.0794 0.19923 0.17066 0.19923 0.0921 0 0.17145-0.07303 0.17145-0.19923 0-0.12779-0.0794-0.20082-0.17145-0.20082-0.0913 0-0.17066 0.07303-0.17066 0.20082zm0.0365 0c0-0.10081 0.0572-0.16986 0.13414-0.16986 0.077 0 0.13494 0.06906 0.13494 0.16986 0 0.10001-0.058 0.16828-0.13494 0.16828-0.077 0-0.13414-0.06826-0.13414-0.16828z"/>
    <path d="m103.07 68.684c0 0.06826 0.0214 0.11509 0.0952 0.11509 0.0159 0 0.0397-0.0063 0.0619-0.01429l-0.01-0.02858c-0.0135 0.0063-0.0333 0.01191-0.0476 0.01191-0.0524 0-0.0643-0.03254-0.0643-0.08096v-0.24844h0.11034v-0.03016h-0.11034v-0.11033h-0.0302l-5e-3 0.11033-0.0603 0.0032v0.02699h0.0595z"/>
    <path d="m103.27 68.694c0 0.07223 0.0508 0.10478 0.11112 0.10478 0.05 0 0.0961-0.02778 0.13494-0.05874h2e-3l4e-3 0.04921h0.0294v-0.24368c0-0.08176-0.0302-0.14684-0.12065-0.14684-0.0619 0-0.1143 0.03016-0.14128 0.04921l0.0159 0.02619c0.0254-0.01905 0.0699-0.04445 0.12145-0.04445 0.0746 0 0.0913 0.06271 0.0897 0.12065-0.16907 0.01905-0.24606 0.05953-0.24606 0.14367zm0.0365-0.0016c0-0.06033 0.0532-0.09684 0.20955-0.11509v0.12938c-0.0468 0.04048-0.0857 0.06191-0.12938 0.06191-0.0437 0-0.0802-0.02143-0.0802-0.0762z"/>
    <path d="m103.7 68.684c0 0.06826 0.0214 0.11509 0.0953 0.11509 0.0159 0 0.0397-0.0063 0.0619-0.01429l-0.01-0.02858c-0.0135 0.0063-0.0333 0.01191-0.0476 0.01191-0.0524 0-0.0643-0.03254-0.0643-0.08096v-0.24844h0.11033v-0.03016h-0.11033v-0.11033h-0.0302l-5e-3 0.11033-0.0603 0.0032v0.02699h0.0595z"/>
    <path d="m103.95 68.317c0.0175 0 0.0318-0.0127 0.0318-0.03096 0-0.01984-0.0143-0.03175-0.0318-0.03175s-0.0318 0.01191-0.0318 0.03175c0 0.01826 0.0143 0.03096 0.0318 0.03096zm-0.0183 0.47308h0.0349v-0.381h-0.0349z"/>
    <path d="m104.08 68.6c0 0.12621 0.0794 0.19923 0.17066 0.19923 0.0921 0 0.17145-0.07303 0.17145-0.19923 0-0.12779-0.0794-0.20082-0.17145-0.20082-0.0913 0-0.17066 0.07303-0.17066 0.20082zm0.0365 0c0-0.10081 0.0572-0.16986 0.13414-0.16986 0.077 0 0.13494 0.06906 0.13494 0.16986 0 0.10001-0.058 0.16828-0.13494 0.16828-0.077 0-0.13414-0.06826-0.13414-0.16828z"/>
    <path d="m104.54 68.79h0.0349v-0.28734c0.0468-0.04763 0.0794-0.07144 0.12462-0.07144 0.0619 0 0.0873 0.0381 0.0873 0.11906v0.23971h0.0349v-0.24448c0-0.09843-0.0365-0.14605-0.1151-0.14605-0.0524 0-0.0921 0.02937-0.13097 0.06826h-2e-3l-3e-3 -0.05874h-0.0302z"/>
    <path d="m104.94 68.46c0 0.02223 0.0167 0.03572 0.0341 0.03572 0.0175 0 0.0333-0.01349 0.0333-0.03572 0-0.02302-0.0159-0.03651-0.0333-0.03651-0.0175 0-0.0341 0.01349-0.0341 0.03651zm0 0.30321c0 0.02223 0.0167 0.03572 0.0341 0.03572 0.0175 0 0.0333-0.01349 0.0333-0.03572 0-0.02302-0.0159-0.03651-0.0333-0.03651-0.0175 0-0.0341 0.01349-0.0341 0.03651z"/>
    <path d="m105.24 68.731c0.0325 0.03254 0.0786 0.06826 0.15954 0.06826 0.0818 0 0.16193-0.06112 0.16193-0.16907 0-0.11112-0.0691-0.16034-0.15478-0.16034-0.0373 0-0.0643 0.01111-0.0905 0.02699l0.0159-0.18336h0.20241v-0.03096h-0.23416l-0.0183 0.23733 0.0246 0.01508c0.0302-0.02064 0.0556-0.03413 0.0945-0.03413 0.0754 0 0.12383 0.04921 0.12383 0.13097 0 0.08176-0.0587 0.13652-0.12621 0.13652-0.0691 0-0.10874-0.03096-0.13891-0.06191z"/>
    <path d="m105.61 68.917h0.0309l0.2413-0.69056h-0.0302z"/>
    <path d="m105.95 68.79h0.26511v-0.03096h-0.11033v-0.47625h-0.0286c-0.0238 0.01349-0.0564 0.02461-0.0976 0.03175v0.02381h0.0905v0.42069h-0.11906z"/>
    <path d="m106.3 68.79h0.31115v-0.03175h-0.17303c-0.0278 0-0.0572 0.0024-0.0849 4e-3 0.1405-0.14922 0.23257-0.24606 0.23257-0.34687 0-0.08572-0.0524-0.14208-0.14287-0.14208-0.0619 0-0.10636 0.03254-0.14446 0.07461l0.023 0.02223c0.031-0.0381 0.0722-0.06668 0.11827-0.06668 0.0762 0 0.11033 0.04921 0.11033 0.11271 0 0.08811-0.0833 0.18256-0.25003 0.35163z"/>
    <path d="m106.88 68.79h0.0365v-0.22463h0.10636c0.11589 0 0.18574-0.05001 0.18574-0.1524 0-0.10795-0.0691-0.14605-0.18574-0.14605h-0.14288zm0.0365-0.25559v-0.23654h0.0968c0.10637 0 0.15796 0.02699 0.15796 0.11509 0 0.08572-0.0508 0.12144-0.15796 0.12144z"/>
    <path d="m107.31 68.79h0.0365v-0.52308h-0.0365z"/>
   </g>
  </g>
  <path d="m99.575 63.292h1.3229v1.3229h-1.3229z" fill="#cf2f25"/>
 </g>
</svg>
