<svg width="34.416mm" height="19.864mm" version="1.1" viewBox="0 0 34.416 19.864" xmlns="http://www.w3.org/2000/svg">
 <g transform="translate(-70.897 -69.114)">
  <rect x="70.908" y="69.124" width="34.396" height="19.844" fill="#03060c" stroke="#000" stroke-dashoffset="1.2" stroke-linecap="square" stroke-miterlimit="40" stroke-width=".020293"/>
  <g fill="#7b8694" stroke="#2f3744" stroke-dashoffset="1.2" stroke-linecap="square" stroke-miterlimit="40" stroke-width=".026458">
   <path d="m76.212 73.08v13.229"/>
   <path d="m78.858 73.08v13.229"/>
   <path d="m81.504 73.08v13.229"/>
   <path d="m84.15 73.08v13.229"/>
   <path d="m86.796 73.08v13.229"/>
   <path d="m89.442 73.08v13.229"/>
   <path d="m92.087 73.08v13.229"/>
   <path d="m94.733 73.08v13.229"/>
   <path d="m74.89 74.403h19.844"/>
   <path d="m74.89 73.08h19.844"/>
   <path d="m74.89 75.725h19.844"/>
   <path d="m74.89 78.371h19.844"/>
   <path d="m74.89 81.017h19.844"/>
   <path d="m74.89 83.663h19.844"/>
   <path d="m74.89 86.309h19.844"/>
   <path d="m74.89 84.986h19.844"/>
   <path d="m74.89 82.34h19.844"/>
   <path d="m74.89 79.694h19.844"/>
   <path d="m74.89 77.048h19.844"/>
   <path d="m74.89 73.08v13.229"/>
   <path d="m77.535 73.08v13.229"/>
   <path d="m80.181 73.08v13.229"/>
   <path d="m82.827 73.08v13.229"/>
   <path d="m85.473 73.08v13.229"/>
   <path d="m88.119 73.08v13.229"/>
   <path d="m90.765 73.08v13.229"/>
   <path d="m93.41 73.08v13.229"/>
  </g>
  <path d="m73.567 73.08h-0.79375v13.229h0.79375" fill="none" stroke="#d2d6dc" stroke-dashoffset="1.2" stroke-linecap="square" stroke-miterlimit="40" stroke-width=".026458"/>
  <path d="m74.89 71.757v-0.79375h19.844v0.79375" fill="none" stroke="#d2d6dc" stroke-dashoffset="1.2" stroke-linecap="square" stroke-miterlimit="40" stroke-width=".026458"/>
  <g>
   <g fill="#d2d6dc" stroke-linecap="square" stroke-miterlimit="40" stroke-width=".026458" aria-label="150">
    <path d="m84.302 70.802h0.26511v-0.03096h-0.11033v-0.47625h-0.02858c-0.02381 0.01349-0.05636 0.02461-0.09763 0.03175v0.02381h0.09049v0.42069h-0.11906z"/>
    <path d="m84.636 70.744c0.03254 0.03254 0.07858 0.06826 0.15954 0.06826 0.08176 0 0.16192-0.06112 0.16192-0.16907 0-0.11112-0.06906-0.16034-0.15478-0.16034-0.03731 0-0.06429 0.01111-0.09049 0.02699l0.01588-0.18336h0.20241v-0.03096h-0.23416l-0.01826 0.23733 0.02461 0.01508c0.03016-0.02064 0.05556-0.03413 0.09446-0.03413 0.07541 0 0.12382 0.04921 0.12382 0.13097 0 0.08176-0.05874 0.13652-0.12621 0.13652-0.06906 0-0.10874-0.03096-0.13891-0.06191z"/>
    <path d="m85.185 70.812c0.09684 0 0.15161-0.09604 0.15161-0.26511 0-0.16828-0.05477-0.26114-0.15161-0.26114-0.09684 0-0.15161 0.09287-0.15161 0.26114 0 0.16907 0.05477 0.26511 0.15161 0.26511zm0-0.03016c-0.06985 0-0.11589-0.08017-0.11589-0.23495 0-0.15478 0.04604-0.23098 0.11589-0.23098 0.07064 0 0.11589 0.0762 0.11589 0.23098s-0.04524 0.23495-0.11589 0.23495z"/>
   </g>
   <g fill="#d2d6dc" stroke-linecap="square" stroke-miterlimit="40" stroke-width=".026458" aria-label="100">
    <path d="m71.602 80.063h0.26511v-0.03096h-0.11033v-0.47625h-0.02858c-0.02381 0.01349-0.05636 0.02461-0.09763 0.03175v0.02381h0.09049v0.42069h-0.11906z"/>
    <path d="m72.105 80.072c0.09684 0 0.15161-0.09604 0.15161-0.26511 0-0.16828-0.05477-0.26114-0.15161-0.26114-0.09684 0-0.15161 0.09287-0.15161 0.26114 0 0.16907 0.05477 0.26511 0.15161 0.26511zm0-0.03016c-0.06985 0-0.11589-0.08017-0.11589-0.23495 0-0.15478 0.04604-0.23098 0.11589-0.23098 0.07064 0 0.11589 0.0762 0.11589 0.23098s-0.04524 0.23495-0.11589 0.23495z"/>
    <path d="m72.485 80.072c0.09684 0 0.15161-0.09604 0.15161-0.26511 0-0.16828-0.05477-0.26114-0.15161-0.26114-0.09684 0-0.15161 0.09287-0.15161 0.26114 0 0.16907 0.05477 0.26511 0.15161 0.26511zm0-0.03016c-0.06985 0-0.11589-0.08017-0.11589-0.23495 0-0.15478 0.04604-0.23098 0.11589-0.23098 0.07064 0 0.11589 0.0762 0.11589 0.23098s-0.04524 0.23495-0.11589 0.23495z"/>
   </g>
   <path d="m78.845 75.739h5.2917v5.2917h-5.2917z" fill="#cf2f25"/>
   <g fill="#d2d6dc" stroke-linecap="square" stroke-miterlimit="40" stroke-width=".026458" aria-label="x: 30 y: 20 size: 40 scale: 1">
    <path d="m98.799 73.63h0.03731l0.06509-0.10398c0.01508-0.02381 0.02857-0.04762 0.04366-0.06985h0.0032c0.01587 0.02222 0.03096 0.04604 0.04524 0.06985l0.06747 0.10398h0.03889l-0.12938-0.19606 0.11827-0.18494h-0.03651l-0.05953 0.09684c-0.01349 0.02064-0.0254 0.04207-0.03889 0.06271h-0.0032c-0.01429-0.02064-0.02778-0.04207-0.04048-0.06271l-0.06191-0.09684h-0.03889l0.11906 0.18177z"/>
    <path d="m99.163 73.301c0 0.02222 0.01667 0.03572 0.03413 0.03572s0.03334-0.01349 0.03334-0.03572c0-0.02302-0.01588-0.03651-0.03334-0.03651s-0.03413 0.01349-0.03413 0.03651zm0 0.30321c0 0.02222 0.01667 0.03572 0.03413 0.03572s0.03334-0.01349 0.03334-0.03572c0-0.02302-0.01588-0.03651-0.03334-0.03651s-0.03413 0.01349-0.03413 0.03651z"/>
    <path d="m99.465 73.568c0.03254 0.03413 0.08017 0.07144 0.16113 0.07144 0.08731 0 0.15478-0.05556 0.15478-0.14367 0-0.07144-0.05239-0.11827-0.11509-0.13176v-0.0032c0.05556-0.01905 0.09684-0.05874 0.09684-0.12541 0-0.07779-0.06032-0.12224-0.13891-0.12224-0.05874 0-0.10239 0.02778-0.13732 0.06191l0.02064 0.02381c0.02937-0.03096 0.06985-0.05556 0.11668-0.05556 0.06191 0 0.10239 0.03731 0.10239 0.09446 0 0.06112-0.04127 0.11033-0.15875 0.11033v0.03096c0.12621 0 0.17701 0.04762 0.17701 0.11748 0 0.06747-0.05001 0.11192-0.11827 0.11192-0.06985 0-0.11033-0.03175-0.14049-0.06509z"/>
    <path d="m100.01 73.64c0.0968 0 0.1516-0.09604 0.1516-0.26511 0-0.16828-0.0548-0.26114-0.1516-0.26114-0.09684 0-0.15161 0.09287-0.15161 0.26114 0 0.16907 0.05477 0.26511 0.15161 0.26511zm0-0.03016c-0.06985 0-0.11589-0.08017-0.11589-0.23495 0-0.15478 0.04604-0.23098 0.11589-0.23098 0.0706 0 0.11588 0.0762 0.11588 0.23098s-0.0452 0.23495-0.11588 0.23495z"/>
    <path d="m98.815 74.757-0.0079 0.03096c0.01032 0.0048 0.02461 0.0079 0.03889 0.0079 0.06826 0 0.10636-0.06271 0.12779-0.12621l0.15081-0.42862h-0.03572l-0.08176 0.23971c-0.01032 0.03175-0.02302 0.07303-0.03492 0.10636h-0.0032c-0.01429-0.03334-0.02937-0.07461-0.04127-0.10636l-0.09207-0.23971h-0.0381l0.15637 0.38814-0.01032 0.03334c-0.01905 0.05794-0.0508 0.10081-0.09763 0.10081-0.01111 0-0.02302-0.0032-0.03096-0.0063z"/>
    <path d="m99.187 74.293c0 0.02222 0.01667 0.03572 0.03413 0.03572s0.03334-0.01349 0.03334-0.03572c0-0.02302-0.01587-0.03651-0.03334-0.03651-0.01746 0-0.03413 0.01349-0.03413 0.03651zm0 0.30321c0 0.02223 0.01667 0.03572 0.03413 0.03572s0.03334-0.01349 0.03334-0.03572c0-0.02302-0.01587-0.03651-0.03334-0.03651-0.01746 0-0.03413 0.01349-0.03413 0.03651z"/>
    <path d="m99.498 74.622h0.31115v-0.03175h-0.17304c-0.02778 0-0.05715 0.0024-0.08493 4e-3 0.14049-0.14922 0.23257-0.24606 0.23257-0.34687 0-0.08572-0.05239-0.14208-0.14288-0.14208-0.06191 0-0.10636 0.03254-0.14446 0.07461l0.02302 0.02222c0.03096-0.0381 0.07223-0.06668 0.11827-0.06668 0.0762 0 0.11033 0.04921 0.11033 0.11271 0 0.08811-0.08334 0.18256-0.25003 0.35163z"/>
    <path d="m100.03 74.632c0.0968 0 0.15161-0.09604 0.15161-0.26511 0-0.16828-0.0548-0.26114-0.15161-0.26114-0.09684 0-0.15161 0.09287-0.15161 0.26114 0 0.16907 0.05477 0.26511 0.15161 0.26511zm0-0.03016c-0.06985 0-0.11589-0.08017-0.11589-0.23495 0-0.15478 0.04604-0.23098 0.11589-0.23098 0.0706 0 0.11589 0.0762 0.11589 0.23098 0 0.15478-0.0452 0.23495-0.11589 0.23495z"/>
    <path d="m98.813 75.572c0.03413 0.02858 0.08334 0.05239 0.1397 0.05239 0.08255 0 0.12859-0.05001 0.12859-0.10716 0-0.07461-0.06509-0.09446-0.12462-0.11668-0.04524-0.01667-0.08969-0.03493-0.08969-0.07699 0-0.03493 0.02699-0.06906 0.08572-0.06906 0.03889 0 0.06588 0.01508 0.09128 0.03413l0.01905-0.02461c-0.02778-0.02302-0.06826-0.03969-0.10874-0.03969-0.07937 0-0.12303 0.04604-0.12303 0.1016 0 0.06509 0.0635 0.08811 0.12144 0.10874 0.04366 0.01588 0.09287 0.03651 0.09287 0.08414 0 0.04048-0.03096 0.07541-0.09049 0.07541-0.05477 0-0.0889-0.02143-0.12144-0.04842z"/>
    <path d="m99.2 75.141c0.01746 0 0.03175-0.0127 0.03175-0.03096 0-0.01984-0.01429-0.03175-0.03175-0.03175s-0.03175 0.01191-0.03175 0.03175c0 0.01826 0.01429 0.03096 0.03175 0.03096zm-0.01826 0.47308h0.03493v-0.381h-0.03493z"/>
    <path d="m99.312 75.615h0.27861v-0.03096h-0.23257l0.22463-0.33179v-0.01826h-0.24606v0.03016h0.20082l-0.22542 0.3318z"/>
    <path d="m99.645 75.425c0 0.12462 0.07858 0.19923 0.17621 0.19923 0.05556 0 0.08969-0.01905 0.11986-0.03731l-0.01429-0.02699c-0.02858 0.02064-0.06112 0.03413-0.10239 0.03413-0.08572 0-0.14208-0.06906-0.14367-0.1651h0.27464c0.0016-0.0095 0.0016-0.01905 0.0016-0.02857 0-0.11192-0.05556-0.17621-0.14605-0.17621-0.08493 0-0.16589 0.0762-0.16589 0.20082zm0.03572-0.02302c0.0079-0.09128 0.06588-0.14764 0.13097-0.14764 0.06826 0 0.11192 0.05001 0.11192 0.14764z"/>
    <path d="m100.04 75.285c0 0.02222 0.0167 0.03572 0.0341 0.03572 0.0175 0 0.0333-0.01349 0.0333-0.03572 0-0.02302-0.0159-0.03651-0.0333-0.03651-0.0175 0-0.0341 0.01349-0.0341 0.03651zm0 0.30321c0 0.02222 0.0167 0.03572 0.0341 0.03572 0.0175 0 0.0333-0.01349 0.0333-0.03572 0-0.02302-0.0159-0.03651-0.0333-0.03651-0.0175 0-0.0341 0.01349-0.0341 0.03651z"/>
    <path d="m100.37 75.433 0.14922-0.20955c0.0143-0.02302 0.0286-0.04207 0.0413-0.0635h3e-3c-2e-3 0.02302-3e-3 0.06429-3e-3 0.08731v0.18574zm0.30003 0h-0.0754v-0.32544h-0.0318l-0.23575 0.33496v0.02064h0.23337v0.15161h0.0341v-0.15161h0.0754z"/>
    <path d="m100.89 75.624c0.0968 0 0.15161-0.09604 0.15161-0.26511 0-0.16828-0.0548-0.26114-0.15161-0.26114-0.0968 0-0.1516 0.09287-0.1516 0.26114 0 0.16907 0.0548 0.26511 0.1516 0.26511zm0-0.03016c-0.0699 0-0.11589-0.08017-0.11589-0.23495 0-0.15478 0.046-0.23098 0.11589-0.23098 0.0707 0 0.11589 0.0762 0.11589 0.23098s-0.0452 0.23495-0.11589 0.23495z"/>
    <path d="m98.813 76.564c0.03413 0.02858 0.08334 0.05239 0.1397 0.05239 0.08255 0 0.12859-0.05001 0.12859-0.10716 0-0.07461-0.06509-0.09446-0.12462-0.11668-0.04524-0.01667-0.08969-0.03493-0.08969-0.07699 0-0.03493 0.02699-0.06906 0.08572-0.06906 0.03889 0 0.06588 0.01508 0.09128 0.03413l0.01905-0.02461c-0.02778-0.02302-0.06826-0.03969-0.10874-0.03969-0.07937 0-0.12303 0.04604-0.12303 0.1016 0 0.06509 0.0635 0.08811 0.12144 0.10874 0.04366 0.01587 0.09287 0.03651 0.09287 0.08414 0 0.04048-0.03096 0.07541-0.09049 0.07541-0.05477 0-0.0889-0.02143-0.12144-0.04842z"/>
    <path d="m99.15 76.417c0 0.12621 0.07461 0.19923 0.17304 0.19923 0.04842 0 0.0889-0.02143 0.12144-0.0508l-0.01826-0.02381c-0.02619 0.02381-0.06112 0.04366-0.1016 0.04366-0.08334 0-0.13811-0.06826-0.13811-0.16828 0-0.10081 0.06033-0.16986 0.13811-0.16986 0.03731 0 0.06588 0.01746 0.09049 0.04048l0.02064-0.02461c-0.0254-0.02381-0.05953-0.04683-0.11192-0.04683-0.09287 0-0.17383 0.07303-0.17383 0.20082z"/>
    <path d="m99.509 76.511c0 0.07223 0.0508 0.10478 0.11112 0.10478 0.05001 0 0.09604-0.02778 0.13494-0.05874h0.0016l4e-3 0.04921h0.02937v-0.24368c0-0.08176-0.03016-0.14684-0.12065-0.14684-0.06191 0-0.1143 0.03016-0.14129 0.04921l0.01587 0.02619c0.0254-0.01905 0.06985-0.04445 0.12144-0.04445 0.07461 0 0.09128 0.06271 0.08969 0.12065-0.16907 0.01905-0.24606 0.05953-0.24606 0.14367zm0.03651-0.0016c0-0.06033 0.05318-0.09684 0.20955-0.11509v0.12938c-0.04683 0.04048-0.08572 0.06191-0.12938 0.06191-0.04366 0-0.08017-0.02143-0.08017-0.0762z"/>
    <path d="m99.926 76.556c0 0.04127 0.01587 0.06032 0.04683 0.06032 0.01111 0 0.01826-0.0016 0.0254-4e-3l-0.0063-0.02857c-0.0079 0.0016-0.01111 0.0016-0.01429 0.0016-0.0095 0-0.01667-0.0079-0.01667-0.02461v-0.52467h-0.03493z"/>
    <path d="m100.08 76.417c0 0.12462 0.0786 0.19923 0.17621 0.19923 0.0556 0 0.0897-0.01905 0.11985-0.03731l-0.0143-0.02699c-0.0286 0.02064-0.0611 0.03413-0.1024 0.03413-0.0857 0-0.14208-0.06906-0.14367-0.1651h0.27464c2e-3 -0.0095 2e-3 -0.01905 2e-3 -0.02857 0-0.11192-0.0556-0.17621-0.14605-0.17621-0.0849 0-0.16589 0.0762-0.16589 0.20082zm0.0357-0.02302c8e-3 -0.09128 0.0659-0.14764 0.13097-0.14764 0.0683 0 0.11192 0.05001 0.11192 0.14764z"/>
    <path d="m100.48 76.277c0 0.02222 0.0167 0.03572 0.0341 0.03572 0.0175 0 0.0333-0.01349 0.0333-0.03572 0-0.02302-0.0159-0.03651-0.0333-0.03651-0.0175 0-0.0341 0.01349-0.0341 0.03651zm0 0.30321c0 0.02223 0.0167 0.03572 0.0341 0.03572 0.0175 0 0.0333-0.01349 0.0333-0.03572 0-0.02302-0.0159-0.03651-0.0333-0.03651-0.0175 0-0.0341 0.01349-0.0341 0.03651z"/>
    <path d="m100.82 76.607h0.26511v-0.03096h-0.11033v-0.47625h-0.0286c-0.0238 0.01349-0.0564 0.02461-0.0976 0.03175v0.02381h0.0905v0.42069h-0.11906z"/>
   </g>
   <path d="m96.043 73.093h1.3229v1.3229h-1.3229z" fill="#cf2f25"/>
   <path d="m85.46 78.385h2.6458v2.6458h-2.6458z" fill="#009244"/>
   <path d="m86.783 75.739h5.2917v5.2917h-5.2917z" fill="#2c57df"/>
   <g fill="#d2d6dc" stroke-linecap="square" stroke-miterlimit="40" stroke-width=".026458" aria-label="x: 30 y: 20 size: 40 scale: 0.5">
    <path d="m98.799 78.393h0.03731l0.06509-0.10398c0.01508-0.02381 0.02857-0.04762 0.04366-0.06985h0.0032c0.01587 0.02223 0.03096 0.04604 0.04524 0.06985l0.06747 0.10398h0.03889l-0.12938-0.19606 0.11827-0.18494h-0.03651l-0.05953 0.09684c-0.01349 0.02064-0.0254 0.04207-0.03889 0.06271h-0.0032c-0.01429-0.02064-0.02778-0.04207-0.04048-0.06271l-0.06191-0.09684h-0.03889l0.11906 0.18177z"/>
    <path d="m99.163 78.063c0 0.02223 0.01667 0.03572 0.03413 0.03572s0.03334-0.01349 0.03334-0.03572c0-0.02302-0.01588-0.03651-0.03334-0.03651s-0.03413 0.01349-0.03413 0.03651zm0 0.30321c0 0.02223 0.01667 0.03572 0.03413 0.03572s0.03334-0.01349 0.03334-0.03572c0-0.02302-0.01588-0.03651-0.03334-0.03651s-0.03413 0.01349-0.03413 0.03651z"/>
    <path d="m99.465 78.331c0.03254 0.03413 0.08017 0.07144 0.16113 0.07144 0.08731 0 0.15478-0.05556 0.15478-0.14367 0-0.07144-0.05239-0.11827-0.11509-0.13176v-0.0032c0.05556-0.01905 0.09684-0.05874 0.09684-0.12541 0-0.07779-0.06032-0.12224-0.13891-0.12224-0.05874 0-0.10239 0.02778-0.13732 0.06191l0.02064 0.02381c0.02937-0.03096 0.06985-0.05556 0.11668-0.05556 0.06191 0 0.10239 0.03731 0.10239 0.09446 0 0.06112-0.04127 0.11033-0.15875 0.11033v0.03096c0.12621 0 0.17701 0.04762 0.17701 0.11748 0 0.06747-0.05001 0.11192-0.11827 0.11192-0.06985 0-0.11033-0.03175-0.14049-0.06509z"/>
    <path d="m100.01 78.402c0.0968 0 0.1516-0.09604 0.1516-0.26511 0-0.16828-0.0548-0.26114-0.1516-0.26114-0.09684 0-0.15161 0.09287-0.15161 0.26114 0 0.16907 0.05477 0.26511 0.15161 0.26511zm0-0.03016c-0.06985 0-0.11589-0.08017-0.11589-0.23495 0-0.15478 0.04604-0.23098 0.11589-0.23098 0.0706 0 0.11588 0.0762 0.11588 0.23098 0 0.15478-0.0452 0.23495-0.11588 0.23495z"/>
    <path d="m98.815 79.52-0.0079 0.03096c0.01032 0.0048 0.02461 0.0079 0.03889 0.0079 0.06826 0 0.10636-0.06271 0.12779-0.12621l0.15081-0.42862h-0.03572l-0.08176 0.23971c-0.01032 0.03175-0.02302 0.07303-0.03492 0.10636h-0.0032c-0.01429-0.03334-0.02937-0.07461-0.04127-0.10636l-0.09207-0.23971h-0.0381l0.15637 0.38814-0.01032 0.03334c-0.01905 0.05794-0.0508 0.10081-0.09763 0.10081-0.01111 0-0.02302-0.0032-0.03096-0.0064z"/>
    <path d="m99.187 79.055c0 0.02223 0.01667 0.03572 0.03413 0.03572s0.03334-0.01349 0.03334-0.03572c0-0.02302-0.01587-0.03651-0.03334-0.03651-0.01746 0-0.03413 0.01349-0.03413 0.03651zm0 0.30321c0 0.02223 0.01667 0.03572 0.03413 0.03572s0.03334-0.01349 0.03334-0.03572c0-0.02302-0.01587-0.03651-0.03334-0.03651-0.01746 0-0.03413 0.01349-0.03413 0.03651z"/>
    <path d="m99.498 79.385h0.31115v-0.03175h-0.17304c-0.02778 0-0.05715 0.0024-0.08493 4e-3 0.14049-0.14922 0.23257-0.24606 0.23257-0.34687 0-0.08572-0.05239-0.14208-0.14288-0.14208-0.06191 0-0.10636 0.03254-0.14446 0.07461l0.02302 0.02223c0.03096-0.0381 0.07223-0.06668 0.11827-0.06668 0.0762 0 0.11033 0.04921 0.11033 0.11271 0 0.08811-0.08334 0.18256-0.25003 0.35163z"/>
    <path d="m100.03 79.394c0.0968 0 0.15161-0.09604 0.15161-0.26511 0-0.16828-0.0548-0.26114-0.15161-0.26114-0.09684 0-0.15161 0.09287-0.15161 0.26114 0 0.16907 0.05477 0.26511 0.15161 0.26511zm0-0.03016c-0.06985 0-0.11589-0.08017-0.11589-0.23495 0-0.15478 0.04604-0.23098 0.11589-0.23098 0.0706 0 0.11589 0.0762 0.11589 0.23098s-0.0452 0.23495-0.11589 0.23495z"/>
    <path d="m98.813 80.334c0.03413 0.02858 0.08334 0.05239 0.1397 0.05239 0.08255 0 0.12859-0.05001 0.12859-0.10716 0-0.07461-0.06509-0.09446-0.12462-0.11668-0.04524-0.01667-0.08969-0.03493-0.08969-0.07699 0-0.03493 0.02699-0.06906 0.08572-0.06906 0.03889 0 0.06588 0.01508 0.09128 0.03413l0.01905-0.02461c-0.02778-0.02302-0.06826-0.03969-0.10874-0.03969-0.07937 0-0.12303 0.04604-0.12303 0.1016 0 0.06509 0.0635 0.08811 0.12144 0.10874 0.04366 0.01588 0.09287 0.03651 0.09287 0.08414 0 0.04048-0.03096 0.07541-0.09049 0.07541-0.05477 0-0.0889-0.02143-0.12144-0.04842z"/>
    <path d="m99.2 79.904c0.01746 0 0.03175-0.0127 0.03175-0.03096 0-0.01984-0.01429-0.03175-0.03175-0.03175s-0.03175 0.01191-0.03175 0.03175c0 0.01826 0.01429 0.03096 0.03175 0.03096zm-0.01826 0.47308h0.03493v-0.381h-0.03493z"/>
    <path d="m99.312 80.377h0.27861v-0.03096h-0.23257l0.22463-0.33179v-0.01826h-0.24606v0.03016h0.20082l-0.22542 0.33179z"/>
    <path d="m99.645 80.187c0 0.12462 0.07858 0.19923 0.17621 0.19923 0.05556 0 0.08969-0.01905 0.11986-0.03731l-0.01429-0.02699c-0.02858 0.02064-0.06112 0.03413-0.10239 0.03413-0.08572 0-0.14208-0.06906-0.14367-0.1651h0.27464c0.0016-0.0095 0.0016-0.01905 0.0016-0.02858 0-0.11192-0.05556-0.17621-0.14605-0.17621-0.08493 0-0.16589 0.0762-0.16589 0.20082zm0.03572-0.02302c0.0079-0.09128 0.06588-0.14764 0.13097-0.14764 0.06826 0 0.11192 0.05001 0.11192 0.14764z"/>
    <path d="m100.04 80.048c0 0.02223 0.0167 0.03572 0.0341 0.03572 0.0175 0 0.0333-0.01349 0.0333-0.03572 0-0.02302-0.0159-0.03651-0.0333-0.03651-0.0175 0-0.0341 0.01349-0.0341 0.03651zm0 0.30321c0 0.02223 0.0167 0.03572 0.0341 0.03572 0.0175 0 0.0333-0.01349 0.0333-0.03572 0-0.02302-0.0159-0.03651-0.0333-0.03651-0.0175 0-0.0341 0.01349-0.0341 0.03651z"/>
    <path d="m100.37 80.195 0.14922-0.20955c0.0143-0.02302 0.0286-0.04207 0.0413-0.0635h3e-3c-2e-3 0.02302-3e-3 0.06429-3e-3 0.08731v0.18574zm0.30003 0h-0.0754v-0.32544h-0.0318l-0.23575 0.33496v0.02064h0.23337v0.15161h0.0341v-0.15161h0.0754z"/>
    <path d="m100.89 80.387c0.0968 0 0.15161-0.09604 0.15161-0.26511 0-0.16828-0.0548-0.26114-0.15161-0.26114-0.0968 0-0.1516 0.09287-0.1516 0.26114 0 0.16907 0.0548 0.26511 0.1516 0.26511zm0-0.03016c-0.0699 0-0.11589-0.08017-0.11589-0.23495 0-0.15478 0.046-0.23098 0.11589-0.23098 0.0707 0 0.11589 0.0762 0.11589 0.23098 0 0.15478-0.0452 0.23495-0.11589 0.23495z"/>
    <path d="m98.813 81.326c0.03413 0.02857 0.08334 0.05239 0.1397 0.05239 0.08255 0 0.12859-0.05001 0.12859-0.10716 0-0.07461-0.06509-0.09446-0.12462-0.11668-0.04524-0.01667-0.08969-0.03493-0.08969-0.07699 0-0.03493 0.02699-0.06906 0.08572-0.06906 0.03889 0 0.06588 0.01508 0.09128 0.03413l0.01905-0.02461c-0.02778-0.02302-0.06826-0.03969-0.10874-0.03969-0.07937 0-0.12303 0.04604-0.12303 0.1016 0 0.06509 0.0635 0.08811 0.12144 0.10874 0.04366 0.01587 0.09287 0.03651 0.09287 0.08414 0 0.04048-0.03096 0.07541-0.09049 0.07541-0.05477 0-0.0889-0.02143-0.12144-0.04842z"/>
    <path d="m99.15 81.179c0 0.12621 0.07461 0.19923 0.17304 0.19923 0.04842 0 0.0889-0.02143 0.12144-0.0508l-0.01826-0.02381c-0.02619 0.02381-0.06112 0.04366-0.1016 0.04366-0.08334 0-0.13811-0.06826-0.13811-0.16828 0-0.10081 0.06033-0.16986 0.13811-0.16986 0.03731 0 0.06588 0.01746 0.09049 0.04048l0.02064-0.02461c-0.0254-0.02381-0.05953-0.04683-0.11192-0.04683-0.09287 0-0.17383 0.07303-0.17383 0.20082z"/>
    <path d="m99.509 81.274c0 0.07223 0.0508 0.10478 0.11112 0.10478 0.05001 0 0.09604-0.02778 0.13494-0.05874h0.0016l4e-3 0.04921h0.02937v-0.24368c0-0.08176-0.03016-0.14684-0.12065-0.14684-0.06191 0-0.1143 0.03016-0.14129 0.04921l0.01587 0.02619c0.0254-0.01905 0.06985-0.04445 0.12144-0.04445 0.07461 0 0.09128 0.06271 0.08969 0.12065-0.16907 0.01905-0.24606 0.05953-0.24606 0.14367zm0.03651-0.0016c0-0.06032 0.05318-0.09684 0.20955-0.11509v0.12938c-0.04683 0.04048-0.08572 0.06191-0.12938 0.06191-0.04366 0-0.08017-0.02143-0.08017-0.0762z"/>
    <path d="m99.926 81.318c0 0.04127 0.01587 0.06032 0.04683 0.06032 0.01111 0 0.01826-0.0016 0.0254-4e-3l-0.0063-0.02858c-0.0079 0.0016-0.01111 0.0016-0.01429 0.0016-0.0095 0-0.01667-0.0079-0.01667-0.02461v-0.52467h-0.03493z"/>
    <path d="m100.08 81.179c0 0.12462 0.0786 0.19923 0.17621 0.19923 0.0556 0 0.0897-0.01905 0.11985-0.03731l-0.0143-0.02699c-0.0286 0.02064-0.0611 0.03413-0.1024 0.03413-0.0857 0-0.14208-0.06906-0.14367-0.1651h0.27464c2e-3 -0.0095 2e-3 -0.01905 2e-3 -0.02858 0-0.11192-0.0556-0.17621-0.14605-0.17621-0.0849 0-0.16589 0.0762-0.16589 0.20082zm0.0357-0.02302c8e-3 -0.09128 0.0659-0.14764 0.13097-0.14764 0.0683 0 0.11192 0.05001 0.11192 0.14764z"/>
    <path d="m100.48 81.04c0 0.02223 0.0167 0.03572 0.0341 0.03572 0.0175 0 0.0333-0.01349 0.0333-0.03572 0-0.02302-0.0159-0.03651-0.0333-0.03651-0.0175 0-0.0341 0.01349-0.0341 0.03651zm0 0.30321c0 0.02223 0.0167 0.03572 0.0341 0.03572 0.0175 0 0.0333-0.01349 0.0333-0.03572 0-0.02302-0.0159-0.03651-0.0333-0.03651-0.0175 0-0.0341 0.01349-0.0341 0.03651z"/>
    <path d="m100.94 81.379c0.0968 0 0.15161-0.09604 0.15161-0.26511 0-0.16828-0.0548-0.26114-0.15161-0.26114-0.0968 0-0.1516 0.09287-0.1516 0.26114 0 0.16907 0.0548 0.26511 0.1516 0.26511zm0-0.03016c-0.0699 0-0.11589-0.08017-0.11589-0.23495 0-0.15478 0.046-0.23098 0.11589-0.23098 0.0707 0 0.11589 0.0762 0.11589 0.23098s-0.0452 0.23495-0.11589 0.23495z"/>
    <path d="m101.19 81.343c0 0.02223 0.0167 0.03572 0.0341 0.03572 0.0175 0 0.0333-0.01349 0.0333-0.03572 0-0.02302-0.0159-0.03651-0.0333-0.03651-0.0175 0-0.0341 0.01349-0.0341 0.03651z"/>
    <path d="m101.33 81.31c0.0325 0.03254 0.0786 0.06826 0.15954 0.06826 0.0818 0 0.16193-0.06112 0.16193-0.16907 0-0.11112-0.0691-0.16034-0.15478-0.16034-0.0373 0-0.0643 0.01111-0.0905 0.02699l0.0159-0.18336h0.20241v-0.03096h-0.23416l-0.0183 0.23733 0.0246 0.01508c0.0302-0.02064 0.0556-0.03413 0.0945-0.03413 0.0754 0 0.12382 0.04921 0.12382 0.13097 0 0.08176-0.0587 0.13652-0.1262 0.13652-0.0691 0-0.10875-0.03096-0.13891-0.06191z"/>
   </g>
   <path d="m96.043 77.855h1.3229v1.3229h-1.3229z" fill="#009244"/>
   <g fill="#d2d6dc" stroke-linecap="square" stroke-miterlimit="40" stroke-width=".026458" aria-label="x: 60 y: 0 size: 40 scale: 1">
    <path d="m98.799 83.155h0.03731l0.06509-0.10398c0.01508-0.02381 0.02857-0.04762 0.04366-0.06985h0.0032c0.01587 0.02222 0.03096 0.04604 0.04524 0.06985l0.06747 0.10398h0.03889l-0.12938-0.19606 0.11827-0.18494h-0.03651l-0.05953 0.09684c-0.01349 0.02064-0.0254 0.04207-0.03889 0.06271h-0.0032c-0.01429-0.02064-0.02778-0.04207-0.04048-0.06271l-0.06191-0.09684h-0.03889l0.11906 0.18177z"/>
    <path d="m99.163 82.826c0 0.02223 0.01667 0.03572 0.03413 0.03572s0.03334-0.01349 0.03334-0.03572c0-0.02302-0.01588-0.03651-0.03334-0.03651s-0.03413 0.01349-0.03413 0.03651zm0 0.30321c0 0.02223 0.01667 0.03572 0.03413 0.03572s0.03334-0.01349 0.03334-0.03572c0-0.02302-0.01588-0.03651-0.03334-0.03651s-0.03413 0.01349-0.03413 0.03651z"/>
    <path d="m99.65 83.134c-0.08255 0-0.12382-0.07223-0.13018-0.17939 0.04127-0.05556 0.08731-0.0762 0.12303-0.0762 0.07699 0 0.10954 0.05397 0.10954 0.127 0 0.07223-0.04366 0.12859-0.10239 0.12859zm0.127-0.44688c-0.02619-0.02937-0.05953-0.04921-0.10716-0.04921-0.09763 0-0.18653 0.07382-0.18653 0.28654 0 0.15399 0.06429 0.23971 0.16589 0.23971 0.07541 0 0.13891-0.06667 0.13891-0.15875 0-0.10239-0.05239-0.15716-0.14129-0.15716-0.04683 0-0.09287 0.02778-0.12779 0.07064 0.0016-0.18653 0.07064-0.25003 0.15081-0.25003 0.03254 0 0.0635 0.01429 0.08572 0.04207z"/>
    <path d="m100.01 83.165c0.0968 0 0.1516-0.09604 0.1516-0.26511 0-0.16828-0.0548-0.26114-0.1516-0.26114-0.09684 0-0.15161 0.09287-0.15161 0.26114 0 0.16907 0.05477 0.26511 0.15161 0.26511zm0-0.03016c-0.06985 0-0.11589-0.08017-0.11589-0.23495 0-0.15478 0.04604-0.23098 0.11589-0.23098 0.0706 0 0.11588 0.0762 0.11588 0.23098 0 0.15478-0.0452 0.23495-0.11588 0.23495z"/>
    <path d="m98.815 84.282-0.0079 0.03096c0.01032 0.0048 0.02461 0.0079 0.03889 0.0079 0.06826 0 0.10636-0.06271 0.12779-0.12621l0.15081-0.42862h-0.03572l-0.08176 0.23971c-0.01032 0.03175-0.02302 0.07303-0.03492 0.10636h-0.0032c-0.01429-0.03334-0.02937-0.07461-0.04127-0.10636l-0.09207-0.23971h-0.0381l0.15637 0.38814-0.01032 0.03334c-0.01905 0.05794-0.0508 0.10081-0.09763 0.10081-0.01111 0-0.02302-0.0032-0.03096-0.0063z"/>
    <path d="m99.187 83.818c0 0.02223 0.01667 0.03572 0.03413 0.03572s0.03334-0.01349 0.03334-0.03572c0-0.02302-0.01587-0.03651-0.03334-0.03651-0.01746 0-0.03413 0.01349-0.03413 0.03651zm0 0.30321c0 0.02223 0.01667 0.03572 0.03413 0.03572s0.03334-0.01349 0.03334-0.03572c0-0.02302-0.01587-0.03651-0.03334-0.03651-0.01746 0-0.03413 0.01349-0.03413 0.03651z"/>
    <path d="m99.655 84.157c0.09684 0 0.15161-0.09604 0.15161-0.26511 0-0.16828-0.05477-0.26114-0.15161-0.26114-0.09684 0-0.15161 0.09287-0.15161 0.26114 0 0.16907 0.05477 0.26511 0.15161 0.26511zm0-0.03016c-0.06985 0-0.11589-0.08017-0.11589-0.23495 0-0.15478 0.04604-0.23098 0.11589-0.23098 0.07064 0 0.11589 0.0762 0.11589 0.23098s-0.04524 0.23495-0.11589 0.23495z"/>
    <path d="m98.813 85.097c0.03413 0.02858 0.08334 0.05239 0.1397 0.05239 0.08255 0 0.12859-0.05001 0.12859-0.10716 0-0.07461-0.06509-0.09446-0.12462-0.11668-0.04524-0.01667-0.08969-0.03493-0.08969-0.07699 0-0.03492 0.02699-0.06906 0.08572-0.06906 0.03889 0 0.06588 0.01508 0.09128 0.03413l0.01905-0.02461c-0.02778-0.02302-0.06826-0.03969-0.10874-0.03969-0.07937 0-0.12303 0.04604-0.12303 0.1016 0 0.06509 0.0635 0.08811 0.12144 0.10874 0.04366 0.01588 0.09287 0.03651 0.09287 0.08414 0 0.04048-0.03096 0.07541-0.09049 0.07541-0.05477 0-0.0889-0.02143-0.12144-0.04842z"/>
    <path d="m99.2 84.666c0.01746 0 0.03175-0.0127 0.03175-0.03096 0-0.01984-0.01429-0.03175-0.03175-0.03175s-0.03175 0.01191-0.03175 0.03175c0 0.01826 0.01429 0.03096 0.03175 0.03096zm-0.01826 0.47308h0.03493v-0.381h-0.03493z"/>
    <path d="m99.312 85.14h0.27861v-0.03096h-0.23257l0.22463-0.33179v-0.01826h-0.24606v0.03016h0.20082l-0.22542 0.33179z"/>
    <path d="m99.645 84.95c0 0.12462 0.07858 0.19923 0.17621 0.19923 0.05556 0 0.08969-0.01905 0.11986-0.03731l-0.01429-0.02699c-0.02858 0.02064-0.06112 0.03413-0.10239 0.03413-0.08572 0-0.14208-0.06906-0.14367-0.1651h0.27464c0.0016-0.0095 0.0016-0.01905 0.0016-0.02857 0-0.11192-0.05556-0.17621-0.14605-0.17621-0.08493 0-0.16589 0.0762-0.16589 0.20082zm0.03572-0.02302c0.0079-0.09128 0.06588-0.14764 0.13097-0.14764 0.06826 0 0.11192 0.05001 0.11192 0.14764z"/>
    <path d="m100.04 84.81c0 0.02223 0.0167 0.03572 0.0341 0.03572 0.0175 0 0.0333-0.01349 0.0333-0.03572 0-0.02302-0.0159-0.03651-0.0333-0.03651-0.0175 0-0.0341 0.01349-0.0341 0.03651zm0 0.30321c0 0.02223 0.0167 0.03572 0.0341 0.03572 0.0175 0 0.0333-0.01349 0.0333-0.03572 0-0.02302-0.0159-0.03651-0.0333-0.03651-0.0175 0-0.0341 0.01349-0.0341 0.03651z"/>
    <path d="m100.37 84.958 0.14922-0.20955c0.0143-0.02302 0.0286-0.04207 0.0413-0.0635h3e-3c-2e-3 0.02302-3e-3 0.06429-3e-3 0.08731v0.18574zm0.30003 0h-0.0754v-0.32544h-0.0318l-0.23575 0.33496v0.02064h0.23337v0.15161h0.0341v-0.15161h0.0754z"/>
    <path d="m100.89 85.149c0.0968 0 0.15161-0.09604 0.15161-0.26511 0-0.16828-0.0548-0.26114-0.15161-0.26114-0.0968 0-0.1516 0.09287-0.1516 0.26114 0 0.16907 0.0548 0.26511 0.1516 0.26511zm0-0.03016c-0.0699 0-0.11589-0.08017-0.11589-0.23495 0-0.15478 0.046-0.23098 0.11589-0.23098 0.0707 0 0.11589 0.0762 0.11589 0.23098 0 0.15478-0.0452 0.23495-0.11589 0.23495z"/>
    <path d="m98.813 86.089c0.03413 0.02858 0.08334 0.05239 0.1397 0.05239 0.08255 0 0.12859-0.05001 0.12859-0.10716 0-0.07461-0.06509-0.09446-0.12462-0.11668-0.04524-0.01667-0.08969-0.03492-0.08969-0.07699 0-0.03493 0.02699-0.06906 0.08572-0.06906 0.03889 0 0.06588 0.01508 0.09128 0.03413l0.01905-0.02461c-0.02778-0.02302-0.06826-0.03969-0.10874-0.03969-0.07937 0-0.12303 0.04604-0.12303 0.1016 0 0.06509 0.0635 0.08811 0.12144 0.10874 0.04366 0.01588 0.09287 0.03651 0.09287 0.08414 0 0.04048-0.03096 0.07541-0.09049 0.07541-0.05477 0-0.0889-0.02143-0.12144-0.04842z"/>
    <path d="m99.15 85.942c0 0.12621 0.07461 0.19923 0.17304 0.19923 0.04842 0 0.0889-0.02143 0.12144-0.0508l-0.01826-0.02381c-0.02619 0.02381-0.06112 0.04366-0.1016 0.04366-0.08334 0-0.13811-0.06826-0.13811-0.16828 0-0.10081 0.06033-0.16986 0.13811-0.16986 0.03731 0 0.06588 0.01746 0.09049 0.04048l0.02064-0.02461c-0.0254-0.02381-0.05953-0.04683-0.11192-0.04683-0.09287 0-0.17383 0.07303-0.17383 0.20082z"/>
    <path d="m99.509 86.036c0 0.07223 0.0508 0.10478 0.11112 0.10478 0.05001 0 0.09604-0.02778 0.13494-0.05874h0.0016l4e-3 0.04921h0.02937v-0.24368c0-0.08176-0.03016-0.14684-0.12065-0.14684-0.06191 0-0.1143 0.03016-0.14129 0.04921l0.01587 0.02619c0.0254-0.01905 0.06985-0.04445 0.12144-0.04445 0.07461 0 0.09128 0.06271 0.08969 0.12065-0.16907 0.01905-0.24606 0.05953-0.24606 0.14367zm0.03651-0.0016c0-0.06033 0.05318-0.09684 0.20955-0.11509v0.12938c-0.04683 0.04048-0.08572 0.06191-0.12938 0.06191-0.04366 0-0.08017-0.02143-0.08017-0.0762z"/>
    <path d="m99.926 86.081c0 0.04127 0.01587 0.06032 0.04683 0.06032 0.01111 0 0.01826-0.0016 0.0254-4e-3l-0.0063-0.02857c-0.0079 0.0016-0.01111 0.0016-0.01429 0.0016-0.0095 0-0.01667-0.0079-0.01667-0.02461v-0.52467h-0.03493z"/>
    <path d="m100.08 85.942c0 0.12462 0.0786 0.19923 0.17621 0.19923 0.0556 0 0.0897-0.01905 0.11985-0.03731l-0.0143-0.02699c-0.0286 0.02064-0.0611 0.03413-0.1024 0.03413-0.0857 0-0.14208-0.06906-0.14367-0.1651h0.27464c2e-3 -0.0095 2e-3 -0.01905 2e-3 -0.02858 0-0.11192-0.0556-0.17621-0.14605-0.17621-0.0849 0-0.16589 0.0762-0.16589 0.20082zm0.0357-0.02302c8e-3 -0.09128 0.0659-0.14764 0.13097-0.14764 0.0683 0 0.11192 0.05001 0.11192 0.14764z"/>
    <path d="m100.48 85.802c0 0.02223 0.0167 0.03572 0.0341 0.03572 0.0175 0 0.0333-0.01349 0.0333-0.03572 0-0.02302-0.0159-0.03651-0.0333-0.03651-0.0175 0-0.0341 0.01349-0.0341 0.03651zm0 0.30321c0 0.02223 0.0167 0.03572 0.0341 0.03572 0.0175 0 0.0333-0.01349 0.0333-0.03572 0-0.02302-0.0159-0.03651-0.0333-0.03651-0.0175 0-0.0341 0.01349-0.0341 0.03651z"/>
    <path d="m100.82 86.132h0.26511v-0.03096h-0.11033v-0.47625h-0.0286c-0.0238 0.01349-0.0564 0.02461-0.0976 0.03175v0.02381h0.0905v0.42069h-0.11906z"/>
   </g>
   <path d="m96.043 82.618h1.3229v1.3229h-1.3229z" fill="#2c57df"/>
   <path d="m96.706 77.589v-3.1462" fill="#a6aeb8" stroke="#47d58a" stroke-dashoffset="1.2" stroke-linecap="square" stroke-miterlimit="40" stroke-width=".052917"/>
   <rect transform="scale(1,-1)" x="96.569" y="-77.856" width=".26762" height=".33452" fill="#47d58a"/>
  </g>
  <path d="m95.773 83.275h-0.51475l0.0071-9.525h0.75417" fill="none" stroke="#47d58a" stroke-dashoffset="1.2" stroke-linecap="square" stroke-miterlimit="40" stroke-width=".052917"/>
  <rect transform="matrix(0,-1,-1,0,0,0)" x="-83.412" y="-96.04" width=".26762" height=".33452" fill="#47d58a"/>
 </g>
</svg>
