<svg width="34.416mm" height="19.864mm" version="1.1" viewBox="0 0 34.416 19.864" xmlns="http://www.w3.org/2000/svg">
 <g transform="translate(-72.057 -59.134)">
  <rect x="72.067" y="59.144" width="34.396" height="19.844" fill="#03060c" stroke="#000" stroke-dashoffset="1.2" stroke-linecap="square" stroke-miterlimit="40" stroke-width=".020293"/>
  <g fill="#7b8694" stroke="#2f3744" stroke-dashoffset="1.2" stroke-linecap="square" stroke-miterlimit="40" stroke-width=".026458">
   <path d="m77.372 63.099v13.229"/>
   <path d="m80.017 63.099v13.229"/>
   <path d="m82.663 63.099v13.229"/>
   <path d="m85.309 63.099v13.229"/>
   <path d="m87.955 63.099v13.229"/>
   <path d="m90.601 63.099v13.229"/>
   <path d="m93.247 63.099v13.229"/>
   <path d="m95.892 63.099v13.229"/>
   <path d="m76.049 64.422h19.844"/>
   <path d="m76.049 63.099h19.844"/>
   <path d="m76.049 65.745h19.844"/>
   <path d="m76.049 68.391h19.844"/>
   <path d="m76.049 71.037h19.844"/>
   <path d="m76.049 73.683h19.844"/>
   <path d="m76.049 76.329h19.844"/>
   <path d="m76.049 75.006h19.844"/>
   <path d="m76.049 72.36h19.844"/>
   <path d="m76.049 69.714h19.844"/>
   <path d="m76.049 67.068h19.844"/>
   <path d="m76.049 63.099v13.229"/>
   <path d="m78.694 63.099v13.229"/>
   <path d="m81.34 63.099v13.229"/>
   <path d="m83.986 63.099v13.229"/>
   <path d="m86.632 63.099v13.229"/>
   <path d="m89.278 63.099v13.229"/>
   <path d="m91.924 63.099v13.229"/>
   <path d="m94.569 63.099v13.229"/>
  </g>
  <path d="m74.726 63.099h-0.79375v13.229h0.79375" fill="none" stroke="#d2d6dc" stroke-dashoffset="1.2" stroke-linecap="square" stroke-miterlimit="40" stroke-width=".026458"/>
  <path d="m76.049 61.777v-0.79375h19.844v0.79375" fill="none" stroke="#d2d6dc" stroke-dashoffset="1.2" stroke-linecap="square" stroke-miterlimit="40" stroke-width=".026458"/>
  <g>
   <g fill="#d2d6dc" stroke-linecap="square" stroke-miterlimit="40" stroke-width=".026458" aria-label="150">
    <path d="m85.462 60.822h0.26511v-0.03096h-0.11033v-0.47625h-0.02858c-0.02381 0.01349-0.05636 0.02461-0.09763 0.03175v0.02381h0.09049v0.42069h-0.11906z"/>
    <path d="m85.795 60.764c0.03254 0.03254 0.07858 0.06826 0.15954 0.06826 0.08176 0 0.16192-0.06112 0.16192-0.16907 0-0.11112-0.06906-0.16034-0.15478-0.16034-0.03731 0-0.06429 0.01111-0.09049 0.02699l0.01588-0.18336h0.20241v-0.03096h-0.23416l-0.01826 0.23733 0.02461 0.01508c0.03016-0.02064 0.05556-0.03413 0.09446-0.03413 0.07541 0 0.12382 0.04921 0.12382 0.13097 0 0.08176-0.05874 0.13652-0.12621 0.13652-0.06906 0-0.10874-0.03096-0.13891-0.06191z"/>
    <path d="m86.344 60.832c0.09684 0 0.15161-0.09604 0.15161-0.26511 0-0.16828-0.05477-0.26114-0.15161-0.26114-0.09684 0-0.15161 0.09287-0.15161 0.26114 0 0.16907 0.05477 0.26511 0.15161 0.26511zm0-0.03016c-0.06985 0-0.11589-0.08017-0.11589-0.23495 0-0.15478 0.04604-0.23098 0.11589-0.23098 0.07064 0 0.11589 0.0762 0.11589 0.23098 0 0.15478-0.04524 0.23495-0.11589 0.23495z"/>
   </g>
   <g fill="#d2d6dc" stroke-linecap="square" stroke-miterlimit="40" stroke-width=".026458" aria-label="100">
    <path d="m72.762 70.083h0.26511v-0.03096h-0.11033v-0.47625h-0.02858c-0.02381 0.01349-0.05636 0.02461-0.09763 0.03175v0.02381h0.09049v0.42069h-0.11906z"/>
    <path d="m73.264 70.092c0.09684 0 0.15161-0.09604 0.15161-0.26511 0-0.16828-0.05477-0.26114-0.15161-0.26114-0.09684 0-0.15161 0.09287-0.15161 0.26114 0 0.16907 0.05477 0.26511 0.15161 0.26511zm0-0.03016c-0.06985 0-0.11589-0.08017-0.11589-0.23495 0-0.15478 0.04604-0.23098 0.11589-0.23098 0.07064 0 0.11589 0.0762 0.11589 0.23098 0 0.15478-0.04524 0.23495-0.11589 0.23495z"/>
    <path d="m73.644 70.092c0.09684 0 0.15161-0.09604 0.15161-0.26511 0-0.16828-0.05477-0.26114-0.15161-0.26114-0.09684 0-0.15161 0.09287-0.15161 0.26114 0 0.16907 0.05477 0.26511 0.15161 0.26511zm0-0.03016c-0.06985 0-0.11589-0.08017-0.11589-0.23495 0-0.15478 0.04604-0.23098 0.11589-0.23098 0.07064 0 0.11589 0.0762 0.11589 0.23098 0 0.15478-0.04524 0.23495-0.11589 0.23495z"/>
   </g>
   <path d="m80.004 65.759h5.2917v5.2917h-5.2917z" fill="#cf2f25"/>
  </g>
  <g fill="none" stroke="#d2d6dc" stroke-linecap="square" stroke-miterlimit="40" stroke-width=".026458">
   <path d="m80.026 64.424h6.5805"/>
   <path d="m86.367 64.689 0.26458-0.26458-0.26458-0.26458"/>
   <path d="m80.281 64.689-0.26458-0.26458 0.26458-0.26458"/>
  </g>
  <g>
   <g fill="#d2d6dc" stroke-linecap="square" stroke-miterlimit="40" stroke-width=".026458" aria-label="50">
    <path d="m83.034 64.204c0.03254 0.03254 0.07858 0.06826 0.15954 0.06826 0.08176 0 0.16192-0.06112 0.16192-0.16907 0-0.11112-0.06906-0.16034-0.15478-0.16034-0.03731 0-0.06429 0.01111-0.09049 0.02699l0.01587-0.18336h0.20241v-0.03096h-0.23416l-0.01826 0.23733 0.02461 0.01508c0.03016-0.02064 0.05556-0.03413 0.09446-0.03413 0.07541 0 0.12382 0.04921 0.12382 0.13097 0 0.08176-0.05874 0.13652-0.12621 0.13652-0.06906 0-0.10874-0.03096-0.13891-0.06191z"/>
    <path d="m83.583 64.273c0.09684 0 0.15161-0.09604 0.15161-0.26511 0-0.16828-0.05477-0.26114-0.15161-0.26114-0.09684 0-0.15161 0.09287-0.15161 0.26114 0 0.16907 0.05477 0.26511 0.15161 0.26511zm0-0.03016c-0.06985 0-0.11589-0.08017-0.11589-0.23495 0-0.15478 0.04604-0.23098 0.11589-0.23098 0.07064 0 0.11589 0.0762 0.11589 0.23098s-0.04524 0.23495-0.11589 0.23495z"/>
   </g>
   <g fill="#d2d6dc" stroke-linecap="square" stroke-miterlimit="40" stroke-width=".026458" aria-label="pivot">
    <path d="m80.74 65.284c0.03969 0.02937 0.07858 0.04683 0.1143 0.04683 0.08969 0 0.16828-0.0762 0.16828-0.20558 0-0.11827-0.0508-0.19447-0.1524-0.19447-0.04683 0-0.09207 0.02778-0.12938 0.05715h-0.0024l-0.0032-0.04762h-0.03016v0.55324h0.03493v-0.13891zm0-0.03334v-0.22622c0.04604-0.04048 0.08652-0.06271 0.12462-0.06271 0.08731 0 0.12065 0.06985 0.12065 0.16351 0 0.10319-0.05556 0.17462-0.13256 0.17462-0.02937 0-0.06906-0.01349-0.11271-0.04921z"/>
    <path d="m81.156 64.848c0.01746 0 0.03175-0.0127 0.03175-0.03096 0-0.01984-0.01429-0.03175-0.03175-0.03175s-0.03175 0.01191-0.03175 0.03175c0 0.01826 0.01429 0.03096 0.03175 0.03096zm-0.01826 0.47308h0.03493v-0.381h-0.03493z"/>
    <path d="m81.399 65.321h0.04127l0.14129-0.381h-0.03572l-0.08572 0.23892c-0.0127 0.03651-0.02619 0.07461-0.03889 0.10954h-0.0032c-0.01191-0.03493-0.02619-0.07303-0.0381-0.10954l-0.08572-0.23892h-0.0381z"/>
    <path d="m81.632 65.132c0 0.12621 0.07937 0.19923 0.17066 0.19923 0.09207 0 0.17145-0.07303 0.17145-0.19923 0-0.12779-0.07937-0.20082-0.17145-0.20082-0.09128 0-0.17066 0.07303-0.17066 0.20082zm0.03651 0c0-0.10081 0.05715-0.16986 0.13414-0.16986 0.07699 0 0.13494 0.06906 0.13494 0.16986 0 0.10001-0.05794 0.16828-0.13494 0.16828-0.07699 0-0.13414-0.06826-0.13414-0.16828z"/>
    <path d="m82.097 65.216c0 0.06826 0.02143 0.11509 0.09525 0.11509 0.01588 0 0.03969-0.0063 0.06191-0.01429l-0.0095-0.02858c-0.01349 0.0063-0.03334 0.01191-0.04763 0.01191-0.05239 0-0.06429-0.03254-0.06429-0.08096v-0.24844h0.11033v-0.03016h-0.11033v-0.11033h-0.03016l-0.0048 0.11033-0.06033 0.0032v0.02699h0.05953z"/>
   </g>
   <circle cx="80.004" cy="65.759" r=".63313" fill="none" stroke="#d2d6dc" stroke-dashoffset="1.2" stroke-linecap="round" stroke-width=".052917"/>
  </g>
  <g>
   <g fill="#d2d6dc" stroke-linecap="square" stroke-miterlimit="40" stroke-width=".026458" aria-label="x: 30 y: 20 size: 40 scale: 1">
    <path d="m99.958 63.65h0.03731l0.06508-0.10398c0.0151-0.02381 0.0286-0.04763 0.0437-0.06985h3e-3c0.0159 0.02222 0.031 0.04604 0.0452 0.06985l0.0675 0.10398h0.0389l-0.12938-0.19606 0.11827-0.18494h-0.0365l-0.0595 0.09684c-0.0135 0.02064-0.0254 0.04207-0.0389 0.06271h-3e-3c-0.0143-0.02064-0.0278-0.04207-0.0405-0.06271l-0.0619-0.09684h-0.03889l0.11906 0.18177z"/>
    <path d="m100.32 63.321c0 0.02222 0.0167 0.03572 0.0341 0.03572 0.0175 0 0.0333-0.01349 0.0333-0.03572 0-0.02302-0.0159-0.03651-0.0333-0.03651-0.0175 0-0.0341 0.01349-0.0341 0.03651zm0 0.30321c0 0.02222 0.0167 0.03572 0.0341 0.03572 0.0175 0 0.0333-0.01349 0.0333-0.03572 0-0.02302-0.0159-0.03651-0.0333-0.03651-0.0175 0-0.0341 0.01349-0.0341 0.03651z"/>
    <path d="m100.62 63.588c0.0325 0.03413 0.0802 0.07144 0.16113 0.07144 0.0873 0 0.15478-0.05556 0.15478-0.14367 0-0.07144-0.0524-0.11827-0.11509-0.13176v-0.0032c0.0556-0.01905 0.0968-0.05874 0.0968-0.12541 0-0.07779-0.0603-0.12224-0.13891-0.12224-0.0587 0-0.10239 0.02778-0.13732 0.06191l0.0206 0.02381c0.0294-0.03096 0.0699-0.05556 0.11668-0.05556 0.0619 0 0.10239 0.03731 0.10239 0.09446 0 0.06112-0.0413 0.11033-0.15875 0.11033v0.03096c0.12621 0 0.17701 0.04763 0.17701 0.11748 0 0.06747-0.05 0.11192-0.11827 0.11192-0.0699 0-0.11033-0.03175-0.14049-0.06509z"/>
    <path d="m101.17 63.66c0.0968 0 0.15161-0.09604 0.15161-0.26511 0-0.16828-0.0548-0.26114-0.15161-0.26114-0.0968 0-0.15161 0.09287-0.15161 0.26114 0 0.16907 0.0548 0.26511 0.15161 0.26511zm0-0.03016c-0.0699 0-0.11589-0.08017-0.11589-0.23495 0-0.15478 0.046-0.23098 0.11589-0.23098 0.0706 0 0.11589 0.0762 0.11589 0.23098 0 0.15478-0.0452 0.23495-0.11589 0.23495z"/>
    <path d="m99.974 64.777-0.0079 0.03096c0.01032 0.0048 0.02461 0.0079 0.03889 0.0079 0.0683 0 0.10636-0.06271 0.1278-0.12621l0.15081-0.42862h-0.0357l-0.0818 0.23971c-0.0103 0.03175-0.023 0.07303-0.0349 0.10636h-3e-3c-0.0143-0.03334-0.0294-0.07461-0.0413-0.10636l-0.09208-0.23971h-0.0381l0.15637 0.38814-0.0103 0.03334c-0.0191 0.05794-0.0508 0.10081-0.0976 0.10081-0.01111 0-0.02302-0.0032-0.03095-0.0063z"/>
    <path d="m100.35 64.313c0 0.02223 0.0167 0.03572 0.0341 0.03572 0.0175 0 0.0333-0.01349 0.0333-0.03572 0-0.02302-0.0159-0.03651-0.0333-0.03651-0.0175 0-0.0341 0.01349-0.0341 0.03651zm0 0.30321c0 0.02222 0.0167 0.03572 0.0341 0.03572 0.0175 0 0.0333-0.01349 0.0333-0.03572 0-0.02302-0.0159-0.03651-0.0333-0.03651-0.0175 0-0.0341 0.01349-0.0341 0.03651z"/>
    <path d="m100.66 64.642h0.31115v-0.03175h-0.17304c-0.0278 0-0.0572 0.0024-0.0849 4e-3 0.14049-0.14922 0.23257-0.24606 0.23257-0.34687 0-0.08572-0.0524-0.14208-0.14288-0.14208-0.0619 0-0.10636 0.03254-0.14446 0.07461l0.023 0.02222c0.031-0.0381 0.0722-0.06668 0.11827-0.06668 0.0762 0 0.11033 0.04921 0.11033 0.11271 0 0.08811-0.0833 0.18256-0.25003 0.35163z"/>
    <path d="m101.19 64.652c0.0968 0 0.15161-0.09604 0.15161-0.26511 0-0.16828-0.0548-0.26114-0.15161-0.26114-0.0968 0-0.1516 0.09287-0.1516 0.26114 0 0.16907 0.0548 0.26511 0.1516 0.26511zm0-0.03016c-0.0698 0-0.11588-0.08017-0.11588-0.23495 0-0.15478 0.046-0.23098 0.11588-0.23098 0.0707 0 0.11589 0.0762 0.11589 0.23098s-0.0452 0.23495-0.11589 0.23495z"/>
    <path d="m99.972 65.591c0.03413 0.02858 0.08334 0.05239 0.1397 0.05239 0.0825 0 0.12859-0.05001 0.12859-0.10716 0-0.07461-0.0651-0.09446-0.12462-0.11668-0.0452-0.01667-0.0897-0.03492-0.0897-0.07699 0-0.03493 0.027-0.06906 0.0857-0.06906 0.0389 0 0.0659 0.01508 0.0913 0.03413l0.019-0.02461c-0.0278-0.02302-0.0683-0.03969-0.10874-0.03969-0.0794 0-0.12304 0.04604-0.12304 0.1016 0 0.06509 0.0635 0.08811 0.12145 0.10874 0.0436 0.01588 0.0929 0.03651 0.0929 0.08414 0 0.04048-0.031 0.07541-0.0905 0.07541-0.0548 0-0.0889-0.02143-0.12144-0.04842z"/>
    <path d="m100.36 65.161c0.0175 0 0.0318-0.0127 0.0318-0.03096 0-0.01984-0.0143-0.03175-0.0318-0.03175s-0.0318 0.01191-0.0318 0.03175c0 0.01826 0.0143 0.03096 0.0318 0.03096zm-0.0183 0.47308h0.0349v-0.381h-0.0349z"/>
    <path d="m100.47 65.634h0.27861v-0.03096h-0.23257l0.22463-0.33179v-0.01826h-0.24606v0.03016h0.20082l-0.22543 0.33179z"/>
    <path d="m100.8 65.445c0 0.12462 0.0786 0.19923 0.17621 0.19923 0.0556 0 0.0897-0.01905 0.11986-0.03731l-0.0143-0.02699c-0.0286 0.02064-0.0611 0.03413-0.1024 0.03413-0.0857 0-0.14208-0.06906-0.14366-0.1651h0.27463c2e-3 -0.0095 2e-3 -0.01905 2e-3 -0.02858 0-0.11192-0.0556-0.17621-0.14605-0.17621-0.0849 0-0.16589 0.0762-0.16589 0.20082zm0.0357-0.02302c8e-3 -0.09128 0.0659-0.14764 0.13096-0.14764 0.0683 0 0.11192 0.05001 0.11192 0.14764z"/>
    <path d="m101.2 65.305c0 0.02222 0.0167 0.03572 0.0341 0.03572 0.0175 0 0.0333-0.01349 0.0333-0.03572 0-0.02302-0.0159-0.03651-0.0333-0.03651-0.0175 0-0.0341 0.01349-0.0341 0.03651zm0 0.30321c0 0.02223 0.0167 0.03572 0.0341 0.03572 0.0175 0 0.0333-0.01349 0.0333-0.03572 0-0.02302-0.0159-0.03651-0.0333-0.03651-0.0175 0-0.0341 0.01349-0.0341 0.03651z"/>
    <path d="m101.53 65.453 0.14922-0.20955c0.0143-0.02302 0.0286-0.04207 0.0413-0.0635h3e-3c-2e-3 0.02302-3e-3 0.06429-3e-3 0.08731v0.18574zm0.30004 0h-0.0754v-0.32544h-0.0318l-0.23574 0.33496v0.02064h0.23336v0.15161h0.0341v-0.15161h0.0754z"/>
    <path d="m102.05 65.644c0.0968 0 0.1516-0.09604 0.1516-0.26511 0-0.16828-0.0548-0.26114-0.1516-0.26114s-0.15161 0.09287-0.15161 0.26114c0 0.16907 0.0548 0.26511 0.15161 0.26511zm0-0.03016c-0.0699 0-0.11589-0.08017-0.11589-0.23495 0-0.15478 0.046-0.23098 0.11589-0.23098 0.0706 0 0.11588 0.0762 0.11588 0.23098 0 0.15478-0.0452 0.23495-0.11588 0.23495z"/>
    <path d="m99.972 66.584c0.03413 0.02858 0.08334 0.05239 0.1397 0.05239 0.0825 0 0.12859-0.05001 0.12859-0.10716 0-0.07461-0.0651-0.09446-0.12462-0.11668-0.0452-0.01667-0.0897-0.03493-0.0897-0.07699 0-0.03492 0.027-0.06906 0.0857-0.06906 0.0389 0 0.0659 0.01508 0.0913 0.03413l0.019-0.02461c-0.0278-0.02302-0.0683-0.03969-0.10874-0.03969-0.0794 0-0.12304 0.04604-0.12304 0.1016 0 0.06509 0.0635 0.08811 0.12145 0.10874 0.0436 0.01588 0.0929 0.03651 0.0929 0.08414 0 0.04048-0.031 0.07541-0.0905 0.07541-0.0548 0-0.0889-0.02143-0.12144-0.04842z"/>
    <path d="m100.31 66.437c0 0.12621 0.0746 0.19923 0.17304 0.19923 0.0484 0 0.0889-0.02143 0.12144-0.0508l-0.0182-0.02381c-0.0262 0.02381-0.0611 0.04366-0.1016 0.04366-0.0833 0-0.13811-0.06826-0.13811-0.16828 0-0.10081 0.0603-0.16986 0.13811-0.16986 0.0373 0 0.0659 0.01746 0.0905 0.04048l0.0206-0.02461c-0.0254-0.02381-0.0595-0.04683-0.11192-0.04683-0.0929 0-0.17383 0.07303-0.17383 0.20082z"/>
    <path d="m100.67 66.531c0 0.07223 0.0508 0.10478 0.11112 0.10478 0.05 0 0.0961-0.02778 0.13494-0.05874h2e-3l4e-3 0.04921h0.0294v-0.24368c0-0.08176-0.0302-0.14684-0.12065-0.14684-0.0619 0-0.1143 0.03016-0.14129 0.04921l0.0159 0.02619c0.0254-0.01905 0.0699-0.04445 0.12145-0.04445 0.0746 0 0.0913 0.06271 0.0897 0.12065-0.16907 0.01905-0.24606 0.05953-0.24606 0.14367zm0.0365-0.0016c0-0.06033 0.0532-0.09684 0.20955-0.11509v0.12938c-0.0468 0.04048-0.0857 0.06191-0.12938 0.06191-0.0437 0-0.0802-0.02143-0.0802-0.0762z"/>
    <path d="m101.09 66.576c0 0.04127 0.0159 0.06032 0.0468 0.06032 0.0111 0 0.0183-0.0016 0.0254-4e-3l-6e-3 -0.02857c-8e-3 0.0016-0.0111 0.0016-0.0143 0.0016-0.01 0-0.0167-0.0079-0.0167-0.02461v-0.52467h-0.0349z"/>
    <path d="m101.24 66.437c0 0.12462 0.0786 0.19923 0.17621 0.19923 0.0556 0 0.0897-0.01905 0.11986-0.03731l-0.0143-0.02699c-0.0286 0.02064-0.0611 0.03413-0.10239 0.03413-0.0857 0-0.14208-0.06906-0.14367-0.1651h0.27464c2e-3 -0.0095 2e-3 -0.01905 2e-3 -0.02857 0-0.11192-0.0556-0.17621-0.14605-0.17621-0.0849 0-0.16589 0.0762-0.16589 0.20082zm0.0357-0.02302c8e-3 -0.09128 0.0659-0.14764 0.13097-0.14764 0.0683 0 0.11192 0.05001 0.11192 0.14764z"/>
    <path d="m101.64 66.297c0 0.02223 0.0167 0.03572 0.0341 0.03572 0.0175 0 0.0333-0.01349 0.0333-0.03572 0-0.02302-0.0159-0.03651-0.0333-0.03651-0.0175 0-0.0341 0.01349-0.0341 0.03651zm0 0.30321c0 0.02222 0.0167 0.03572 0.0341 0.03572 0.0175 0 0.0333-0.01349 0.0333-0.03572 0-0.02302-0.0159-0.03651-0.0333-0.03651-0.0175 0-0.0341 0.01349-0.0341 0.03651z"/>
    <path d="m101.98 66.627h0.26512v-0.03096h-0.11033v-0.47625h-0.0286c-0.0238 0.01349-0.0564 0.02461-0.0976 0.03175v0.02381h0.0905v0.42069h-0.11907z"/>
   </g>
   <path d="m97.202 63.113h1.3229v1.3229h-1.3229z" fill="#cf2f25"/>
   <path d="m86.619 68.404h2.6458v2.6458h-2.6458z" fill="#009244"/>
   <path d="m90.588 68.404h2.6458v2.6458h-2.6458z" fill="#2c57df"/>
  </g>
  <g fill="none" stroke="#d2d6dc" stroke-linecap="square" stroke-miterlimit="40" stroke-width=".026458">
   <path d="m86.641 67.07h3.9346"/>
   <path d="m90.335 67.334 0.26458-0.26458-0.26458-0.26458"/>
   <path d="m86.896 67.334-0.26458-0.26458 0.26458-0.26458"/>
  </g>
  <g>
   <g fill="#d2d6dc" stroke-linecap="square" stroke-miterlimit="40" stroke-width=".026458" aria-label="30">
    <path d="m88.328 66.847c0.03254 0.03413 0.08017 0.07144 0.16113 0.07144 0.08731 0 0.15478-0.05556 0.15478-0.14367 0-0.07144-0.05239-0.11827-0.11509-0.13176v-0.0032c0.05556-0.01905 0.09684-0.05874 0.09684-0.12541 0-0.07779-0.06033-0.12224-0.13891-0.12224-0.05874 0-0.10239 0.02778-0.13732 0.06191l0.02064 0.02381c0.02937-0.03096 0.06985-0.05556 0.11668-0.05556 0.06191 0 0.10239 0.03731 0.10239 0.09446 0 0.06112-0.04127 0.11033-0.15875 0.11033v0.03096c0.12621 0 0.17701 0.04762 0.17701 0.11748 0 0.06747-0.05001 0.11192-0.11827 0.11192-0.06985 0-0.11033-0.03175-0.14049-0.06509z"/>
    <path d="m88.875 66.918c0.09684 0 0.15161-0.09604 0.15161-0.26511 0-0.16828-0.05477-0.26114-0.15161-0.26114-0.09684 0-0.15161 0.09287-0.15161 0.26114 0 0.16907 0.05477 0.26511 0.15161 0.26511zm0-0.03016c-0.06985 0-0.11589-0.08017-0.11589-0.23495 0-0.15478 0.04604-0.23098 0.11589-0.23098 0.07064 0 0.11589 0.0762 0.11589 0.23098 0 0.15478-0.04524 0.23495-0.11589 0.23495z"/>
   </g>
   <g fill="#d2d6dc" stroke-linecap="square" stroke-miterlimit="40" stroke-width=".026458" aria-label="x: 50 y: 20 size: 40 scale: 0.5">
    <path d="m99.958 68.412h0.03731l0.06508-0.10398c0.0151-0.02381 0.0286-0.04762 0.0437-0.06985h3e-3c0.0159 0.02223 0.031 0.04604 0.0452 0.06985l0.0675 0.10398h0.0389l-0.12938-0.19606 0.11827-0.18494h-0.0365l-0.0595 0.09684c-0.0135 0.02064-0.0254 0.04207-0.0389 0.06271h-3e-3c-0.0143-0.02064-0.0278-0.04207-0.0405-0.06271l-0.0619-0.09684h-0.03889l0.11906 0.18177z"/>
    <path d="m100.32 68.083c0 0.02223 0.0167 0.03572 0.0341 0.03572 0.0175 0 0.0333-0.01349 0.0333-0.03572 0-0.02302-0.0159-0.03651-0.0333-0.03651-0.0175 0-0.0341 0.01349-0.0341 0.03651zm0 0.30321c0 0.02223 0.0167 0.03572 0.0341 0.03572 0.0175 0 0.0333-0.01349 0.0333-0.03572 0-0.02302-0.0159-0.03651-0.0333-0.03651-0.0175 0-0.0341 0.01349-0.0341 0.03651z"/>
    <path d="m100.62 68.354c0.0325 0.03254 0.0786 0.06826 0.15954 0.06826 0.0818 0 0.16193-0.06112 0.16193-0.16907 0-0.11112-0.0691-0.16034-0.15478-0.16034-0.0373 0-0.0643 0.01111-0.0905 0.02699l0.0159-0.18336h0.20241v-0.03096h-0.23416l-0.0182 0.23733 0.0246 0.01508c0.0302-0.02064 0.0556-0.03413 0.0945-0.03413 0.0754 0 0.12383 0.04921 0.12383 0.13097 0 0.08176-0.0587 0.13652-0.12621 0.13652-0.0691 0-0.10874-0.03096-0.13891-0.06191z"/>
    <path d="m101.17 68.422c0.0968 0 0.15161-0.09604 0.15161-0.26511 0-0.16828-0.0548-0.26114-0.15161-0.26114-0.0968 0-0.15161 0.09287-0.15161 0.26114 0 0.16907 0.0548 0.26511 0.15161 0.26511zm0-0.03016c-0.0699 0-0.11589-0.08017-0.11589-0.23495 0-0.15478 0.046-0.23098 0.11589-0.23098 0.0706 0 0.11589 0.0762 0.11589 0.23098s-0.0452 0.23495-0.11589 0.23495z"/>
    <path d="m99.974 69.54-0.0079 0.03096c0.01032 0.0048 0.02461 0.0079 0.03889 0.0079 0.0683 0 0.10636-0.06271 0.1278-0.12621l0.15081-0.42862h-0.0357l-0.0818 0.23971c-0.0103 0.03175-0.023 0.07303-0.0349 0.10636h-3e-3c-0.0143-0.03334-0.0294-0.07461-0.0413-0.10636l-0.09208-0.23971h-0.0381l0.15637 0.38814-0.0103 0.03334c-0.0191 0.05794-0.0508 0.10081-0.0976 0.10081-0.01111 0-0.02302-0.0032-0.03095-0.0063z"/>
    <path d="m100.35 69.075c0 0.02223 0.0167 0.03572 0.0341 0.03572 0.0175 0 0.0333-0.01349 0.0333-0.03572 0-0.02302-0.0159-0.03651-0.0333-0.03651-0.0175 0-0.0341 0.01349-0.0341 0.03651zm0 0.30321c0 0.02223 0.0167 0.03572 0.0341 0.03572 0.0175 0 0.0333-0.01349 0.0333-0.03572 0-0.02302-0.0159-0.03651-0.0333-0.03651-0.0175 0-0.0341 0.01349-0.0341 0.03651z"/>
    <path d="m100.66 69.405h0.31115v-0.03175h-0.17304c-0.0278 0-0.0572 0.0024-0.0849 4e-3 0.14049-0.14922 0.23257-0.24606 0.23257-0.34687 0-0.08572-0.0524-0.14208-0.14288-0.14208-0.0619 0-0.10636 0.03254-0.14446 0.07461l0.023 0.02223c0.031-0.0381 0.0722-0.06668 0.11827-0.06668 0.0762 0 0.11033 0.04921 0.11033 0.11271 0 0.08811-0.0833 0.18256-0.25003 0.35163z"/>
    <path d="m101.19 69.414c0.0968 0 0.15161-0.09604 0.15161-0.26511 0-0.16828-0.0548-0.26114-0.15161-0.26114-0.0968 0-0.1516 0.09287-0.1516 0.26114 0 0.16907 0.0548 0.26511 0.1516 0.26511zm0-0.03016c-0.0698 0-0.11588-0.08017-0.11588-0.23495 0-0.15478 0.046-0.23098 0.11588-0.23098 0.0707 0 0.11589 0.0762 0.11589 0.23098 0 0.15478-0.0452 0.23495-0.11589 0.23495z"/>
    <path d="m99.972 70.354c0.03413 0.02858 0.08334 0.05239 0.1397 0.05239 0.0825 0 0.12859-0.05001 0.12859-0.10716 0-0.07461-0.0651-0.09446-0.12462-0.11668-0.0452-0.01667-0.0897-0.03492-0.0897-0.07699 0-0.03493 0.027-0.06906 0.0857-0.06906 0.0389 0 0.0659 0.01508 0.0913 0.03413l0.019-0.02461c-0.0278-0.02302-0.0683-0.03969-0.10874-0.03969-0.0794 0-0.12304 0.04604-0.12304 0.1016 0 0.06509 0.0635 0.08811 0.12145 0.10874 0.0436 0.01588 0.0929 0.03651 0.0929 0.08414 0 0.04048-0.031 0.07541-0.0905 0.07541-0.0548 0-0.0889-0.02143-0.12144-0.04842z"/>
    <path d="m100.36 69.924c0.0175 0 0.0318-0.0127 0.0318-0.03096 0-0.01984-0.0143-0.03175-0.0318-0.03175s-0.0318 0.01191-0.0318 0.03175c0 0.01826 0.0143 0.03096 0.0318 0.03096zm-0.0183 0.47308h0.0349v-0.381h-0.0349z"/>
    <path d="m100.47 70.397h0.27861v-0.03096h-0.23257l0.22463-0.33179v-0.01826h-0.24606v0.03016h0.20082l-0.22543 0.33179z"/>
    <path d="m100.8 70.207c0 0.12462 0.0786 0.19923 0.17621 0.19923 0.0556 0 0.0897-0.01905 0.11986-0.03731l-0.0143-0.02699c-0.0286 0.02064-0.0611 0.03413-0.1024 0.03413-0.0857 0-0.14208-0.06906-0.14366-0.1651h0.27463c2e-3 -0.0095 2e-3 -0.01905 2e-3 -0.02858 0-0.11192-0.0556-0.17621-0.14605-0.17621-0.0849 0-0.16589 0.0762-0.16589 0.20082zm0.0357-0.02302c8e-3 -0.09128 0.0659-0.14764 0.13096-0.14764 0.0683 0 0.11192 0.05001 0.11192 0.14764z"/>
    <path d="m101.2 70.067c0 0.02223 0.0167 0.03572 0.0341 0.03572 0.0175 0 0.0333-0.01349 0.0333-0.03572 0-0.02302-0.0159-0.03651-0.0333-0.03651-0.0175 0-0.0341 0.01349-0.0341 0.03651zm0 0.30321c0 0.02223 0.0167 0.03572 0.0341 0.03572 0.0175 0 0.0333-0.01349 0.0333-0.03572 0-0.02302-0.0159-0.03651-0.0333-0.03651-0.0175 0-0.0341 0.01349-0.0341 0.03651z"/>
    <path d="m101.53 70.215 0.14922-0.20955c0.0143-0.02302 0.0286-0.04207 0.0413-0.0635h3e-3c-2e-3 0.02302-3e-3 0.06429-3e-3 0.08731v0.18574zm0.30004 0h-0.0754v-0.32544h-0.0318l-0.23574 0.33496v0.02064h0.23336v0.15161h0.0341v-0.15161h0.0754z"/>
    <path d="m102.05 70.406c0.0968 0 0.1516-0.09604 0.1516-0.26511 0-0.16828-0.0548-0.26114-0.1516-0.26114s-0.15161 0.09287-0.15161 0.26114c0 0.16907 0.0548 0.26511 0.15161 0.26511zm0-0.03016c-0.0699 0-0.11589-0.08017-0.11589-0.23495 0-0.15478 0.046-0.23098 0.11589-0.23098 0.0706 0 0.11588 0.0762 0.11588 0.23098s-0.0452 0.23495-0.11588 0.23495z"/>
    <path d="m99.972 71.346c0.03413 0.02858 0.08334 0.05239 0.1397 0.05239 0.0825 0 0.12859-0.05001 0.12859-0.10716 0-0.07461-0.0651-0.09446-0.12462-0.11668-0.0452-0.01667-0.0897-0.03493-0.0897-0.07699 0-0.03492 0.027-0.06906 0.0857-0.06906 0.0389 0 0.0659 0.01508 0.0913 0.03413l0.019-0.02461c-0.0278-0.02302-0.0683-0.03969-0.10874-0.03969-0.0794 0-0.12304 0.04604-0.12304 0.1016 0 0.06509 0.0635 0.08811 0.12145 0.10874 0.0436 0.01588 0.0929 0.03651 0.0929 0.08414 0 0.04048-0.031 0.07541-0.0905 0.07541-0.0548 0-0.0889-0.02143-0.12144-0.04842z"/>
    <path d="m100.31 71.199c0 0.12621 0.0746 0.19923 0.17304 0.19923 0.0484 0 0.0889-0.02143 0.12144-0.0508l-0.0182-0.02381c-0.0262 0.02381-0.0611 0.04366-0.1016 0.04366-0.0833 0-0.13811-0.06826-0.13811-0.16828 0-0.10081 0.0603-0.16986 0.13811-0.16986 0.0373 0 0.0659 0.01746 0.0905 0.04048l0.0206-0.02461c-0.0254-0.02381-0.0595-0.04683-0.11192-0.04683-0.0929 0-0.17383 0.07303-0.17383 0.20082z"/>
    <path d="m100.67 71.294c0 0.07223 0.0508 0.10478 0.11112 0.10478 0.05 0 0.0961-0.02778 0.13494-0.05874h2e-3l4e-3 0.04921h0.0294v-0.24368c0-0.08176-0.0302-0.14684-0.12065-0.14684-0.0619 0-0.1143 0.03016-0.14129 0.04921l0.0159 0.02619c0.0254-0.01905 0.0699-0.04445 0.12145-0.04445 0.0746 0 0.0913 0.06271 0.0897 0.12065-0.16907 0.01905-0.24606 0.05953-0.24606 0.14367zm0.0365-0.0016c0-0.06033 0.0532-0.09684 0.20955-0.11509v0.12938c-0.0468 0.04048-0.0857 0.06191-0.12938 0.06191-0.0437 0-0.0802-0.02143-0.0802-0.0762z"/>
    <path d="m101.09 71.338c0 0.04127 0.0159 0.06032 0.0468 0.06032 0.0111 0 0.0183-0.0016 0.0254-4e-3l-6e-3 -0.02858c-8e-3 0.0016-0.0111 0.0016-0.0143 0.0016-0.01 0-0.0167-0.0079-0.0167-0.02461v-0.52467h-0.0349z"/>
    <path d="m101.24 71.199c0 0.12462 0.0786 0.19923 0.17621 0.19923 0.0556 0 0.0897-0.01905 0.11986-0.03731l-0.0143-0.02699c-0.0286 0.02064-0.0611 0.03413-0.10239 0.03413-0.0857 0-0.14208-0.06906-0.14367-0.1651h0.27464c2e-3 -0.0095 2e-3 -0.01905 2e-3 -0.02857 0-0.11192-0.0556-0.17621-0.14605-0.17621-0.0849 0-0.16589 0.0762-0.16589 0.20082zm0.0357-0.02302c8e-3 -0.09128 0.0659-0.14764 0.13097-0.14764 0.0683 0 0.11192 0.05001 0.11192 0.14764z"/>
    <path d="m101.64 71.06c0 0.02223 0.0167 0.03572 0.0341 0.03572 0.0175 0 0.0333-0.01349 0.0333-0.03572 0-0.02302-0.0159-0.03651-0.0333-0.03651-0.0175 0-0.0341 0.01349-0.0341 0.03651zm0 0.30321c0 0.02223 0.0167 0.03572 0.0341 0.03572 0.0175 0 0.0333-0.01349 0.0333-0.03572 0-0.02302-0.0159-0.03651-0.0333-0.03651-0.0175 0-0.0341 0.01349-0.0341 0.03651z"/>
    <path d="m102.1 71.399c0.0968 0 0.1516-0.09604 0.1516-0.26511 0-0.16828-0.0548-0.26114-0.1516-0.26114s-0.15161 0.09287-0.15161 0.26114c0 0.16907 0.0548 0.26511 0.15161 0.26511zm0-0.03016c-0.0699 0-0.11589-0.08017-0.11589-0.23495 0-0.15478 0.046-0.23098 0.11589-0.23098 0.0706 0 0.11588 0.0762 0.11588 0.23098 0 0.15478-0.0452 0.23495-0.11588 0.23495z"/>
    <path d="m102.35 71.363c0 0.02223 0.0167 0.03572 0.0341 0.03572 0.0175 0 0.0333-0.01349 0.0333-0.03572 0-0.02302-0.0159-0.03651-0.0333-0.03651-0.0175 0-0.0341 0.01349-0.0341 0.03651z"/>
    <path d="m102.49 71.33c0.0326 0.03254 0.0786 0.06826 0.15955 0.06826 0.0817 0 0.16192-0.06112 0.16192-0.16907 0-0.11112-0.0691-0.16034-0.15478-0.16034-0.0373 0-0.0643 0.01111-0.0905 0.02699l0.0159-0.18336h0.2024v-0.03096h-0.23415l-0.0183 0.23733 0.0246 0.01508c0.0302-0.02064 0.0556-0.03413 0.0945-0.03413 0.0754 0 0.12383 0.04921 0.12383 0.13097 0 0.08176-0.0587 0.13652-0.12621 0.13652-0.0691 0-0.10874-0.03096-0.1389-0.06191z"/>
   </g>
   <path d="m97.202 67.875h1.3229v1.3229h-1.3229z" fill="#009244"/>
   <g fill="#d2d6dc" stroke-linecap="square" stroke-miterlimit="40" stroke-width=".026458" aria-label="x: 60 y: 0 size: 40 scale: 1">
    <path d="m99.958 73.175h0.03731l0.06508-0.10398c0.0151-0.02381 0.0286-0.04763 0.0437-0.06985h3e-3c0.0159 0.02222 0.031 0.04604 0.0452 0.06985l0.0675 0.10398h0.0389l-0.12938-0.19606 0.11827-0.18494h-0.0365l-0.0595 0.09684c-0.0135 0.02064-0.0254 0.04207-0.0389 0.06271h-3e-3c-0.0143-0.02064-0.0278-0.04207-0.0405-0.06271l-0.0619-0.09684h-0.03889l0.11906 0.18177z"/>
    <path d="m100.32 72.846c0 0.02222 0.0167 0.03572 0.0341 0.03572 0.0175 0 0.0333-0.01349 0.0333-0.03572 0-0.02302-0.0159-0.03651-0.0333-0.03651-0.0175 0-0.0341 0.01349-0.0341 0.03651zm0 0.30321c0 0.02222 0.0167 0.03572 0.0341 0.03572 0.0175 0 0.0333-0.01349 0.0333-0.03572 0-0.02302-0.0159-0.03651-0.0333-0.03651-0.0175 0-0.0341 0.01349-0.0341 0.03651z"/>
    <path d="m100.81 73.154c-0.0825 0-0.12382-0.07223-0.13017-0.17939 0.0413-0.05556 0.0873-0.0762 0.12303-0.0762 0.077 0 0.10954 0.05398 0.10954 0.127 0 0.07223-0.0437 0.12859-0.1024 0.12859zm0.127-0.44688c-0.0262-0.02937-0.0595-0.04921-0.10715-0.04921-0.0976 0-0.18653 0.07382-0.18653 0.28654 0 0.15399 0.0643 0.23971 0.16589 0.23971 0.0754 0 0.13891-0.06668 0.13891-0.15875 0-0.10239-0.0524-0.15716-0.14129-0.15716-0.0468 0-0.0929 0.02778-0.12779 0.07064 2e-3 -0.18653 0.0706-0.25003 0.15081-0.25003 0.0325 0 0.0635 0.01429 0.0857 0.04207z"/>
    <path d="m101.17 73.184c0.0968 0 0.15161-0.09604 0.15161-0.26511 0-0.16828-0.0548-0.26114-0.15161-0.26114-0.0968 0-0.15161 0.09287-0.15161 0.26114 0 0.16907 0.0548 0.26511 0.15161 0.26511zm0-0.03016c-0.0699 0-0.11589-0.08017-0.11589-0.23495 0-0.15478 0.046-0.23098 0.11589-0.23098 0.0706 0 0.11589 0.0762 0.11589 0.23098s-0.0452 0.23495-0.11589 0.23495z"/>
    <path d="m99.974 74.302-0.0079 0.03096c0.01032 0.0048 0.02461 0.0079 0.03889 0.0079 0.0683 0 0.10636-0.06271 0.1278-0.12621l0.15081-0.42862h-0.0357l-0.0818 0.23971c-0.0103 0.03175-0.023 0.07303-0.0349 0.10636h-3e-3c-0.0143-0.03334-0.0294-0.07461-0.0413-0.10636l-0.09208-0.23971h-0.0381l0.15637 0.38814-0.0103 0.03334c-0.0191 0.05794-0.0508 0.10081-0.0976 0.10081-0.01111 0-0.02302-0.0032-0.03095-0.0063z"/>
    <path d="m100.35 73.838c0 0.02222 0.0167 0.03572 0.0341 0.03572 0.0175 0 0.0333-0.01349 0.0333-0.03572 0-0.02302-0.0159-0.03651-0.0333-0.03651-0.0175 0-0.0341 0.01349-0.0341 0.03651zm0 0.30321c0 0.02222 0.0167 0.03572 0.0341 0.03572 0.0175 0 0.0333-0.01349 0.0333-0.03572 0-0.02302-0.0159-0.03651-0.0333-0.03651-0.0175 0-0.0341 0.01349-0.0341 0.03651z"/>
    <path d="m100.81 74.177c0.0968 0 0.15161-0.09604 0.15161-0.26511 0-0.16828-0.0548-0.26114-0.15161-0.26114-0.0968 0-0.1516 0.09287-0.1516 0.26114 0 0.16907 0.0548 0.26511 0.1516 0.26511zm0-0.03016c-0.0699 0-0.11589-0.08017-0.11589-0.23495 0-0.15478 0.046-0.23098 0.11589-0.23098 0.0707 0 0.11589 0.0762 0.11589 0.23098 0 0.15478-0.0452 0.23495-0.11589 0.23495z"/>
    <path d="m99.972 75.116c0.03413 0.02858 0.08334 0.05239 0.1397 0.05239 0.0825 0 0.12859-0.05001 0.12859-0.10716 0-0.07461-0.0651-0.09446-0.12462-0.11668-0.0452-0.01667-0.0897-0.03493-0.0897-0.07699 0-0.03493 0.027-0.06906 0.0857-0.06906 0.0389 0 0.0659 0.01508 0.0913 0.03413l0.019-0.02461c-0.0278-0.02302-0.0683-0.03969-0.10874-0.03969-0.0794 0-0.12304 0.04604-0.12304 0.1016 0 0.06509 0.0635 0.08811 0.12145 0.10874 0.0436 0.01587 0.0929 0.03651 0.0929 0.08414 0 0.04048-0.031 0.07541-0.0905 0.07541-0.0548 0-0.0889-0.02143-0.12144-0.04842z"/>
    <path d="m100.36 74.686c0.0175 0 0.0318-0.0127 0.0318-0.03096 0-0.01984-0.0143-0.03175-0.0318-0.03175s-0.0318 0.01191-0.0318 0.03175c0 0.01826 0.0143 0.03096 0.0318 0.03096zm-0.0183 0.47308h0.0349v-0.381h-0.0349z"/>
    <path d="m100.47 75.159h0.27861v-0.03096h-0.23257l0.22463-0.33179v-0.01826h-0.24606v0.03016h0.20082l-0.22543 0.33179z"/>
    <path d="m100.8 74.97c0 0.12462 0.0786 0.19923 0.17621 0.19923 0.0556 0 0.0897-0.01905 0.11986-0.03731l-0.0143-0.02699c-0.0286 0.02064-0.0611 0.03413-0.1024 0.03413-0.0857 0-0.14208-0.06906-0.14366-0.1651h0.27463c2e-3 -0.0095 2e-3 -0.01905 2e-3 -0.02857 0-0.11192-0.0556-0.17621-0.14605-0.17621-0.0849 0-0.16589 0.0762-0.16589 0.20082zm0.0357-0.02302c8e-3 -0.09128 0.0659-0.14764 0.13096-0.14764 0.0683 0 0.11192 0.05001 0.11192 0.14764z"/>
    <path d="m101.2 74.83c0 0.02222 0.0167 0.03572 0.0341 0.03572 0.0175 0 0.0333-0.01349 0.0333-0.03572 0-0.02302-0.0159-0.03651-0.0333-0.03651-0.0175 0-0.0341 0.01349-0.0341 0.03651zm0 0.30321c0 0.02222 0.0167 0.03572 0.0341 0.03572 0.0175 0 0.0333-0.01349 0.0333-0.03572 0-0.02302-0.0159-0.03651-0.0333-0.03651-0.0175 0-0.0341 0.01349-0.0341 0.03651z"/>
    <path d="m101.53 74.978 0.14922-0.20955c0.0143-0.02302 0.0286-0.04207 0.0413-0.0635h3e-3c-2e-3 0.02302-3e-3 0.06429-3e-3 0.08731v0.18574zm0.30004 0h-0.0754v-0.32544h-0.0318l-0.23574 0.33496v0.02064h0.23336v0.15161h0.0341v-0.15161h0.0754z"/>
    <path d="m102.05 75.169c0.0968 0 0.1516-0.09604 0.1516-0.26511 0-0.16828-0.0548-0.26114-0.1516-0.26114s-0.15161 0.09287-0.15161 0.26114c0 0.16907 0.0548 0.26511 0.15161 0.26511zm0-0.03016c-0.0699 0-0.11589-0.08017-0.11589-0.23495 0-0.15478 0.046-0.23098 0.11589-0.23098 0.0706 0 0.11588 0.0762 0.11588 0.23098s-0.0452 0.23495-0.11588 0.23495z"/>
    <path d="m99.972 76.109c0.03413 0.02858 0.08334 0.05239 0.1397 0.05239 0.0825 0 0.12859-0.05001 0.12859-0.10716 0-0.07461-0.0651-0.09446-0.12462-0.11668-0.0452-0.01667-0.0897-0.03493-0.0897-0.07699 0-0.03493 0.027-0.06906 0.0857-0.06906 0.0389 0 0.0659 0.01508 0.0913 0.03413l0.019-0.02461c-0.0278-0.02302-0.0683-0.03969-0.10874-0.03969-0.0794 0-0.12304 0.04604-0.12304 0.1016 0 0.06509 0.0635 0.08811 0.12145 0.10874 0.0436 0.01587 0.0929 0.03651 0.0929 0.08414 0 0.04048-0.031 0.07541-0.0905 0.07541-0.0548 0-0.0889-0.02143-0.12144-0.04842z"/>
    <path d="m100.31 75.962c0 0.12621 0.0746 0.19923 0.17304 0.19923 0.0484 0 0.0889-0.02143 0.12144-0.0508l-0.0182-0.02381c-0.0262 0.02381-0.0611 0.04366-0.1016 0.04366-0.0833 0-0.13811-0.06826-0.13811-0.16828 0-0.10081 0.0603-0.16986 0.13811-0.16986 0.0373 0 0.0659 0.01746 0.0905 0.04048l0.0206-0.02461c-0.0254-0.02381-0.0595-0.04683-0.11192-0.04683-0.0929 0-0.17383 0.07303-0.17383 0.20082z"/>
    <path d="m100.67 76.056c0 0.07223 0.0508 0.10478 0.11112 0.10478 0.05 0 0.0961-0.02778 0.13494-0.05874h2e-3l4e-3 0.04921h0.0294v-0.24368c0-0.08176-0.0302-0.14684-0.12065-0.14684-0.0619 0-0.1143 0.03016-0.14129 0.04921l0.0159 0.02619c0.0254-0.01905 0.0699-0.04445 0.12145-0.04445 0.0746 0 0.0913 0.06271 0.0897 0.12065-0.16907 0.01905-0.24606 0.05953-0.24606 0.14367zm0.0365-0.0016c0-0.06033 0.0532-0.09684 0.20955-0.11509v0.12938c-0.0468 0.04048-0.0857 0.06191-0.12938 0.06191-0.0437 0-0.0802-0.02143-0.0802-0.0762z"/>
    <path d="m101.09 76.101c0 0.04127 0.0159 0.06033 0.0468 0.06033 0.0111 0 0.0183-0.0016 0.0254-4e-3l-6e-3 -0.02857c-8e-3 0.0016-0.0111 0.0016-0.0143 0.0016-0.01 0-0.0167-0.0079-0.0167-0.02461v-0.52467h-0.0349z"/>
    <path d="m101.24 75.962c0 0.12462 0.0786 0.19923 0.17621 0.19923 0.0556 0 0.0897-0.01905 0.11986-0.03731l-0.0143-0.02699c-0.0286 0.02064-0.0611 0.03413-0.10239 0.03413-0.0857 0-0.14208-0.06906-0.14367-0.1651h0.27464c2e-3 -0.0095 2e-3 -0.01905 2e-3 -0.02857 0-0.11192-0.0556-0.17621-0.14605-0.17621-0.0849 0-0.16589 0.0762-0.16589 0.20082zm0.0357-0.02302c8e-3 -0.09128 0.0659-0.14764 0.13097-0.14764 0.0683 0 0.11192 0.05001 0.11192 0.14764z"/>
    <path d="m101.64 75.822c0 0.02222 0.0167 0.03572 0.0341 0.03572 0.0175 0 0.0333-0.01349 0.0333-0.03572 0-0.02302-0.0159-0.03651-0.0333-0.03651-0.0175 0-0.0341 0.01349-0.0341 0.03651zm0 0.30321c0 0.02222 0.0167 0.03572 0.0341 0.03572 0.0175 0 0.0333-0.01349 0.0333-0.03572 0-0.02302-0.0159-0.03651-0.0333-0.03651-0.0175 0-0.0341 0.01349-0.0341 0.03651z"/>
    <path d="m101.98 76.152h0.26512v-0.03096h-0.11033v-0.47625h-0.0286c-0.0238 0.01349-0.0564 0.02461-0.0976 0.03175v0.02381h0.0905v0.42069h-0.11907z"/>
   </g>
   <path d="m97.202 72.638h1.3229v1.3229h-1.3229z" fill="#2c57df"/>
  </g>
  <rect x="99.63" y="72.55" width="3.9218" height=".79375" fill="none" stroke="#ff867f" stroke-dashoffset="1.2" stroke-linecap="round" stroke-miterlimit="40" stroke-width=".026458"/>
  <rect x="99.63" y="70.733" width="3.9218" height=".79375" fill="none" stroke="#ff867f" stroke-dashoffset="1.2" stroke-linecap="round" stroke-miterlimit="40" stroke-width=".026458"/>
  <g>
   <path d="m97.865 67.609v-3.1462" fill="#a6aeb8" stroke="#47d58a" stroke-dashoffset="1.2" stroke-linecap="square" stroke-miterlimit="40" stroke-width=".052917"/>
   <rect transform="scale(1,-1)" x="97.728" y="-67.876" width=".26762" height=".33452" fill="#47d58a"/>
   <path d="m97.865 72.371v-3.1462" fill="#a6aeb8" stroke="#47d58a" stroke-dashoffset="1.2" stroke-linecap="square" stroke-miterlimit="40" stroke-width=".052917"/>
   <rect transform="scale(1,-1)" x="97.728" y="-72.638" width=".26762" height=".33452" fill="#47d58a"/>
  </g>
 </g>
</svg>
