<svg width="34.416mm" height="19.864mm" version="1.1" viewBox="0 0 34.416 19.864" xmlns="http://www.w3.org/2000/svg">
 <g transform="translate(-75.857 -59.114)">
  <rect x="75.867" y="59.124" width="34.396" height="19.844" fill="#03060c" stroke="#000" stroke-dashoffset="1.2" stroke-linecap="square" stroke-miterlimit="40" stroke-width=".020293"/>
  <g fill="#7b8694" stroke="#2f3744" stroke-dashoffset="1.2" stroke-linecap="square" stroke-miterlimit="40" stroke-width=".026458">
   <path d="m81.172 63.079v13.229"/>
   <path d="m83.817 63.079v13.229"/>
   <path d="m86.463 63.079v13.229"/>
   <path d="m89.109 63.079v13.229"/>
   <path d="m91.755 63.079v13.229"/>
   <path d="m94.401 63.079v13.229"/>
   <path d="m97.047 63.079v13.229"/>
   <path d="m99.692 63.079v13.229"/>
   <path d="m79.849 64.402h19.844"/>
   <path d="m79.849 63.079h19.844"/>
   <path d="m79.849 65.725h19.844"/>
   <path d="m79.849 68.371h19.844"/>
   <path d="m79.849 71.017h19.844"/>
   <path d="m79.849 73.663h19.844"/>
   <path d="m79.849 76.308h19.844"/>
   <path d="m79.849 74.985h19.844"/>
   <path d="m79.849 72.34h19.844"/>
   <path d="m79.849 69.694h19.844"/>
   <path d="m79.849 67.048h19.844"/>
   <path d="m79.849 63.079v13.229"/>
   <path d="m82.495 63.079v13.229"/>
   <path d="m85.14 63.079v13.229"/>
   <path d="m87.786 63.079v13.229"/>
   <path d="m90.432 63.079v13.229"/>
   <path d="m93.078 63.079v13.229"/>
   <path d="m95.724 63.079v13.229"/>
   <path d="m98.37 63.079v13.229"/>
  </g>
  <path d="m78.526 63.079h-0.79375v13.229h0.79375" fill="none" stroke="#d2d6dc" stroke-dashoffset="1.2" stroke-linecap="square" stroke-miterlimit="40" stroke-width=".026458"/>
  <path d="m79.849 61.756v-0.79375h19.844v0.79375" fill="none" stroke="#d2d6dc" stroke-dashoffset="1.2" stroke-linecap="square" stroke-miterlimit="40" stroke-width=".026458"/>
  <g>
   <g fill="#d2d6dc" stroke-linecap="square" stroke-miterlimit="40" stroke-width=".026458" aria-label="150">
    <path d="m89.262 60.802h0.26511v-0.03096h-0.11033v-0.47625h-0.02858c-0.02381 0.01349-0.05636 0.02461-0.09763 0.03175v0.02381h0.09049v0.42069h-0.11906z"/>
    <path d="m89.595 60.743c0.03254 0.03254 0.07858 0.06826 0.15954 0.06826 0.08176 0 0.16192-0.06112 0.16192-0.16907 0-0.11112-0.06906-0.16034-0.15478-0.16034-0.03731 0-0.06429 0.01111-0.09049 0.02699l0.01588-0.18336h0.20241v-0.03096h-0.23416l-0.01826 0.23733 0.02461 0.01508c0.03016-0.02064 0.05556-0.03413 0.09446-0.03413 0.07541 0 0.12382 0.04921 0.12382 0.13097 0 0.08176-0.05874 0.13652-0.12621 0.13652-0.06906 0-0.10874-0.03096-0.13891-0.06191z"/>
    <path d="m90.144 60.812c0.09684 0 0.15161-0.09604 0.15161-0.26511 0-0.16828-0.05477-0.26114-0.15161-0.26114-0.09684 0-0.15161 0.09287-0.15161 0.26114 0 0.16907 0.05477 0.26511 0.15161 0.26511zm0-0.03016c-0.06985 0-0.11589-0.08017-0.11589-0.23495 0-0.15478 0.04604-0.23098 0.11589-0.23098 0.07064 0 0.11589 0.0762 0.11589 0.23098s-0.04524 0.23495-0.11589 0.23495z"/>
   </g>
   <g fill="#d2d6dc" stroke-linecap="square" stroke-miterlimit="40" stroke-width=".026458" aria-label="100">
    <path d="m76.562 70.062h0.26511v-0.03096h-0.11033v-0.47625h-0.02858c-0.02381 0.01349-0.05636 0.02461-0.09763 0.03175v0.02381h0.09049v0.42069h-0.11906z"/>
    <path d="m77.064 70.072c0.09684 0 0.15161-0.09604 0.15161-0.26511 0-0.16828-0.05477-0.26114-0.15161-0.26114-0.09684 0-0.15161 0.09287-0.15161 0.26114 0 0.16907 0.05477 0.26511 0.15161 0.26511zm0-0.03016c-0.06985 0-0.11589-0.08017-0.11589-0.23495 0-0.15478 0.04604-0.23098 0.11589-0.23098 0.07064 0 0.11589 0.0762 0.11589 0.23098 0 0.15478-0.04524 0.23495-0.11589 0.23495z"/>
    <path d="m77.444 70.072c0.09684 0 0.15161-0.09604 0.15161-0.26511 0-0.16828-0.05477-0.26114-0.15161-0.26114-0.09684 0-0.15161 0.09287-0.15161 0.26114 0 0.16907 0.05477 0.26511 0.15161 0.26511zm0-0.03016c-0.06985 0-0.11589-0.08017-0.11589-0.23495 0-0.15478 0.04604-0.23098 0.11589-0.23098 0.07064 0 0.11589 0.0762 0.11589 0.23098 0 0.15478-0.04524 0.23495-0.11589 0.23495z"/>
   </g>
   <path d="m86.45 69.707 1.3696 5.1114-5.1114 1.3696-1.3696-5.1114z" fill="#cf2f25"/>
  </g>
  <g fill="none" stroke="#d2d6dc" stroke-linecap="square" stroke-miterlimit="40" stroke-width=".026458">
   <path d="m86.463 63.091v6.5805"/>
   <path d="m86.199 69.431 0.26458 0.26458 0.26458-0.26458"/>
   <path d="m86.199 63.345 0.26458-0.26458 0.26458 0.26458"/>
  </g>
  <g fill="#d2d6dc" stroke-linecap="square" stroke-miterlimit="40" stroke-width=".026458" aria-label="50">
   <path d="m85.511 66.565c0.03254 0.03254 0.07858 0.06826 0.15954 0.06826 0.08176 0 0.16192-0.06112 0.16192-0.16907 0-0.11112-0.06906-0.16034-0.15478-0.16034-0.03731 0-0.06429 0.01111-0.09049 0.02699l0.01588-0.18336h0.20241v-0.03096h-0.23416l-0.01826 0.23733 0.02461 0.01508c0.03016-0.02064 0.05556-0.03413 0.09446-0.03413 0.07541 0 0.12382 0.04921 0.12382 0.13097 0 0.08176-0.05874 0.13652-0.12621 0.13652-0.06906 0-0.10874-0.03096-0.13891-0.06191z"/>
   <path d="m86.06 66.634c0.09684 0 0.15161-0.09604 0.15161-0.26511 0-0.16828-0.05477-0.26114-0.15161-0.26114-0.09684 0-0.15161 0.09287-0.15161 0.26114 0 0.16907 0.05477 0.26511 0.15161 0.26511zm0-0.03016c-0.06985 0-0.11589-0.08017-0.11589-0.23495 0-0.15478 0.04604-0.23098 0.11589-0.23098 0.07064 0 0.11589 0.0762 0.11589 0.23098 0 0.15478-0.04524 0.23495-0.11589 0.23495z"/>
  </g>
  <g fill="none" stroke="#d2d6dc" stroke-linecap="square" stroke-miterlimit="40" stroke-width=".026458">
   <path d="m79.858 69.695h6.5805"/>
   <path d="m86.198 69.96 0.26458-0.26458-0.26458-0.26458"/>
   <path d="m80.113 69.96-0.26458-0.26458 0.26458-0.26458"/>
  </g>
  <g>
   <g fill="#d2d6dc" stroke-linecap="square" stroke-miterlimit="40" stroke-width=".026458" aria-label="50">
    <path d="m82.866 69.476c0.03254 0.03254 0.07858 0.06826 0.15954 0.06826 0.08176 0 0.16192-0.06112 0.16192-0.16907 0-0.11112-0.06906-0.16034-0.15478-0.16034-0.03731 0-0.06429 0.01111-0.09049 0.02699l0.01588-0.18336h0.20241v-0.03096h-0.23416l-0.01826 0.23733 0.02461 0.01508c0.03016-0.02064 0.05556-0.03413 0.09446-0.03413 0.07541 0 0.12382 0.04921 0.12382 0.13097 0 0.08176-0.05874 0.13652-0.12621 0.13652-0.06906 0-0.10874-0.03096-0.13891-0.06191z"/>
    <path d="m83.414 69.544c0.09684 0 0.15161-0.09604 0.15161-0.26511 0-0.16828-0.05477-0.26114-0.15161-0.26114-0.09684 0-0.15161 0.09287-0.15161 0.26114 0 0.16907 0.05477 0.26511 0.15161 0.26511zm0-0.03016c-0.06985 0-0.11589-0.08017-0.11589-0.23495 0-0.15478 0.04604-0.23098 0.11589-0.23098 0.07064 0 0.11589 0.0762 0.11589 0.23098 0 0.15478-0.04524 0.23495-0.11589 0.23495z"/>
   </g>
   <g fill="#d2d6dc" stroke-linecap="square" stroke-miterlimit="40" stroke-width=".026458" aria-label="pivot">
    <path d="m87.186 69.233c0.03969 0.02937 0.07858 0.04683 0.1143 0.04683 0.08969 0 0.16828-0.0762 0.16828-0.20558 0-0.11827-0.0508-0.19447-0.1524-0.19447-0.04683 0-0.09208 0.02778-0.12938 0.05715h-0.0024l-0.0032-0.04762h-0.03016v0.55324h0.03492v-0.13891zm0-0.03334v-0.22622c0.04604-0.04048 0.08652-0.06271 0.12462-0.06271 0.08731 0 0.12065 0.06985 0.12065 0.16351 0 0.10319-0.05556 0.17462-0.13256 0.17462-0.02937 0-0.06906-0.01349-0.11271-0.04921z"/>
    <path d="m87.602 68.797c0.01746 0 0.03175-0.0127 0.03175-0.03096 0-0.01984-0.01429-0.03175-0.03175-0.03175s-0.03175 0.01191-0.03175 0.03175c0 0.01826 0.01429 0.03096 0.03175 0.03096zm-0.01826 0.47308h0.03493v-0.381h-0.03493z"/>
    <path d="m87.845 69.27h0.04127l0.14129-0.381h-0.03572l-0.08572 0.23892c-0.0127 0.03651-0.02619 0.07461-0.03889 0.10954h-0.0032c-0.01191-0.03493-0.02619-0.07303-0.0381-0.10954l-0.08572-0.23892h-0.0381z"/>
    <path d="m88.078 69.08c0 0.12621 0.07937 0.19923 0.17066 0.19923 0.09207 0 0.17145-0.07303 0.17145-0.19923 0-0.12779-0.07937-0.20082-0.17145-0.20082-0.09128 0-0.17066 0.07302-0.17066 0.20082zm0.03651 0c0-0.10081 0.05715-0.16986 0.13414-0.16986 0.07699 0 0.13494 0.06906 0.13494 0.16986 0 0.10001-0.05794 0.16828-0.13494 0.16828-0.07699 0-0.13414-0.06826-0.13414-0.16828z"/>
    <path d="m88.543 69.164c0 0.06826 0.02143 0.11509 0.09525 0.11509 0.01587 0 0.03969-0.0063 0.06191-0.01429l-0.0095-0.02858c-0.01349 0.0063-0.03334 0.01191-0.04762 0.01191-0.05239 0-0.06429-0.03254-0.06429-0.08096v-0.24844h0.11033v-0.03016h-0.11033v-0.11033h-0.03016l-0.0048 0.11033-0.06033 0.0032v0.02699h0.05953z"/>
   </g>
   <circle cx="86.45" cy="69.707" r=".63313" fill="none" stroke="#d2d6dc" stroke-dashoffset="1.2" stroke-linecap="round" stroke-width=".052917"/>
   <g fill="#d2d6dc" stroke-linecap="square" stroke-miterlimit="40" stroke-width=".026458" aria-label="x: 50 y: 50 size: 40 scale: 1 pivot: [0, 0] rotation: 5/12 PI">
    <path d="m103.76 63.63h0.0373l0.0651-0.10398c0.0151-0.02381 0.0286-0.04763 0.0436-0.06985h3e-3c0.0159 0.02222 0.031 0.04604 0.0452 0.06985l0.0675 0.10398h0.0389l-0.12939-0.19606 0.11827-0.18494h-0.0365l-0.0595 0.09684c-0.0135 0.02064-0.0254 0.04207-0.0389 0.06271h-3e-3c-0.0143-0.02064-0.0278-0.04207-0.0405-0.06271l-0.0619-0.09684h-0.0389l0.11907 0.18177z"/>
    <path d="m104.12 63.3c0 0.02222 0.0167 0.03572 0.0341 0.03572 0.0175 0 0.0333-0.01349 0.0333-0.03572 0-0.02302-0.0159-0.03651-0.0333-0.03651-0.0175 0-0.0341 0.01349-0.0341 0.03651zm0 0.30321c0 0.02223 0.0167 0.03572 0.0341 0.03572 0.0175 0 0.0333-0.01349 0.0333-0.03572 0-0.02302-0.0159-0.03651-0.0333-0.03651-0.0175 0-0.0341 0.01349-0.0341 0.03651z"/>
    <path d="m104.42 63.571c0.0326 0.03254 0.0786 0.06826 0.15955 0.06826 0.0817 0 0.16192-0.06112 0.16192-0.16907 0-0.11112-0.069-0.16034-0.15478-0.16034-0.0373 0-0.0643 0.01111-0.0905 0.02699l0.0159-0.18336h0.2024v-0.03096h-0.23415l-0.0183 0.23733 0.0246 0.01508c0.0302-0.02064 0.0556-0.03413 0.0945-0.03413 0.0754 0 0.12383 0.04921 0.12383 0.13097 0 0.08176-0.0587 0.13652-0.12621 0.13652-0.0691 0-0.10874-0.03096-0.1389-0.06191z"/>
    <path d="m104.97 63.639c0.0968 0 0.15161-0.09604 0.15161-0.26511 0-0.16828-0.0548-0.26114-0.15161-0.26114-0.0968 0-0.1516 0.09287-0.1516 0.26114 0 0.16907 0.0548 0.26511 0.1516 0.26511zm0-0.03016c-0.0699 0-0.11588-0.08017-0.11588-0.23495 0-0.15478 0.046-0.23098 0.11588-0.23098 0.0707 0 0.11589 0.0762 0.11589 0.23098 0 0.15478-0.0452 0.23495-0.11589 0.23495z"/>
    <path d="m103.77 64.757-8e-3 0.03096c0.0103 0.0048 0.0246 0.0079 0.0389 0.0079 0.0683 0 0.10636-0.06271 0.12779-0.12621l0.15081-0.42862h-0.0357l-0.0817 0.23971c-0.0103 0.03175-0.023 0.07303-0.0349 0.10636h-3e-3c-0.0143-0.03334-0.0294-0.07461-0.0413-0.10636l-0.0921-0.23971h-0.0381l0.15637 0.38814-0.0103 0.03334c-0.019 0.05794-0.0508 0.10081-0.0976 0.10081-0.0111 0-0.023-0.0032-0.031-0.0063z"/>
    <path d="m104.15 64.292c0 0.02223 0.0167 0.03572 0.0341 0.03572 0.0175 0 0.0333-0.01349 0.0333-0.03572 0-0.02302-0.0159-0.03651-0.0333-0.03651-0.0175 0-0.0341 0.01349-0.0341 0.03651zm0 0.30321c0 0.02223 0.0167 0.03572 0.0341 0.03572 0.0175 0 0.0333-0.01349 0.0333-0.03572 0-0.02302-0.0159-0.03651-0.0333-0.03651-0.0175 0-0.0341 0.01349-0.0341 0.03651z"/>
    <path d="m104.45 64.563c0.0325 0.03254 0.0786 0.06826 0.15954 0.06826 0.0818 0 0.16193-0.06112 0.16193-0.16907 0-0.11112-0.0691-0.16034-0.15478-0.16034-0.0373 0-0.0643 0.01111-0.0905 0.02699l0.0159-0.18336h0.20241v-0.03096h-0.23416l-0.0183 0.23733 0.0246 0.01508c0.0302-0.02064 0.0556-0.03413 0.0945-0.03413 0.0754 0 0.12382 0.04921 0.12382 0.13097 0 0.08176-0.0587 0.13652-0.1262 0.13652-0.0691 0-0.10875-0.03096-0.13891-0.06191z"/>
    <path d="m104.99 64.631c0.0968 0 0.1516-0.09604 0.1516-0.26511 0-0.16828-0.0548-0.26114-0.1516-0.26114s-0.15161 0.09287-0.15161 0.26114c0 0.16907 0.0548 0.26511 0.15161 0.26511zm0-0.03016c-0.0699 0-0.11589-0.08017-0.11589-0.23495 0-0.15478 0.046-0.23098 0.11589-0.23098 0.0706 0 0.11589 0.0762 0.11589 0.23098s-0.0453 0.23495-0.11589 0.23495z"/>
    <path d="m103.77 65.571c0.0341 0.02858 0.0833 0.05239 0.1397 0.05239 0.0825 0 0.12859-0.05001 0.12859-0.10716 0-0.07461-0.0651-0.09446-0.12462-0.11668-0.0452-0.01667-0.0897-0.03492-0.0897-0.07699 0-0.03493 0.027-0.06906 0.0857-0.06906 0.0389 0 0.0659 0.01508 0.0913 0.03413l0.019-0.02461c-0.0278-0.02302-0.0683-0.03969-0.10874-0.03969-0.0794 0-0.12303 0.04604-0.12303 0.1016 0 0.06509 0.0635 0.08811 0.12144 0.10874 0.0437 0.01588 0.0929 0.03651 0.0929 0.08414 0 0.04048-0.031 0.07541-0.0905 0.07541-0.0548 0-0.0889-0.02143-0.12144-0.04842z"/>
    <path d="m104.16 65.141c0.0175 0 0.0317-0.0127 0.0317-0.03096 0-0.01984-0.0143-0.03175-0.0317-0.03175-0.0175 0-0.0318 0.01191-0.0318 0.03175 0 0.01826 0.0143 0.03096 0.0318 0.03096zm-0.0183 0.47308h0.0349v-0.381h-0.0349z"/>
    <path d="m104.27 65.614h0.2786v-0.03096h-0.23256l0.22463-0.33179v-0.01826h-0.24607v0.03016h0.20082l-0.22542 0.33179z"/>
    <path d="m104.6 65.424c0 0.12462 0.0786 0.19923 0.17621 0.19923 0.0556 0 0.0897-0.01905 0.11986-0.03731l-0.0143-0.02699c-0.0286 0.02064-0.0611 0.03413-0.10239 0.03413-0.0857 0-0.14208-0.06906-0.14367-0.1651h0.27464c2e-3 -0.0095 2e-3 -0.01905 2e-3 -0.02858 0-0.11192-0.0556-0.17621-0.14605-0.17621-0.0849 0-0.16589 0.0762-0.16589 0.20082zm0.0357-0.02302c8e-3 -0.09128 0.0659-0.14764 0.13097-0.14764 0.0683 0 0.11192 0.05001 0.11192 0.14764z"/>
    <path d="m105 65.285c0 0.02223 0.0167 0.03572 0.0341 0.03572 0.0175 0 0.0333-0.01349 0.0333-0.03572 0-0.02302-0.0159-0.03651-0.0333-0.03651-0.0175 0-0.0341 0.01349-0.0341 0.03651zm0 0.30321c0 0.02223 0.0167 0.03572 0.0341 0.03572 0.0175 0 0.0333-0.01349 0.0333-0.03572 0-0.02302-0.0159-0.03651-0.0333-0.03651-0.0175 0-0.0341 0.01349-0.0341 0.03651z"/>
    <path d="m105.33 65.432 0.14923-0.20955c0.0143-0.02302 0.0286-0.04207 0.0413-0.0635h3e-3c-2e-3 0.02302-3e-3 0.06429-3e-3 0.08731v0.18574zm0.30004 0h-0.0754v-0.32544h-0.0317l-0.23575 0.33496v0.02064h0.23336v0.15161h0.0341v-0.15161h0.0754z"/>
    <path d="m105.85 65.624c0.0968 0 0.15161-0.09604 0.15161-0.26511 0-0.16828-0.0548-0.26114-0.15161-0.26114-0.0968 0-0.15161 0.09287-0.15161 0.26114 0 0.16907 0.0548 0.26511 0.15161 0.26511zm0-0.03016c-0.0699 0-0.11589-0.08017-0.11589-0.23495 0-0.15478 0.046-0.23098 0.11589-0.23098 0.0706 0 0.11589 0.0762 0.11589 0.23098 0 0.15478-0.0453 0.23495-0.11589 0.23495z"/>
    <path d="m103.77 66.563c0.0341 0.02858 0.0833 0.05239 0.1397 0.05239 0.0825 0 0.12859-0.05001 0.12859-0.10716 0-0.07461-0.0651-0.09446-0.12462-0.11668-0.0452-0.01667-0.0897-0.03493-0.0897-0.07699 0-0.03493 0.027-0.06906 0.0857-0.06906 0.0389 0 0.0659 0.01508 0.0913 0.03413l0.019-0.02461c-0.0278-0.02302-0.0683-0.03969-0.10874-0.03969-0.0794 0-0.12303 0.04604-0.12303 0.1016 0 0.06509 0.0635 0.08811 0.12144 0.10874 0.0437 0.01588 0.0929 0.03651 0.0929 0.08414 0 0.04048-0.031 0.07541-0.0905 0.07541-0.0548 0-0.0889-0.02143-0.12144-0.04842z"/>
    <path d="m104.11 66.417c0 0.12621 0.0746 0.19923 0.17304 0.19923 0.0484 0 0.0889-0.02143 0.12144-0.0508l-0.0183-0.02381c-0.0262 0.02381-0.0611 0.04366-0.1016 0.04366-0.0833 0-0.13811-0.06826-0.13811-0.16828 0-0.10081 0.0603-0.16986 0.13811-0.16986 0.0373 0 0.0659 0.01746 0.0905 0.04048l0.0206-0.02461c-0.0254-0.02381-0.0595-0.04683-0.11192-0.04683-0.0929 0-0.17383 0.07303-0.17383 0.20082z"/>
    <path d="m104.47 66.511c0 0.07223 0.0508 0.10478 0.11113 0.10478 0.05 0 0.096-0.02778 0.13493-0.05874h2e-3l4e-3 0.04921h0.0294v-0.24368c0-0.08176-0.0302-0.14684-0.12065-0.14684-0.0619 0-0.1143 0.03016-0.14129 0.04921l0.0159 0.02619c0.0254-0.01905 0.0699-0.04445 0.12144-0.04445 0.0746 0 0.0913 0.06271 0.0897 0.12065-0.16906 0.01905-0.24606 0.05953-0.24606 0.14367zm0.0365-0.0016c0-0.06032 0.0532-0.09684 0.20955-0.11509v0.12938c-0.0468 0.04048-0.0857 0.06191-0.12938 0.06191-0.0436 0-0.0802-0.02143-0.0802-0.0762z"/>
    <path d="m104.89 66.555c0 0.04127 0.0159 0.06032 0.0468 0.06032 0.0111 0 0.0183-0.0016 0.0254-4e-3l-6e-3 -0.02858c-8e-3 0.0016-0.0111 0.0016-0.0143 0.0016-0.01 0-0.0167-0.0079-0.0167-0.02461v-0.52467h-0.0349z"/>
    <path d="m105.04 66.417c0 0.12462 0.0786 0.19923 0.17622 0.19923 0.0556 0 0.0897-0.01905 0.11985-0.03731l-0.0143-0.02699c-0.0286 0.02064-0.0611 0.03413-0.1024 0.03413-0.0857 0-0.14208-0.06906-0.14367-0.1651h0.27464c2e-3 -0.0095 2e-3 -0.01905 2e-3 -0.02858 0-0.11192-0.0556-0.17621-0.14605-0.17621-0.0849 0-0.1659 0.0762-0.1659 0.20082zm0.0357-0.02302c8e-3 -0.09128 0.0659-0.14764 0.13097-0.14764 0.0683 0 0.11192 0.05001 0.11192 0.14764z"/>
    <path d="m105.44 66.277c0 0.02223 0.0167 0.03572 0.0341 0.03572 0.0175 0 0.0333-0.01349 0.0333-0.03572 0-0.02302-0.0159-0.03651-0.0333-0.03651-0.0175 0-0.0341 0.01349-0.0341 0.03651zm0 0.30321c0 0.02223 0.0167 0.03572 0.0341 0.03572 0.0175 0 0.0333-0.01349 0.0333-0.03572 0-0.02302-0.0159-0.03651-0.0333-0.03651-0.0175 0-0.0341 0.01349-0.0341 0.03651z"/>
    <path d="m105.78 66.606h0.26511v-0.03096h-0.11033v-0.47625h-0.0286c-0.0238 0.01349-0.0564 0.02461-0.0976 0.03175v0.02381h0.0905v0.42069h-0.11906z"/>
    <path d="m103.85 67.561c0.0397 0.02937 0.0786 0.04683 0.1143 0.04683 0.0897 0 0.16828-0.0762 0.16828-0.20558 0-0.11827-0.0508-0.19447-0.1524-0.19447-0.0468 0-0.0921 0.02778-0.12938 0.05715h-2e-3l-3e-3 -0.04762h-0.0302v0.55324h0.0349v-0.13891zm0-0.03334v-0.22622c0.046-0.04048 0.0865-0.06271 0.12462-0.06271 0.0873 0 0.12065 0.06985 0.12065 0.16351 0 0.10319-0.0556 0.17462-0.13256 0.17462-0.0294 0-0.0691-0.01349-0.11271-0.04921z"/>
    <path d="m104.27 67.125c0.0175 0 0.0318-0.0127 0.0318-0.03096 0-0.01984-0.0143-0.03175-0.0318-0.03175s-0.0318 0.01191-0.0318 0.03175c0 0.01826 0.0143 0.03096 0.0318 0.03096zm-0.0183 0.47308h0.0349v-0.381h-0.0349z"/>
    <path d="m104.51 67.598h0.0413l0.14129-0.381h-0.0357l-0.0857 0.23892c-0.0127 0.03651-0.0262 0.07461-0.0389 0.10954h-3e-3c-0.0119-0.03493-0.0262-0.07303-0.0381-0.10954l-0.0857-0.23892h-0.0381z"/>
    <path d="m104.75 67.409c0 0.12621 0.0794 0.19923 0.17065 0.19923 0.0921 0 0.17145-0.07303 0.17145-0.19923 0-0.12779-0.0794-0.20082-0.17145-0.20082-0.0913 0-0.17065 0.07303-0.17065 0.20082zm0.0365 0c0-0.10081 0.0572-0.16986 0.13414-0.16986 0.077 0 0.13494 0.06906 0.13494 0.16986 0 0.10001-0.0579 0.16828-0.13494 0.16828-0.077 0-0.13414-0.06826-0.13414-0.16828z"/>
    <path d="m105.21 67.493c0 0.06826 0.0214 0.11509 0.0952 0.11509 0.0159 0 0.0397-0.0063 0.0619-0.01429l-0.01-0.02858c-0.0135 0.0063-0.0333 0.01191-0.0476 0.01191-0.0524 0-0.0643-0.03254-0.0643-0.08096v-0.24844h0.11033v-0.03016h-0.11033v-0.11033h-0.0302l-5e-3 0.11033-0.0603 0.0032v0.02699h0.0595z"/>
    <path d="m105.45 67.269c0 0.02223 0.0167 0.03572 0.0341 0.03572 0.0175 0 0.0333-0.01349 0.0333-0.03572 0-0.02302-0.0159-0.03651-0.0333-0.03651-0.0175 0-0.0341 0.01349-0.0341 0.03651zm0 0.30321c0 0.02223 0.0167 0.03572 0.0341 0.03572 0.0175 0 0.0333-0.01349 0.0333-0.03572 0-0.02302-0.0159-0.03651-0.0333-0.03651-0.0175 0-0.0341 0.01349-0.0341 0.03651z"/>
    <path d="m105.8 67.719h0.127v-0.02302h-0.0992v-0.635h0.0992v-0.02461h-0.127z"/>
    <path d="m106.14 67.608c0.0968 0 0.15161-0.09604 0.15161-0.26511 0-0.16828-0.0548-0.26114-0.15161-0.26114-0.0968 0-0.1516 0.09287-0.1516 0.26114 0 0.16907 0.0548 0.26511 0.1516 0.26511zm0-0.03016c-0.0699 0-0.11588-0.08017-0.11588-0.23495 0-0.15478 0.046-0.23098 0.11588-0.23098 0.0707 0 0.11589 0.0762 0.11589 0.23098 0 0.15478-0.0452 0.23495-0.11589 0.23495z"/>
    <path d="m106.38 67.721c0.0476-0.0254 0.0818-0.07144 0.0818-0.12938 0-0.03493-0.0167-0.05636-0.0405-0.05636-0.0175 0-0.0341 0.01191-0.0341 0.03334s0.0151 0.03334 0.0333 0.03334c3e-3 0 6e-3 0 0.01-7.94e-4 -8e-4 0.04366-0.0254 0.07699-0.0611 0.09604z"/>
    <path d="m106.85 67.608c0.0968 0 0.1516-0.09604 0.1516-0.26511 0-0.16828-0.0548-0.26114-0.1516-0.26114s-0.15161 0.09287-0.15161 0.26114c0 0.16907 0.0548 0.26511 0.15161 0.26511zm0-0.03016c-0.0699 0-0.11589-0.08017-0.11589-0.23495 0-0.15478 0.046-0.23098 0.11589-0.23098 0.0706 0 0.11589 0.0762 0.11589 0.23098 0 0.15478-0.0452 0.23495-0.11589 0.23495z"/>
    <path d="m107.05 67.696v0.02302h0.127v-0.68262h-0.127v0.02461h0.0992v0.635z"/>
    <path d="m103.82 68.591h0.0349v-0.25956c0.0294-0.07144 0.0699-0.09763 0.10398-0.09763 0.0151 0 0.0222 0.0016 0.0349 0.0063l8e-3 -0.03175c-0.0127-0.0063-0.0238-0.0079-0.0381-0.0079-0.0452 0-0.0825 0.03334-0.10795 0.08017h-2e-3l-3e-3 -0.07064h-0.0302z"/>
    <path d="m104.03 68.401c0 0.12621 0.0794 0.19923 0.17066 0.19923 0.0921 0 0.17145-0.07303 0.17145-0.19923 0-0.12779-0.0794-0.20082-0.17145-0.20082-0.0913 0-0.17066 0.07303-0.17066 0.20082zm0.0365 0c0-0.10081 0.0572-0.16986 0.13414-0.16986 0.077 0 0.13494 0.06906 0.13494 0.16986 0 0.10001-0.058 0.16828-0.13494 0.16828-0.077 0-0.13414-0.06826-0.13414-0.16828z"/>
    <path d="m104.5 68.485c0 0.06826 0.0214 0.11509 0.0952 0.11509 0.0159 0 0.0397-0.0063 0.0619-0.01429l-0.01-0.02858c-0.0135 0.0063-0.0333 0.01191-0.0476 0.01191-0.0524 0-0.0643-0.03254-0.0643-0.08096v-0.24844h0.11033v-0.03016h-0.11033v-0.11033h-0.0302l-5e-3 0.11033-0.0603 0.0032v0.02699h0.0595z"/>
    <path d="m104.7 68.495c0 0.07223 0.0508 0.10478 0.11112 0.10478 0.05 0 0.096-0.02778 0.13494-0.05874h2e-3l4e-3 0.04921h0.0294v-0.24368c0-0.08176-0.0302-0.14684-0.12065-0.14684-0.0619 0-0.1143 0.03016-0.14128 0.04921l0.0159 0.02619c0.0254-0.01905 0.0699-0.04445 0.12144-0.04445 0.0746 0 0.0913 0.06271 0.0897 0.12065-0.16907 0.01905-0.24606 0.05953-0.24606 0.14367zm0.0365-0.0016c0-0.06032 0.0532-0.09684 0.20955-0.11509v0.12938c-0.0468 0.04048-0.0857 0.06191-0.12938 0.06191-0.0437 0-0.0802-0.02143-0.0802-0.0762z"/>
    <path d="m105.12 68.485c0 0.06826 0.0214 0.11509 0.0953 0.11509 0.0159 0 0.0397-0.0063 0.0619-0.01429l-0.01-0.02858c-0.0135 0.0063-0.0333 0.01191-0.0476 0.01191-0.0524 0-0.0643-0.03254-0.0643-0.08096v-0.24844h0.11033v-0.03016h-0.10991v-0.11033h-0.0302l-5e-3 0.11033-0.0603 0.0032v0.02699h0.0595z"/>
    <path d="m105.38 68.118c0.0175 0 0.0318-0.0127 0.0318-0.03096 0-0.01984-0.0143-0.03175-0.0318-0.03175s-0.0317 0.01191-0.0317 0.03175c0 0.01826 0.0143 0.03096 0.0317 0.03096zm-0.0182 0.47308h0.0349v-0.381h-0.0349z"/>
    <path d="m105.51 68.401c0 0.12621 0.0794 0.19923 0.17066 0.19923 0.0921 0 0.17145-0.07303 0.17145-0.19923 0-0.12779-0.0794-0.20082-0.17145-0.20082-0.0913 0-0.17066 0.07303-0.17066 0.20082zm0.0365 0c0-0.10081 0.0572-0.16986 0.13414-0.16986 0.077 0 0.13494 0.06906 0.13494 0.16986 0 0.10001-0.058 0.16828-0.13494 0.16828-0.077 0-0.13414-0.06826-0.13414-0.16828z"/>
    <path d="m105.97 68.591h0.0349v-0.28734c0.0468-0.04762 0.0794-0.07144 0.12462-0.07144 0.0619 0 0.0873 0.0381 0.0873 0.11906v0.23971h0.0349v-0.24448c0-0.09843-0.0365-0.14605-0.11509-0.14605-0.0524 0-0.0921 0.02937-0.13097 0.06826h-2e-3l-3e-3 -0.05874h-0.0302z"/>
    <path d="m106.37 68.261c0 0.02223 0.0167 0.03572 0.0341 0.03572 0.0175 0 0.0333-0.01349 0.0333-0.03572 0-0.02302-0.0159-0.03651-0.0333-0.03651-0.0175 0-0.0341 0.01349-0.0341 0.03651zm0 0.30321c0 0.02223 0.0167 0.03572 0.0341 0.03572 0.0175 0 0.0333-0.01349 0.0333-0.03572 0-0.02302-0.0159-0.03651-0.0333-0.03651-0.0175 0-0.0341 0.01349-0.0341 0.03651z"/>
    <path d="m106.67 68.532c0.0325 0.03254 0.0786 0.06826 0.15954 0.06826 0.0818 0 0.16193-0.06112 0.16193-0.16907 0-0.11112-0.0691-0.16034-0.15478-0.16034-0.0373 0-0.0643 0.01111-0.0905 0.02699l0.0159-0.18336h0.20241v-0.03096h-0.23416l-0.0183 0.23733 0.0246 0.01508c0.0302-0.02064 0.0556-0.03413 0.0945-0.03413 0.0754 0 0.12382 0.04921 0.12382 0.13097 0 0.08176-0.0587 0.13652-0.1262 0.13652-0.0691 0-0.10875-0.03096-0.13891-0.06191z"/>
    <path d="m107.04 68.718h0.0309l0.2413-0.69056h-0.0302z"/>
    <path d="m107.38 68.591h0.26511v-0.03096h-0.11033v-0.47625h-0.0286c-0.0238 0.01349-0.0564 0.02461-0.0976 0.03175v0.02381h0.0905v0.42069h-0.11906z"/>
    <path d="m107.73 68.591h0.31115v-0.03175h-0.17304c-0.0278 0-0.0571 0.0024-0.0849 4e-3 0.1405-0.14922 0.23257-0.24606 0.23257-0.34687 0-0.08572-0.0524-0.14208-0.14287-0.14208-0.0619 0-0.10637 0.03254-0.14447 0.07461l0.023 0.02223c0.031-0.0381 0.0722-0.06668 0.11827-0.06668 0.0762 0 0.11033 0.04921 0.11033 0.11271 0 0.08811-0.0833 0.18256-0.25003 0.35163z"/>
    <path d="m108.31 68.591h0.0365v-0.22463h0.10637c0.11588 0 0.18573-0.05001 0.18573-0.1524 0-0.10795-0.0691-0.14605-0.18573-0.14605h-0.14288zm0.0365-0.25559v-0.23654h0.0968c0.10636 0 0.15796 0.02699 0.15796 0.11509 0 0.08572-0.0508 0.12144-0.15796 0.12144z"/>
    <path d="m108.74 68.591h0.0365v-0.52308h-0.0365z"/>
   </g>
  </g>
  <path d="m101 63.092h1.3229v1.3229h-1.3229z" fill="#cf2f25"/>
 </g>
</svg>
