<?xml version="1.0" encoding="UTF-8"?>
<svg width="120" height="52.024" version="1.1" viewBox="0 0 31.75 13.765" xmlns="http://www.w3.org/2000/svg" xmlns:cc="http://creativecommons.org/ns#" xmlns:dc="http://purl.org/dc/elements/1.1/" xmlns:rdf="http://www.w3.org/1999/02/22-rdf-syntax-ns#">
 <metadata>
  <rdf:RDF>
   <cc:Work rdf:about="">
    <dc:format>image/svg+xml</dc:format>
    <dc:type rdf:resource="http://purl.org/dc/dcmitype/StillImage"/>
    <dc:title/>
   </cc:Work>
  </rdf:RDF>
 </metadata>
 <g transform="matrix(7.2627 0 0 7.2627 -796.68 -680.39)" stroke-width=".13769">
  <g transform="matrix(.13769 0 0 .13769 97.524 77.717)">
   <rect x="88.39" y="116.23" width="31.75" height="13.229" fill="#1d232d" style="paint-order:normal"/>
   <circle transform="scale(-1)" cx="-102.94" cy="-122.84" r=".52917" fill="#fff"/>
   <g fill="#7b8694">
    <path d="m95.004 118.87v2.6458h-2.6458v2.6458h2.6458v2.6458h2.6458v-2.6458h2.6458v-2.6458h-2.6458v-2.6458z"/>
    <circle cx="114.85" cy="122.84" r="1.3229"/>
    <circle cx="112.2" cy="120.2" r="1.3229"/>
    <circle cx="112.2" cy="125.49" r="1.3229"/>
   </g>
   <path d="m109.55 121.52a1.3229 1.3229 0 0 0-0.93533 0.38757l0.93533 0.93535-0.93533 0.93534a1.3229 1.3229 0 0 0 0.93533 0.38757 1.3229 1.3229 0 0 0 1.3229-1.3229 1.3229 1.3229 0 0 0-1.3229-1.3229z" fill="#fff"/>
   <circle transform="scale(-1)" cx="-106.91" cy="-122.84" r=".52917" fill="#fff"/>
   <g fill="#7b8694">
    <path d="m88.654 115.96h2.1167v0.26458h-2.1167z"/>
    <path d="m91.3 115.96h2.1167v0.26458h-2.1167z"/>
    <path d="m93.946 115.96h2.1167v0.26458h-2.1167z"/>
    <path d="m96.592 115.96h2.1167v0.26458h-2.1167z"/>
    <path d="m99.238 115.96h2.1167v0.26458h-2.1167z"/>
    <path d="m101.88 115.96h2.1167v0.26458h-2.1167z"/>
    <path d="m104.53 115.96h2.1167v0.26458h-2.1167z"/>
    <path d="m107.18 115.96h2.1167v0.26458h-2.1167z"/>
    <path d="m109.82 115.96h2.1167v0.26458h-2.1167z"/>
    <path d="m112.47 115.96h2.1167v0.26458h-2.1167z"/>
    <path d="m115.11 115.96h2.1167v0.26458h-2.1167z"/>
    <path d="m117.76 115.96h2.1167v0.26458h-2.1167z"/>
    <path d="m88.654 129.46h2.1167v0.26458h-2.1167z"/>
    <path d="m91.3 129.46h2.1167v0.26458h-2.1167z"/>
    <path d="m93.946 129.46h2.1167v0.26458h-2.1167z"/>
    <path d="m96.592 129.46h2.1167v0.26458h-2.1167z"/>
    <path d="m99.238 129.46h2.1167v0.26458h-2.1167z"/>
    <path d="m101.88 129.46h2.1167v0.26458h-2.1167z"/>
    <path d="m104.53 129.46h2.1167v0.26458h-2.1167z"/>
    <path d="m107.18 129.46h2.1167v0.26458h-2.1167z"/>
    <path d="m109.82 129.46h2.1167v0.26458h-2.1167z"/>
    <path d="m112.47 129.46h2.1167v0.26458h-2.1167z"/>
    <path d="m115.11 129.46h2.1167v0.26458h-2.1167z"/>
    <path d="m117.76 129.46h2.1167v0.26458h-2.1167z"/>
   </g>
  </g>
 </g>
</svg>
