<?xml version="1.0" encoding="UTF-8" standalone="no"?>
<svg
   xmlns:dc="http://purl.org/dc/elements/1.1/"
   xmlns:cc="http://creativecommons.org/ns#"
   xmlns:rdf="http://www.w3.org/1999/02/22-rdf-syntax-ns#"
   xmlns:svg="http://www.w3.org/2000/svg"
   xmlns="http://www.w3.org/2000/svg"
   xmlns:sodipodi="http://sodipodi.sourceforge.net/DTD/sodipodi-0.dtd"
   xmlns:inkscape="http://www.inkscape.org/namespaces/inkscape"
   inkscape:version="0.92.3 (2405546, 2018-03-11)"
   sodipodi:docname="logo.svg"
   id="svg68"
   viewBox="0 0 98.802721 75.527841"
   version="1.1"
   height="285.45956"
   width="373.42758">
  <defs
     id="defs72" />
  <sodipodi:namedview
     fit-margin-bottom="0"
     fit-margin-right="0"
     fit-margin-left="0"
     fit-margin-top="0"
     inkscape:current-layer="g66"
     inkscape:window-maximized="1"
     inkscape:window-y="-8"
     inkscape:window-x="-8"
     inkscape:cy="3.2460301"
     inkscape:cx="830.07787"
     inkscape:zoom="0.6555693"
     units="px"
     showgrid="false"
     id="namedview70"
     inkscape:window-height="1377"
     inkscape:window-width="2560"
     inkscape:pageshadow="2"
     inkscape:pageopacity="0"
     guidetolerance="10"
     gridtolerance="10"
     objecttolerance="10"
     borderopacity="1"
     bordercolor="#666666"
     pagecolor="#454545"
     inkscape:document-rotation="0" />
  <metadata
     id="metadata2">
    <rdf:RDF>
      <cc:Work
         rdf:about="">
        <dc:format>image/svg+xml</dc:format>
        <dc:type
           rdf:resource="http://purl.org/dc/dcmitype/StillImage" />
        <dc:title />
      </cc:Work>
    </rdf:RDF>
  </metadata>
  <g
     style="stroke-width:0.13768899"
     id="g66"
     transform="matrix(7.2627119,0,0,7.2627119,-687.61368,-698.26643)">
    <g
       style="stroke-width:0.0627714"
       transform="matrix(0.07990994,0,0,0.07990994,92.392877,90.752032)"
       id="g6">
      <path
         style="fill:#ffffff;stroke-width:0.0286171"
         inkscape:connector-curvature="0"
         d="m 175.46,100.94 4.915,-3.586 c -1.86,-1.991 -3.853,-4.38 -3.853,-8.231 0,-2.921 1.993,-6.109 4.515,-7.436 -1.327,-1.595 -3.454,-3.055 -6.507,-3.055 -3.985,0 -7.305,2.921 -7.305,6.771 0,2.658 1.728,4.915 3.721,5.978 0,3.716 1.726,7.036 4.514,9.559 m -26.291,-26.16 4.115,-7.304 h -6.109 c 0,1.327 -1.194,2.789 -2.656,2.789 -1.593,0 -2.655,-1.063 -2.655,-2.789 h -5.447 c 0,1.593 -1.193,2.789 -2.655,2.789 -1.46,0 -2.654,-1.195 -2.654,-2.789 h -6.111 l 3.587,7.038 c 2.791,-0.265 5.445,-0.397 8.1,-0.397 4.913,0 9.164,0.263 12.485,0.663 m -11.157,64.805 c -0.665,-1.194 -1.328,-2.657 -1.328,-5.312 0,-3.451 1.991,-6.374 6.242,-8.233 2.789,-1.328 4.911,-2.524 8.631,-4.382 8.764,-4.516 11.818,-13.015 11.818,-21.777 0,-4.385 -1.193,-7.837 -2.655,-10.758 0.396,2.388 0.795,4.381 0.795,6.772 0,9.164 -3.186,15.937 -11.552,20.052 -5.31,2.655 -7.969,3.717 -11.157,5.311 -4.511,2.392 -7.037,5.447 -7.037,9.164 0,4.647 2.391,8.099 6.243,9.163 m -5.18,-1.727 c -1.458,-1.462 -3.053,-4.117 -3.053,-7.568 0,-4.384 2.922,-8.101 8.1,-10.758 4.515,-2.127 7.169,-3.188 11.154,-5.047 8.367,-4.116 10.888,-11.153 10.888,-18.723 0,-7.303 -2.389,-11.024 -4.379,-13.413 1.458,2.789 1.858,6.11 1.858,8.897 0,8.102 -2.39,15.139 -11.819,18.859 -4.782,1.991 -7.834,2.655 -11.952,4.513 -6.509,3.057 -9.029,6.64 -9.029,11.951 0,5.047 3.187,9.827 8.232,11.289 m -5.045,-1.064 c -2.259,-1.857 -5.182,-4.911 -5.182,-10.357 0,-5.71 2.391,-9.959 9.828,-13.146 4.784,-1.992 7.306,-2.921 11.821,-4.648 9.561,-3.583 11.553,-10.625 11.553,-17.529 0,-6.64 -2.389,-10.491 -5.311,-13.013 1.725,2.122 2.788,5.71 2.788,9.428 0,8.764 -3.321,13.677 -12.749,16.997 -3.852,1.195 -7.967,2.392 -12.218,3.985 -7.701,2.921 -11.686,7.171 -11.686,14.342 0.001,7.437 5.713,13.013 11.156,13.941 m -5.313,-0.928 c -5.311,-2.655 -7.835,-8.367 -7.835,-13.413 0,-7.304 4.517,-12.483 12.085,-15.272 4.651,-1.727 8.366,-2.785 13.015,-4.38 9.03,-3.188 11.951,-7.437 11.951,-15.537 0,-4.648 -1.727,-8.632 -4.515,-10.89 0.931,1.063 1.194,2.39 1.194,3.585 0,2.257 -1.194,3.32 -2.921,3.32 -1.061,0 -2.127,-0.664 -2.257,-1.727 0.531,0.398 0.93,0.534 1.463,0.534 1.458,0 2.255,-1.064 2.255,-2.526 0,-2.257 -2.125,-3.452 -4.25,-3.716 -1.859,-0.267 -3.852,-0.267 -6.107,-0.267 -2.256,0 -4.382,0.131 -7.172,0.267 1.729,2.388 7.438,1.724 9.165,2.921 -1.462,-0.133 -2.92,-0.133 -4.384,0.265 0,0.93 -0.398,1.993 -1.327,1.993 -1.725,0 -2.521,-1.858 -3.718,-5.179 l -6.77,0.531 c -1.066,0.133 -1.464,0.532 -1.332,1.327 l 0.665,6.642 c 0,0.263 0.267,0.395 0.533,0.395 0.264,0 0.528,-0.132 0.663,-0.53 0.264,-0.531 1.064,-1.727 3.054,-1.727 2.921,0 5.181,2.657 5.312,5.711 -1.064,-1.461 -3.452,-2.791 -7.437,-2.791 -3.053,0 -5.577,0.931 -9.562,0.931 -4.248,0 -6.64,-1.594 -6.64,-3.586 0,-0.929 0.132,-1.46 0.665,-2.124 -1.727,0.797 -3.055,2.257 -3.055,4.648 0,2.921 2.126,5.975 8.364,5.975 5.712,0 8.37,-3.587 13.545,-3.587 2.392,0 3.588,1.196 3.588,2.526 0,1.194 -1.063,2.258 -2.921,2.258 -2.259,0 -3.85,-1.197 -4.649,-2.391 -0.133,-0.267 -0.264,-0.4 -0.532,-0.4 -0.395,0 -0.53,0.264 -0.53,0.533 l 0.135,6.373 c 0,0.795 0.395,1.194 1.327,1.064 3.983,-0.399 8.099,-0.932 11.953,-1.197 7.169,-0.664 12.085,-5.444 12.085,-10.757 0,-0.797 0,-1.461 -0.134,-2.258 0.665,1.062 0.928,2.126 0.928,3.453 0,4.916 -2.655,8.631 -11.152,10.888 -4.515,1.196 -7.837,1.729 -11.689,2.658 -10.225,2.39 -16.862,10.223 -16.862,18.989 -0.003,8.101 5.706,15.408 13.806,16.468 M 77.986,87.926 c 0.534,-1.195 0.666,-2.257 0.666,-3.055 0,-1.727 -0.797,-3.319 -1.594,-3.983 1.992,0 3.719,1.46 3.719,3.455 0,1.859 -1.196,3.052 -2.791,3.583 m 24.436,31.606 4.248,-2.257 c 1.461,-8.897 6.773,-15.138 16.068,-17.395 -4.91,0.263 -9.163,0.395 -15.137,0.661 -6.373,0.267 -16.864,1.064 -24.167,1.597 -1.464,0.13 -2.392,-0.399 -2.79,-1.597 -0.399,-1.325 -1.195,-3.851 -1.327,-5.31 -0.134,-1.196 0.132,-1.994 1.194,-2.788 2.123,-1.462 4.25,-3.19 4.25,-6.774 0,-3.852 -3.321,-6.374 -6.376,-6.374 -1.061,0 -1.858,0.134 -2.521,0.398 -0.798,-0.529 -1.594,-0.929 -3.188,-0.929 -2.258,0 -4.249,1.458 -4.781,2.655 -3.85,-0.266 -6.904,2.524 -6.64,6.24 0.531,-0.53 1.595,-1.058 2.79,-1.058 1.458,0 2.788,1.058 2.788,2.652 0,1.463 -0.266,3.321 -0.266,5.312 0,6.109 4.915,9.297 4.915,12.482 0,1.595 -1.195,2.922 -2.792,2.922 0.931,3.321 3.986,5.048 8.102,5.048 2.658,0 5.048,-0.266 8.897,-0.266 11.024,10e-4 15.803,1.196 16.733,4.781 m 40.899,37.582 h 1.333 c -0.135,-4.249 -1.197,-7.172 -2.922,-10.226 -0.933,-1.726 -2.126,-3.586 -3.057,-4.781 -0.531,-0.799 -1.195,-1.062 -1.991,-1.062 -0.533,0 -0.93,0.397 -0.533,1.062 1.065,1.727 2.523,4.382 4.384,8.499 -1.594,0.267 -1.992,1.061 -1.992,2.389 0.001,2.127 1.993,4.119 4.778,4.119 M 72.81,88.459 c 0.131,-3.721 -1.461,-5.712 -3.719,-6.642 0.398,-0.131 0.928,-0.398 1.725,-0.398 1.728,0 3.587,1.46 3.587,3.719 0,1.194 -0.4,2.521 -1.593,3.321 m 85.123,93.487 c -0.532,-1.192 -2.259,-2.391 -4.384,-2.391 -1.197,0 -1.992,0.265 -2.522,0.533 0.132,-1.062 1.194,-2.258 3.319,-2.258 2.522,10e-4 3.849,1.99 3.587,4.116 m -0.799,5.709 c -0.795,-0.929 -2.123,-1.725 -3.85,-1.725 -2.125,0 -3.188,0.931 -3.72,1.595 -0.265,-1.595 1.063,-3.585 3.587,-3.585 2.656,0 3.983,1.858 3.983,3.715 M 62.717,124.312 c 0.929,-2.258 3.055,-3.851 5.577,-4.38 0.531,-0.8 1.194,-1.464 1.861,-1.993 L 65.64,99.08 c -0.534,-1.328 -0.933,-2.655 -0.933,-4.515 0,-1.992 0.399,-3.984 0.399,-5.045 0,-0.931 -0.53,-1.195 -1.061,-1.195 -0.399,0 -0.666,0 -0.797,0.133 v 0.529 c 0,3.055 -1.86,5.445 -4.916,5.445 -3.053,0 -5.445,-2.522 -5.445,-5.445 0,-2.92 2.392,-5.311 5.445,-5.311 0.531,0 1.197,0 1.991,0.267 0.932,-2.392 3.852,-4.515 6.905,-4.116 -2.123,-2.657 -5.311,-4.252 -8.896,-4.252 -7.7,0 -13.81,5.578 -13.81,13.412 0,7.305 5.976,13.149 13.412,13.279 z M 83.3,152.865 c 1.992,0 4.117,-1.064 6.107,-3.056 3.585,-3.452 8.633,-8.631 11.688,-10.624 2.655,-1.727 4.381,-2.392 6.106,-2.392 1.064,0 1.863,0.27 2.657,1.064 l 4.516,-3.452 c -5.18,-3.853 -7.571,-8.9 -7.704,-15.138 -7.169,3.849 -12.349,9.161 -18.326,14.208 -1.06,0.796 -1.591,1.193 -2.522,1.193 -0.93,0 -1.727,-0.929 -3.321,-2.521 -1.327,-1.327 -1.594,-2.127 -1.594,-3.054 0,-1.596 0.533,-2.126 0.533,-4.253 0,-4.246 -3.319,-6.637 -6.507,-6.637 -2.657,0 -4.646,1.459 -5.312,3.32 -3.587,0.265 -5.842,2.922 -5.842,5.708 0,0.665 0.134,1.196 0.267,1.594 -1.328,0.798 -2.657,2.392 -2.657,4.516 0,2.258 1.194,4.384 3.187,5.048 -0.266,-0.399 -0.4,-0.932 -0.4,-1.597 0,-1.193 1.065,-2.258 2.524,-2.258 1.195,0 1.991,0.4 2.921,1.463 1.194,1.595 2.392,3.053 4.382,4.78 1.86,1.594 3.982,2.657 5.976,3.852 1.195,0.797 2.125,1.858 2.125,3.453 0,1.062 -0.797,2.258 -2.392,2.655 0.665,1.463 1.994,2.128 3.588,2.128 m -7.57,-25.896 c -0.133,-2.656 -2.125,-4.779 -4.648,-5.312 0.4,-0.267 1.062,-0.663 2.126,-0.663 1.857,0 3.319,1.591 3.319,3.318 0,1.329 -0.4,1.995 -0.797,2.657 m 14.742,69.851 c -0.534,-0.664 -0.796,-1.327 -0.796,-2.127 0,-1.593 1.328,-2.788 3.184,-2.788 2.921,0 4.515,3.188 8.369,3.188 4.382,0 6.505,-3.188 10.489,-3.188 1.993,0 4.783,1.195 4.783,3.721 0,0.397 -0.135,0.794 -0.4,1.06 4.516,0 7.702,-3.85 7.702,-10.224 0,-8.899 -0.265,-12.482 -0.397,-17.395 3.455,-0.135 6.771,-1.863 6.24,-7.306 -0.93,0.797 -1.991,1.195 -3.185,1.195 -1.595,0 -2.788,-1.195 -2.788,-2.92 0,-0.8 0,-1.728 0.131,-2.657 l 15.537,-0.4 c -1.46,-0.795 -2.522,-2.391 -2.522,-4.249 0,-1.327 0.531,-2.257 1.594,-2.788 -1.46,-3.054 -2.656,-5.442 -4.115,-7.7 -0.798,-1.196 -1.727,-2.391 -3.587,-2.391 -4.115,-0.135 -12.483,1.061 -16.733,2.521 -3.186,1.063 -6.242,3.454 -6.242,8.897 0,5.045 1.726,13.943 1.593,27.888 0,1.991 -0.528,2.655 -1.725,2.92 -1.062,0.268 -3.851,0.533 -5.578,0.268 -0.928,-0.135 -1.728,-0.799 -2.257,-2.79 -0.665,-2.787 -2.653,-5.576 -6.639,-5.576 -3.587,0 -6.772,2.654 -6.243,6.64 -1.724,1.063 -2.523,2.789 -2.523,4.38 0,1.597 0.531,2.922 1.194,3.721 -0.395,0.928 -0.529,1.459 -0.529,2.391 -0.002,3.317 2.92,5.709 5.443,5.709 M 71.746,130.554 c -0.797,-1.592 -2.523,-2.521 -4.517,-2.521 -0.796,0 -1.457,0.132 -1.989,0.265 0.263,-1.063 1.459,-1.99 3.188,-1.99 2.258,-0.001 3.716,1.724 3.318,4.246 m 23.24,51.392 c -0.532,-1.192 -2.258,-2.391 -4.382,-2.391 -1.197,0 -1.993,0.265 -2.522,0.533 0.131,-1.062 1.195,-2.258 3.319,-2.258 2.521,10e-4 3.849,1.99 3.585,4.116 m -11.288,11.553 c -0.398,-0.796 -0.531,-1.594 -0.531,-2.389 0,-0.798 0.133,-1.463 0.399,-2.127 -0.666,-1.194 -1.065,-2.521 -1.065,-3.984 0,-1.988 0.933,-3.85 2.26,-5.044 l -8.234,-35.724 c -1.329,-0.662 -2.657,-1.459 -3.718,-2.389 -1.861,-1.594 -2.922,-2.791 -4.648,-4.779 -0.533,-0.533 -0.932,-0.8 -1.461,-0.8 -0.796,0 -1.327,0.53 -1.06,1.595 l 1.726,8.233 3.583,2.523 9.959,42.76 z m 10.493,-5.844 c -0.8,-0.929 -2.127,-1.725 -3.854,-1.725 -2.125,0 -3.188,0.931 -3.718,1.595 -0.264,-1.595 1.063,-3.585 3.587,-3.585 2.654,0 3.985,1.858 3.985,3.715 m -65.604,9.96 8.101,-6.24 9.962,-42.76 3.583,-2.523 7.969,-34.26 -1.727,-7.969 c -1.993,-0.4 -3.721,-0.931 -5.179,-1.725 z m 124.83,-0.795 c -0.533,-0.664 -0.797,-1.327 -0.797,-2.127 0,-1.593 1.325,-2.788 3.186,-2.788 2.921,0 4.515,3.188 8.366,3.188 4.38,0 6.507,-3.188 10.489,-3.188 1.993,0 4.782,1.195 4.782,3.721 0,0.397 -0.134,0.794 -0.397,1.06 4.515,0 7.701,-3.85 7.701,-10.224 0,-8.5 -0.795,-17.928 -1.728,-27.357 2.394,-0.531 4.648,-2.92 4.648,-5.975 0,-1.063 -0.395,-2.257 -1.061,-3.32 -0.666,0.93 -1.86,1.729 -3.849,2.257 -2.791,0.799 -6.244,1.197 -8.768,1.197 -5.71,0 -7.568,-0.398 -10.223,-1.197 -0.136,-3.584 -2.392,-6.508 -4.516,-8.497 3.32,1.325 4.78,1.989 10.092,1.989 16.998,0 27.488,-11.418 27.488,-24.433 0,-9.43 -5.976,-13.81 -11.418,-17 l -5.046,3.586 c 6.107,2.79 10.089,6.906 10.089,12.484 0,6.11 -4.911,10.491 -10.621,10.491 -6.109,0 -10.89,-4.381 -10.89,-10.36 0,-4.514 2.123,-7.832 6.108,-11.022 3.983,-3.185 10.093,-7.038 13.413,-10.622 1.727,-1.859 3.187,-4.781 3.055,-7.039 2.256,-1.062 3.982,-3.318 3.982,-6.242 0,-3.85 -3.716,-6.771 -7.701,-6.771 -2.39,0 -5.045,1.46 -6.377,3.055 2.392,0.929 4.65,4.115 4.65,7.436 0,2.788 -1.725,5.179 -3.718,7.17 -3.055,3.055 -7.038,5.312 -11.421,8.897 -5.313,4.384 -8.5,9.562 -8.5,15.406 0,8.099 6.242,15.668 16.068,15.668 3.189,0 5.711,-0.663 7.571,-1.857 -3.187,3.715 -9.162,5.577 -15.404,5.577 -5.447,0 -9.163,-0.798 -13.146,-3.72 -3.588,-2.655 -6.375,-8.896 -6.243,-13.544 -2.921,1.728 -6.375,3.319 -9.297,4.648 -4.117,1.989 -5.443,4.115 -5.443,7.701 0,4.782 3.32,8.5 4.777,11.288 1.993,3.585 2.66,6.772 2.922,10.092 0.797,8.103 5.446,11.818 13.678,11.818 3.72,0 8.631,-0.264 10.624,-0.53 0.798,3.719 1.728,8.101 1.728,11.421 0,1.991 -0.533,2.655 -1.728,2.92 -1.061,0.268 -3.848,0.533 -5.576,0.268 -0.928,-0.135 -1.727,-0.799 -2.259,-2.79 -0.662,-2.787 -2.652,-5.576 -6.638,-5.576 -3.586,0 -6.773,2.654 -6.242,6.64 -1.725,1.063 -2.524,2.789 -2.524,4.38 0,1.597 0.53,2.922 1.197,3.721 -0.397,0.928 -0.533,1.459 -0.533,2.391 0.002,3.317 2.926,5.709 5.45,5.709"
         id="path4" />
    </g>
  </g>
</svg>
