<?xml version="1.0" encoding="UTF-8" standalone="no"?>
<svg
   xmlns:dc="http://purl.org/dc/elements/1.1/"
   xmlns:cc="http://creativecommons.org/ns#"
   xmlns:rdf="http://www.w3.org/1999/02/22-rdf-syntax-ns#"
   xmlns:svg="http://www.w3.org/2000/svg"
   xmlns="http://www.w3.org/2000/svg"
   xmlns:sodipodi="http://sodipodi.sourceforge.net/DTD/sodipodi-0.dtd"
   xmlns:inkscape="http://www.inkscape.org/namespaces/inkscape"
   id="lecture05Logo"
   class="animated inactive"
   width="140.29"
   height="112.06"
   enable-background="new 0 0 198.44 105.83"
   version="1.1"
   viewBox="0 0 36.337 15.64"
   xml:space="preserve"
   sodipodi:docname="ic_document.svg"
   inkscape:version="1.0rc1 (09960d6f05, 2020-04-09)"><metadata
   id="metadata12"><rdf:RDF><cc:Work
       rdf:about=""><dc:format>image/svg+xml</dc:format><dc:type
         rdf:resource="http://purl.org/dc/dcmitype/StillImage" /><dc:title></dc:title></cc:Work></rdf:RDF></metadata><defs
   id="defs10" /><sodipodi:namedview
   inkscape:document-rotation="0"
   pagecolor="#6c6c6c"
   bordercolor="#666666"
   borderopacity="1"
   objecttolerance="10"
   gridtolerance="10"
   guidetolerance="10"
   inkscape:pageopacity="0"
   inkscape:pageshadow="2"
   inkscape:window-width="2560"
   inkscape:window-height="1377"
   id="namedview8"
   showgrid="false"
   inkscape:zoom="3.3644595"
   inkscape:cx="16.054403"
   inkscape:cy="43.940252"
   inkscape:window-x="-8"
   inkscape:window-y="-8"
   inkscape:window-maximized="1"
   inkscape:current-layer="lecture05Logo" />
  <filter
   id="blur-filter"
   x="-2"
   y="-2"
   width="200"
   height="200">
    <feGaussianBlur
   in="SourceGraphic"
   stdDeviation="2"
   id="feGaussianBlur2" />
  </filter><path
   sodipodi:nodetypes="sssscccsssscccsccccssscscsccssscccsssssssssssssssssssssssssscccsssssscs"
   inkscape:connector-curvature="0"
   id="path846"
   d="M 8.2011265,20.892317 C 7.964182,20.705934 7.979546,21.471954 7.979546,9.8475217 c 0,-9.0683664 0.0085,-10.71208022 0.0561,-10.82175652 0.03223,-0.074229 1.06399,-1.13504408 2.422084,-2.49032918 l 2.365926,-2.3610118 h 7.297839 7.297856 l 0.11067,0.087121 c 0.237677,0.1869546 0.221597,-0.7776245 0.221358,13.2839542 -1.53e-4,8.6965506 -0.01364,12.9801046 -0.04144,13.0797146 -0.02268,0.08146 -0.09618,0.194494 -0.163533,0.251173 l -0.122437,0.103048 H 17.867862 8.3117625 Z M 26.72699,7.5769322 V -4.8409839 h -6.590742 -6.590724 l -0.02012,2.0897465 c -0.02149,2.23867917 -0.01791,2.20141272 -0.230685,2.34091889 -0.09771,0.0640149 -0.295178,0.0721319 -2.198847,0.0904292 L 9.004318,-0.29980151 8.994088,9.8073359 c -0.0051,5.5589271 -0.0017,10.1297841 0.0085,10.1574621 0.01535,0.04014 1.8107,0.04828 8.871629,0.04019 l 8.852494,-0.01006 z M 11.171055,14.733453 c -0.190152,-0.08279 -0.298009,-0.246089 -0.298009,-0.45123 0,-0.144383 0.02473,-0.202993 0.137613,-0.326127 l 0.137613,-0.150112 h 6.717476 6.717475 l 0.137613,0.150112 c 0.112887,0.123136 0.137613,0.181747 0.137613,0.326127 0,0.208843 -0.109476,0.370482 -0.306859,0.452941 -0.194858,0.08141 -13.193265,0.07975 -13.380365,-0.0017 z m -0.06122,-3.579715 c -0.224921,-0.122249 -0.30326,-0.418208 -0.175878,-0.664533 0.132839,-0.256825 -0.359022,-0.239808 6.931654,-0.239808 7.290677,0 6.79885,-0.01705 6.931654,0.239808 0.124483,0.24082 0.04127,0.549913 -0.178846,0.663728 -0.10402,0.05378 -0.899534,0.06077 -6.760857,0.05936 -5.653282,-0.0014 -6.658576,-0.01006 -6.747726,-0.05854 z m 0.01194,-3.5435637 c -0.162341,-0.079993 -0.249087,-0.2376482 -0.249087,-0.4525808 0,-0.2230206 0.15927,-0.3996175 0.403017,-0.4468853 0.243117,-0.04715 12.993872,-0.045803 13.200428,0.00138 0.330153,0.07544 0.485382,0.4359205 0.31322,0.7273794 -0.150232,0.2541584 0.321848,0.2380166 -6.930136,0.2370122 -6.018171,-8.373e-4 -6.616542,-0.00665 -6.737444,-0.066317 z m -0.112378,-3.646092 c -0.111523,-0.111489 -0.13659,-0.1673358 -0.13659,-0.3034007 0,-0.2224102 0.08714,-0.3788767 0.25548,-0.4587606 0.126359,-0.059973 0.71298,-0.065703 6.737137,-0.065703 6.024139,0 6.610726,0.0058 6.737136,0.065703 0.168308,0.079891 0.25548,0.2363504 0.25548,0.4587606 0,0.1360615 -0.02507,0.1919117 -0.13659,0.3034007 l -0.13659,0.1366414 h -6.719334 -6.719334 z m 1.501537,-6.6248974 c 0.01023,-1.2711755 0.0068,-1.3563253 -0.06002,-1.3563253 -0.08799,0 -2.6229925,2.5274797 -2.6229925,2.6152964 0,0.035128 0.01194,0.076173 0.02728,0.091197 0.01535,0.015006 0.6163275,0.02256 1.3362305,0.016711 l 1.308896,-0.010573 z"
   style="fill:#ffffff;fill-opacity:1;stroke-width:0.999995" /></svg>
