<?xml version="1.0" encoding="UTF-8" standalone="no"?>
<svg
   xmlns:dc="http://purl.org/dc/elements/1.1/"
   xmlns:cc="http://creativecommons.org/ns#"
   xmlns:rdf="http://www.w3.org/1999/02/22-rdf-syntax-ns#"
   xmlns:svg="http://www.w3.org/2000/svg"
   xmlns="http://www.w3.org/2000/svg"
   xmlns:sodipodi="http://sodipodi.sourceforge.net/DTD/sodipodi-0.dtd"
   xmlns:inkscape="http://www.inkscape.org/namespaces/inkscape"
   inkscape:version="1.0rc1 (09960d6f05, 2020-04-09)"
   sodipodi:docname="ic_lock.svg"
   id="svg6"
   viewBox="0 0 25.001 32.01"
   version="1.1"
   height="120.98"
   width="94.492">
  <metadata
     id="metadata12">
    <rdf:RDF>
      <cc:Work
         rdf:about="">
        <dc:format>image/svg+xml</dc:format>
        <dc:type
           rdf:resource="http://purl.org/dc/dcmitype/StillImage" />
      </cc:Work>
    </rdf:RDF>
  </metadata>
  <defs
     id="defs10" />
  <sodipodi:namedview
     inkscape:current-layer="svg6"
     inkscape:window-maximized="1"
     inkscape:window-y="-8"
     inkscape:window-x="-8"
     inkscape:cy="60.490002"
     inkscape:cx="47.245998"
     inkscape:zoom="2.1987105"
     showgrid="false"
     id="namedview8"
     inkscape:window-height="1377"
     inkscape:window-width="2560"
     inkscape:pageshadow="2"
     inkscape:pageopacity="0"
     guidetolerance="10"
     gridtolerance="10"
     objecttolerance="10"
     borderopacity="1"
     bordercolor="#666666"
     pagecolor="#ffffff" />
  <g
     style="fill:#1d232d;fill-opacity:1"
     id="g4"
     transform="translate(-174.02 -150.1)">
    <path
       style="fill:#1d232d;fill-opacity:1"
       id="path2"
       fill="#444"
       d="m174.81 182.08c-0.3138-0.0622-0.50877-0.19532-0.64753-0.44225l-0.12307-0.21901-0.0131-8.3197c-9e-3 -5.889 3e-3 -8.3958 0.0408-8.5802 0.0663-0.32023 0.32216-0.61176 0.61226-0.69767 0.15509-0.0459 1.6432-0.12772 2.6674-0.1466l0.15677-3e-3 0.0185-2.843c0.0174-2.6738 0.0249-2.8754 0.12527-3.3877 0.29673-1.514 0.834-2.7629 1.6748-3.8935 0.49372-0.66383 1.4687-1.6128 2.0561-2.0014 1.0153-0.67158 2.1508-1.1034 3.541-1.3467 0.76225-0.1334 2.5096-0.12161 3.3032 0.0223 1.8694 0.33901 3.2966 1.0419 4.6025 2.2667 1.4078 1.3204 2.3804 3.0145 2.6768 4.6627 0.055 0.30564 0.0932 0.97688 0.12461 2.1885 0.0249 0.9612 0.0607 2.3376 0.0796 3.0587l0.0342 1.3111 1.2353 0.021c1.1102 0.0189 1.2579 0.0311 1.4584 0.12136 0.26481 0.11911 0.46754 0.34414 0.53773 0.59687 0.0706 0.25435 0.0706 16.751 0 17.006-0.0657 0.23658-0.2674 0.47405-0.48783 0.57435-0.15896 0.0723-1.2173 0.0801-11.817 0.0867-6.4034 4e-3 -11.739-0.0119-11.857-0.0351zm14.392-4.3411c-0.0147-0.0609-0.2694-1.283-0.56586-2.7157l-0.53904-2.6049 0.18825-0.20423c0.40658-0.4411 0.597-0.93941 0.597-1.5623 0-2.0057-2.4259-3.0518-3.8936-1.6789-0.48901 0.45742-0.73392 1.0197-0.73392 1.6849 0 0.61591 0.18775 1.121 0.56762 1.5271l0.21388 0.22865-0.53783 2.6073c-0.29581 1.434-0.5496 2.6572-0.56398 2.7181l-0.0262 0.11076h5.3205zm2.9888-15.458c0.0243-2.3311-0.0338-4.0596-0.15695-4.6644-0.20048-0.98506-0.63743-1.8025-1.3378-2.5029-1.0436-1.0436-2.4242-1.5831-4.0514-1.5831-2.5556 0-4.4407 1.245-5.113 3.3767-0.2302 0.72994-0.28831 1.2898-0.31557 3.0404-0.0139 0.88952-9e-3 2.0913 0.0107 2.6707l0.0359 1.0534h10.914z" />
  </g>
</svg>
