<?xml version="1.0" encoding="UTF-8" standalone="no"?>
<svg
   xmlns:dc="http://purl.org/dc/elements/1.1/"
   xmlns:cc="http://creativecommons.org/ns#"
   xmlns:rdf="http://www.w3.org/1999/02/22-rdf-syntax-ns#"
   xmlns:svg="http://www.w3.org/2000/svg"
   xmlns="http://www.w3.org/2000/svg"
   xmlns:sodipodi="http://sodipodi.sourceforge.net/DTD/sodipodi-0.dtd"
   xmlns:inkscape="http://www.inkscape.org/namespaces/inkscape"
   inkscape:version="1.0rc1 (09960d6f05, 2020-04-09)"
   sodipodi:docname="ic_lecture09.svg"
   id="svg98"
   viewBox="0 0 169.28 73.384"
   version="1.1"
   height="277.35"
   width="639.79">
  <defs
     id="defs102" />
  <sodipodi:namedview
     inkscape:current-layer="svg98"
     inkscape:window-maximized="1"
     inkscape:window-y="-8"
     inkscape:window-x="-8"
     inkscape:cy="92.545601"
     inkscape:cx="133.73168"
     inkscape:zoom="0.7377421"
     showgrid="false"
     id="namedview100"
     inkscape:window-height="1377"
     inkscape:window-width="2560"
     inkscape:pageshadow="2"
     inkscape:pageopacity="0"
     guidetolerance="10"
     gridtolerance="10"
     objecttolerance="10"
     borderopacity="1"
     bordercolor="#666666"
     pagecolor="#ffffff" />
  <metadata
     id="metadata2">
    <rdf:RDF>
      <cc:Work
         rdf:about="">
        <dc:format>image/svg+xml</dc:format>
        <dc:type
           rdf:resource="http://purl.org/dc/dcmitype/StillImage" />
        <dc:title></dc:title>
      </cc:Work>
    </rdf:RDF>
  </metadata>
  <g
     id="g56"
     stroke-width=".26459"
     stroke-linecap="square"
     stroke-dashoffset="1.2"
     transform="matrix(7.2629 0 0 7.2628 -684.21 -699.11)">
    <rect
       id="rect4"
       style="paint-order:normal"
       fill="#1d232d"
       height="9.7115"
       width="23.308"
       y="96.454"
       x="94.208" />
    <g
       id="g54"
       fill="#7b8694">
      <path
         id="path6"
         d="m94.596 96.26h1.1654v0.19408h-1.1654z" />
      <path
         id="path8"
         d="m96.538 96.26h1.1654v0.19408h-1.1654z" />
      <path
         id="path10"
         d="m98.481 96.26h1.1654v0.19408h-1.1654z" />
      <path
         id="path12"
         d="m100.42 96.26h1.1654v0.19408h-1.1654z" />
      <path
         id="path14"
         d="m102.37 96.26h1.1654v0.19408h-1.1654z" />
      <path
         id="path16"
         d="m104.31 96.26h1.1654v0.19408h-1.1654z" />
      <path
         id="path18"
         d="m106.25 96.26h1.1654v0.19408h-1.1654z" />
      <path
         id="path20"
         d="m108.19 96.26h1.1654v0.19408h-1.1654z" />
      <path
         id="path22"
         d="m110.13 96.26h1.1654v0.19408h-1.1654z" />
      <path
         id="path24"
         d="m112.08 96.26h1.1654v0.19408h-1.1654z" />
      <path
         id="path26"
         d="m114.02 96.26h1.1654v0.19408h-1.1654z" />
      <path
         id="path28"
         d="m115.96 96.26h1.1654v0.19408h-1.1654z" />
      <path
         id="path30"
         d="m115.96 106.17h1.1654v0.19405h-1.1654z" />
      <path
         id="path32"
         d="m114.02 106.17h1.1654v0.19405h-1.1654z" />
      <path
         id="path34"
         d="m112.08 106.17h1.1654v0.19405h-1.1654z" />
      <path
         id="path36"
         d="m110.13 106.17h1.1654v0.19405h-1.1654z" />
      <path
         id="path38"
         d="m108.19 106.17h1.1654v0.19405h-1.1654z" />
      <path
         id="path40"
         d="m106.25 106.17h1.1654v0.19405h-1.1654z" />
      <path
         id="path42"
         d="m104.31 106.17h1.1654v0.19405h-1.1654z" />
      <path
         id="path44"
         d="m102.37 106.17h1.1654v0.19405h-1.1654z" />
      <path
         id="path46"
         d="m100.42 106.17h1.1654v0.19405h-1.1654z" />
      <path
         id="path48"
         d="m98.481 106.17h1.1654v0.19405h-1.1654z" />
      <path
         id="path50"
         d="m96.538 106.17h1.1654v0.19405h-1.1654z" />
      <path
         id="path52"
         d="m94.596 106.17h1.1654v0.19405h-1.1654z" />
    </g>
  </g>
  <path
     inkscape:connector-curvature="0"
     d="M 106.9874,34.721695 A 22.461382,22.461382 0 0 1 84.526072,57.183069 22.461382,22.461382 0 0 1 62.064687,34.721695 22.461382,22.461382 0 0 1 84.526072,12.260304 22.461382,22.461382 0 0 1 106.9874,34.721695 Z"
     style="fill:#2c57df;fill-opacity:1;stroke-width:0.541534;paint-order:normal"
     id="path5" />
  <g
     style="stroke:#f3f4f5;stroke-width:0.64781;stroke-miterlimit:4;stroke-dasharray:none;stroke-opacity:1"
     transform="matrix(0.54153822,0,0,0.54153822,33.592783,20.703439)"
     fill="none"
     stroke="#ffffff"
     stroke-linejoin="round"
     stroke-width="0.64753"
     id="g175">
    <path
       style="stroke:#f3f4f5;stroke-width:0.64781;stroke-miterlimit:4;stroke-dasharray:none;stroke-opacity:1"
       inkscape:connector-curvature="0"
       d="m 79.772,18.635 -8.9576,14.929 h 18.911 z"
       id="path7" />
    <path
       style="stroke:#f3f4f5;stroke-width:0.64781;stroke-miterlimit:4;stroke-dasharray:none;stroke-opacity:1"
       inkscape:connector-curvature="0"
       d="m 79.772,18.635 18.911,0.99529 -8.9576,13.934 z"
       id="path9" />
    <path
       style="stroke:#f3f4f5;stroke-width:0.64781;stroke-miterlimit:4;stroke-dasharray:none;stroke-opacity:1"
       inkscape:connector-curvature="0"
       d="M 79.772,18.635 90.72,2.71 H 74.795 Z"
       id="path11" />
    <path
       style="stroke:#f3f4f5;stroke-width:0.64781;stroke-miterlimit:4;stroke-dasharray:none;stroke-opacity:1"
       inkscape:connector-curvature="0"
       d="m 74.795,2.7101 10.948,-12.939 -16.92,2.9859 z"
       id="path13" />
    <path
       style="stroke:#f3f4f5;stroke-width:0.64781;stroke-miterlimit:4;stroke-dasharray:none;stroke-opacity:1"
       inkscape:connector-curvature="0"
       d="m 68.823,-7.2428 -1.9906,-2.9859 13.934,-5.9717 z"
       id="path15" />
    <path
       style="stroke:#f3f4f5;stroke-width:0.64781;stroke-miterlimit:4;stroke-dasharray:none;stroke-opacity:1"
       inkscape:connector-curvature="0"
       d="m 68.823,-7.2428 11.943,-8.9576 4.9765,5.9717 z"
       id="path17" />
    <path
       style="stroke:#f3f4f5;stroke-width:0.64781;stroke-miterlimit:4;stroke-dasharray:none;stroke-opacity:1"
       inkscape:connector-curvature="0"
       d="m 80.767,-16.2 13.934,-2.9859 4.9765,2.9859 z"
       id="path19" />
    <path
       style="stroke:#f3f4f5;stroke-width:0.64781;stroke-miterlimit:4;stroke-dasharray:none;stroke-opacity:1"
       inkscape:connector-curvature="0"
       d="m 80.767,-16.2 4.9765,5.9717 13.934,-5.9717 z"
       id="path21" />
    <path
       style="stroke:#f3f4f5;stroke-width:0.64781;stroke-miterlimit:4;stroke-dasharray:none;stroke-opacity:1"
       inkscape:connector-curvature="0"
       d="m 94.701,-19.186 15.925,2.9859 H 99.678 Z"
       id="path23" />
    <path
       style="stroke:#f3f4f5;stroke-width:0.64781;stroke-miterlimit:4;stroke-dasharray:none;stroke-opacity:1"
       inkscape:connector-curvature="0"
       d="m 99.677,-16.2 16.92,5.9717 -5.9718,-5.9717 z"
       id="path25" />
    <path
       style="stroke:#f3f4f5;stroke-width:0.64781;stroke-miterlimit:4;stroke-dasharray:none;stroke-opacity:1"
       inkscape:connector-curvature="0"
       d="m 110.63,-16.2 14.929,8.9576 -8.9576,-2.9859 z"
       id="path27" />
    <path
       style="stroke:#f3f4f5;stroke-width:0.64781;stroke-miterlimit:4;stroke-dasharray:none;stroke-opacity:1"
       inkscape:connector-curvature="0"
       d="m 125.56,-7.2428 4.9764,9.9529 4.9765,2.9859 z"
       id="path29" />
    <path
       style="stroke:#f3f4f5;stroke-width:0.64781;stroke-miterlimit:4;stroke-dasharray:none;stroke-opacity:1"
       inkscape:connector-curvature="0"
       d="M 116.6,-10.229 130.534,2.71 125.5576,-7.2429 Z"
       id="path31" />
    <path
       style="stroke:#f3f4f5;stroke-width:0.64781;stroke-miterlimit:4;stroke-dasharray:none;stroke-opacity:1"
       inkscape:connector-curvature="0"
       d="m 130.53,2.7101 4.9765,2.9859 2.9859,12.939 z"
       id="path33" />
    <path
       style="stroke:#f3f4f5;stroke-width:0.64781;stroke-miterlimit:4;stroke-dasharray:none;stroke-opacity:1"
       inkscape:connector-curvature="0"
       d="m 130.53,2.7101 v 15.925 h 7.9623 z"
       id="path35" />
    <path
       style="stroke:#f3f4f5;stroke-width:0.64781;stroke-miterlimit:4;stroke-dasharray:none;stroke-opacity:1"
       inkscape:connector-curvature="0"
       d="m 138.49,18.635 0.99527,15.925 -3.9812,-0.99529 z"
       id="path37" />
    <path
       style="stroke:#f3f4f5;stroke-width:0.64781;stroke-miterlimit:4;stroke-dasharray:none;stroke-opacity:1"
       inkscape:connector-curvature="0"
       d="m 130.53,18.635 4.9765,14.929 2.9859,-14.929 z"
       id="path39" />
    <path
       style="stroke:#f3f4f5;stroke-width:0.64781;stroke-miterlimit:4;stroke-dasharray:none;stroke-opacity:1"
       inkscape:connector-curvature="0"
       d="m 135.51,33.564 -2.9859,16.92 6.967,-15.925 z"
       id="path41" />
    <path
       style="stroke:#f3f4f5;stroke-width:0.64781;stroke-miterlimit:4;stroke-dasharray:none;stroke-opacity:1"
       inkscape:connector-curvature="0"
       d="m 135.51,33.564 -7.9623,12.939 4.9765,3.9812 z"
       id="path43" />
    <path
       style="stroke:#f3f4f5;stroke-width:0.64781;stroke-miterlimit:4;stroke-dasharray:none;stroke-opacity:1"
       inkscape:connector-curvature="0"
       d="m 124.56,33.564 h 10.948 l -7.9623,12.939 z"
       id="path45" />
    <path
       style="stroke:#f3f4f5;stroke-width:0.64781;stroke-miterlimit:4;stroke-dasharray:none;stroke-opacity:1"
       inkscape:connector-curvature="0"
       d="m 124.56,33.564 5.9718,-14.929 h -12.939 z"
       id="path47" />
    <path
       style="stroke:#f3f4f5;stroke-width:0.64781;stroke-miterlimit:4;stroke-dasharray:none;stroke-opacity:1"
       inkscape:connector-curvature="0"
       d="m 117.59,18.635 h 12.939 L 120.5761,2.71 Z"
       id="path49" />
    <path
       style="stroke:#f3f4f5;stroke-width:0.64781;stroke-miterlimit:4;stroke-dasharray:none;stroke-opacity:1"
       inkscape:connector-curvature="0"
       d="m 120.58,2.7101 h 9.9529 v 15.925 z"
       id="path51" />
    <path
       style="stroke:#f3f4f5;stroke-width:0.64781;stroke-miterlimit:4;stroke-dasharray:none;stroke-opacity:1"
       inkscape:connector-curvature="0"
       d="m 116.6,-10.229 3.9811,12.939 h 9.9529 z"
       id="path53" />
    <path
       style="stroke:#f3f4f5;stroke-width:0.64781;stroke-miterlimit:4;stroke-dasharray:none;stroke-opacity:1"
       inkscape:connector-curvature="0"
       d="m 85.743,-10.229 13.934,-5.9717 3.9811,8.9576 z"
       id="path55" />
    <path
       style="stroke:#f3f4f5;stroke-width:0.64781;stroke-miterlimit:4;stroke-dasharray:none;stroke-opacity:1"
       inkscape:connector-curvature="0"
       d="m 103.66,-7.2428 12.939,-2.9859 -16.92,-5.9717 z"
       id="path57" />
    <path
       style="stroke:#f3f4f5;stroke-width:0.64781;stroke-miterlimit:4;stroke-dasharray:none;stroke-opacity:1"
       inkscape:connector-curvature="0"
       d="m 103.66,-7.2428 16.92,9.9529 -3.9811,-12.939 z"
       id="path59" />
    <path
       style="stroke:#f3f4f5;stroke-width:0.64781;stroke-miterlimit:4;stroke-dasharray:none;stroke-opacity:1"
       inkscape:connector-curvature="0"
       d="m 103.66,-7.2428 2.9859,12.939 13.934,-2.9859 z"
       id="path61" />
    <path
       style="stroke:#f3f4f5;stroke-width:0.64781;stroke-miterlimit:4;stroke-dasharray:none;stroke-opacity:1"
       inkscape:connector-curvature="0"
       d="M 103.66,-7.2428 90.721,2.7101 106.646,5.696 Z"
       id="path63" />
    <path
       style="stroke:#f3f4f5;stroke-width:0.64781;stroke-miterlimit:4;stroke-dasharray:none;stroke-opacity:1"
       inkscape:connector-curvature="0"
       d="M 103.66,-7.2428 90.721,2.7101 85.7445,-10.2289 Z"
       id="path65" />
    <path
       style="stroke:#f3f4f5;stroke-width:0.64781;stroke-miterlimit:4;stroke-dasharray:none;stroke-opacity:1"
       inkscape:connector-curvature="0"
       d="M 85.743,-10.229 90.7195,2.71 h -15.925 z"
       id="path67" />
    <path
       style="stroke:#f3f4f5;stroke-width:0.64781;stroke-miterlimit:4;stroke-dasharray:none;stroke-opacity:1"
       inkscape:connector-curvature="0"
       d="m 55.885,2.7101 10.948,-12.939 c 0,0 1.9906,2.9859 1.9906,2.9859 z"
       id="path69" />
    <path
       style="stroke:#f3f4f5;stroke-width:0.64781;stroke-miterlimit:4;stroke-dasharray:none;stroke-opacity:1"
       inkscape:connector-curvature="0"
       d="M 55.885,2.7101 60.8615,5.696 68.8238,-7.243 Z"
       id="path71" />
    <path
       style="stroke:#f3f4f5;stroke-width:0.64781;stroke-miterlimit:4;stroke-dasharray:none;stroke-opacity:1"
       inkscape:connector-curvature="0"
       d="M 60.861,5.696 74.795,2.7101 68.8233,-7.2428 Z"
       id="path73" />
    <path
       style="stroke:#f3f4f5;stroke-width:0.64781;stroke-miterlimit:4;stroke-dasharray:none;stroke-opacity:1"
       inkscape:connector-curvature="0"
       d="M 79.772,18.635 90.72,2.71 98.6823,19.63 Z"
       id="path75" />
    <path
       style="stroke:#f3f4f5;stroke-width:0.64781;stroke-miterlimit:4;stroke-dasharray:none;stroke-opacity:1"
       inkscape:connector-curvature="0"
       d="M 98.682,19.63 106.6443,5.696 90.7193,2.7101 Z"
       id="path77" />
    <path
       style="stroke:#f3f4f5;stroke-width:0.64781;stroke-miterlimit:4;stroke-dasharray:none;stroke-opacity:1"
       inkscape:connector-curvature="0"
       d="m 98.682,19.63 7.9623,-13.934 10.948,12.939 z"
       id="path79" />
    <path
       style="stroke:#f3f4f5;stroke-width:0.64781;stroke-miterlimit:4;stroke-dasharray:none;stroke-opacity:1"
       inkscape:connector-curvature="0"
       d="M 117.59,18.635 106.642,5.696 120.576,2.7101 Z"
       id="path81" />
    <path
       style="stroke:#f3f4f5;stroke-width:0.64781;stroke-miterlimit:4;stroke-dasharray:none;stroke-opacity:1"
       inkscape:connector-curvature="0"
       d="m 89.725,33.564 8.9576,-13.934 9.9529,14.929 z"
       id="path83" />
    <path
       style="stroke:#f3f4f5;stroke-width:0.64781;stroke-miterlimit:4;stroke-dasharray:none;stroke-opacity:1"
       inkscape:connector-curvature="0"
       d="m 108.64,34.559 8.9576,-15.925 -18.911,0.99529 z"
       id="path85" />
    <path
       style="stroke:#f3f4f5;stroke-width:0.64781;stroke-miterlimit:4;stroke-dasharray:none;stroke-opacity:1"
       inkscape:connector-curvature="0"
       d="m 108.64,34.559 8.9576,-15.925 6.967,14.929 z"
       id="path87" />
    <path
       style="stroke:#f3f4f5;stroke-width:0.64781;stroke-miterlimit:4;stroke-dasharray:none;stroke-opacity:1"
       inkscape:connector-curvature="0"
       d="m 124.56,33.564 -10.948,16.92 13.934,-3.9812 z"
       id="path89" />
    <path
       style="stroke:#f3f4f5;stroke-width:0.64781;stroke-miterlimit:4;stroke-dasharray:none;stroke-opacity:1"
       inkscape:connector-curvature="0"
       d="m 108.64,34.559 4.9765,15.925 10.948,-16.92 z"
       id="path91" />
    <path
       style="stroke:#f3f4f5;stroke-width:0.64781;stroke-miterlimit:4;stroke-dasharray:none;stroke-opacity:1"
       inkscape:connector-curvature="0"
       d="m 132.52,50.484 -12.939,9.9529 1.9906,2.9859 z"
       id="path93" />
    <path
       style="stroke:#f3f4f5;stroke-width:0.64781;stroke-miterlimit:4;stroke-dasharray:none;stroke-opacity:1"
       inkscape:connector-curvature="0"
       d="m 132.52,50.484 -12.939,9.9529 7.9623,-13.934 z"
       id="path95" />
    <path
       style="stroke:#f3f4f5;stroke-width:0.64781;stroke-miterlimit:4;stroke-dasharray:none;stroke-opacity:1"
       inkscape:connector-curvature="0"
       d="m 127.55,46.503 -13.934,3.9812 5.9718,9.9529 z"
       id="path97" />
    <path
       style="stroke:#f3f4f5;stroke-width:0.64781;stroke-miterlimit:4;stroke-dasharray:none;stroke-opacity:1"
       inkscape:connector-curvature="0"
       d="m 74.795,2.7101 -10.948,16.92 15.925,-0.99529 z"
       id="path99" />
    <path
       style="stroke:#f3f4f5;stroke-width:0.64781;stroke-miterlimit:4;stroke-dasharray:none;stroke-opacity:1"
       inkscape:connector-curvature="0"
       d="M 60.861,5.696 63.8469,19.63 74.7949,2.71 Z"
       id="path101" />
    <path
       style="stroke:#f3f4f5;stroke-width:0.64781;stroke-miterlimit:4;stroke-dasharray:none;stroke-opacity:1"
       inkscape:connector-curvature="0"
       d="m 55.885,2.7101 -6.967,15.925 h 3.9812 z"
       id="path103" />
    <path
       style="stroke:#f3f4f5;stroke-width:0.64781;stroke-miterlimit:4;stroke-dasharray:none;stroke-opacity:1"
       inkscape:connector-curvature="0"
       d="m 55.885,2.7101 -2.9859,15.925 7.9623,-12.939 z"
       id="path105" />
    <path
       style="stroke:#f3f4f5;stroke-width:0.64781;stroke-miterlimit:4;stroke-dasharray:none;stroke-opacity:1"
       inkscape:connector-curvature="0"
       d="m 60.861,5.696 -7.9623,12.939 10.948,0.99529 z"
       id="path107" />
    <path
       style="stroke:#f3f4f5;stroke-width:0.64781;stroke-miterlimit:4;stroke-dasharray:none;stroke-opacity:1"
       inkscape:connector-curvature="0"
       d="m 48.918,18.635 0.99529,14.929 2.9859,-14.929 z"
       id="path109" />
    <path
       style="stroke:#f3f4f5;stroke-width:0.64781;stroke-miterlimit:4;stroke-dasharray:none;stroke-opacity:1"
       inkscape:connector-curvature="0"
       d="m 52.899,18.635 -2.9859,14.929 7.9623,0.99529 z"
       id="path111" />
    <path
       style="stroke:#f3f4f5;stroke-width:0.64781;stroke-miterlimit:4;stroke-dasharray:none;stroke-opacity:1"
       inkscape:connector-curvature="0"
       d="m 52.899,18.635 10.948,0.99529 -5.9717,14.929 z"
       id="path113" />
    <path
       style="stroke:#f3f4f5;stroke-width:0.64781;stroke-miterlimit:4;stroke-dasharray:none;stroke-opacity:1"
       inkscape:connector-curvature="0"
       d="m 57.875,34.559 12.939,-0.99529 -6.967,-13.934 z"
       id="path115" />
    <path
       style="stroke:#f3f4f5;stroke-width:0.64781;stroke-miterlimit:4;stroke-dasharray:none;stroke-opacity:1"
       inkscape:connector-curvature="0"
       d="M 70.814,33.564 63.847,19.63 79.772,18.63471 Z"
       id="path117" />
    <path
       style="stroke:#f3f4f5;stroke-width:0.64781;stroke-miterlimit:4;stroke-dasharray:none;stroke-opacity:1"
       inkscape:connector-curvature="0"
       d="m 49.913,33.564 2.9859,13.934 4.9765,1.9906 z"
       id="path119" />
    <path
       style="stroke:#f3f4f5;stroke-width:0.64781;stroke-miterlimit:4;stroke-dasharray:none;stroke-opacity:1"
       inkscape:connector-curvature="0"
       d="m 49.913,33.564 7.9623,0.99529 v 14.929 z"
       id="path121" />
    <path
       style="stroke:#f3f4f5;stroke-width:0.64781;stroke-miterlimit:4;stroke-dasharray:none;stroke-opacity:1"
       inkscape:connector-curvature="0"
       d="m 57.875,34.559 v 14.929 l 9.9529,0.99529 z"
       id="path123" />
    <path
       style="stroke:#f3f4f5;stroke-width:0.64781;stroke-miterlimit:4;stroke-dasharray:none;stroke-opacity:1"
       inkscape:connector-curvature="0"
       d="m 57.875,34.559 12.939,-0.99529 -2.9859,16.92 z"
       id="path125" />
    <path
       style="stroke:#f3f4f5;stroke-width:0.64781;stroke-miterlimit:4;stroke-dasharray:none;stroke-opacity:1"
       inkscape:connector-curvature="0"
       d="m 67.828,50.484 2.9859,-16.92 10.948,12.939 z"
       id="path127" />
    <path
       style="stroke:#f3f4f5;stroke-width:0.64781;stroke-miterlimit:4;stroke-dasharray:none;stroke-opacity:1"
       inkscape:connector-curvature="0"
       d="M 81.762,46.503 70.814,33.564 h 18.911 z"
       id="path129" />
    <path
       style="stroke:#f3f4f5;stroke-width:0.64781;stroke-miterlimit:4;stroke-dasharray:none;stroke-opacity:1"
       inkscape:connector-curvature="0"
       d="m 81.762,46.503 15.925,3.9812 -7.9623,-16.92 z"
       id="path131" />
    <path
       style="stroke:#f3f4f5;stroke-width:0.64781;stroke-miterlimit:4;stroke-dasharray:none;stroke-opacity:1"
       inkscape:connector-curvature="0"
       d="m 89.725,33.564 18.911,0.99529 -10.948,15.925 z"
       id="path133" />
    <path
       style="stroke:#f3f4f5;stroke-width:0.64781;stroke-miterlimit:4;stroke-dasharray:none;stroke-opacity:1"
       inkscape:connector-curvature="0"
       d="M 108.64,34.559 97.692,50.484 h 15.925 z"
       id="path135" />
    <path
       style="stroke:#f3f4f5;stroke-width:0.64781;stroke-miterlimit:4;stroke-dasharray:none;stroke-opacity:1"
       inkscape:connector-curvature="0"
       d="M 52.899,47.498 62.8519,60.437 57.8754,49.489 Z"
       id="path137" />
    <path
       style="stroke:#f3f4f5;stroke-width:0.64781;stroke-miterlimit:4;stroke-dasharray:none;stroke-opacity:1"
       inkscape:connector-curvature="0"
       d="m 57.875,49.489 4.9765,10.948 8.9576,2.9859 z"
       id="path139" />
    <path
       style="stroke:#f3f4f5;stroke-width:0.64781;stroke-miterlimit:4;stroke-dasharray:none;stroke-opacity:1"
       inkscape:connector-curvature="0"
       d="m 57.875,49.489 9.9529,0.99529 3.9812,12.939 z"
       id="path141" />
    <path
       style="stroke:#f3f4f5;stroke-width:0.64781;stroke-miterlimit:4;stroke-dasharray:none;stroke-opacity:1"
       inkscape:connector-curvature="0"
       d="m 67.828,50.484 13.934,-3.9812 2.9859,13.934 z"
       id="path143" />
    <path
       style="stroke:#f3f4f5;stroke-width:0.64781;stroke-miterlimit:4;stroke-dasharray:none;stroke-opacity:1"
       inkscape:connector-curvature="0"
       d="m 67.828,50.484 3.9812,12.939 12.939,-2.9859 z"
       id="path145" />
    <path
       style="stroke:#f3f4f5;stroke-width:0.64781;stroke-miterlimit:4;stroke-dasharray:none;stroke-opacity:1"
       inkscape:connector-curvature="0"
       d="m 62.852,60.437 8.9576,2.9859 5.9717,5.9717 z"
       id="path147" />
    <path
       style="stroke:#f3f4f5;stroke-width:0.64781;stroke-miterlimit:4;stroke-dasharray:none;stroke-opacity:1"
       inkscape:connector-curvature="0"
       d="m 71.809,63.423 12.939,-2.9859 3.9812,8.9576 z"
       id="path149" />
    <path
       style="stroke:#f3f4f5;stroke-width:0.64781;stroke-miterlimit:4;stroke-dasharray:none;stroke-opacity:1"
       inkscape:connector-curvature="0"
       d="m 71.809,63.423 5.9717,5.9717 h 10.948 z"
       id="path151" />
    <path
       style="stroke:#f3f4f5;stroke-width:0.64781;stroke-miterlimit:4;stroke-dasharray:none;stroke-opacity:1"
       inkscape:connector-curvature="0"
       d="m 77.781,69.395 h 10.948 l 4.9765,2.9859 z"
       id="path153" />
    <path
       style="stroke:#f3f4f5;stroke-width:0.64781;stroke-miterlimit:4;stroke-dasharray:none;stroke-opacity:1"
       inkscape:connector-curvature="0"
       d="m 84.748,60.437 -2.9859,-13.934 15.925,3.9812 z"
       id="path155" />
    <path
       style="stroke:#f3f4f5;stroke-width:0.64781;stroke-miterlimit:4;stroke-dasharray:none;stroke-opacity:1"
       inkscape:connector-curvature="0"
       d="m 84.748,60.437 12.939,-9.9529 4.9765,12.939 z"
       id="path157" />
    <path
       style="stroke:#f3f4f5;stroke-width:0.64781;stroke-miterlimit:4;stroke-dasharray:none;stroke-opacity:1"
       inkscape:connector-curvature="0"
       d="m 97.687,50.484 h 15.925 l -10.948,12.939 z"
       id="path159" />
    <path
       style="stroke:#f3f4f5;stroke-width:0.64781;stroke-miterlimit:4;stroke-dasharray:none;stroke-opacity:1"
       inkscape:connector-curvature="0"
       d="m 84.748,60.437 3.9812,8.9576 13.934,-5.9717 z"
       id="path161" />
    <path
       style="stroke:#f3f4f5;stroke-width:0.64781;stroke-miterlimit:4;stroke-dasharray:none;stroke-opacity:1"
       inkscape:connector-curvature="0"
       d="m 102.66,63.423 10.948,-12.939 5.9718,9.9529 z"
       id="path163" />
    <path
       style="stroke:#f3f4f5;stroke-width:0.64781;stroke-miterlimit:4;stroke-dasharray:none;stroke-opacity:1"
       inkscape:connector-curvature="0"
       d="m 102.66,63.423 4.9765,5.9717 11.943,-8.9576 z"
       id="path165" />
    <path
       style="stroke:#f3f4f5;stroke-width:0.64781;stroke-miterlimit:4;stroke-dasharray:none;stroke-opacity:1"
       inkscape:connector-curvature="0"
       d="m 107.64,69.395 11.943,-8.9576 1.9906,2.9859 z"
       id="path167" />
    <path
       style="stroke:#f3f4f5;stroke-width:0.64781;stroke-miterlimit:4;stroke-dasharray:none;stroke-opacity:1"
       inkscape:connector-curvature="0"
       d="m 88.729,69.395 13.934,-5.9717 4.9765,5.9717 z"
       id="path169" />
    <path
       style="stroke:#f3f4f5;stroke-width:0.64781;stroke-miterlimit:4;stroke-dasharray:none;stroke-opacity:1"
       inkscape:connector-curvature="0"
       d="m 88.729,69.395 4.9765,2.9859 13.934,-2.9859 z"
       id="path171" />
    <path
       style="stroke:#f3f4f5;stroke-width:0.64781;stroke-miterlimit:4;stroke-dasharray:none;stroke-opacity:1"
       inkscape:connector-curvature="0"
       d="m 130.53,18.635 -5.9718,14.929 h 10.948 z"
       id="path173" />
  </g>
</svg>
