<svg id="lecture05Logo" class="animated inactive" width="140.29" height="112.06" enable-background="new 0 0 198.44 105.83" version="1.1" viewBox="0 0 36.337 15.64" xml:space="preserve" xmlns="http://www.w3.org/2000/svg">
  <filter id="blur-filter" x="-2" y="-2" width="200" height="200">
    <feGaussianBlur in="SourceGraphic" stdDeviation="2"/>
  </filter><path d="m8.8957 21.308c-0.21276-0.21277-0.31081-1.4793-0.31081-4.0147 0-3.1197 0.0613-3.7039 0.38852-3.7039 0.32511 0 0.38852 0.54105 0.38852 3.3154 0 2.2333 0.10145 3.4168 0.31081 3.6262 0.22848 0.22847 2.4531 0.31082 8.3968 0.31082 4.4473 0 8.2703-0.07075 8.4956-0.15722 0.34538-0.13253 0.40971-0.70188 0.40971-3.6262 0-2.9109 0.0625-3.469 0.38852-3.469 0.32744 0 0.38852 0.58896 0.38852 3.7466 0 3.439-0.0411 3.7686-0.501 4.0147-0.75444 0.40376-17.949 0.36377-18.355-0.04269zm-6.8882-2.563-0.71239-0.56036 0.0835-5.2115c0.0768-4.7978 0.12908-5.2968 0.65819-6.2862 0.3161-0.59109 1.0154-1.3487 1.5541-1.6836l0.97935-0.60888 13.08-0.07991c8.7798-0.05364 13.378 0.01124 13.987 0.19736 1.1109 0.33977 2.1282 1.215 2.7608 2.3752 0.40889 0.74988 0.48872 1.617 0.56028 6.086l0.0835 5.2115-0.70117 0.55154c-0.60775 0.47806-1.0416 0.55154-3.2564 0.55154h-2.5552v-6.4753h-20.705l-0.1454 6.3458-2.4792 0.07358c-2.2134 0.06569-2.5556 0.01347-3.1916-0.48679zm29.889-10.077c0.28491-0.28491 0.51803-0.69286 0.51803-0.90655 0-0.52204-0.93064-1.4246-1.4689-1.4246-0.64283 0-1.3802 0.77468-1.3802 1.45 0 0.59152 0.85556 1.3991 1.4822 1.3991 0.18198 0 0.56399-0.23311 0.84891-0.51803zm-18.908 9.9997c0-0.19845 0.18436-0.43156 0.4097-0.51803 0.63947-0.24539 9.5191-0.17663 9.9193 0.0768 0.98787 0.62571-0.14741 0.80203-5.164 0.80203-4.2421 0-5.165-0.06447-5.165-0.36081zm0-2.6125c0-0.33974 0.73278-0.39388 5.3314-0.39388 4.1499 0 5.3075 0.07175 5.2236 0.32377-0.0804 0.24158-1.4337 0.34157-5.3314 0.39388-4.5329 0.06085-5.2236 0.01803-5.2236-0.32377zm-4.0795-12.761c-0.44892-0.15014-0.46088-7.3358-0.0129-7.7837 0.22476-0.22477 2.0611-0.31082 6.6332-0.31082h6.3224l5.9006 5.5033v1.2354c0 0.85917-0.11832 1.2808-0.38852 1.3845-0.29158 0.11189-0.38852-0.04276-0.38852-0.61982v-0.76891h-5.9403l-0.0732-2.9139-0.0732-2.9139-5.4063-0.0701c-3.7067-0.04806-5.5162 0.02111-5.7559 0.22005-0.25394 0.21075-0.36929 1.2283-0.42151 3.7182-0.0546 2.603-0.14982 3.402-0.39566 3.3198zm17.807-2.1066c0-0.12561-1.1364-1.3153-2.5254-2.6438l-2.5254-2.4154-0.0755 2.2996c-0.0415 1.2648-0.016 2.4545 0.0566 2.6438 0.15239 0.39712 5.0696 0.50952 5.0696 0.11588z" fill="#fff" stroke-width=".25901"/></svg>
