<?xml version="1.0" encoding="UTF-8" standalone="no"?>
<svg
   xmlns:dc="http://purl.org/dc/elements/1.1/"
   xmlns:cc="http://creativecommons.org/ns#"
   xmlns:rdf="http://www.w3.org/1999/02/22-rdf-syntax-ns#"
   xmlns:svg="http://www.w3.org/2000/svg"
   xmlns="http://www.w3.org/2000/svg"
   xmlns:sodipodi="http://sodipodi.sourceforge.net/DTD/sodipodi-0.dtd"
   xmlns:inkscape="http://www.inkscape.org/namespaces/inkscape"
   inkscape:version="1.0rc1 (09960d6f05, 2020-04-09)"
   sodipodi:docname="ic_presentation.svg"
   xml:space="preserve"
   viewBox="0 0 36.337 15.64"
   version="1.1"
   enable-background="new 0 0 198.44 105.83"
   height="112.06"
   width="140.29"
   class="animated inactive"
   id="lecture05Logo"><metadata
   id="metadata12"><rdf:RDF><cc:Work
       rdf:about=""><dc:format>image/svg+xml</dc:format><dc:type
         rdf:resource="http://purl.org/dc/dcmitype/StillImage" /><dc:title></dc:title></cc:Work></rdf:RDF></metadata><defs
   id="defs10" /><sodipodi:namedview
   inkscape:current-layer="lecture05Logo"
   inkscape:window-maximized="1"
   inkscape:window-y="-8"
   inkscape:window-x="-8"
   inkscape:cy="44.447368"
   inkscape:cx="51.957942"
   inkscape:zoom="4.7580642"
   showgrid="false"
   id="namedview8"
   inkscape:window-height="1377"
   inkscape:window-width="2560"
   inkscape:pageshadow="2"
   inkscape:pageopacity="0"
   guidetolerance="10"
   gridtolerance="10"
   objecttolerance="10"
   borderopacity="1"
   bordercolor="#666666"
   pagecolor="#6c6c6c" />
  <filter
   height="200"
   width="200"
   y="-2"
   x="-2"
   id="blur-filter">
    <feGaussianBlur
   id="feGaussianBlur2"
   stdDeviation="2"
   in="SourceGraphic" />
  </filter><path
   inkscape:connector-curvature="0"
   id="path851"
   d="m 9.6888947,19.990466 c -0.4068891,-0.406887 -0.4216378,-0.811339 -0.043379,-1.189598 0.1580802,-0.158079 1.9579273,-1.368294 3.9996613,-2.689365 3.572572,-2.311578 3.712241,-2.428049 3.712241,-3.095751 v -0.693807 h -4.818374 c -4.4290613,0 -4.8585262,-0.03249 -5.3153376,-0.402106 C 6.7287109,11.519328 6.7264874,11.496837 6.6639623,6.259553 6.6054212,1.3562182 6.5734616,0.97628412 6.1903182,0.62954462 5.8413892,0.31376803 5.7794484,-0.0250733 5.7794484,-1.6180764 c 0,-2.8683117 -0.3072124,-2.6901439 4.6385916,-2.6901439 h 4.202761 v -0.4841693 c 0,-0.8878085 0.3381,-0.9893901 3.293046,-0.9893901 2.599636,0 2.808874,0.030055 3.099644,0.4451834 0.1715,0.2448516 0.261466,0.5764022 0.199923,0.7367802 -0.09311,0.242632 0.615276,0.2915958 4.218644,0.2915958 5.092436,0 4.766367,-0.184035 4.766367,2.6901439 0,1.54988978 -0.06687,1.93631776 -0.384965,2.22417753 -0.211731,0.19161399 -0.495918,0.34838889 -0.631525,0.34838889 -0.181519,0 -0.24656,1.32522848 -0.24656,5.02381328 0,6.6991107 0.158119,6.5012927 -5.103512,6.3848937 -2.6143,-0.05783 -2.914304,-0.103489 -3.112405,-0.473645 -0.152854,-0.285608 -0.15101,-0.537116 0.0061,-0.830657 0.208738,-0.39003 0.440767,-0.421017 3.15261,-0.421017 2.11066,0 2.974799,-0.07341 3.097591,-0.263136 0.09367,-0.144724 0.21767,-2.6787195 0.27556,-5.6311004 0.104278,-5.31785937 0.109673,-5.36990443 0.578899,-5.57576358 0.351955,-0.15441081 0.473644,-0.38426862 0.473644,-0.89466072 V -2.4136448 H 17.98894 7.6740278 v 0.7367794 0.73677961 h 7.7814042 c 7.477801,0 7.789908,0.0158871 7.999321,0.4071778 0.296057,0.55319067 0.275025,0.76868899 -0.112885,1.15659898 -0.287921,0.28792223 -1.2707,0.33079903 -7.582254,0.33079903 H 8.5081584 l 0.056582,4.78906668 0.056582,4.7890673 h 4.9658056 c 3.898804,0 5.040908,0.06207 5.315339,0.288909 0.265126,0.219148 0.350545,0.651221 0.353732,1.789323 l 0.0042,1.500411 3.837577,2.315593 c 2.995457,1.807457 3.852673,2.422072 3.906363,2.800823 0.07931,0.559504 -0.290483,1.093583 -0.757199,1.093583 -0.176606,0 -2.101478,-1.079828 -4.277497,-2.399619 l -3.956428,-2.399622 -3.70922,2.399622 c -2.040071,1.319791 -3.838618,2.399619 -3.996774,2.399619 -0.158155,0 -0.4364134,-0.148859 -0.6183521,-0.3308 z"
   style="fill:#ffffff;fill-opacity:1;stroke-width:0.210509" /></svg>
