<?xml version="1.0" encoding="UTF-8" standalone="no"?>
<svg
   xmlns:dc="http://purl.org/dc/elements/1.1/"
   xmlns:cc="http://creativecommons.org/ns#"
   xmlns:rdf="http://www.w3.org/1999/02/22-rdf-syntax-ns#"
   xmlns:svg="http://www.w3.org/2000/svg"
   xmlns="http://www.w3.org/2000/svg"
   xmlns:sodipodi="http://sodipodi.sourceforge.net/DTD/sodipodi-0.dtd"
   xmlns:inkscape="http://www.inkscape.org/namespaces/inkscape"
   id="lecture05Logo"
   class="animated inactive"
   width="140.29"
   height="112.06"
   enable-background="new 0 0 198.44 105.83"
   version="1.1"
   viewBox="0 0 36.337 15.64"
   xml:space="preserve"
   sodipodi:docname="ic_pixi.svg"
   inkscape:version="1.0rc1 (09960d6f05, 2020-04-09)"><metadata
   id="metadata12"><rdf:RDF><cc:Work
       rdf:about=""><dc:format>image/svg+xml</dc:format><dc:type
         rdf:resource="http://purl.org/dc/dcmitype/StillImage" /><dc:title></dc:title></cc:Work></rdf:RDF></metadata><defs
   id="defs10" /><sodipodi:namedview
   inkscape:document-rotation="0"
   pagecolor="#6c6c6c"
   bordercolor="#666666"
   borderopacity="1"
   objecttolerance="10"
   gridtolerance="10"
   guidetolerance="10"
   inkscape:pageopacity="0"
   inkscape:pageshadow="2"
   inkscape:window-width="2560"
   inkscape:window-height="1377"
   id="namedview8"
   showgrid="false"
   inkscape:zoom="2.3790321"
   inkscape:cx="60.78658"
   inkscape:cy="15.678662"
   inkscape:window-x="-8"
   inkscape:window-y="-8"
   inkscape:window-maximized="1"
   inkscape:current-layer="lecture05Logo" />
  <filter
   id="blur-filter"
   x="-2"
   y="-2"
   width="200"
   height="200">
    <feGaussianBlur
   in="SourceGraphic"
   stdDeviation="2"
   id="feGaussianBlur2" />
  </filter><path
   inkscape:connector-curvature="0"
   id="path900"
   d="m 22.99005,13.577736 c -0.340495,-0.03069 -0.630664,-0.07768 -0.964918,-0.156233 -0.219247,-0.05153 -0.228351,-0.05759 -0.212286,-0.141407 0.0092,-0.04817 0.06546,-0.448804 0.124949,-0.890313 0.05949,-0.441509 0.11768,-0.813569 0.12931,-0.8268 0.01163,-0.01323 0.156716,0.0037 0.322413,0.03766 0.895759,0.183522 1.543256,0.09623 1.92992,-0.260187 0.178172,-0.164234 0.296086,-0.373394 0.398452,-0.70679 l 0.07699,-0.250749 0.01004,-3.5872618 0.01004,-3.5872609 h 1.152936 1.152938 l 3.36e-4,1.1455824 3.35e-4,1.1455816 0.111087,-0.3222098 c 0.289091,-0.8385316 0.986946,-1.4998731 1.946051,-1.8442286 1.084811,-0.389489 2.701671,-0.3594122 3.929547,0.073095 0.205704,0.07246 0.381936,0.1396702 0.391628,0.1493634 0.02106,0.021058 -0.454258,1.7642951 -0.492141,1.804942 -0.01445,0.015508 -0.160412,-0.025466 -0.324342,-0.09105 C 32.287978,5.1112962 31.77356,4.9911079 31.301861,4.946708 30.134318,4.8368097 29.396827,5.2196249 29.395673,5.9361747 c -3.74e-4,0.2289788 0.101246,0.4746905 0.258651,0.6254299 0.188889,0.1808916 0.658798,0.4246648 1.335423,0.692774 0.808481,0.3203557 1.212204,0.5080854 1.51623,0.7050431 0.745227,0.48278 1.152733,1.006157 1.340056,1.7210953 0.100986,0.385407 0.101681,1.026362 0.0016,1.43825 -0.313442,1.289555 -1.381579,2.123069 -3.047456,2.378066 -0.73415,0.112377 -1.843347,0.06053 -2.642365,-0.123506 -0.585775,-0.134918 -1.204108,-0.371233 -1.204108,-0.460185 0,-0.05815 0.428528,-1.815951 0.447275,-1.834699 0.0059,-0.0059 0.123502,0.04068 0.26135,0.103499 0.792342,0.361082 1.904148,0.570163 2.612105,0.491221 0.63497,-0.0708 1.032629,-0.286292 1.214571,-0.658164 C 31.664756,10.655777 31.59595,10.188018 31.325272,9.9019075 31.066626,9.628519 30.697612,9.4402367 29.579339,9.0110867 28.299274,8.5198447 27.476452,7.8051607 27.204914,6.9487196 l -0.07658,-0.2415397 -0.01643,1.8378718 c -0.0134,1.4990893 -0.02674,1.9015133 -0.07238,2.1831223 -0.268799,1.658708 -1.119423,2.560242 -2.639359,2.797322 -0.402006,0.0627 -1.034131,0.08612 -1.410018,0.05224 z M 2.9129884,8.4015617 2.9214594,3.3597413 3.088698,3.3349182 c 0.4800696,-0.071257 1.2085723,-0.1297993 2.0183994,-0.1621977 1.6737257,-0.066962 2.645135,0.059342 3.4670154,0.4507675 0.8307433,0.3956495 1.4142587,1.1472713 1.5863102,2.0433166 0.02119,0.1103771 0.04573,0.2344401 0.05452,0.2756958 l 0.01599,0.07501 2.130127,0.00861 2.130127,0.00861 0.347917,0.5853335 c 0.191355,0.3219333 0.487293,0.8405276 0.65764,1.1524317 0.170347,0.3119031 0.32351,0.5716931 0.340361,0.5773101 0.01685,0.0056 0.08005,-0.09154 0.140443,-0.215897 0.0604,-0.124361 0.338337,-0.6513133 0.617654,-1.1710064 l 0.50785,-0.9448959 h 2.182569 2.182571 v 3.7126896 3.71269 h -2.219937 -2.219939 l -0.486681,-0.878 c -0.267677,-0.482901 -0.566561,-1.039805 -0.664188,-1.237565 -0.09763,-0.197759 -0.18784,-0.359562 -0.200472,-0.359562 -0.01263,0 -0.233067,0.410152 -0.489855,0.911449 -0.256788,0.501296 -0.545392,1.058199 -0.641341,1.237562 l -0.174454,0.326115 h -2.171116 -2.171117 l -0.0016,-2.901584 -0.0016,-2.901584 -0.097831,0.2114464 C 9.7131348,8.3162847 9.3287075,8.7726437 8.9091029,9.0613397 8.5057634,9.3388447 7.9234755,9.5674 7.2919359,9.6961 6.7078089,9.8151385 5.775536,9.8531865 5.2878103,9.7778905 L 5.179105,9.7611005 v 1.8411375 1.841136 H 4.0417795 2.9044508 Z M 13.376396,11.185668 c 0.539344,-0.809434 0.980741,-1.494275 0.98088,-1.52187 2.07e-4,-0.04025 -1.88804,-2.8767286 -1.991701,-2.9918925 -0.01586,-0.017622 -0.0286,1.3226562 -0.0286,3.0086165 0,1.749467 0.01248,3.026901 0.0294,3.008617 0.01617,-0.01747 0.47068,-0.694038 1.010025,-1.503471 z m 5.775876,-3.0081463 -0.0087,-1.5247747 -0.986706,1.4297387 c -0.542688,0.786357 -0.985871,1.4525553 -0.984849,1.4804413 0.001,0.02789 0.445038,0.746374 0.986705,1.59664 l 0.98485,1.545939 0.0087,-1.501604 c 0.0048,-0.825882 0.0048,-2.1877543 0,-3.0263803 z M 6.6007001,8.0081607 C 7.1025181,7.9031644 7.5361022,7.6099101 7.7636049,7.2216298 7.9623156,6.8824891 8.0182269,6.2694962 7.886197,5.8775698 7.6436295,5.157521 7.0219198,4.84911 5.8982994,4.8914339 5.6223563,4.9018323 5.3514309,4.9235776 5.296242,4.9397728 l -0.1003426,0.029439 -0.0087,1.5256845 -0.0087,1.5256854 0.1090399,0.01351 c 0.2888738,0.0358 1.0940979,0.01991 1.3131571,-0.02593 z M 10.920482,5.0801661 C 10.281746,4.9716767 9.8792765,4.3878746 9.9961615,3.7393929 10.068012,3.340771 10.267008,3.0805502 10.629617,2.9110489 c 0.162452,-0.075937 0.229106,-0.086742 0.536689,-0.087001 0.317539,-2.712e-4 0.371399,0.00903 0.561936,0.097012 0.660205,0.3048463 0.864205,1.1830904 0.408469,1.7585035 -0.242811,0.3065749 -0.762336,0.4776964 -1.216229,0.4006027 z m 9.131208,0 C 19.412956,4.9716767 19.010486,4.3878746 19.12737,3.7393929 c 0.07185,-0.3986219 0.270847,-0.6588427 0.633456,-0.828344 0.162451,-0.075937 0.229105,-0.086742 0.536688,-0.087001 0.31754,-2.712e-4 0.371399,0.00903 0.561937,0.097012 0.660205,0.3048463 0.864205,1.1830904 0.408469,1.7585035 -0.242812,0.3065749 -0.762337,0.4776964 -1.21623,0.4006027 z"
   style="fill:#e91e63;fill-opacity:1;stroke-width:0.999997" /></svg>
