<?xml version="1.0" encoding="UTF-8" standalone="no"?>
<svg
   xmlns:dc="http://purl.org/dc/elements/1.1/"
   xmlns:cc="http://creativecommons.org/ns#"
   xmlns:rdf="http://www.w3.org/1999/02/22-rdf-syntax-ns#"
   xmlns:svg="http://www.w3.org/2000/svg"
   xmlns="http://www.w3.org/2000/svg"
   xmlns:sodipodi="http://sodipodi.sourceforge.net/DTD/sodipodi-0.dtd"
   xmlns:inkscape="http://www.inkscape.org/namespaces/inkscape"
   sodipodi:docname="ic_summary.svg"
   inkscape:version="0.92.3 (2405546, 2018-03-11)"
   id="svg8"
   version="1.1"
   viewBox="0 0 26.484798 13.255626"
   height="50.100002"
   width="100.10003">
  <defs
     id="defs2" />
  <sodipodi:namedview
     inkscape:window-maximized="1"
     inkscape:window-y="-8"
     inkscape:window-x="-8"
     inkscape:window-height="2097"
     inkscape:window-width="3840"
     fit-margin-bottom="0"
     fit-margin-right="0"
     fit-margin-left="0"
     fit-margin-top="0"
     showgrid="true"
     inkscape:document-rotation="0"
     inkscape:current-layer="layer1"
     inkscape:document-units="mm"
     inkscape:cy="20.844905"
     inkscape:cx="46.817792"
     inkscape:zoom="7.9195959"
     inkscape:pageshadow="2"
     inkscape:pageopacity="0"
     borderopacity="1.0"
     bordercolor="#666666"
     pagecolor="#303030"
     id="base"
     units="px">
    <inkscape:grid
       type="xygrid"
       id="grid1543" />
  </sodipodi:namedview>
  <metadata
     id="metadata5">
    <rdf:RDF>
      <cc:Work
         rdf:about="">
        <dc:format>image/svg+xml</dc:format>
        <dc:type
           rdf:resource="http://purl.org/dc/dcmitype/StillImage" />
        <dc:title />
      </cc:Work>
    </rdf:RDF>
  </metadata>
  <g
     transform="translate(-119.80522,-81.062664)"
     id="layer1"
     inkscape:groupmode="layer"
     inkscape:label="Layer 1">
    <rect
       y="93.825478"
       x="119.90496"
       height="0.30355409"
       width="1.8213246"
       id="rect8471"
       style="fill:#7b8694;fill-opacity:1;stroke:none;stroke-width:0.151777;stroke-linecap:square;stroke-miterlimit:40;stroke-dasharray:none;stroke-dashoffset:1.2;stroke-opacity:1" />
    <rect
       style="fill:#7b8694;fill-opacity:1;stroke:none;stroke-width:0.151777;stroke-linecap:square;stroke-miterlimit:40;stroke-dasharray:none;stroke-dashoffset:1.2;stroke-opacity:1"
       id="rect8473"
       width="1.8213246"
       height="0.30355409"
       x="122.33334"
       y="93.825478" />
    <rect
       y="93.825478"
       x="124.76183"
       height="0.30355409"
       width="1.8213246"
       id="rect8475"
       style="fill:#7b8694;fill-opacity:1;stroke:none;stroke-width:0.151777;stroke-linecap:square;stroke-miterlimit:40;stroke-dasharray:none;stroke-dashoffset:1.2;stroke-opacity:1" />
    <rect
       style="fill:#7b8694;fill-opacity:1;stroke:none;stroke-width:0.151777;stroke-linecap:square;stroke-miterlimit:40;stroke-dasharray:none;stroke-dashoffset:1.2;stroke-opacity:1"
       id="rect8477"
       width="1.8213246"
       height="0.30355409"
       x="127.19023"
       y="93.825478" />
    <rect
       y="93.825478"
       x="129.61871"
       height="0.30355409"
       width="1.8213246"
       id="rect8479"
       style="fill:#7b8694;fill-opacity:1;stroke:none;stroke-width:0.151777;stroke-linecap:square;stroke-miterlimit:40;stroke-dasharray:none;stroke-dashoffset:1.2;stroke-opacity:1" />
    <rect
       style="fill:#7b8694;fill-opacity:1;stroke:none;stroke-width:0.151777;stroke-linecap:square;stroke-miterlimit:40;stroke-dasharray:none;stroke-dashoffset:1.2;stroke-opacity:1"
       id="rect8481"
       width="1.8213246"
       height="0.30355409"
       x="132.04715"
       y="93.825478" />
    <rect
       y="93.825478"
       x="134.47559"
       height="0.30355409"
       width="1.8213246"
       id="rect8483"
       style="fill:#7b8694;fill-opacity:1;stroke:none;stroke-width:0.151777;stroke-linecap:square;stroke-miterlimit:40;stroke-dasharray:none;stroke-dashoffset:1.2;stroke-opacity:1" />
    <rect
       style="fill:#7b8694;fill-opacity:1;stroke:none;stroke-width:0.151777;stroke-linecap:square;stroke-miterlimit:40;stroke-dasharray:none;stroke-dashoffset:1.2;stroke-opacity:1"
       id="rect8485"
       width="1.8213246"
       height="0.30355409"
       x="136.90399"
       y="93.825478" />
    <rect
       y="93.825478"
       x="139.33243"
       height="0.30355409"
       width="1.8213246"
       id="rect8487"
       style="fill:#7b8694;fill-opacity:1;stroke:none;stroke-width:0.151777;stroke-linecap:square;stroke-miterlimit:40;stroke-dasharray:none;stroke-dashoffset:1.2;stroke-opacity:1" />
    <rect
       style="fill:#7b8694;fill-opacity:1;stroke:none;stroke-width:0.151777;stroke-linecap:square;stroke-miterlimit:40;stroke-dasharray:none;stroke-dashoffset:1.2;stroke-opacity:1"
       id="rect8489"
       width="1.8213246"
       height="0.30355409"
       x="141.76086"
       y="93.825478" />
    <rect
       y="93.825478"
       x="144.1893"
       height="0.30355409"
       width="1.8213246"
       id="rect8491"
       style="fill:#7b8694;fill-opacity:1;stroke:none;stroke-width:0.151777;stroke-linecap:square;stroke-miterlimit:40;stroke-dasharray:none;stroke-dashoffset:1.2;stroke-opacity:1" />
    <path
       style="fill:#1d232d;fill-opacity:1;stroke:none;stroke-width:0.0631791;stroke-linecap:square;stroke-miterlimit:40;stroke-dasharray:none;stroke-dashoffset:0;stroke-opacity:1"
       d="m 120.00481,93.2954 h 26.0779 l -10.34122,-8.068807 -5.88797,0.002 z"
       id="path9617"
       inkscape:connector-curvature="0" />
    <g
       id="g9613"
       transform="matrix(0.06523257,0,0,0.05343019,50.858255,63.641644)"
       style="stroke:#a6aeb8;stroke-width:0.535078;stroke-miterlimit:4;stroke-dasharray:none;stroke-opacity:1">
      <path
         d="M 1210.9785,404.02148 1060,555"
         style="fill:none;fill-opacity:1;stroke:#a6aeb8;stroke-width:0.535078;stroke-linecap:square;stroke-miterlimit:4;stroke-dasharray:none;stroke-dashoffset:0;stroke-opacity:1"
         id="path9477"
         inkscape:connector-curvature="0" />
      <path
         d="M 1229.0387,404.02128 1140,555"
         style="fill:none;fill-opacity:1;stroke:#a6aeb8;stroke-width:0.535078;stroke-linecap:square;stroke-miterlimit:4;stroke-dasharray:none;stroke-dashoffset:0;stroke-opacity:1"
         id="path9481"
         inkscape:connector-curvature="0" />
      <path
         d="M 1238.0686,404.02159 1180,555"
         style="fill:none;fill-opacity:1;stroke:#a6aeb8;stroke-width:0.535078;stroke-linecap:square;stroke-miterlimit:4;stroke-dasharray:none;stroke-dashoffset:0;stroke-opacity:1"
         id="path9483"
         inkscape:connector-curvature="0" />
      <path
         d="M 1247.0988,404.02133 1220,555"
         style="fill:none;fill-opacity:1;stroke:#a6aeb8;stroke-width:0.535078;stroke-linecap:square;stroke-miterlimit:4;stroke-dasharray:none;stroke-dashoffset:0;stroke-opacity:1"
         id="path9485"
         inkscape:connector-curvature="0" />
      <path
         d="M 1256.1288,404.02148 1260,555"
         style="fill:none;fill-opacity:1;stroke:#a6aeb8;stroke-width:0.535078;stroke-linecap:square;stroke-miterlimit:4;stroke-dasharray:none;stroke-dashoffset:0;stroke-opacity:1"
         id="path9487"
         inkscape:connector-curvature="0" />
      <path
         d="M 1265.1588,404.02135 1300,555"
         style="fill:none;fill-opacity:1;stroke:#a6aeb8;stroke-width:0.535078;stroke-linecap:square;stroke-miterlimit:4;stroke-dasharray:none;stroke-dashoffset:0;stroke-opacity:1"
         id="path9489"
         inkscape:connector-curvature="0" />
      <path
         d="M 1274.1889,404.02169 1340,555"
         style="fill:none;fill-opacity:1;stroke:#a6aeb8;stroke-width:0.535078;stroke-linecap:square;stroke-miterlimit:4;stroke-dasharray:none;stroke-dashoffset:0;stroke-opacity:1"
         id="path9491"
         inkscape:connector-curvature="0" />
      <path
         d="M 1283.2188,404.02141 1380,555"
         style="fill:none;fill-opacity:1;stroke:#a6aeb8;stroke-width:0.535078;stroke-linecap:square;stroke-miterlimit:4;stroke-dasharray:none;stroke-dashoffset:0;stroke-opacity:1"
         id="path9493"
         inkscape:connector-curvature="0" />
      <path
         d="M 1292.2486,404.02105 1420,555"
         style="fill:none;fill-opacity:1;stroke:#a6aeb8;stroke-width:0.535078;stroke-linecap:square;stroke-miterlimit:4;stroke-dasharray:none;stroke-dashoffset:0;stroke-opacity:1"
         id="path9495"
         inkscape:connector-curvature="0" />
      <path
         d="M 1220.0083,404.02185 1100,555"
         style="fill:none;fill-opacity:1;stroke:#a6aeb8;stroke-width:0.535078;stroke-linecap:square;stroke-miterlimit:4;stroke-dasharray:none;stroke-dashoffset:0;stroke-opacity:1"
         id="path9497"
         inkscape:connector-curvature="0" />
      <path
         sodipodi:nodetypes="cc"
         inkscape:connector-curvature="0"
         id="path9499"
         d="m 1060,555 h 399.7683"
         style="fill:none;fill-opacity:1;stroke:#a6aeb8;stroke-width:0.535078;stroke-linecap:square;stroke-miterlimit:4;stroke-dasharray:none;stroke-dashoffset:0;stroke-opacity:1" />
      <path
         sodipodi:nodetypes="cc"
         style="fill:none;fill-opacity:1;stroke:#a6aeb8;stroke-width:0.535078;stroke-linecap:square;stroke-miterlimit:4;stroke-dasharray:none;stroke-dashoffset:0;stroke-opacity:1"
         d="m 1100,515 h 317.6069"
         id="path9501"
         inkscape:connector-curvature="0" />
      <path
         sodipodi:nodetypes="cc"
         inkscape:connector-curvature="0"
         id="path9503"
         d="M 1130.3604,485 H 1386"
         style="fill:none;fill-opacity:1;stroke:#a6aeb8;stroke-width:0.535078;stroke-linecap:square;stroke-miterlimit:4;stroke-dasharray:none;stroke-dashoffset:0;stroke-opacity:1" />
      <path
         sodipodi:nodetypes="cc"
         style="fill:none;fill-opacity:1;stroke:#a6aeb8;stroke-width:0.535078;stroke-linecap:square;stroke-miterlimit:4;stroke-dasharray:none;stroke-dashoffset:0;stroke-opacity:1"
         d="M 1150.7051,465 H 1365"
         id="path9505"
         inkscape:connector-curvature="0" />
      <path
         sodipodi:nodetypes="cc"
         inkscape:connector-curvature="0"
         id="path9507"
         d="M 1167.3707,448 H 1347"
         style="fill:none;fill-opacity:1;stroke:#a6aeb8;stroke-width:0.535078;stroke-linecap:square;stroke-miterlimit:4;stroke-dasharray:none;stroke-dashoffset:0;stroke-opacity:1" />
      <path
         sodipodi:nodetypes="cc"
         style="fill:none;fill-opacity:1;stroke:#a6aeb8;stroke-width:0.535078;stroke-linecap:square;stroke-miterlimit:4;stroke-dasharray:none;stroke-dashoffset:0;stroke-opacity:1"
         d="M 1181.5367,434 H 1332.139"
         id="path9509"
         inkscape:connector-curvature="0" />
      <path
         sodipodi:nodetypes="cc"
         inkscape:connector-curvature="0"
         id="path9511"
         d="M 1192.2949,423 H 1320.869"
         style="fill:none;fill-opacity:1;stroke:#a6aeb8;stroke-width:0.535078;stroke-linecap:square;stroke-miterlimit:4;stroke-dasharray:none;stroke-dashoffset:0;stroke-opacity:1" />
      <path
         sodipodi:nodetypes="cc"
         style="fill:none;fill-opacity:1;stroke:#a6aeb8;stroke-width:0.535078;stroke-linecap:square;stroke-miterlimit:4;stroke-dasharray:none;stroke-dashoffset:0;stroke-opacity:1"
         d="m 1199.278,416 h 114.165"
         id="path9513"
         inkscape:connector-curvature="0" />
      <path
         sodipodi:nodetypes="cc"
         inkscape:connector-curvature="0"
         id="path9515"
         d="M 1204.2621,411 H 1308"
         style="fill:none;fill-opacity:1;stroke:#a6aeb8;stroke-width:0.535078;stroke-linecap:square;stroke-miterlimit:4;stroke-dasharray:none;stroke-dashoffset:0;stroke-opacity:1" />
      <path
         sodipodi:nodetypes="cc"
         style="fill:none;fill-opacity:1;stroke:#a6aeb8;stroke-width:0.535078;stroke-linecap:square;stroke-miterlimit:4;stroke-dasharray:none;stroke-dashoffset:0;stroke-opacity:1"
         d="M 1208.3707,407 H 1304"
         id="path9517"
         inkscape:connector-curvature="0" />
      <path
         sodipodi:nodetypes="cc"
         inkscape:connector-curvature="0"
         id="path9519"
         d="m 1212,404 h 88.9017"
         style="fill:none;fill-opacity:1;stroke:#a6aeb8;stroke-width:0.535078;stroke-linecap:square;stroke-miterlimit:4;stroke-dasharray:none;stroke-dashoffset:0;stroke-opacity:1" />
      <path
         style="fill:none;fill-opacity:1;stroke:#a6aeb8;stroke-width:0.535078;stroke-linecap:square;stroke-miterlimit:4;stroke-dasharray:none;stroke-dashoffset:0;stroke-opacity:1"
         d="M 1301.2397,403.98413 1460,555"
         id="path9521"
         inkscape:connector-curvature="0"
         sodipodi:nodetypes="cc" />
    </g>
    <path
       inkscape:connector-curvature="0"
       d="m 140.8017,89.147487 v 0.11726 h -0.23452 v 0.117397 h -0.1174 v 0.11726 h -0.11726 v 0.234651 h -0.1174 v 0.821224 0.117259 0.117393 h 0.1174 v -0.117393 h 0.11726 v -0.117259 h 0.1174 v 0.117259 h 0.11725 v 0.117393 h 0.23466 v -0.117393 -0.117259 h 0.23465 v 0.117259 0.117393 h 0.23452 v -0.117393 h 0.11739 v -0.117259 h 0.11727 v 0.117259 h 0.11739 v 0.117393 h 0.11726 v -0.117393 -0.117259 -0.821224 h -0.11726 v -0.234651 h -0.11739 v -0.11726 h -0.11727 V 89.264747 H 141.271 v -0.11726 z"
       style="opacity:1;fill:#cf2f25;fill-opacity:1;stroke:none;stroke-width:0.0694867;stroke-linecap:square;stroke-miterlimit:40;stroke-dashoffset:1.2"
       id="path9121" />
    <path
       inkscape:connector-curvature="0"
       d="m 127.56317,87.096433 v 0.07617 h 0.30493 v -0.07617 z m -0.15246,0.07629 v 0.07617 h -0.0762 v 0.07617 h -0.0763 v 0.152463 h -0.0762 v 0.533554 0.0763 0.07617 h 0.0762 v -0.07617 h 0.0763 v -0.0763 h 0.0762 v 0.0763 h 0.0763 v 0.07617 h 0.15246 v -0.07617 -0.0763 h 0.15246 v 0.0763 0.07617 h 0.15247 v -0.07617 h 0.0762 v -0.0763 h 0.0762 v 0.0763 h 0.0763 v 0.07617 h 0.0762 v -0.07617 -0.0763 -0.533554 h -0.0762 v -0.152463 h -0.0763 v -0.07617 h -0.0762 v -0.07617 z"
       style="opacity:1;fill:#6f8ce9;fill-opacity:1;stroke:none;stroke-width:0.0652137;stroke-linecap:square;stroke-miterlimit:40;stroke-dashoffset:1.2"
       id="path9139" />
    <path
       inkscape:connector-curvature="0"
       d="m 126.21317,87.944213 v 0.0931 h 0.37268 v -0.0931 z m -0.18635,0.09324 v 0.0931 h -0.0932 v 0.09311 h -0.0933 v 0.186342 h -0.0932 v 0.652137 0.09324 0.0931 h 0.0932 v -0.0931 h 0.0933 v -0.09324 h 0.0932 v 0.09324 h 0.0933 v 0.0931 h 0.18634 v -0.0931 -0.09324 h 0.18622 v 0.09324 0.0931 h 0.18634 v -0.0931 h 0.0933 v -0.09324 h 0.093 v 0.09324 h 0.0933 v 0.0931 h 0.0932 v -0.0931 -0.09324 -0.652137 h -0.0932 v -0.186344 h -0.0933 v -0.09311 h -0.0932 v -0.0931 z"
       style="opacity:1;fill:#47d58a;fill-opacity:1;stroke:none;stroke-width:0.0652137;stroke-linecap:square;stroke-miterlimit:40;stroke-dashoffset:1.2"
       id="path9123" />
    <path
       inkscape:connector-curvature="0"
       d="m 128.07647,87.944213 v 0.0931 h 0.37256 v -0.0931 z m -0.18634,0.09324 v 0.0931 h -0.0933 v 0.09311 h -0.093 v 0.186342 h -0.0932 v 0.652137 0.09324 0.0931 h 0.0932 v -0.0931 h 0.093 v -0.09324 h 0.0933 v 0.09324 h 0.0932 v 0.0931 h 0.18634 v -0.0931 -0.09324 h 0.18634 v 0.09324 0.0931 h 0.18635 v -0.0931 h 0.0932 v -0.09324 h 0.0933 v 0.09324 h 0.0932 v 0.0931 h 0.0933 v -0.0931 h -1.5e-4 v -0.09324 h 1.4e-4 v -0.652137 h -0.0933 V 88.22367 h -0.0932 v -0.09311 h -0.0933 v -0.0931 z"
       style="opacity:1;fill:#47d58a;fill-opacity:1;stroke:none;stroke-width:0.0652137;stroke-linecap:square;stroke-miterlimit:40;stroke-dashoffset:1.2"
       id="path9125" />
    <path
       inkscape:connector-curvature="0"
       d="m 129.08767,87.096433 v 0.07617 h 0.30493 v -0.07617 z m -0.15246,0.07629 v 0.07617 h -0.0762 v 0.07617 h -0.0763 v 0.152463 h -0.0762 v 0.533554 0.0763 0.07617 h 0.0762 v -0.07617 h 0.0763 v -0.0763 h 0.0762 v 0.0763 h 0.0763 v 0.07617 h 0.15247 v -0.07617 -0.0763 h 0.15233 v 0.0763 0.07617 h 0.15247 v -0.07617 h 0.0763 v -0.0763 h 0.0762 v 0.0763 h 0.0763 v 0.07617 h 0.0762 v -0.07617 -0.0763 -0.533554 h -0.0762 v -0.152463 h -0.0763 v -0.07617 h -0.0762 v -0.07617 z"
       style="opacity:1;fill:#6f8ce9;fill-opacity:1;stroke:none;stroke-width:0.0652137;stroke-linecap:square;stroke-miterlimit:40;stroke-dashoffset:1.2"
       id="path9141" />
    <path
       inkscape:connector-curvature="0"
       d="m 130.61217,87.096433 v 0.07617 h 0.30493 v -0.07617 z m -0.15246,0.07629 v 0.07617 h -0.0762 v 0.07617 h -0.0763 v 0.152463 h -0.0762 v 0.533554 0.0763 0.07617 h 0.0762 v -0.07617 h 0.0763 v -0.0763 h 0.0762 v 0.0763 h 0.0763 v 0.07617 h 0.15234 v -0.07617 -0.0763 h 0.15246 v 0.0763 0.07617 h 0.15246 v -0.07617 h 0.0763 v -0.0763 h 0.0762 v 0.0763 h 0.0762 v 0.07617 h 0.0763 v -0.07617 -0.0763 -0.533554 h -0.0763 v -0.152463 h -0.0762 v -0.07617 h -0.0762 v -0.07617 z"
       style="opacity:1;fill:#6f8ce9;fill-opacity:1;stroke:none;stroke-width:0.0652137;stroke-linecap:square;stroke-miterlimit:40;stroke-dashoffset:1.2"
       id="path9143" />
    <path
       inkscape:connector-curvature="0"
       d="m 129.93966,87.944213 v 0.0931 h 0.37269 v -0.0931 z m -0.18623,0.09324 v 0.0931 h -0.0933 v 0.09311 h -0.0932 v 0.186342 h -0.0933 v 0.652137 0.09324 0.0931 h 0.0933 v -0.0931 h 0.0932 v -0.09324 h 0.0933 v 0.09324 h 0.0931 v 0.0931 h 0.18634 v -0.0931 -0.09324 h 0.18634 v 0.09324 0.0931 h 0.18622 v -0.0931 h 0.0933 v -0.09324 h 0.0932 v 0.09324 h 0.0933 v 0.0931 h 0.0932 v -0.0931 -0.09324 -0.652137 h -0.0932 V 88.22367 h -0.0933 v -0.09311 h -0.0932 v -0.0931 z"
       style="opacity:1;fill:#47d58a;fill-opacity:1;stroke:none;stroke-width:0.0652137;stroke-linecap:square;stroke-miterlimit:40;stroke-dashoffset:1.2"
       id="path9127" />
    <path
       inkscape:connector-curvature="0"
       d="m 122.26161,90.791678 v 0.150628 h -0.30126 v 0.150627 h -0.15062 v 0.150628 h -0.15063 v 0.301254 h -0.15063 v 1.054394 0.15063 0.150628 h 0.15063 v -0.150628 h 0.15063 v -0.15063 h 0.15062 v 0.15063 h 0.15063 v 0.150628 h 0.30126 v -0.150628 -0.15063 h 0.30125 v 0.15063 0.150628 h 0.30126 v -0.150628 h 0.15063 v -0.15063 h 0.15063 v 0.15063 h 0.15062 v 0.150628 h 0.15063 v -0.150628 -0.15063 -1.054394 h -0.15063 v -0.301254 h -0.15062 v -0.150628 h -0.15063 v -0.150627 h -0.30126 v -0.150628 z"
       style="opacity:1;fill:#e9e56f;fill-opacity:1;stroke:none;stroke-width:0.075313;stroke-linecap:square;stroke-miterlimit:40;stroke-dashoffset:1.2"
       id="path9091" />
    <path
       inkscape:connector-curvature="0"
       d="m 125.27417,90.791678 v 0.150628 h -0.30126 v 0.150627 h -0.15063 v 0.150628 h -0.15062 v 0.301254 h -0.15063 v 1.054394 0.15063 0.150628 h 0.15063 v -0.150628 h 0.15062 v -0.15063 h 0.15063 v 0.15063 h 0.15063 v 0.150628 h 0.30126 v -0.150628 -0.15063 h 0.30125 v 0.15063 0.150628 h 0.30126 v -0.150628 h 0.15062 v -0.15063 h 0.15063 v 0.15063 h 0.15063 v 0.150628 h 0.15063 v -0.150628 -0.15063 -1.054394 h -0.15063 v -0.301254 h -0.15063 v -0.150628 h -0.15063 v -0.150627 h -0.30125 v -0.150628 z"
       style="opacity:1;fill:#e9e56f;fill-opacity:1;stroke:none;stroke-width:0.075313;stroke-linecap:square;stroke-miterlimit:40;stroke-dashoffset:1.2"
       id="path9093" />
    <path
       inkscape:connector-curvature="0"
       d="m 128.28672,90.791678 v 0.150628 h -0.30125 v 0.150627 h -0.15063 v 0.150628 h -0.15063 v 0.301254 h -0.15062 v 1.054394 0.15063 0.150628 h 0.15062 v -0.150628 h 0.15063 v -0.15063 h 0.15063 v 0.15063 h 0.15063 v 0.150628 h 0.30124 v -0.150628 -0.15063 h 0.30126 v 0.15063 0.150628 h 0.30125 v -0.150628 h 0.15064 v -0.15063 h 0.15062 v 0.15063 h 0.15063 v 0.150628 h 0.15062 v -0.150628 -0.15063 -1.054394 h -0.15062 v -0.301254 h -0.15063 v -0.150628 h -0.15062 v -0.150627 h -0.30125 v -0.150628 z"
       style="opacity:1;fill:#e9e56f;fill-opacity:1;stroke:none;stroke-width:0.075313;stroke-linecap:square;stroke-miterlimit:40;stroke-dashoffset:1.2"
       id="path9095" />
    <path
       inkscape:connector-curvature="0"
       d="m 131.29927,90.791678 v 0.150628 h -0.30126 v 0.150627 h -0.15062 v 0.150628 h -0.15063 v 0.301254 h -0.15063 v 1.054394 0.15063 0.150628 h 0.15063 v -0.150628 h 0.15063 v -0.15063 h 0.15062 v 0.15063 h 0.15063 v 0.150628 h 0.30126 v -0.150628 -0.15063 h 0.30125 v 0.15063 0.150628 h 0.30126 v -0.150628 h 0.15063 v -0.15063 h 0.15062 v 0.15063 h 0.15063 v 0.150628 h 0.15064 v -0.150628 -0.15063 -1.054394 h -0.15064 v -0.301254 h -0.15063 v -0.150628 h -0.15062 v -0.150627 h -0.30126 v -0.150628 z"
       style="opacity:1;fill:#e9e56f;fill-opacity:1;stroke:none;stroke-width:0.075313;stroke-linecap:square;stroke-miterlimit:40;stroke-dashoffset:1.2"
       id="path9097" />
    <path
       inkscape:connector-curvature="0"
       d="m 134.31183,90.791678 v 0.150628 h -0.30126 v 0.150627 h -0.15063 v 0.150628 h -0.15062 v 0.301254 h -0.15063 v 1.054394 0.15063 0.150628 h 0.15063 v -0.150628 h 0.15062 v -0.15063 h 0.15063 v 0.15063 h 0.15063 v 0.150628 h 0.30125 v -0.150628 -0.15063 h 0.30126 v 0.15063 0.150628 h 0.30126 v -0.150628 h 0.15062 v -0.15063 h 0.15063 v 0.15063 h 0.15063 v 0.150628 h 0.15063 v -0.150628 -0.15063 -1.054394 h -0.15063 v -0.301254 h -0.15063 v -0.150628 h -0.15063 v -0.150627 h -0.30125 v -0.150628 z"
       style="opacity:1;fill:#e9e56f;fill-opacity:1;stroke:none;stroke-width:0.075313;stroke-linecap:square;stroke-miterlimit:40;stroke-dashoffset:1.2"
       id="path9099" />
    <path
       inkscape:connector-curvature="0"
       d="m 137.32438,90.791678 v 0.150628 h -0.30125 v 0.150627 h -0.15063 v 0.150628 h -0.15063 v 0.301254 h -0.15063 v 1.054394 0.15063 0.150628 h 0.15063 v -0.150628 h 0.15063 v -0.15063 h 0.15063 v 0.15063 h 0.15063 v 0.150628 h 0.30125 v -0.150628 -0.15063 h 0.30126 v 0.15063 0.150628 h 0.30125 v -0.150628 h 0.15063 v -0.15063 h 0.15063 v 0.15063 h 0.15063 v 0.150628 h 0.15062 v -0.150628 -0.15063 -1.054394 h -0.15062 v -0.301254 h -0.15063 v -0.150628 h -0.15063 v -0.150627 h -0.30126 v -0.150628 z"
       style="opacity:1;fill:#e9e56f;fill-opacity:1;stroke:none;stroke-width:0.075313;stroke-linecap:square;stroke-miterlimit:40;stroke-dashoffset:1.2"
       id="path9101" />
    <path
       inkscape:connector-curvature="0"
       d="m 140.33694,90.791678 v 0.150628 h -0.30126 v 0.150627 h -0.15062 v 0.150628 h -0.15063 v 0.301254 h -0.15063 v 1.054394 0.15063 0.150628 h 0.15063 v -0.150628 h 0.15063 v -0.15063 h 0.15062 v 0.15063 h 0.15063 v 0.150628 h 0.30126 v -0.150628 -0.15063 h 0.30125 v 0.15063 0.150628 h 0.30126 v -0.150628 h 0.15063 v -0.15063 h 0.15063 v 0.15063 h 0.15062 v 0.150628 h 0.15063 v -0.150628 -0.15063 -1.054394 h -0.15063 v -0.301254 h -0.15062 v -0.150628 h -0.15063 v -0.150627 h -0.30126 v -0.150628 z"
       style="opacity:1;fill:#e9e56f;fill-opacity:1;stroke:none;stroke-width:0.075313;stroke-linecap:square;stroke-miterlimit:40;stroke-dashoffset:1.2"
       id="path9103" />
    <path
       inkscape:connector-curvature="0"
       d="m 143.3495,90.791678 v 0.150628 h -0.30126 v 0.150627 h -0.15063 v 0.150628 h -0.15062 v 0.301254 h -0.15063 v 1.054394 0.15063 0.150628 h 0.15063 v -0.150628 h 0.15062 v -0.15063 h 0.15063 v 0.15063 h 0.15063 v 0.150628 h 0.30126 v -0.150628 -0.15063 h 0.30125 v 0.15063 0.150628 h 0.30126 v -0.150628 h 0.15062 v -0.15063 h 0.15063 v 0.15063 h 0.15063 v 0.150628 h 0.15063 v -0.150628 -0.15063 -1.054394 h -0.15063 v -0.301254 h -0.15063 v -0.150628 h -0.15063 v -0.150627 h -0.30125 v -0.150628 z"
       style="opacity:1;fill:#e9e56f;fill-opacity:1;stroke:none;stroke-width:0.075313;stroke-linecap:square;stroke-miterlimit:40;stroke-dashoffset:1.2"
       id="path9105" />
    <path
       inkscape:connector-curvature="0"
       d="m 124.37753,89.147487 v 0.11726 h -0.23466 v 0.117397 h -0.11727 v 0.11726 h -0.11739 v 0.234651 h -0.11726 v 0.821224 0.117259 0.117393 h 0.11726 v -0.117393 h 0.11739 v -0.117259 h 0.11727 v 0.117259 h 0.11739 v 0.117393 h 0.23466 v -0.117393 -0.117259 h 0.23451 v 0.117259 0.117393 h 0.23466 v -0.117393 h 0.1174 v -0.117259 h 0.11725 v 0.117259 h 0.11727 v 0.117393 h 0.11739 v -0.117393 -0.117259 -0.821224 h -0.11739 v -0.234651 h -0.11727 v -0.11726 h -0.11725 v -0.117397 h -0.23465 v -0.11726 z"
       style="opacity:1;fill:#cf2f25;fill-opacity:1;stroke:none;stroke-width:0.0694867;stroke-linecap:square;stroke-miterlimit:40;stroke-dashoffset:1.2"
       id="path9107" />
    <path
       inkscape:connector-curvature="0"
       d="m 126.72379,89.147487 v 0.11726 h -0.23452 v 0.117397 h -0.11739 v 0.11726 h -0.11726 v 0.234651 h -0.11739 v 0.821224 0.117259 0.117393 h 0.11739 v -0.117393 h 0.11726 v -0.117259 h 0.11739 v 0.117259 h 0.11727 v 0.117393 h 0.23465 v -0.117393 -0.117259 h 0.23466 v 0.117259 0.117393 h 0.23452 v -0.117393 h 0.11739 v -0.117259 h 0.11726 v 0.117259 h 0.11739 v 0.117393 h 0.11726 v -0.117393 -0.117259 -0.821224 h -0.11726 v -0.234651 h -0.11739 v -0.11726 h -0.11726 v -0.117397 h -0.23466 v -0.11726 z"
       style="opacity:1;fill:#cf2f25;fill-opacity:1;stroke:none;stroke-width:0.0694867;stroke-linecap:square;stroke-miterlimit:40;stroke-dashoffset:1.2"
       id="path9109" />
    <path
       inkscape:connector-curvature="0"
       d="m 132.13668,87.096433 v 0.07617 h 0.30479 v -0.07617 z m -0.15247,0.07629 v 0.07617 h -0.0763 v 0.07617 h -0.0762 v 0.152463 h -0.0763 v 0.533554 0.0763 0.07617 h 0.0763 v -0.07617 h 0.0762 v -0.0763 h 0.0763 v 0.0763 h 0.0762 v 0.07617 h 0.15247 v -0.07617 -0.0763 h 0.15246 v 0.0763 0.07617 h 0.15246 v -0.07617 h 0.0762 v -0.0763 h 0.0763 v 0.0763 h 0.0762 v 0.07617 h 0.0763 v -0.07617 -0.0763 -0.533554 h -0.0763 v -0.152463 h -0.0762 v -0.07617 h -0.0763 v -0.07617 z"
       style="opacity:1;fill:#6f8ce9;fill-opacity:1;stroke:none;stroke-width:0.0652137;stroke-linecap:square;stroke-miterlimit:40;stroke-dashoffset:1.2"
       id="path9145" />
    <path
       inkscape:connector-curvature="0"
       d="m 131.80296,87.944213 v 0.0931 h 0.37256 v -0.0931 z m -0.18634,0.09324 v 0.0931 h -0.0932 v 0.09311 h -0.0933 v 0.186342 h -0.0932 v 0.652137 0.09324 0.0931 h 0.0932 v -0.0931 h 0.0933 v -0.09324 h 0.0932 v 0.09324 h 0.0933 v 0.0931 h 0.18621 v -0.0931 -0.09324 h 0.18634 v 0.09324 0.0931 h 0.18635 v -0.0931 h 0.093 v -0.09324 h 0.0933 v 0.09324 h 0.0932 v 0.0931 h 0.0933 v -0.0931 -0.09324 -0.652137 h -0.0933 V 88.22367 h -0.0932 v -0.09311 h -0.0932 v -0.0931 z"
       style="opacity:1;fill:#47d58a;fill-opacity:1;stroke:none;stroke-width:0.0652137;stroke-linecap:square;stroke-miterlimit:40;stroke-dashoffset:1.2"
       id="path9129" />
    <path
       inkscape:connector-curvature="0"
       d="m 129.0702,89.147487 v 0.11726 h -0.23466 v 0.117397 h -0.11725 v 0.11726 h -0.1174 v 0.234651 h -0.11726 v 0.821224 0.117259 0.117393 h 0.11726 v -0.117393 h 0.11726 v -0.117259 h 0.11739 v 0.117259 h 0.11727 v 0.117393 h 0.23465 v -0.117393 -0.117259 h 0.23466 v 0.117259 0.117393 h 0.23465 v -0.117393 h 0.11726 v -0.117259 h 0.11739 v 0.117259 h 0.11726 v 0.117393 h 0.11727 v -0.117393 -0.117259 -0.821224 h -0.11727 v -0.234651 h -0.11726 v -0.11726 h -0.11739 v -0.117397 h -0.23466 v -0.11726 z"
       style="opacity:1;fill:#cf2f25;fill-opacity:1;stroke:none;stroke-width:0.0694867;stroke-linecap:square;stroke-miterlimit:40;stroke-dashoffset:1.2"
       id="path9111" />
    <path
       inkscape:connector-curvature="0"
       d="m 133.66105,87.096433 v 0.07617 h 0.30493 v -0.07617 z m -0.15234,0.07629 v 0.07617 h -0.0763 v 0.07617 h -0.0762 v 0.152463 h -0.0763 v 0.533554 0.0763 0.07617 h 0.0763 v -0.07617 h 0.0762 v -0.0763 h 0.0763 v 0.0763 h 0.0762 v 0.07617 h 0.15247 v -0.07617 -0.0763 h 0.15246 v 0.0763 0.07617 h 0.15246 v -0.07617 h 0.0762 v -0.0763 h 0.0763 v 0.0763 h 0.0762 v 0.07617 h 0.0763 v -0.07617 -0.0763 -0.533554 h -0.0763 v -0.152463 h -0.0762 v -0.07617 h -0.0763 v -0.07617 z"
       style="opacity:1;fill:#6f8ce9;fill-opacity:1;stroke:none;stroke-width:0.0652137;stroke-linecap:square;stroke-miterlimit:40;stroke-dashoffset:1.2"
       id="path9147" />
    <path
       inkscape:connector-curvature="0"
       d="m 133.66614,87.944213 v 0.0931 h 0.37269 v -0.0931 z m -0.18621,0.09324 v 0.0931 h -0.0933 v 0.09311 h -0.0932 v 0.186342 h -0.0933 v 0.652137 0.09324 0.0931 h 0.0933 v -0.0931 h 0.0932 v -0.09324 h 0.0933 v 0.09324 h 0.0932 v 0.0931 h 0.18634 v -0.0931 -0.09324 h 0.18634 v 0.09324 0.0931 h 0.18636 v -0.0931 h 0.0932 v -0.09324 h 0.093 v 0.09324 h 0.0933 v 0.0931 h 0.0932 v -0.0931 -0.09324 -0.652137 h -0.0932 V 88.22367 h -0.0932 v -0.09311 h -0.0933 v -0.0931 z"
       style="opacity:1;fill:#47d58a;fill-opacity:1;stroke:none;stroke-width:0.0652137;stroke-linecap:square;stroke-miterlimit:40;stroke-dashoffset:1.2"
       id="path9131" />
    <path
       inkscape:connector-curvature="0"
       d="m 131.41648,89.147487 v 0.11726 h -0.23466 v 0.117397 h -0.11726 v 0.11726 h -0.11739 v 0.234651 h -0.11727 v 0.821224 0.117259 0.117393 h 0.11727 v -0.117393 h 0.11739 v -0.117259 h 0.11726 v 0.117259 h 0.11739 v 0.117393 h 0.23466 v -0.117393 -0.117259 h 0.23452 v 0.117259 0.117393 h 0.23465 v -0.117393 h 0.11725 v -0.117259 h 0.11741 v 0.117259 h 0.11725 v 0.117393 h 0.1174 v -0.117393 -0.117259 -0.821224 h -0.1174 v -0.234651 h -0.11725 v -0.11726 h -0.11727 v -0.117397 h -0.23465 v -0.11726 z"
       style="opacity:1;fill:#cf2f25;fill-opacity:1;stroke:none;stroke-width:0.0694867;stroke-linecap:square;stroke-miterlimit:40;stroke-dashoffset:1.2"
       id="path9113" />
    <path
       inkscape:connector-curvature="0"
       d="m 135.18555,87.096433 v 0.07617 h 0.30492 v -0.07617 z m -0.15234,0.07629 v 0.07617 h -0.0763 v 0.07617 h -0.0762 v 0.152463 h -0.0763 v 0.533554 0.0763 0.07617 h 0.0763 v -0.07617 h 0.0762 v -0.0763 h 0.0763 v 0.0763 h 0.0762 v 0.07617 h 0.15246 v -0.07617 -0.0763 h 0.15247 v 0.0763 0.07617 h 0.15246 v -0.07617 h 0.0762 v -0.0763 h 0.0762 v 0.0763 h 0.0763 v 0.07617 h 0.0762 v -0.07617 -0.0763 -0.533554 h -0.0762 v -0.152463 h -0.0762 v -0.07617 h -0.0763 v -0.07617 z"
       style="opacity:1;fill:#6f8ce9;fill-opacity:1;stroke:none;stroke-width:0.0652137;stroke-linecap:square;stroke-miterlimit:40;stroke-dashoffset:1.2"
       id="path9149" />
    <path
       inkscape:connector-curvature="0"
       d="m 135.52945,87.944213 v 0.0931 h 0.37268 v -0.0931 z m -0.18635,0.09324 v 0.0931 h -0.0932 v 0.09311 h -0.0933 v 0.186342 h -0.0931 v 0.652137 0.09324 0.0931 h 0.0931 v -0.0931 h 0.0933 v -0.09324 h 0.0932 v 0.09324 h 0.0933 v 0.0931 h 0.18635 v -0.0931 -0.09324 h 0.18621 v 0.09324 0.0931 h 0.18634 v -0.0931 h 0.0933 v -0.09324 h 0.093 v 0.09324 h 0.0932 v 0.0931 h 0.0933 v -0.0931 -0.09324 -0.652137 h -0.0933 V 88.22367 h -0.0932 v -0.09311 h -0.093 v -0.0931 z"
       style="opacity:1;fill:#47d58a;fill-opacity:1;stroke:none;stroke-width:0.0652137;stroke-linecap:square;stroke-miterlimit:40;stroke-dashoffset:1.2"
       id="path9133" />
    <path
       inkscape:connector-curvature="0"
       d="m 133.76274,89.147487 v 0.11726 h -0.23451 v 0.117397 h -0.11739 v 0.11726 h -0.11727 v 0.234651 h -0.1174 v 0.821224 0.117259 0.117393 h 0.1174 v -0.117393 h 0.11727 v -0.117259 h 0.11739 v 0.117259 h 0.11725 v 0.117393 h 0.23466 v -0.117393 -0.117259 h 0.23465 v 0.117259 0.117393 h 0.23452 v -0.117393 h 0.1174 v -0.117259 h 0.11725 v 0.117259 h 0.11739 v 0.117393 h 0.11727 v -0.117393 -0.117259 -0.821224 h -0.11727 v -0.234651 h -0.11739 v -0.11726 h -0.11725 v -0.117397 h -0.23465 v -0.11726 z"
       style="opacity:1;fill:#cf2f25;fill-opacity:1;stroke:none;stroke-width:0.0694867;stroke-linecap:square;stroke-miterlimit:40;stroke-dashoffset:1.2"
       id="path9115" />
    <path
       inkscape:connector-curvature="0"
       d="m 136.71004,87.096433 v 0.07617 h 0.30493 v -0.07617 z m -0.15246,0.07629 v 0.07617 h -0.0762 v 0.07617 h -0.0763 v 0.152463 h -0.0762 v 0.533554 0.0763 0.07617 h 0.0762 v -0.07617 h 0.0763 v -0.0763 h 0.0762 v 0.0763 h 0.0763 v 0.07617 h 0.15247 v -0.07617 -0.0763 h 0.15246 v 0.0763 0.07617 h 0.15234 v -0.07617 h 0.0763 v -0.0763 h 0.0762 v 0.0763 h 0.0763 v 0.07617 h 0.0762 v -0.07617 -0.0763 -0.533554 h -0.0762 v -0.152463 h -0.0763 v -0.07617 h -0.0762 v -0.07617 z"
       style="opacity:1;fill:#6f8ce9;fill-opacity:1;stroke:none;stroke-width:0.0652137;stroke-linecap:square;stroke-miterlimit:40;stroke-dashoffset:1.2"
       id="path9151" />
    <path
       inkscape:connector-curvature="0"
       d="m 137.39276,87.944213 v 0.0931 h 0.37256 v -0.0931 z m -0.18635,0.09324 v 0.0931 h -0.0933 v 0.09311 h -0.0932 v 0.186342 h -0.0933 v 0.652137 0.09324 0.0931 h 0.0933 v -0.0931 h 0.0932 v -0.09324 h 0.0933 v 0.09324 h 0.0932 v 0.0931 h 0.18634 v -0.0931 -0.09324 h 0.18634 v 0.09324 0.0931 h 0.18635 v -0.0931 h 0.0932 v -0.09324 h 0.0933 v 0.09324 h 0.0932 v 0.0931 h 0.0932 v -0.0931 -0.09324 -0.652137 h -0.0932 V 88.22367 h -0.0932 v -0.09311 h -0.0933 v -0.0931 z"
       style="opacity:1;fill:#47d58a;fill-opacity:1;stroke:none;stroke-width:0.0652137;stroke-linecap:square;stroke-miterlimit:40;stroke-dashoffset:1.2"
       id="path9135" />
    <path
       inkscape:connector-curvature="0"
       d="m 136.10901,89.147487 v 0.11726 h -0.23452 v 0.117397 h -0.11725 v 0.11726 h -0.1174 v 0.234651 h -0.11725 v 0.821224 0.117259 0.117393 h 0.11725 v -0.117393 h 0.11726 v -0.117259 h 0.11739 v 0.117259 h 0.11727 v 0.117393 h 0.23464 v -0.117393 -0.117259 h 0.23467 v 0.117259 0.117393 h 0.23464 v -0.117393 h 0.11727 v -0.117259 h 0.11726 v 0.117259 h 0.11739 v 0.117393 h 0.11726 v -0.117393 -0.117259 -0.821224 h -0.11726 v -0.234651 h -0.11726 v -0.11726 h -0.11739 v -0.117397 h -0.23466 v -0.11726 z"
       style="opacity:1;fill:#cf2f25;fill-opacity:1;stroke:none;stroke-width:0.0694867;stroke-linecap:square;stroke-miterlimit:40;stroke-dashoffset:1.2"
       id="path9117" />
    <path
       inkscape:connector-curvature="0"
       d="m 138.23455,87.096433 v 0.07617 h 0.30493 v -0.07617 z m -0.15246,0.07629 v 0.07617 h -0.0762 v 0.07617 h -0.0763 v 0.152463 h -0.0762 v 0.533554 0.0763 0.07617 h 0.0762 v -0.07617 h 0.0763 v -0.0763 h 0.0762 v 0.0763 h 0.0763 v 0.07617 h 0.15247 v -0.07617 -0.0763 h 0.15233 v 0.0763 0.07617 h 0.15247 v -0.07617 h 0.0763 v -0.0763 h 0.0762 v 0.0763 h 0.0763 v 0.07617 h 0.0762 v -0.07617 -0.0763 -0.533554 h -0.0762 v -0.152463 h -0.0763 v -0.07617 h -0.0762 v -0.07617 z"
       style="opacity:1;fill:#6f8ce9;fill-opacity:1;stroke:none;stroke-width:0.0652137;stroke-linecap:square;stroke-miterlimit:40;stroke-dashoffset:1.2"
       id="path9153" />
    <path
       inkscape:connector-curvature="0"
       d="m 139.25594,87.944213 v 0.0931 h 0.37269 v -0.0931 z m -0.18634,0.09324 v 0.0931 h -0.0932 v 0.09311 h -0.0933 v 0.186342 H 138.79 v 0.652137 0.09324 0.0931 h 0.0932 v -0.0931 h 0.0933 v -0.09324 h 0.0932 v 0.09324 h 0.0933 v 0.0931 h 0.18634 v -0.0931 -0.09324 h 0.18622 v 0.09324 0.0931 h 0.18633 v -0.0931 h 0.0933 v -0.09324 h 0.0932 v 0.09324 h 0.0933 v 0.0931 h 0.0932 v -0.0931 -0.09324 -0.652137 h -0.0932 V 88.22367 h -0.0933 v -0.09311 h -0.0932 v -0.0931 z"
       style="opacity:1;fill:#47d58a;fill-opacity:1;stroke:none;stroke-width:0.0652137;stroke-linecap:square;stroke-miterlimit:40;stroke-dashoffset:1.2"
       id="path9137" />
    <path
       inkscape:connector-curvature="0"
       d="m 138.45542,89.147487 v 0.11726 h -0.23466 v 0.117397 h -0.11725 v 0.11726 h -0.11739 v 0.234651 h -0.11727 v 0.821224 0.117259 0.117393 h 0.11727 v -0.117393 h 0.11739 v -0.117259 h 0.11725 v 0.117259 h 0.1174 v 0.117393 h 0.23466 v -0.117393 h -1.4e-4 v -0.117259 h 0.23466 v 0.117259 0.117393 h 0.23465 v -0.117393 h 0.11727 v -0.117259 h 0.11739 v 0.117259 h 0.11726 v 0.117393 h 0.11739 v -0.117393 -0.117259 -0.821224 h -0.11739 v -0.234651 h -0.11726 v -0.11726 h -0.11725 v -0.117397 h -0.23466 v -0.11726 z"
       style="opacity:1;fill:#cf2f25;fill-opacity:1;stroke:none;stroke-width:0.0694867;stroke-linecap:square;stroke-miterlimit:40;stroke-dashoffset:1.2"
       id="path9119" />
    <rect
       inkscape:export-ydpi="498.70001"
       inkscape:export-xdpi="498.70001"
       y="82.857536"
       x="130.5079"
       height="2.5681105"
       width="5.2171087"
       id="rect4092"
       style="opacity:1;fill:#1d232d;fill-opacity:1;stroke:#7b8694;stroke-width:0.0652137;stroke-linecap:square;stroke-miterlimit:40;stroke-dashoffset:1.2;stroke-opacity:1" />
    <rect
       inkscape:export-ydpi="498.70001"
       inkscape:export-xdpi="498.70001"
       y="85.400871"
       x="130.37747"
       height="0.19564159"
       width="5.5431786"
       id="rect4108"
       style="opacity:1;fill:#a6aeb8;fill-opacity:1;stroke:none;stroke-width:0.0652137;stroke-linecap:square;stroke-miterlimit:40;stroke-dashoffset:1.2;stroke-opacity:1" />
    <rect
       inkscape:export-ydpi="498.70001"
       inkscape:export-xdpi="498.70001"
       style="opacity:1;fill:#7b8694;fill-opacity:1;stroke:none;stroke-width:0.0652137;stroke-linecap:square;stroke-miterlimit:40;stroke-dashoffset:1.2;stroke-opacity:1"
       id="rect4111"
       width="2.6085465"
       height="0.58284891"
       x="131.81219"
       y="85.596512" />
    <rect
       y="86.24865"
       x="130.11662"
       height="0.065213859"
       width="0.39128318"
       id="rect4113"
       style="fill:#1d232d;fill-opacity:1;stroke-width:0.0652137;stroke-linecap:square;stroke-miterlimit:40;stroke-dashoffset:1.2" />
    <path
       inkscape:connector-curvature="0"
       style="stroke:none;stroke-width:0.39687407;fill:#f3f4f5;fill-opacity:1"
       d="m 133.07048,84.942113 c -0.12251,-0.190336 -0.33932,-0.336843 -0.56203,-0.379798 -0.0451,-0.0087 -0.13455,-0.0193 -0.16291,-0.01931 l -0.0111,-3e-6 0.002,-0.08572 c 0.002,-0.06991 0.004,-0.09222 0.0126,-0.120948 0.0127,-0.04346 0.0443,-0.111918 0.0532,-0.115326 0.006,-0.0022 0.17305,0.07112 0.57119,0.250314 0.0607,0.0273 0.11344,0.04942 0.11731,0.04916 0.005,-3.64e-4 0.1699,-0.07184 0.21821,-0.09485 0.0841,-0.04007 0.46972,-0.206655 0.47429,-0.204899 0.0102,0.0039 0.0475,0.08709 0.056,0.124985 0.005,0.02146 0.009,0.06654 0.0104,0.115319 l 0.003,0.08009 -0.0652,0.0057 c -0.15145,0.01315 -0.27723,0.05284 -0.396,0.124964 -0.11021,0.06692 -0.20588,0.157653 -0.27655,0.262268 -0.0135,0.02002 -0.0249,0.03638 -0.0253,0.03636 -4.2e-4,-2.5e-5 -0.009,-0.01275 -0.0189,-0.02828 z m 0.98251,-0.03977 c 0,-0.0039 0.0116,-0.0891 0.0258,-0.189396 0.0142,-0.100297 0.0258,-0.18676 0.0258,-0.192139 0,-0.0066 -0.007,-0.0137 -0.0203,-0.02171 -0.073,-0.04284 -0.10158,-0.13933 -0.0641,-0.216773 0.0134,-0.02776 0.0481,-0.06046 0.0802,-0.07575 l 0.0277,-0.01317 v -0.118761 c 0,-0.08382 -0.002,-0.118761 -0.005,-0.118761 -0.004,0 -0.54331,0.238439 -0.9357,0.4139 l -0.0939,0.04199 -0.22753,-0.101579 c -0.67637,-0.301949 -0.8909,-0.397631 -0.99712,-0.444702 -0.12733,-0.05642 -0.12243,-0.05403 -0.11853,-0.05793 10e-4,-0.0015 0.10372,-0.04772 0.22719,-0.102752 0.23088,-0.102899 0.49565,-0.221099 0.88147,-0.393514 0.1213,-0.05421 0.22409,-0.0996 0.22842,-0.100867 0.008,-0.0024 0.0327,0.0083 0.44731,0.193515 0.34572,0.154437 0.57458,0.256589 0.7495,0.334562 0.0844,0.03764 0.15264,0.06989 0.15155,0.07166 -0.001,0.0018 -0.0517,0.02503 -0.11248,0.05169 l -0.11049,0.04847 v 0.283819 l 0.0303,0.01494 c 0.0369,0.01817 0.069,0.05293 0.0829,0.08969 0.014,0.03704 0.0109,0.0957 -0.007,0.130169 -0.0167,0.0326 -0.0348,0.05242 -0.0634,0.06946 -0.0183,0.01086 -0.0232,0.01625 -0.0217,0.02348 0.002,0.01017 0.0538,0.378683 0.0538,0.384189 0,0.0018 -0.0528,0.0033 -0.11731,0.0033 -0.10111,0 -0.11732,-9.72e-4 -0.11732,-0.007 z"
       id="path5" />
  </g>
</svg>
