<?xml version="1.0" encoding="UTF-8" standalone="no"?>
<svg
   xmlns:dc="http://purl.org/dc/elements/1.1/"
   xmlns:cc="http://creativecommons.org/ns#"
   xmlns:rdf="http://www.w3.org/1999/02/22-rdf-syntax-ns#"
   xmlns:svg="http://www.w3.org/2000/svg"
   xmlns="http://www.w3.org/2000/svg"
   xmlns:sodipodi="http://sodipodi.sourceforge.net/DTD/sodipodi-0.dtd"
   xmlns:inkscape="http://www.inkscape.org/namespaces/inkscape"
   inkscape:version="1.0rc1 (09960d6f05, 2020-04-09)"
   sodipodi:docname="items_active_bgr.svg"
   id="svg60"
   viewBox="0 0 29.633 34.396"
   version="1.1"
   height="34.396mm"
   width="29.633mm">
  <metadata
     id="metadata66">
    <rdf:RDF>
      <cc:Work
         rdf:about="">
        <dc:format>image/svg+xml</dc:format>
        <dc:type
           rdf:resource="http://purl.org/dc/dcmitype/StillImage" />
      </cc:Work>
    </rdf:RDF>
  </metadata>
  <defs
     id="defs64" />
  <sodipodi:namedview
     inkscape:current-layer="g58"
     inkscape:window-maximized="1"
     inkscape:window-y="-8"
     inkscape:window-x="-8"
     inkscape:cy="63.0068"
     inkscape:cx="71.968333"
     inkscape:zoom="3.8153661"
     showgrid="false"
     id="namedview62"
     inkscape:window-height="1377"
     inkscape:window-width="2560"
     inkscape:pageshadow="2"
     inkscape:pageopacity="0"
     guidetolerance="10"
     gridtolerance="10"
     objecttolerance="10"
     borderopacity="1"
     bordercolor="#666666"
     pagecolor="#ffffff" />
  <g
     id="g58"
     transform="translate(-1.8143 -204.96)">
    <path
       style="fill:#a6aeb8;fill-opacity:1"
       id="path2"
       fill="#7b8694"
       d="m1.8143 208.67v-2.1167h0.26458v2.1167z" />
    <rect
       id="rect4"
       style="paint-order:normal;fill:#535e70;fill-opacity:1"
       fill="#1d232d"
       height="29.104"
       width="34.396"
       y="2.0789"
       x="-239.36"
       transform="rotate(-90)" />
    <g
       style="fill:#a6aeb8;fill-opacity:1"
       id="g56"
       fill="#7b8694">
      <path
         style="fill:#a6aeb8;fill-opacity:1"
         id="path6"
         d="m1.8143 208.67v-2.1167h0.52917v2.1167z" />
      <path
         style="fill:#a6aeb8;fill-opacity:1"
         id="path8"
         d="m1.8143 211.31v-2.1167h0.52917v2.1167z" />
      <path
         style="fill:#a6aeb8;fill-opacity:1"
         id="path10"
         d="m1.8143 213.96v-2.1167h0.52917v2.1167z" />
      <path
         style="fill:#a6aeb8;fill-opacity:1"
         id="path12"
         d="m1.8143 216.6v-2.1167h0.52917v2.1167z" />
      <path
         style="fill:#a6aeb8;fill-opacity:1"
         id="path14"
         d="m1.8143 219.25v-2.1167h0.52917v2.1167z" />
      <path
         style="fill:#a6aeb8;fill-opacity:1"
         id="path16"
         d="m1.8143 221.9v-2.1167h0.52917v2.1167z" />
      <path
         style="fill:#a6aeb8;fill-opacity:1"
         id="path18"
         d="m1.8143 224.54v-2.1167h0.52917v2.1167z" />
      <path
         style="fill:#a6aeb8;fill-opacity:1"
         id="path20"
         d="m1.8143 227.19v-2.1167h0.52917v2.1167z" />
      <path
         style="fill:#a6aeb8;fill-opacity:1"
         id="path22"
         d="m1.8143 229.83v-2.1167h0.52917v2.1167z" />
      <path
         style="fill:#a6aeb8;fill-opacity:1"
         id="path24"
         d="m1.8143 232.48v-2.1167h0.52917v2.1167z" />
      <path
         style="fill:#a6aeb8;fill-opacity:1"
         id="path26"
         d="m1.8143 235.13v-2.1167h0.52917v2.1167z" />
      <path
         style="fill:#a6aeb8;fill-opacity:1"
         id="path28"
         d="m1.8143 237.77v-2.1167h0.52917v2.1167z" />
      <path
         style="fill:#a6aeb8;fill-opacity:1"
         id="path30"
         d="m30.918 208.67v-2.1167h0.26458v2.1167z" />
      <path
         style="fill:#a6aeb8;fill-opacity:1"
         id="path32"
         d="m30.918 208.67v-2.1167h0.52917v2.1167z" />
      <path
         style="fill:#a6aeb8;fill-opacity:1"
         id="path34"
         d="m30.918 211.31v-2.1167h0.52917v2.1167z" />
      <path
         style="fill:#a6aeb8;fill-opacity:1"
         id="path36"
         d="m30.918 213.96v-2.1167h0.52917v2.1167z" />
      <path
         style="fill:#a6aeb8;fill-opacity:1"
         id="path38"
         d="m30.918 216.6v-2.1167h0.52917v2.1167z" />
      <path
         style="fill:#a6aeb8;fill-opacity:1"
         id="path40"
         d="m30.918 219.25v-2.1167h0.52917v2.1167z" />
      <path
         style="fill:#a6aeb8;fill-opacity:1"
         id="path42"
         d="m30.918 221.9v-2.1167h0.52917v2.1167z" />
      <path
         style="fill:#a6aeb8;fill-opacity:1"
         id="path44"
         d="m30.918 224.54v-2.1167h0.52917v2.1167z" />
      <path
         style="fill:#a6aeb8;fill-opacity:1"
         id="path46"
         d="m30.918 227.19v-2.1167h0.52917v2.1167z" />
      <path
         style="fill:#a6aeb8;fill-opacity:1"
         id="path48"
         d="m30.918 229.83v-2.1167h0.52917v2.1167z" />
      <path
         style="fill:#a6aeb8;fill-opacity:1"
         id="path50"
         d="m30.918 232.48v-2.1167h0.52917v2.1167z" />
      <path
         style="fill:#a6aeb8;fill-opacity:1"
         id="path52"
         d="m30.918 235.13v-2.1167h0.52917v2.1167z" />
      <path
         style="fill:#a6aeb8;fill-opacity:1"
         id="path54"
         d="m30.918 237.77v-2.1167h0.52917v2.1167z" />
    </g>
  </g>
</svg>
