<svg width="29.633mm" height="34.396mm" version="1.1" viewBox="0 0 29.633 34.396" xmlns="http://www.w3.org/2000/svg">
 <g transform="translate(-1.8143 -204.96)">
  <path d="m1.8143 208.67v-2.1167h0.26458v2.1167z" fill="#7b8694"/>
  <rect transform="rotate(-90)" x="-239.36" y="2.0789" width="34.396" height="29.104" fill="#1d232d" style="paint-order:normal"/>
  <g fill="#7b8694">
   <path d="m1.8143 208.67v-2.1167h0.52917v2.1167z"/>
   <path d="m1.8143 211.31v-2.1167h0.52917v2.1167z"/>
   <path d="m1.8143 213.96v-2.1167h0.52917v2.1167z"/>
   <path d="m1.8143 216.6v-2.1167h0.52917v2.1167z"/>
   <path d="m1.8143 219.25v-2.1167h0.52917v2.1167z"/>
   <path d="m1.8143 221.9v-2.1167h0.52917v2.1167z"/>
   <path d="m1.8143 224.54v-2.1167h0.52917v2.1167z"/>
   <path d="m1.8143 227.19v-2.1167h0.52917v2.1167z"/>
   <path d="m1.8143 229.83v-2.1167h0.52917v2.1167z"/>
   <path d="m1.8143 232.48v-2.1167h0.52917v2.1167z"/>
   <path d="m1.8143 235.13v-2.1167h0.52917v2.1167z"/>
   <path d="m1.8143 237.77v-2.1167h0.52917v2.1167z"/>
   <path d="m30.918 208.67v-2.1167h0.26458v2.1167z"/>
   <path d="m30.918 208.67v-2.1167h0.52917v2.1167z"/>
   <path d="m30.918 211.31v-2.1167h0.52917v2.1167z"/>
   <path d="m30.918 213.96v-2.1167h0.52917v2.1167z"/>
   <path d="m30.918 216.6v-2.1167h0.52917v2.1167z"/>
   <path d="m30.918 219.25v-2.1167h0.52917v2.1167z"/>
   <path d="m30.918 221.9v-2.1167h0.52917v2.1167z"/>
   <path d="m30.918 224.54v-2.1167h0.52917v2.1167z"/>
   <path d="m30.918 227.19v-2.1167h0.52917v2.1167z"/>
   <path d="m30.918 229.83v-2.1167h0.52917v2.1167z"/>
   <path d="m30.918 232.48v-2.1167h0.52917v2.1167z"/>
   <path d="m30.918 235.13v-2.1167h0.52917v2.1167z"/>
   <path d="m30.918 237.77v-2.1167h0.52917v2.1167z"/>
  </g>
 </g>
</svg>
