<?xml version="1.0" encoding="UTF-8" standalone="no"?>
<svg
   xmlns:dc="http://purl.org/dc/elements/1.1/"
   xmlns:cc="http://creativecommons.org/ns#"
   xmlns:rdf="http://www.w3.org/1999/02/22-rdf-syntax-ns#"
   xmlns:svg="http://www.w3.org/2000/svg"
   xmlns="http://www.w3.org/2000/svg"
   xmlns:sodipodi="http://sodipodi.sourceforge.net/DTD/sodipodi-0.dtd"
   xmlns:inkscape="http://www.inkscape.org/namespaces/inkscape"
   inkscape:version="1.0rc1 (09960d6f05, 2020-04-09)"
   sodipodi:docname="ic_lecture02.svg"
   id="svg126"
   viewBox="0 0 172.94 80.715"
   version="1.1"
   height="305.06"
   width="653.63">
  <defs
     id="defs130" />
  <sodipodi:namedview
     inkscape:current-layer="g124"
     inkscape:window-maximized="1"
     inkscape:window-y="-8"
     inkscape:window-x="-8"
     inkscape:cy="206.74546"
     inkscape:cx="428.6484"
     inkscape:zoom="1.0212334"
     showgrid="false"
     id="namedview128"
     inkscape:window-height="1377"
     inkscape:window-width="2560"
     inkscape:pageshadow="2"
     inkscape:pageopacity="0"
     guidetolerance="10"
     gridtolerance="10"
     objecttolerance="10"
     borderopacity="1"
     bordercolor="#666666"
     pagecolor="#ffffff" />
  <metadata
     id="metadata2">
    <rdf:RDF>
      <cc:Work
         rdf:about="">
        <dc:format>image/svg+xml</dc:format>
        <dc:type
           rdf:resource="http://purl.org/dc/dcmitype/StillImage" />
        <dc:title></dc:title>
      </cc:Work>
    </rdf:RDF>
  </metadata>
  <g
     id="g124"
     stroke-width=".13769"
     transform="matrix(7.2627 0 0 7.2627 -682.16 -695.34)">
    <rect
       id="rect4"
       style="paint-order:normal"
       fill="#1d232d"
       height="9.7115"
       width="23.308"
       y="96.454"
       x="94.208" />
    <g
       id="g62"
       fill="#7b8694">
      <path
         id="path6"
         d="m94.596 96.26h1.1654v0.19408h-1.1654z" />
      <path
         id="path8"
         d="m96.538 96.26h1.1654v0.19408h-1.1654z" />
      <path
         id="path10"
         d="m98.481 96.26h1.1654v0.19408h-1.1654z" />
      <path
         id="path12"
         d="m100.42 96.26h1.1654v0.19408h-1.1654z" />
      <path
         id="path14"
         d="m102.37 96.26h1.1654v0.19408h-1.1654z" />
      <path
         id="path16"
         d="m104.31 96.26h1.1654v0.19408h-1.1654z" />
      <path
         id="path18"
         d="m106.25 96.26h1.1654v0.19408h-1.1654z" />
      <path
         id="path20"
         d="m108.19 96.26h1.1654v0.19408h-1.1654z" />
      <path
         id="path22"
         d="m110.13 96.26h1.1654v0.19408h-1.1654z" />
      <path
         id="path24"
         d="m112.08 96.26h1.1654v0.19408h-1.1654z" />
      <path
         id="path26"
         d="m114.02 96.26h1.1654v0.19408h-1.1654z" />
      <path
         id="path28"
         d="m115.96 96.26h1.1654v0.19408h-1.1654z" />
      <path
         id="path30"
         d="m115.96 106.17h1.1654v0.19405h-1.1654z" />
      <path
         id="path32"
         d="m114.02 106.17h1.1654v0.19405h-1.1654z" />
      <path
         id="path34"
         d="m112.08 106.17h1.1654v0.19405h-1.1654z" />
      <path
         id="path36"
         d="m110.13 106.17h1.1654v0.19405h-1.1654z" />
      <path
         id="path38"
         d="m108.19 106.17h1.1654v0.19405h-1.1654z" />
      <path
         id="path40"
         d="m106.25 106.17h1.1654v0.19405h-1.1654z" />
      <path
         id="path42"
         d="m104.31 106.17h1.1654v0.19405h-1.1654z" />
      <path
         id="path44"
         d="m102.37 106.17h1.1654v0.19405h-1.1654z" />
      <path
         id="path46"
         d="m100.42 106.17h1.1654v0.19405h-1.1654z" />
      <path
         id="path48"
         d="m98.481 106.17h1.1654v0.19405h-1.1654z" />
      <path
         id="path50"
         d="m96.538 106.17h1.1654v0.19405h-1.1654z" />
      <path
         id="path52"
         d="m94.596 106.17h1.1654v0.19405h-1.1654z" />
    </g>
  </g>
  <path
     id="path5"
     stroke-width="0.896503"
     stroke-linejoin="bevel"
     stroke-linecap="round"
     stroke="#ebebeb"
     fill="none"
     d="M 115.75264,39.225493 A 28.52943,28.52943 0 0 1 87.2232,67.754877 28.52943,28.52943 0 0 1 58.693823,39.225493 28.52943,28.52943 0 0 1 87.2232,10.696216 28.52943,28.52943 0 0 1 115.75264,39.225493 Z"
     inkscape:connector-curvature="0"
     style="stroke:#ffffff;stroke-opacity:1" />
  <path
     id="path7"
     stroke-width="0.896503"
     stroke-linejoin="bevel"
     stroke-linecap="round"
     stroke="#bdbdbd"
     fill="none"
     d="M 114.91352,39.225493 A 27.688059,27.688059 0 0 1 87.22549,66.913466 27.688059,27.688059 0 0 1 59.537374,39.225493 27.688059,27.688059 0 0 1 87.22549,11.537584 27.688059,27.688059 0 0 1 114.91352,39.225493 Z"
     inkscape:connector-curvature="0"
     style="stroke:#e8eaec;stroke-opacity:1" />
  <path
     id="path9"
     stroke-width="0.896503"
     stroke-linejoin="bevel"
     stroke-linecap="round"
     stroke="#979797"
     fill="none"
     d="M 114.10771,39.225493 A 26.884476,26.884476 0 0 1 87.2232,66.109941 26.884476,26.884476 0 0 1 60.338766,39.225493 26.884476,26.884476 0 0 1 87.2232,12.341173 a 26.884476,26.884476 0 0 1 26.88451,26.88432 z"
     inkscape:connector-curvature="0"
     style="stroke:#a6aeb8;stroke-opacity:1" />
  <path
     id="path11"
     stroke-width="0.0379979"
     stroke="#ffffff"
     d="m 81.323636,34.378491 c 0,0 -3.061386,-3.838659 -5.003375,-5.297553 -2.442048,-1.834623 -4.343369,-1.82806 -8.150292,-4.188358 -1.293461,-0.80182 2.988418,-5.320281 2.988418,-5.320281 0,0 1.245167,2.603557 4.912843,4.822284 3.667606,2.218626 5.772874,9.440621 5.772874,9.440621 z"
     inkscape:connector-curvature="0"
     style="fill:#e8eaec;fill-opacity:1;stroke:#7b8694;stroke-width:0.271077;stroke-miterlimit:4;stroke-dasharray:none;stroke-opacity:1" />
  <path
     id="path13"
     stroke-width="0.0379979"
     stroke="#ffffff"
     d="m 82.779035,33.015336 c 0,0 -1.963525,-4.500092 -3.461725,-6.411971 -1.883987,-2.404169 -3.722248,-2.889961 -6.78877,-6.155193 -1.041798,-1.109353 4.263609,-4.365633 4.263609,-4.365633 0,0 0.528593,2.837115 3.497329,5.929675 2.968436,3.092309 3.132935,10.613198 3.132935,10.613198 z"
     inkscape:connector-curvature="0"
     style="fill:#e8eaec;fill-opacity:1;stroke:#7b8694;stroke-width:0.271077;stroke-miterlimit:4;stroke-dasharray:none;stroke-opacity:1" />
  <path
     id="path15"
     stroke-width="0.0379979"
     stroke="#ffffff"
     d="m 84.538471,32.075055 c 0,0 -0.731841,-4.85492 -1.684178,-7.089454 -1.197515,-2.809887 -2.847452,-3.754877 -4.964133,-7.702329 -0.719143,-1.341199 5.248197,-3.113304 5.248197,-3.113304 0,0 -0.223279,2.877327 1.843468,6.632603 2.06689,3.755226 0.279633,11.062323 0.279633,11.062323 z"
     inkscape:connector-curvature="0"
     style="fill:#e8eaec;fill-opacity:1;stroke:#7b8694;stroke-width:0.271077;stroke-miterlimit:4;stroke-dasharray:none;stroke-opacity:1" />
  <path
     id="path17"
     stroke-width="0.0379979"
     stroke="#ffffff"
     d="m 86.48245,31.622141 c 0,0 0.54928,-4.879102 0.208299,-7.283842 -0.429437,-3.024248 -1.778554,-4.364013 -2.801441,-8.725002 -0.347402,-1.481622 5.875103,-1.648895 5.875103,-1.648895 0,0 -0.960469,2.721432 0.0642,6.883824 1.024528,4.162199 -2.593428,10.757715 -2.593428,10.757715 z"
     inkscape:connector-curvature="0"
     style="fill:#e8eaec;fill-opacity:1;stroke:#7b8694;stroke-width:0.271077;stroke-miterlimit:4;stroke-dasharray:none;stroke-opacity:1" />
  <path
     id="path19"
     stroke-width="0.0379979"
     stroke="#ffffff"
     d="m 88.471942,31.687698 c 0,0 1.793747,-4.5705 2.086292,-6.981588 0.368089,-3.032174 -0.588514,-4.675612 -0.447984,-9.152235 0.04993,-1.521127 6.101949,-0.07205 6.101949,-0.07205 0,0 -1.632167,2.380129 -1.719837,6.66593 -0.08774,4.285545 -5.289358,9.720212 -5.289358,9.720212 z"
     inkscape:connector-curvature="0"
     style="fill:#e8eaec;fill-opacity:1;stroke:#7b8694;stroke-width:0.271077;stroke-miterlimit:4;stroke-dasharray:none;stroke-opacity:1" />
  <path
     id="path21"
     stroke-width="0.0379979"
     stroke="#ffffff"
     d="m 90.383678,32.266803 c 0,0 2.915505,-3.95052 3.822188,-6.204165 1.140091,-2.833606 0.642015,-4.66855 1.936133,-8.956634 0.440137,-1.456897 5.912401,1.509542 5.912401,1.509542 0,0 -2.192577,1.876639 -3.386392,5.993548 -1.193806,4.117016 -7.624617,8.01967 -7.624617,8.01967 z"
     inkscape:connector-curvature="0"
     style="fill:#e8eaec;fill-opacity:1;stroke:#7b8694;stroke-width:0.271077;stroke-miterlimit:4;stroke-dasharray:none;stroke-opacity:1" />
  <path
     id="path23"
     stroke-width="0.0379979"
     stroke="#ffffff"
     d="m 92.078627,33.319872 c 0,0 3.838666,-3.0614 5.297632,-5.003161 1.834765,-2.442262 1.828203,-4.343512 4.188351,-8.150463 0.80189,-1.293396 5.32032,2.988518 5.32032,2.988518 0,0 -2.60356,1.245095 -4.82225,4.912843 -2.218697,3.667527 -9.440687,5.772731 -9.440687,5.772731 z"
     inkscape:connector-curvature="0"
     style="fill:#e8eaec;fill-opacity:1;stroke:#7b8694;stroke-width:0.271077;stroke-miterlimit:4;stroke-dasharray:none;stroke-opacity:1" />
  <path
     id="path25"
     stroke-width="0.0379979"
     stroke="#ffffff"
     d="m 93.440148,34.775913 c 0,0 4.500235,-1.963604 6.412045,-3.461725 2.404237,-1.883923 2.889957,-3.722176 6.155227,-6.788848 1.10935,-1.041713 4.36556,4.263688 4.36556,4.263688 0,0 -2.83711,0.528592 -5.9296,3.497257 -3.09235,2.968436 -10.613314,3.132935 -10.613314,3.132935 z"
     inkscape:connector-curvature="0"
     style="fill:#e8eaec;fill-opacity:1;stroke:#7b8694;stroke-width:0.271077;stroke-miterlimit:4;stroke-dasharray:none;stroke-opacity:1" />
  <path
     id="path27"
     stroke-width="0.0379979"
     stroke="#ffffff"
     d="m 94.379353,36.534693 c 0,0 4.855069,-0.731826 7.089377,-1.684163 2.81,-1.197459 3.75499,-2.847388 7.70245,-4.963991 1.34118,-0.719286 3.11332,5.248054 3.11332,5.248054 0,0 -2.87734,-0.223279 -6.63269,1.843383 -3.75521,2.066904 -11.062297,0.279633 -11.062297,0.279633 z"
     inkscape:connector-curvature="0"
     style="fill:#e8eaec;fill-opacity:1;stroke:#7b8694;stroke-width:0.271077;stroke-miterlimit:4;stroke-dasharray:none;stroke-opacity:1" />
  <path
     id="path29"
     stroke-width="0.0379979"
     stroke="#ffffff"
     d="m 94.835048,38.477545 c 0,0 4.879038,0.54928 7.283912,0.208298 3.02415,-0.429436 4.36399,-1.77856 8.72498,-2.801512 1.48158,-0.347401 1.64886,5.875025 1.64886,5.875025 0,0 -2.72147,-0.960462 -6.88379,0.0642 -4.16225,1.024542 -10.757769,-2.593343 -10.757769,-2.593343 z"
     inkscape:connector-curvature="0"
     style="fill:#e8eaec;fill-opacity:1;stroke:#7b8694;stroke-width:0.271077;stroke-miterlimit:4;stroke-dasharray:none;stroke-opacity:1" />
  <path
     id="path31"
     stroke-width="0.0379979"
     stroke="#ffffff"
     d="m 94.76835,40.470881 c 0,0 4.570578,1.793684 6.98159,2.086229 3.03221,0.368089 4.67565,-0.588514 9.15235,-0.447984 1.52103,0.04994 0.072,6.101871 0.072,6.101871 0,0 -2.38013,-1.632175 -6.666,-1.719767 -4.28559,-0.08774 -9.720182,-5.289293 -9.720182,-5.289293 z"
     inkscape:connector-curvature="0"
     style="fill:#e8eaec;fill-opacity:1;stroke:#7b8694;stroke-width:0.271077;stroke-miterlimit:4;stroke-dasharray:none;stroke-opacity:1" />
  <path
     id="path33"
     stroke-width="0.0379979"
     stroke="#ffffff"
     d="m 94.190386,42.379201 c 0,0 3.950663,2.915505 6.204164,3.822188 2.83369,1.140155 4.66852,0.642015 8.95668,1.936133 1.4569,0.440137 -1.50961,5.912397 -1.50961,5.912397 0,0 -1.87657,-2.192504 -5.99352,-3.386388 -4.116871,-1.193806 -8.019675,-7.624546 -8.019675,-7.624546 z"
     inkscape:connector-curvature="0"
     style="fill:#e8eaec;fill-opacity:1;stroke:#7b8694;stroke-width:0.271077;stroke-miterlimit:4;stroke-dasharray:none;stroke-opacity:1" />
  <path
     id="path35"
     stroke-width="0.0379979"
     stroke="#ffffff"
     d="m 93.134471,44.073065 c 0,0 3.061457,3.838681 5.003368,5.297647 2.442111,1.834758 4.343441,1.828188 8.150291,4.188272 1.29346,0.801899 -2.98842,5.320331 -2.98842,5.320331 0,0 -1.24517,-2.603557 -4.912762,-4.822177 -3.667605,-2.218698 -5.772945,-9.440692 -5.772945,-9.440692 z"
     inkscape:connector-curvature="0"
     style="fill:#e8eaec;fill-opacity:1;stroke:#7b8694;stroke-width:0.271077;stroke-miterlimit:4;stroke-dasharray:none;stroke-opacity:1" />
  <path
     id="path37"
     stroke-width="0.0379979"
     stroke="#ffffff"
     d="m 91.678501,45.436228 c 0,0 1.963597,4.500242 3.461725,6.412056 1.883987,2.404241 3.72232,2.889968 6.788764,6.155237 1.04187,1.109345 -4.263539,4.365554 -4.263539,4.365554 0,0 -0.529306,-2.837109 -3.497321,-5.929596 -2.968437,-3.09236 -3.133007,-10.613327 -3.133007,-10.613327 z"
     inkscape:connector-curvature="0"
     style="fill:#e8eaec;fill-opacity:1;stroke:#7b8694;stroke-width:0.271077;stroke-miterlimit:4;stroke-dasharray:none;stroke-opacity:1" />
  <path
     id="path39"
     stroke-width="0.0379979"
     stroke="#ffffff"
     d="m 89.922418,46.376588 c 0,0 0.731912,4.855055 1.684178,7.089375 1.197515,2.809937 2.847452,3.754927 4.964133,7.702379 0.719286,1.341192 -5.248197,3.113325 -5.248197,3.113325 0,0 0.223279,-2.877349 -1.843468,-6.632624 C 87.412174,53.893838 89.19943,46.586748 89.19943,46.586748 Z"
     inkscape:connector-curvature="0"
     style="fill:#e8eaec;fill-opacity:1;stroke:#7b8694;stroke-width:0.271077;stroke-miterlimit:4;stroke-dasharray:none;stroke-opacity:1" />
  <path
     id="path41"
     stroke-width="0.0379979"
     stroke="#ffffff"
     d="m 87.977369,46.829501 c 0,0 -0.54928,4.879038 -0.208299,7.28392 0.429437,3.024078 1.778554,4.363907 2.801584,8.724903 0.347402,1.48165 -5.875175,1.648931 -5.875175,1.648931 0,0 0.960548,-2.721468 -0.0642,-6.883867 -1.024536,-4.162178 2.593413,-10.757765 2.593413,-10.757765 z"
     inkscape:connector-curvature="0"
     style="fill:#e8eaec;fill-opacity:1;stroke:#7b8694;stroke-width:0.271077;stroke-miterlimit:4;stroke-dasharray:none;stroke-opacity:1" />
  <path
     id="path43"
     stroke-width="0.0379979"
     stroke="#ffffff"
     d="m 85.982313,46.763944 c 0,0 -1.793676,4.570578 -2.0863,6.981596 -0.368089,3.032209 0.588514,4.675583 0.447984,9.152277 -0.04993,1.521027 -6.10187,0.07205 -6.10187,0.07205 0,0 1.632167,-2.380137 1.719766,-6.666002 0.08774,-4.285588 5.289357,-9.720198 5.289357,-9.720198 z"
     inkscape:connector-curvature="0"
     style="fill:#e8eaec;fill-opacity:1;stroke:#7b8694;stroke-width:0.271077;stroke-miterlimit:4;stroke-dasharray:none;stroke-opacity:1" />
  <path
     id="path45"
     stroke-width="0.0379979"
     stroke="#ffffff"
     d="m 84.07557,46.184839 c 0,0 -2.915505,3.950584 -3.822188,6.204172 -1.140098,2.833684 -0.641302,4.668521 -1.936132,8.956606 -0.440138,1.456897 -5.912412,-1.509542 -5.912412,-1.509542 0,0 2.192589,-1.876568 3.386395,-5.99352 1.193813,-4.116887 7.624617,-8.019748 7.624617,-8.019748 z"
     inkscape:connector-curvature="0"
     style="fill:#e8eaec;fill-opacity:1;stroke:#7b8694;stroke-width:0.271077;stroke-miterlimit:4;stroke-dasharray:none;stroke-opacity:1" />
  <path
     id="path47"
     stroke-width="0.0379979"
     stroke="#ffffff"
     d="m 82.382262,45.131699 c 0,0 -3.838666,3.061457 -5.297632,5.003368 -1.834765,2.442055 -1.828203,4.343376 -4.188287,8.150291 -0.801955,1.293476 -5.320316,-2.988403 -5.320316,-2.988403 0,0 2.603486,-1.245174 4.822177,-4.912772 2.218698,-3.667684 9.440764,-5.772945 9.440764,-5.772945 z"
     inkscape:connector-curvature="0"
     style="fill:#e8eaec;fill-opacity:1;stroke:#7b8694;stroke-width:0.271077;stroke-miterlimit:4;stroke-dasharray:none;stroke-opacity:1" />
  <path
     id="path49"
     stroke-width="0.0379979"
     stroke="#ffffff"
     d="m 81.018529,43.675736 c 0,0 -4.500235,1.963526 -6.411971,3.461725 -2.404312,1.88398 -2.890039,3.722248 -6.155307,6.788763 -1.109346,1.041798 -4.365555,-4.263617 -4.365555,-4.263617 0,0 2.837109,-0.528592 5.929597,-3.497242 3.092352,-2.968437 10.613319,-3.133021 10.613319,-3.133021 z"
     inkscape:connector-curvature="0"
     style="fill:#e8eaec;fill-opacity:1;stroke:#7b8694;stroke-width:0.271077;stroke-miterlimit:4;stroke-dasharray:none;stroke-opacity:1" />
  <path
     id="path51"
     stroke-width="0.0379979"
     stroke="#ffffff"
     d="m 80.078248,41.916864 c 0,0 -4.855063,0.731833 -7.089454,1.684177 -2.809923,1.197516 -3.754913,2.847445 -7.702372,4.964141 -1.341192,0.719207 -3.113318,-5.248204 -3.113318,-5.248204 0,0 2.877342,0.223279 6.632617,-1.843461 3.755205,-2.066826 11.062302,-0.27892 11.062302,-0.27892 z"
     inkscape:connector-curvature="0"
     style="fill:#e8eaec;fill-opacity:1;stroke:#7b8694;stroke-width:0.271077;stroke-miterlimit:4;stroke-dasharray:none;stroke-opacity:1" />
  <path
     id="path53"
     stroke-width="0.0379979"
     stroke="#ffffff"
     d="m 79.625841,39.974668 c 0,0 -4.879038,-0.54928 -7.283921,-0.208299 -3.024149,0.429437 -4.363985,1.778476 -8.724902,2.801363 -1.48165,0.347402 -1.648938,-5.875104 -1.648938,-5.875104 0,0 2.721474,0.960548 6.883795,-0.0642 4.16225,-1.02445 10.757837,2.593428 10.757837,2.593428 z"
     inkscape:connector-curvature="0"
     style="fill:#e8eaec;fill-opacity:1;stroke:#7b8694;stroke-width:0.271077;stroke-miterlimit:4;stroke-dasharray:none;stroke-opacity:1" />
  <path
     id="path55"
     stroke-width="0.0379979"
     stroke="#ffffff"
     d="m 79.690898,37.98069 c 0,0 -4.570578,-1.793684 -6.981666,-2.086229 -3.03221,-0.368089 -4.675584,0.588514 -9.152278,0.447984 -1.521034,-0.04993 -0.07205,-6.101806 -0.07205,-6.101806 0,0 2.380129,1.632109 6.665931,1.719702 4.285587,0.08774 9.720254,5.289364 9.720254,5.289364 z"
     inkscape:connector-curvature="0"
     style="fill:#e8eaec;fill-opacity:1;stroke:#7b8694;stroke-width:0.271077;stroke-miterlimit:4;stroke-dasharray:none;stroke-opacity:1" />
  <path
     id="path57"
     stroke-width="0.0379979"
     stroke="#ffffff"
     d="m 80.269932,36.07237 c 0,0 -3.950591,-2.915512 -6.204101,-3.822195 -2.833755,-1.140091 -4.668664,-0.642015 -8.956677,-1.936118 -1.456897,-0.440138 1.509542,-5.912412 1.509542,-5.912412 0,0 1.876568,2.192589 5.99352,3.386538 4.116945,1.193742 8.019748,7.624474 8.019748,7.624474 z"
     inkscape:connector-curvature="0"
     style="fill:#e8eaec;fill-opacity:1;stroke:#7b8694;stroke-width:0.271077;stroke-miterlimit:4;stroke-dasharray:none;stroke-opacity:1" />
  <path
     style="fill:#e8eaec;fill-opacity:1;stroke:#ffffff;stroke-opacity:1"
     inkscape:connector-curvature="0"
     d="M 94.072398,39.225571 A 6.8491506,6.8491506 0 0 1 87.2232,46.074698 6.8491506,6.8491506 0 0 1 80.374081,39.225571 6.8491506,6.8491506 0 0 1 87.2232,32.376452 6.8491506,6.8491506 0 0 1 94.072398,39.225571 Z"
     fill="none"
     stroke="#ebebeb"
     stroke-linecap="round"
     stroke-linejoin="bevel"
     stroke-width="0.215226"
     id="path864" />
</svg>
