<?xml version="1.0" encoding="UTF-8"?>
<svg width="653.63" height="305.06" version="1.1" viewBox="0 0 172.94 80.715" xmlns="http://www.w3.org/2000/svg" xmlns:cc="http://creativecommons.org/ns#" xmlns:dc="http://purl.org/dc/elements/1.1/" xmlns:rdf="http://www.w3.org/1999/02/22-rdf-syntax-ns#">
 <metadata>
  <rdf:RDF>
   <cc:Work rdf:about="">
    <dc:format>image/svg+xml</dc:format>
    <dc:type rdf:resource="http://purl.org/dc/dcmitype/StillImage"/>
    <dc:title/>
   </cc:Work>
  </rdf:RDF>
 </metadata>
 <rect x="2.0444" y="5.1765" width="169.28" height="70.532" fill="#1d232d" style="paint-order:normal"/>
 <g transform="matrix(7.2627,0,0,7.2627,-682.16,-695.34)" fill="#7b8694" stroke-width=".13769">
  <path d="m94.596 96.26h1.1654v0.19408h-1.1654z"/>
  <path d="m96.538 96.26h1.1654v0.19408h-1.1654z"/>
  <path d="m98.481 96.26h1.1654v0.19408h-1.1654z"/>
  <path d="m100.42 96.26h1.1654v0.19408h-1.1654z"/>
  <path d="m102.37 96.26h1.1654v0.19408h-1.1654z"/>
  <path d="m104.31 96.26h1.1654v0.19408h-1.1654z"/>
  <path d="m106.25 96.26h1.1654v0.19408h-1.1654z"/>
  <path d="m108.19 96.26h1.1654v0.19408h-1.1654z"/>
  <path d="m110.13 96.26h1.1654v0.19408h-1.1654z"/>
  <path d="m112.08 96.26h1.1654v0.19408h-1.1654z"/>
  <path d="m114.02 96.26h1.1654v0.19408h-1.1654z"/>
  <path d="m115.96 96.26h1.1654v0.19408h-1.1654z"/>
  <path d="m115.96 106.17h1.1654v0.19405h-1.1654z"/>
  <path d="m114.02 106.17h1.1654v0.19405h-1.1654z"/>
  <path d="m112.08 106.17h1.1654v0.19405h-1.1654z"/>
  <path d="m110.13 106.17h1.1654v0.19405h-1.1654z"/>
  <path d="m108.19 106.17h1.1654v0.19405h-1.1654z"/>
  <path d="m106.25 106.17h1.1654v0.19405h-1.1654z"/>
  <path d="m104.31 106.17h1.1654v0.19405h-1.1654z"/>
  <path d="m102.37 106.17h1.1654v0.19405h-1.1654z"/>
  <path d="m100.42 106.17h1.1654v0.19405h-1.1654z"/>
  <path d="m98.481 106.17h1.1654v0.19405h-1.1654z"/>
  <path d="m96.538 106.17h1.1654v0.19405h-1.1654z"/>
  <path d="m94.596 106.17h1.1654v0.19405h-1.1654z"/>
 </g>
 <path d="m86.06 57.734c-1.5364-0.34853-2.842-1.6251-3.1718-3.1014-0.11221-0.50264-0.1103-1.4713 4e-3 -1.9488 0.22801-0.94982 0.96458-1.9962 1.7717-2.5158 1.293-0.83229 3.1199-0.86354 4.3748-0.0748 0.21276 0.13376 0.51514 0.36682 0.67176 0.51788l0.2853 0.27471 3.2606-1.8851c3.1745-1.8353 3.2593-1.8904 3.2065-2.087-0.14447-0.53776-0.15606-1.6893-0.0244-2.2514 0.0305-0.10761-0.15974-0.22849-1.4112-0.92091l-0.58587-0.32427-0.44929 0.54764c-1.1656 1.4214-2.9508 2.544-4.7996 3.0184-3.4019 0.87281-7.0779-0.32268-9.3672-3.0463-0.24201-0.28818-0.46697-0.52392-0.49928-0.52392-0.0305 0-0.45479 0.22685-0.93878 0.50404-0.48406 0.27727-0.9111 0.51478-0.94945 0.52788-0.0365 0.01336-0.0305 0.29769 0.0305 0.66001 0.0975 0.60256 0.0427 1.4646-0.11699 1.8849-0.0305 0.0842 0.56148 0.46466 2.26 1.4476 1.267 0.73334 2.3621 1.3787 2.4336 1.434 0.11822 0.09168 0.0938 0.16259-0.27922 0.79919-0.22494 0.3842-0.45051 0.68931-0.50111 0.67795-0.0488-0.01159-1.1502-0.63357-2.4434-1.3827l-2.3514-1.3621-0.43223 0.3531c-0.73979 0.60446-1.4442 0.88296-2.4021 0.94975-1.9343 0.1348-3.687-1.1013-4.2471-2.9953-0.16278-0.55173-0.16399-1.7065-1e-3 -2.2617 0.39626-1.3545 1.5437-2.5281 2.7983-2.8628l0.3292-0.08797-0.0488-7.2341-0.31395-0.09291c-1.2328-0.36511-2.3588-1.4897-2.7439-2.7406-0.20849-0.6768-0.20909-1.7608-1e-3 -2.4344 0.32128-1.0427 1.0684-1.9605 2.0032-2.4603 1.4501-0.77539 3.2896-0.60293 4.5549 0.42693 0.31031 0.2527 0.33713 0.26026 0.54197 0.15308 0.11821-0.06195 1.6081-0.92077 3.3103-1.9085 2.7112-1.573 3.0924-1.8171 3.073-1.967-0.2475-1.9137 0.0488-3.0064 1.0983-4.0585 1.3975-1.4 3.375-1.641 5.1076-0.6224 0.86496 0.5085 1.646 1.6244 1.866 2.6659 0.13655 0.64715 0.13899 1.083 0.0123 1.6981l-0.0994 0.47497 6.6181 3.8334 0.40968-0.30647c1.3568-1.0163 2.9782-1.1578 4.4905-0.39194 0.57855 0.29299 1.4008 1.0996 1.7055 1.6729 0.25909 0.48814 0.52001 1.4735 0.51818 1.9588-0.0123 2.2022-1.7135 4.0246-3.9042 4.173-1.0837 0.07334-2.2692-0.34097-3.0451-1.0643l-0.33469-0.31208-0.92397 0.5166c-0.50844 0.28416-0.93835 0.53995-0.9559 0.56836-0.0183 0.02865 0.0683 0.33494 0.1902 0.68111 0.72852 2.0652 0.70023 4.2523-0.0824 6.3377-0.12558 0.33476-0.21032 0.63727-0.18898 0.67219 0.0244 0.03536 0.45967 0.29409 0.97328 0.57592l0.93414 0.5124 0.39566-0.34719c0.44016-0.38633 1.086-0.7535 1.5852-0.90133l0.32921-0.09736v-5.797h1.711v5.7971l0.32921 0.09876c1.0344 0.31055 2.0699 1.1727 2.5214 2.0993 0.26154 0.53672 0.47431 1.3899 0.47431 1.9018 0 0.51361-0.21337 1.3678-0.46637 1.871-0.99571 1.9759-3.3819 2.8085-5.431 1.895-0.2024-0.0901-0.59378-0.33756-0.86945-0.5497l-0.50174-0.38578-6.4709 3.7495 0.0994 0.47473c0.12803 0.61482 0.12558 1.0508-0.0123 1.6979-0.22008 1.0415-1.001 2.1574-1.866 2.6658-0.93444 0.54934-2.0921 0.75248-3.0501 0.53514zm1.7194-1.7912c0.49502-0.1643 1.0864-0.71484 1.3515-1.2584 0.18047-0.36993 0.21521-0.53752 0.20973-1.0248-0.0123-0.99357-0.49807-1.7646-1.3849-2.1859-0.38346-0.18216-0.56696-0.22075-1.0516-0.22075-0.49991-4.7e-5 -0.65756 0.03536-1.0591 0.23648-0.50844 0.25465-0.84264 0.58494-1.1191 1.1046-0.25117 0.47198-0.25361 1.6541-4e-3 2.1221 0.25177 0.47247 0.5377 0.78364 0.93476 1.0171 0.70906 0.41686 1.3174 0.47692 2.123 0.20959zm-13.336-7.9836c0.86178-0.43815 1.3566-1.2336 1.3587-2.1846 4e-3 -2.1577-2.5907-3.2463-4.1196-1.7279-0.47063 0.46735-0.66455 0.92051-0.69857 1.6318-0.0244 0.5171-1e-3 0.65664 0.1774 1.0479 0.31823 0.69721 0.82722 1.1587 1.5378 1.3925 0.47613 0.15686 1.2634 0.08474 1.7445-0.15979zm27.08 0.0013c0.51028-0.25952 0.91581-0.68163 1.1613-1.2095 0.58831-1.2653-0.11699-2.8519-1.4671-3.3019-0.51332-0.17094-1.3106-0.12296-1.785 0.10742-0.44259 0.2149-0.94243 0.71611-1.1638 1.1669-0.25666 0.52191-0.2536 1.6057 4e-3 2.1052 0.63452 1.2256 2.0772 1.728 3.25 1.1318zm-13.964-2.7948c0.39626-0.40901 0.79386-1.2014 1.1234-2.2386 0.13226-0.41675 0.2408-0.76905 0.2408-0.78286 0-0.01336-0.88794-0.02378-1.9731-0.02195-2.2716 0.0038-2.0881-0.08682-1.7733 0.87447 0.50539 1.5428 1.19 2.5122 1.7744 2.5122 0.22374 0 0.33774-0.06407 0.60782-0.34329zm-3.5108-0.22508c0-0.01336-0.13595-0.38914-0.30177-0.83442-0.16583-0.44522-0.37737-1.1428-0.47003-1.5501l-0.16826-0.74057-0.83405-0.20453c-0.45905-0.11254-1.1603-0.32744-1.559-0.47772-0.3987-0.15022-0.73571-0.26233-0.74895-0.2491-0.0548 0.05304 0.54259 1.1002 0.90147 1.5864 0.67964 0.91968 1.4737 1.6055 2.5616 2.2125 0.46211 0.25788 0.61902 0.32317 0.61902 0.25745zm6.2122-0.17832c1.452-0.73108 2.685-1.9698 3.4175-3.4333 0.11467-0.22843 0.19508-0.42827 0.17923-0.44406-0.0183-0.01586-0.28776 0.07749-0.60476 0.2074-0.31701 0.12992-1.009 0.34823-1.5382 0.48502l-0.96195 0.24879-0.2152 0.86918c-0.17618 0.71031-0.45052 1.5209-0.73595 2.1731-0.061 0.13815 4e-3 0.12308 0.46027-0.10626zm-12.303-2.5734c0.36214-0.19954 0.51393-0.32555 0.48772-0.40584-0.0244-0.06402-0.14144-0.41828-0.27007-0.78724-0.65328-1.8833-0.6723-3.9966-0.0548-5.9017 0.10185-0.31269 0.17192-0.59013 0.15545-0.61653-0.0183-0.02622-0.45662-0.28294-0.97882-0.57001-0.59075-0.32488-0.98298-0.49728-1.0388-0.45668-0.59563 0.43346-1.1574 0.75386-1.5545 0.88647l-0.48465 0.16174v7.1816l0.32858 0.09876c0.54258 0.1629 1.1672 0.51362 1.572 0.88272l0.38164 0.34798 0.46453-0.26599c0.25544-0.14625 0.70047-0.39621 0.98927-0.55538zm10.787-1.8506 0.47856-0.04145 0.061-0.44071c0.078-0.56988 0.078-3.1826 7e-5 -3.752l-0.0609-0.43931-0.46149-0.05366c-0.61507-0.07163-2.9087-0.0731-3.6042-0.0023l-0.55477 0.0567-0.0548 0.657c-0.0622 0.74467-0.0123 3.8772 0.0609 3.9516 0.13839 0.13863 2.8 0.18009 4.1369 0.06444zm-5.8902-0.47216c-0.0664-0.17326-0.0646-3.6046 1e-3 -3.7783 0.0622-0.16338-0.0616-0.14101-1.0852 0.19594-0.86732 0.28544-1.6295 0.68404-2.002 1.047-0.47978 0.46723-0.47856 0.82882 4e-3 1.3042 0.36029 0.35499 1.4667 0.90363 2.3416 1.1609 0.79618 0.23416 0.80307 0.23477 0.74003 0.07011zm9.2417-0.19454c0.74285-0.23861 1.6493-0.71626 2.0068-1.0575 0.27311-0.26032 0.31457-0.34451 0.31457-0.63463 0-0.29019-0.0427-0.37432-0.31457-0.63463-0.48405-0.46204-1.6106-0.98443-2.781-1.2898l-0.27129-0.07071v3.9903l0.27129-0.07071c0.14937-0.03901 0.49747-0.14345 0.77418-0.23227zm-11.065-4.9529c0.44686-0.15997 1.0964-0.35189 1.4435-0.42644l0.6311-0.13564 0.17009-0.74715c0.0933-0.41096 0.30543-1.1112 0.47124-1.556 0.16583-0.44486 0.28714-0.82279 0.27007-0.83987-0.0427-0.04633-0.63293 0.26501-1.2439 0.65984-1.1098 0.71725-2.3484 2.1744-2.745 3.2294-0.0745 0.19874-0.0689 0.21618 0.0548 0.1646 0.075-0.0317 0.50235-0.18862 0.94933-0.34859zm12.845 0.34725c0-0.02317-0.0908-0.22362-0.2024-0.44638-0.72876-1.4566-1.9636-2.6935-3.4224-3.4283-0.22741-0.11467-0.42736-0.19515-0.44382-0.17887-0.0183 0.01646 0.0768 0.2836 0.20666 0.59402 0.12981 0.31043 0.34994 1.0059 0.48832 1.5456l0.253 0.98123 0.96061 0.24886c0.52855 0.13692 1.2044 0.35225 1.5024 0.47862 0.57794 0.2452 0.65768 0.27001 0.65768 0.20502zm-4.9522-1.2518c0-0.01336-0.10785-0.36548-0.24081-0.78222-0.50051-1.5761-1.1677-2.5819-1.7124-2.5819-0.68309 0-1.3766 1.056-1.9154 2.9168l-0.13656 0.47174h2.0026c1.1014 0 2.0025-0.01091 2.0025-0.02438zm-9.438-1.359c0.19081-0.26337 0.61536-0.74744 0.94408-1.0757 2.2707-2.2672 5.668-3.1988 8.7663-2.4038 1.9 0.48747 3.7039 1.643 4.8677 3.1178 0.25909 0.32756 0.49929 0.59823 0.53587 0.60159 0.0488 0.0048 1.8102-0.95957 1.8867-1.0345 0.0123-0.0098-0.0183-0.1376-0.0609-0.28416-0.11822-0.40438-0.0963-1.6087 0.0305-2.0511 0.092-0.30482 0.0969-0.40608 0.0244-0.47534-0.0792-0.07347-5.7454-3.3706-6.313-3.6732-0.16521-0.08815-0.2091-0.07163-0.46454 0.17405-0.74864 0.72198-1.6626 1.0739-2.7963 1.0768-1.0883 0.0027-1.9231-0.31183-2.7386-1.032l-0.35481-0.31354-2.8444 1.646c-1.5644 0.90528-3.0426 1.7651-3.2848 1.9106l-0.44015 0.26465 0.12381 0.32701c0.16643 0.43852 0.16766 1.8175 3e-3 2.324l-0.11945 0.36694 0.90105 0.50454c0.49563 0.27751 0.91933 0.50532 0.94164 0.5063 0.0244 0.0012 0.19631-0.21374 0.38713-0.47704zm-5.098 0.14985c0.8805-0.4098 1.413-1.2375 1.4152-2.1997 7.4e-4 -0.46484-0.0366-0.62851-0.25118-1.0641-0.45722-0.93199-1.2706-1.4138-2.2966-1.3608-1.2934 0.06669-2.2067 1.0038-2.27 2.3289-0.0244 0.51709-1e-3 0.65665 0.17741 1.0479 0.5883 1.2917 1.9771 1.8289 3.2258 1.2479zm27.082 0c0.88056-0.4098 1.4131-1.2375 1.4152-2.1997 7.9e-4 -0.46484-0.0365-0.62851-0.25179-1.0641-0.45722-0.93199-1.2706-1.4138-2.2966-1.3608-1.2934 0.06669-2.2067 1.0038-2.2701 2.3289-0.0305 0.51709-1e-3 0.65665 0.17679 1.0479 0.5883 1.2917 1.9771 1.8289 3.2257 1.2479zm-13.513-8.1198c0.88643-0.42138 1.3749-1.1924 1.3849-2.1859 4e-3 -0.48728-0.0304-0.65496-0.21033-1.0248-0.88568-1.8161-3.3784-1.8877-4.3516-0.12498-0.20789 0.3759-0.22801 0.47887-0.22801 1.1503 2.4e-4 0.61609 0.0305 0.79133 0.17435 1.0651 0.27616 0.51972 0.61111 0.84993 1.1192 1.1046 0.40114 0.20124 0.55904 0.23648 1.0591 0.23648 0.48468-4.8e-5 0.66829-0.03841 1.0516-0.22075z" fill="#e8eaec" stroke-width=".99999"/>
</svg>
