<?xml version="1.0" encoding="UTF-8"?>
<svg width="653.63" height="305.06" version="1.1" viewBox="0 0 172.94 80.715" xmlns="http://www.w3.org/2000/svg" xmlns:cc="http://creativecommons.org/ns#" xmlns:dc="http://purl.org/dc/elements/1.1/" xmlns:rdf="http://www.w3.org/1999/02/22-rdf-syntax-ns#">
 <metadata>
  <rdf:RDF>
   <cc:Work rdf:about="">
    <dc:format>image/svg+xml</dc:format>
    <dc:type rdf:resource="http://purl.org/dc/dcmitype/StillImage"/>
    <dc:title/>
   </cc:Work>
  </rdf:RDF>
 </metadata>
 <rect x="2.0444" y="5.1765" width="169.28" height="70.532" fill="#1d232d" style="paint-order:normal"/>
 <g transform="matrix(7.2627,0,0,7.2627,-682.16,-695.34)" fill="#7b8694" stroke-width=".13769">
  <path d="m94.596 96.26h1.1654v0.19408h-1.1654z"/>
  <path d="m96.538 96.26h1.1654v0.19408h-1.1654z"/>
  <path d="m98.481 96.26h1.1654v0.19408h-1.1654z"/>
  <path d="m100.42 96.26h1.1654v0.19408h-1.1654z"/>
  <path d="m102.37 96.26h1.1654v0.19408h-1.1654z"/>
  <path d="m104.31 96.26h1.1654v0.19408h-1.1654z"/>
  <path d="m106.25 96.26h1.1654v0.19408h-1.1654z"/>
  <path d="m108.19 96.26h1.1654v0.19408h-1.1654z"/>
  <path d="m110.13 96.26h1.1654v0.19408h-1.1654z"/>
  <path d="m112.08 96.26h1.1654v0.19408h-1.1654z"/>
  <path d="m114.02 96.26h1.1654v0.19408h-1.1654z"/>
  <path d="m115.96 96.26h1.1654v0.19408h-1.1654z"/>
  <path d="m115.96 106.17h1.1654v0.19405h-1.1654z"/>
  <path d="m114.02 106.17h1.1654v0.19405h-1.1654z"/>
  <path d="m112.08 106.17h1.1654v0.19405h-1.1654z"/>
  <path d="m110.13 106.17h1.1654v0.19405h-1.1654z"/>
  <path d="m108.19 106.17h1.1654v0.19405h-1.1654z"/>
  <path d="m106.25 106.17h1.1654v0.19405h-1.1654z"/>
  <path d="m104.31 106.17h1.1654v0.19405h-1.1654z"/>
  <path d="m102.37 106.17h1.1654v0.19405h-1.1654z"/>
  <path d="m100.42 106.17h1.1654v0.19405h-1.1654z"/>
  <path d="m98.481 106.17h1.1654v0.19405h-1.1654z"/>
  <path d="m96.538 106.17h1.1654v0.19405h-1.1654z"/>
  <path d="m94.596 106.17h1.1654v0.19405h-1.1654z"/>
 </g>
 <g fill="#7893ea">
  <path d="m132.47 33.297h0.66879v14.432h-0.66879z" stroke-width=".26459"/>
  <path d="m97.354 29.601h6.2453c0.195 0 0.35199 0.15699 0.35199 0.35199 0 0.19501-0.15698 0.35199-0.35199 0.35199h-6.2453c-0.19501 0-0.352-0.15699-0.352-0.35199 0-0.19501 0.15699-0.35199 0.352-0.35199z" stroke-width=".26459"/>
  <path d="m41.616 47.386c-0.01184 0.03573-0.01184 0.07427 0 0.10999-0.01184 0.03573-0.01184 0.07426 0 0.10999-0.01184 0.03573-0.01184 0.07426 0 0.10999 0.03573 0.01183 0.07427 0.01183 0.10999 0h90.671c0.0358 0.01183 0.0743 0.01183 0.11002 0 0.0357 0.01183 0.0743 0.01183 0.10999 0 0.0118-0.03573 0.0118-0.07426 0-0.10999 0.0118-0.03573 0.0118-0.07427 0-0.10999-0.0177-0.05175-0.0583-0.09241-0.10999-0.10999-0.0358-0.01183-0.0743-0.01183-0.11002 0h-90.671c-0.03573-0.01183-0.07427-0.01183-0.10999 0z"/>
  <path d="m41.616 43.866c-0.01184 0.03573-0.01184 0.07427 0 0.10999-0.01184 0.03573-0.01184 0.07427 0 0.10999-0.01184 0.03573-0.01184 0.07426 0 0.10999 0.03573 0.01183 0.07427 0.01183 0.10999 0h90.671c0.0358 0.01183 0.0743 0.01183 0.11002 0 0.0357 0.01183 0.0743 0.01183 0.10999 0 0.0118-0.03573 0.0118-0.07426 0-0.10999 0.0118-0.03573 0.0118-0.07427 0-0.10999-0.0177-0.05175-0.0583-0.09241-0.10999-0.10999-0.0358-0.01183-0.0743-0.01183-0.11002 0h-90.671c-0.03573-0.01183-0.07427-0.01183-0.10999 0z"/>
  <path d="m41.616 40.346c-0.01184 0.03573-0.01184 0.07427 0 0.10999-0.01184 0.03573-0.01184 0.07427 0 0.10999-0.01184 0.03573-0.01184 0.07426 0 0.10999 0.03573 0.01183 0.07427 0.01183 0.10999 0h90.671c0.0358 0.01183 0.0743 0.01183 0.11002 0 0.0357 0.01183 0.0743 0.01183 0.10999 0 0.0118-0.03573 0.0118-0.07427 0-0.10999 0.0118-0.03573 0.0118-0.07427 0-0.10999-0.0177-0.05175-0.0583-0.09241-0.10999-0.10999-0.0358-0.01183-0.0743-0.01183-0.11002 0h-90.671c-0.03573-0.01183-0.07427-0.01183-0.10999 0z"/>
  <path d="m41.616 36.826c-0.01184 0.03573-0.01184 0.07426 0 0.10999-0.01184 0.03573-0.01184 0.07427 0 0.10999-0.01184 0.03573-0.01184 0.07426 0 0.10999 0.03573 0.01183 0.07427 0.01183 0.10999 0h90.671c0.0358 0.01183 0.0743 0.01183 0.11002 0 0.0357 0.01183 0.0743 0.01183 0.10999 0 0.0118-0.03573 0.0118-0.07427 0-0.10999 0.0118-0.03573 0.0118-0.07427 0-0.10999-0.0177-0.05175-0.0583-0.09241-0.10999-0.10999-0.0358-0.01183-0.0743-0.01183-0.11002 0h-90.671c-0.03573-0.01183-0.07427-0.01183-0.10999 0z"/>
  <path d="m41.616 33.307c-0.01184 0.03573-0.01184 0.07426 0 0.10999-0.01184 0.03573-0.01184 0.07427 0 0.10999-0.01184 0.03573-0.01184 0.07427 0 0.10999 0.03573 0.01184 0.07427 0.01184 0.10999 0h90.671c0.0358 0.01184 0.0743 0.01184 0.11002 0 0.0357 0.01184 0.0743 0.01184 0.10999 0 0.0118-0.03573 0.0118-0.07427 0-0.10999 0.0118-0.03573 0.0118-0.07427 0-0.10999-0.0177-0.05175-0.0583-0.09241-0.10999-0.10999-0.0358-0.01184-0.0743-0.01184-0.11002 0h-90.671c-0.03573-0.01184-0.07427-0.01184-0.10999 0z"/>
  <g stroke-width=".26459">
   <path d="m48.541 26.476c-0.0396 0.01849-0.08361 0.0449-0.13201 0.0792-0.0484 0.03435-0.11704 0.09241-0.2059 0.17422-0.22704 0.22001-0.43823 0.46288-0.63358 0.72862-0.19535 0.26577-0.36431 0.54384-0.50686 0.83421-0.1273 0.25022-0.23525 0.51714-0.32383 0.80078-0.08859 0.28366-0.1543 0.56114-0.19713 0.83245-0.03462 0.18803-0.05691 0.34701-0.06687 0.47694-0.0099 0.12996-0.01109 0.32766-0.0035 0.5931-0.0062 0.81516 0.06248 1.5713 0.2059 2.2686 0.14343 0.69724 0.39863 1.5133 0.76557 2.4481 0.04312 0.10151 0.07656 0.18714 0.10033 0.25695 0.02367 0.06983 0.03255 0.1062 0.02641 0.1091-0.0018 0.0094-0.02641 0.04695-0.07392 0.11263-0.04754 0.06571-0.10735 0.1455-0.17952 0.23936l-1.3094 1.8163c-0.48164 0.71689-0.84888 1.3845-1.1017 2.0028-0.25284 0.61833-0.41594 1.2367-0.48926 1.855-0.01405 0.1628-0.0212 0.36871-0.0212 0.61774 0 0.24903 0.0071 0.45142 0.0212 0.60718 0.02875 0.2065 0.0698 0.41652 0.12321 0.63006 0.05338 0.21355 0.11556 0.41652 0.18655 0.60894 0.04692 0.12964 0.11497 0.2857 0.20415 0.46814 0.08916 0.18246 0.17129 0.33145 0.24639 0.44703 0.46697 0.73741 1.0607 1.3076 1.7811 1.7107 0.7204 0.40302 1.5112 0.60718 2.3724 0.61246 0.13024-5.13e-4 0.2675-0.0064 0.41182-0.01751 0.14431-0.0111 0.27455-0.02416 0.39071-0.03871l0.16894-0.02816v0.39423c-7.82e-4 0.31737-0.0096 0.65411-0.02638 1.0102-0.01677 0.35609-0.0361 0.64355-0.05807 0.86237-0.05898 0.49835-0.19096 0.94479-0.39599 1.3393-0.20504 0.39451-0.46727 0.70367-0.78669 0.92749-0.25608 0.17686-0.53591 0.28422-0.8395 0.32207-0.3036 0.03782-0.6151 7.84e-4 -0.93453-0.11088-0.16633-0.05895-0.32999-0.14168-0.49103-0.24815-0.16103-0.10649-0.29303-0.22087-0.39598-0.34319l-0.05631-0.07039 0.14079 0.01405c0.41241 0.0099 0.75266-0.11909 1.0208-0.38719 0.26809-0.26811 0.39716-0.60836 0.38718-1.0208-0.02786-0.38749-0.15869-0.70721-0.39247-0.95917-0.23379-0.25197-0.53004-0.39218-0.88877-0.42062-0.28042-0.0052-0.54676 0.05456-0.79901 0.17952-0.25226 0.12496-0.45524 0.30446-0.60894 0.53854-0.11293 0.17481-0.18273 0.37075-0.20943 0.58782-0.02668 0.21705-0.0086 0.46227 0.05456 0.73566 0.14431 0.61509 0.45407 1.1237 0.92925 1.5259 0.47518 0.40214 1.0524 0.63973 1.7318 0.71278 0.56113 0.05395 1.0756-0.05047 1.5435-0.31327 0.46785-0.26283 0.85914-0.66996 1.1739-1.2214 0.12054-0.20682 0.2244-0.43384 0.31151-0.6811 0.08711-0.24728 0.15223-0.49895 0.19535-0.75502 0.03607-0.22997 0.06601-0.55497 0.08975-0.97501 0.02367-0.42004 0.03607-0.86472 0.03696-1.334v-0.49278l0.07039-0.02816c0.34582-0.1276 0.66437-0.30887 0.95565-0.54382 0.29127-0.23495 0.54998-0.51831 0.77614-0.85005 0.33174-0.50041 0.53062-1.0448 0.59662-1.6332 0.06598-0.58841-0.0062-1.1751-0.21648-1.7599-0.0446-0.1182-0.10326-0.25138-0.176-0.39951-0.07276-0.14814-0.1455-0.27778-0.21823-0.38895-0.08184-0.12318-0.16103-0.23231-0.23759-0.32735-0.07656-0.09503-0.16633-0.1971-0.26927-0.30623-0.14638-0.1399-0.29714-0.26487-0.4523-0.37487-0.15514-0.10999-0.32349-0.21032-0.50505-0.30095-0.21648-0.10383-0.4312-0.1848-0.64414-0.24286-0.21296-0.05806-0.47695-0.10383-0.79198-0.13729l-0.09855-0.01405-0.07039-0.21118c-0.10385-0.34055-0.23056-0.74005-0.38015-1.1985-0.14959-0.45846-0.29039-0.87557-0.42239-1.2513l-0.12671-0.35199 0.02816-0.04224c0.23554-0.31473 0.46139-0.63563 0.67758-0.96269 0.21619-0.32705 0.40332-0.63035 0.56142-0.90989 0.35257-0.61979 0.61891-1.2281 0.79902-1.8251 0.18009-0.5969 0.27044-1.1806 0.27103-1.7511-0.01184-0.74679-0.18892-1.5587-0.5315-2.4358-0.34261-0.87702-0.78025-1.6467-1.3129-2.309-0.09475-0.1091-0.18684-0.20766-0.27631-0.29567-0.08948-0.08797-0.15694-0.14429-0.2024-0.16894-0.04487-0.02813-0.09591-0.04574-0.15312-0.05279-0.0572-0.0069-0.10472-0.0035-0.14256 0.0106zm1.056 2.4358c0.09268 0.14256 0.17129 0.28689 0.23584 0.43295 0.06453 0.14609 0.10795 0.28337 0.13024 0.41183 0.04224 0.21325 0.05984 0.47667 0.05279 0.79022-0.0071 0.31358-0.03873 0.62274-0.09502 0.92749-0.09621 0.56642-0.28394 1.1548-0.56318 1.7652-0.27925 0.61042-0.66409 1.2657-1.1545 1.9659l-0.08447 0.12671-0.02816-0.04224c-0.03023-0.08243-0.09651-0.26956-0.19888-0.56142-0.10237-0.29185-0.18625-0.53179-0.25167-0.71982-0.15166-0.44731-0.24962-0.79167-0.29391-1.0331-0.04431-0.24138-0.05427-0.48368-0.02991-0.72686 0.05249-0.65234 0.22908-1.2519 0.52974-1.7987 0.30065-0.54675 0.70603-1.0125 1.2161-1.3974 0.07274-0.05484 0.15958-0.11408 0.26047-0.17775 0.10089-0.06364 0.15955-0.09826 0.176-0.10383 0.0076 5.9e-4 0.02047 0.01356 0.03871 0.03871 0.01825 0.02525 0.03812 0.05927 0.05984 0.10208zm-1.1827 9.3066c0.16426 0.46639 0.31444 0.91694 0.45055 1.3516 0.1361 0.43471 0.20181 0.67406 0.1971 0.71806-0.0013 8.48e-4 -0.01652 0.0062-0.04576 0.01578-0.02934 0.0096-0.06571 0.01849-0.1091 0.02641-0.15839 0.03023-0.32032 0.0789-0.48575 0.14606-0.16544 0.06719-0.31328 0.14052-0.4435 0.21998-0.36695 0.22733-0.66438 0.51186-0.89229 0.85358-0.22792 0.34172-0.38103 0.72832-0.45934 1.1598-0.0143 0.12321-0.02071 0.27807-0.01948 0.46462 0.0016 0.18655 0.01258 0.34143 0.03343 0.46463 0.08595 0.48017 0.26956 0.90314 0.55086 1.2689 0.2813 0.36577 0.65147 0.66555 1.1105 0.89933 0.11586 0.05516 0.20445 0.08916 0.26575 0.10208 0.0613 0.01282 0.1182 0.01184 0.17072-0.0035 0.11527-0.03491 0.19446-0.1094 0.23759-0.22351 0.04312-0.11411 0.03432-0.22733-0.02641-0.33967-0.01899-0.02641-0.04078-0.04751-0.06512-0.06337-0.02441-0.01578-0.06366-0.03696-0.11791-0.06337-0.25607-0.14316-0.47254-0.31797-0.64942-0.52447-0.17688-0.2065-0.29831-0.4306-0.36431-0.6723-0.06248-0.23524-0.07128-0.46873-0.02641-0.70046 0.04487-0.23172 0.13815-0.44409 0.27983-0.6371 0.14989-0.19829 0.34289-0.35785 0.57902-0.4787 0.23613-0.12084 0.50304-0.19594 0.80077-0.22528 0.03666-8.48e-4 0.06891-0.0027 0.0968-0.0052 0.02786-0.0027 0.04253-8.48e-4 0.04399 0.0052 0.01036 0.018 0.03901 0.14052 0.08625 0.36783 0.04722 0.22733 0.09357 0.45202 0.13904 0.67406 0.11263 0.54411 0.20766 1.0821 0.28511 1.6139 0.07745 0.5318 0.13726 1.0451 0.17952 1.5399 0.02071 0.23083 0.03548 0.42385 0.04399 0.57902 0.0086 0.15516 0.01257 0.23907 0.01233 0.25167-0.01825 0.0076-0.07685 0.01701-0.176 0.02816-0.09914 0.01109-0.21414 0.02047-0.34495 0.02816-0.43999 0.02905-0.85182 0.0062-1.2355-0.06864-0.38367-0.07476-0.7603-0.20675-1.1299-0.39594-0.19624-0.09739-0.37751-0.20534-0.54382-0.32383-0.16631-0.1185-0.32295-0.25461-0.4699-0.40831-0.21823-0.21734-0.39423-0.44439-0.52798-0.6811-0.13376-0.23672-0.22528-0.48839-0.27455-0.75502-0.03491-0.19008-0.04606-0.42943-0.03343-0.71806 0.01257-0.28863 0.04722-0.5843 0.10383-0.88701 0.1094-0.52212 0.28834-1.0548 0.53678-1.598 0.24844-0.54323 0.58576-1.1322 1.012-1.767 0.19944-0.29215 0.42708-0.61246 0.68285-0.96093 0.25578-0.34846 0.39892-0.53502 0.42943-0.55966 0.0074 2e-3 0.02071 0.02964 0.04049 0.08272 0.01972 0.05311 0.04369 0.11939 0.07214 0.19888zm2.1401 3.886c0.59133 0.19947 1.056 0.56084 1.3939 1.0841 0.21853 0.32882 0.35521 0.68139 0.41007 1.0577 0.05484 0.37633 0.02609 0.74651-0.08625 1.1105-0.09535 0.29274-0.24259 0.55907-0.44174 0.79902-0.19917 0.23993-0.42738 0.42884-0.68462 0.5667l-0.14079 0.07039c-0.0064-3e-3 -0.0111-0.0393-0.01405-0.1091-3e-3 -0.0698-0.0076-0.15546-0.01405-0.25695-0.04929-0.64913-0.12671-1.322-0.23231-2.0187-0.1056-0.69664-0.23936-1.4082-0.40127-2.1348l-0.05632-0.23936h0.05632c0.01578 0.0074 0.04399 0.01726 0.08447 0.02991 0.04049 0.01258 0.08272 0.02611 0.12671 0.04049z"/>
   <path d="m59.263 40.699c-0.02902 0.01504-0.05545 0.03785-0.0792 0.06864-0.02367 0.03079-0.0396 0.06423-0.04749 0.10033-5.08e-4 0.01578-0.0027 0.05104-0.0071 0.1056-0.0039 0.05456-0.0064 0.11793-0.0072 0.19008-0.02071 0.58343-0.11293 1.1448-0.27631 1.6843-0.16337 0.53942-0.3998 1.0621-0.70926 1.5681-0.0965 0.16544-0.2027 0.32735-0.31855 0.48574-0.11586 0.15839-0.25372 0.33439-0.41358 0.52799-0.02818 0.03462-0.04574 0.07099-0.05279 0.1091-0.0072 0.03812-0.0032 0.08154 0.0106 0.13023 0.02937 0.06453 0.07626 0.12202 0.14079 0.17247 0.06452 0.05045 0.13963 0.08681 0.22526 0.10913 0.02022 0.0067 0.1276 0.01085 0.32207 0.01233 0.19446 0.0014 0.48135 2e-3 0.86061 0.0018h1.1123v0.05631c-6.54e-4 0.05338-0.0096 0.12262-0.02643 0.20768-0.01677 0.08506-0.03607 0.16133-0.05807 0.22879-0.10092 0.29802-0.25109 0.5186-0.45054 0.66174-0.08859 0.06278-0.17188 0.1097-0.24991 0.14079-0.07804 0.03109-0.16838 0.04986-0.27104 0.05631-0.04899 0.0062-0.08829 0.01134-0.11791 0.01578-0.02961 0.0044-0.05134 0.01331-0.06512 0.02641-0.06983 0.04049-0.10267 0.0968-0.09855 0.16894 0.0039 0.07214 0.04169 0.12848 0.11263 0.16894 0.03987 0.02786 0.15371 0.03548 0.34143 0.02293 0.18773-0.01257 0.46346-0.04369 0.82717-0.09327 0.26487-0.04049 0.45318-0.06512 0.56494-0.07392 0.11177-0.0089 0.24727-0.01233 0.40655-0.0106 0.15928-0.0018 0.29478 0.0018 0.40654 0.0106 0.11177 0.0089 0.30008 0.03343 0.56494 0.07392 0.23964 0.03403 0.42561 0.0575 0.5579 0.07039 0.13228 0.01282 0.25137 0.02219 0.35727 0.02816 0.088 5.13e-4 0.14784-5.13e-4 0.17952-0.0035 0.03163-3e-3 0.05629-0.01109 0.07392-0.02466 0.07099-0.04049 0.10854-0.0968 0.11263-0.16894 0.0039-0.07217-0.02877-0.12848-0.09855-0.16894-0.01381-0.01331-0.03548-0.02194-0.06512-0.02641-0.02961-0.0044-0.06894-0.0096-0.11791-0.01578-0.10267-0.0064-0.19301-0.02525-0.27103-0.05631-0.07804-0.03109-0.16133-0.07801-0.24991-0.14079-0.19947-0.14313-0.34965-0.36372-0.45054-0.66174-0.02194-0.06746-0.04135-0.14372-0.05807-0.22878-0.01677-0.08507-0.02552-0.1543-0.02643-0.20768v-0.05632h0.57726c0.27602 5.89e-4 0.44907-5.92e-4 0.51918-0.0035 0.0701-3e-3 0.11293-0.0111 0.12848-0.02466 0.0915-0.05572 0.13726-0.13083 0.13726-0.22528 0-0.09446-0.04574-0.16954-0.13726-0.22528-0.01553-0.01356-0.05839-0.0217-0.12848-0.02466-0.07012-3e-3 -0.24316-0.0042-0.51918-0.0035h-0.57726v-1.5488c5.15e-4 -0.71688-5.08e-4 -1.1663-0.0032-1.3481-0.0027-0.18186-0.01109-0.2722-0.02466-0.27103-0.01479-0.03518-0.03817-0.06334-0.07039-0.08447-0.0323-0.0212-0.06983-0.03518-0.11263-0.04224-0.04162-0.0012-0.07804 0.0081-0.1091 0.02816-0.03112 0.01997-0.06041 0.0575-0.088 0.11263-0.13581 0.33029-0.27602 0.58137-0.42063 0.75326-0.14461 0.1719-0.36578 0.35258-0.6635 0.54206-0.1147 0.08008-0.18803 0.13465-0.21998 0.16367-0.03195 0.02904-0.05252 0.05895-0.06159 0.08975l-0.04228 0.08447-0.01405 0.76029v0.76029h-2.1401l0.04228-0.05631c0.02981-0.03227 0.23505-0.26252 0.61576-0.69078 0.3807-0.42825 0.82134-0.92426 1.3219-1.488 0.50059-0.56377 0.94564-1.0651 1.3351-1.5039 0.38949-0.4388 0.60795-0.6849 0.65536-0.73829 0.02786-0.03459 0.04253-0.06746 0.04396-0.09855 0.0013-0.03109-0.0086-0.06393-0.02993-0.09855-0.02318-0.02934-0.05427-0.05513-0.09327-0.07744-0.03901-0.02219-0.07362-0.03403-0.10383-0.03521-0.01578 3.09e-4 -0.05101 0.0067-0.1056 0.01948-0.05454 0.01257-0.11791 0.02964-0.19008 0.05104-0.33938 0.09182-0.63916 0.13699-0.89933 0.13551-0.26018-0.0014-0.55644-0.05134-0.88877-0.14959-0.10765-0.03459-0.181-0.05338-0.22001-0.05631-0.03901-3e-3 -0.07362 0.0064-0.10383 0.02816z"/>
   <path d="m59.828 33.488c-0.01529-2.84e-4 -0.03758 3.08e-4 -0.06687 0.0018-0.02936 0.0014-0.05866 0.0057-0.088 0.01233-0.08154 0.0081-0.1754 0.027-0.28159 0.05631-0.10617 0.02934-0.20004 0.06218-0.28158 0.09855-0.31855 0.12321-0.56847 0.29568-0.74974 0.51742-0.18127 0.22176-0.28334 0.47167-0.30623 0.74973-5.08e-4 0.08213 0.0039 0.15371 0.01405 0.21471 0.0099 0.06102 0.02877 0.12555 0.05629 0.1936 0.05101 0.10033 0.12496 0.1848 0.22176 0.25343 0.0968 0.06864 0.2059 0.11088 0.32735 0.12671 0.19624 0.02367 0.37047-0.02022 0.5227-0.13201 0.15223-0.11174 0.2455-0.26486 0.27983-0.45934 0.01553-0.08829 0.01257-0.1581-0.0089-0.20943-0.02145-0.05131-0.0701-0.10353-0.14606-0.15664-0.11675-0.08711-0.19301-0.15575-0.22879-0.2059-0.03583-0.05015-0.04867-0.10824-0.03869-0.17425 0.01504-0.13346 0.08358-0.23964 0.2059-0.31855 0.12232-0.0789 0.29303-0.13228 0.51215-0.16014 0.20825-0.0217 0.37956-0.01701 0.5139 0.01405 0.13433 0.03109 0.24932 0.09211 0.34494 0.18302 0.04253 0.0484 0.08068 0.10296 0.11441 0.16367 0.03373 0.06073 0.06132 0.13287 0.08272 0.21648 0.03432 0.0877 0.0572 0.18685 0.06864 0.29743 0.01134 0.11058 0.01677 0.29773 0.01578 0.56142-2.54e-4 0.21764-0.0032 0.37018-0.0089 0.45758-0.0059 0.08741-0.01208 0.15546-0.01948 0.20415-0.02727 0.12644-0.06776 0.22908-0.12143 0.30799-0.0537 0.0789-0.12585 0.13581-0.21646 0.17072-0.02194 0.01331-0.07303 0.02194-0.15312 0.02641-0.08008 0.0044-0.26839 0.0096-0.56494 0.01578-0.30387 2e-6 -0.49512 0.0035-0.57374 0.0106-0.0786 0.0072-0.12202 0.01751-0.13024 0.03168-0.08477 0.05516-0.12644 0.12789-0.12496 0.21823 0.0013 0.09034 0.04781 0.16308 0.13904 0.21823 0.01529 0.01356 0.05866 0.0217 0.13024 0.02466 0.07158 3e-3 0.24874 0.0042 0.5315 0.0035 0.2329-5.89e-4 0.39716 5.9e-4 0.49279 0.0035 0.09562 3e-3 0.16133 0.0111 0.1971 0.02466 0.11147 0.02046 0.19829 0.07099 0.26047 0.15136 0.06216 0.08038 0.10676 0.19419 0.13376 0.34143 0.01405 0.12262 0.0212 0.36666 0.0212 0.73214 0 0.36548-0.0072 0.62361-0.0212 0.77438-0.04808 0.35815-0.13844 0.6239-0.27103 0.79725-0.13258 0.17336-0.31444 0.25959-0.54558 0.25871-0.20063-8.49e-4 -0.38367-0.02367-0.5491-0.06864-0.16544-0.04487-0.29215-0.10649-0.38014-0.1848-0.09621-0.08681-0.14316-0.19476-0.14079-0.32383-6.51e-4 -0.04665 6.53e-4 -0.08008 0.0052-0.10033 0.0047-0.02022 0.01677-0.04312 0.03698-0.06864 0.0079-0.02194 0.02367-0.04487 0.04749-0.06864 0.02367-0.02367 0.05018-0.04312 0.0792-0.05807 0.10149-0.07422 0.16954-0.12641 0.20416-0.15664 0.03457-0.0302 0.06041-0.05777 0.07744-0.08272 0.01356-0.02522 0.0217-0.0487 0.02466-0.07039 0.0027-0.0217 0.0039-0.05925 0.0032-0.11263 5.15e-4 -0.10472-0.01825-0.20152-0.05629-0.29039-0.03817-0.08889-0.09914-0.17511-0.18305-0.25871-0.23409-0.21412-0.48751-0.2857-0.7603-0.21471-0.27279 0.07099-0.4699 0.25989-0.59134 0.5667-0.01405 0.05661-0.02121 0.14049-0.02121 0.25167 0 0.11118 0.0072 0.20561 0.02121 0.28335 0.04371 0.17804 0.12173 0.34642 0.23409 0.5051 0.11233 0.15869 0.2502 0.29538 0.41359 0.41007 0.15546 0.09944 0.32676 0.18569 0.5139 0.25871 0.18714 0.07303 0.3866 0.1276 0.59838 0.16367 0.12496 0.01405 0.29038 0.02121 0.4963 0.02121 0.2059 0 0.37839-0.0072 0.51742-0.02121 0.64325-0.09387 1.1413-0.30036 1.4942-0.6195 0.35286-0.31913 0.5447-0.73683 0.5755-1.2531 0.01282-0.33263-0.04815-0.62126-0.18305-0.8659-0.13492-0.24464-0.33674-0.4347-0.60542-0.57022-0.06191-0.03402-0.11058-0.06805-0.14609-0.10208-0.03548-0.03402-0.0666-0.07508-0.09327-0.12321-0.01356-0.03284-0.0217-0.06218-0.02466-0.088-0.0032-0.02582-0.0039-0.06218-0.0032-0.1091-0.0013-0.08945 0.01874-0.16396 0.05982-0.22351 0.0411-0.05954 0.11029-0.11645 0.20768-0.17072 0.22526-0.11263 0.38015-0.29566 0.46462-0.5491 0.03432-0.10003 0.0572-0.19917 0.06864-0.29743 0.01134-0.09825 0.01677-0.22908 0.01578-0.39247 2e-3 -0.15371-2e-3 -0.26868-0.0106-0.34495-0.0089-0.07626-0.03346-0.16308-0.07392-0.26047-0.11411-0.27543-0.32236-0.49894-0.62478-0.67054-0.30242-0.17158-0.6902-0.28598-1.1633-0.34319-0.09005-0.0076-0.23026-0.01356-0.42062-0.01751-0.19037-0.0042-0.31298-3e-3 -0.36783 0.0035z"/>
   <path d="m100.68 27.94c-0.50892 0.07715-0.96943 0.26077-1.3816 0.55086-0.41211 0.2901-0.72127 0.64619-0.92748 1.0683-0.0769 0.15753-0.13082 0.30359-0.16191 0.43823-0.0311 0.13465-0.0429 0.28423-0.0352 0.44879-5.1e-4 0.09446 5.1e-4 0.16601 3e-3 0.21471 3e-3 0.0487 0.0111 0.09914 0.0247 0.15137 0.0953 0.3473 0.28482 0.62067 0.56845 0.82014 0.28364 0.19944 0.63856 0.31092 1.0647 0.33439 0.6195 0.0074 1.1968-0.16924 1.7318-0.52974 0.53502-0.3605 0.90108-0.82219 1.0982-1.3851 0.0343-0.10794 0.0572-0.20534 0.0686-0.29215 0.0113-0.08684 0.0168-0.19126 0.0158-0.31327 5.1e-4 -0.09416-5.2e-4 -0.16631-3e-3 -0.21648-3e-3 -0.05015-0.0111-0.10472-0.0247-0.16367-0.0364-0.12905-0.0903-0.2546-0.16192-0.37662-0.0716-0.12202-0.15371-0.22644-0.24639-0.31327-0.22763-0.19947-0.5186-0.33556-0.87294-0.40831-0.1003-0.02046-0.22703-0.03227-0.38014-0.03521-0.15312-3e-3 -0.27983-5.89e-4 -0.38015 0.0072z"/>
   <path d="m98.301 30.615h0.17599c0.078 0 0.14079 0.0628 0.14079 0.14079v13.137c0 0.07801-0.0627 0.14079-0.14079 0.14079h-0.17599c-0.078 0-0.14079-0.0628-0.14079-0.14079v-13.137c0-0.07801 0.0628-0.14079 0.14079-0.14079z"/>
  </g>
  <path d="m120.42 46.21v1.408l-22.122-2.9106v-1.408z" stroke-linecap="round" stroke-linejoin="round" stroke-width=".021167"/>
  <g stroke-width=".26459">
   <path d="m71.036 34.896c-0.09327 0.0393-0.16017 0.10148-0.20063 0.18655-0.04046 0.08506-0.04396 0.16838-0.0106 0.24991 0.0091 0.02318 0.03666 0.06482 0.08272 0.12496 0.04606 0.06014 0.09826 0.12644 0.15664 0.19888 0.11645 0.13581 0.20386 0.24786 0.26223 0.33615 0.05839 0.08829 0.10706 0.18275 0.14609 0.28335 0.04194 0.10119 0.07069 0.19449 0.08625 0.27983 0.01553 0.08536 0.01973 0.18919 0.01233 0.31151 5.08e-4 0.09446-5.16e-4 0.16604-0.0032 0.21471-0.0032 0.0487-0.01109 0.09914-0.02466 0.15136-0.04867 0.20063-0.13435 0.38015-0.25695 0.53854-0.12262 0.15839-0.32794 0.35903-0.61598 0.6019-0.23026 0.20181-0.40685 0.37194-0.52975 0.51038-0.12291 0.13844-0.20445 0.2593-0.24464 0.36255-0.01356 0.02756-0.0217 0.05691-0.02466 0.088-0.0027 0.03109-0.0039 0.06746-0.0032 0.10913-0.02367 0.08124 0.0059 0.18273 0.08975 0.30447 0.08361 0.12173 0.32119 0.40977 0.71278 0.86413l0.85885 1.0137c0.0434 0.05015 0.07626 0.09064 0.09855 0.12143 0.02219 0.0308 0.027 0.04665 0.01405 0.04751-0.03583-0.01553-0.11206-0.03726-0.22879-0.06512-0.11675-0.02786-0.22819-0.05309-0.33439-0.07567-0.08566-0.01356-0.16074-0.0217-0.22526-0.02466-0.06453-3e-3 -0.15371-0.0042-0.26751-0.0035-0.19446-0.0067-0.34759 0.0032-0.45934 0.02991-0.11177 0.02668-0.19799 0.06835-0.25871 0.12496-0.07069 0.05895-0.11939 0.14873-0.14609 0.26927-0.02668 0.12054-0.02961 0.25607-0.0089 0.40655 0.05572 0.34466 0.19419 0.74299 0.41535 1.195 0.22117 0.45201 0.48634 0.87498 0.7955 1.2689 0.061 0.08329 0.11145 0.13492 0.15134 0.15487 0.03987 0.01997 0.08331 0.01529 0.13023-0.01405 0.02877-0.0086 0.0522-0.0267 0.07039-0.05456 0.01825-0.02786 0.02759-0.05661 0.02818-0.08625-0.0027-0.03052-0.02584-0.08213-0.07039-0.15487-0.02219-0.02961-0.04455-0.06189-0.06687-0.0968-0.02219-0.03491-0.03758-0.06366-0.04574-0.08625-0.02961-0.06014-0.06191-0.14052-0.0968-0.24111-0.03491-0.10062-0.06366-0.19858-0.08625-0.29391-0.01356-0.07187-0.0217-0.13581-0.02466-0.19183-0.0032-0.05604-0.0039-0.13758-0.0032-0.24464-0.0013-0.14315 0.0047-0.25461 0.01751-0.33439 0.01282-0.07979 0.03987-0.15605 0.08095-0.22879 0.05513-0.09798 0.13844-0.17306 0.24991-0.22528 0.11147-0.05222 0.25812-0.08506 0.43999-0.09855 0.20738-0.0059 0.40156 0.01997 0.58254 0.07745 0.18098 0.0575 0.3294 0.13963 0.44526 0.24639 0.03607 0.02845 0.06951 0.05249 0.10033 0.07214 0.0308 0.01973 0.05368 0.03314 0.06864 0.04049 0.11118 0.03812 0.21266 0.02522 0.30447-0.03871 0.09182-0.06393 0.14049-0.1543 0.14606-0.27103 0.0027-0.04458-0.01701-0.09974-0.05982-0.16544-0.04285-0.06571-0.12614-0.17013-0.24991-0.31327-0.41652-0.48252-0.67817-0.79168-0.78494-0.92749-0.10676-0.13581-0.17834-0.24434-0.21471-0.32559-0.11909-0.25813-0.16954-0.52329-0.15136-0.79549 0.01825-0.2722 0.10148-0.52329 0.24992-0.75326 0.05042-0.07831 0.12202-0.16456 0.21471-0.25871 0.09268-0.09416 0.2417-0.2332 0.44703-0.41711 0.19387-0.17247 0.34113-0.30975 0.44174-0.41183 0.1006-0.10208 0.17393-0.19008 0.21998-0.26399 0.0484-0.07449 0.08183-0.1402 0.10033-0.1971 0.01849-0.05691 0.02727-0.12262 0.02641-0.19713 6.53e-4 -0.05279-6.51e-4 -0.09152-0.0052-0.11616-0.0047-0.02466-0.01677-0.05631-0.03698-0.09502-0.0067-0.02582-0.09182-0.13963-0.25519-0.34143-0.1634-0.20181-0.44908-0.54793-0.8571-1.0384-0.47489-0.56406-0.78172-0.92485-0.92045-1.0824-0.13874-0.1575-0.21678-0.2332-0.23406-0.22704-0.04169-0.02145-0.08154-0.03491-0.11968-0.04049-0.03817-0.0054-0.07801-0.0014-0.11968 0.01233z"/>
   <path d="m88.38 37.641c-0.25754 0.05309-0.46756 0.16515-0.63006 0.33615-0.16251 0.17102-0.25284 0.3781-0.27103 0.62126-0.0099 0.25842 0.06628 0.4878 0.22879 0.68814 0.16251 0.20036 0.3866 0.34173 0.6723 0.42415 0.04547 0.01356 0.09182 0.0217 0.13904 0.02466 0.04724 3e-3 0.11823 0.0042 0.21296 0.0035 0.16838 8.45e-4 0.34553-0.01504 0.5315-0.04751 0.18596-0.03257 0.38425-0.08711 0.59486-0.16367 0.04983-0.01455 0.09093-0.02756 0.12321-0.03871 0.0323-0.01109 0.0522-0.01701 0.05982-0.01751l-0.85885 2.2809-0.84477 2.2668 0.04226 0.04224c0.03282 0.0302 0.08682 0.0613 0.16192 0.09327 0.07508 0.03198 0.14313 0.05249 0.20416 0.06159 0.0572 0.01405 0.11879 0.02121 0.1848 0.02121 0.066-5e-6 0.13112-0.0072 0.19535-0.02121 0.05427-0.0091 0.1182-0.02964 0.19183-0.06159 0.07362-0.03198 0.127-0.06307 0.16014-0.09327 0.0099 0.0044 0.0338-0.05284 0.07145-0.17156 0.03765-0.11872 0.11359-0.38137 0.22787-0.78794 0.11428-0.40657 0.29141-1.0395 0.53137-1.8987 0.23571-0.86355 0.40883-1.4987 0.51938-1.9054 0.11053-0.40674 0.18041-0.66956 0.20963-0.78846 0.02917-0.11889 0.0396-0.17834 0.03131-0.17834-0.05486-0.08536-0.13522-0.1364-0.24111-0.15312-0.1059-0.01677-0.20386 0.0062-0.29391 0.06864-0.0084 0.01455-0.02318 0.03462-0.04396 0.05984-0.02071 0.02522-0.03901 0.05222-0.05454 0.08095-0.08741 0.11411-0.20122 0.22733-0.34144 0.33967-0.1402 0.11236-0.24698 0.17277-0.3203 0.18127-0.08447-0.0023-0.15489-0.02582-0.21118-0.07039-0.02818-0.03255-0.05279-0.08008-0.07392-0.14256-0.0212-0.06248-0.03876-0.15575-0.05279-0.27983-0.02071-0.11058-0.04253-0.19917-0.06512-0.26575-0.02268-0.06657-0.04781-0.12348-0.07567-0.17072-0.06571-0.10617-0.15958-0.18948-0.28159-0.24991-0.12202-0.06043-0.25813-0.09446-0.40831-0.10208-0.05074-2.81e-4 -0.0971 3.08e-4 -0.13904 0.0018-0.04194 0.0014-0.07069 0.0054-0.08625 0.01233z"/>
   <path d="m110.92 31.46c-0.50892 0.07715-0.96943 0.26077-1.3816 0.55086-0.41213 0.2901-0.72129 0.6462-0.92749 1.0683-0.0769 0.15753-0.13083 0.30359-0.16192 0.43823-0.0311 0.13462-0.0428 0.28423-0.0352 0.44878-5e-4 0.09446 5.2e-4 0.16601 3e-3 0.21471 3e-3 0.0487 0.0111 0.09914 0.0247 0.15136 0.0953 0.34729 0.28482 0.62067 0.56846 0.82014 0.28365 0.19944 0.63857 0.31092 1.0648 0.33439 0.6195 0.0074 1.1968-0.16924 1.7318-0.52974 0.53502-0.3605 0.90109-0.82219 1.0982-1.3851 0.0343-0.10794 0.0572-0.20534 0.0686-0.29215 0.0113-0.08681 0.0168-0.19123 0.0158-0.31327 5.1e-4 -0.09416-5.2e-4 -0.16631-3e-3 -0.21648-3e-3 -0.05018-0.0111-0.10472-0.0247-0.16367-0.0364-0.12905-0.0903-0.2546-0.16192-0.37662-0.0716-0.12202-0.15371-0.22644-0.24639-0.31327-0.22763-0.19947-0.5186-0.33556-0.87293-0.40831-0.10033-0.02047-0.22704-0.03225-0.38015-0.03521-0.15312-3e-3 -0.27984-5.9e-4 -0.38015 0.0071z"/>
   <path d="m108.54 34.134h0.176c0.078 0 0.14079 0.0628 0.14079 0.14079v10.947c0 0.07801-0.0627 0.14079-0.14079 0.14079h-0.176c-0.078 0-0.14079-0.0628-0.14079-0.14079v-10.947c0-0.07799 0.0628-0.14079 0.14079-0.14079z"/>
   <path d="m122.63 33.22c-0.50891 0.07715-0.96943 0.26077-1.3816 0.55086-0.41212 0.2901-0.72128 0.64619-0.92748 1.0683-0.0769 0.1575-0.13083 0.30359-0.16192 0.43823-0.0311 0.13462-0.0428 0.28423-0.0352 0.44878-5e-4 0.09446 5.2e-4 0.16601 3e-3 0.21471 3e-3 0.0487 0.0111 0.09914 0.0247 0.15136 0.0953 0.34729 0.28482 0.62067 0.56845 0.82014 0.28365 0.19947 0.63858 0.31092 1.0648 0.33439 0.6195 0.0074 1.1968-0.16927 1.7318-0.52974 0.53502-0.3605 0.90108-0.82219 1.0982-1.3851 0.0343-0.10794 0.0572-0.20534 0.0686-0.29215 0.0113-0.08681 0.0168-0.19123 0.0158-0.31327 5.1e-4 -0.09416-5.1e-4 -0.16631-3e-3 -0.21648-3e-3 -0.05015-0.0111-0.10472-0.0247-0.16367-0.0364-0.12905-0.0903-0.2546-0.16192-0.37662-0.0716-0.12202-0.15371-0.22644-0.24639-0.31327-0.22763-0.19947-0.5186-0.33556-0.87293-0.40831-0.10032-0.02047-0.22703-0.03225-0.38014-0.03521-0.15312-3e-3 -0.27984-5.9e-4 -0.38015 0.0072z"/>
   <path d="m120.25 35.894h0.176c0.078 0 0.14081 0.0628 0.14081 0.14079v10.708c0 0.07801-0.0628 0.14079-0.14081 0.14079h-0.176c-0.078 0-0.14079-0.0628-0.14079-0.14079v-10.708c0-0.07801 0.0628-0.14079 0.14079-0.14079z"/>
  </g>
 </g>
</svg>
