<?xml version="1.0" encoding="UTF-8"?>
<svg width="653.63" height="305.06" version="1.1" viewBox="0 0 172.94 80.715" xmlns="http://www.w3.org/2000/svg" xmlns:cc="http://creativecommons.org/ns#" xmlns:dc="http://purl.org/dc/elements/1.1/" xmlns:rdf="http://www.w3.org/1999/02/22-rdf-syntax-ns#">
 <metadata>
  <rdf:RDF>
   <cc:Work rdf:about="">
    <dc:format>image/svg+xml</dc:format>
    <dc:type rdf:resource="http://purl.org/dc/dcmitype/StillImage"/>
    <dc:title/>
   </cc:Work>
  </rdf:RDF>
 </metadata>
 <rect x="2.0444" y="5.1765" width="169.28" height="70.532" fill="#1d232d" style="paint-order:normal"/>
 <g transform="matrix(7.2627,0,0,7.2627,-682.16,-695.34)" fill="#7b8694" stroke-width=".13769">
  <path d="m94.596 96.26h1.1654v0.19408h-1.1654z"/>
  <path d="m96.538 96.26h1.1654v0.19408h-1.1654z"/>
  <path d="m98.481 96.26h1.1654v0.19408h-1.1654z"/>
  <path d="m100.42 96.26h1.1654v0.19408h-1.1654z"/>
  <path d="m102.37 96.26h1.1654v0.19408h-1.1654z"/>
  <path d="m104.31 96.26h1.1654v0.19408h-1.1654z"/>
  <path d="m106.25 96.26h1.1654v0.19408h-1.1654z"/>
  <path d="m108.19 96.26h1.1654v0.19408h-1.1654z"/>
  <path d="m110.13 96.26h1.1654v0.19408h-1.1654z"/>
  <path d="m112.08 96.26h1.1654v0.19408h-1.1654z"/>
  <path d="m114.02 96.26h1.1654v0.19408h-1.1654z"/>
  <path d="m115.96 96.26h1.1654v0.19408h-1.1654z"/>
  <path d="m115.96 106.17h1.1654v0.19405h-1.1654z"/>
  <path d="m114.02 106.17h1.1654v0.19405h-1.1654z"/>
  <path d="m112.08 106.17h1.1654v0.19405h-1.1654z"/>
  <path d="m110.13 106.17h1.1654v0.19405h-1.1654z"/>
  <path d="m108.19 106.17h1.1654v0.19405h-1.1654z"/>
  <path d="m106.25 106.17h1.1654v0.19405h-1.1654z"/>
  <path d="m104.31 106.17h1.1654v0.19405h-1.1654z"/>
  <path d="m102.37 106.17h1.1654v0.19405h-1.1654z"/>
  <path d="m100.42 106.17h1.1654v0.19405h-1.1654z"/>
  <path d="m98.481 106.17h1.1654v0.19405h-1.1654z"/>
  <path d="m96.538 106.17h1.1654v0.19405h-1.1654z"/>
  <path d="m94.596 106.17h1.1654v0.19405h-1.1654z"/>
 </g>
 <g stroke-width=".044622">
  <path d="m76.455 53.999c-0.0424-0.0661-0.0987-0.45433-0.125-0.86358l-0.0479-0.74414-0.77548-0.26823c-0.42651-0.14746-0.98308-0.38391-1.2368-0.5259l-0.46128-0.25806-0.54731 0.54158c-0.44218 0.4376-0.5904 0.53074-0.77189 0.48519-0.30128-0.0754-2.5649-2.3734-2.5649-2.6035 0-0.0987 0.23814-0.42035 0.52904-0.71456l0.52909-0.53463-0.25806-0.46133c-0.14152-0.25382-0.3784-0.81024-0.52586-1.2368l-0.26823-0.77553-0.74413-0.0479c-0.40934-0.0254-0.7979-0.0826-0.86363-0.125-0.17161-0.11102-0.17161-3.6542 0-3.7651 0.0657-0.0424 0.45439-0.0987 0.86363-0.12501l0.74413-0.0479 0.26823-0.77553c0.14746-0.4265 0.38391-0.98308 0.52586-1.2368l0.25806-0.4613-0.52909-0.53467c-0.2911-0.29403-0.52904-0.61561-0.52904-0.71456 0-0.23009 2.2638-2.5279 2.5649-2.6035 0.18136-0.0455 0.32968 0.0477 0.77189 0.48519l0.54731 0.54156 0.46128-0.25781c0.25382-0.1417 0.81032-0.37844 1.2368-0.5259l0.77548-0.26806 0.0479-0.74411c0.0254-0.40929 0.0826-0.79789 0.125-0.86364 0.11102-0.17141 3.6542-0.17141 3.7651 0 0.0428 0.0656 0.0987 0.45437 0.125 0.86364l0.0479 0.74411 0.77548 0.26806c0.42655 0.14733 0.98312 0.38412 1.2368 0.5259l0.46133 0.25781 0.54726-0.54156c0.44218-0.43755 0.59045-0.53075 0.77189-0.48519 0.30128 0.0756 2.5649 2.3734 2.5649 2.6035 0 0.0989-0.23813 0.42052-0.52908 0.71456l-0.52909 0.53467 0.25763 0.4613c0.14153 0.25365 0.3784 0.81029 0.52591 1.2368l0.26824 0.77553 0.74409 0.0479c0.40934 0.0254 0.7979 0.0826 0.86362 0.12501 0.17119 0.11102 0.17119 3.6542 0 3.7651-0.0657 0.0424-0.45434 0.0987-0.86362 0.125l-0.74409 0.0479-0.26824 0.77553c-0.14746 0.42654-0.38391 0.98309-0.52591 1.2368l-0.25763 0.46133 0.54159 0.54726c0.43756 0.44222 0.53074 0.59044 0.48519 0.77193-0.0754 0.30128-2.3734 2.5649-2.6035 2.5649-0.0987 0-0.42036-0.23815-0.71456-0.52909l-0.53463-0.52908-0.46133 0.25806c-0.25382 0.14153-0.81028 0.3784-1.2368 0.5259l-0.77548 0.26823-0.0479 0.74414c-0.0254 0.40933-0.0826 0.79786-0.125 0.86363-0.0572 0.0886-0.54336 0.11949-1.8826 0.11949-1.3392 0-1.8252-0.0297-1.8826-0.11949z" fill="#7893ea"/>
  <path d="m79.39 52.5c0-0.80452 0.0657-0.88401 0.90112-1.0939 0.71952-0.18051 1.4597-0.49218 2.0393-0.858 0.56896-0.35934 0.75549-0.32755 1.3136 0.22416l0.48366 0.47765 0.73905-0.74347 0.73909-0.74341-0.47879-0.47154c-0.55477-0.54646-0.5879-0.73994-0.22501-1.3148 0.3657-0.57955 0.67731-1.3197 0.85804-2.0393 0.20975-0.83562 0.28941-0.90113 1.0939-0.90113h0.6624v-2.1033h-0.6624c-0.80451 0-0.88405-0.0657-1.0939-0.90113-0.18051-0.71952-0.49218-1.4597-0.85804-2.0393-0.35933-0.56894-0.32755-0.7555 0.22416-1.3137l0.47765-0.48366-0.74342-0.73906-0.74341-0.73907-0.47158 0.47877c-0.54642 0.55478-0.7399 0.58789-1.3148 0.22496-0.57956-0.36585-1.3197-0.67729-2.0393-0.85802-0.83558-0.20988-0.90113-0.28946-0.90113-1.094v-0.66239h-2.1033v0.66239c0 0.8045-0.0657 0.88407-0.90113 1.094-0.71951 0.18064-1.4597 0.49218-2.0393 0.85802-0.56896 0.35917-0.75549 0.32739-1.3136-0.22394l-0.48371-0.47767-0.739 0.74345-0.73909 0.74342 0.47879 0.47156c0.55476 0.54642 0.5879 0.73993 0.225 1.3148-0.36569 0.57955-0.67731 1.3197-0.85803 2.0393-0.20975 0.83558-0.28941 0.90113-1.0939 0.90113h-0.66239v2.1033h0.66239c0.80452 0 0.88405 0.0657 1.0939 0.90117 0.18051 0.71951 0.49218 1.4597 0.85803 2.0392 0.36272 0.57489 0.32968 0.76837-0.225 1.3148l-0.47879 0.47154 0.73909 0.74342 0.739 0.74347 0.48371-0.47766c0.55815-0.55125 0.74468-0.58303 1.3136-0.22416 0.57955 0.36569 1.3198 0.67728 2.0393 0.85801 0.83557 0.20975 0.90113 0.28941 0.90113 1.094v0.6624h2.1033z" fill="#0a2c9d"/>
  <path d="m77.573 50.011c-1.4363-0.20086-2.4303-0.70388-3.4941-1.7676-1.2358-1.2358-1.7814-2.5181-1.7916-4.2111-8e-3 -1.0687 0.13517-1.6971 0.60392-2.677 0.62057-1.2976 1.5123-2.1888 2.8174-2.8158 0.9607-0.46152 1.5988-0.60942 2.6292-0.60942 1.0339 0 1.6651 0.14734 2.6583 0.61992 2.0328 0.96758 3.3695 3.0725 3.3901 5.3388 0.0127 1.1214-0.12585 1.7278-0.62201 2.7726-0.54536 1.1485-1.601 2.2041-2.7495 2.7494-1.1672 0.5543-2.3258 0.75626-3.4418 0.60011z" fill="#7893ea"/>
  <path d="m79.885 48.871c0.90167-0.31018 1.3502-0.5929 2.0486-1.291 1.0681-1.0677 1.5103-2.1204 1.5103-3.5954 0-1.4836-0.49252-2.6352-1.5733-3.6786-2.0656-1.9942-5.2008-1.9365-7.198 0.1322-1.0055 1.0415-1.4406 2.1126-1.4406 3.5464 0 1.4201 0.43282 2.4981 1.4135 3.5203 0.80774 0.84194 1.7274 1.3457 2.832 1.5515 0.61388 0.11441 1.802 0.0212 2.4075-0.1856z" fill="#0a2c9d"/>
  <path d="m77.777 46.943c-1.4286-0.28772-2.4343-1.5098-2.4343-2.9584 0-0.8527 0.26949-1.4961 0.88438-2.111 0.61481-0.6148 1.2582-0.88435 2.111-0.88435 0.85274 0 1.4961 0.2695 2.111 0.88435 0.6148 0.61485 0.88434 1.2583 0.88434 2.111 0 1.875-1.7417 3.3238-3.5564 2.9584z" fill="#7893ea"/>
  <path d="m54.005 44.909c-0.0127-0.0773 0.0826-0.45753 0.21483-0.84569l0.24068-0.70581-0.61383-0.54458c-0.33772-0.29946-0.76134-0.73089-0.94142-0.95918l-0.32756-0.41493-0.7129 0.2909c-0.576 0.23509-0.74859 0.26442-0.8988 0.15289-0.24958-0.18497-1.4614-3.1743-1.3734-3.3869 0.0381-0.0912 0.38095-0.29721 0.76223-0.45771l0.69337-0.29145-0.0619-0.52496c-0.0339-0.28866-0.0381-0.89338-0.0127-1.3439l0.0491-0.81914-0.66917-0.329c-0.36866-0.18013-0.70553-0.3817-0.75002-0.44598-0.11611-0.16827 1.2398-3.4417 1.4408-3.4785 0.0771-0.014 0.45761 0.0827 0.84575 0.21501l0.70582 0.24052 0.5446-0.61385c0.29958-0.3376 0.73087-0.76134 0.95914-0.94142l0.41484-0.32742-0.28432-0.69644c-0.15636-0.38307-0.25297-0.77121-0.21526-0.86263 0.0881-0.21259 3.0588-1.4692 3.3659-1.4238 0.18518 0.0271 0.28645 0.17026 0.52748 0.74364l0.29831 0.70978 0.52485-0.0616c0.28856-0.0339 0.89346-0.0394 1.3439-0.0127l0.81905 0.0491 0.32882-0.66915c0.18008-0.3684 0.38178-0.70553 0.44599-0.75006 0.16822-0.11585 3.4416 1.24 3.4785 1.4408 0.0127 0.077-0.0826 0.45756-0.21484 0.84573l-0.24068 0.70579 0.61388 0.54443c0.33772 0.29933 0.76129 0.73111 0.94142 0.95918l0.32756 0.41472 0.71286-0.2909c0.57595-0.23505 0.74858-0.26442 0.8988-0.15289 0.24958 0.18514 1.4614 3.1743 1.3734 3.3869-0.0381 0.0914-0.38095 0.29738-0.76227 0.45769l-0.69341 0.2915 0.0614 0.52477c0.0339 0.28848 0.0381 0.89342 0.0127 1.3439l-0.0491 0.81915 0.66913 0.32899c0.36866 0.18013 0.70557 0.38167 0.75006 0.44599 0.11568 0.16809-1.2402 3.4416-1.4409 3.4785-0.0767 0.014-0.45756-0.0826-0.84574-0.215l-0.70574-0.24052-0.5446 0.61385c-0.29958 0.33764-0.73091 0.76134-0.95918 0.94138l-0.41442 0.3276 0.29068 0.71286c0.23518 0.576 0.26441 0.7486 0.15297 0.89884-0.18475 0.2495-3.1743 1.4614-3.3869 1.3734-0.0911-0.0377-0.29704-0.38086-0.45769-0.76226l-0.29153-0.6934-0.52498 0.0619c-0.28856 0.0335-0.89341 0.0394-1.3439 0.0127l-0.81909-0.0489-0.32882 0.66916c-0.18009 0.36845-0.3818 0.70551-0.44599 0.75006-0.0869 0.0599-0.54773-0.0975-1.785-0.61003-1.2372-0.51249-1.6749-0.72587-1.6935-0.83082z" fill="#7893ea"/>
  <path d="m57.29 44.647c0.30763-0.74328 0.39874-0.79159 1.2511-0.66582 0.73384 0.10857 1.537 0.10386 2.2124-0.0123 0.66315-0.11424 0.82333-0.0136 1.1279 0.70981l0.26398 0.62639 0.96732-0.40404 0.96731-0.404-0.26187-0.61887c-0.3034-0.71716-0.26017-0.90859 0.29535-1.3008 0.55964-0.39548 1.1308-0.96009 1.5731-1.5557 0.51353-0.69175 0.61222-0.72179 1.3555-0.41392l0.61197 0.25349 0.40255-0.97164 0.40256-0.97155-0.61197-0.25348c-0.74328-0.30789-0.79163-0.399-0.66582-1.2512 0.10847-0.73382 0.10381-1.5369-0.0127-2.2124-0.11441-0.66314-0.0127-0.82334 0.70981-1.1279l0.62637-0.26404-0.80765-1.9346-0.61892 0.26187c-0.71711 0.30344-0.90855 0.26001-1.3008-0.2953-0.39536-0.5598-0.96007-1.1308-1.5556-1.5731-0.69168-0.51366-0.72176-0.61227-0.414-1.3555l0.25339-0.61197-1.9432-0.80486-0.25339 0.61197c-0.30806 0.74326-0.39917 0.79164-1.2512 0.66583-0.73384-0.10844-1.5369-0.10391-2.2124 0.0123-0.66311 0.11411-0.82329 0.0136-1.128-0.70962l-0.26399-0.62641-0.96727 0.40404-0.96732 0.404 0.26187 0.61888c0.3034 0.71713 0.26018 0.90859-0.29534 1.3008-0.55964 0.39547-1.1308 0.96009-1.5731 1.5557-0.51353 0.69171-0.61222 0.72178-1.3555 0.41391l-0.61197-0.25348-0.8051 1.9432 0.61196 0.25348c0.74329 0.30789 0.79164 0.39899 0.66583 1.2512-0.10848 0.73383-0.10381 1.5369 0.0127 2.2124 0.11526 0.66994 8e-3 0.83604-0.71104 1.1286l-0.62277 0.25242 0.39832 0.96966 0.39832 0.96969 0.62964-0.2562c0.72663-0.29568 0.91113-0.25365 1.2994 0.29561 0.39536 0.55963 0.96011 1.1308 1.5557 1.5731 0.69172 0.51355 0.72176 0.61223 0.414 1.3556l-0.25339 0.61197 1.9432 0.80486z" fill="#0a2c9d"/>
  <path d="m56.564 41.652c-1.2501-0.7352-1.976-1.5804-2.5516-2.9702-0.66884-1.6146-0.68214-3.0081-0.0437-4.5762 0.40129-0.99061 0.77435-1.5162 1.5823-2.2421 1.0699-0.96137 2.2348-1.4435 3.6805-1.5233 1.0642-0.0587 1.7103 0.0488 2.6622 0.4431 0.95519 0.39565 1.482 0.77334 2.2188 1.59 1.5078 1.6718 1.9372 4.1281 1.089 6.2297-0.41739 1.0409-0.77748 1.5481-1.6357 2.3235-0.94333 0.85234-2.3226 1.4236-3.5924 1.488-1.2904 0.0655-2.4381-0.19136-3.4094-0.7627z" fill="#7893ea"/>
  <path d="m59.136 41.483c0.95172 0.0585 1.4743-0.0309 2.3867-0.40878 1.3954-0.57768 2.2068-1.381 2.7712-2.7437 0.56778-1.3707 0.55345-2.6231-0.0458-4.0007-1.1452-2.6328-4.0638-3.7794-6.7007-2.6324-1.3275 0.57744-2.1393 1.4005-2.688 2.7252-0.54345 1.312-0.55612 2.4736-0.0424 3.7932 0.42404 1.087 1.0809 1.9043 2.0226 2.5172 0.52337 0.3406 1.6568 0.70919 2.2952 0.74982z" fill="#0a2c9d"/>
  <path d="m57.926 38.895c-1.2097-0.81252-1.6712-2.3265-1.1169-3.6648 0.32628-0.78779 0.82155-1.2791 1.6249-1.6118 0.80329-0.33273 1.5009-0.33552 2.2887-9e-3 0.78787 0.32632 1.2791 0.82152 1.6119 1.6249 0.33264 0.80332 0.3356 1.5009 8e-3 2.2887-0.71753 1.7322-2.8812 2.4043-4.4178 1.3722z" fill="#7893ea"/>
  <path d="m94.82 59.629c-0.0254-0.14407 0.15382-0.85291 0.40044-1.5765l0.44866-1.3157-1.1443-1.0152c-0.62956-0.55823-1.4192-1.3625-1.7549-1.788l-0.61061-0.77349-1.3289 0.54228c-1.0738 0.43824-1.3955 0.49291-1.6755 0.285-0.46528-0.3448-2.7243-5.9173-2.5601-6.3137 0.0712-0.17005 0.71015-0.55405 1.4209-0.85324l1.2925-0.5433-0.11525-0.97861c-0.0631-0.5381-0.0712-1.6654-0.0254-2.5052l0.0915-1.527-1.2475-0.61329c-0.68722-0.33582-1.3152-0.71156-1.3981-0.83138-0.21653-0.31366 2.3112-6.4158 2.6859-6.4845 0.14364-0.0263 0.85304 0.15412 1.5766 0.40082l1.3158 0.44836 1.0152-1.1443c0.55849-0.62933 1.3625-1.4192 1.788-1.7549l0.77333-0.61037-0.53002-1.2983c-0.29154-0.71408-0.47158-1.4376-0.40129-1.6081 0.16441-0.39628 5.7021-2.7388 6.2746-2.6541 0.34535 0.0506 0.534 0.31738 0.98329 1.3862l0.55613 1.3231 0.97837-0.11492c0.53794-0.0632 1.6656-0.0735 2.5052-0.0237l1.5268 0.0916 0.61299-1.2474c0.3356-0.68676 0.71172-1.3152 0.83138-1.3982 0.31357-0.21598 6.4157 2.3116 6.4845 2.686 0.0254 0.14344-0.15382 0.85297-0.40044 1.5766l-0.44869 1.3157 1.1444 1.0149c0.62955 0.55799 1.4192 1.3629 1.755 1.788l0.61062 0.77309 1.3288-0.54227c1.0737-0.43817 1.3955-0.49291 1.6755-0.28501 0.46523 0.34509 2.7243 5.9174 2.5602 6.3136-0.0712 0.1703-0.7101 0.55436-1.421 0.85321l-1.2926 0.54339 0.11441 0.97824c0.0631 0.53778 0.0712 1.6655 0.0254 2.5052l-0.0915 1.527 1.2474 0.61329c0.68722 0.33581 1.3153 0.71148 1.3982 0.83138 0.21569 0.31335-2.312 6.4156-2.6859 6.4844-0.1428 0.0263-0.85295-0.15403-1.5766-0.40081l-1.3156-0.44836-1.0152 1.1443c-0.55848 0.62941-1.3625 1.4192-1.788 1.7549l-0.77253 0.61068 0.54188 1.3289c0.4384 1.0738 0.4929 1.3955 0.28518 1.6756-0.34451 0.4651-5.9174 2.7243-6.3136 2.5601-0.16992-0.0703-0.55375-0.70997-0.8532-1.421l-0.54345-1.2926-0.97863 0.11535c-0.53794 0.0624-1.6654 0.0735-2.5053 0.0237l-1.5269-0.0912-0.61299 1.2474c-0.33561 0.68683-0.71172 1.3152-0.83138 1.3982-0.16188 0.11169-1.021-0.18183-3.3275-1.1372-2.3064-0.95535-3.1222-1.3531-3.157-1.5488z" fill="#7893ea"/>
  <path d="m100.94 59.141c0.57345-1.3856 0.74328-1.4756 2.3323-1.2412 1.368 0.20237 2.8651 0.1936 4.1242-0.0229 1.2362-0.21298 1.5348-0.0254 2.1025 1.3232l0.49214 1.1677 1.8032-0.75318 1.8032-0.75311-0.48815-1.1537c-0.56557-1.3369-0.48502-1.6937 0.55057-2.4249 1.0432-0.73723 2.1079-1.7898 2.9326-2.9 0.95731-1.2895 1.1413-1.3455 2.5269-0.77159l1.1408 0.47253 0.75045-1.8113 0.7504-1.8111-1.1408-0.47253c-1.3856-0.57395-1.4757-0.74378-1.2412-2.3324 0.20213-1.368 0.19366-2.8651-0.0254-4.1242-0.21314-1.2362-0.0254-1.5348 1.3232-2.1026l1.1677-0.4922-0.75282-1.8032-0.75277-1.8032-1.1538 0.48817c-1.3368 0.56565-1.6937 0.48469-2.4249-0.5505-0.73702-1.0435-1.7897-2.1079-2.9-2.9325-1.2894-0.95755-1.3455-1.1414-0.77172-2.5269l0.47235-1.1408-3.6224-1.5004-0.47234 1.1408c-0.5743 1.3856-0.74414 1.4757-2.3324 1.2412-1.368-0.20213-2.865-0.19369-4.1242 0.0229-1.2361 0.21272-1.5347 0.0254-2.1027-1.3228l-0.4921-1.1677-1.8031 0.75319-1.8032 0.75311 0.4882 1.1537c0.56557 1.3368 0.48501 1.6938-0.55057 2.4249-1.0433 0.73723-2.108 1.7898-2.9325 2.9-0.95727 1.2894-1.1413 1.3455-2.5269 0.77159l-1.1408-0.47253-0.75041 1.8112-0.75044 1.8112 1.1408 0.47253c1.3856 0.57395 1.4757 0.74378 1.2412 2.3324-0.20213 1.368-0.19365 2.865 0.0254 4.1241 0.21483 1.2489 0.01701 1.5585-1.3255 2.1039l-1.1609 0.47056 0.74252 1.8076 0.74253 1.8076 1.1737-0.47759c1.3546-0.5512 1.6985-0.47284 2.4224 0.55104 0.73702 1.0432 1.7898 2.1079 2.9001 2.9325 1.2894 0.95734 1.3455 1.1413 0.77172 2.527l-0.47235 1.1408 3.6224 1.5004z" fill="#0a2c9d"/>
  <path d="m99.59 53.558c-2.3303-1.3705-3.6835-2.946-4.7566-5.5368-1.2468-3.0099-1.2716-5.6076-0.0814-8.5306 0.74803-1.8466 1.4435-2.8264 2.9497-4.1796 1.9945-1.7921 4.166-2.6908 6.861-2.8396 1.9838-0.10949 3.1882 0.091 4.9627 0.82601 1.7806 0.73755 2.7628 1.4416 4.1361 2.964 2.8108 3.1166 3.6112 7.6954 2.03 11.613-0.77807 1.9404-1.4494 2.8858-3.0492 4.3313-1.7585 1.5889-4.3296 2.6538-6.6967 2.7738-2.4055 0.12203-4.5449-0.35675-6.3557-1.4218z" fill="#7893ea"/>
  <path d="m104.38 53.244c1.7742 0.10903 2.7484-0.0577 4.4492-0.76204 2.6012-1.0769 4.1138-2.5744 5.166-5.1146 1.0584-2.5552 1.0317-4.8898-0.0852-7.4579-2.135-4.908-7.5756-7.0453-12.491-4.9072-2.4747 1.0764-3.988 2.6107-5.0109 5.0802-1.0131 2.4458-1.0367 4.6112-0.0788 7.0712 0.79049 2.0262 2.015 3.55 3.7705 4.6924 0.97562 0.63494 3.0884 1.322 4.2786 1.3978z" fill="#0a2c9d"/>
  <path d="m102.13 48.419c-2.2551-1.5147-3.1153-4.3369-2.082-6.8316 0.60823-1.4686 1.5315-2.3844 3.0291-3.0047 1.4975-0.62024 2.7978-0.62545 4.2665-0.0174 1.4687 0.60832 2.3844 1.5314 3.0048 3.029 0.62006 1.4975 0.62561 2.7979 0.017 4.2665-1.3376 3.2292-5.3709 4.4819-8.2354 2.558z" fill="#7893ea"/>
  <path d="m63.424 56.304c-0.0212-0.0381-0.0212-0.25128-8e-3 -0.47342l0.0254-0.404-0.40002-0.19572c-0.22034-0.10751-0.50417-0.27175-0.63154-0.36497l-0.23136-0.1695-0.33052 0.2556c-0.26737 0.20658-0.35298 0.24696-0.44785 0.21039-0.15763-0.0605-1.225-1.4479-1.2097-1.5719 8e-3 -0.0533 0.15593-0.21073 0.33222-0.34993l0.32034-0.25306-0.1089-0.26547c-0.058-0.1464-0.15-0.46153-0.20297-0.70053l-0.0945-0.43518-0.39748-0.075c-0.21907-0.0407-0.42451-0.0972-0.45709-0.12432-0.0852-0.0711 0.14873-1.9798 0.24873-2.0282 0.0381-0.0186 0.25128-0.0233 0.47349-0.0102l0.40384 0.0233 0.19534-0.39997c0.10763-0.22005 0.27161-0.50421 0.36484-0.63153l0.1695-0.2314-0.24958-0.32298c-0.13729-0.17768-0.24407-0.36658-0.23772-0.41984 0.017-0.12399 1.3864-1.2122 1.5537-1.2331 0.10085-0.0127 0.17458 0.0475 0.38391 0.3123l0.25891 0.32789 0.26526-0.10839c0.14618-0.0595 0.46158-0.15009 0.70099-0.20158l0.43544-0.0931 0.075-0.39764c0.0424-0.21882 0.0975-0.42436 0.12416-0.45696 0.0712-0.085 1.9798 0.14903 2.0282 0.24869 0.0212 0.0381 0.0212 0.25128 8e-3 0.47345l-0.0254 0.404 0.40002 0.19564c0.22034 0.1075 0.50421 0.27187 0.63154 0.36497l0.23136 0.16941 0.33052-0.2556c0.26738-0.20658 0.35298-0.24696 0.4479-0.21039 0.15763 0.0606 1.2249 1.448 1.2097 1.5719-8e-3 0.0534-0.15593 0.21081-0.33222 0.34992l-0.32034 0.25306 0.1089 0.26535c0.058 0.14632 0.15 0.46156 0.20339 0.70054l0.0945 0.43519 0.39748 0.075c0.21865 0.0407 0.42451 0.0972 0.45713 0.12432 0.0848 0.0711-0.14915 1.9798-0.24873 2.0282-0.0381 0.0187-0.25127 0.0233-0.47349 0.0102l-0.40383-0.0233-0.19534 0.40002c-0.10763 0.22005-0.27162 0.5042-0.36485 0.6315l-0.16949 0.23149 0.25551 0.33064c0.20636 0.26713 0.24704 0.35307 0.21059 0.44786-0.0606 0.15729-1.4479 1.2249-1.5719 1.2097-0.0534-6e-3 -0.21059-0.15611-0.35-0.33226l-0.25297-0.32035-0.26526 0.1084c-0.14619 0.0595-0.4615 0.15004-0.701 0.20157l-0.43548 0.0931-0.075 0.39768c-0.0424 0.21887-0.097 0.42437-0.12416 0.45697-0.0381 0.044-0.30044 0.0284-1.022-0.06-0.72147-0.0884-0.98126-0.13653-1.0063-0.18869z" fill="#7893ea"/>
  <path d="m65.103 55.691c0.053-0.43335 0.0936-0.47187 0.55769-0.52978 0.39959-0.0497 0.81883-0.16874 1.1552-0.3276 0.3301-0.15593 0.42862-0.12644 0.69282 0.20751l0.22882 0.28929 0.44722-0.35167 0.44722-0.35162-0.2267-0.28568c-0.26271-0.33095-0.2678-0.43743-0.0339-0.72311 0.23518-0.28806 0.45206-0.66619 0.59693-1.0418 0.16822-0.43632 0.21526-0.46627 0.64884-0.41315l0.35679 0.0437 0.0695-0.56659 0.0695-0.56644-0.3568-0.0437c-0.43336-0.0531-0.47188-0.0938-0.52985-0.55766-0.0496-0.3995-0.16865-0.81882-0.32924-1.1547-0.15636-0.33014-0.12755-0.42831 0.20763-0.69284l0.28899-0.22894-0.3517-0.44728-0.35128-0.44728-0.2856 0.22679c-0.33094 0.26267-0.43735 0.2678-0.72307 0.0343-0.28772-0.23544-0.66621-0.45202-1.0419-0.59691-0.43633-0.16822-0.46616-0.21551-0.41315-0.64883l0.0436-0.35674-0.56654-0.0694-0.56651-0.0694-0.0436 0.35675c-0.0534 0.43346-0.0936 0.47189-0.55769 0.52978-0.39959 0.0498-0.81884 0.16869-1.1552 0.3276-0.3301 0.15585-0.42866 0.12644-0.69286-0.20743l-0.22881-0.28929-0.44723 0.35167-0.44722 0.35162 0.2267 0.28573c0.26272 0.33094 0.2678 0.43742 0.0339 0.7231-0.23517 0.28806-0.45201 0.6662-0.59688 1.0418-0.16823 0.43628-0.21526 0.46628-0.64884 0.41315l-0.35678-0.0437-0.139 1.1331 0.3568 0.0437c0.4334 0.0531 0.47192 0.0938 0.52989 0.55768 0.0496 0.3995 0.16865 0.81881 0.32924 1.1547 0.15763 0.33361 0.12543 0.43609-0.20805 0.69344l-0.289 0.22242 0.34917 0.44931 0.34874 0.44931 0.29196-0.2253c0.3373-0.26014 0.43967-0.26488 0.72243-0.0339 0.28772 0.23535 0.66621 0.45201 1.0419 0.59689 0.43633 0.16819 0.46616 0.21548 0.41316 0.64885l-0.0441 0.35688 1.133 0.1388z" fill="#0a2c9d"/>
  <path d="m64.289 54.23c-0.76044-0.20305-1.2627-0.53969-1.7654-1.183-0.58425-0.74727-0.79341-1.4741-0.68862-2.3864 0.0661-0.57629 0.18517-0.90532 0.5021-1.4021 0.41993-0.65804 0.95926-1.0792 1.7037-1.3308 0.54803-0.18504 0.90155-0.22246 1.4565-0.15462 0.55692 0.0683 0.88727 0.18937 1.3911 0.50952 1.0311 0.6555 1.6122 1.8777 1.4736 3.0999-0.0674 0.60496-0.18178 0.92244-0.51815 1.4525-0.36951 0.58265-1.008 1.0816-1.6628 1.2995-0.66528 0.22157-1.3028 0.25373-1.8937 0.0959z" fill="#7893ea"/>
  <path d="m65.61 53.768c0.50621-0.10751 0.76647-0.23031 1.1888-0.56017 0.64591-0.50462 0.95364-1.0425 1.0511-1.837 0.0979-0.7992-0.0911-1.4521-0.60511-2.0854-0.98096-1.2106-2.6737-1.3867-3.8862-0.4042-0.61044 0.49464-0.91558 1.0429-1.0102 1.8153-0.0936 0.76501 0.0682 1.3743 0.53006 1.9894 0.37968 0.50691 0.84164 0.83902 1.4231 1.0228 0.32288 0.1022 0.9693 0.13042 1.3091 0.0591z" fill="#0a2c9d"/>
  <path d="m64.602 52.59c-0.75058-0.24937-1.2116-0.97412-1.1159-1.7544 0.0563-0.45935 0.24407-0.78814 0.61582-1.0787 0.37162-0.29056 0.73621-0.39328 1.1955-0.33705 0.45938 0.0563 0.78816 0.24399 1.0788 0.61582 0.29068 0.37183 0.39323 0.73619 0.33644 1.1958-0.12373 1.01-1.1578 1.6755-2.1112 1.3588z" fill="#7893ea"/>
 </g>
</svg>
