<?xml version="1.0" encoding="UTF-8"?>
<svg width="653.63" height="305.06" version="1.1" viewBox="0 0 172.94 80.715" xmlns="http://www.w3.org/2000/svg" xmlns:cc="http://creativecommons.org/ns#" xmlns:dc="http://purl.org/dc/elements/1.1/" xmlns:rdf="http://www.w3.org/1999/02/22-rdf-syntax-ns#">
 <metadata>
  <rdf:RDF>
   <cc:Work rdf:about="">
    <dc:format>image/svg+xml</dc:format>
    <dc:type rdf:resource="http://purl.org/dc/dcmitype/StillImage"/>
    <dc:title/>
   </cc:Work>
  </rdf:RDF>
 </metadata>
 <g transform="matrix(7.2627 0 0 7.2627 -682.16 -695.34)" stroke-width=".13769">
  <rect x="94.208" y="96.454" width="23.308" height="9.7115" fill="#1d232d" style="paint-order:normal"/>
  <g fill="#7b8694">
   <path d="m94.596 96.26h1.1654v0.19408h-1.1654z"/>
   <path d="m96.538 96.26h1.1654v0.19408h-1.1654z"/>
   <path d="m98.481 96.26h1.1654v0.19408h-1.1654z"/>
   <path d="m100.42 96.26h1.1654v0.19408h-1.1654z"/>
   <path d="m102.37 96.26h1.1654v0.19408h-1.1654z"/>
   <path d="m104.31 96.26h1.1654v0.19408h-1.1654z"/>
   <path d="m106.25 96.26h1.1654v0.19408h-1.1654z"/>
   <path d="m108.19 96.26h1.1654v0.19408h-1.1654z"/>
   <path d="m110.13 96.26h1.1654v0.19408h-1.1654z"/>
   <path d="m112.08 96.26h1.1654v0.19408h-1.1654z"/>
   <path d="m114.02 96.26h1.1654v0.19408h-1.1654z"/>
   <path d="m115.96 96.26h1.1654v0.19408h-1.1654z"/>
   <path d="m115.96 106.17h1.1654v0.19405h-1.1654z"/>
   <path d="m114.02 106.17h1.1654v0.19405h-1.1654z"/>
   <path d="m112.08 106.17h1.1654v0.19405h-1.1654z"/>
   <path d="m110.13 106.17h1.1654v0.19405h-1.1654z"/>
   <path d="m108.19 106.17h1.1654v0.19405h-1.1654z"/>
   <path d="m106.25 106.17h1.1654v0.19405h-1.1654z"/>
   <path d="m104.31 106.17h1.1654v0.19405h-1.1654z"/>
   <path d="m102.37 106.17h1.1654v0.19405h-1.1654z"/>
   <path d="m100.42 106.17h1.1654v0.19405h-1.1654z"/>
   <path d="m98.481 106.17h1.1654v0.19405h-1.1654z"/>
   <path d="m96.538 106.17h1.1654v0.19405h-1.1654z"/>
   <path d="m94.596 106.17h1.1654v0.19405h-1.1654z"/>
   <path d="m110.74 100.95 0.25045 2.2526c7e-3 0.0463 0.0132 0.0945 0.0132 0.14274l3e-3 0.0132-2e-3 4.6e-4c4e-4 0.0132 7.3e-4 0.0198 7.3e-4 0.033 0 0.60599-0.491 1.098-1.0975 1.098-0.36081 0-0.68086-0.17446-0.88096-0.44276-0.0264-0.033-0.0463-0.0674-0.0681-0.10309l-1.1029-1.6726z"/>
   <rect x="103.89" y="99.682" width="4.2691" height="2.9565"/>
   <path d="m108.51 98.578s-0.27953 0.0945-0.38328 0.76346c-0.10309 0.66896 0.033 0.34034 0.033 0.34034l1.9434-0.14605s-0.0529-0.85935-0.32315-0.89874c-0.36555-0.08128-1.2693-0.0595-1.2693-0.0595z"/>
   <path d="m103.57 98.563s0.27954 0.0945 0.38329 0.7634c0.10309 0.66896-0.033 0.34033-0.033 0.34033l-1.9434-0.14604s0.0529-0.85936 0.32315-0.89874c0.2683-0.0396 1.2693-0.0595 1.2693-0.0595z"/>
  </g>
  <path d="m109.06 102.51a1.6832 1.6832 0 1 1 0-3.3664 1.6832 1.6832 0 0 1 0 3.3664z" fill="#e5e5e5" fill-rule="evenodd"/>
  <circle cx="107.38" cy="102.46" r=".79465" fill="#535e70" stroke-miterlimit="40" stroke-width=".027538"/>
  <path d="m101.24 100.95-0.25046 2.2526c-7e-3 0.0463-0.0132 0.0945-0.0132 0.14274l-3e-3 0.0132 2e-3 4.6e-4c-3.9e-4 0.0132-7.3e-4 0.0198-7.3e-4 0.033 0 0.60599 0.49101 1.098 1.0975 1.098 0.36082 0 0.68086-0.17446 0.88097-0.44276 0.0264-0.033 0.0463-0.0674 0.0681-0.10309l1.1029-1.6726z" fill="#7b8694"/>
  <path d="m102.93 102.61a1.6832 1.6832 0 1 1 0-3.3664 1.6832 1.6832 0 0 1 0 3.3664z" fill="#e5e5e5" fill-rule="evenodd"/>
  <path d="m108.6 99.659v0.8127h-0.81263v0.90435h0.81263v0.81263h0.90488v-0.81263h0.81264v-0.90435h-0.81264v-0.8127z" fill="#7b8694"/>
  <path d="m102.48 99.659v0.8127h-0.81263v0.90435h0.81263v0.81263h0.90489v-0.81263h0.81263v-0.90435h-0.81263v-0.8127z" fill="#7b8694"/>
  <flowRoot transform="matrix(.015464 0 0 .015464 106.5 90.066)" fill="#000000" font-family="Calibri" letter-spacing="0px" stroke-width="4.7116" word-spacing="0px" style="line-height:0.01%" xml:space="preserve"><flowRegion><rect x="-175.71" y="576.65" width="162.86" height="62.857"/></flowRegion><flowPara font-size="30px" style="line-height:1.25"> </flowPara></flowRoot>
  <g stroke-miterlimit="40" stroke-width=".027538">
   <rect x="105.2" y="100.82" width=".43716" height=".25501" fill="#fff"/>
   <path d="m102.31 98.679c0.26913-0.07574 0.57538-0.1135 0.82661-0.09378 0.14627 0.01227 0.43154 0.0877 0.43154 0.0877 0.01-0.08789-1e-3 -0.14392-0.0577-0.21273-0.39502-0.12472-0.79075-0.1187-1.1514 0.04949-0.0372 0.05365-0.0485 0.1047-0.0495 0.16933z" fill="#e5e5e5"/>
   <path d="m108.5 98.679c0.26913-0.07574 0.57538-0.1135 0.82661-0.09378 0.14627 0.01227 0.43154 0.0877 0.43154 0.0877 0.01-0.08789-1e-3 -0.14392-0.0577-0.21273-0.39502-0.12472-0.79075-0.1187-1.1514 0.04949-0.0372 0.05365-0.0485 0.1047-0.0495 0.16933z" fill="#e5e5e5"/>
  </g>
  <g fill="#fff" stroke-miterlimit="40" stroke-width=".027538">
   <path d="m106.45 101.11v-0.28567l0.52572 0.14087z"/>
   <path d="m102.08 100.71c0-0.0137 6e-3 -0.0284 0.0153-0.0381 0.0137-0.0138 0.0345-0.0221 0.054-0.0221h0.31559c0.0256 0 0.0517 0.01 0.0731 0.0239 0.0632 0.0414 0.11323 0.10372 0.15042 0.16946 0.0359 0.0616 0.0245 0.11397-4e-3 0.1707-0.0426 0.0666-0.10427 0.12243-0.17192 0.16331-0.0174 0.0105-0.0374 0.0196-0.0577 0.0196h-0.3119c-0.0177 0-0.0354-0.0109-0.0473-0.0239-0.0115-0.0125-0.019-0.0303-0.019-0.0473 0-0.14134 4e-3 -0.27703 4e-3 -0.41557z"/>
   <path d="m103.76 100.71c0-0.0137-6e-3 -0.0284-0.0153-0.0381-0.0137-0.0138-0.0345-0.0221-0.054-0.0221h-0.31559c-0.0256 0-0.0517 0.01-0.0731 0.0239-0.0632 0.0414-0.11323 0.10372-0.15042 0.16946-0.0359 0.0616-0.0245 0.11397 4e-3 0.1707 0.0426 0.0666 0.10427 0.12243 0.17192 0.16331 0.0174 0.0105 0.0374 0.0196 0.0577 0.0196h0.3119c0.0177 0 0.0354-0.0109 0.0473-0.0239 0.0115-0.0125 0.019-0.0303 0.019-0.0473 0-0.14134-4e-3 -0.27703-4e-3 -0.41557z"/>
   <path d="m103.13 100.1c0.0137 0 0.0284 6e-3 0.0381 0.0153 0.0138 0.0137 0.0221 0.0345 0.0221 0.054v0.31559c0 0.0256-0.01 0.0517-0.0239 0.0731-0.0414 0.0632-0.10372 0.11323-0.16946 0.15042-0.0616 0.0359-0.11397 0.0245-0.1707-4e-3 -0.0666-0.0426-0.12243-0.10427-0.16331-0.17192-0.0105-0.0174-0.0196-0.0374-0.0196-0.0577v-0.3119c0-0.0177 0.0109-0.0354 0.0239-0.0473 0.0125-0.0115 0.0303-0.019 0.0473-0.019 0.14134 0 0.27703 4e-3 0.41557 4e-3z"/>
   <path d="m103.13 101.79c0.0137 0 0.0284-6e-3 0.0381-0.0153 0.0138-0.0137 0.0221-0.0345 0.0221-0.054v-0.31559c0-0.0256-0.01-0.0517-0.0239-0.0731-0.0414-0.0632-0.10372-0.11323-0.16946-0.15042-0.0616-0.0359-0.11397-0.0245-0.1707 4e-3 -0.0666 0.0426-0.12243 0.10427-0.16331 0.17192-0.0105 0.0174-0.0196 0.0374-0.0196 0.0577v0.3119c0 0.0177 0.0109 0.0354 0.0239 0.0473 0.0125 0.0115 0.0303 0.019 0.0473 0.019 0.14134 0 0.27703-4e-3 0.41557-4e-3z"/>
  </g>
  <g stroke-miterlimit="40" stroke-width=".027538">
   <circle cx="109.05" cy="100.08" r=".36224" fill="#cf2f25"/>
   <circle cx="109.05" cy="101.74" r=".36224" fill="#2c57df"/>
   <circle cx="109.86" cy="100.93" r=".36224" fill="#47d58a"/>
   <circle cx="108.23" cy="100.93" r=".36224" fill="#e9e56f"/>
   <circle cx="107.38" cy="102.46" r=".58105" fill="#7b8694"/>
   <circle cx="107.38" cy="102.46" r=".50812" fill="#f4f4f4"/>
   <circle cx="104.65" cy="102.46" r=".79465" fill="#535e70"/>
   <circle cx="104.65" cy="102.46" r=".58105" fill="#7b8694"/>
   <circle cx="104.65" cy="102.46" r=".50812" fill="#f4f4f4"/>
  </g>
 </g>
</svg>
