<?xml version="1.0" encoding="UTF-8"?>
<svg width="653.63" height="305.06" version="1.1" viewBox="0 0 172.94 80.715" xmlns="http://www.w3.org/2000/svg" xmlns:cc="http://creativecommons.org/ns#" xmlns:dc="http://purl.org/dc/elements/1.1/" xmlns:rdf="http://www.w3.org/1999/02/22-rdf-syntax-ns#">
 <metadata>
  <rdf:RDF>
   <cc:Work rdf:about="">
    <dc:format>image/svg+xml</dc:format>
    <dc:type rdf:resource="http://purl.org/dc/dcmitype/StillImage"/>
    <dc:title/>
   </cc:Work>
  </rdf:RDF>
 </metadata>
 <rect x="2.0444" y="5.1765" width="169.28" height="70.532" fill="#1d232d" style="paint-order:normal"/>
 <g transform="matrix(7.2627,0,0,7.2627,-682.16,-695.34)" fill="#7b8694" stroke-width=".13769">
  <path d="m94.596 96.26h1.1654v0.19408h-1.1654z"/>
  <path d="m96.538 96.26h1.1654v0.19408h-1.1654z"/>
  <path d="m98.481 96.26h1.1654v0.19408h-1.1654z"/>
  <path d="m100.42 96.26h1.1654v0.19408h-1.1654z"/>
  <path d="m102.37 96.26h1.1654v0.19408h-1.1654z"/>
  <path d="m104.31 96.26h1.1654v0.19408h-1.1654z"/>
  <path d="m106.25 96.26h1.1654v0.19408h-1.1654z"/>
  <path d="m108.19 96.26h1.1654v0.19408h-1.1654z"/>
  <path d="m110.13 96.26h1.1654v0.19408h-1.1654z"/>
  <path d="m112.08 96.26h1.1654v0.19408h-1.1654z"/>
  <path d="m114.02 96.26h1.1654v0.19408h-1.1654z"/>
  <path d="m115.96 96.26h1.1654v0.19408h-1.1654z"/>
  <path d="m115.96 106.17h1.1654v0.19405h-1.1654z"/>
  <path d="m114.02 106.17h1.1654v0.19405h-1.1654z"/>
  <path d="m112.08 106.17h1.1654v0.19405h-1.1654z"/>
  <path d="m110.13 106.17h1.1654v0.19405h-1.1654z"/>
  <path d="m108.19 106.17h1.1654v0.19405h-1.1654z"/>
  <path d="m106.25 106.17h1.1654v0.19405h-1.1654z"/>
  <path d="m104.31 106.17h1.1654v0.19405h-1.1654z"/>
  <path d="m102.37 106.17h1.1654v0.19405h-1.1654z"/>
  <path d="m100.42 106.17h1.1654v0.19405h-1.1654z"/>
  <path d="m98.481 106.17h1.1654v0.19405h-1.1654z"/>
  <path d="m96.538 106.17h1.1654v0.19405h-1.1654z"/>
  <path d="m94.596 106.17h1.1654v0.19405h-1.1654z"/>
 </g>
 <rect x="78.179" y="18.863" width="2.3128" height="2.313" fill="#ffd179" style="paint-order:normal"/>
 <g fill="#cf2f25">
  <rect x="80.491" y="18.863" width="2.3128" height="2.313" style="paint-order:normal"/>
  <rect x="82.804" y="18.863" width="2.3128" height="2.313" style="paint-order:normal"/>
  <rect x="82.804" y="21.176" width="2.3128" height="2.313" style="paint-order:normal"/>
 </g>
 <g>
  <rect x="78.179" y="21.176" width="2.3128" height="2.313" fill="#7d0600" style="paint-order:normal"/>
  <rect x="75.866" y="21.176" width="2.3128" height="2.313" fill="#ffd179" style="paint-order:normal"/>
  <rect x="80.491" y="21.176" width="2.3128" height="2.313" fill="#cf2f25" style="paint-order:normal"/>
  <rect x="80.491" y="23.489" width="2.3128" height="2.313" fill="#cf2f25" style="paint-order:normal"/>
  <rect x="78.179" y="23.489" width="2.3128" height="2.313" fill="#7d0600" style="paint-order:normal"/>
  <rect x="82.804" y="23.489" width="2.3128" height="2.313" fill="#cf2f25" style="paint-order:normal"/>
 </g>
 <g fill="#fff">
  <rect x="82.804" y="25.802" width="2.3128" height="2.313" style="paint-order:normal"/>
  <rect x="80.491" y="25.802" width="2.3128" height="2.313" style="paint-order:normal"/>
  <rect x="78.179" y="25.802" width="2.3128" height="2.313" style="paint-order:normal"/>
 </g>
 <rect x="75.865" y="25.802" width="2.3128" height="2.313" fill="#f3f4f5" style="paint-order:normal"/>
 <rect x="73.553" y="25.802" width="2.3128" height="2.313" fill="#d2d6dc" style="paint-order:normal"/>
 <g fill="#fff">
  <rect x="85.117" y="25.802" width="2.3128" height="2.313" style="paint-order:normal"/>
  <rect x="87.432" y="25.802" width="2.3128" height="2.313" style="paint-order:normal"/>
  <rect x="89.744" y="25.802" width="2.3128" height="2.313" style="paint-order:normal"/>
  <rect x="92.057" y="25.802" width="2.3128" height="2.313" style="paint-order:normal"/>
  <rect x="94.37" y="25.802" width="2.3128" height="2.313" style="paint-order:normal"/>
  <rect x="96.682" y="25.802" width="2.3128" height="2.313" style="paint-order:normal"/>
  <rect x="98.995" y="30.428" width="2.3128" height="2.313" style="paint-order:normal"/>
  <rect x="98.995" y="28.115" width="2.3128" height="2.313" style="paint-order:normal"/>
  <rect x="98.995" y="32.741" width="2.3128" height="2.313" style="paint-order:normal"/>
  <rect x="98.995" y="35.054" width="2.3128" height="2.313" style="paint-order:normal"/>
  <rect x="98.995" y="37.366" width="2.3128" height="2.313" style="paint-order:normal"/>
  <rect x="96.682" y="39.68" width="2.3128" height="2.313" style="paint-order:normal"/>
  <rect x="94.37" y="39.68" width="2.3128" height="2.313" style="paint-order:normal"/>
  <rect x="92.057" y="39.68" width="2.3128" height="2.313" style="paint-order:normal"/>
  <rect x="89.744" y="39.68" width="2.3128" height="2.313" style="paint-order:normal"/>
  <rect x="87.432" y="39.68" width="2.3128" height="2.313" style="paint-order:normal"/>
  <rect x="87.432" y="41.993" width="2.3128" height="2.313" style="paint-order:normal"/>
  <rect x="87.432" y="44.305" width="2.3128" height="2.313" style="paint-order:normal"/>
  <rect x="89.744" y="44.305" width="2.3128" height="2.313" style="paint-order:normal"/>
  <rect x="89.744" y="46.618" width="2.3128" height="2.313" style="paint-order:normal"/>
  <rect x="89.744" y="48.932" width="2.3128" height="2.313" style="paint-order:normal"/>
 </g>
 <rect x="92.057" y="48.932" width="2.3128" height="2.313" fill="#e8eaec" style="paint-order:normal"/>
 <g fill="#fff">
  <rect x="89.744" y="51.244" width="2.3128" height="2.313" style="paint-order:normal"/>
  <rect x="89.744" y="53.557" width="2.3128" height="2.313" style="paint-order:normal"/>
  <rect x="89.744" y="55.87" width="2.3128" height="2.313" style="paint-order:normal"/>
 </g>
 <g>
  <rect x="89.744" y="58.183" width="2.3128" height="2.313" fill="#e8eaec" style="paint-order:normal"/>
  <rect x="89.744" y="60.496" width="2.3128" height="2.313" fill="#e8eaec" style="paint-order:normal"/>
  <rect x="87.432" y="58.183" width="2.3128" height="2.313" fill="#d2d6dc" style="paint-order:normal"/>
  <rect x="85.117" y="55.87" width="2.3128" height="2.313" fill="#f3f4f5" style="paint-order:normal"/>
  <rect x="82.804" y="55.87" width="2.3128" height="2.313" fill="#e8eaec" style="paint-order:normal"/>
  <rect x="80.491" y="58.183" width="2.3128" height="2.313" fill="#e8eaec" style="paint-order:normal"/>
 </g>
 <g fill="#d2d6dc">
  <rect x="78.178" y="60.496" width="2.3128" height="2.313" style="paint-order:normal"/>
  <rect x="78.178" y="58.183" width="2.3128" height="2.313" style="paint-order:normal"/>
  <rect x="78.178" y="55.87" width="2.3128" height="2.313" style="paint-order:normal"/>
  <rect x="78.178" y="53.557" width="2.3128" height="2.313" style="paint-order:normal"/>
  <rect x="78.178" y="51.244" width="2.3128" height="2.313" style="paint-order:normal"/>
  <rect x="78.178" y="48.932" width="2.3128" height="2.313" style="paint-order:normal"/>
 </g>
 <rect x="75.865" y="48.932" width="2.3128" height="2.313" fill="#f3f4f5" style="paint-order:normal"/>
 <g fill="#e8eaec">
  <rect x="73.553" y="48.932" width="2.3128" height="2.313" style="paint-order:normal"/>
  <rect x="75.865" y="46.618" width="2.3128" height="2.313" style="paint-order:normal"/>
  <rect x="78.178" y="44.305" width="2.3128" height="2.313" style="paint-order:normal"/>
 </g>
 <rect x="80.491" y="41.993" width="2.3128" height="2.313" fill="#d2d6dc" style="paint-order:normal"/>
 <rect x="78.178" y="39.68" width="2.3128" height="2.313" fill="#f3f4f5" style="paint-order:normal"/>
 <g fill="#e8eaec">
  <rect x="75.865" y="39.68" width="2.3128" height="2.313" style="paint-order:normal"/>
  <rect x="73.553" y="39.68" width="2.3128" height="2.313" style="paint-order:normal"/>
  <rect x="71.239" y="37.366" width="2.3128" height="2.313" style="paint-order:normal"/>
  <rect x="71.239" y="35.054" width="2.3128" height="2.313" style="paint-order:normal"/>
  <rect x="71.239" y="32.741" width="2.3128" height="2.313" style="paint-order:normal"/>
  <rect x="71.239" y="30.428" width="2.3128" height="2.313" style="paint-order:normal"/>
  <rect x="71.239" y="28.115" width="2.3128" height="2.313" style="paint-order:normal"/>
 </g>
 <rect x="78.178" y="32.741" width="2.3128" height="2.313" fill="#03060c" style="paint-order:normal"/>
 <rect x="96.683" y="32.741" width="2.3128" height="2.313" fill="#03060c" style="paint-order:normal"/>
 <g fill="#fff">
  <rect x="96.682" y="28.115" width="2.3128" height="2.313" style="paint-order:normal"/>
  <rect x="96.682" y="30.428" width="2.3128" height="2.313" style="paint-order:normal"/>
  <rect x="94.369" y="32.741" width="2.3128" height="2.313" style="paint-order:normal"/>
  <rect x="96.682" y="35.054" width="2.3128" height="2.313" style="paint-order:normal"/>
  <rect x="96.682" y="37.367" width="2.3128" height="2.313" style="paint-order:normal"/>
  <rect x="94.369" y="37.367" width="2.3128" height="2.313" style="paint-order:normal"/>
  <rect x="92.057" y="37.367" width="2.3128" height="2.313" style="paint-order:normal"/>
  <rect x="89.744" y="37.367" width="2.3128" height="2.313" style="paint-order:normal"/>
  <rect x="87.431" y="37.367" width="2.3128" height="2.313" style="paint-order:normal"/>
  <rect x="85.118" y="37.367" width="2.3128" height="2.313" style="paint-order:normal"/>
  <rect x="85.118" y="39.679" width="2.3128" height="2.313" style="paint-order:normal"/>
 </g>
 <rect x="85.118" y="41.992" width="2.3128" height="2.313" fill="#e8eaec" style="paint-order:normal"/>
 <g fill="#fff">
  <rect x="85.118" y="44.305" width="2.3128" height="2.313" style="paint-order:normal"/>
  <rect x="85.118" y="46.618" width="2.3128" height="2.313" style="paint-order:normal"/>
  <rect x="85.118" y="48.931" width="2.3128" height="2.313" style="paint-order:normal"/>
  <rect x="85.118" y="51.244" width="2.3128" height="2.313" style="paint-order:normal"/>
  <rect x="85.118" y="53.557" width="2.3128" height="2.313" style="paint-order:normal"/>
  <rect x="87.431" y="53.557" width="2.3128" height="2.313" style="paint-order:normal"/>
  <rect x="87.431" y="55.87" width="2.3128" height="2.313" style="paint-order:normal"/>
  <rect x="87.431" y="51.244" width="2.3128" height="2.313" style="paint-order:normal"/>
  <rect x="87.431" y="48.931" width="2.3128" height="2.313" style="paint-order:normal"/>
  <rect x="87.431" y="46.618" width="2.3128" height="2.313" style="paint-order:normal"/>
  <rect x="82.805" y="46.618" width="2.3128" height="2.313" style="paint-order:normal"/>
  <rect x="82.805" y="48.931" width="2.3128" height="2.313" style="paint-order:normal"/>
 </g>
 <rect x="82.805" y="51.244" width="2.3128" height="2.313" fill="#f3f4f5" style="paint-order:normal"/>
 <rect x="82.805" y="53.557" width="2.3128" height="2.313" fill="#f3f4f5" style="paint-order:normal"/>
 <g fill="#e8eaec">
  <rect x="80.492" y="53.557" width="2.3128" height="2.313" style="paint-order:normal"/>
  <rect x="80.492" y="55.87" width="2.3128" height="2.313" style="paint-order:normal"/>
  <rect x="80.492" y="51.244" width="2.3128" height="2.313" style="paint-order:normal"/>
 </g>
 <g>
  <rect x="80.492" y="48.931" width="2.3128" height="2.313" fill="#f3f4f5" style="paint-order:normal"/>
  <rect x="80.492" y="46.618" width="2.3128" height="2.313" fill="#fff" style="paint-order:normal"/>
  <rect x="78.179" y="46.618" width="2.3128" height="2.313" fill="#f3f4f5" style="paint-order:normal"/>
  <rect x="80.492" y="44.305" width="2.3128" height="2.313" fill="#e8eaec" style="paint-order:normal"/>
  <rect x="82.805" y="44.305" width="2.3128" height="2.313" fill="#f3f4f5" style="paint-order:normal"/>
  <rect x="82.805" y="41.992" width="2.3128" height="2.313" fill="#d2d6dc" style="paint-order:normal"/>
 </g>
 <g fill="#fff">
  <rect x="82.805" y="39.679" width="2.3128" height="2.313" style="paint-order:normal"/>
  <rect x="80.492" y="39.679" width="2.3128" height="2.313" style="paint-order:normal"/>
  <rect x="80.492" y="37.367" width="2.3128" height="2.313" style="paint-order:normal"/>
  <rect x="78.179" y="37.367" width="2.3128" height="2.313" style="paint-order:normal"/>
 </g>
 <g fill="#f3f4f5">
  <rect x="75.866" y="37.367" width="2.3128" height="2.313" style="paint-order:normal"/>
  <rect x="73.553" y="37.367" width="2.3128" height="2.313" style="paint-order:normal"/>
  <rect x="73.553" y="35.054" width="2.3128" height="2.313" style="paint-order:normal"/>
  <rect x="73.553" y="32.741" width="2.3128" height="2.313" style="paint-order:normal"/>
  <rect x="73.553" y="30.428" width="2.3128" height="2.313" style="paint-order:normal"/>
  <rect x="73.553" y="28.115" width="2.3128" height="2.313" style="paint-order:normal"/>
  <rect x="75.866" y="28.115" width="2.3128" height="2.313" style="paint-order:normal"/>
 </g>
 <g fill="#fff">
  <rect x="78.179" y="28.115" width="2.3128" height="2.313" style="paint-order:normal"/>
  <rect x="80.492" y="28.115" width="2.3128" height="2.313" style="paint-order:normal"/>
  <rect x="82.805" y="28.115" width="2.3128" height="2.313" style="paint-order:normal"/>
  <rect x="85.118" y="28.115" width="2.3128" height="2.313" style="paint-order:normal"/>
  <rect x="87.431" y="28.115" width="2.3128" height="2.313" style="paint-order:normal"/>
  <rect x="89.744" y="28.115" width="2.3128" height="2.313" style="paint-order:normal"/>
  <rect x="92.057" y="28.115" width="2.3128" height="2.313" style="paint-order:normal"/>
  <rect x="94.369" y="28.115" width="2.3128" height="2.313" style="paint-order:normal"/>
  <rect x="94.369" y="30.428" width="2.3128" height="2.313" style="paint-order:normal"/>
  <rect x="92.057" y="30.428" width="2.3128" height="2.313" style="paint-order:normal"/>
  <rect x="92.057" y="32.741" width="2.3128" height="2.313" style="paint-order:normal"/>
  <rect x="92.057" y="35.054" width="2.3128" height="2.313" style="paint-order:normal"/>
  <rect x="94.369" y="35.054" width="2.3128" height="2.313" style="paint-order:normal"/>
  <rect x="89.744" y="35.054" width="2.3128" height="2.313" style="paint-order:normal"/>
  <rect x="89.744" y="32.741" width="2.3128" height="2.313" style="paint-order:normal"/>
  <rect x="89.744" y="30.428" width="2.3128" height="2.313" style="paint-order:normal"/>
  <rect x="87.431" y="30.428" width="2.3128" height="2.313" style="paint-order:normal"/>
  <rect x="87.431" y="32.741" width="2.3128" height="2.313" style="paint-order:normal"/>
  <rect x="87.431" y="35.054" width="2.3128" height="2.313" style="paint-order:normal"/>
  <rect x="85.118" y="35.054" width="2.3128" height="2.313" style="paint-order:normal"/>
  <rect x="82.805" y="35.054" width="2.3128" height="2.313" style="paint-order:normal"/>
  <rect x="82.805" y="37.367" width="2.3128" height="2.313" style="paint-order:normal"/>
  <rect x="82.805" y="32.741" width="2.3128" height="2.313" style="paint-order:normal"/>
  <rect x="85.118" y="32.741" width="2.3128" height="2.313" style="paint-order:normal"/>
  <rect x="85.118" y="30.428" width="2.3128" height="2.313" style="paint-order:normal"/>
  <rect x="82.805" y="30.428" width="2.3128" height="2.313" style="paint-order:normal"/>
  <rect x="80.492" y="30.428" width="2.3128" height="2.313" style="paint-order:normal"/>
  <rect x="78.179" y="30.428" width="2.3128" height="2.313" style="paint-order:normal"/>
  <rect x="75.866" y="30.428" width="2.3128" height="2.313" style="paint-order:normal"/>
  <rect x="75.866" y="32.741" width="2.3128" height="2.313" style="paint-order:normal"/>
  <rect x="75.866" y="35.054" width="2.3128" height="2.313" style="paint-order:normal"/>
  <rect x="78.179" y="35.054" width="2.3128" height="2.313" style="paint-order:normal"/>
  <rect x="80.492" y="35.054" width="2.3128" height="2.313" style="paint-order:normal"/>
  <rect x="80.492" y="32.741" width="2.3128" height="2.313" style="paint-order:normal"/>
 </g>
</svg>
