<?xml version="1.0" encoding="UTF-8"?>
<svg width="653.63" height="305.06" version="1.1" viewBox="0 0 172.94 80.715" xmlns="http://www.w3.org/2000/svg" xmlns:cc="http://creativecommons.org/ns#" xmlns:dc="http://purl.org/dc/elements/1.1/" xmlns:rdf="http://www.w3.org/1999/02/22-rdf-syntax-ns#">
 <metadata>
  <rdf:RDF>
   <cc:Work rdf:about="">
    <dc:format>image/svg+xml</dc:format>
    <dc:type rdf:resource="http://purl.org/dc/dcmitype/StillImage"/>
    <dc:title/>
   </cc:Work>
  </rdf:RDF>
 </metadata>
 <rect x="2.0444" y="5.1765" width="169.28" height="70.532" fill="#1d232d" style="paint-order:normal"/>
 <g transform="matrix(7.2627,0,0,7.2627,-682.16,-695.34)" fill="#7b8694" stroke-width=".13769">
  <path d="m94.596 96.26h1.1654v0.19408h-1.1654z"/>
  <path d="m96.538 96.26h1.1654v0.19408h-1.1654z"/>
  <path d="m98.481 96.26h1.1654v0.19408h-1.1654z"/>
  <path d="m100.42 96.26h1.1654v0.19408h-1.1654z"/>
  <path d="m102.37 96.26h1.1654v0.19408h-1.1654z"/>
  <path d="m104.31 96.26h1.1654v0.19408h-1.1654z"/>
  <path d="m106.25 96.26h1.1654v0.19408h-1.1654z"/>
  <path d="m108.19 96.26h1.1654v0.19408h-1.1654z"/>
  <path d="m110.13 96.26h1.1654v0.19408h-1.1654z"/>
  <path d="m112.08 96.26h1.1654v0.19408h-1.1654z"/>
  <path d="m114.02 96.26h1.1654v0.19408h-1.1654z"/>
  <path d="m115.96 96.26h1.1654v0.19408h-1.1654z"/>
  <path d="m115.96 106.17h1.1654v0.19405h-1.1654z"/>
  <path d="m114.02 106.17h1.1654v0.19405h-1.1654z"/>
  <path d="m112.08 106.17h1.1654v0.19405h-1.1654z"/>
  <path d="m110.13 106.17h1.1654v0.19405h-1.1654z"/>
  <path d="m108.19 106.17h1.1654v0.19405h-1.1654z"/>
  <path d="m106.25 106.17h1.1654v0.19405h-1.1654z"/>
  <path d="m104.31 106.17h1.1654v0.19405h-1.1654z"/>
  <path d="m102.37 106.17h1.1654v0.19405h-1.1654z"/>
  <path d="m100.42 106.17h1.1654v0.19405h-1.1654z"/>
  <path d="m98.481 106.17h1.1654v0.19405h-1.1654z"/>
  <path d="m96.538 106.17h1.1654v0.19405h-1.1654z"/>
  <path d="m94.596 106.17h1.1654v0.19405h-1.1654z"/>
 </g>
 <path d="m108.96 39.247a22.461 22.461 0 0 1-22.461 22.461 22.461 22.461 0 0 1-22.461-22.461 22.461 22.461 0 0 1 22.461-22.461 22.461 22.461 0 0 1 22.461 22.461z" fill="#2c57df" stroke-width=".54153" style="paint-order:normal"/>
 <g transform="matrix(.54153 0 0 .54153 35.57 25.229)" fill="none" stroke="#f3f4f5" stroke-linejoin="round" stroke-width=".64781">
  <path d="m79.772 18.635-8.9576 14.929h18.911z"/>
  <path d="m79.772 18.635 18.911 0.99529-8.9576 13.934z"/>
  <path d="m79.772 18.635 10.948-15.925h-15.925z"/>
  <path d="m74.795 2.7101 10.948-12.939-16.92 2.9859z"/>
  <path d="m68.823-7.2428-1.9906-2.9859 13.934-5.9717z"/>
  <path d="m68.823-7.2428 11.943-8.9576 4.9765 5.9717z"/>
  <path d="m80.767-16.2 13.934-2.9859 4.9765 2.9859z"/>
  <path d="m80.767-16.2 4.9765 5.9717 13.934-5.9717z"/>
  <path d="m94.701-19.186 15.925 2.9859h-10.948z"/>
  <path d="m99.677-16.2 16.92 5.9717-5.9718-5.9717z"/>
  <path d="m110.63-16.2 14.929 8.9576-8.9576-2.9859z"/>
  <path d="m125.56-7.2428 4.9764 9.9529 4.9765 2.9859z"/>
  <path d="m116.6-10.229 13.934 12.939-4.9764-9.9529z"/>
  <path d="m130.53 2.7101 4.9765 2.9859 2.9859 12.939z"/>
  <path d="m130.53 2.7101v15.925h7.9623z"/>
  <path d="m138.49 18.635 0.99527 15.925-3.9812-0.99529z"/>
  <path d="m130.53 18.635 4.9765 14.929 2.9859-14.929z"/>
  <path d="m135.51 33.564-2.9859 16.92 6.967-15.925z"/>
  <path d="m135.51 33.564-7.9623 12.939 4.9765 3.9812z"/>
  <path d="m124.56 33.564h10.948l-7.9623 12.939z"/>
  <path d="m124.56 33.564 5.9718-14.929h-12.939z"/>
  <path d="m117.59 18.635h12.939l-9.9529-15.925z"/>
  <path d="m120.58 2.7101h9.9529v15.925z"/>
  <path d="m116.6-10.229 3.9811 12.939h9.9529z"/>
  <path d="m85.743-10.229 13.934-5.9717 3.9811 8.9576z"/>
  <path d="m103.66-7.2428 12.939-2.9859-16.92-5.9717z"/>
  <path d="m103.66-7.2428 16.92 9.9529-3.9811-12.939z"/>
  <path d="m103.66-7.2428 2.9859 12.939 13.934-2.9859z"/>
  <path d="m103.66-7.2428-12.939 9.9529 15.925 2.9859z"/>
  <path d="m103.66-7.2428-12.939 9.9529-4.9765-12.939z"/>
  <path d="m85.743-10.229 4.9765 12.939h-15.925z"/>
  <path d="m55.885 2.7101 10.948-12.939 1.9906 2.9859z"/>
  <path d="m55.885 2.7101 4.9765 2.9859 7.9623-12.939z"/>
  <path d="m60.861 5.696 13.934-2.9859-5.9717-9.9529z"/>
  <path d="m79.772 18.635 10.948-15.925 7.9623 16.92z"/>
  <path d="m98.682 19.63 7.9623-13.934-15.925-2.9859z"/>
  <path d="m98.682 19.63 7.9623-13.934 10.948 12.939z"/>
  <path d="m117.59 18.635-10.948-12.939 13.934-2.9859z"/>
  <path d="m89.725 33.564 8.9576-13.934 9.9529 14.929z"/>
  <path d="m108.64 34.559 8.9576-15.925-18.911 0.99529z"/>
  <path d="m108.64 34.559 8.9576-15.925 6.967 14.929z"/>
  <path d="m124.56 33.564-10.948 16.92 13.934-3.9812z"/>
  <path d="m108.64 34.559 4.9765 15.925 10.948-16.92z"/>
  <path d="m132.52 50.484-12.939 9.9529 1.9906 2.9859z"/>
  <path d="m132.52 50.484-12.939 9.9529 7.9623-13.934z"/>
  <path d="m127.55 46.503-13.934 3.9812 5.9718 9.9529z"/>
  <path d="m74.795 2.7101-10.948 16.92 15.925-0.99529z"/>
  <path d="m60.861 5.696 2.9859 13.934 10.948-16.92z"/>
  <path d="m55.885 2.7101-6.967 15.925h3.9812z"/>
  <path d="m55.885 2.7101-2.9859 15.925 7.9623-12.939z"/>
  <path d="m60.861 5.696-7.9623 12.939 10.948 0.99529z"/>
  <path d="m48.918 18.635 0.99529 14.929 2.9859-14.929z"/>
  <path d="m52.899 18.635-2.9859 14.929 7.9623 0.99529z"/>
  <path d="m52.899 18.635 10.948 0.99529-5.9717 14.929z"/>
  <path d="m57.875 34.559 12.939-0.99529-6.967-13.934z"/>
  <path d="m70.814 33.564-6.967-13.934 15.925-0.99529z"/>
  <path d="m49.913 33.564 2.9859 13.934 4.9765 1.9906z"/>
  <path d="m49.913 33.564 7.9623 0.99529v14.929z"/>
  <path d="m57.875 34.559v14.929l9.9529 0.99529z"/>
  <path d="m57.875 34.559 12.939-0.99529-2.9859 16.92z"/>
  <path d="m67.828 50.484 2.9859-16.92 10.948 12.939z"/>
  <path d="m81.762 46.503-10.948-12.939h18.911z"/>
  <path d="m81.762 46.503 15.925 3.9812-7.9623-16.92z"/>
  <path d="m89.725 33.564 18.911 0.99529-10.948 15.925z"/>
  <path d="m108.64 34.559-10.948 15.925h15.925z"/>
  <path d="m52.899 47.498 9.9529 12.939-4.9765-10.948z"/>
  <path d="m57.875 49.489 4.9765 10.948 8.9576 2.9859z"/>
  <path d="m57.875 49.489 9.9529 0.99529 3.9812 12.939z"/>
  <path d="m67.828 50.484 13.934-3.9812 2.9859 13.934z"/>
  <path d="m67.828 50.484 3.9812 12.939 12.939-2.9859z"/>
  <path d="m62.852 60.437 8.9576 2.9859 5.9717 5.9717z"/>
  <path d="m71.809 63.423 12.939-2.9859 3.9812 8.9576z"/>
  <path d="m71.809 63.423 5.9717 5.9717h10.948z"/>
  <path d="m77.781 69.395h10.948l4.9765 2.9859z"/>
  <path d="m84.748 60.437-2.9859-13.934 15.925 3.9812z"/>
  <path d="m84.748 60.437 12.939-9.9529 4.9765 12.939z"/>
  <path d="m97.687 50.484h15.925l-10.948 12.939z"/>
  <path d="m84.748 60.437 3.9812 8.9576 13.934-5.9717z"/>
  <path d="m102.66 63.423 10.948-12.939 5.9718 9.9529z"/>
  <path d="m102.66 63.423 4.9765 5.9717 11.943-8.9576z"/>
  <path d="m107.64 69.395 11.943-8.9576 1.9906 2.9859z"/>
  <path d="m88.729 69.395 13.934-5.9717 4.9765 5.9717z"/>
  <path d="m88.729 69.395 4.9765 2.9859 13.934-2.9859z"/>
  <path d="m130.53 18.635-5.9718 14.929h10.948z"/>
 </g>
</svg>
