<?xml version="1.0" encoding="UTF-8" standalone="no"?>
<svg
   xmlns:dc="http://purl.org/dc/elements/1.1/"
   xmlns:cc="http://creativecommons.org/ns#"
   xmlns:rdf="http://www.w3.org/1999/02/22-rdf-syntax-ns#"
   xmlns:svg="http://www.w3.org/2000/svg"
   xmlns="http://www.w3.org/2000/svg"
   xmlns:sodipodi="http://sodipodi.sourceforge.net/DTD/sodipodi-0.dtd"
   xmlns:inkscape="http://www.inkscape.org/namespaces/inkscape"
   inkscape:version="1.0rc1 (09960d6f05, 2020-04-09)"
   sodipodi:docname="lecture08.svg"
   id="svg124"
   viewBox="0 0 172.94 80.715"
   version="1.1"
   height="305.06"
   width="653.63">
  <defs
     id="defs128" />
  <sodipodi:namedview
     inkscape:current-layer="svg124"
     inkscape:window-maximized="1"
     inkscape:window-y="-8"
     inkscape:window-x="-8"
     inkscape:cy="184.78685"
     inkscape:cx="367.22451"
     inkscape:zoom="1.4442421"
     showgrid="false"
     id="namedview126"
     inkscape:window-height="1377"
     inkscape:window-width="2560"
     inkscape:pageshadow="2"
     inkscape:pageopacity="0"
     guidetolerance="10"
     gridtolerance="10"
     objecttolerance="10"
     borderopacity="1"
     bordercolor="#666666"
     pagecolor="#ffffff" />
  <metadata
     id="metadata2">
    <rdf:RDF>
      <cc:Work
         rdf:about="">
        <dc:format>image/svg+xml</dc:format>
        <dc:type
           rdf:resource="http://purl.org/dc/dcmitype/StillImage" />
        <dc:title></dc:title>
      </cc:Work>
    </rdf:RDF>
  </metadata>
  <rect
     id="rect4"
     style="paint-order:normal"
     fill="#1d232d"
     height="70.532"
     width="169.28"
     y="5.1765"
     x="2.0444" />
  <g
     id="g54"
     stroke-width=".13769"
     fill="#7b8694"
     transform="matrix(7.2627,0,0,7.2627,-682.16,-695.34)">
    <path
       id="path6"
       d="m94.596 96.26h1.1654v0.19408h-1.1654z" />
    <path
       id="path8"
       d="m96.538 96.26h1.1654v0.19408h-1.1654z" />
    <path
       id="path10"
       d="m98.481 96.26h1.1654v0.19408h-1.1654z" />
    <path
       id="path12"
       d="m100.42 96.26h1.1654v0.19408h-1.1654z" />
    <path
       id="path14"
       d="m102.37 96.26h1.1654v0.19408h-1.1654z" />
    <path
       id="path16"
       d="m104.31 96.26h1.1654v0.19408h-1.1654z" />
    <path
       id="path18"
       d="m106.25 96.26h1.1654v0.19408h-1.1654z" />
    <path
       id="path20"
       d="m108.19 96.26h1.1654v0.19408h-1.1654z" />
    <path
       id="path22"
       d="m110.13 96.26h1.1654v0.19408h-1.1654z" />
    <path
       id="path24"
       d="m112.08 96.26h1.1654v0.19408h-1.1654z" />
    <path
       id="path26"
       d="m114.02 96.26h1.1654v0.19408h-1.1654z" />
    <path
       id="path28"
       d="m115.96 96.26h1.1654v0.19408h-1.1654z" />
    <path
       id="path30"
       d="m115.96 106.17h1.1654v0.19405h-1.1654z" />
    <path
       id="path32"
       d="m114.02 106.17h1.1654v0.19405h-1.1654z" />
    <path
       id="path34"
       d="m112.08 106.17h1.1654v0.19405h-1.1654z" />
    <path
       id="path36"
       d="m110.13 106.17h1.1654v0.19405h-1.1654z" />
    <path
       id="path38"
       d="m108.19 106.17h1.1654v0.19405h-1.1654z" />
    <path
       id="path40"
       d="m106.25 106.17h1.1654v0.19405h-1.1654z" />
    <path
       id="path42"
       d="m104.31 106.17h1.1654v0.19405h-1.1654z" />
    <path
       id="path44"
       d="m102.37 106.17h1.1654v0.19405h-1.1654z" />
    <path
       id="path46"
       d="m100.42 106.17h1.1654v0.19405h-1.1654z" />
    <path
       id="path48"
       d="m98.481 106.17h1.1654v0.19405h-1.1654z" />
    <path
       id="path50"
       d="m96.538 106.17h1.1654v0.19405h-1.1654z" />
    <path
       id="path52"
       d="m94.596 106.17h1.1654v0.19405h-1.1654z" />
  </g>
  <g
     transform="matrix(0.9999903,0,0,0.9999903,1.875001,4.6037818)"
     id="g64">
    <rect
       transform="rotate(-30)"
       x="39.834"
       y="58.939999"
       width="31.431"
       height="15.715"
       fill="#1d232d"
       stroke="#a6aeb8"
       stroke-linecap="round"
       stroke-width="0.82663"
       id="rect58" />
    <path
       inkscape:connector-curvature="0"
       d="M 116.99,19.316 54.131,54.676 H 116.99 Z"
       fill="#1d232d"
       fill-rule="evenodd"
       stroke="#7b8694"
       stroke-width="0.82663"
       id="path60-3" />
    <path
       inkscape:connector-curvature="0"
       d="m 73.756,16.58 v 18.293 l 7.7736,13.464"
       fill="none"
       stroke="#6f8ce9"
       stroke-dasharray="0.495981, 1.48795"
       stroke-linecap="square"
       stroke-width="0.49598"
       id="path62-6" />
  </g>
  <circle
     transform="rotate(-29.999999)"
     cx="54.901459"
     cy="71.799835"
     r="0.78579235"
     fill="#6f8ce9"
     stroke-width="6.24833"
     id="circle66" />
  <g
     transform="matrix(6.2483393,0,0,6.2483393,-740.33771,-507.83123)"
     stroke="#6f8ce9"
     stroke-width="0.1323"
     id="g74">
    <path
       inkscape:connector-curvature="0"
       d="m 131.83,86.827 c -0.36201,-0.62703 -0.76689,-1.3283 -1.1004,-1.9059"
       id="path68-8" />
    <path
       inkscape:connector-curvature="0"
       d="m 130.8,87.393 c 0.34521,-0.18863 0.69045,-0.37727 1.0357,-0.5659"
       id="path70-6" />
    <path
       inkscape:connector-curvature="0"
       d="m 131.84,86.803 v 2.8138"
       id="path72-4" />
  </g>
  <path
     inkscape:connector-curvature="0"
     d="M 67.569401,52.768316 55.993509,59.279653 H 69.302394 A 13.750867,13.750867 0 0 0 67.569801,52.768316 Z"
     fill="#4c5561"
     stroke="#a6aeb8"
     stroke-linecap="round"
     stroke-width="0.826621"
     id="path76-1" />
  <g
     transform="matrix(6.2483393,0,0,6.2483393,-740.33771,-507.83123)"
     fill="#e8eaec"
     stroke-width="201.8"
     id="g96">
    <g
       transform="matrix(-3.3795e-4,-6.8627e-4,-6.9802e-4,3.4373e-4,130.97,84.898)"
       id="g82">
      <g
         fill="#e8eaec"
         stroke-width="201.8"
         id="g80">
        <path
           inkscape:connector-curvature="0"
           d="M 486.41,221.41 122.34,12.91 C 69.402,-17.408 26.488,7.47 26.488,68.473 v 415.65 c 0,61.004 42.914,85.882 95.852,55.563 l 364.07,-208.49 c 52.938,-30.317 52.938,-79.473 0,-109.79 z"
           fill="#e8eaec"
           stroke-width="201.8"
           id="path78-6" />
      </g>
    </g>
    <g
       transform="matrix(3.5467e-5,-7.6414e-4,-7.7723e-4,-3.6075e-5,130.92,87.616)"
       id="g88">
      <g
         fill="#e8eaec"
         stroke-width="201.8"
         id="g86">
        <path
           inkscape:connector-curvature="0"
           d="M 486.41,221.41 122.34,12.91 C 69.402,-17.408 26.488,7.47 26.488,68.473 v 415.65 c 0,61.004 42.914,85.882 95.852,55.563 l 364.07,-208.49 c 52.938,-30.317 52.938,-79.473 0,-109.79 z"
           fill="#e8eaec"
           stroke-width="201.8"
           id="path84-6" />
      </g>
    </g>
    <g
       transform="matrix(-6.6235e-4,-3.8271e-4,-3.8926e-4,6.7369e-4,132.1,89.445)"
       id="g94">
      <g
         fill="#e8eaec"
         stroke-width="201.8"
         id="g92">
        <path
           inkscape:connector-curvature="0"
           d="M 486.41,221.41 122.34,12.91 C 69.402,-17.408 26.488,7.47 26.488,68.473 v 415.65 c 0,61.004 42.914,85.882 95.852,55.563 l 364.07,-208.49 c 52.938,-30.317 52.938,-79.473 0,-109.79 z"
           fill="#e8eaec"
           stroke-width="201.8"
           id="path90-7" />
      </g>
    </g>
  </g>
</svg>
