<?xml version="1.0" encoding="UTF-8"?>
<svg width="653.63" height="305.06" version="1.1" viewBox="0 0 172.94 80.715" xmlns="http://www.w3.org/2000/svg" xmlns:cc="http://creativecommons.org/ns#" xmlns:dc="http://purl.org/dc/elements/1.1/" xmlns:rdf="http://www.w3.org/1999/02/22-rdf-syntax-ns#">
 <metadata>
  <rdf:RDF>
   <cc:Work rdf:about="">
    <dc:format>image/svg+xml</dc:format>
    <dc:type rdf:resource="http://purl.org/dc/dcmitype/StillImage"/>
    <dc:title/>
   </cc:Work>
  </rdf:RDF>
 </metadata>
 <rect x="2.0444" y="5.1765" width="169.28" height="70.532" fill="#1d232d" style="paint-order:normal"/>
 <g transform="matrix(7.2627,0,0,7.2627,-682.16,-695.34)" fill="#7b8694" stroke-width=".13769">
  <path d="m94.596 96.26h1.1654v0.19408h-1.1654z"/>
  <path d="m96.538 96.26h1.1654v0.19408h-1.1654z"/>
  <path d="m98.481 96.26h1.1654v0.19408h-1.1654z"/>
  <path d="m100.42 96.26h1.1654v0.19408h-1.1654z"/>
  <path d="m102.37 96.26h1.1654v0.19408h-1.1654z"/>
  <path d="m104.31 96.26h1.1654v0.19408h-1.1654z"/>
  <path d="m106.25 96.26h1.1654v0.19408h-1.1654z"/>
  <path d="m108.19 96.26h1.1654v0.19408h-1.1654z"/>
  <path d="m110.13 96.26h1.1654v0.19408h-1.1654z"/>
  <path d="m112.08 96.26h1.1654v0.19408h-1.1654z"/>
  <path d="m114.02 96.26h1.1654v0.19408h-1.1654z"/>
  <path d="m115.96 96.26h1.1654v0.19408h-1.1654z"/>
  <path d="m115.96 106.17h1.1654v0.19405h-1.1654z"/>
  <path d="m114.02 106.17h1.1654v0.19405h-1.1654z"/>
  <path d="m112.08 106.17h1.1654v0.19405h-1.1654z"/>
  <path d="m110.13 106.17h1.1654v0.19405h-1.1654z"/>
  <path d="m108.19 106.17h1.1654v0.19405h-1.1654z"/>
  <path d="m106.25 106.17h1.1654v0.19405h-1.1654z"/>
  <path d="m104.31 106.17h1.1654v0.19405h-1.1654z"/>
  <path d="m102.37 106.17h1.1654v0.19405h-1.1654z"/>
  <path d="m100.42 106.17h1.1654v0.19405h-1.1654z"/>
  <path d="m98.481 106.17h1.1654v0.19405h-1.1654z"/>
  <path d="m96.538 106.17h1.1654v0.19405h-1.1654z"/>
  <path d="m94.596 106.17h1.1654v0.19405h-1.1654z"/>
 </g>
 <g transform="matrix(.20919 0 0 .20943 87.614 78.594)" fill="none" stroke="#a6aeb8" stroke-linecap="round" stroke-width="1.5563">
  <path d="m-176.83-63.375h341.3v-249.99h-340.59z"/>
  <path d="m-145.81-86.101h279.24v-204.54h-278.67z"/>
  <path d="m-114.78-108.83h217.19v-159.09h-216.74z"/>
  <path d="m-83.752-131.55h155.14v-113.63h-154.81z"/>
  <path d="m-52.725-154.28h93.081v-68.18h-92.888z"/>
  <path d="m-28.937-171.71h45.503v-33.33h-45.409z"/>
  <path d="m-6.1835-188.37-170.65 125"/>
  <path d="m-176.13-313.37 169.94 125"/>
  <path d="m164.47-63.375-170.65-125"/>
  <path d="m164.47-313.37-170.65 125"/>
  <path d="m-175.98-206.55 170.65 18.181"/>
  <path d="m-175.98-245.19 170.65 56.816"/>
  <path d="m-175.98-279.28 170.65 90.906"/>
  <path d="m-175.98-170.19 170.65-18.181"/>
  <path d="m-175.98-131.55 170.65-56.816"/>
  <path d="m-175.98-97.465 170.65-90.906"/>
  <path d="m164.47-206.55-170.65 18.181"/>
  <path d="m164.47-245.19-170.65 56.816"/>
  <path d="m164.47-279.28-170.65 90.906"/>
  <path d="m164.47-170.19-170.65-18.181"/>
  <path d="m164.47-131.55-170.65-56.816"/>
  <path d="m164.47-97.465-170.65-90.906"/>
  <path d="m-119.95-63.375 114.62-125"/>
  <path d="m-63.066-63.375 56.883-125"/>
  <path d="m-6.1835-63.375 0.85325-125"/>
  <path d="m50.699-63.375-56.03-125"/>
  <path d="m107.58-63.375-112.91-125"/>
  <path d="m107.58-313.37-114.62 125"/>
  <path d="m50.699-313.37-56.883 125"/>
  <path d="m-6.1835-313.37-0.8532 125"/>
  <path d="m-63.066-313.37 56.03 125"/>
  <path d="m-119.95-313.37 112.91 125"/>
 </g>
 <ellipse transform="rotate(-90)" cx="-39.144" cy="86.321" rx="2.8558" ry="2.8558" fill="#1d232d" stroke-dashoffset="1.2" stroke-linecap="square" stroke-width=".055381"/>
</svg>
