<?xml version="1.0" encoding="UTF-8"?>
<svg version="1.1" viewBox="0 0 160.29 69.461" xmlns="http://www.w3.org/2000/svg" xmlns:cc="http://creativecommons.org/ns#" xmlns:dc="http://purl.org/dc/elements/1.1/" xmlns:rdf="http://www.w3.org/1999/02/22-rdf-syntax-ns#">
 <metadata>
  <rdf:RDF>
   <cc:Work rdf:about="">
    <dc:format>image/svg+xml</dc:format>
    <dc:type rdf:resource="http://purl.org/dc/dcmitype/StillImage"/>
    <dc:title/>
   </cc:Work>
  </rdf:RDF>
 </metadata>
 <rect y="1.3358" width="160.29" height="66.789" fill="#1d232d" style="paint-order:normal"/>
 <g fill="#7b8694">
  <path d="m33.395 14.694v13.358h-13.358v13.358h13.358v13.358h13.358v-13.358h13.358v-13.358h-13.358v-13.358z"/>
  <circle cx="133.58" cy="34.73" r="6.6789"/>
  <circle cx="120.22" cy="21.373" r="6.6789"/>
  <circle cx="120.22" cy="48.088" r="6.6789"/>
 </g>
 <g fill="#7b8694">
  <path d="m1.3359 0h10.686v1.3358h-10.686z"/>
  <path d="m14.694 0h10.686v1.3358h-10.686z"/>
  <path d="m28.052 0h10.686v1.3358h-10.686z"/>
  <path d="m41.409 0h10.686v1.3358h-10.686z"/>
  <path d="m54.767 0h10.686v1.3358h-10.686z"/>
  <path d="m68.125 0h10.686v1.3358h-10.686z"/>
  <path d="m81.483 0h10.686v1.3358h-10.686z"/>
  <path d="m94.841 0h10.686v1.3358h-10.686z"/>
  <path d="m108.2 0h10.686v1.3358h-10.686z"/>
  <path d="m121.56 0h10.686v1.3358h-10.686z"/>
  <path d="m134.91 0h10.686v1.3358h-10.686z"/>
  <path d="m148.27 0h10.686v1.3358h-10.686z"/>
  <path d="m1.3359 68.125h10.686v1.3358h-10.686z"/>
  <path d="m14.694 68.125h10.686v1.3358h-10.686z"/>
  <path d="m28.052 68.125h10.686v1.3358h-10.686z"/>
  <path d="m41.409 68.125h10.686v1.3358h-10.686z"/>
  <path d="m54.767 68.125h10.686v1.3358h-10.686z"/>
  <path d="m68.125 68.125h10.686v1.3358h-10.686z"/>
  <path d="m81.483 68.125h10.686v1.3358h-10.686z"/>
  <path d="m94.841 68.125h10.686v1.3358h-10.686z"/>
  <path d="m108.2 68.125h10.686v1.3358h-10.686z"/>
  <path d="m121.56 68.125h10.686v1.3358h-10.686z"/>
  <path d="m134.91 68.125h10.686v1.3358h-10.686z"/>
  <path d="m148.27 68.125h10.686v1.3358h-10.686z"/>
 </g>
</svg>
