<?xml version="1.0" encoding="UTF-8" standalone="no"?>
<svg
   xmlns:dc="http://purl.org/dc/elements/1.1/"
   xmlns:cc="http://creativecommons.org/ns#"
   xmlns:rdf="http://www.w3.org/1999/02/22-rdf-syntax-ns#"
   xmlns:svg="http://www.w3.org/2000/svg"
   xmlns="http://www.w3.org/2000/svg"
   xmlns:sodipodi="http://sodipodi.sourceforge.net/DTD/sodipodi-0.dtd"
   xmlns:inkscape="http://www.inkscape.org/namespaces/inkscape"
   width="1200"
   height="300"
   viewBox="0 0 1200 300"
   zoomAndPan="disable"
   version="1.1"
   id="svg62"
   sodipodi:docname="logo_light.svg"
   inkscape:version="1.0rc1 (09960d6f05, 2020-04-09)">
  <path
     inkscape:connector-curvature="0"
     d="M 350,50 100,300 H 1100 L 850,50 800,100 750,50 700,100 650,50 600,100 550,50 500,100 450,50 400,100 Z"
     style="opacity:1;fill:#7b8694;fill-opacity:0.237903"
     id="polygon872" />
  <metadata
     id="metadata68">
    <rdf:RDF>
      <cc:Work
         rdf:about="">
        <dc:format>image/svg+xml</dc:format>
        <dc:type
           rdf:resource="http://purl.org/dc/dcmitype/StillImage" />
        <dc:title></dc:title>
      </cc:Work>
    </rdf:RDF>
  </metadata>
  <defs
     id="defs66" />
  <sodipodi:namedview
     inkscape:document-rotation="0"
     pagecolor="#4e4e4e"
     bordercolor="#666666"
     borderopacity="1"
     objecttolerance="10"
     gridtolerance="10"
     guidetolerance="10"
     inkscape:pageopacity="0"
     inkscape:pageshadow="2"
     inkscape:window-width="2560"
     inkscape:window-height="1377"
     id="namedview64"
     showgrid="false"
     inkscape:zoom="0.37083822"
     inkscape:cx="37.631861"
     inkscape:cy="-275.19554"
     inkscape:window-x="-8"
     inkscape:window-y="-8"
     inkscape:window-maximized="1"
     inkscape:current-layer="svg62" />
  <style
     type="text/css"
     id="style2"><![CDATA[
		line
		{
			stroke: rgba(255,255,255,0.125);
			stroke-width: 0.85px;
		}
		
		polygon
		{
			fill: rgba(255,255,255,0.075);
		}
    ]]></style>
  <!-- Middle line -->
  <!-- Lines -->
  <line
     style="opacity:1;fill:#7b8694;fill-opacity:0.237903"
     x1="0"
     y1="300"
     x2="300"
     y2="0"
     id="line16" />
  <line
     style="opacity:1;fill:#7b8694;fill-opacity:0.237903"
     x1="100"
     y1="300"
     x2="400"
     y2="0"
     id="line18" />
  <line
     style="opacity:1;fill:#7b8694;fill-opacity:0.237903"
     x1="200"
     y1="300"
     x2="500"
     y2="0"
     id="line20" />
  <line
     style="opacity:1;fill:#7b8694;fill-opacity:0.237903"
     x1="300"
     y1="300"
     x2="600"
     y2="0"
     id="line22" />
  <line
     style="opacity:1;fill:#7b8694;fill-opacity:0.237903"
     x1="1200"
     y1="300"
     x2="900"
     y2="0"
     id="line38" />
  <line
     style="opacity:1;fill:#7b8694;fill-opacity:0.237903"
     x1="1100"
     y1="300"
     x2="800"
     y2="0"
     id="line40" />
  <line
     style="opacity:1;fill:#7b8694;fill-opacity:0.237903"
     x1="1000"
     y1="300"
     x2="700"
     y2="0"
     id="line42" />
  <line
     style="opacity:1;fill:#7b8694;fill-opacity:0.237903"
     x1="900"
     y1="300"
     x2="600"
     y2="0"
     id="line44" />
  <!-- Fills -->
  <polygon
     transform="translate(-300,-600)"
     style="opacity:1;fill:#7b8694;fill-opacity:0.237903"
     points="650,650 700,600 750,650 800,600 850,650 900,600 900,900 900,600 950,650 1000,600 1050,650 1100,600 1150,650 1200,600 1500,900 300,900 600,600 "
     id="polygon50" />
  <line
     style="opacity:1;fill:#7b8694;fill-opacity:0.237903"
     x1="400"
     y1="300"
     x2="600"
     y2="100"
     id="line24" />
  <line
     style="opacity:1;fill:#7b8694;fill-opacity:0.237903"
     x1="500"
     y1="300"
     x2="600"
     y2="200"
     id="line26" />
  <line
     style="opacity:1;fill:#7b8694;fill-opacity:0.237903"
     x1="800"
     y1="300"
     x2="600"
     y2="100"
     id="line46" />
  <line
     style="opacity:1;fill:#7b8694;fill-opacity:0.237903"
     x1="700"
     y1="300"
     x2="600"
     y2="200"
     id="line48" />
  <path
     inkscape:connector-curvature="0"
     d="M 400,100 200,300 h 800 l -200,-200 -50,50 -50,-50 -50,50 -50,-50 -50,50 -50,-50 -50,50 z"
     style="opacity:1;fill:#7b8694;fill-opacity:0.237903"
     id="polygon54" />
  <path
     inkscape:connector-curvature="0"
     d="M 450,150 300,300 h 600 l -150,-150 -50,50 -50,-50 -50,50 -50,-50 -50,50 z"
     style="opacity:1;fill:#7b8694;fill-opacity:0.237903"
     id="polygon56" />
  <path
     inkscape:connector-curvature="0"
     d="M 500,200 400,300 h 400 l -100,-100 -50,50 -50,-50 -50,50 z"
     style="opacity:1;fill:#7b8694;fill-opacity:0.237903"
     id="polygon58" />
  <path
     inkscape:connector-curvature="0"
     d="m 550,250 -50,50 h 100 z m 50,50 h 100 l -50,-50 z"
     style="opacity:1;fill:#7b8694;fill-opacity:0.237903"
     id="polygon60" />
</svg>
