<?xml version="1.0" encoding="UTF-8" standalone="no"?>
<svg
   xmlns:dc="http://purl.org/dc/elements/1.1/"
   xmlns:cc="http://creativecommons.org/ns#"
   xmlns:rdf="http://www.w3.org/1999/02/22-rdf-syntax-ns#"
   xmlns:svg="http://www.w3.org/2000/svg"
   xmlns="http://www.w3.org/2000/svg"
   xmlns:sodipodi="http://sodipodi.sourceforge.net/DTD/sodipodi-0.dtd"
   xmlns:inkscape="http://www.inkscape.org/namespaces/inkscape"
   width="639.7851"
   height="277.34772"
   version="1.1"
   viewBox="0 0 169.27781 73.383662"
   id="svg282"
   sodipodi:docname="chapter_storytelling.svg"
   inkscape:version="1.0rc1 (09960d6f05, 2020-04-09)">
  <defs
     id="defs286" />
  <sodipodi:namedview
     pagecolor="#ffffff"
     bordercolor="#666666"
     borderopacity="1"
     objecttolerance="10"
     gridtolerance="10"
     guidetolerance="10"
     inkscape:pageopacity="0"
     inkscape:pageshadow="2"
     inkscape:window-width="2560"
     inkscape:window-height="1377"
     id="namedview284"
     showgrid="false"
     inkscape:zoom="1"
     inkscape:cx="234.84475"
     inkscape:cy="67.797216"
     inkscape:window-x="-8"
     inkscape:window-y="-8"
     inkscape:window-maximized="1"
     inkscape:current-layer="svg282"
     inkscape:document-rotation="0" />
  <metadata
     id="metadata2">
    <rdf:RDF>
      <cc:Work
         rdf:about="">
        <dc:format>image/svg+xml</dc:format>
        <dc:type
           rdf:resource="http://purl.org/dc/dcmitype/StillImage" />
        <dc:title />
      </cc:Work>
    </rdf:RDF>
  </metadata>
  <g
     style="font-weight:bold;font-size:2.9879px;line-height:1.25;font-family:'Segoe UI';-inkscape-font-specification:'Segoe UI Bold';fill:#a0f1c6;fill-opacity:1;stroke:none;stroke-linecap:square;stroke-miterlimit:4;stroke-dasharray:0.528399, 1.0568;stroke-dashoffset:0;stroke-opacity:1"
     id="g82"
     stroke-width="0.13769"
     transform="matrix(7.2627969,0,0,7.2627969,-684.21384,-699.11683)">
    <rect
       id="rect4-4"
       style="stroke:none;paint-order:normal"
       fill="#1d232d"
       height="9.7115002"
       width="23.308001"
       y="96.454002"
       x="94.208" />
    <g
       style="stroke:none"
       id="g64"
       fill="#7b8694">
      <path
         style="stroke:none"
         inkscape:connector-curvature="0"
         id="path6"
         d="m 94.596,96.26 h 1.1654 v 0.19408 H 94.596 Z" />
      <path
         style="stroke:none"
         inkscape:connector-curvature="0"
         id="path8"
         d="m 96.538,96.26 h 1.1654 v 0.19408 H 96.538 Z" />
      <path
         style="stroke:none"
         inkscape:connector-curvature="0"
         id="path10"
         d="m 98.481,96.26 h 1.1654 v 0.19408 H 98.481 Z" />
      <path
         style="stroke:none"
         inkscape:connector-curvature="0"
         id="path12"
         d="m 100.42,96.26 h 1.1654 v 0.19408 H 100.42 Z" />
      <path
         style="stroke:none"
         inkscape:connector-curvature="0"
         id="path14"
         d="m 102.37,96.26 h 1.1654 v 0.19408 H 102.37 Z" />
      <path
         style="stroke:none"
         inkscape:connector-curvature="0"
         id="path16"
         d="m 104.31,96.26 h 1.1654 v 0.19408 H 104.31 Z" />
      <path
         style="stroke:none"
         inkscape:connector-curvature="0"
         id="path18"
         d="m 106.25,96.26 h 1.1654 v 0.19408 H 106.25 Z" />
      <path
         style="stroke:none"
         inkscape:connector-curvature="0"
         id="path20"
         d="m 108.19,96.26 h 1.1654 v 0.19408 H 108.19 Z" />
      <path
         inkscape:connector-curvature="0"
         style="fill:#7b8694;fill-opacity:1;stroke:none"
         id="path22-8"
         d="m 110.13,96.26 h 1.1654 v 0.19408 H 110.13 Z" />
      <path
         style="stroke:none"
         inkscape:connector-curvature="0"
         id="path24-9"
         d="m 112.08,96.26 h 1.1654 v 0.19408 H 112.08 Z" />
      <path
         style="stroke:none"
         inkscape:connector-curvature="0"
         id="path26-1"
         d="m 114.02,96.26 h 1.1654 v 0.19408 H 114.02 Z" />
      <path
         style="stroke:none"
         inkscape:connector-curvature="0"
         id="path28-9"
         d="m 115.96,96.26 h 1.1654 v 0.19408 H 115.96 Z" />
      <path
         style="stroke:none"
         inkscape:connector-curvature="0"
         id="path30"
         d="m 115.96,106.17 h 1.1654 v 0.19405 H 115.96 Z" />
      <path
         style="stroke:none"
         inkscape:connector-curvature="0"
         id="path32"
         d="m 114.02,106.17 h 1.1654 v 0.19405 H 114.02 Z" />
      <path
         style="stroke:none"
         inkscape:connector-curvature="0"
         id="path34"
         d="m 112.08,106.17 h 1.1654 v 0.19405 H 112.08 Z" />
      <path
         style="stroke:none"
         inkscape:connector-curvature="0"
         id="path36"
         d="m 110.13,106.17 h 1.1654 v 0.19405 H 110.13 Z" />
      <path
         style="stroke:none"
         inkscape:connector-curvature="0"
         id="path38"
         d="m 108.19,106.17 h 1.1654 v 0.19405 H 108.19 Z" />
      <path
         style="stroke:none"
         inkscape:connector-curvature="0"
         id="path40"
         d="m 106.25,106.17 h 1.1654 v 0.19405 H 106.25 Z" />
      <path
         style="stroke:none"
         inkscape:connector-curvature="0"
         id="path42"
         d="m 104.31,106.17 h 1.1654 v 0.19405 H 104.31 Z" />
      <path
         style="stroke:none"
         inkscape:connector-curvature="0"
         id="path44"
         d="m 102.37,106.17 h 1.1654 v 0.19405 H 102.37 Z" />
      <path
         style="stroke:none"
         inkscape:connector-curvature="0"
         id="path46"
         d="m 100.42,106.17 h 1.1654 v 0.19405 H 100.42 Z" />
      <path
         style="stroke:none"
         inkscape:connector-curvature="0"
         id="path48"
         d="m 98.481,106.17 h 1.1654 v 0.19405 H 98.481 Z" />
      <path
         style="stroke:none"
         inkscape:connector-curvature="0"
         id="path50"
         d="m 96.538,106.17 h 1.1654 v 0.19405 H 96.538 Z" />
      <path
         style="stroke:none"
         inkscape:connector-curvature="0"
         id="path52"
         d="m 94.596,106.17 h 1.1654 v 0.19405 H 94.596 Z" />
    </g>
  </g>
  <path
     sodipodi:nodetypes="ssssscssssssssscsscssssssssssssssssccssscsscssssssssssssscssscsccscsssssscssssssssssscss"
     inkscape:connector-curvature="0"
     id="path885"
     d="M 85.875458,61.385349 C 83.184349,60.43696 82.223234,60.13091 81.936037,60.13091 c -0.145827,0 -1.81027,-0.305402 -3.698754,-0.678669 -5.134553,-1.014874 -6.635412,-0.966957 -8.913037,0.284563 -1.065893,0.585691 -2.232227,0.930305 -3.124146,0.923088 -0.752368,-0.0061 -4.524054,-0.773284 -3.86613,-0.786409 0.262354,-0.0052 1.103222,0.08538 1.868596,0.20137 2.206051,0.334311 3.176784,0.151553 4.916035,-0.925539 2.347127,-1.453539 4.048735,-1.644546 9.021872,-1.012718 1.101143,0.139899 2.692785,0.314691 3.536992,0.388428 1.010145,0.08823 2.19691,0.313081 3.471161,0.657662 2.837564,0.767334 3.901084,0.967756 5.538154,1.043674 2.01226,0.09331 3.45116,-0.176892 5.90833,-1.109525 1.08157,-0.410512 2.21788,-0.826742 2.52515,-0.924954 0.62355,-0.199319 4.17981,-0.536687 4.46444,-0.423526 0.10029,0.03985 -0.0279,0.0832 -0.28487,0.0963 -0.25694,0.01317 -0.61731,0.07194 -0.80083,0.130703 -0.2735,0.08759 -0.21332,0.112479 0.33368,0.137999 l 0.66735,0.03114 -0.60061,0.104285 c -0.33035,0.05736 -1.03207,0.167309 -1.55939,0.244331 -1.38577,0.202412 -1.62951,0.280789 -1.98795,0.639221 -0.66217,0.662177 -4.60905,2.134508 -6.59649,2.460734 -0.62398,0.102423 -2.0054,0.186221 -3.06984,0.186221 -1.06443,0 -1.96823,0.04394 -2.00843,0.09765 -0.0402,0.0537 -0.851042,-0.176514 -1.801862,-0.511599 z m 16.056292,-3.215045 c -0.1285,-0.03357 -0.33869,-0.03357 -0.46716,0 -0.12849,0.03357 -0.0233,0.06104 0.23358,0.06104 0.25693,0 0.36204,-0.02747 0.23358,-0.06104 z M 73.529952,40.35554 c 0.400568,-0.741792 1.046233,-1.820955 1.434816,-2.39814 0.388596,-0.577185 0.706533,-1.173232 0.706533,-1.324548 0,-1.880978 2.177504,-5.51076 6.201112,-10.336947 0.795628,-0.954321 1.475918,-1.76516 1.511779,-1.801865 0.03592,-0.0367 0.03259,0.188528 -0.0067,0.500518 -0.03977,0.311989 -0.05587,0.567253 -0.03578,0.567253 0.02022,0 0.698632,-0.73576 1.507708,-1.635024 1.846624,-2.052447 4.5984,-4.83772 7.10589,-7.192402 2.28582,-2.146524 6.31127,-5.727327 6.37117,-5.667426 0.023,0.02308 -0.1914,0.426067 -0.47661,0.895542 -0.28522,0.469473 -0.71396,1.243814 -0.95276,1.720753 l -0.43419,0.867165 1.18309,-1.142726 c 0.65069,-0.628499 1.66357,-1.494762 2.25084,-1.925029 2.13819,-1.5665408 2.4403,-1.782534 4.65872,-3.3308185 2.60464,-1.8178317 3.32204,-2.210332 4.03998,-2.210332 0.98212,0 1.43233,0.6108864 1.58558,2.151444 0.13776,1.3847919 -0.45655,4.1315535 -1.21113,5.5977065 -0.45312,0.880389 -2.11809,2.996811 -3.38885,4.307716 -1.1186,1.153941 -2.05504,1.98038 -3.54998,3.132964 -0.21955,0.169272 0.25427,-0.02815 1.05296,-0.438701 0.79868,-0.41056 1.48901,-0.709605 1.53407,-0.664547 0.0922,0.09217 -0.095,0.255554 -2.71928,2.373731 -2.21008,1.783877 -4.18452,3.316982 -6.47335,5.026404 -0.91762,0.685324 -1.69341,1.266485 -1.72401,1.291469 -0.0306,0.02498 -0.0254,0.07561 0.012,0.112506 0.0577,0.05772 0.44536,-0.05894 1.77928,-0.535442 0.34037,-0.121591 -1.35148,0.989687 -3.67637,2.414774 -6.278496,3.848541 -11.515619,6.435564 -14.075334,6.952905 l -1.067768,0.215808 -1.001034,1.12961 c -0.550571,0.621285 -1.06137,1.198101 -1.135114,1.281811 -0.812775,0.922677 -1.282192,1.589486 -1.528164,1.501884 -0.245972,-0.0876 0.120342,-0.696225 0.520896,-1.438016 z m 5.014707,-5.650936 c 3.506717,-4.394682 9.923501,-10.280633 18.001881,-16.512658 1.62215,-1.251393 3.16301,-2.441055 3.42414,-2.643693 0.26113,-0.20264 1.84496,-1.365936 3.51961,-2.585102 3.98141,-2.898493 3.91723,-2.959294 -0.2127,-0.201553 -9.18862,6.13565 -19.143366,14.55724 -23.665123,20.020414 -0.990764,1.197026 -2.473027,3.314284 -2.473027,3.532447 0,0.147138 0.03778,0.10382 1.405219,-1.609855 z m 25.455901,22.931814 c 0.1285,-0.03357 0.33868,-0.03357 0.46714,0 0.1285,0.03357 0.0234,0.06104 -0.23357,0.06104 -0.25694,0 -0.36204,-0.02747 -0.23357,-0.06104 z m 1.53647,-0.135864 c 0.16603,-0.03192 0.40627,-0.03071 0.53389,0.0027 0.12756,0.03341 -0.008,0.05953 -0.30187,0.05805 -0.29363,-0.0015 -0.39804,-0.02881 -0.23202,-0.06074 z m 1.20124,-0.133472 c 0.16603,-0.03192 0.40627,-0.03071 0.53389,0.0027 0.12756,0.0334 -0.008,0.05952 -0.30187,0.05805 -0.29364,-0.0015 -0.39804,-0.02881 -0.23202,-0.06074 z"
     style="fill:#ffffff;stroke-width:0.133472;fill-opacity:1" />
  <path
     sodipodi:nodetypes="cscsscscscssccssssccccscsssccssc"
     style="fill:#7893ea;stroke-width:0.133472;fill-opacity:1"
     d="m 73.312302,42.031227 c 0.0386,0.100574 0.492058,0.348392 1.007698,0.550695 l 0.93752,0.367824 -0.32226,0.635946 c -0.17725,0.349772 -0.71898,1.344961 -1.20388,2.211533 -0.741948,1.32597 -0.868808,1.643961 -0.800658,2.007165 0.19774,1.054101 -0.20444,1.359957 -2.187498,1.663527 -0.76842,0.117627 -1.12834,0.232665 -1.18126,0.37754 -0.0419,0.114594 -0.61194,1.499696 -1.26685,3.077994 -0.654908,1.5783 -1.218188,2.936148 -1.251718,3.017439 -0.0335,0.08129 -0.3131,0.221884 -0.62126,0.312432 -1.325178,0.38939 -2.728748,1.269126 -4.290036,2.688936 -0.43637,0.396825 -0.74063,0.631407 -0.67613,0.521293 l -7.6e-4,10e-7 c 0.0645,-0.110111 0.4277,-0.650673 0.80712,-1.201242 0.37943,-0.55057 0.973378,-1.419856 1.319888,-1.931748 0.45135,-0.666771 0.74946,-0.969582 1.05117,-1.067772 0.89736,-0.292031 0.77676,-1.557696 -0.15701,-1.648 -0.67112,-0.0649 -0.99498,0.294466 -0.91387,1.014064 0.059,0.523896 -0.0288,0.734788 -1.052588,2.528079 -0.61436,1.076077 -1.17122,2.01071 -1.23748,2.076961 -0.0662,0.06626 -0.008,-0.286267 0.13017,-0.783376 0.40312,-1.453778 0.55157,-2.931206 0.40028,-3.983788 l -0.13308,-0.925942 0.98595,-1.343071 c 0.542278,-0.73869 1.642768,-2.153911 2.445548,-3.144936 1.267018,-1.564147 1.444238,-1.84263 1.343268,-2.110863 -0.15611,-0.414695 -0.14788,-1.584915 0.0133,-1.886003 0.13438,-0.251104 1.03762,-0.674206 1.44141,-0.675203 0.19027,-5.54e-4 1.384518,-1.392298 3.119906,-3.636056 0.21945,-0.283745 0.22002,-0.28353 0.91535,0.341637 0.38268,0.344059 0.73434,0.623851 0.78145,0.621761"
     id="path928"
     inkscape:connector-curvature="0" />
</svg>
