<?xml version="1.0" encoding="UTF-8" standalone="no"?>
<svg
   xmlns:dc="http://purl.org/dc/elements/1.1/"
   xmlns:cc="http://creativecommons.org/ns#"
   xmlns:rdf="http://www.w3.org/1999/02/22-rdf-syntax-ns#"
   xmlns:svg="http://www.w3.org/2000/svg"
   xmlns="http://www.w3.org/2000/svg"
   xmlns:xlink="http://www.w3.org/1999/xlink"
   xmlns:sodipodi="http://sodipodi.sourceforge.net/DTD/sodipodi-0.dtd"
   xmlns:inkscape="http://www.inkscape.org/namespaces/inkscape"
   width="639.7851"
   height="277.34772"
   version="1.1"
   viewBox="0 0 169.27686 73.382683"
   id="svg84"
   sodipodi:docname="minitalk_blizzard.svg"
   inkscape:version="1.0rc1 (09960d6f05, 2020-04-09)">
  <defs
     id="defs88">
    <linearGradient
       id="linearGradient5577"
       x1="184.53"
       x2="184.53"
       y1="227.50999"
       y2="1.3710001"
       gradientUnits="userSpaceOnUse"
       xlink:href="#linearGradient5571" />
    <linearGradient
       id="linearGradient5571">
      <stop
         stop-color="#0566b0"
         offset="0"
         id="stop3" />
      <stop
         stop-color="#0566b0"
         stop-opacity="0"
         offset="1"
         id="stop5" />
    </linearGradient>
    <linearGradient
       y2="1.3710001"
       x2="184.53"
       y1="227.50999"
       x1="184.53"
       gradientUnits="userSpaceOnUse"
       id="linearGradient909"
       xlink:href="#linearGradient5571"
       inkscape:collect="always" />
  </defs>
  <sodipodi:namedview
     inkscape:document-rotation="0"
     pagecolor="#ffffff"
     bordercolor="#666666"
     borderopacity="1"
     objecttolerance="10"
     gridtolerance="10"
     guidetolerance="10"
     inkscape:pageopacity="0"
     inkscape:pageshadow="2"
     inkscape:window-width="2560"
     inkscape:window-height="1377"
     id="namedview86"
     showgrid="false"
     inkscape:zoom="0.51061669"
     inkscape:cx="116.4989"
     inkscape:cy="150.11292"
     inkscape:window-x="-8"
     inkscape:window-y="-8"
     inkscape:window-maximized="1"
     inkscape:current-layer="svg84" />
  <metadata
     id="metadata2">
    <rdf:RDF>
      <cc:Work
         rdf:about="">
        <dc:format>image/svg+xml</dc:format>
        <dc:type
           rdf:resource="http://purl.org/dc/dcmitype/StillImage" />
        <dc:title></dc:title>
      </cc:Work>
    </rdf:RDF>
  </metadata>
  <g
     transform="matrix(7.2627,0,0,7.2627,-684.20554,-699.1075)"
     stroke-width="0.13769"
     id="g82">
    <rect
       x="94.208"
       y="96.454002"
       width="23.308001"
       height="9.7115002"
       fill="#1d232d"
       style="paint-order:normal"
       id="rect4" />
    <g
       fill="#7b8694"
       id="g64">
      <path
         inkscape:connector-curvature="0"
         d="m 94.596,96.26 h 1.1654 v 0.19408 H 94.596 Z"
         id="path6" />
      <path
         inkscape:connector-curvature="0"
         d="m 96.538,96.26 h 1.1654 v 0.19408 H 96.538 Z"
         id="path8" />
      <path
         inkscape:connector-curvature="0"
         d="m 98.481,96.26 h 1.1654 v 0.19408 H 98.481 Z"
         id="path10" />
      <path
         inkscape:connector-curvature="0"
         d="m 100.42,96.26 h 1.1654 v 0.19408 H 100.42 Z"
         id="path12" />
      <path
         inkscape:connector-curvature="0"
         d="m 102.37,96.26 h 1.1654 v 0.19408 H 102.37 Z"
         id="path14" />
      <path
         inkscape:connector-curvature="0"
         d="m 104.31,96.26 h 1.1654 v 0.19408 H 104.31 Z"
         id="path16" />
      <path
         inkscape:connector-curvature="0"
         d="m 106.25,96.26 h 1.1654 v 0.19408 H 106.25 Z"
         id="path18" />
      <path
         inkscape:connector-curvature="0"
         d="m 108.19,96.26 h 1.1654 v 0.19408 H 108.19 Z"
         id="path20" />
      <path
         inkscape:connector-curvature="0"
         d="m 110.13,96.26 h 1.1654 v 0.19408 H 110.13 Z"
         id="path22"
         style="fill:#7b8694;fill-opacity:1" />
      <path
         inkscape:connector-curvature="0"
         d="m 112.08,96.26 h 1.1654 v 0.19408 H 112.08 Z"
         id="path24" />
      <path
         inkscape:connector-curvature="0"
         d="m 114.02,96.26 h 1.1654 v 0.19408 H 114.02 Z"
         id="path26" />
      <path
         inkscape:connector-curvature="0"
         d="m 115.96,96.26 h 1.1654 v 0.19408 H 115.96 Z"
         id="path28" />
      <path
         inkscape:connector-curvature="0"
         d="m 115.96,106.17 h 1.1654 v 0.19405 H 115.96 Z"
         id="path30" />
      <path
         inkscape:connector-curvature="0"
         d="m 114.02,106.17 h 1.1654 v 0.19405 H 114.02 Z"
         id="path32" />
      <path
         inkscape:connector-curvature="0"
         d="m 112.08,106.17 h 1.1654 v 0.19405 H 112.08 Z"
         id="path34" />
      <path
         inkscape:connector-curvature="0"
         d="m 110.13,106.17 h 1.1654 v 0.19405 H 110.13 Z"
         id="path36" />
      <path
         inkscape:connector-curvature="0"
         d="m 108.19,106.17 h 1.1654 v 0.19405 H 108.19 Z"
         id="path38" />
      <path
         inkscape:connector-curvature="0"
         d="m 106.25,106.17 h 1.1654 v 0.19405 H 106.25 Z"
         id="path40" />
      <path
         inkscape:connector-curvature="0"
         d="m 104.31,106.17 h 1.1654 v 0.19405 H 104.31 Z"
         id="path42" />
      <path
         inkscape:connector-curvature="0"
         d="m 102.37,106.17 h 1.1654 v 0.19405 H 102.37 Z"
         id="path44" />
      <path
         inkscape:connector-curvature="0"
         d="m 100.42,106.17 h 1.1654 v 0.19405 H 100.42 Z"
         id="path46" />
      <path
         inkscape:connector-curvature="0"
         d="m 98.481,106.17 h 1.1654 v 0.19405 H 98.481 Z"
         id="path48" />
      <path
         inkscape:connector-curvature="0"
         d="m 96.538,106.17 h 1.1654 v 0.19405 H 96.538 Z"
         id="path50" />
      <path
         inkscape:connector-curvature="0"
         d="m 94.596,106.17 h 1.1654 v 0.19405 H 94.596 Z"
         id="path52" />
    </g>
  </g>
  <g
     id="g102"
     stroke-width="0.027538"
     stroke-miterlimit="40"
     fill="#ffffff"
     transform="matrix(7.2627001,0,0,7.2627001,-638.32222,-695.89043)" />
  <g
     style="fill:url(#linearGradient5577)"
     transform="matrix(0.2645873,0,0,0.2645873,32.088824,-14.076666)"
     fill="url(#linearGradient5577)"
     id="g98">
    <g
       style="fill:url(#linearGradient909)"
       transform="matrix(1.2019,0,0,1.2019,-1.3031,7.7126)"
       id="g96">
      <g
         fill="#2c57df"
         id="g80">
        <path
           inkscape:connector-curvature="0"
           d="m 280.16,75.627 c 3.1717,0.42709 6.3312,0.96678 9.4672,1.6264 3.359,2.1129 6.9861,3.7488 10.402,5.7691 0.52142,0.13609 1.5643,0.40823 2.0857,0.5443 1.6295,0.50516 3.2796,0.98226 4.922,1.4742 2.5047,0.78386 5.1045,1.189 7.7185,1.4305 1.889,0.25753 3.783,0.49355 5.6838,0.72359 3.4707,3.229 7.1169,6.4946 9.0785,10.921 4.0786,6.5145 0.84146,14.451 3.0181,21.474 1.0233,6.8075 2.7388,14.531 -0.66643,20.909 -0.0428,5.1642 0.35495,10.812 -3.6516,14.758 -3.3187,12.468 -0.0544,25.48 -2.4527,38.061 -0.3741,7.0111 -0.98489,14.114 -3.459,20.75 -1.4045,3.4072 -3.962,6.7055 -7.7404,7.533 -4.0729,1.1852 -8.2047,2.8752 -12.529,2.2466 -3.298,-0.17853 -6.4366,1.0976 -9.5366,2.0238 3.4461,-5.0528 3.8591,-11.145 2.8338,-17.019 1.6896,-0.82477 3.376,-1.668 5.0527,-2.5298 -2.4112,-3.9387 -5.1309,-8.1187 -5.0298,-12.918 -0.003,-6.8653 1.937,-13.612 1.2594,-20.511 -2.7491,-5.0582 -4.7479,-10.523 -5.4583,-16.255 -1.0228,-4.4776 -0.682,-9.0926 -0.99924,-13.639 -1.0578,-5.2192 -0.28047,-10.627 -1.2411,-15.892 0.21567,-11.176 -1.0145,-22.706 2.5136,-33.516 0.14174,-2.1469 0.24472,-4.2957 0.34812,-6.4441 -4.086,-3.6181 -8.1929,-7.2509 -11.619,-11.52 z"
           id="path66" />
        <path
           inkscape:connector-curvature="0"
           d="m 57.999,77.698 c 1.1508,0.72191 2.2954,1.4551 3.4339,2.1997 2.7966,0.05652 5.5947,0.09512 8.3935,0.12447 4.3572,1.9005 7.8463,5.0882 10.656,8.8735 0.18179,4.5843 -0.32404,9.1367 -0.93656,13.667 0.5652,0.72847 1.6956,2.1854 2.2608,2.9139 -0.21584,2.1083 -0.5234,4.212 -1.1213,6.2516 -0.56458,8.4312 -0.13134,16.888 -0.27084,25.331 0.832,0.82441 1.6661,1.649 2.5023,2.4738 1.0489,8.9914 0.48971,18.126 -0.68384,27.073 -1.4183,5.3702 0.64215,10.733 0.74337,16.122 -0.85432,1.4536 -2.6225,2.7517 -2.0809,4.6501 0.48702,3.3793 -0.27784,6.737 -0.89367,10.043 -0.73242,5.2001 -2.4093,10.596 -0.81612,15.792 4.9459,0.85135 10.469,1.3288 14.105,-2.9094 4.4549,1.5821 9.1662,1.9629 13.863,1.7356 1.3144,-0.81505 2.6325,-1.6246 3.9543,-2.4286 13.139,-1.4457 26.358,-0.17834 39.53,-0.66246 1.0725,6.4326 -1.2026,13.494 2.2395,19.393 -6.9686,-0.15459 -14.195,0.67045 -20.77,-2.2002 -0.51912,-0.23194 -1.5574,-0.69584 -2.0765,-0.92777 -4.4887,-0.96067 -9.0979,-0.6725 -13.648,-0.95037 -9.9826,-2.7357 -20.464,-0.67645 -30.621,-1.727 -3.5343,-1.0342 -7.1163,-1.9292 -10.827,-1.9483 -2.5481,2.1707 -5.1701,4.2525 -7.7302,6.4097 -4.0499,0.0129 -8.0991,0.019 -12.148,0.0126 0.58416,-1.0617 1.1719,-2.1194 1.7632,-3.1733 2.4475,-1.5015 4.8061,-3.1392 7.1887,-4.7392 1.7106,-7.9264 -1.1569,-16.052 1.7827,-23.806 0.40266,-1.4689 0.79136,-2.94 1.1661,-4.4133 -0.9335,-0.90177 -1.8653,-1.8025 -2.7955,-2.7023 -0.01118,-4.6511 -0.10683,-9.3096 0.27468,-13.949 1.5296,-4.2631 0.42921,-8.9362 1.9788,-13.192 0.26476,-4.4997 0.01141,-9.0619 1.0655,-13.48 0.70465,-2.2952 -0.32698,-4.5617 -0.58531,-6.835 -0.93622,-6.1044 0.88505,-12.478 -1.2159,-18.421 -0.208,-2.8365 -0.27534,-5.6794 -0.33152,-8.5208 0.6546,-0.56242 1.9638,-1.6873 2.6184,-2.2497 0.25059,-3.6215 0.23872,-7.2765 -0.66969,-10.815 2.508,-4.4857 1.3795,-9.491 -1.2063,-13.666 -0.62036,-0.02624 -1.8611,-0.07873 -2.4814,-0.10498 -1.7966,-1.983 -3.6577,-3.9066 -5.6242,-5.7205 0.0033,-0.88121 0.01,-2.6437 0.01328,-3.5249 z"
           id="path68" />
        <path
           inkscape:connector-curvature="0"
           d="m 246.35,78.928 c 7.7343,-0.38664 14.875,2.9218 22.325,4.3768 7.5075,2.0978 10.309,9.9938 13.002,16.457 1.7941,4.095 0.41203,8.6028 -0.79571,12.648 -0.10831,2.5344 -0.28222,5.0657 -0.47376,7.596 -2.7442,5.7501 -6.527,12.22 -13.733,12.458 -0.004,1.5152 -0.004,3.0316 9e-5,4.5491 1.4888,-0.008 2.9814,-0.0148 4.4774,-0.0203 1.7124,1.8239 3.4376,3.639 5.1737,5.4464 3.7598,5.3362 4.3287,11.878 4.3527,18.207 -0.0681,5.4454 4.3715,9.5723 4.6493,14.946 0.89136,4.2398 -0.60951,8.8786 1.4331,12.85 2.1979,4.1742 1.1797,9.0554 1.3225,13.569 0.18936,7.6676 -2.34,15.026 -3.0826,22.607 -6.8245,-2.1096 -10.825,-9.9938 -18.656,-9.1961 1.3756,-4.4681 3.3369,-8.7513 4.4283,-13.304 1.4344,-8.0562 1.1154,-16.361 -0.6753,-24.334 -0.96115,-4.7775 -2.5942,-9.3611 -4.7112,-13.741 -0.47642,-3.2778 0.0567,-6.6338 0.0449,-9.9394 -2.1387,-3.6025 -4.3438,-7.1918 -7.2029,-10.277 -1.1539,4.3014 -3.6189,8.4336 -3.1256,13.026 0.36527,9.9958 2.8113,19.865 2.4641,29.879 1.2414,6.7266 -0.47772,13.51 0.33777,20.264 0.69403,6.336 -0.40832,12.657 -1.6475,18.852 -2.3256,-8.4066 -9.0943,-14.249 -16.203,-18.695 1.0164,-7.6999 5.1778,-14.49 6.4336,-22.108 -0.5826,-0.59921 -1.7478,-1.7977 -2.3304,-2.3969 -0.45851,-12.289 0.931,-24.633 -0.18732,-36.873 -2.7921,-9.5256 -2.8966,-19.522 -4.5398,-29.25 -2.1184,-4.4964 -2.6971,-9.3744 -2.4455,-14.303 4.2178,-3.7978 8.8261,-7.1583 12.728,-11.304 -2.7304,-1.0627 -5.6449,-1.7849 -8.378,-0.26774 -1.9881,-5.267 -6.7891,-8.3587 -11.349,-11.191 5.4583,0.18654 10.937,0.17893 16.364,-0.53089 z"
           id="path70" />
        <path
           inkscape:connector-curvature="0"
           d="m 214.4,80.889 c -0.32219,-3.0251 3.3313,-0.98625 4.5578,-0.13159 0.0367,7.0205 6.5183,11.981 5.4725,19.182 4.4029,11.97 7.3133,24.37 10.553,36.685 0.9905,4.9808 0.017,10.148 1.2442,15.114 2.1329,9.9867 1.8079,20.223 1.6628,30.368 -0.313,8.9244 -7.2606,16.249 -6.9096,25.278 -0.75821,2.4374 -1.4967,4.8814 -2.1977,7.3376 -0.27009,0.46244 -0.81026,1.3873 -1.0804,1.8498 -0.10349,4.3496 -1.0504,8.6215 -2.2343,12.792 -0.61445,-0.3514 -1.8434,-1.0542 -2.4578,-1.4056 0.72971,-7.596 -3.0747,-14.447 -3.7555,-21.879 -1.5083,-3.0756 -3.9837,-5.544 -5.9474,-8.3246 4.2053,-6.2559 7.7274,-13.072 8.7113,-20.643 -5.4225,-4.3659 -11.605,-7.648 -17.826,-10.709 0.1515,3.5539 0.33186,7.11 0.27266,10.67 1.519,1.4023 3.0495,2.7968 4.5752,4.199 -0.97841,0.8869 -1.9534,1.776 -2.9248,2.6675 -2.6412,-0.21404 -5.2835,-0.36347 -7.9222,-0.53404 -4.5622,1.6449 -9.1442,3.2369 -13.636,5.0671 -0.492,-1.4654 -0.98726,-2.9272 -1.4858,-4.3855 1.59,-1.7726 3.2085,-3.5192 4.8469,-5.2481 -0.0157,-1.3208 -0.0292,-2.64 -0.0403,-3.9576 1.5538,-1.1515 3.1161,-2.294 4.6859,-3.4272 -0.46821,-0.71508 -0.93296,-1.4287 -1.3942,-2.1407 0.56881,-6.9325 1.1539,-13.884 3.3602,-20.534 -0.32054,-0.45141 -0.96162,-1.3542 -1.2821,-1.8056 0.14722,-2.2092 0.22672,-4.4222 0.29119,-6.6332 1.9188,-3.64 3.3718,-7.506 4.0951,-11.566 0.33733,-0.42567 1.012,-1.277 1.3494,-1.7027 0.0876,-6.0914 1.346,-12.263 5.0752,-17.223 -0.0726,-0.61362 -0.21775,-1.8408 -0.29032,-2.4544 2.0407,-6.3058 7.0507,-11.629 6.9108,-18.522 2.5479,-2.0072 4.0937,-4.6622 3.7206,-7.9837 z"
           id="path72" />
        <path
           inkscape:connector-curvature="0"
           d="m 2.8977,82.135 c 6.2868,0.02125 12.453,-1.5105 18.741,-1.4097 6.5744,0.05472 13.151,-0.04787 19.724,0.1597 1.925,2.1489 4.5119,3.3719 7.156,4.3902 3.713,1.4494 4.9769,5.5807 6.8302,8.7341 0.04862,2.7613 0.1234,5.5235 0.32427,8.2796 1.9525,3.3951 0.57722,7.06 -1.2449,10.135 -2.996,5.6309 -6.0177,11.397 -10.787,15.765 1.3508,2.6687 4.3246,3.3044 6.9087,4.2202 -0.35955,1.736 -0.85596,3.4498 -1.0646,5.2154 1.5081,1.7068 3.3724,3.139 4.5035,5.1537 -0.26356,5.8781 -1.786,12.385 2.5799,17.262 -0.60295,8.2968 2.1839,17.002 -1.3197,24.897 0.17498,5.0386 0.9298,10.464 -1.7831,15.02 -2.4543,4.1757 -4.8487,8.579 -4.4205,13.615 -5.1786,3.2762 -10.672,6.2106 -14.806,10.856 -1.421,0.0569 -2.8414,0.11599 -4.2611,0.17726 -1.3953,0.71009 -2.7951,1.4152 -4.1945,2.1197 -0.47722,-0.66995 -1.4316,-2.0099 -1.9088,-2.6798 -1.246,0.95487 -2.4811,1.9257 -3.7124,2.9025 -5.9222,-0.31724 -12.224,1.2331 -17.851,-1.147 5.8614,-2.4724 5.9115,-9.4604 6.7504,-14.859 0.13851,-9.178 0.63332,-18.438 -0.80212,-27.544 -0.87868,-8.4518 -0.021076,-16.952 -0.1425,-25.424 0.82258,-0.73975 1.6465,-1.477 2.4717,-2.2118 -0.55273,-5.9208 -2.0438,-11.813 -1.1917,-17.789 2.2237,-4.3415 -0.42225,-8.933 -0.23687,-13.446 0.045967,-8.4408 -0.18429,-16.892 0.23563,-25.326 0.54552,-1.9392 0.99054,-3.9031 1.4231,-5.8689 -0.89539,-0.01934 -2.6861,-0.05806 -3.5815,-0.07742 -1.793,-1.8231 -3.5945,-3.6368 -5.4038,-5.4427 -0.1873,-0.76538 -0.56192,-2.2962 -0.74924,-3.0616 0.45338,-0.65382 1.3601,-1.9615 1.8135,-2.6153 z"
           id="path74" />
        <path
           inkscape:connector-curvature="0"
           d="m 161.68,80.208 c 11.689,-0.11492 23.376,0.20109 35.065,0.06905 2.6531,-0.13033 5.2354,0.51037 7.7335,1.3483 -1.5377,3.444 -3.1151,6.8847 -5.1851,10.049 -0.055,1.5709 -0.0994,3.1424 -0.13781,4.715 -1.2439,1.422 -2.4803,2.8473 -3.7211,4.269 -0.006,1.5192 -0.009,3.0391 -0.009,4.5598 -0.5704,0.56034 -1.7112,1.681 -2.2816,2.2413 -0.46218,3.3377 -1.1658,6.6341 -1.8692,9.9277 -3.1043,6.3156 -0.79465,13.629 -2.9547,20.196 -0.88569,4.4906 -4.2528,8.3653 -3.7864,13.094 -1.3152,2.2181 -2.8815,4.31 -3.8552,6.7132 -0.95431,5.711 0.78164,11.718 -1.1916,17.282 -2.8818,7.1266 -1.1366,15.463 -6.1427,21.855 -0.82873,2.9308 -1.9077,5.7822 -3.1165,8.5775 3.3624,-0.16714 6.7632,-0.24681 10.06,-0.99632 1.5746,-1.9823 2.2083,-5.0306 4.9562,-5.7688 5.0408,-2.0936 10.172,-4.2709 14.189,-8.0874 2.9014,0.53952 6.3654,-0.10351 8.5945,2.2368 -0.21943,1.4766 -0.57473,2.9231 -1.0659,4.3396 0.85402,5.2525 1.4932,10.626 0.78106,15.935 -0.3911,0.38916 -1.1733,1.1675 -1.5645,1.5566 -5.921,0.41117 -11.972,0.62857 -17.824,-0.53775 -1.9258,-0.46643 -3.8516,-0.90761 -5.7732,-1.3678 -1.3576,1.1192 -2.721,2.2312 -4.0768,3.3508 -5.818,-0.35919 -11.709,-0.1377 -17.002,2.5555 -2.2085,-3.1597 -1.0553,-7.5103 -0.19288,-10.989 0.16337,-1.1831 0.32178,-2.3651 0.47522,-3.546 0.54055,-0.55994 1.6216,-1.6799 2.1621,-2.2398 1.0213,-7.4297 3.5512,-14.724 2.6297,-22.319 -3.4217,-4.1999 -2.3842,-9.7774 -2.4168,-14.768 0.072,-7.8913 4.3432,-14.823 6.7202,-22.142 1.2368,-3.2015 0.34845,-6.7351 1.4227,-9.9852 0.97802,-4.8736 4.165,-9.0466 4.4753,-14.074 0.68419,-8.9 8.771,-14.867 9.7423,-23.683 -0.6055,-0.24134 -1.8165,-0.72399 -2.422,-0.96531 -2.8325,0.26174 -5.5972,-0.23579 -7.8942,-2 -2.4384,0.40708 -5.539,0.36579 -6.6976,3.0283 -2.3971,4.9531 -2.5594,10.614 -4.189,15.825 -1.7408,0.55554 -3.4732,1.1322 -5.2011,1.7138 0.0528,-2.4065 0.0679,-4.8122 0.0375,-7.2177 3.0324,-7.8781 0.90243,-16.533 1.5274,-24.752 z"
           id="path76" />
        <path
           inkscape:connector-curvature="0"
           d="m 83.776,82.2 c 8.3611,-0.37933 16.734,-0.11185 25.101,-0.18896 0.45217,0.96344 0.90677,1.9271 1.3638,2.8908 -3.1093,1.4209 -5.9766,3.3978 -7.4261,6.6103 2.17,4.9968 -0.62386,10.302 0.0563,15.502 0.6079,11.103 -1.257,22.439 1.4916,33.343 -0.55536,0.66593 -1.6661,1.9978 -2.2214,2.6638 0.18358,5.1004 0.75552,10.172 1.17,15.256 0.41643,2.5173 -1.6404,4.3931 -2.6977,6.4584 1.0514,4.5219 1.967,9.0938 3.6028,13.455 -0.48629,5.3255 -3.8396,10.559 -1.4012,15.865 2.5743,1.4687 5.0861,3.0446 7.6182,4.5887 -2e-4,0.85868 -6.4e-4,2.576 -8.5e-4,3.4347 -6.1033,-0.45925 -12.22,-0.39215 -18.322,0.0293 -1.4988,1.0079 -3.0083,1.9996 -4.5388,2.9587 -0.47773,-3.8104 2.9803,-5.8904 5.259,-8.2425 -0.26573,-7.8172 2.3148,-15.577 0.87843,-23.323 3.1734,-9.3518 1.1045,-19.332 1.1501,-28.975 0.13712,-9.2926 -0.35799,-18.604 0.37285,-27.879 -1.8336,-9.2363 -0.81097,-18.769 -2.3687,-28.071 -3.1963,-1.8769 -6.315,-3.9026 -9.087,-6.3763 z"
           id="path78" />
      </g>
      <path
         inkscape:connector-curvature="0"
         d="m 255.54,93.851 c 4.6931,1.8164 7.6541,6.0406 10.635,9.8533 2.1236,2.6142 1.7632,6.0748 1.9328,9.2169 -1.6398,4.8252 -1.8318,10.23 -4.7172,14.568 -1.774,2.6079 -5.0854,3.0652 -7.9144,3.722 -0.0442,-12.453 -0.15833,-24.909 0.0643,-37.36 z"
         fill="#1d232d"
         fill-rule="evenodd"
         id="path82" />
      <path
         inkscape:connector-curvature="0"
         d="m 116.66,95.876 c -0.007,-4.8542 -0.58594,-9.931 1.5543,-14.468 11.51,-0.09012 23.002,0.59029 34.513,0.49518 0.16252,5.4923 1.6168,10.862 1.4932,16.371 -0.13832,6.3529 0.98599,13.182 -2.682,18.825 0.29607,0.62967 0.88818,1.889 1.1842,2.5187 -4.2997,6.035 -7.2393,13.213 -7.5406,20.673 -2.073,1.4524 -4.2973,2.7914 -5.9017,4.7911 -0.86507,1.7827 -0.30517,3.8502 -0.4246,5.7548 -5.2835,6.3918 -8.8604,14.168 -10.311,22.331 -0.81946,4.224 -2.4239,8.2424 -4.1126,12.183 -0.14171,0.51154 -0.42512,1.5346 -0.56682,2.0462 -0.99753,2.4912 -1.8856,5.0252 -2.6678,7.5937 5.0045,-1.3813 9.9966,-2.9418 14.8,-4.9032 3.2851,-3.8901 5.7009,-8.724 10.516,-11.049 0.62138,-1.2329 1.24,-2.4665 1.8558,-3.7008 0.72562,0.13744 2.1769,0.41232 2.9025,0.54975 1.2988,-2.6607 2.4775,-5.5644 5.1098,-7.2015 0.29766,2.3208 0.55626,4.6512 0.83944,6.9778 -5,6.8127 -2.518,15.516 -3.0299,23.318 -5.9875,3.0194 -12.829,2.0933 -19.172,0.99469 -2.3322,-0.33381 -4.2447,2.0914 -6.6058,1.5848 -4.1978,-0.7336 -8.4635,-0.75362 -12.693,-1.1449 0.38965,-3.5562 0.96837,-7.0933 1.1075,-10.673 0.4566,-0.61926 1.3698,-1.8578 1.8264,-2.4771 -0.71575,-1.8566 -1.4357,-3.7072 -2.1532,-5.5579 -2.1612,-7.9919 0.10943,-16.055 2.5817,-23.681 1.0429,-2.9094 2.9004,-5.4151 4.623,-7.9464 0.92894,-3.762 2.9226,-7.1036 5.3636,-10.075 0.10187,-1.1376 0.20569,-2.2741 0.31147,-3.4094 1.2189,-3.7467 2.4121,-7.5068 3.9346,-11.144 2.7761,-2.562 5.326,-5.4352 7.2728,-8.6806 0.19186,-2.3392 -0.0588,-4.6861 -0.11929,-7.0247 3.3142,-3.7263 6.3551,-7.6836 9.3353,-11.679 -0.10492,-2.8515 -0.16599,-5.7037 -0.21844,-8.5556 -4.9129,-9.35e-4 -9.8243,0.01198 -14.735,-0.0165 -3.5185,2.1453 -6.6678,4.9533 -7.5016,9.1821 -1.5036,1.0995 -3.0009,2.2049 -4.4893,3.3218 -0.0575,5.1322 1.0918,10.696 -1.9754,15.258 -2.9717,-5.7856 -3.6494,-12.35 -1.5077,-18.529 -0.90635,-0.95188 -1.8113,-1.9029 -2.7148,-2.8531 z"
         fill="#2c57df"
         id="path84" />
      <g
         fill="#1d232d"
         fill-rule="evenodd"
         id="g94">
        <path
           inkscape:connector-curvature="0"
           d="m 29.25,96.446 c 2.1941,0.31174 4.394,0.57783 6.5948,0.84784 1.7067,0.99203 3.4373,1.9424 5.1884,2.8576 -0.4085,0.44121 -1.2255,1.3236 -1.634,1.7648 1.1813,4.472 -0.28093,9.0184 -0.17898,13.543 -3.564,1.4707 -5.9824,4.4361 -7.6787,7.7978 -0.90492,10e-4 -2.7148,0.004 -3.6197,0.006 0.37943,-8.2102 -0.89024,-16.557 0.78474,-24.663 0.13582,-0.53856 0.40749,-1.6157 0.54333,-2.1542 z"
           id="path86" />
        <path
           inkscape:connector-curvature="0"
           d="m 302.47,109.87 c 2.7232,0.34195 5.4488,0.68031 8.1809,1.0085 3.5998,3.5689 8.0296,6.903 9.2324,12.114 2.0582,4.9315 2.0318,10.34 1.642,15.58 -1.2297,2.4899 -2.1232,5.1232 -2.8135,7.8084 -5.854,10.914 -1.8212,23.737 -3.8052,35.385 -3.247,7.3356 -3.3101,15.944 -8.8703,22.192 -0.32062,-17.759 -0.07,-35.525 -0.11104,-53.286 0.0155,-6.3755 -3.2179,-12.269 -3.0061,-18.678 0.20315,-7.3856 -1.9728,-14.792 -0.44925,-22.125 z"
           id="path88" />
        <path
           inkscape:connector-curvature="0"
           d="m 213.03,128.18 c 1.6905,2.9004 4.3901,4.8561 7.5198,5.989 2.6518,9.2252 3.0807,18.949 1.7895,28.436 -4.2726,-2.9407 -8.9834,-5.4415 -14.349,-5.0369 -0.77996,-6.2872 -0.29006,-12.583 1.0581,-18.754 2.022,-3.2465 3.9068,-6.7039 3.9812,-10.635 z"
           id="path90" />
        <path
           inkscape:connector-curvature="0"
           d="m 27.92,137.84 c 3.1042,2.9726 6.411,5.7237 9.8896,8.249 1.7666,5.5977 2.2593,11.639 0.63942,17.337 1.0719,2.7109 3.0165,5.7081 0.75808,8.4644 0.6464,5.2149 2.1536,10.568 0.54161,15.771 -0.01308,0.0477 -0.03923,0.14302 -0.05232,0.19071 -0.26455,0.84352 -0.79367,2.5306 -1.0582,3.3742 -1.0818,4.4318 0.12617,9.6486 -3.0912,13.351 -3.0191,4.0834 -7.6134,6.559 -12.142,8.6113 0.48544,-1.1401 1.4563,-3.4203 1.9417,-4.5604 -0.57745,-14.186 3.0877,-28.335 0.67619,-42.477 0.86159,-2.5245 1.8853,-5.0742 1.8222,-7.7897 -0.13727,-6.8412 0.11391,-13.681 0.07465,-20.522 z"
           id="path92" />
      </g>
    </g>
  </g>
</svg>
