<?xml version="1.0" encoding="UTF-8"?>
<svg width="639.79" height="277.35" version="1.1" viewBox="0 0 169.28 73.384" xmlns="http://www.w3.org/2000/svg" xmlns:cc="http://creativecommons.org/ns#" xmlns:dc="http://purl.org/dc/elements/1.1/" xmlns:rdf="http://www.w3.org/1999/02/22-rdf-syntax-ns#">
 <metadata>
  <rdf:RDF>
   <cc:Work rdf:about="">
    <dc:format>image/svg+xml</dc:format>
    <dc:type rdf:resource="http://purl.org/dc/dcmitype/StillImage"/>
    <dc:title/>
   </cc:Work>
  </rdf:RDF>
 </metadata>
 <g transform="matrix(7.2628 0 0 7.2628 -684.21 -699.12)" stroke-dasharray="0.528399, 1.0568" stroke-linecap="square" stroke-width=".13769">
  <rect x="94.208" y="96.454" width="23.308" height="9.7115" fill="#1d232d" style="paint-order:normal"/>
  <g fill="#7b8694">
   <path d="m94.596 96.26h1.1654v0.19408h-1.1654z"/>
   <path d="m96.538 96.26h1.1654v0.19408h-1.1654z"/>
   <path d="m98.481 96.26h1.1654v0.19408h-1.1654z"/>
   <path d="m100.42 96.26h1.1654v0.19408h-1.1654z"/>
   <path d="m102.37 96.26h1.1654v0.19408h-1.1654z"/>
   <path d="m104.31 96.26h1.1654v0.19408h-1.1654z"/>
   <path d="m106.25 96.26h1.1654v0.19408h-1.1654z"/>
   <path d="m108.19 96.26h1.1654v0.19408h-1.1654z"/>
   <path d="m110.13 96.26h1.1654v0.19408h-1.1654z" fill="#7b8694"/>
   <path d="m112.08 96.26h1.1654v0.19408h-1.1654z"/>
   <path d="m114.02 96.26h1.1654v0.19408h-1.1654z"/>
   <path d="m115.96 96.26h1.1654v0.19408h-1.1654z"/>
   <path d="m115.96 106.17h1.1654v0.19405h-1.1654z"/>
   <path d="m114.02 106.17h1.1654v0.19405h-1.1654z"/>
   <path d="m112.08 106.17h1.1654v0.19405h-1.1654z"/>
   <path d="m110.13 106.17h1.1654v0.19405h-1.1654z"/>
   <path d="m108.19 106.17h1.1654v0.19405h-1.1654z"/>
   <path d="m106.25 106.17h1.1654v0.19405h-1.1654z"/>
   <path d="m104.31 106.17h1.1654v0.19405h-1.1654z"/>
   <path d="m102.37 106.17h1.1654v0.19405h-1.1654z"/>
   <path d="m100.42 106.17h1.1654v0.19405h-1.1654z"/>
   <path d="m98.481 106.17h1.1654v0.19405h-1.1654z"/>
   <path d="m96.538 106.17h1.1654v0.19405h-1.1654z"/>
   <path d="m94.596 106.17h1.1654v0.19405h-1.1654z"/>
  </g>
 </g>
 <g transform="matrix(1 0 0 1 .013531 1.4541)">
  <path d="m74.711 36.688h18.754l34.734 17.41h-87.091z" fill="#535e70"/>
  <path d="m74.542 32.57 5.5791-14.236 5.9164 9.7108z" fill="#0a2c9d"/>
  <path d="m74.542 32.57 5.4386 6.4785 9.5562-1.2929z" fill="#0a2c9d"/>
  <path d="m74.542 32.57 11.496-4.5251 3.7382 9.7811z" fill="#2c57df"/>
  <path d="m89.705 37.7-3.6679-9.6546 8.6287-4.23z" fill="#0a2c9d"/>
  <path d="m89.705 37.7 4.9608-13.885-0.39347 8.5865z" fill="#7893ea"/>
  <path d="m80.121 18.334 14.545 5.4808-8.6287 4.23z" fill="#2c57df"/>
  <path d="m80.121 18.334 14.545 5.4808-6.872-5.6775z" fill="#0a2c9d"/>
  <path d="m74.542 32.57 5.5791-14.236-7.3779 6.3802z" fill="#2c57df"/>
  <path d="m71.422 45.274 4.2441-2.2907 7.0547-1.4615 8.1368 0.81509 3.7382 1.7426 2.0377 2.7966-9.9919 3.5555-12.521-2.6139z" fill="#1d232d"/>
 </g>
</svg>
