<?xml version="1.0" encoding="UTF-8"?>
<svg width="653.63" height="305.06" version="1.1" viewBox="0 0 172.94 80.715" xmlns="http://www.w3.org/2000/svg" xmlns:cc="http://creativecommons.org/ns#" xmlns:dc="http://purl.org/dc/elements/1.1/" xmlns:rdf="http://www.w3.org/1999/02/22-rdf-syntax-ns#">
 <metadata>
  <rdf:RDF>
   <cc:Work rdf:about="">
    <dc:format>image/svg+xml</dc:format>
    <dc:type rdf:resource="http://purl.org/dc/dcmitype/StillImage"/>
    <dc:title/>
   </cc:Work>
  </rdf:RDF>
 </metadata>
 <g transform="matrix(7.2627 0 0 7.2627 -682.16 -695.34)" stroke-width=".13769">
  <rect x="94.208" y="96.454" width="23.308" height="9.7115" fill="#1d232d" style="paint-order:normal"/>
  <g fill="#7b8694">
   <path d="m94.596 96.26h1.1654v0.19408h-1.1654z"/>
   <path d="m96.538 96.26h1.1654v0.19408h-1.1654z"/>
   <path d="m98.481 96.26h1.1654v0.19408h-1.1654z"/>
   <path d="m100.42 96.26h1.1654v0.19408h-1.1654z"/>
   <path d="m102.37 96.26h1.1654v0.19408h-1.1654z"/>
   <path d="m104.31 96.26h1.1654v0.19408h-1.1654z"/>
   <path d="m106.25 96.26h1.1654v0.19408h-1.1654z"/>
   <path d="m108.19 96.26h1.1654v0.19408h-1.1654z"/>
   <path d="m110.13 96.26h1.1654v0.19408h-1.1654z" fill="#7b8694"/>
   <path d="m112.08 96.26h1.1654v0.19408h-1.1654z"/>
   <path d="m114.02 96.26h1.1654v0.19408h-1.1654z"/>
   <path d="m115.96 96.26h1.1654v0.19408h-1.1654z"/>
   <path d="m115.96 106.17h1.1654v0.19405h-1.1654z"/>
   <path d="m114.02 106.17h1.1654v0.19405h-1.1654z"/>
   <path d="m112.08 106.17h1.1654v0.19405h-1.1654z"/>
   <path d="m110.13 106.17h1.1654v0.19405h-1.1654z"/>
   <path d="m108.19 106.17h1.1654v0.19405h-1.1654z"/>
   <path d="m106.25 106.17h1.1654v0.19405h-1.1654z"/>
   <path d="m104.31 106.17h1.1654v0.19405h-1.1654z"/>
   <path d="m102.37 106.17h1.1654v0.19405h-1.1654z"/>
   <path d="m100.42 106.17h1.1654v0.19405h-1.1654z"/>
   <path d="m98.481 106.17h1.1654v0.19405h-1.1654z"/>
   <path d="m96.538 106.17h1.1654v0.19405h-1.1654z"/>
   <path d="m94.596 106.17h1.1654v0.19405h-1.1654z"/>
  </g>
 </g>
 <rect x="71.535" y="37.727" width="31.256" height="12.87" fill="#7893ea"/>
 <path d="m86.252 37.32c0-0.29108-0.72674-0.803-1.14-0.803-0.26576 0-0.33244-0.23613-0.10617-0.37597 0.19746-0.12204 0.0184-0.70176-0.21674-0.70176-0.1074 0-0.30876-0.17321-0.44748-0.3849-0.13871-0.2117-0.20828-0.3849-0.15461-0.3849 0.0537 0-0.066-0.14436-0.26588-0.32081-0.23441-0.2069-0.27362-0.29285-0.11042-0.24206 0.26105 0.08124 0.7328-0.3383 1.0298-0.91582 0.25913-0.50388 0.41444-2.3703 0.19724-2.3703-0.0985 0-0.24489-0.17321-0.32537-0.3849-0.0805-0.2117-0.21754-0.3849-0.30455-0.3849-0.087 0 0.11911-0.25055 0.45807-0.55678 0.33896-0.30623 0.61629-0.62986 0.61629-0.71919s0.10338-0.27664 0.22972-0.41625c0.2052-0.22674 0.19402-0.29216-0.10482-0.61293-0.32129-0.34487-0.32429-0.37695-0.0758-0.81 0.14233-0.248 0.25075-0.7051 0.24092-1.0158-0.01-0.31068-0.0483-0.42631-0.0856-0.25696-0.13017 0.59157-0.417 1.2364-0.82183 1.8475-0.66727 1.0073-0.71809 1.114-0.41292 0.86642 0.39474-0.3202 0.31442 0.04661-0.1244 0.56813-0.2117 0.25159-0.3849 0.5022-0.3849 0.55691 0 0.19987-0.6787 1.0108-0.84598 1.0108-0.0947 0-0.82649 0.59131-1.6261 1.314-1.7378 1.5706-3.2703 2.6489-3.9558 2.7833-0.60332 0.1183-0.68976-0.16738-0.0958-0.31647 1.1648-0.29235 5.2919-3.669 5.2919-4.3296 0-0.18 0.13818-0.45231 0.30707-0.60515 0.30972-0.28029 0.61426-1.121 0.61585-1.7001 8.7e-4 -0.32737-0.52796-0.49058-0.69802-0.21542-0.049 0.07929-0.27147 0.14416-0.49435 0.14416-0.35057 0-0.37261-0.02596-0.16334-0.19245 0.13305-0.10585 0.28241-0.36796 0.33191-0.58247 0.0623-0.26984 0.24277-0.43589 0.58572-0.53886 0.61415-0.18441 0.76947-0.53374 0.23731-0.53374-0.20969 0-0.4192-0.09889-0.46559-0.21975-0.0695-0.18098-3e-3 -0.19142 0.37629-0.05918 0.25334 0.08831 0.4744 0.13524 0.49124 0.10428 0.63211-1.1616 1.5756-2.319 2.0531-2.5185 0.64462-0.26934 0.81012-0.63331 0.42172-0.92742-0.2777-0.21028-0.27584-0.21884 0.0486-0.22354 0.18553-0.0027 0.38742-0.08595 0.44865-0.18502 0.0766-0.12394 0.0246-0.14686-0.16665-0.07346-0.22816 0.08755-0.24514 0.0671-0.0948-0.11409 0.2234-0.26918 0.12268-0.33594-0.71621-0.47475-0.35944-0.05947-0.69098-0.16873-0.73675-0.2428-0.17301-0.27994 1.8855-1.101 2.7603-1.101 0.48088 0 2.2859 0.79603 2.4661 1.0876 0.0985 0.15943-0.40825 0.32366-1.0083 0.32677-0.41569 0.0021-0.72235 0.52126-0.41877 0.70888 0.0812 0.05018 0.12031 0.1715 0.0869 0.26958-0.0334 0.09809 0.25946 0.39508 0.65078 0.65997 0.61555 0.41667 0.73952 0.59316 0.91922 1.3087 0.11424 0.45487 0.27547 0.91234 0.35828 1.0166 0.0856 0.10773 0.10409 0.47325 0.0429 0.84678-0.0592 0.36148-0.10743 1.0236-0.10713 1.4714 4.2e-4 0.70977 0.0732 0.90288 0.56699 1.5055 0.61255 0.74753 2.6937 2.0682 3.2592 2.0682 0.18729 0 0.38337 0.06928 0.4357 0.15396 0.15725 0.25444-0.56988 0.16806-1.2734-0.15127-0.36167-0.16416-1.0378-0.55086-1.5026-0.85933-0.48089-0.3192-0.94636-0.52195-1.0803-0.47055-0.12944 0.04967-0.27215-0.0056-0.31714-0.12287-0.0719-0.18726-0.67635-0.46374-0.67635-0.30936 0 0.03261 0.34641 0.53408 0.76981 1.1144 1.1539 1.5816 0.90357 1.6925-0.32361 0.14336-0.3192-0.40294-0.61104-0.68007-0.64853-0.61584-0.0375 0.06423 0.042 0.65097 0.17664 1.3039 0.23979 1.1627 0.2382 1.1943-0.0777 1.5396-0.55491 0.60659-0.78382 1.2358-0.89928 2.4717-0.0614 0.65748-0.17272 1.2331-0.24733 1.2793-0.0746 0.04611-0.13568 0.32224-0.13568 0.61362v0.52978h-1.3087c-1.1533 0-1.3087-0.03261-1.3087-0.27473zm1.2317-0.49508c0-0.25404-0.0693-0.46188-0.15396-0.46188-0.0847 0-0.15396 0.20785-0.15396 0.46188 0 0.25404 0.0693 0.46188 0.15396 0.46188 0.0847 0 0.15396-0.20785 0.15396-0.46188zm2.7713-8.6915c0-0.3003-0.38393-0.8152-0.55803-0.74839-0.27672 0.10619-0.26771 0.27831 0.0302 0.57619 0.22798 0.22798 0.52786 0.32581 0.52786 0.1722z" fill="#7893ea"/>
 <g transform="matrix(1 0 0 1 -12.855 -71.241)" fill="#03060c">
  <path d="m80.28 130.46c-1.9711-1.9825-2.0825-7.693-0.27136-13.91 2.0019-6.8721 4.7526-10.516 8.6266-11.427 2.6266-0.61805 5.3529 0.15567 7.472 2.1205 0.68729 0.63727 1.6006 1.1143 2.6119 1.3643 1.2968 0.19036 1.4758 0.20165 2.678-9e-3 0.50201 0 1.6641-0.69002 3.0236-1.7954 1.4335-1.1655 2.6134-1.6678 4.3382-1.8468 2.0865-0.21658 4.5517 0.58971 6.2266 2.0365 2.8023 2.4206 5.8937 10.547 6.1855 16.261 0.18139 3.5509-0.33154 6.0699-1.4672 7.2055-0.64537 0.64536-0.7393 0.68568-1.5972 0.68568-1.591 0-2.8059-0.77739-6.2974-4.0299-0.99057-0.92276-1.9514-1.6602-2.4962-1.9158l-0.88575-0.4156h-16.91l-0.91437 0.44903c-0.55562 0.27285-1.7245 1.1833-2.9793 2.3206-3.2554 2.9506-4.2863 3.5872-5.8135 3.59-0.78645 1e-3 -0.9004-0.0494-1.5302-0.68287zm18.726-10.991v-0.56366h-2.7378v1.1273h2.7378zm3.7528 0.29621 1.1591-0.26745-0.74664-0.19432c-0.41065-0.10689-1.0085-0.24347-1.3286-0.30352-0.57971-0.10875-0.58199-0.10695-0.58199 0.46178 0 0.65986-0.0247 0.65487 1.4982 0.30351zm-11.289-1.4323c2.1266-0.72459 3.4364-3.2508 2.8074-5.4145-0.38151-1.3124-1.1895-2.2681-2.4365-2.882-0.94542-0.46543-1.1516-0.50764-2.1344-0.43709-1.797 0.12899-3.1075 0.97914-3.8506 2.498-0.94306 1.9275-0.39793 4.2576 1.2955 5.5375 0.42997 0.32497 1.0084 0.66387 1.2855 0.75312 0.77316 0.24905 2.2173 0.22279 3.033-0.0551zm-2.9319-1.5212v-1.2884h-2.5767v-2.7378h2.5767v-2.5767h2.5767v2.5767h2.7378v2.7378h-2.7378v2.5767h-2.5767zm21.844 1.5364c0.88018-0.61651 0.81769-2.107-0.10843-2.586-0.67145-0.34722-1.1922-0.2943-1.7537 0.17817-0.40915 0.34427-0.49549 0.53535-0.49549 1.0965 0 0.37379 0.0906 0.79315 0.2013 0.93194 0.49387 0.61903 1.5491 0.80465 2.1564 0.37931zm3.8846-1.9376c0.39883-0.1147 0.84372-0.83723 0.84372-1.3702 0-0.59181-0.45268-1.2462-0.99213-1.4343-1.8076-0.63013-2.917 1.9461-1.2008 2.7886 0.2761 0.13554 0.6107 0.21814 0.74356 0.18357 0.13286-0.0346 0.40542-0.10999 0.60569-0.16758zm-5.7164-2.3077c0.16699-0.16698 0.34345-0.60062 0.39214-0.96365 0.0779-0.58051 0.0294-0.71918-0.40237-1.151-1.2453-1.2453-3.2724 0.22369-2.4442 1.7713 0.42227 0.789 1.814 0.98368 2.4544 0.3433zm3.971-2.0562c0.6892-0.57992 0.69965-1.4973 0.0247-2.1722-0.75903-0.75904-2.0122-0.50835-2.4236 0.48481-0.62305 1.5042 1.1415 2.7454 2.3989 1.6874z" fill="#03060c"/>
 </g>
</svg>
