<?xml version="1.0" encoding="UTF-8" standalone="no"?>
<svg
   xmlns:dc="http://purl.org/dc/elements/1.1/"
   xmlns:cc="http://creativecommons.org/ns#"
   xmlns:rdf="http://www.w3.org/1999/02/22-rdf-syntax-ns#"
   xmlns:svg="http://www.w3.org/2000/svg"
   xmlns="http://www.w3.org/2000/svg"
   xmlns:sodipodi="http://sodipodi.sourceforge.net/DTD/sodipodi-0.dtd"
   xmlns:inkscape="http://www.inkscape.org/namespaces/inkscape"
   width="653.63"
   height="305.06"
   version="1.1"
   viewBox="0 0 172.94 80.715"
   id="svg84"
   sodipodi:docname="minitalk_speedrunning.svg"
   inkscape:version="1.0rc1 (09960d6f05, 2020-04-09)">
  <defs
     id="defs88" />
  <sodipodi:namedview
     inkscape:document-rotation="0"
     pagecolor="#ffffff"
     bordercolor="#666666"
     borderopacity="1"
     objecttolerance="10"
     gridtolerance="10"
     guidetolerance="10"
     inkscape:pageopacity="0"
     inkscape:pageshadow="2"
     inkscape:window-width="2560"
     inkscape:window-height="1377"
     id="namedview86"
     showgrid="false"
     inkscape:zoom="1.0212334"
     inkscape:cx="342.41362"
     inkscape:cy="243.49579"
     inkscape:window-x="-8"
     inkscape:window-y="-8"
     inkscape:window-maximized="1"
     inkscape:current-layer="svg84" />
  <metadata
     id="metadata2">
    <rdf:RDF>
      <cc:Work
         rdf:about="">
        <dc:format>image/svg+xml</dc:format>
        <dc:type
           rdf:resource="http://purl.org/dc/dcmitype/StillImage" />
        <dc:title></dc:title>
      </cc:Work>
    </rdf:RDF>
  </metadata>
  <g
     transform="matrix(7.2627 0 0 7.2627 -682.16 -695.34)"
     stroke-width=".13769"
     id="g82">
    <rect
       x="94.208"
       y="96.454"
       width="23.308"
       height="9.7115"
       fill="#1d232d"
       style="paint-order:normal"
       id="rect4" />
    <g
       fill="#7b8694"
       id="g64">
      <path
         d="m94.596 96.26h1.1654v0.19408h-1.1654z"
         id="path6" />
      <path
         d="m96.538 96.26h1.1654v0.19408h-1.1654z"
         id="path8" />
      <path
         d="m98.481 96.26h1.1654v0.19408h-1.1654z"
         id="path10" />
      <path
         d="m100.42 96.26h1.1654v0.19408h-1.1654z"
         id="path12" />
      <path
         d="m102.37 96.26h1.1654v0.19408h-1.1654z"
         id="path14" />
      <path
         d="m104.31 96.26h1.1654v0.19408h-1.1654z"
         id="path16" />
      <path
         d="m106.25 96.26h1.1654v0.19408h-1.1654z"
         id="path18" />
      <path
         d="m108.19 96.26h1.1654v0.19408h-1.1654z"
         id="path20" />
      <path
         d="m110.13 96.26h1.1654v0.19408h-1.1654z"
         id="path22"
         style="fill:#7b8694;fill-opacity:1" />
      <path
         d="m112.08 96.26h1.1654v0.19408h-1.1654z"
         id="path24" />
      <path
         d="m114.02 96.26h1.1654v0.19408h-1.1654z"
         id="path26" />
      <path
         d="m115.96 96.26h1.1654v0.19408h-1.1654z"
         id="path28" />
      <path
         d="m115.96 106.17h1.1654v0.19405h-1.1654z"
         id="path30" />
      <path
         d="m114.02 106.17h1.1654v0.19405h-1.1654z"
         id="path32" />
      <path
         d="m112.08 106.17h1.1654v0.19405h-1.1654z"
         id="path34" />
      <path
         d="m110.13 106.17h1.1654v0.19405h-1.1654z"
         id="path36" />
      <path
         d="m108.19 106.17h1.1654v0.19405h-1.1654z"
         id="path38" />
      <path
         d="m106.25 106.17h1.1654v0.19405h-1.1654z"
         id="path40" />
      <path
         d="m104.31 106.17h1.1654v0.19405h-1.1654z"
         id="path42" />
      <path
         d="m102.37 106.17h1.1654v0.19405h-1.1654z"
         id="path44" />
      <path
         d="m100.42 106.17h1.1654v0.19405h-1.1654z"
         id="path46" />
      <path
         d="m98.481 106.17h1.1654v0.19405h-1.1654z"
         id="path48" />
      <path
         d="m96.538 106.17h1.1654v0.19405h-1.1654z"
         id="path50" />
      <path
         d="m94.596 106.17h1.1654v0.19405h-1.1654z"
         id="path52" />
    </g>
  </g>
  <g
     id="g102"
     stroke-width="0.027538"
     stroke-miterlimit="40"
     fill="#ffffff"
     transform="matrix(7.2627001,0,0,7.2627001,-636.27668,-692.12293)" />
  <g
     style="font-weight:bold;font-size:2.9879px;line-height:1.25;font-family:'Segoe UI';-inkscape-font-specification:'Segoe UI Bold';fill:#a0f1c6;fill-opacity:1;stroke:none;stroke-width:0.339122;stroke-linecap:square;stroke-miterlimit:40;stroke-dasharray:0.528399, 1.0568;stroke-dashoffset:1.2;stroke-opacity:1"
     transform="matrix(4.4991615,0,0,4.4991615,-511.28607,-357.26314)"
     stroke-miterlimit="40"
     id="g30">
    <circle
       style="fill:#e9e56f;stroke:none;stroke-width:0.936682"
       cx="140.85001"
       cy="82.565002"
       r="0"
       id="circle4" />
    <circle
       style="fill:#a56b36;stroke:none;stroke-width:0.794332"
       cx="140.74001"
       cy="82.565002"
       r="0"
       id="circle6" />
    <circle
       style="fill:#a56b36;stroke:none;stroke-width:0.794332"
       cx="139.95"
       cy="82.300003"
       r="0"
       id="circle8" />
    <rect
       style="fill:#a0f1c6;stroke:none;stroke-width:1.14096"
       x="129.50999"
       y="89.830002"
       width="3.5278001"
       height="2.6458001"
       id="rect10-6" />
    <rect
       style="fill:#a0f1c6;stroke:none;stroke-width:1.15385"
       x="128.62"
       y="88.066002"
       width="4.4096999"
       height="1.7639"
       id="rect12-0" />
    <rect
       style="fill:#47d58a;stroke:none;stroke-width:1.14096"
       transform="scale(-1,1)"
       x="-136.56"
       y="89.830002"
       width="3.5278001"
       height="2.6458001"
       id="rect14-1" />
    <rect
       style="fill:#a56b36;stroke:none;stroke-width:1.7114"
       x="119.81"
       y="91.594002"
       width="26.458"
       height="2.6458001"
       id="rect16-1" />
    <rect
       style="fill:#47d58a;stroke:none;stroke-width:1.15385"
       transform="scale(-1,1)"
       x="-137.44"
       y="88.066002"
       width="4.4096999"
       height="1.7639"
       id="rect18-6" />
    <rect
       style="fill:#009244;stroke:none;stroke-width:0.416625"
       transform="scale(-1,1)"
       x="-136.56"
       y="89.830002"
       width="7.0556002"
       height="0.17639001"
       id="rect20-3" />
    <path
       style="fill:#a56b36;stroke:none;stroke-width:0.624463"
       inkscape:connector-curvature="0"
       d="m 134.67,83.776 c 0,1.2321 -0.62869,1.8118 -1.7146,1.8118 -0.78912,0 -1.1431,-0.81119 -1.1431,-1.8118 0,-1.0007 0.35395,-1.8118 1.1431,-1.8118 1.0288,0 1.7146,0.57979 1.7146,1.8118"
       id="path22-1" />
    <path
       style="fill:#e9e56f;stroke:none;stroke-width:0.624463"
       inkscape:connector-curvature="0"
       d="m 134.38,83.776 a 1.4288,1.8118 0 0 1 -1.4288,1.8118 1.4288,1.8118 0 0 1 -1.4288,-1.8118 1.4288,1.8118 0 0 1 1.4288,-1.8118 1.4288,1.8118 0 0 1 1.4288,1.8118 z"
       id="path24-7" />
    <path
       style="fill:#a56b36;stroke:none;stroke-width:0.529555"
       inkscape:connector-curvature="0"
       d="m 134.09,83.776 a 1.2117,1.5365 0 0 1 -1.2117,1.5365 1.2117,1.5365 0 0 1 -1.2117,-1.5365 1.2117,1.5365 0 0 1 1.2117,-1.5365 1.2117,1.5365 0 0 1 1.2117,1.5365"
       id="path26-6" />
    <path
       style="fill:#e9e56f;stroke:none;stroke-width:9.70273"
       inkscape:connector-curvature="0"
       transform="matrix(0.055206,0.018758,-0.014792,0.070004,124.46,56.154)"
       d="m 252.9,339.13 -9.7702,-1.9403 -7.1372,6.9485 -1.1738,-9.8916 -8.8139,-4.6407 9.0447,-4.1731 1.6899,-9.8166 6.7638,7.3125 9.8583,-1.4263 -4.8645,8.6924 z"
       id="path28-8" />
  </g>
</svg>
