<?xml version="1.0" encoding="UTF-8" standalone="no"?>
<svg
   xmlns:dc="http://purl.org/dc/elements/1.1/"
   xmlns:cc="http://creativecommons.org/ns#"
   xmlns:rdf="http://www.w3.org/1999/02/22-rdf-syntax-ns#"
   xmlns:svg="http://www.w3.org/2000/svg"
   xmlns="http://www.w3.org/2000/svg"
   xmlns:sodipodi="http://sodipodi.sourceforge.net/DTD/sodipodi-0.dtd"
   xmlns:inkscape="http://www.inkscape.org/namespaces/inkscape"
   inkscape:version="1.0rc1 (09960d6f05, 2020-04-09)"
   sodipodi:docname="chapter_mechanics.svg"
   id="svg84"
   viewBox="0 0 172.94 80.715"
   version="1.1"
   height="305.06"
   width="653.63">
  <defs
     id="defs88" />
  <sodipodi:namedview
     inkscape:current-layer="svg84"
     inkscape:window-maximized="1"
     inkscape:window-y="-8"
     inkscape:window-x="-8"
     inkscape:cy="243.49579"
     inkscape:cx="342.41362"
     inkscape:zoom="1.0212334"
     showgrid="false"
     id="namedview86"
     inkscape:window-height="1377"
     inkscape:window-width="2560"
     inkscape:pageshadow="2"
     inkscape:pageopacity="0"
     guidetolerance="10"
     gridtolerance="10"
     objecttolerance="10"
     borderopacity="1"
     bordercolor="#666666"
     pagecolor="#ffffff" />
  <metadata
     id="metadata2">
    <rdf:RDF>
      <cc:Work
         rdf:about="">
        <dc:format>image/svg+xml</dc:format>
        <dc:type
           rdf:resource="http://purl.org/dc/dcmitype/StillImage" />
        <dc:title />
      </cc:Work>
    </rdf:RDF>
  </metadata>
  <g
     id="g82"
     stroke-width=".13769"
     transform="matrix(7.2627 0 0 7.2627 -682.16 -695.34)">
    <rect
       id="rect4"
       style="paint-order:normal"
       fill="#1d232d"
       height="9.7115"
       width="23.308"
       y="96.454"
       x="94.208" />
    <g
       id="g64"
       fill="#7b8694">
      <path
         id="path6"
         d="m94.596 96.26h1.1654v0.19408h-1.1654z" />
      <path
         id="path8"
         d="m96.538 96.26h1.1654v0.19408h-1.1654z" />
      <path
         id="path10"
         d="m98.481 96.26h1.1654v0.19408h-1.1654z" />
      <path
         id="path12"
         d="m100.42 96.26h1.1654v0.19408h-1.1654z" />
      <path
         id="path14"
         d="m102.37 96.26h1.1654v0.19408h-1.1654z" />
      <path
         id="path16"
         d="m104.31 96.26h1.1654v0.19408h-1.1654z" />
      <path
         id="path18"
         d="m106.25 96.26h1.1654v0.19408h-1.1654z" />
      <path
         id="path20"
         d="m108.19 96.26h1.1654v0.19408h-1.1654z" />
      <path
         style="fill:#7b8694;fill-opacity:1"
         id="path22"
         d="m110.13 96.26h1.1654v0.19408h-1.1654z" />
      <path
         id="path24"
         d="m112.08 96.26h1.1654v0.19408h-1.1654z" />
      <path
         id="path26"
         d="m114.02 96.26h1.1654v0.19408h-1.1654z" />
      <path
         id="path28"
         d="m115.96 96.26h1.1654v0.19408h-1.1654z" />
      <path
         id="path30"
         d="m115.96 106.17h1.1654v0.19405h-1.1654z" />
      <path
         id="path32"
         d="m114.02 106.17h1.1654v0.19405h-1.1654z" />
      <path
         id="path34"
         d="m112.08 106.17h1.1654v0.19405h-1.1654z" />
      <path
         id="path36"
         d="m110.13 106.17h1.1654v0.19405h-1.1654z" />
      <path
         id="path38"
         d="m108.19 106.17h1.1654v0.19405h-1.1654z" />
      <path
         id="path40"
         d="m106.25 106.17h1.1654v0.19405h-1.1654z" />
      <path
         id="path42"
         d="m104.31 106.17h1.1654v0.19405h-1.1654z" />
      <path
         id="path44"
         d="m102.37 106.17h1.1654v0.19405h-1.1654z" />
      <path
         id="path46"
         d="m100.42 106.17h1.1654v0.19405h-1.1654z" />
      <path
         id="path48"
         d="m98.481 106.17h1.1654v0.19405h-1.1654z" />
      <path
         id="path50"
         d="m96.538 106.17h1.1654v0.19405h-1.1654z" />
      <path
         id="path52"
         d="m94.596 106.17h1.1654v0.19405h-1.1654z" />
    </g>
  </g>
  <g
     style="fill:#ffffff;fill-opacity:1;stroke:#000000;stroke-opacity:1"
     transform="matrix(9.6778514,0,0,9.6778514,-963.53569,-941.33352)"
     stroke-width="0.010772"
     id="g66">
    <path
       style="fill:#fbb227;fill-opacity:1;stroke:#282828;stroke-opacity:1"
       inkscape:connector-curvature="0"
       d="m 108.09024,103.74 c -0.007,-0.0149 -0.0223,-0.10996 -0.0297,-0.20878 l -0.0149,-0.17979 -0.18722,-0.0669 c -0.10327,-0.0371 -0.23701,-0.0929 -0.29867,-0.12704 l -0.11145,-0.0594 -0.13224,0.13076 c -0.10699,0.1055 -0.14265,0.12853 -0.18648,0.11739 -0.0743,-0.0149 -0.61889,-0.57282 -0.61889,-0.62855 0,-0.0223 0.0594,-0.10178 0.12779,-0.17236 l 0.12779,-0.12928 -0.0594,-0.11144 c -0.0371,-0.0594 -0.0914,-0.1954 -0.12704,-0.29867 l -0.0669,-0.18723 -0.1798,-0.0149 c -0.0988,-0.006 -0.19242,-0.0223 -0.20877,-0.0297 -0.0446,-0.0297 -0.0446,-0.88219 0,-0.90894 0.0149,-0.007 0.10996,-0.0223 0.20877,-0.0297 l 0.1798,-0.0149 0.0669,-0.18722 c 0.0371,-0.10328 0.0929,-0.23701 0.12704,-0.29867 l 0.0594,-0.11145 -0.12779,-0.12927 c -0.0743,-0.0743 -0.12779,-0.14859 -0.12779,-0.17237 0,-0.05944 0.54682,-0.60997 0.61889,-0.62854 0.0446,-0.0074 0.0795,0.01486 0.18648,0.11739 l 0.13224,0.13076 0.11145,-0.05944 c 0.0594,-0.03715 0.1954,-0.09138 0.29867,-0.12705 l 0.18722,-0.06687 0.0149,-0.1798 c 0.006,-0.09881 0.0223,-0.19243 0.0297,-0.20877 0.0297,-0.04458 0.88219,-0.04458 0.90894,0 0.007,0.01486 0.0223,0.10996 0.0297,0.20877 l 0.0149,0.1798 0.18722,0.06687 c 0.10327,0.03715 0.23701,0.09287 0.29867,0.12705 l 0.11145,0.05944 0.13224,-0.13076 c 0.10699,-0.1055 0.14265,-0.12853 0.18648,-0.11739 0.0743,0.02229 0.61889,0.57282 0.61889,0.62854 0,0.02229 -0.0594,0.10179 -0.12779,0.17237 l -0.12779,0.12927 0.0594,0.11145 c 0.0371,0.0594 0.0914,0.19539 0.12704,0.29867 l 0.0669,0.18722 0.1798,0.0149 c 0.0988,0.006 0.19242,0.0223 0.20877,0.0297 0.0446,0.0297 0.0446,0.88219 0,0.90894 -0.0149,0.007 -0.10996,0.0223 -0.20877,0.0297 l -0.1798,0.0149 -0.0669,0.18723 c -0.0371,0.10327 -0.0929,0.237 -0.12704,0.29867 l -0.0594,0.11144 0.13076,0.13225 c 0.1055,0.10699 0.12853,0.14265 0.11739,0.18648 -0.0149,0.0743 -0.57282,0.61889 -0.62854,0.61889 -0.0223,0 -0.10179,-0.0594 -0.17237,-0.12779 l -0.12927,-0.12779 -0.11145,0.0594 c -0.0594,0.0371 -0.1954,0.0914 -0.29867,0.12704 l -0.18722,0.0669 -0.0149,0.17979 c -0.006,0.0988 -0.0223,0.19243 -0.0297,0.20878 -0.0149,0.0223 -0.13151,0.0297 -0.45469,0.0297 -0.32319,0 -0.44058,-0.007 -0.45469,-0.0297 z"
       fill="#d2d6dc"
       id="path56-9" />
    <path
       style="fill:#a96f00;fill-opacity:1;stroke:none;stroke-width:0.0138457;stroke-opacity:1"
       inkscape:connector-curvature="0"
       d="m 109.02665,102.83727 c 0.2798,-0.0964 0.41922,-0.18431 0.636,-0.40013 0.33137,-0.33138 0.46888,-0.65797 0.46888,-1.11559 0,-0.46028 -0.15278,-0.81744 -0.48798,-1.14155 -0.64078,-0.618819 -1.61375,-0.600669 -2.23354,0.0382 -0.31227,0.32278 -0.44692,0.6551 -0.44692,1.10049 0,0.44024 0.13465,0.77543 0.43832,1.09239 0.25116,0.26165 0.53573,0.41731 0.87857,0.48129 0.19003,0.0382 0.55865,0.006 0.74678,-0.0573 z"
       fill="#303030"
       id="path62" />
    <path
       style="fill:#ffffff;fill-opacity:1;stroke:#000000;stroke-opacity:1"
       inkscape:connector-curvature="0"
       d="m 108.41024,102.04 c -0.34473,-0.0669 -0.58768,-0.36479 -0.58768,-0.71398 0,-0.2058 0.0669,-0.36108 0.21323,-0.50967 0.14859,-0.14859 0.30387,-0.21323 0.50967,-0.21323 0.2058,0 0.36108,0.0669 0.50967,0.21323 0.14859,0.14859 0.21323,0.30387 0.21323,0.50967 0,0.45246 -0.42052,0.80247 -0.85857,0.71398 z"
       fill="#d2d6dc"
       id="path64" />
  </g>
  <path
     style="fill:#03060c;fill-opacity:1;stroke-width:6.82892"
     inkscape:connector-curvature="0"
     d="m 118.04395,37.038746 1.7103,15.382793 c 0.0477,0.31618 0.0902,0.645332 0.0902,0.97476 l 0.0205,0.09015 -0.0136,0.0032 c 0.003,0.09015 0.005,0.135214 0.005,0.225354 0,4.13825 -3.35299,7.49814 -7.49471,7.49814 -2.46394,0 -4.64954,-1.19137 -6.016,-3.023565 -0.18029,-0.225358 -0.31618,-0.460271 -0.46506,-0.703994 L 98.349554,46.063528 Z"
     id="path54-8" />
  <rect
     style="fill:#03060c;fill-opacity:1;stroke-width:6.82892"
     x="71.265892"
     y="28.379684"
     width="29.153284"
     height="20.189661"
     id="rect56" />
  <path
     style="fill:#03060c;fill-opacity:1;stroke-width:6.82892"
     inkscape:connector-curvature="0"
     d="m 102.8155,20.840581 c 0,0 -1.90889,0.645331 -2.61739,5.213596 -0.703984,4.568265 0.22536,2.324149 0.22536,2.324149 l 13.2713,-0.997361 c 0,0 -0.36126,-5.868419 -2.20676,-6.13741 -2.49631,-0.555054 -8.66794,-0.40632 -8.66794,-0.40632 z"
     id="path58-7" />
  <path
     style="fill:#03060c;fill-opacity:1;stroke-width:6.82892"
     inkscape:connector-curvature="0"
     d="m 69.080674,20.738146 c 0,0 1.908948,0.645332 2.617455,5.213188 0.703989,4.568266 -0.225357,2.324082 -0.225357,2.324082 L 58.201461,27.278123 c 0,0 0.361244,-5.868489 2.206763,-6.137411 1.832196,-0.270424 8.667937,-0.40632 8.667937,-0.40632 z"
     id="path60-1" />
  <path
     style="fill:#3a414e;fill-opacity:1;stroke-width:6.82892"
     inkscape:connector-curvature="0"
     d="m 106.57139,47.691838 a 11.494415,11.494415 0 1 1 0,-22.988828 11.494415,11.494415 0 0 1 0,22.988828 z"
     fill="#e5e5e5"
     fill-rule="evenodd"
     id="path64-0" />
  <circle
     cx="95.09874"
     cy="47.350388"
     r="5.4265909"
     fill="#535e70"
     stroke-miterlimit="40"
     stroke-width="0.188055"
     id="circle66" />
  <path
     style="fill:#03060c;fill-opacity:1;stroke-width:6.82892"
     inkscape:connector-curvature="0"
     d="m 53.169303,37.038746 -1.710369,15.382793 c -0.0478,0.31618 -0.09014,0.645332 -0.09014,0.97476 l -0.02049,0.09015 0.01367,0.0032 c -0.0027,0.09015 -0.0049,0.135214 -0.0049,0.225354 0,4.13825 3.353063,7.49814 7.494726,7.49814 2.464011,0 4.649533,-1.19137 6.01607,-3.023565 0.180287,-0.225358 0.316183,-0.460271 0.465047,-0.703994 l 7.531607,-11.422027 z"
     fill="#7b8694"
     id="path68" />
  <path
     style="fill:#3a414e;fill-opacity:1;stroke-width:6.82892"
     inkscape:connector-curvature="0"
     d="m 64.710167,48.37473 a 11.494415,11.494415 0 1 1 0,-22.988829 11.494415,11.494415 0 0 1 0,22.988829 z"
     fill="#e5e5e5"
     fill-rule="evenodd"
     id="path70" />
  <path
     style="stroke-width:6.82892"
     inkscape:connector-curvature="0"
     d="m 103.4301,28.222629 v 5.549852 h -5.549374 v 6.17572 h 5.549374 v 5.549375 h 6.17934 v -5.549375 h 5.54944 v -6.17572 h -5.54944 v -5.549852 z"
     fill="#7b8694"
     id="path72" />
  <path
     style="stroke-width:6.82892"
     inkscape:connector-curvature="0"
     d="m 61.637152,28.222629 v 5.549852 h -5.549384 v 6.17572 h 5.549384 v 5.549375 h 6.17942 v -5.549375 h 5.549381 v -6.17572 h -5.549381 v -5.549852 z"
     fill="#7b8694"
     id="path74" />
  <flowRoot
     transform="matrix(0.1056022,0,0,0.1056022,89.089391,-37.287084)"
     fill="#000000"
     font-family="Calibri"
     letter-spacing="0px"
     stroke-width="4.7116"
     word-spacing="0px"
     style="line-height:0.01%"
     xml:space="preserve"
     id="flowRoot82"><flowRegion
       id="flowRegion78"><rect
         x="-175.71"
         y="576.65"
         width="162.86"
         height="62.857"
         id="rect76-6" /></flowRegion><flowPara
       font-size="30px"
       style="line-height:1.25"
       id="flowPara80"> </flowPara></flowRoot>
  <g
     style="fill:#7b8694;fill-opacity:1"
     transform="matrix(6.8289061,0,0,6.8289061,-638.18916,-652.33936)"
     stroke-miterlimit="40"
     stroke-width="0.027538"
     id="g90">
    <path
       style="fill:#7b8694;fill-opacity:1"
       inkscape:connector-curvature="0"
       d="m 102.31,98.679 c 0.26913,-0.07574 0.57538,-0.1135 0.82661,-0.09378 0.14627,0.01227 0.43154,0.0877 0.43154,0.0877 0.01,-0.08789 -0.001,-0.14392 -0.0577,-0.21273 -0.39502,-0.12472 -0.79075,-0.1187 -1.1514,0.04949 -0.0372,0.05365 -0.0485,0.1047 -0.0495,0.16933 z"
       fill="#e5e5e5"
       id="path86" />
    <path
       style="fill:#7b8694;fill-opacity:1"
       inkscape:connector-curvature="0"
       d="m 108.5,98.679 c 0.26913,-0.07574 0.57538,-0.1135 0.82661,-0.09378 0.14627,0.01227 0.43154,0.0877 0.43154,0.0877 0.01,-0.08789 -0.001,-0.14392 -0.0577,-0.21273 -0.39502,-0.12472 -0.79075,-0.1187 -1.1514,0.04949 -0.0372,0.05365 -0.0485,0.1047 -0.0495,0.16933 z"
       fill="#e5e5e5"
       id="path88" />
  </g>
  <g
     transform="matrix(7.2627001,0,0,7.2627001,-636.27668,-692.12293)"
     fill="#ffffff"
     stroke-miterlimit="40"
     stroke-width="0.027538"
     id="g102" />
  <g
     transform="matrix(6.8289061,0,0,6.8289061,-638.18916,-652.33936)"
     stroke-miterlimit="40"
     stroke-width="0.027538"
     id="g122">
    <circle
       cx="107.38"
       cy="102.46"
       r="0.58104998"
       fill="#7b8694"
       id="circle112" />
    <circle
       cx="104.65"
       cy="102.46"
       r="0.79465002"
       fill="#535e70"
       id="circle116" />
    <circle
       cx="104.65"
       cy="102.46"
       r="0.58104998"
       fill="#7b8694"
       id="circle118" />
  </g>
</svg>
