<?xml version="1.0" encoding="UTF-8" standalone="no"?>
<svg
   xmlns:dc="http://purl.org/dc/elements/1.1/"
   xmlns:cc="http://creativecommons.org/ns#"
   xmlns:rdf="http://www.w3.org/1999/02/22-rdf-syntax-ns#"
   xmlns:svg="http://www.w3.org/2000/svg"
   xmlns="http://www.w3.org/2000/svg"
   xmlns:sodipodi="http://sodipodi.sourceforge.net/DTD/sodipodi-0.dtd"
   xmlns:inkscape="http://www.inkscape.org/namespaces/inkscape"
   inkscape:version="1.0rc1 (09960d6f05, 2020-04-09)"
   sodipodi:docname="chapter_adventures.svg"
   id="svg84"
   viewBox="0 0 169.27686 73.382683"
   version="1.1"
   height="277.34772"
   width="639.7851">
  <defs
     id="defs88" />
  <sodipodi:namedview
     inkscape:current-layer="svg84"
     inkscape:window-maximized="1"
     inkscape:window-y="-8"
     inkscape:window-x="-8"
     inkscape:cy="102.20007"
     inkscape:cx="288.95119"
     inkscape:zoom="1.4442421"
     showgrid="false"
     id="namedview86"
     inkscape:window-height="1377"
     inkscape:window-width="2560"
     inkscape:pageshadow="2"
     inkscape:pageopacity="0"
     guidetolerance="10"
     gridtolerance="10"
     objecttolerance="10"
     borderopacity="1"
     bordercolor="#666666"
     pagecolor="#ffffff"
     inkscape:document-rotation="0" />
  <metadata
     id="metadata2">
    <rdf:RDF>
      <cc:Work
         rdf:about="">
        <dc:format>image/svg+xml</dc:format>
        <dc:type
           rdf:resource="http://purl.org/dc/dcmitype/StillImage" />
        <dc:title />
      </cc:Work>
    </rdf:RDF>
  </metadata>
  <g
     id="g82"
     stroke-width="0.13769"
     transform="matrix(7.2627,0,0,7.2627,-684.20554,-699.1075)">
    <rect
       id="rect4"
       style="paint-order:normal"
       fill="#1d232d"
       height="9.7115002"
       width="23.308001"
       y="96.454002"
       x="94.208" />
    <g
       id="g64"
       fill="#7b8694">
      <path
         id="path6"
         d="m 94.596,96.26 h 1.1654 v 0.19408 H 94.596 Z"
         inkscape:connector-curvature="0" />
      <path
         id="path8"
         d="m 96.538,96.26 h 1.1654 v 0.19408 H 96.538 Z"
         inkscape:connector-curvature="0" />
      <path
         id="path10"
         d="m 98.481,96.26 h 1.1654 v 0.19408 H 98.481 Z"
         inkscape:connector-curvature="0" />
      <path
         id="path12"
         d="m 100.42,96.26 h 1.1654 v 0.19408 H 100.42 Z"
         inkscape:connector-curvature="0" />
      <path
         id="path14"
         d="m 102.37,96.26 h 1.1654 v 0.19408 H 102.37 Z"
         inkscape:connector-curvature="0" />
      <path
         id="path16"
         d="m 104.31,96.26 h 1.1654 v 0.19408 H 104.31 Z"
         inkscape:connector-curvature="0" />
      <path
         id="path18"
         d="m 106.25,96.26 h 1.1654 v 0.19408 H 106.25 Z"
         inkscape:connector-curvature="0" />
      <path
         id="path20"
         d="m 108.19,96.26 h 1.1654 v 0.19408 H 108.19 Z"
         inkscape:connector-curvature="0" />
      <path
         style="fill:#7b8694;fill-opacity:1"
         id="path22"
         d="m 110.13,96.26 h 1.1654 v 0.19408 H 110.13 Z"
         inkscape:connector-curvature="0" />
      <path
         id="path24"
         d="m 112.08,96.26 h 1.1654 v 0.19408 H 112.08 Z"
         inkscape:connector-curvature="0" />
      <path
         id="path26"
         d="m 114.02,96.26 h 1.1654 v 0.19408 H 114.02 Z"
         inkscape:connector-curvature="0" />
      <path
         id="path28"
         d="m 115.96,96.26 h 1.1654 v 0.19408 H 115.96 Z"
         inkscape:connector-curvature="0" />
      <path
         id="path30"
         d="m 115.96,106.17 h 1.1654 v 0.19405 H 115.96 Z"
         inkscape:connector-curvature="0" />
      <path
         id="path32"
         d="m 114.02,106.17 h 1.1654 v 0.19405 H 114.02 Z"
         inkscape:connector-curvature="0" />
      <path
         id="path34"
         d="m 112.08,106.17 h 1.1654 v 0.19405 H 112.08 Z"
         inkscape:connector-curvature="0" />
      <path
         id="path36"
         d="m 110.13,106.17 h 1.1654 v 0.19405 H 110.13 Z"
         inkscape:connector-curvature="0" />
      <path
         id="path38"
         d="m 108.19,106.17 h 1.1654 v 0.19405 H 108.19 Z"
         inkscape:connector-curvature="0" />
      <path
         id="path40"
         d="m 106.25,106.17 h 1.1654 v 0.19405 H 106.25 Z"
         inkscape:connector-curvature="0" />
      <path
         id="path42"
         d="m 104.31,106.17 h 1.1654 v 0.19405 H 104.31 Z"
         inkscape:connector-curvature="0" />
      <path
         id="path44"
         d="m 102.37,106.17 h 1.1654 v 0.19405 H 102.37 Z"
         inkscape:connector-curvature="0" />
      <path
         id="path46"
         d="m 100.42,106.17 h 1.1654 v 0.19405 H 100.42 Z"
         inkscape:connector-curvature="0" />
      <path
         id="path48"
         d="m 98.481,106.17 h 1.1654 v 0.19405 H 98.481 Z"
         inkscape:connector-curvature="0" />
      <path
         id="path50"
         d="m 96.538,106.17 h 1.1654 v 0.19405 H 96.538 Z"
         inkscape:connector-curvature="0" />
      <path
         id="path52"
         d="m 94.596,106.17 h 1.1654 v 0.19405 H 94.596 Z"
         inkscape:connector-curvature="0" />
    </g>
  </g>
  <g
     transform="matrix(7.2627001,0,0,7.2627001,-638.32222,-695.89043)"
     fill="#ffffff"
     stroke-miterlimit="40"
     stroke-width="0.027538"
     id="g102" />
  <path
     sodipodi:nodetypes="sscccsssscccsssscccccsscsscscssssscsssscccssssssssssssssssscsssssssssssssssssssssssssssssssssssssssssssssssssssssss"
     inkscape:connector-curvature="0"
     id="path896"
     d="m 83.532006,59.402455 c -1.211859,-0.34066 -1.719187,-0.808603 -1.626908,-1.500609 l 0.05453,-0.408893 H 70.411019 58.862412 l 0.02819,-18.805226 c 0.02629,-17.541649 0.04063,-18.817697 0.213805,-18.990844 0.232285,-0.232272 0.805357,-0.240881 1.030755,-0.0155 0.09357,0.09357 0.186239,0.334821 0.205922,0.536107 0.0197,0.201285 0.03894,8.35167 0.04276,18.111963 l 0.007,17.745989 10.49494,-0.0033 c 6.094551,-0.0019 10.426321,-0.04354 10.331285,-0.09926 -0.253965,-0.148883 -3.266758,-0.955902 -4.676238,-1.252598 -3.175484,-0.668441 -7.183157,-1.105805 -11.188743,-1.221047 -2.20974,-0.06358 -2.418184,-0.08659 -2.644179,-0.291944 L 62.462531,52.984376 V 34.461893 15.939425 l 0.283959,-0.283954 0.283954,-0.283959 2.251185,0.07371 c 7.721569,0.252807 13.857339,1.370685 18.667467,3.401022 l 1.206813,0.509393 0.72931,-0.335455 c 2.68348,-1.234307 6.66116,-2.300547 10.81535,-2.899113 2.63411,-0.379546 7.114561,-0.714993 9.568091,-0.716357 1.64143,-8.25e-4 1.44476,-2.598026 1.44476,19.078635 v 18.64304 l -0.24533,0.153283 c -0.18146,0.113374 -0.87251,0.171321 -2.65422,0.222571 -4.1089,0.118189 -7.598621,0.501716 -11.074021,1.217052 -1.65904,0.341477 -3.99764,0.958016 -4.67197,1.231697 -0.18733,0.07603 2.95886,0.112798 10.058783,0.117548 l 10.331378,0.0069 V 38.041681 c 0,-17.363348 0.007,-18.042996 0.20108,-18.282092 0.24391,-0.301217 0.81386,-0.334149 1.08531,-0.06271 0.17315,0.173147 0.18752,1.449196 0.2138,18.990845 l 0.0282,18.805225 H 99.437829 87.889239 l 0.0556,0.414222 c 0.0757,0.564655 -0.3144,1.020904 -1.14396,1.337834 -0.81113,0.309885 -2.44632,0.388648 -3.268794,0.157446 z M 81.740494,46.131158 c 0.07196,-0.07197 0.130844,-0.267407 0.130844,-0.434316 0,-0.252555 -0.0869,-0.347446 -0.517932,-0.565579 -1.465495,-0.74164 -4.906413,-1.801886 -7.659945,-2.360253 -3.104766,-0.629589 -6.910707,-1.081862 -7.309231,-0.868577 -0.244709,0.130963 -0.294978,0.671934 -0.07811,0.840625 0.07497,0.05831 0.774172,0.164864 1.553797,0.236782 4.735247,0.436814 9.682511,1.607372 12.963211,3.067188 0.537878,0.239341 0.743317,0.258181 0.917371,0.08413 z m 7.634835,-0.242377 c 3.23542,-1.384818 7.85377,-2.453346 12.559051,-2.905737 0.74963,-0.07207 1.44884,-0.17513 1.55379,-0.229011 0.26802,-0.137601 0.25232,-0.703933 -0.0236,-0.8516 -0.15015,-0.08036 -0.59946,-0.07998 -1.49927,0.0013 -4.046891,0.365423 -8.228861,1.254439 -11.535071,2.452166 -2.36912,0.858251 -2.74631,1.117594 -2.39819,1.648904 0.21931,0.334706 0.30825,0.327025 1.34329,-0.11599 z M 81.66043,39.824907 c 0.137277,-0.07347 0.210908,-0.228214 0.210908,-0.443249 0,-0.305259 -0.06304,-0.359499 -0.829251,-0.71351 -2.873182,-1.327492 -7.912149,-2.541107 -12.623226,-3.040254 -1.985046,-0.210319 -2.249042,-0.165186 -2.249042,0.384507 0,0.43959 0.176497,0.501743 1.85365,0.652754 4.562941,0.410845 9.591547,1.599659 12.659809,2.992905 0.687333,0.312105 0.701283,0.314487 0.977152,0.166847 z m 8.270169,-0.483042 c 3.38593,-1.341561 8.295402,-2.426215 12.385411,-2.736324 1.17933,-0.08942 1.36298,-0.169336 1.36298,-0.59314 0,-0.631028 -0.27795,-0.646852 -3.684077,-0.20974 -4.079204,0.52349 -7.503874,1.369168 -10.654454,2.630972 -0.99387,0.398046 -1.47201,0.713462 -1.47201,0.971036 0,0.105764 0.39851,0.533112 0.49714,0.533112 0.0335,0 0.7378,-0.268162 1.56501,-0.595916 z M 81.66043,33.500684 c 0.301988,-0.161619 0.28125,-0.709782 -0.03441,-0.910042 -0.484564,-0.3074 -2.879241,-1.18568 -4.50528,-1.652372 -2.841739,-0.815613 -6.540208,-1.480421 -9.72343,-1.747808 -1.0183,-0.08554 -1.227474,0.0019 -1.227474,0.513405 0,0.423103 0.186578,0.485201 1.908172,0.635096 4.115833,0.358353 8.635722,1.381756 11.77614,2.66638 1.638093,0.670082 1.533422,0.641379 1.806299,0.495341 z m 7.553359,-0.206328 c 2.98302,-1.338392 7.7426,-2.472072 12.343541,-2.940111 1.02204,-0.103967 1.91752,-0.225659 1.98996,-0.270427 0.22553,-0.139387 0.15784,-0.701091 -0.1012,-0.839724 -0.47248,-0.252867 -4.897752,0.314568 -8.193741,1.050651 -3.89032,0.868815 -7.3839,2.186827 -7.3839,2.785701 0,0.126861 0.40771,0.533112 0.53502,0.533112 0.0544,0 0.41903,-0.143641 0.81032,-0.319202 z m -7.361833,-6.48679 c 0.01933,-0.162077 -0.02164,-0.363095 -0.09102,-0.446703 -0.157923,-0.190287 -2.528879,-1.123166 -3.978532,-1.565394 -3.08011,-0.939621 -7.032198,-1.679217 -10.329578,-1.933084 -1.072472,-0.08257 -1.283005,0.0012 -1.283005,0.511083 0,0.37285 0.254892,0.535678 0.838548,0.535678 0.653787,0 3.087254,0.300047 4.940484,0.60916 2.94172,0.490672 6.425201,1.465553 8.662185,2.42418 0.862882,0.369776 1.184915,0.334763 1.24092,-0.13492 z m 7.728683,0.0025 c 2.42925,-0.988802 5.38796,-1.802611 8.35122,-2.297036 1.825084,-0.304527 4.258601,-0.603935 4.908581,-0.603935 0.58365,0 0.83855,-0.162828 0.83855,-0.535678 0,-0.509789 -0.21054,-0.593657 -1.28301,-0.511087 -4.416491,0.340034 -9.154511,1.379236 -12.809951,2.80964 -1.25719,0.491953 -1.71758,0.785835 -1.71758,1.096382 0,0.08985 0.40177,0.520929 0.48551,0.520929 0.0272,0 0.57916,-0.215648 1.22668,-0.479215 z"
     style="fill:#6f8ce9;fill-opacity:1;stroke-width:0.109038" />
</svg>
