<?xml version="1.0" encoding="UTF-8"?>
<svg width="100.1" height="50.1" version="1.1" viewBox="0 0 26.485 13.256" xmlns="http://www.w3.org/2000/svg" xmlns:cc="http://creativecommons.org/ns#" xmlns:dc="http://purl.org/dc/elements/1.1/" xmlns:rdf="http://www.w3.org/1999/02/22-rdf-syntax-ns#">
 <metadata>
  <rdf:RDF>
   <cc:Work rdf:about="">
    <dc:format>image/svg+xml</dc:format>
    <dc:type rdf:resource="http://purl.org/dc/dcmitype/StillImage"/>
    <dc:title/>
   </cc:Work>
  </rdf:RDF>
 </metadata>
 <g transform="translate(-119.81 -81.063)">
  <path d="m120 93.295h26.078l-10.341-8.0688-5.888 2e-3z" fill="#1d232d"/>
  <g transform="matrix(.065233 0 0 .05343 50.858 63.642)" fill="none" stroke="#a6aeb8" stroke-linecap="square" stroke-width=".53508">
   <path d="m1211 404.02-150.98 150.98"/>
   <path d="m1229 404.02-89.039 150.98"/>
   <path d="m1238.1 404.02-58.069 150.98"/>
   <path d="m1247.1 404.02-27.099 150.98"/>
   <path d="m1256.1 404.02 3.8712 150.98"/>
   <path d="m1265.2 404.02 34.841 150.98"/>
   <path d="m1274.2 404.02 65.811 150.98"/>
   <path d="m1283.2 404.02 96.781 150.98"/>
   <path d="m1292.2 404.02 127.75 150.98"/>
   <path d="m1220 404.02-120.01 150.98"/>
   <path d="m1060 555h399.77"/>
   <path d="m1100 515h317.61"/>
   <path d="m1130.4 485h255.64"/>
   <path d="m1150.7 465h214.29"/>
   <path d="m1167.4 448h179.63"/>
   <path d="m1181.5 434h150.6"/>
   <path d="m1192.3 423h128.57"/>
   <path d="m1199.3 416h114.16"/>
   <path d="m1204.3 411h103.74"/>
   <path d="m1208.4 407h95.629"/>
   <path d="m1212 404h88.902"/>
   <path d="m1301.2 403.98 158.76 151.02"/>
  </g>
  <g>
   <path d="m140.8 89.147v0.11726h-0.23452v0.1174h-0.1174v0.11726h-0.11726v0.23465h-0.1174v1.0559h0.1174v-0.11739h0.11726v-0.11726h0.1174v0.11726h0.11725v0.11739h0.23466v-0.23465h0.23465v0.23465h0.23452v-0.11739h0.11739v-0.11726h0.11727v0.11726h0.11739v0.11739h0.11726v-1.0559h-0.11726v-0.23465h-0.11739v-0.11726h-0.11727v-0.1174h-0.23465v-0.11726z" fill="#cf2f25"/>
   <path d="m127.56 87.096v0.07617h0.30493v-0.07617zm-0.15246 0.07629v0.07617h-0.0762v0.07617h-0.0763v0.15246h-0.0762v0.68602h0.0762v-0.07617h0.0763v-0.0763h0.0762v0.0763h0.0763v0.07617h0.15246v-0.15247h0.15246v0.15247h0.15247v-0.07617h0.0762v-0.0763h0.0762v0.0763h0.0763v0.07617h0.0762v-0.68602h-0.0762v-0.15246h-0.0763v-0.07617h-0.0762v-0.07617z" fill="#6f8ce9"/>
   <path d="m126.21 87.944v0.0931h0.37268v-0.0931zm-0.18635 0.09324v0.0931h-0.0932v0.09311h-0.0933v0.18634h-0.0932v0.83848h0.0932v-0.0931h0.0933v-0.09324h0.0932v0.09324h0.0933v0.0931h0.18634v-0.18634h0.18622v0.18634h0.18634v-0.0931h0.0933v-0.09324h0.093v0.09324h0.0933v0.0931h0.0932v-0.83848h-0.0932v-0.18634h-0.0933v-0.09311h-0.0932v-0.0931z" fill="#47d58a"/>
   <path d="m128.08 87.944v0.0931h0.37256v-0.0931zm-0.18634 0.09324v0.0931h-0.0933v0.09311h-0.093v0.18634h-0.0932v0.83848h0.0932v-0.0931h0.093v-0.09324h0.0933v0.09324h0.0932v0.0931h0.18634v-0.18634h0.18634v0.18634h0.18635v-0.0931h0.0932v-0.09324h0.0933v0.09324h0.0932v0.0931h0.0933v-0.0931h-1.5e-4v-0.09324h1.4e-4v-0.65214h-0.0933v-0.18634h-0.0932v-0.09311h-0.0933v-0.0931z" fill="#47d58a"/>
   <path d="m129.09 87.096v0.07617h0.30493v-0.07617zm-0.15246 0.07629v0.07617h-0.0762v0.07617h-0.0763v0.15246h-0.0762v0.68602h0.0762v-0.07617h0.0763v-0.0763h0.0762v0.0763h0.0763v0.07617h0.15247v-0.15247h0.15233v0.15247h0.15247v-0.07617h0.0763v-0.0763h0.0762v0.0763h0.0763v0.07617h0.0762v-0.68602h-0.0762v-0.15246h-0.0763v-0.07617h-0.0762v-0.07617z" fill="#6f8ce9"/>
   <path d="m130.61 87.096v0.07617h0.30493v-0.07617zm-0.15246 0.07629v0.07617h-0.0762v0.07617h-0.0763v0.15246h-0.0762v0.68602h0.0762v-0.07617h0.0763v-0.0763h0.0762v0.0763h0.0763v0.07617h0.15234v-0.15247h0.15246v0.15247h0.15246v-0.07617h0.0763v-0.0763h0.0762v0.0763h0.0762v0.07617h0.0763v-0.68602h-0.0763v-0.15246h-0.0762v-0.07617h-0.0762v-0.07617z" fill="#6f8ce9"/>
   <path d="m129.94 87.944v0.0931h0.37269v-0.0931zm-0.18623 0.09324v0.0931h-0.0933v0.09311h-0.0932v0.18634h-0.0933v0.83848h0.0933v-0.0931h0.0932v-0.09324h0.0933v0.09324h0.0931v0.0931h0.18634v-0.18634h0.18634v0.18634h0.18622v-0.0931h0.0933v-0.09324h0.0932v0.09324h0.0933v0.0931h0.0932v-0.83848h-0.0932v-0.18634h-0.0933v-0.09311h-0.0932v-0.0931z" fill="#47d58a"/>
  </g>
  <g fill="#e9e56f">
   <path d="m122.26 90.792v0.15063h-0.30126v0.15063h-0.15062v0.15063h-0.15063v0.30125h-0.15063v1.3557h0.15063v-0.15063h0.15063v-0.15063h0.15062v0.15063h0.15063v0.15063h0.30126v-0.30126h0.30125v0.30126h0.30126v-0.15063h0.15063v-0.15063h0.15063v0.15063h0.15062v0.15063h0.15063v-1.3557h-0.15063v-0.30125h-0.15062v-0.15063h-0.15063v-0.15063h-0.30126v-0.15063z"/>
   <path d="m125.27 90.792v0.15063h-0.30126v0.15063h-0.15063v0.15063h-0.15062v0.30125h-0.15063v1.3557h0.15063v-0.15063h0.15062v-0.15063h0.15063v0.15063h0.15063v0.15063h0.30126v-0.30126h0.30125v0.30126h0.30126v-0.15063h0.15062v-0.15063h0.15063v0.15063h0.15063v0.15063h0.15063v-1.3557h-0.15063v-0.30125h-0.15063v-0.15063h-0.15063v-0.15063h-0.30125v-0.15063z"/>
   <path d="m128.29 90.792v0.15063h-0.30125v0.15063h-0.15063v0.15063h-0.15063v0.30125h-0.15062v1.3557h0.15062v-0.15063h0.15063v-0.15063h0.15063v0.15063h0.15063v0.15063h0.30124v-0.30126h0.30126v0.30126h0.30125v-0.15063h0.15064v-0.15063h0.15062v0.15063h0.15063v0.15063h0.15062v-1.3557h-0.15062v-0.30125h-0.15063v-0.15063h-0.15062v-0.15063h-0.30125v-0.15063z"/>
   <path d="m131.3 90.792v0.15063h-0.30126v0.15063h-0.15062v0.15063h-0.15063v0.30125h-0.15063v1.3557h0.15063v-0.15063h0.15063v-0.15063h0.15062v0.15063h0.15063v0.15063h0.30126v-0.30126h0.30125v0.30126h0.30126v-0.15063h0.15063v-0.15063h0.15062v0.15063h0.15063v0.15063h0.15064v-1.3557h-0.15064v-0.30125h-0.15063v-0.15063h-0.15062v-0.15063h-0.30126v-0.15063z"/>
   <path d="m134.31 90.792v0.15063h-0.30126v0.15063h-0.15063v0.15063h-0.15062v0.30125h-0.15063v1.3557h0.15063v-0.15063h0.15062v-0.15063h0.15063v0.15063h0.15063v0.15063h0.30125v-0.30126h0.30126v0.30126h0.30126v-0.15063h0.15062v-0.15063h0.15063v0.15063h0.15063v0.15063h0.15063v-1.3557h-0.15063v-0.30125h-0.15063v-0.15063h-0.15063v-0.15063h-0.30125v-0.15063z"/>
   <path d="m137.32 90.792v0.15063h-0.30125v0.15063h-0.15063v0.15063h-0.15063v0.30125h-0.15063v1.3557h0.15063v-0.15063h0.15063v-0.15063h0.15063v0.15063h0.15063v0.15063h0.30125v-0.30126h0.30126v0.30126h0.30125v-0.15063h0.15063v-0.15063h0.15063v0.15063h0.15063v0.15063h0.15062v-1.3557h-0.15062v-0.30125h-0.15063v-0.15063h-0.15063v-0.15063h-0.30126v-0.15063z"/>
   <path d="m140.34 90.792v0.15063h-0.30126v0.15063h-0.15062v0.15063h-0.15063v0.30125h-0.15063v1.3557h0.15063v-0.15063h0.15063v-0.15063h0.15062v0.15063h0.15063v0.15063h0.30126v-0.30126h0.30125v0.30126h0.30126v-0.15063h0.15063v-0.15063h0.15063v0.15063h0.15062v0.15063h0.15063v-1.3557h-0.15063v-0.30125h-0.15062v-0.15063h-0.15063v-0.15063h-0.30126v-0.15063z"/>
   <path d="m143.35 90.792v0.15063h-0.30126v0.15063h-0.15063v0.15063h-0.15062v0.30125h-0.15063v1.3557h0.15063v-0.15063h0.15062v-0.15063h0.15063v0.15063h0.15063v0.15063h0.30126v-0.30126h0.30125v0.30126h0.30126v-0.15063h0.15062v-0.15063h0.15063v0.15063h0.15063v0.15063h0.15063v-1.3557h-0.15063v-0.30125h-0.15063v-0.15063h-0.15063v-0.15063h-0.30125v-0.15063z"/>
  </g>
  <g>
   <path d="m124.38 89.147v0.11726h-0.23466v0.1174h-0.11727v0.11726h-0.11739v0.23465h-0.11726v1.0559h0.11726v-0.11739h0.11739v-0.11726h0.11727v0.11726h0.11739v0.11739h0.23466v-0.23465h0.23451v0.23465h0.23466v-0.11739h0.1174v-0.11726h0.11725v0.11726h0.11727v0.11739h0.11739v-1.0559h-0.11739v-0.23465h-0.11727v-0.11726h-0.11725v-0.1174h-0.23465v-0.11726z" fill="#cf2f25"/>
   <path d="m126.72 89.147v0.11726h-0.23452v0.1174h-0.11739v0.11726h-0.11726v0.23465h-0.11739v1.0559h0.11739v-0.11739h0.11726v-0.11726h0.11739v0.11726h0.11727v0.11739h0.23465v-0.23465h0.23466v0.23465h0.23452v-0.11739h0.11739v-0.11726h0.11726v0.11726h0.11739v0.11739h0.11726v-1.0559h-0.11726v-0.23465h-0.11739v-0.11726h-0.11726v-0.1174h-0.23466v-0.11726z" fill="#cf2f25"/>
   <path d="m132.14 87.096v0.07617h0.30479v-0.07617zm-0.15247 0.07629v0.07617h-0.0763v0.07617h-0.0762v0.15246h-0.0763v0.68602h0.0763v-0.07617h0.0762v-0.0763h0.0763v0.0763h0.0762v0.07617h0.15247v-0.15247h0.15246v0.15247h0.15246v-0.07617h0.0762v-0.0763h0.0763v0.0763h0.0762v0.07617h0.0763v-0.68602h-0.0763v-0.15246h-0.0762v-0.07617h-0.0763v-0.07617z" fill="#6f8ce9"/>
   <path d="m131.8 87.944v0.0931h0.37256v-0.0931zm-0.18634 0.09324v0.0931h-0.0932v0.09311h-0.0933v0.18634h-0.0932v0.83848h0.0932v-0.0931h0.0933v-0.09324h0.0932v0.09324h0.0933v0.0931h0.18621v-0.18634h0.18634v0.18634h0.18635v-0.0931h0.093v-0.09324h0.0933v0.09324h0.0932v0.0931h0.0933v-0.83848h-0.0933v-0.18634h-0.0932v-0.09311h-0.0932v-0.0931z" fill="#47d58a"/>
   <path d="m129.07 89.147v0.11726h-0.23466v0.1174h-0.11725v0.11726h-0.1174v0.23465h-0.11726v1.0559h0.11726v-0.11739h0.11726v-0.11726h0.11739v0.11726h0.11727v0.11739h0.23465v-0.23465h0.23466v0.23465h0.23465v-0.11739h0.11726v-0.11726h0.11739v0.11726h0.11726v0.11739h0.11727v-1.0559h-0.11727v-0.23465h-0.11726v-0.11726h-0.11739v-0.1174h-0.23466v-0.11726z" fill="#cf2f25"/>
   <path d="m133.66 87.096v0.07617h0.30493v-0.07617zm-0.15234 0.07629v0.07617h-0.0763v0.07617h-0.0762v0.15246h-0.0763v0.68602h0.0763v-0.07617h0.0762v-0.0763h0.0763v0.0763h0.0762v0.07617h0.15247v-0.15247h0.15246v0.15247h0.15246v-0.07617h0.0762v-0.0763h0.0763v0.0763h0.0762v0.07617h0.0763v-0.68602h-0.0763v-0.15246h-0.0762v-0.07617h-0.0763v-0.07617z" fill="#6f8ce9"/>
   <path d="m133.67 87.944v0.0931h0.37269v-0.0931zm-0.18621 0.09324v0.0931h-0.0933v0.09311h-0.0932v0.18634h-0.0933v0.83848h0.0933v-0.0931h0.0932v-0.09324h0.0933v0.09324h0.0932v0.0931h0.18634v-0.18634h0.18634v0.18634h0.18636v-0.0931h0.0932v-0.09324h0.093v0.09324h0.0933v0.0931h0.0932v-0.83848h-0.0932v-0.18634h-0.0932v-0.09311h-0.0933v-0.0931z" fill="#47d58a"/>
   <path d="m131.42 89.147v0.11726h-0.23466v0.1174h-0.11726v0.11726h-0.11739v0.23465h-0.11727v1.0559h0.11727v-0.11739h0.11739v-0.11726h0.11726v0.11726h0.11739v0.11739h0.23466v-0.23465h0.23452v0.23465h0.23465v-0.11739h0.11725v-0.11726h0.11741v0.11726h0.11725v0.11739h0.1174v-1.0559h-0.1174v-0.23465h-0.11725v-0.11726h-0.11727v-0.1174h-0.23465v-0.11726z" fill="#cf2f25"/>
   <path d="m135.19 87.096v0.07617h0.30492v-0.07617zm-0.15234 0.07629v0.07617h-0.0763v0.07617h-0.0762v0.15246h-0.0763v0.68602h0.0763v-0.07617h0.0762v-0.0763h0.0763v0.0763h0.0762v0.07617h0.15246v-0.15247h0.15247v0.15247h0.15246v-0.07617h0.0762v-0.0763h0.0762v0.0763h0.0763v0.07617h0.0762v-0.68602h-0.0762v-0.15246h-0.0762v-0.07617h-0.0763v-0.07617z" fill="#6f8ce9"/>
   <path d="m135.53 87.944v0.0931h0.37268v-0.0931zm-0.18635 0.09324v0.0931h-0.0932v0.09311h-0.0933v0.18634h-0.0931v0.83848h0.0931v-0.0931h0.0933v-0.09324h0.0932v0.09324h0.0933v0.0931h0.18635v-0.18634h0.18621v0.18634h0.18634v-0.0931h0.0933v-0.09324h0.093v0.09324h0.0932v0.0931h0.0933v-0.83848h-0.0933v-0.18634h-0.0932v-0.09311h-0.093v-0.0931z" fill="#47d58a"/>
   <path d="m133.76 89.147v0.11726h-0.23451v0.1174h-0.11739v0.11726h-0.11727v0.23465h-0.1174v1.0559h0.1174v-0.11739h0.11727v-0.11726h0.11739v0.11726h0.11725v0.11739h0.23466v-0.23465h0.23465v0.23465h0.23452v-0.11739h0.1174v-0.11726h0.11725v0.11726h0.11739v0.11739h0.11727v-1.0559h-0.11727v-0.23465h-0.11739v-0.11726h-0.11725v-0.1174h-0.23465v-0.11726z" fill="#cf2f25"/>
   <path d="m136.71 87.096v0.07617h0.30493v-0.07617zm-0.15246 0.07629v0.07617h-0.0762v0.07617h-0.0763v0.15246h-0.0762v0.68602h0.0762v-0.07617h0.0763v-0.0763h0.0762v0.0763h0.0763v0.07617h0.15247v-0.15247h0.15246v0.15247h0.15234v-0.07617h0.0763v-0.0763h0.0762v0.0763h0.0763v0.07617h0.0762v-0.68602h-0.0762v-0.15246h-0.0763v-0.07617h-0.0762v-0.07617z" fill="#6f8ce9"/>
   <path d="m137.39 87.944v0.0931h0.37256v-0.0931zm-0.18635 0.09324v0.0931h-0.0933v0.09311h-0.0932v0.18634h-0.0933v0.83848h0.0933v-0.0931h0.0932v-0.09324h0.0933v0.09324h0.0932v0.0931h0.18634v-0.18634h0.18634v0.18634h0.18635v-0.0931h0.0932v-0.09324h0.0933v0.09324h0.0932v0.0931h0.0932v-0.83848h-0.0932v-0.18634h-0.0932v-0.09311h-0.0933v-0.0931z" fill="#47d58a"/>
   <path d="m136.11 89.147v0.11726h-0.23452v0.1174h-0.11725v0.11726h-0.1174v0.23465h-0.11725v1.0559h0.11725v-0.11739h0.11726v-0.11726h0.11739v0.11726h0.11727v0.11739h0.23464v-0.23465h0.23467v0.23465h0.23464v-0.11739h0.11727v-0.11726h0.11726v0.11726h0.11739v0.11739h0.11726v-1.0559h-0.11726v-0.23465h-0.11726v-0.11726h-0.11739v-0.1174h-0.23466v-0.11726z" fill="#cf2f25"/>
   <path d="m138.23 87.096v0.07617h0.30493v-0.07617zm-0.15246 0.07629v0.07617h-0.0762v0.07617h-0.0763v0.15246h-0.0762v0.68602h0.0762v-0.07617h0.0763v-0.0763h0.0762v0.0763h0.0763v0.07617h0.15247v-0.15247h0.15233v0.15247h0.15247v-0.07617h0.0763v-0.0763h0.0762v0.0763h0.0763v0.07617h0.0762v-0.68602h-0.0762v-0.15246h-0.0763v-0.07617h-0.0762v-0.07617z" fill="#6f8ce9"/>
   <path d="m139.26 87.944v0.0931h0.37269v-0.0931zm-0.18634 0.09324v0.0931h-0.0932v0.09311h-0.0933v0.18634h-0.0931v0.83848h0.0932v-0.0931h0.0933v-0.09324h0.0932v0.09324h0.0933v0.0931h0.18634v-0.18634h0.18622v0.18634h0.18633v-0.0931h0.0933v-0.09324h0.0932v0.09324h0.0933v0.0931h0.0932v-0.83848h-0.0932v-0.18634h-0.0933v-0.09311h-0.0932v-0.0931z" fill="#47d58a"/>
   <path d="m138.46 89.147v0.11726h-0.23466v0.1174h-0.11725v0.11726h-0.11739v0.23465h-0.11727v1.0559h0.11727v-0.11739h0.11739v-0.11726h0.11725v0.11726h0.1174v0.11739h0.23466v-0.11739h-1.4e-4v-0.11726h0.23466v0.23465h0.23465v-0.11739h0.11727v-0.11726h0.11739v0.11726h0.11726v0.11739h0.11739v-1.0559h-0.11739v-0.23465h-0.11726v-0.11726h-0.11725v-0.1174h-0.23466v-0.11726z" fill="#cf2f25"/>
   <rect x="130.51" y="82.858" width="5.2171" height="2.5681" fill="#1d232d" stroke="#7b8694" stroke-dashoffset="1.2" stroke-linecap="square" stroke-miterlimit="40" stroke-width=".065214"/>
   <rect x="130.38" y="85.401" width="5.5432" height=".19564" fill="#a6aeb8"/>
   <rect x="131.81" y="85.597" width="2.6085" height=".58285" fill="#7b8694"/>
  </g>
  <g fill="#1d232d" stroke-dashoffset="1.2" stroke-linecap="square" stroke-miterlimit="40" stroke-width=".065214">
   <rect x="130.12" y="86.249" width=".39128" height=".065214"/>
   <rect x="130.51" y="86.183" width=".065214" height=".065214"/>
   <rect x="130.51" y="86.118" width=".13043" height=".065214"/>
   <rect x="129.99" y="86.053" width=".065214" height=".19564"/>
   <rect x="130.51" y="86.053" width=".065214" height=".065214"/>
   <rect x="130.64" y="86.053" width=".065214" height=".065214"/>
   <rect x="130.7" y="85.988" width=".065214" height=".065214"/>
   <rect x="130.64" y="85.923" width=".065214" height=".065214"/>
   <rect x="130.12" y="86.053" width=".13043" height=".065214"/>
   <rect x="130.05" y="85.531" width=".065214" height=".52171"/>
   <rect x="129.99" y="85.401" width=".13043" height=".13043"/>
   <rect x="130.12" y="85.27" width=".065214" height=".19564"/>
   <rect x="130.18" y="85.401" width=".065214" height=".065214"/>
   <rect x="130.18" y="85.14" width=".065214" height=".13043"/>
   <rect x="130.25" y="85.075" width=".065214" height=".065214"/>
   <rect x="129.92" y="85.075" width=".065214" height=".32607"/>
   <rect x="129.99" y="84.944" width=".065214" height=".13043"/>
   <rect x="130.05" y="84.814" width=".065214" height=".13043"/>
   <rect x="130.12" y="84.814" width=".065214" height=".065214"/>
   <rect x="129.99" y="84.749" width=".065214" height=".065214"/>
   <rect x="129.92" y="84.357" width=".065214" height=".39128"/>
   <rect x="129.99" y="84.618" width=".065214" height=".065214"/>
   <rect x="129.99" y="84.292" width=".065214" height=".065214"/>
   <rect x="130.05" y="84.227" width=".065214" height=".065214"/>
   <rect x="130.12" y="84.162" width=".39128" height=".065214"/>
   <rect x="130.51" y="84.227" width=".065214" height=".065214"/>
   <rect x="130.57" y="84.292" width=".065214" height=".065214"/>
   <rect x="130.64" y="84.357" width=".065214" height=".39128"/>
   <rect x="130.57" y="85.857" width=".065214" height=".065214"/>
   <rect x="130.44" y="85.923" width=".065214" height=".065214"/>
   <rect x="130.38" y="85.531" width=".065214" height=".52171"/>
   <rect x="130.51" y="85.466" width=".065214" height=".4565"/>
   <rect x="130.12" y="85.597" width=".13043" height=".065214"/>
   <rect x="130.18" y="85.662" width=".065214" height=".065214"/>
   <rect x="130.51" y="85.205" width=".065214" height=".19564"/>
   <rect x="130.57" y="85.075" width=".065214" height=".065214"/>
   <rect x="130.51" y="84.944" width=".065214" height=".065214"/>
   <rect x="130.44" y="84.879" width=".065214" height=".065214"/>
   <rect x="130.51" y="84.814" width=".19564" height=".065214"/>
   <rect x="130.57" y="84.749" width=".065214" height=".065214"/>
   <rect x="130.7" y="84.749" width=".13043" height=".065214"/>
   <rect x="130.64" y="85.01" width=".13043" height=".065214"/>
   <rect x="130.9" y="84.814" width=".13043" height=".065214"/>
   <rect x="130.77" y="84.944" width=".065214" height=".065214"/>
   <rect x="130.83" y="84.879" width=".065214" height=".065214"/>
   <rect x="130.83" y="84.684" width=".065214" height=".065214"/>
   <rect x="131.03" y="84.749" width=".065214" height=".065214"/>
   <rect x="131.09" y="84.684" width=".065214" height=".065214"/>
   <rect x="131.03" y="84.618" width=".065214" height=".065214"/>
   <rect x="130.9" y="84.618" width=".065214" height=".065214"/>
   <rect x="130.96" y="84.553" width=".065214" height=".065214"/>
   <rect x="131.09" y="84.553" width=".065214" height=".065214"/>
   <rect x="131.03" y="84.488" width=".065214" height=".065214"/>
  </g>
  <g fill="#898989" stroke-dashoffset="1.2" stroke-linecap="square" stroke-miterlimit="40" stroke-width=".065214">
   <rect x="130.57" y="85.923" width=".065214" height=".19564"/>
   <rect x="130.64" y="85.988" width=".065214" height=".065214"/>
   <rect x="130.51" y="85.988" width=".065214" height=".065214"/>
   <rect x="130.44" y="86.053" width=".065214" height=".065214"/>
   <rect x="130.44" y="86.183" width=".065214" height=".065214"/>
   <rect x="130.25" y="85.597" width=".065214" height=".065214"/>
   <rect x="130.12" y="85.531" width=".065214" height=".065214"/>
   <rect x="130.51" y="85.401" width=".065214" height=".065214"/>
   <rect x="130.18" y="85.27" width=".065214" height=".065214"/>
   <rect x="129.99" y="85.336" width=".13043" height=".065214"/>
   <rect x="129.99" y="85.205" width=".065214" height=".13043"/>
   <rect x="130.77" y="84.879" width=".065214" height=".065214"/>
   <rect x="130.96" y="84.749" width=".065214" height=".065214"/>
   <rect x="130.12" y="84.879" width=".32607" height=".065214"/>
   <rect x="130.18" y="84.814" width=".065214" height=".065214"/>
   <rect x="130.05" y="84.749" width=".19564" height=".065214"/>
   <rect x="130.12" y="84.684" width=".065214" height=".065214"/>
   <rect x="130.31" y="84.618" width=".13043" height=".065214"/>
  </g>
  <rect x="130.31" y="84.749" width=".13043" height=".065214" fill="#1d232d" stroke-dashoffset="1.2" stroke-linecap="square" stroke-miterlimit="40" stroke-width=".065214"/>
  <g fill="#898989" stroke-dashoffset="1.2" stroke-linecap="square" stroke-miterlimit="40" stroke-width=".065214">
   <rect x="130.18" y="84.488" width=".39128" height=".065214"/>
   <rect x="130.57" y="84.684" width=".065214" height=".065214"/>
   <rect x="129.99" y="84.553" width=".065214" height=".065214"/>
   <rect x="130.05" y="84.357" width=".065214" height=".065214"/>
  </g>
  <g fill="#cf2f25" stroke-dashoffset="1.2" stroke-linecap="square" stroke-miterlimit="40" stroke-width=".065214">
   <path d="m130.12 84.227v0.06521h-0.0652v0.06521h0.0652v0.06521h-0.13042v0.06521h0.13042v0.13043h-0.0652v0.06521h-0.0652v0.06521h0.1304v-0.06521h0.0652v-0.19563h0.13043v-0.19564h-0.13043v-0.06521z"/>
   <rect x="129.99" y="84.488" width=".065214" height=".065214"/>
   <rect x="130.44" y="84.227" width=".065214" height=".065214"/>
   <rect x="130.51" y="84.292" width=".065214" height=".19564"/>
   <rect x="130.57" y="84.357" width=".065214" height=".32607"/>
   <rect x="130.18" y="85.336" width=".065214" height=".065214"/>
  </g>
  <g fill="#7d0600" stroke-dashoffset="1.2" stroke-linecap="square" stroke-miterlimit="40" stroke-width=".065214">
   <rect x="129.99" y="84.357" width=".065214" height=".065214"/>
   <rect x="130.05" y="84.488" width=".065214" height=".13043"/>
   <rect x="130.18" y="84.227" width=".13043" height=".065214"/>
   <rect x="130.31" y="84.292" width=".065214" height=".19564"/>
   <rect x="130.38" y="84.227" width=".065214" height=".065214"/>
   <rect x="130.44" y="84.292" width=".065214" height=".19564"/>
  </g>
  <g fill="#535e70" stroke-dashoffset="1.2" stroke-linecap="square" stroke-miterlimit="40" stroke-width=".065214">
   <path d="m130.51 84.879v0.06521h0.0652v0.13043h0.0652v-0.06521h0.1304v-0.06521h-0.0652v-0.06521h-0.1304zm0 0.06521h-0.45647v0.13042h-0.0652v0.13043h0.19565v-0.06521h0.0652v-0.065208h0.0652v0.06521h-0.0652v0.32607h0.0652v-0.06521h0.13043v-0.06521h0.0652v-0.32607z"/>
   <rect x="130.51" y="85.01" width=".065214" height=".19564"/>
   <rect x="130.31" y="85.401" width=".13043" height=".065214"/>
   <rect x="130.44" y="85.336" width=".065214" height=".065214"/>
  </g>
  <rect x="130.12" y="85.662" width=".065214" height=".39128" fill="#0a2c9d" stroke-dashoffset="1.2" stroke-linecap="square" stroke-miterlimit="40" stroke-width=".065214"/>
  <rect x="130.18" y="85.727" width=".065214" height=".32607" fill="#0a2c9d" stroke-dashoffset="1.2" stroke-linecap="square" stroke-miterlimit="40" stroke-width=".065214"/>
  <g fill="#2c57df" stroke-dashoffset="1.2" stroke-linecap="square" stroke-miterlimit="40" stroke-width=".065214">
   <rect x="130.44" y="85.401" width=".065214" height=".52171"/>
   <rect x="130.31" y="85.466" width=".13043" height=".065214"/>
   <rect x="130.31" y="85.531" width=".065214" height=".4565"/>
   <rect x="130.25" y="85.727" width=".065214" height=".32607"/>
  </g>
  <rect x="130.25" y="84.553" width=".065214" height=".065214" fill="#1d232d" stroke-dashoffset="1.2" stroke-linecap="square" stroke-miterlimit="40" stroke-width=".065214"/>
  <rect x="130.44" y="84.553" width=".065214" height=".065214" fill="#1d232d" stroke-dashoffset="1.2" stroke-linecap="square" stroke-miterlimit="40" stroke-width=".065214"/>
  <g fill="#fff">
   <rect x="130.05" y="86.183" width=".39128" height=".065214"/>
   <rect x="130.38" y="86.053" width=".065214" height=".13043"/>
   <rect x="130.44" y="86.118" width=".065214" height=".065214"/>
   <rect x="130.12" y="85.466" width=".19564" height=".065214"/>
   <rect x="130.18" y="85.531" width=".13043" height=".065214"/>
   <rect x="130.05" y="85.205" width=".065214" height=".13043"/>
   <rect x="130.12" y="85.205" width=".065214" height=".065214"/>
   <rect x="130.31" y="84.227" width=".065214" height=".065214"/>
   <rect x="130.38" y="84.292" width=".065214" height=".19564"/>
   <rect x="130.64" y="84.749" width=".065214" height=".065214"/>
   <rect x="130.7" y="84.814" width=".065214" height=".13043"/>
   <rect x="130.77" y="84.814" width=".13043" height=".065214"/>
   <rect x="130.83" y="84.749" width=".13043" height=".065214"/>
   <rect x="130.9" y="84.684" width=".19564" height=".065214"/>
   <rect x="130.96" y="84.618" width=".065214" height=".065214"/>
   <rect x="131.03" y="84.553" width=".065214" height=".065214"/>
   <path d="m130.18 84.553v0.19564h0.0652v0.13043h0.0652v-0.13043h0.13043v0.13043h0.0652v-0.06521h0.0652v-0.26086h-0.0652v0.06521h-0.0652v0.06521h-0.13041v-0.06521h-0.0652v-0.06521zm0.13044 0.06521h0.13042v-0.06521h-0.13042z"/>
   <rect x="130.31" y="84.814" width=".13043" height=".065214"/>
  </g>
  <g fill="#cf2f25">
   <rect x="130.51" y="85.923" width=".065214" height=".065214"/>
   <rect x="130.44" y="85.988" width=".065214" height=".065214"/>
   <rect x="130.31" y="85.988" width=".065214" height=".19564"/>
   <rect x="130.05" y="86.053" width=".065214" height=".065214"/>
   <rect x="130.25" y="86.053" width=".065214" height=".065214"/>
   <rect x="130.05" y="86.118" width=".26086" height=".065214"/>
   <rect x="130.25" y="85.662" width=".065214" height=".065214"/>
  </g>
  <g fill="#7b8694">
   <path d="m144.7 93.66h1.3449v0.22395h-1.3449z"/>
   <path d="m142.46 93.66h1.3449v0.22395h-1.3449z"/>
   <path d="m140.22 93.66h1.3449v0.22395h-1.3449z"/>
   <path d="m137.97 93.66h1.3449v0.22395h-1.3449z"/>
   <path d="m135.73 93.66h1.3449v0.22395h-1.3449z"/>
   <path d="m133.49 93.66h1.3449v0.22395h-1.3449z"/>
   <path d="m131.25 93.66h1.3449v0.22395h-1.3449z"/>
   <path d="m129.01 93.66h1.3449v0.22395h-1.3449z"/>
   <path d="m126.76 93.66h1.3449v0.22395h-1.3449z"/>
   <path d="m124.52 93.66h1.3449v0.22395h-1.3449z"/>
   <path d="m122.28 93.66h1.3449v0.22395h-1.3449z"/>
   <path d="m120.04 93.66h1.3449v0.22395h-1.3449z"/>
  </g>
  <path d="m133.84 84.497c-0.0183-0.0052-0.0422-0.0307-0.0475-0.05051-4e-3 -0.01395-2e-3 -0.03365 0.01-0.12725 9e-3 -0.06253 0.0169-0.11718 0.0205-0.12554 6e-3 -0.01548 0.0226-0.03144 0.0358-0.03563 8e-3 -0.0024 8e-3 -0.0058 8e-3 -0.10114v-0.09865h-0.1274l-0.35302 0.09624-0.35305 0.09624-0.38628-0.10498c-0.21246-0.05774-0.38632-0.10588-0.38633-0.10699-3e-5 -0.0011 0.17381-0.04939 0.38634-0.10728l0.38637-0.10526 0.35424 0.09662 0.35422 0.09662h0.0757c0.0637 0 0.0767 9.84e-4 0.0819 0.0061 5e-3 0.0052 6e-3 0.02145 6e-3 0.11806 0 0.10865 3e-4 0.11203 8e-3 0.11444 0.0132 0.0042 0.0292 0.02016 0.0358 0.03563 4e-3 0.0083 0.0124 0.063 0.0205 0.12554 0.0122 0.0936 0.0134 0.1133 0.01 0.12725-6e-3 0.02071-0.0295 0.0452-0.0495 0.05074-0.018 5e-3 -0.072 0.0048-0.0897-2.29e-4zm-0.89019-0.03834c-0.11178-0.01013-0.24652-0.04444-0.30451-0.07767l-0.0204-0.01171v-0.14341c0-0.08545 7.6e-4 -0.14346 4e-3 -0.14346 2e-3 0 0.0936 0.02454 0.20354 0.05454l0.19994 0.05454 0.20104-0.05454c0.11055-0.03 0.20228-0.05454 0.20379-0.05454 7.5e-4 0 2e-3 0.06455 2e-3 0.14346v0.14346l-0.0204 0.01172c-0.0459 0.02632-0.14954 0.05618-0.24241 0.06986-0.0615 9e-3 -0.1712 0.01284-0.22701 0.0078z" fill="#a6aeb8"/>
 </g>
</svg>
